OFF
413 2505 0
0.000000 0.000000 0.000000
100.000000 0.000000 0.000000
100.000000 100.000000 0.000000
0.000000 100.000000 0.000000
0.000000 0.000000 100.000000
100.000000 0.000000 100.000000
100.000000 100.000000 100.000000
0.000000 100.000000 100.000000
100.000000 50.399280 53.977926
49.016467 100.000000 53.248155
100.000000 100.000000 50.000000
50.000000 100.000000 100.000000
100.000000 50.000000 100.000000
0.000000 51.147737 49.189311
0.000000 50.000000 100.000000
51.978048 49.101203 0.000000
0.000000 50.000000 0.000000
48.208786 0.000000 49.201161
49.153725 48.120282 100.000000
52.122165 46.589998 51.295158
0.000000 0.000000 50.000000
50.000000 0.000000 0.000000
0.000000 100.000000 50.000000
50.000000 100.000000 0.000000
100.000000 50.000000 0.000000
50.000000 0.000000 100.000000
73.658501 100.000000 74.870402
74.778138 73.482039 0.000000
100.000000 0.000000 50.000000
52.675407 74.436984 72.775666
46.004830 75.149099 26.000969
24.842029 0.000000 23.525221
25.234599 26.473012 52.174284
76.085548 25.713772 100.000000
47.838493 27.505644 73.725442
74.851295 50.649333 75.627350
25.554943 0.000000 50.439703
75.839382 48.248672 100.000000
48.197788 23.525759 100.000000
23.134515 50.324529 27.128604
25.000000 0.000000 100.000000
25.981065 51.526856 74.053090
25.940755 76.069798 51.867046
47.896073 27.206520 23.624578
73.418494 73.455466 48.725821
0.000000 0.000000 75.000000
100.000000 28.066561 74.523176
74.166855 25.872211 47.773927
100.000000 71.171939 77.933863
74.372796 27.964805 0.000000
46.604172 47.893971 72.412732
0.000000 25.000000 100.000000
48.460490 0.000000 25.308529
34.871478 0.000000 37.269423
75.388837 50.360649 26.208059
77.732195 100.000000 53.622245
51.364252 100.000000 73.038646
73.804364 49.995573 47.674231
24.926684 28.771472 0.000000
100.000000 27.680190 25.342622
0.000000 75.000000 0.000000
100.000000 100.000000 75.000000
0.000000 24.995521 24.921442
0.000000 47.321205 23.834269
0.000000 24.518642 47.650842
24.277403 25.236562 25.344139
100.000000 77.975969 46.556500
100.000000 84.215623 65.282004
100.000000 75.000000 100.000000
75.000000 100.000000 100.000000
25.000000 100.000000 0.000000
61.094116 35.145191 64.245002
59.382092 100.000000 87.360143
33.995958 12.085181 50.712620
100.000000 25.000000 100.000000
35.561591 11.790896 24.154182
0.000000 75.695288 38.433917
62.617956 86.318504 73.702739
0.000000 100.000000 75.000000
62.306242 100.000000 26.619599
62.835339 100.000000 59.455139
59.752943 38.288342 34.621655
49.500483 75.078986 51.492285
100.000000 22.670221 50.136640
100.000000 50.202280 73.512805
68.840390 33.776489 19.835590
0.000000 100.000000 25.000000
36.606344 0.000000 75.767365
37.620067 64.835434 37.492150
87.675793 100.000000 65.291057
24.164389 100.000000 64.322640
0.000000 39.330429 74.530292
100.000000 75.000000 0.000000
16.525965 54.547244 44.903912
75.407566 87.598252 61.527397
69.082435 36.889228 51.582544
61.981488 40.055684 79.427185
71.400944 49.949591 0.000000
100.000000 0.000000 25.000000
31.339357 69.815303 0.000000
75.000000 0.000000 0.000000
43.132490 31.231199 44.362670
100.000000 25.000000 0.000000
100.000000 65.334048 59.797729
75.890508 0.000000 77.065462
28.648023 100.000000 29.190066
15.552052 82.729814 0.000000
34.921632 83.634845 62.538832
49.785247 24.241192 0.000000
86.985429 61.366475 76.106673
36.819694 27.302973 12.235211
0.000000 75.000000 100.000000
100.000000 49.958739 25.696551
100.000000 40.608350 41.374623
25.000000 0.000000 0.000000
0.000000 25.000000 0.000000
0.000000 0.000000 25.000000
0.000000 37.756658 57.692915
0.000000 12.314511 40.124037
100.000000 12.658250 15.596905
16.721825 75.985480 26.332688
61.295858 72.374635 100.000000
75.562165 0.000000 26.655490
76.046522 62.482856 62.838982
0.000000 68.841960 68.853908
33.125671 55.251642 58.226071
75.000000 0.000000 100.000000
49.573419 13.225251 37.668041
32.137083 100.000000 47.979030
0.000000 81.252881 18.593704
32.985431 22.601227 37.672535
25.757091 49.001741 0.000000
100.000000 37.949292 58.963243
14.062906 0.000000 64.461745
100.000000 59.795351 87.601562
46.269876 38.524268 61.546522
51.458674 86.477825 61.975115
87.325353 49.642009 38.826591
62.508573 40.087983 100.000000
77.672225 68.916249 100.000000
48.418473 48.064543 19.638190
100.000000 0.000000 75.000000
59.545211 14.394637 100.000000
100.000000 73.438948 24.968367
60.563142 0.000000 86.743777
79.560256 0.000000 45.762618
100.000000 40.157565 87.213960
18.492182 43.484767 55.837496
13.659606 100.000000 35.718738
69.578632 68.377339 82.405563
87.018252 87.215110 48.158686
26.923080 26.207981 73.533368
35.997716 38.543441 28.285151
62.452533 60.089222 70.257376
87.205638 62.445905 49.833473
0.000000 87.500000 0.000000
83.333970 15.624517 23.209295
15.462619 100.000000 16.673643
46.881369 100.000000 33.585040
36.340366 25.389175 63.936760
84.463962 85.903140 100.000000
32.770211 74.022153 100.000000
31.020960 39.256288 68.704092
47.745781 65.261208 100.000000
62.517726 57.602020 100.000000
48.674589 60.985388 64.073563
87.936015 40.754194 100.000000
0.000000 12.498695 12.487433
24.035224 72.087570 70.549676
73.697502 72.844499 27.836339
12.454485 12.694908 24.999053
100.000000 59.742765 41.098844
33.558123 12.885714 0.000000
86.145859 35.266305 50.179650
75.000000 100.000000 0.000000
39.619205 39.909244 0.000000
23.977431 36.355854 100.000000
32.060138 53.792242 100.000000
86.264701 50.162889 61.447476
0.000000 83.372718 55.289445
16.124975 60.320407 60.263909
37.208934 0.000000 12.296644
37.862960 64.227179 82.109384
86.649434 37.342830 24.503740
17.875648 85.027077 36.198089
83.971238 12.759134 0.000000
25.000000 100.000000 100.000000
23.063940 12.934019 13.835008
61.692442 61.497538 51.814217
65.814542 13.598508 49.866870
33.285695 49.908294 42.031217
84.764417 0.000000 61.593099
77.111547 11.757896 35.153890
13.579203 61.555898 0.000000
83.861809 29.110885 83.994460
81.065983 19.924201 65.049807
58.537265 27.676396 50.638152
31.406460 17.701343 100.000000
16.452101 49.053259 100.000000
88.328604 56.498736 100.000000
0.000000 61.353063 13.746131
26.976709 0.000000 66.572805
13.270958 27.935551 11.785564
59.988882 37.448816 0.000000
31.616390 100.000000 81.776871
25.483028 38.926314 12.915851
100.000000 100.000000 25.000000
0.000000 54.095589 80.499382
80.014328 36.600108 63.723975
41.157867 100.000000 16.032642
73.731549 62.060358 37.410873
20.120561 15.764134 61.254651
38.072611 72.118618 55.918884
73.110784 14.263138 86.742636
67.085676 22.521130 74.893574
85.346303 12.785915 49.393920
14.893521 0.000000 37.319574
83.935572 84.327203 77.001931
78.957731 56.878889 88.493690
64.308223 0.000000 14.884656
0.000000 21.951307 68.759599
87.005012 58.409110 0.000000
88.063389 26.695225 37.782915
100.000000 50.013041 87.197954
27.688044 100.000000 15.112081
72.838290 74.006615 70.970146
0.000000 52.683186 64.542420
37.135224 83.433720 39.935352
42.251082 87.598422 50.383667
22.559678 100.000000 41.028349
87.107246 73.028183 39.019188
66.993230 85.126944 100.000000
86.952560 41.610161 0.000000
13.457300 59.997049 75.512135
62.260235 49.376321 14.105214
63.215604 20.000351 33.138041
14.915815 100.000000 52.275879
56.778315 56.960549 85.605952
63.096784 100.000000 42.648228
68.124956 82.894974 87.394881
16.526912 100.000000 75.012883
50.241099 37.506797 0.000000
0.000000 63.336000 28.592805
58.607739 100.000000 13.574634
72.713017 61.038322 12.672611
54.094360 0.000000 70.664610
65.878599 12.618878 0.000000
12.480944 0.000000 12.235969
13.796068 25.810241 38.161282
35.875666 48.642827 86.637368
51.144680 13.263173 15.618135
25.086639 0.000000 37.254147
0.000000 37.500000 100.000000
15.328541 88.924359 15.840215
0.000000 61.408509 41.310479
9.486894 37.210985 100.000000
87.016799 74.388358 60.484990
76.911814 32.835439 34.291512
50.890958 20.296052 58.658193
51.865779 77.575185 0.000000
62.829690 0.000000 26.226303
60.029836 27.310815 100.000000
80.622753 100.000000 32.658972
39.339444 42.665808 12.793568
100.000000 12.852414 83.739610
100.000000 89.239436 14.400398
25.628269 89.612875 52.669218
18.445512 0.000000 82.009883
15.388519 66.116742 14.989761
31.454951 59.447426 71.366393
0.000000 100.000000 62.500000
0.000000 85.086054 72.097703
39.080652 0.000000 62.325792
37.500000 0.000000 100.000000
45.428098 11.257177 100.000000
16.346601 13.022960 0.000000
84.872016 29.489816 13.544422
58.506164 83.849932 33.108229
36.906752 86.357473 0.000000
68.126187 26.484029 60.593412
85.616765 77.386141 13.283584
74.137626 42.896350 88.419769
65.350014 87.683289 0.000000
67.865600 0.000000 57.890951
0.000000 100.000000 12.500000
46.053812 62.683836 0.000000
85.294941 87.225467 0.000000
45.674461 0.000000 86.677848
39.219820 35.474729 100.000000
0.000000 65.483442 53.385252
64.013607 76.031267 12.891945
45.843274 100.000000 88.454009
87.702900 0.000000 87.898637
32.668450 0.000000 88.608164
100.000000 12.575775 66.192120
54.793097 11.416527 82.311679
27.047257 84.574099 0.000000
87.557198 14.270179 80.428060
58.659637 13.502395 64.421096
0.000000 39.370853 39.948798
87.049643 63.181478 24.025880
0.000000 39.042889 10.399181
73.045462 100.000000 17.502690
18.217246 61.885739 33.739500
37.793298 15.756016 83.402357
86.835957 48.822492 12.487559
0.000000 37.500000 0.000000
59.609255 62.458957 25.143058
38.923412 31.251746 83.288307
30.466357 83.714629 85.133717
37.687051 100.000000 64.307179
49.140018 81.588384 100.000000
51.271713 86.399998 13.972373
60.721799 87.517741 48.979326
0.000000 42.083539 88.281825
0.000000 52.240348 36.580847
100.000000 86.697597 84.031162
14.033884 23.415604 100.000000
87.273366 100.000000 85.192135
47.462883 52.990044 35.086275
0.000000 14.588921 86.179760
17.462625 12.826968 78.875154
13.687965 43.328079 71.302050
12.608614 27.882651 63.713867
33.712510 86.481101 21.277697
0.000000 29.700318 86.240228
0.000000 86.361132 86.428305
13.177145 38.157627 26.558413
67.333477 17.184738 14.944867
74.095091 41.848283 11.458177
10.587959 41.949951 0.000000
24.269341 36.797653 40.368109
85.618066 0.000000 14.731988
100.000000 87.645444 34.791042
32.866893 67.007116 19.707173
0.000000 49.614373 12.132230
24.631069 39.178560 86.650392
12.500000 100.000000 0.000000
100.000000 100.000000 12.500000
34.092860 37.492438 52.409153
56.899687 69.548772 39.759044
72.062102 88.507279 16.533488
100.000000 12.377404 34.462058
16.301265 65.131535 100.000000
14.848300 82.014811 61.078924
12.671204 31.024018 50.284000
37.576580 12.362924 69.576888
100.000000 87.564398 24.887092
38.182329 53.842555 0.000000
51.705034 34.910942 100.000000
63.621781 0.000000 38.944358
45.755697 60.777811 46.808767
48.622098 87.812510 85.661144
85.428028 71.572297 87.044762
12.500000 100.000000 100.000000
60.204474 51.970682 33.401780
28.121290 63.618525 46.767820
11.698029 30.189979 84.812391
65.131414 48.051589 63.265546
37.500000 100.000000 100.000000
55.831342 35.176064 13.348075
59.506544 62.677926 0.000000
38.803986 76.035334 73.093575
75.288226 87.165992 0.000000
31.673675 54.296512 10.715176
66.348691 27.741679 88.001718
87.716753 12.586410 100.000000
88.112546 100.000000 15.091604
100.000000 41.356740 12.568924
0.000000 70.349973 84.810918
74.027603 87.836775 38.971300
35.295870 90.117665 100.000000
0.000000 11.761306 55.492334
14.647393 100.000000 88.636442
15.221583 47.686467 87.774357
88.201123 0.000000 34.901956
12.423261 47.972721 11.941624
62.159612 73.983488 59.876479
52.013329 100.000000 22.267535
14.791736 13.296463 48.821422
11.258863 100.000000 65.614551
0.000000 86.516512 30.796404
17.374461 86.221771 100.000000
87.111579 85.922081 26.619414
0.000000 89.010097 40.305047
87.245637 100.000000 75.042058
49.306280 63.637841 11.695418
47.837417 74.998561 88.709967
14.903065 77.035215 85.460794
87.891386 43.607417 76.950059
38.921962 55.966431 25.464910
21.725338 62.207551 85.755613
100.000000 58.551332 12.544391
28.617704 74.803585 37.660320
73.130968 35.571896 73.546576
25.795117 21.659629 89.132080
75.056901 0.000000 13.600535
88.292962 48.319882 87.705851
0.000000 0.000000 87.500000
33.361066 76.934855 10.661856
87.315643 0.000000 25.238868
12.500000 0.000000 100.000000
50.912344 37.711790 89.342172
24.958432 88.915837 72.031720
12.015381 85.817411 77.916840
13.474007 70.925938 46.197920
11.368480 89.029243 49.361323
11.910312 43.599537 41.735902
22.863899 11.759384 35.949395
55.176037 24.717226 88.909616
43.116186 88.661149 74.440570
16.873896 10.797658 100.000000
0.000000 12.500000 100.000000
3 179 380 270
3 270 380 271
3 179 271 270
3 179 406 380
3 406 236 380
3 236 344 380
3 236 406 344
3 406 179 344
3 271 404 344
3 271 380 404
3 403 373 240
3 404 373 403
3 404 240 373
3 380 240 404
3 380 403 240
3 344 404 403
3 344 90 380
3 403 90 344
3 403 380 90
3 179 271 344
3 269 168 182
3 168 362 182
3 362 269 182
3 168 269 362
3 269 182 165
3 362 165 182
3 168 107 362
3 212 107 168
3 212 362 107
3 269 212 168
3 362 212 29
3 212 165 29
3 165 362 29
3 269 165 125
3 165 212 125
3 212 269 125
3 220 117 323
3 64 220 117
3 64 345 117
3 345 323 117
3 64 323 345
3 372 323 64
3 220 323 372
3 64 372 220
3 101 258 73
3 101 235 196
3 101 127 235
3 127 196 235
3 127 258 196
3 258 101 196
3 130 73 127
3 130 101 73
3 130 127 101
3 17 258 127
3 272 73 258
3 17 272 258
3 36 17 272
3 201 36 272
3 201 73 272
3 36 73 201
3 17 73 36
3 127 73 17
3 211 201 133
3 36 201 211
3 36 201 133
3 379 36 211
3 379 133 36
3 211 133 379
3 152 319 390
3 190 319 152
3 190 390 319
3 190 39 88
3 88 39 390
3 390 190 88
3 331 39 190
3 327 152 39
3 407 39 331
3 407 327 39
3 407 331 327
3 331 152 327
3 152 331 190
3 263 39 152
3 390 39 263
3 140 390 263
3 152 390 140
3 140 263 152
3 399 253 324
3 253 296 324
3 296 399 324
3 296 253 399
3 399 324 278
3 253 224 324
3 224 70 157
3 253 157 224
3 253 70 157
3 253 296 70
3 296 224 70
3 224 278 324
3 296 278 224
3 399 278 296
3 330 335 16
3 301 335 330
3 301 335 16
3 16 330 306
3 301 16 306
3 301 330 306
3 16 193 335
3 376 335 193
3 376 16 335
3 376 193 16
3 330 335 376
3 330 16 193
3 376 193 330
3 214 104 195
3 213 104 214
3 297 195 104
3 213 292 104
3 213 297 292
3 104 292 297
3 195 297 213
3 214 195 213
3 102 119 1
3 185 102 1
3 1 332 100
3 185 1 100
3 185 396 100
3 396 100 332
3 185 332 396
3 119 332 185
3 98 400 332
3 119 400 332
3 400 119 98
3 98 332 1
3 119 98 1
3 102 119 185
3 397 84 389
3 109 84 223
3 397 223 84
3 109 223 397
3 109 389 84
3 397 389 109
3 303 39 390
3 303 88 39
3 88 303 393
3 303 120 393
3 120 334 393
3 303 334 120
3 334 88 393
3 334 390 88
3 303 390 334
3 379 20 36
3 20 36 133
3 372 20 379
3 372 133 20
3 379 133 372
3 30 340 88
3 319 340 355
3 307 355 340
3 355 307 319
3 30 277 340
3 307 277 30
3 340 277 307
3 319 307 30
3 351 340 319
3 351 88 340
3 319 88 351
3 30 88 319
3 210 340 169
3 169 340 307
3 210 169 307
3 210 307 355
3 210 188 340
3 188 355 340
3 188 210 355
3 351 340 188
3 319 351 355
3 19 355 351
3 188 57 19
3 210 57 188
3 210 355 57
3 19 81 355
3 95 81 19
3 95 57 81
3 19 57 95
3 57 355 81
3 19 351 188
3 19 355 319
3 351 19 319
3 386 290 312
3 30 290 307
3 307 244 386
3 290 244 307
3 290 386 244
3 386 30 307
3 30 312 290
3 386 312 30
3 109 256 103
3 109 123 256
3 123 103 256
3 109 103 123
3 103 256 178
3 123 178 256
3 178 123 109
3 109 389 178
3 389 84 178
3 8 178 84
3 8 103 178
3 8 103 84
3 109 103 84
3 35 123 109
3 153 123 35
3 153 358 123
3 358 153 35
3 178 123 358
3 358 35 178
3 389 178 35
3 389 35 109
3 173 137 178
3 173 8 113
3 8 137 113
3 137 222 113
3 222 173 113
3 173 222 137
3 8 178 137
3 173 178 8
3 108 175 241
3 110 241 108
3 110 175 241
3 58 175 205
3 110 263 175
3 110 205 263
3 175 263 205
3 110 202 205
3 58 202 110
3 58 205 202
3 58 175 108
3 58 110 108
3 58 202 330
3 58 115 202
3 330 202 306
3 115 306 202
3 330 115 306
3 58 115 330
3 376 200 335
3 376 268 200
3 63 268 376
3 63 200 268
3 63 200 335
3 376 335 63
3 189 192 235
3 47 192 189
3 47 257 192
3 257 235 192
3 257 47 235
3 189 235 47
3 287 295 304
3 25 295 287
3 25 274 295
3 287 274 25
3 287 304 274
3 142 295 274
3 142 409 295
3 274 409 142
3 409 304 295
3 38 409 274
3 38 304 409
3 38 274 304
3 237 35 281
3 153 35 237
3 153 96 35
3 237 96 153
3 394 281 35
3 96 394 35
3 281 394 96
3 237 281 96
3 397 218 37
3 199 218 397
3 199 37 218
3 166 199 397
3 37 166 199
3 166 397 37
3 197 304 308
3 308 304 409
3 38 308 409
3 274 38 197
3 274 304 197
3 288 308 38
3 197 308 395
3 288 395 308
3 395 288 197
3 38 288 197
3 34 159 258
3 159 346 258
3 298 258 346
3 34 258 298
3 346 34 298
3 159 34 346
3 159 304 346
3 34 304 159
3 34 295 409
3 402 409 308
3 402 34 409
3 308 34 402
3 304 34 308
3 346 295 34
3 346 304 295
3 409 34 214
3 298 214 34
3 298 295 214
3 295 298 346
3 295 365 214
3 365 409 214
3 365 295 409
3 272 258 346
3 298 258 272
3 272 245 298
3 346 245 272
3 87 245 346
3 87 295 245
3 87 346 295
3 298 245 295
3 266 90 236
3 344 90 266
3 380 90 236
3 266 236 344
3 387 352 309
3 371 352 387
3 371 291 352
3 371 309 291
3 309 352 291
3 387 309 371
3 248 32 345
3 248 408 32
3 379 32 408
3 379 408 248
3 211 32 379
3 211 345 32
3 379 345 323
3 211 323 345
3 379 323 211
3 248 345 379
3 237 402 96
3 18 402 237
3 18 349 402
3 138 402 349
3 349 138 18
3 237 138 18
3 138 96 402
3 281 96 138
3 138 237 164
3 37 281 164
3 218 37 164
3 281 397 218
3 397 281 37
3 237 218 164
3 281 218 35
3 218 237 35
3 281 138 164
3 43 127 235
3 101 43 235
3 130 43 101
3 43 130 65
3 130 75 65
3 43 65 75
3 52 250 75
3 52 127 250
3 127 52 75
3 43 250 127
3 75 250 43
3 130 127 75
3 408 248 118
3 379 408 118
3 64 345 379
3 64 248 345
3 64 118 248
3 379 118 64
3 220 133 45
3 372 133 220
3 45 372 20
3 133 45 20
3 220 372 45
3 9 228 128
3 158 228 9
3 158 128 228
3 9 158 128
3 324 105 184
3 227 105 324
3 227 393 184
3 324 393 227
3 324 184 393
3 229 105 227
3 229 184 105
3 227 184 229
3 248 62 65
3 62 170 65
3 62 248 64
3 64 62 118
3 170 118 248
3 62 118 170
3 170 408 65
3 408 130 65
3 130 248 65
3 130 408 248
3 408 170 248
3 170 118 408
3 213 33 366
3 365 33 213
3 365 194 33
3 213 194 365
3 194 366 33
3 213 297 194
3 297 366 194
3 297 213 366
3 31 75 187
3 408 75 251
3 251 75 31
3 408 251 31
3 408 187 75
3 31 187 408
3 28 145 375
3 28 375 98
3 342 28 98
3 342 400 98
3 400 98 375
3 342 375 400
3 342 215 375
3 83 215 342
3 28 215 83
3 83 28 342
3 145 375 215
3 28 145 215
3 192 375 342
3 342 215 192
3 145 375 192
3 192 215 145
3 52 260 250
3 127 260 52
3 127 350 260
3 235 350 127
3 235 260 350
3 43 250 235
3 328 235 250
3 260 235 328
3 250 260 219
3 328 219 260
3 250 219 328
3 149 29 239
3 149 225 29
3 225 77 29
3 149 77 225
3 77 239 29
3 149 239 77
3 216 118 408
3 170 118 216
3 170 216 408
3 216 31 251
3 216 408 251
3 187 408 170
3 170 31 187
3 62 116 118
3 62 116 170
3 216 20 118
3 116 216 20
3 116 20 118
3 31 216 116
3 170 116 31
3 180 124 289
3 124 180 233
3 226 233 180
3 124 226 207
3 233 207 124
3 233 226 207
3 226 124 289
3 13 226 180
3 289 13 226
3 13 180 289
3 391 198 374
3 391 343 198
3 343 198 177
3 391 177 343
3 177 374 198
3 391 374 177
3 343 198 374
3 343 374 391
3 9 136 56
3 310 136 9
3 9 310 56
3 410 136 310
3 410 56 136
3 310 56 410
3 67 66 10
3 150 10 67
3 150 66 10
3 67 66 150
3 110 172 187
3 58 172 110
3 275 58 172
3 275 187 172
3 58 187 275
3 65 187 202
3 110 65 202
3 110 187 65
3 187 58 202
3 17 245 298
3 272 17 245
3 298 258 17
3 291 352 11
3 371 311 11
3 311 11 72
3 352 72 11
3 352 311 72
3 387 311 352
3 371 311 387
3 359 371 11
3 359 11 291
3 371 291 359
3 72 291 11
3 291 352 72
3 403 309 404
3 403 388 309
3 388 404 309
3 404 388 403
3 168 309 403
3 269 391 182
3 168 391 233
3 269 41 391
3 41 233 391
3 269 233 41
3 168 233 269
3 309 182 391
3 362 182 309
3 168 362 309
3 388 391 168
3 388 309 391
3 404 388 168
3 168 403 404
3 254 13 289
3 254 93 289
3 93 13 289
3 407 13 93
3 299 13 407
3 299 13 315
3 407 315 299
3 93 315 407
3 315 13 254
3 93 254 315
3 182 29 165
3 362 29 182
3 153 237 29
3 165 153 29
3 153 165 237
3 182 249 50
3 237 249 182
3 237 50 249
3 165 50 237
3 269 50 125
3 165 125 50
3 182 50 269
3 237 387 29
3 387 237 182
3 387 362 29
3 362 387 182
3 259 290 312
3 259 361 290
3 285 259 361
3 285 386 361
3 259 386 285
3 386 290 361
3 259 312 386
3 153 358 96
3 50 358 153
3 96 71 50
3 358 71 96
3 50 71 358
3 237 96 50
3 153 165 50
3 195 215 83
3 195 294 215
3 294 83 215
3 46 294 83
3 132 46 83
3 132 195 83
3 46 195 132
3 294 46 264
3 294 297 264
3 297 46 264
3 195 297 294
3 195 46 297
3 351 82 88
3 212 82 351
3 227 82 228
3 212 228 82
3 227 228 212
3 88 82 227
3 227 212 393
3 356 212 88
3 356 393 212
3 88 393 356
3 227 393 88
3 351 88 212
3 82 340 351
3 82 88 340
3 30 393 88
3 227 393 30
3 82 227 340
3 30 340 227
3 236 406 270
3 406 22 270
3 22 270 236
3 384 148 22
3 406 384 22
3 406 148 384
3 148 22 236
3 229 148 236
3 229 406 236
3 148 406 229
3 46 194 297
3 46 264 194
3 297 194 264
3 146 194 389
3 46 389 194
3 46 84 389
3 146 46 84
3 223 146 84
3 389 397 223
3 389 223 146
3 74 46 146
3 74 194 146
3 46 74 264
3 74 297 194
3 297 74 264
3 65 202 205
3 110 65 43
3 152 43 65
3 263 152 110
3 43 152 263
3 110 43 263
3 152 65 327
3 205 327 65
3 152 327 205
3 205 110 152
3 327 202 205
3 327 65 202
3 263 39 205
3 205 39 327
3 205 152 263
3 174 341 363
3 367 341 302
3 174 302 341
3 367 174 302
3 367 363 341
3 174 363 367
3 296 99 106
3 296 399 106
3 253 106 399
3 268 106 253
3 268 253 120
3 399 120 324
3 253 324 120
3 334 120 399
3 334 268 120
3 399 268 334
3 268 193 106
3 99 193 106
3 193 268 99
3 268 399 99
3 399 278 99
3 296 278 99
3 253 106 296
3 47 192 215
3 189 145 192
3 189 283 145
3 283 215 145
3 283 189 215
3 47 215 189
3 311 163 121
3 387 121 311
3 387 163 121
3 311 163 387
3 259 99 278
3 399 278 259
3 259 99 399
3 282 341 363
3 174 363 282
3 282 302 341
3 174 302 282
3 259 282 27
3 259 290 27
3 290 363 27
3 282 363 27
3 282 363 290
3 312 282 290
3 259 282 312
3 82 277 340
3 227 277 228
3 82 313 277
3 82 228 313
3 277 313 228
3 227 30 277
3 140 307 390
3 390 307 319
3 140 390 319
3 355 307 140
3 140 319 355
3 103 66 256
3 67 103 66
3 150 256 66
3 67 256 150
3 103 256 67
3 358 153 188
3 153 377 188
3 165 377 153
3 188 377 165
3 351 188 165
3 351 165 19
3 358 57 19
3 358 188 57
3 19 165 358
3 165 153 358
3 50 358 19
3 135 19 165
3 135 50 19
3 165 50 135
3 135 358 19
3 135 71 358
3 50 71 135
3 63 315 242
3 303 242 63
3 303 76 242
3 76 242 254
3 76 303 254
3 254 242 315
3 303 315 254
3 63 315 303
3 31 187 247
3 247 187 170
3 247 31 116
3 167 0 116
3 247 116 0
3 0 247 167
3 62 167 116
3 167 170 62
3 167 247 170
3 167 187 170
3 167 247 187
3 263 364 175
3 131 364 263
3 263 175 131
3 348 364 131
3 348 175 364
3 131 348 175
3 357 322 323
3 91 322 357
3 91 323 322
3 325 91 357
3 220 325 91
3 325 357 220
3 220 323 91
3 357 323 220
3 167 115 0
3 275 187 167
3 275 247 187
3 275 114 247
3 0 275 114
3 0 114 247
3 275 0 115
3 167 115 275
3 190 339 125
3 147 339 190
3 147 125 339
3 190 93 147
3 125 147 93
3 356 190 125
3 93 356 125
3 303 93 190
3 303 356 93
3 303 190 356
3 407 248 299
3 62 299 248
3 62 327 299
3 327 62 65
3 327 65 248
3 327 407 299
3 248 331 327
3 407 331 248
3 407 345 299
3 248 345 407
3 64 299 345
3 62 64 299
3 321 304 346
3 321 395 304
3 321 151 395
3 151 304 395
3 159 304 151
3 151 346 159
3 321 346 151
3 220 321 323
3 321 151 323
3 357 395 317
3 321 317 395
3 357 317 321
3 357 151 395
3 357 323 151
3 325 220 320
3 357 320 325
3 320 321 220
3 357 321 320
3 153 35 149
3 218 149 35
3 237 149 218
3 153 149 237
3 386 285 99
3 399 99 285
3 399 334 99
3 334 386 99
3 399 386 334
3 399 285 386
3 285 348 99
3 131 99 364
3 348 131 99
3 285 348 364
3 364 99 334
3 386 364 334
3 285 364 386
3 301 63 335
3 376 335 301
3 376 39 63
3 376 327 39
3 327 63 39
3 327 301 63
3 376 301 327
3 169 244 290
3 169 300 244
3 383 300 169
3 383 280 300
3 383 169 280
3 280 244 300
3 280 290 27
3 244 27 290
3 244 280 27
3 169 290 341
3 280 341 290
3 169 341 280
3 226 322 147
3 233 180 322
3 233 322 207
3 91 322 226
3 91 207 322
3 226 91 207
3 180 147 322
3 226 147 180
3 187 65 75
3 110 75 43
3 187 75 110
3 131 193 99
3 193 364 131
3 334 364 268
3 193 268 364
3 101 19 319
3 190 19 339
3 101 339 19
3 101 190 339
3 351 19 190
3 190 319 351
3 190 101 319
3 411 412 320
3 401 411 412
3 401 320 412
3 411 320 401
3 130 65 152
3 101 152 43
3 130 152 101
3 257 183 85
3 54 85 329
3 183 329 85
3 305 329 276
3 183 276 329
3 276 183 305
3 305 54 329
3 305 183 54
3 54 257 85
3 183 257 54
3 125 19 351
3 356 125 351
3 356 42 125
3 356 212 42
3 212 125 42
3 88 356 351
3 165 82 351
3 212 82 165
3 135 19 125
3 135 125 50
3 81 101 235
3 196 101 81
3 196 189 235
3 279 189 196
3 279 47 189
3 95 196 47
3 279 95 47
3 279 196 95
3 257 81 235
3 257 47 81
3 196 81 47
3 31 114 187
3 181 31 114
3 181 172 114
3 187 172 181
3 275 172 114
3 187 114 275
3 181 31 187
3 75 172 181
3 75 187 172
3 31 75 181
3 195 215 191
3 283 191 215
3 195 191 283
3 47 215 195
3 195 189 279
3 279 47 195
3 283 189 195
3 219 396 328
3 122 219 396
3 122 328 396
3 260 219 122
3 192 122 260
3 328 122 192
3 350 192 260
3 235 192 350
3 235 328 192
3 16 200 60
3 193 16 60
3 16 335 200
3 193 335 200
3 268 60 193
3 268 200 60
3 193 200 268
3 177 18 249
3 163 177 18
3 163 249 18
3 177 249 163
3 31 247 114
3 290 27 341
3 363 27 280
3 363 341 27
3 280 341 286
3 363 286 341
3 280 286 363
3 58 131 205
3 175 58 131
3 205 131 263
3 330 131 205
3 58 330 131
3 330 376 202
3 376 205 202
3 376 330 205
3 205 364 263
3 376 364 205
3 376 131 364
3 376 330 131
3 390 334 39
3 334 303 39
3 303 39 268
3 268 120 303
3 364 268 39
3 364 39 263
3 140 390 364
3 140 364 263
3 364 390 334
3 376 327 205
3 268 39 376
3 330 193 131
3 193 268 376
3 251 73 36
3 53 73 251
3 251 53 36
3 53 17 36
3 130 73 53
3 127 75 53
3 130 53 75
3 17 127 53
3 17 53 52
3 127 52 17
3 53 251 75
3 53 251 31
3 31 52 75
3 53 31 52
3 408 75 130
3 53 251 408
3 408 130 53
3 127 17 350
3 17 189 350
3 127 189 196
3 258 196 189
3 17 298 189
3 298 258 189
3 189 235 350
3 127 235 189
3 279 71 196
3 298 71 279
3 298 258 71
3 279 258 298
3 258 196 71
3 279 196 258
3 103 66 154
3 150 230 66
3 256 230 150
3 230 154 66
3 230 256 154
3 103 154 256
3 88 356 190
3 190 351 88
3 339 135 19
3 125 135 339
3 79 158 238
3 277 238 79
3 277 313 238
3 158 313 277
3 158 238 313
3 378 277 79
3 378 158 277
3 378 158 79
3 390 319 88
3 233 391 388
3 369 391 233
3 369 388 391
3 388 369 124
3 207 369 233
3 207 369 124
3 124 233 388
3 54 234 355
3 54 244 234
3 244 307 234
3 54 307 244
3 307 355 234
3 54 355 307
3 54 300 244
3 169 300 54
3 169 307 290
3 210 169 54
3 54 355 210
3 76 405 254
3 303 405 76
3 93 405 303
3 405 289 254
3 405 93 289
3 303 315 93
3 327 63 62
3 407 315 327
3 63 299 315
3 63 327 315
3 299 63 62
3 233 322 41
3 374 41 322
3 233 41 374
3 233 374 391
3 207 391 374
3 207 233 391
3 91 374 322
3 314 207 91
3 374 91 314
3 314 207 374
3 401 398 320
3 398 267 320
3 267 321 320
3 411 321 267
3 411 320 321
3 267 398 411
3 398 401 411
3 267 401 411
3 398 267 401
3 109 225 149
3 217 353 225
3 109 217 225
3 353 217 109
3 353 149 225
3 109 149 353
3 217 149 225
3 353 149 217
3 62 63 301
3 306 202 301
3 115 301 306
3 62 202 115
3 115 62 301
3 62 65 202
3 327 301 202
3 331 65 248
3 331 130 65
3 130 331 152
3 130 248 331
3 184 405 76
3 120 405 184
3 120 303 405
3 303 120 76
3 76 120 381
3 184 381 120
3 76 381 184
3 187 65 408
3 193 60 106
3 155 106 60
3 155 60 129
3 106 129 155
3 200 129 60
3 200 129 268
3 253 129 106
3 253 120 129
3 268 129 120
3 376 202 301
3 167 202 170
3 187 170 202
3 167 115 202
3 115 275 202
3 187 202 275
3 115 58 275
3 65 202 170
3 167 62 115
3 386 390 334
3 140 390 386
3 140 348 364
3 348 386 285
3 140 386 348
3 184 42 405
3 184 393 42
3 405 42 393
3 120 405 393
3 184 120 393
3 393 212 42
3 356 405 42
3 356 93 405
3 303 356 88
3 253 337 157
3 70 337 157
3 106 337 253
3 106 337 70
3 296 106 70
3 8 171 154
3 103 8 171
3 103 154 171
3 8 154 178
3 256 178 154
3 277 290 169
3 277 312 290
3 30 312 277
3 340 277 169
3 253 86 381
3 148 157 86
3 253 157 86
3 148 157 253
3 148 381 86
3 406 184 384
3 148 184 406
3 381 384 184
3 148 384 381
3 253 184 148
3 253 120 184
3 129 381 120
3 253 381 129
3 163 18 164
3 237 164 163
3 237 18 164
3 249 18 237
3 163 249 182
3 387 163 182
3 387 237 163
3 362 403 107
3 403 362 309
3 168 107 403
3 284 155 129
3 253 129 284
3 106 253 155
3 284 155 253
3 284 3 155
3 337 155 3
3 284 337 3
3 284 157 337
3 284 157 253
3 106 155 337
3 148 86 22
3 384 22 86
3 384 86 381
3 284 129 86
3 284 86 157
3 381 86 129
3 121 149 164
3 121 237 149
3 237 164 149
3 237 121 164
3 163 164 121
3 237 149 387
3 311 239 121
3 311 387 239
3 149 239 387
3 149 121 239
3 209 105 158
3 378 209 158
3 378 324 158
3 209 324 378
3 324 105 158
3 224 105 324
3 209 224 105
3 224 324 209
3 190 39 303
3 227 30 324
3 158 30 227
3 158 324 30
3 105 158 227
3 278 70 23
3 209 23 278
3 209 23 70
3 278 296 70
3 209 70 224
3 278 224 209
3 229 105 148
3 184 148 229
3 253 105 157
3 148 105 157
3 224 105 253
3 324 120 184
3 224 157 105
3 227 228 158
3 227 128 228
3 229 128 227
3 229 128 105
3 105 128 158
3 287 295 87
3 304 293 87
3 287 293 304
3 287 293 87
3 304 87 346
3 80 77 136
3 94 77 26
3 80 26 77
3 55 80 26
3 94 26 55
3 55 80 94
3 94 136 77
3 80 136 94
3 410 77 136
3 56 77 410
3 56 26 77
3 80 56 26
3 9 136 80
3 80 9 56
3 158 277 30
3 378 30 277
3 30 378 312
3 378 324 312
3 324 30 312
3 406 179 22
3 406 384 179
3 384 179 22
3 312 290 341
3 277 341 290
3 79 341 277
3 243 312 341
3 302 341 79
3 302 243 341
3 302 243 79
3 312 243 79
3 378 312 79
3 299 64 117
3 407 117 299
3 407 345 117
3 93 303 39
3 407 39 315
3 303 315 39
3 303 407 315
3 93 39 407
3 407 303 93
3 377 82 340
3 82 188 351
3 188 377 340
3 188 82 377
3 82 377 165
3 410 362 29
3 352 410 29
3 362 410 352
3 387 352 29
3 362 352 387
3 355 85 54
3 355 81 85
3 257 85 81
3 54 257 81
3 355 54 81
3 95 47 81
3 95 257 47
3 257 95 57
3 54 137 57
3 137 257 57
3 183 257 137
3 183 137 54
3 54 57 210
3 2 286 338
3 367 338 286
3 367 338 2
3 174 367 2
3 174 2 286
3 174 286 363
3 367 286 363
3 352 231 72
3 311 231 352
3 311 231 11
3 72 231 11
3 399 30 324
3 399 334 30
3 334 324 30
3 334 399 324
3 390 319 30
3 30 334 390
3 393 42 266
3 184 266 42
3 227 393 266
3 184 229 266
3 128 266 229
3 266 228 227
3 266 128 228
3 128 229 236
3 266 236 128
3 406 236 266
3 406 266 184
3 117 323 322
3 117 322 91
3 323 117 91
3 323 322 147
3 345 147 117
3 323 147 345
3 117 147 226
3 226 117 91
3 200 63 242
3 268 242 200
3 268 63 242
3 120 268 242
3 76 129 242
3 120 242 303
3 129 76 381
3 200 242 129
3 315 39 63
3 331 147 190
3 331 39 93
3 331 407 147
3 407 93 147
3 331 93 407
3 406 344 405
3 406 42 344
3 42 405 344
3 184 406 405
3 406 266 42
3 266 228 42
3 227 42 228
3 393 42 227
3 93 180 356
3 93 405 180
3 180 42 356
3 405 42 180
3 149 387 29
3 153 149 29
3 379 211 372
3 220 211 133
3 211 323 372
3 220 323 211
3 405 289 344
3 289 179 344
3 405 179 289
3 406 179 405
3 161 182 391
3 309 371 161
3 371 387 161
3 182 161 387
3 362 387 309
3 388 161 391
3 309 161 388
3 249 402 288
3 308 402 249
3 308 288 402
3 336 308 249
3 336 288 308
3 176 288 336
3 249 288 176
3 336 249 176
3 379 64 372
3 94 313 370
3 94 136 313
3 228 313 136
3 82 228 136
3 82 377 313
3 136 377 82
3 136 94 377
3 377 44 313
3 94 44 377
3 277 313 44
3 277 370 313
3 44 370 277
3 94 370 44
3 384 381 76
3 406 184 76
3 406 76 384
3 76 289 179
3 76 254 289
3 76 179 384
3 25 295 144
3 287 144 295
3 25 287 144
3 212 42 228
3 34 135 71
3 196 71 135
3 258 196 135
3 159 258 135
3 159 135 34
3 279 214 71
3 214 279 195
3 298 195 279
3 298 214 195
3 214 34 71
3 211 151 32
3 211 323 151
3 162 151 323
3 159 151 162
3 159 32 151
3 162 32 159
3 323 32 162
3 323 345 32
3 345 32 147
3 147 339 162
3 32 339 147
3 32 162 339
3 323 147 162
3 323 322 151
3 162 151 322
3 41 162 322
3 147 162 41
3 41 322 147
3 107 82 212
3 107 228 82
3 42 228 107
3 212 42 107
3 382 161 388
3 371 382 161
3 382 309 186
3 371 186 309
3 382 371 186
3 388 309 382
3 168 344 403
3 107 403 344
3 168 42 344
3 107 344 266
3 266 42 107
3 212 42 168
3 410 204 309
3 352 204 410
3 309 204 291
3 352 291 204
3 410 309 352
3 55 313 238
3 94 313 55
3 55 370 94
3 370 238 313
3 55 238 370
3 378 79 243
3 209 378 243
3 378 312 209
3 23 209 243
3 23 312 243
3 259 278 23
3 312 23 259
3 259 278 312
3 209 312 278
3 389 35 281
3 389 397 35
3 281 397 389
3 397 218 35
3 180 344 168
3 180 42 344
3 180 125 356
3 180 168 125
3 168 269 125
3 269 125 180
3 168 269 180
3 9 228 310
3 9 128 310
3 128 310 266
3 107 310 228
3 266 90 403
3 403 90 107
3 107 266 403
3 266 310 90
3 310 107 90
3 371 309 204
3 359 291 204
3 371 204 359
3 22 179 270
3 236 270 380
3 355 234 81
3 140 234 307
3 140 81 234
3 355 81 140
3 352 77 410
3 410 56 352
3 72 77 352
3 72 56 77
3 291 72 56
3 352 56 291
3 318 385 26
3 239 26 318
3 239 217 26
3 239 318 217
3 217 385 26
3 385 217 318
3 239 77 26
3 217 77 239
3 94 225 217
3 77 225 94
3 77 217 225
3 94 385 26
3 217 385 94
3 182 177 249
3 177 182 163
3 177 249 391
3 182 391 249
3 177 161 343
3 391 161 343
3 387 163 161
3 177 163 161
3 179 124 271
3 344 124 271
3 124 344 289
3 289 124 179
3 124 344 168
3 13 180 93
3 180 233 168
3 124 168 233
3 69 318 160
3 239 318 69
3 239 160 217
3 160 318 217
3 231 160 239
3 69 231 160
3 239 69 231
3 398 4 412
3 401 412 4
3 398 401 4
3 398 412 320
3 128 90 266
3 128 90 310
3 128 236 90
3 124 404 388
3 271 404 124
3 111 382 7
3 326 111 7
3 326 354 7
3 382 354 326
3 382 354 7
3 388 382 326
3 388 111 382
3 404 369 388
3 326 369 404
3 326 404 388
3 111 326 369
3 111 388 369
3 240 404 78
3 271 78 404
3 270 271 78
3 380 270 78
3 240 380 78
3 369 343 207
3 388 343 369
3 391 343 388
3 343 374 207
3 176 197 288
3 395 288 176
3 176 197 395
3 13 299 117
3 13 407 117
3 177 198 176
3 336 176 177
3 336 177 198
3 336 374 176
3 374 198 176
3 374 336 198
3 336 177 374
3 41 249 336
3 41 162 249
3 162 308 249
3 336 308 151
3 162 151 308
3 162 336 151
3 41 336 162
3 249 50 308
3 162 308 34
3 34 308 50
3 135 34 50
3 135 162 34
3 135 50 162
3 41 50 249
3 41 162 50
3 194 397 389
3 281 397 194
3 394 389 35
3 208 389 394
3 208 194 389
3 394 194 208
3 281 194 394
3 388 373 404
3 382 373 388
3 404 373 326
3 354 373 382
3 354 326 373
3 404 326 382
3 404 382 388
3 7 354 373
3 240 78 373
3 271 326 404
3 78 271 326
3 7 373 78
3 326 7 78
3 373 204 309
3 403 204 90
3 240 204 90
3 90 380 240
3 373 204 240
3 403 309 204
3 373 309 404
3 186 371 359
3 186 359 204
3 373 186 204
3 354 382 186
3 373 354 186
3 140 15 263
3 348 15 140
3 175 348 15
3 175 263 15
3 263 364 348
3 140 263 348
3 362 410 309
3 310 90 204
3 310 204 56
3 410 204 56
3 403 309 410
3 410 310 403
3 403 310 90
3 107 403 410
3 410 310 107
3 410 107 362
3 387 161 311
3 371 161 311
3 291 56 204
3 410 204 291
3 352 410 291
3 369 207 14
3 343 207 14
3 111 369 14
3 111 14 343
3 369 343 111
3 368 183 305
3 276 183 368
3 232 276 368
3 232 305 276
3 232 368 305
3 232 102 49
3 276 102 49
3 368 102 276
3 368 232 24
3 102 232 24
3 102 24 368
3 232 329 49
3 329 276 49
3 305 329 232
3 232 24 305
3 368 305 24
3 102 368 59
3 102 276 59
3 183 59 276
3 59 183 112
3 183 368 112
3 368 112 59
3 339 159 135
3 162 34 159
3 339 135 162
3 339 32 159
3 311 161 163
3 382 343 388
3 161 382 343
3 382 111 343
3 180 233 41
3 41 269 180
3 251 408 73
3 130 73 408
3 408 32 130
3 345 331 32
3 248 331 345
3 331 339 32
3 130 339 331
3 130 32 339
3 271 124 369
3 326 271 369
3 314 255 252
3 325 252 255
3 314 325 252
3 325 255 357
3 314 325 357
3 374 255 314
3 374 336 255
3 176 255 336
3 176 357 255
3 336 357 176
3 374 357 336
3 314 357 374
3 14 198 374
3 343 14 198
3 314 14 374
3 207 314 14
3 269 41 249
3 41 391 249
3 182 391 41
3 182 269 249
3 269 182 41
3 162 125 339
3 125 162 41
3 180 147 93
3 269 125 41
3 14 252 255
3 14 314 252
3 198 14 255
3 198 374 255
3 176 198 255
3 357 325 51
3 252 325 51
3 252 51 255
3 317 255 51
3 357 51 317
3 255 357 317
3 325 51 317
3 325 317 357
3 331 339 190
3 407 147 345
3 317 321 411
3 411 320 317
3 51 325 320
3 51 317 320
3 51 320 412
3 317 51 412
3 411 317 412
3 321 133 220
3 211 133 321
3 211 321 323
3 336 322 357
3 336 374 322
3 325 314 91
3 317 197 395
3 176 317 197
3 317 395 176
3 41 269 162
3 269 50 162
3 269 50 41
3 339 101 159
3 32 73 101
3 159 73 32
3 73 159 258
3 159 101 258
3 32 101 339
3 101 339 130
3 32 73 130
3 346 272 73
3 159 346 73
3 357 336 395
3 336 308 395
3 304 308 151
3 304 395 197
3 336 374 41
3 398 45 321
3 267 398 45
3 267 321 45
3 267 398 321
3 264 297 366
3 297 74 366
3 74 264 366
3 297 366 292
3 5 74 366
3 74 5 264
3 292 366 5
3 141 5 292
3 141 264 292
3 141 264 5
3 297 292 264
3 216 251 36
3 216 36 20
3 118 20 372
3 64 118 372
3 216 379 118
3 379 251 36
3 379 216 251
3 379 408 251
3 320 220 45
3 398 320 45
3 267 45 133
3 267 321 133
3 379 73 36
3 379 211 73
3 211 32 73
3 36 73 408
3 251 36 408
3 220 91 117
3 407 13 147
3 13 226 147
3 13 117 226
3 365 394 214
3 96 394 365
3 96 214 394
3 96 34 71
3 214 96 71
3 402 96 409
3 34 96 402
3 96 365 409
3 394 96 71
3 279 394 71
3 279 214 394
3 211 346 201
3 346 272 201
3 211 159 346
3 211 151 159
3 267 201 87
3 321 87 267
3 321 201 87
3 321 267 201
3 336 395 176
3 255 317 176
3 321 346 87
3 346 201 87
3 267 133 201
3 38 409 402
3 402 409 349
3 38 402 349
3 38 274 142
3 365 409 142
3 365 261 409
3 365 142 261
3 38 142 261
3 261 349 409
3 38 261 349
3 402 409 261
3 261 349 402
3 34 308 151
3 34 151 159
3 17 52 350
3 260 350 52
3 402 365 409
3 365 402 138
3 365 138 96
3 261 138 349
3 261 138 365
3 287 293 274
3 293 395 197
3 293 304 395
3 273 274 197
3 273 293 197
3 273 274 293
3 50 96 402
3 308 50 402
3 25 274 273
3 287 25 273
3 287 273 293
3 267 87 293
3 321 293 267
3 293 321 395
3 411 197 293
3 411 395 197
3 317 395 411
3 411 293 40
3 267 293 40
3 401 267 40
3 401 40 411
3 317 411 197
3 411 40 197
3 40 273 197
3 273 40 293
3 288 349 402
3 18 288 349
3 249 402 18
3 177 288 249
3 177 288 18
3 336 177 249
3 391 374 249
3 336 249 374
3 177 176 288
3 142 295 144
3 25 142 274
3 142 144 25
3 134 223 84
3 134 223 109
3 48 134 84
3 48 109 84
3 134 109 48
3 151 308 159
3 34 159 308
3 136 77 29
3 77 377 29
3 136 29 82
3 377 82 29
3 77 225 377
3 94 377 225
3 225 377 29
3 288 38 349
3 135 101 196
3 101 135 339
3 287 87 245
3 144 287 245
3 144 295 245
3 340 277 44
3 188 340 44
3 188 44 57
3 210 57 44
3 210 44 169
3 169 370 277
3 44 370 169
3 17 283 245
3 298 283 245
3 298 189 283
3 17 283 189
3 46 389 208
3 195 194 297
3 394 194 195
3 394 195 208
3 46 208 195
3 265 338 367
3 206 265 338
3 206 338 367
3 367 206 347
3 265 206 347
3 265 367 347
3 87 272 245
3 272 87 201
3 244 97 221
3 305 97 329
3 329 97 244
3 305 329 244
3 305 221 97
3 244 221 305
3 295 144 104
3 144 213 104
3 213 295 104
3 295 213 144
3 213 104 126
3 144 104 126
3 142 25 126
3 144 126 25
3 142 213 126
3 365 213 142
3 365 409 213
3 295 213 409
3 298 104 245
3 283 104 298
3 283 104 245
3 397 223 199
3 397 12 223
3 199 223 12
3 397 146 12
3 74 146 12
3 166 74 12
3 194 146 166
3 74 166 33
3 366 74 33
3 166 33 194
3 166 146 397
3 166 12 199
3 397 146 223
3 146 223 12
3 194 397 166
3 132 178 8
3 208 178 132
3 208 173 178
3 132 173 195
3 208 195 173
3 208 132 195
3 132 8 173
3 276 156 85
3 328 156 276
3 328 85 156
3 49 328 276
3 85 49 329
3 329 276 85
3 49 203 328
3 360 328 203
3 203 49 360
3 360 85 328
3 49 85 360
3 244 386 234
3 386 140 234
3 386 30 334
3 191 145 215
3 28 191 145
3 294 28 83
3 294 191 215
3 141 191 294
3 28 141 191
3 141 28 294
3 283 350 145
3 283 350 189
3 192 350 145
3 19 71 95
3 135 71 19
3 358 95 71
3 95 358 57
3 135 196 19
3 279 71 95
3 19 196 95
3 329 234 85
3 81 85 234
3 54 234 329
3 246 328 49
3 246 108 328
3 108 203 328
3 49 108 203
3 246 108 49
3 92 286 2
3 265 92 2
3 286 338 265
3 2 338 265
3 286 27 363
3 280 92 27
3 92 27 286
3 280 286 265
3 265 347 143
3 280 347 143
3 265 347 280
3 92 265 143
3 92 280 143
3 281 365 33
3 261 33 365
3 261 33 138
3 138 33 37
3 281 37 138
3 281 33 37
3 365 281 96
3 132 173 83
3 47 215 173
3 173 195 47
3 83 222 215
3 222 173 215
3 173 222 83
3 126 366 33
3 213 33 126
3 126 5 366
3 126 292 5
3 126 104 292
3 183 112 54
3 137 54 112
3 113 112 183
3 113 137 112
3 183 137 113
3 141 294 264
3 141 297 264
3 294 297 191
3 141 104 297
3 191 141 104
3 297 104 191
3 104 141 292
3 68 6 160
3 316 160 68
3 316 318 160
3 61 385 318
3 316 385 318
3 61 385 316
3 61 318 6
3 316 61 6
3 69 6 318
3 6 69 160
3 68 316 6
3 195 297 191
3 196 298 189
3 191 104 283
3 214 104 298
3 298 196 258
3 365 214 213
3 144 245 104
3 166 37 281
3 33 166 37
3 365 194 214
3 394 214 194
3 281 194 166
3 48 353 109
3 134 353 48
3 134 109 353
3 134 48 68
3 199 12 68
3 134 68 12
3 134 12 223
3 199 223 134
3 139 199 68
3 139 353 68
3 199 353 139
3 199 218 353
3 218 109 353
3 134 109 218
3 199 134 218
3 353 48 68
3 134 218 397
3 134 397 223
3 218 397 109
3 353 160 217
3 353 139 160
3 231 139 160
3 139 239 231
3 139 353 239
3 239 149 217
3 353 149 239
3 149 239 139
3 353 149 139
3 214 194 297
3 214 297 213
3 214 195 394
3 218 35 109
3 89 55 26
3 385 89 26
3 89 94 385
3 55 94 89
3 389 208 178
3 132 389 178
3 132 84 389
3 46 132 84
3 142 33 261
3 126 33 142
3 48 84 103
3 109 103 48
3 316 217 353
3 61 217 316
3 385 217 61
3 139 68 160
3 316 68 48
3 353 48 316
3 72 239 231
3 239 77 352
3 239 72 77
3 352 231 239
3 208 394 35
3 358 35 394
3 358 208 35
3 358 394 208
3 208 178 358
3 37 164 138
3 138 164 18
3 61 316 67
3 385 67 61
3 385 217 67
3 316 67 217
3 394 358 71
3 165 377 29
3 377 153 225
3 149 225 153
3 37 139 164
3 218 139 164
3 37 139 218
3 121 239 231
3 121 139 231
3 121 164 139
3 218 109 149
3 37 199 139
3 72 231 69
3 11 231 69
3 11 69 72
3 383 280 367
3 265 367 280
3 367 265 383
3 347 280 383
3 265 347 383
3 367 347 383
3 387 239 352
3 231 239 311
3 311 121 231
3 333 66 143
3 383 300 143
3 230 300 383
3 230 143 300
3 347 333 143
3 347 383 143
3 333 383 347
3 230 383 333
3 230 66 143
3 333 66 230
3 81 43 235
3 101 152 81
3 152 43 81
3 217 89 94
3 385 89 217
3 89 67 385
3 217 67 94
3 89 94 67
3 55 80 313
3 80 9 313
3 9 228 313
3 9 136 228
3 55 89 10
3 150 10 55
3 61 67 10
3 89 61 10
3 385 61 89
3 94 150 89
3 94 256 150
3 67 256 94
3 55 89 150
3 55 94 150
3 158 9 313
3 9 238 313
3 158 9 238
3 228 136 107
3 212 136 82
3 212 107 136
3 72 69 26
3 26 56 72
3 318 26 69
3 410 136 362
3 107 362 136
3 212 29 82
3 136 29 362
3 277 340 313
3 82 313 340
3 188 377 44
3 239 225 77
3 239 149 225
3 149 123 225
3 109 225 123
3 153 123 149
3 280 286 367
3 156 332 396
3 185 332 156
3 246 185 100
3 246 396 100
3 219 396 246
3 246 328 219
3 328 246 185
3 122 156 396
3 328 156 192
3 122 192 156
3 328 185 156
3 333 66 150
3 383 333 150
3 230 383 150
3 132 8 84
3 48 256 67
3 48 103 256
3 48 103 67
3 217 256 225
3 217 94 256
3 94 225 256
3 225 123 256
3 316 48 67
3 48 217 316
3 353 217 48
3 59 112 113
3 222 257 137
3 222 183 257
3 59 222 113
3 183 222 59
3 232 97 305
3 221 232 97
3 221 232 305
3 256 44 154
3 123 44 256
3 188 123 57
3 377 44 225
3 123 225 44
3 377 225 123
3 377 123 188
3 178 57 123
3 137 57 178
3 137 154 57
3 178 154 137
3 178 123 154
3 154 44 57
3 256 154 123
3 210 57 137
3 154 44 210
3 154 230 137
3 230 210 137
3 230 154 210
3 210 230 44
3 230 154 44
3 108 43 250
3 43 360 250
3 108 250 360
3 43 108 360
3 43 328 250
3 43 360 328
3 241 360 108
3 15 360 241
3 15 203 360
3 241 15 203
3 108 241 203
3 108 250 328
3 95 208 57
3 394 208 71
3 95 47 208
3 279 208 47
3 279 71 208
3 208 178 57
3 230 171 66
3 154 171 230
3 171 66 103
3 370 230 150
3 230 44 150
3 44 370 150
3 44 230 370
3 370 383 150
3 230 300 169
3 277 341 370
3 383 341 280
3 262 341 302
3 383 302 341
3 383 262 302
3 370 341 262
3 262 383 370
3 230 169 210
3 262 238 370
3 55 262 238
3 262 370 55
3 79 238 370
3 262 79 238
3 79 370 262
3 80 238 313
3 9 80 238
3 80 55 238
3 174 23 243
3 302 174 243
3 302 282 243
3 174 282 23
3 282 312 243
3 23 282 259
3 94 370 150
3 183 156 257
3 276 156 183
3 257 156 85
3 257 85 276
3 183 257 276
3 262 55 10
3 262 150 10
3 262 370 150
3 122 400 192
3 375 122 400
3 375 192 400
3 145 122 375
3 122 192 145
3 333 206 262
3 10 333 206
3 10 206 262
3 66 333 10
3 383 333 262
3 333 347 206
3 383 206 367
3 262 206 367
3 262 367 302
3 383 367 302
3 383 347 206
3 283 17 350
3 280 221 392
3 280 300 221
3 392 221 300
3 280 392 300
3 143 112 300
3 392 143 112
3 392 300 112
3 92 143 392
3 392 24 221
3 92 392 24
3 92 24 221
3 280 221 27
3 92 221 27
3 399 312 278
3 399 324 312
3 259 285 99
3 140 360 234
3 85 360 81
3 329 360 85
3 234 360 329
3 43 360 140
3 43 81 360
3 355 81 319
3 152 319 81
3 140 263 43
3 43 85 360
3 85 328 235
3 85 43 328
3 85 235 257
3 79 262 302
3 276 185 156
3 49 185 276
3 246 49 185
3 331 101 339
3 331 152 101
3 259 27 361
3 234 97 361
3 329 97 234
3 234 244 329
3 361 244 234
3 244 27 97
3 27 97 361
3 361 386 244
3 171 300 230
3 171 143 300
3 171 143 66
3 244 300 221
3 27 221 97
3 54 137 300
3 230 171 137
3 171 300 137
3 230 210 300
3 210 169 300
3 83 59 113
3 132 83 113
3 132 113 8
3 83 59 222
3 300 305 54
3 221 305 300
3 285 386 15
3 361 15 234
3 386 140 15
3 140 234 15
3 361 15 285
3 348 285 15
3 368 112 305
3 305 112 54
3 8 171 137
3 97 232 49
3 97 329 49
3 171 112 300
3 143 171 112
3 15 361 97
3 15 97 203
3 234 203 15
3 234 360 203
3 203 360 85
3 85 329 203
3 329 97 203
3 95 173 57
3 173 95 47
3 208 173 47
3 137 57 173
3 171 112 137
3 54 112 300
3 171 113 112
3 171 8 113
3 392 368 24
3 305 24 392
3 392 368 305
3 232 221 24
3 368 392 112
3 191 283 145
3 222 257 173
3 173 257 47
3 257 192 222
3 222 192 215
3 222 173 47
3 222 47 257
3 400 156 122
3 192 156 375
3 400 375 156
3 114 172 21
3 181 114 21
3 52 181 21
3 52 250 21
3 181 250 52
3 172 108 21
3 108 21 250
3 108 250 172
3 181 172 250
3 97 49 203
3 122 145 350
3 350 260 122
3 263 360 241
3 175 15 241
3 263 241 175
3 263 140 360
3 43 110 360
3 110 241 360
3 108 110 43
3 110 250 43
3 110 108 250
3 58 108 172
3 31 181 52
3 246 328 250
3 250 219 246
3 219 21 100
3 219 100 396
3 246 100 21
3 219 52 21
3 52 219 260
3 108 246 21
3 222 192 342
3 59 83 342
3 59 222 342
3 276 119 156
3 59 119 276
3 59 119 102
3 49 102 185
3 400 332 156
3 400 156 119
3 342 98 119
3 342 156 119
3 400 156 342
3 122 396 332
3 400 122 332
3 235 257 156
3 235 156 192
3 257 156 222
3 192 222 156
3 59 342 119
3 59 156 276
3 222 156 59
3 192 342 156
