OFF
27 88 0
-50.000000 -50.000000 -50.000000
0.000000 -50.000000 -50.000000
50.000000 -50.000000 -50.000000
-50.000000 0.000000 -50.000000
0.000000 0.000000 -50.000000
50.000000 0.000000 -50.000000
-50.000000 50.000000 -50.000000
0.000000 50.000000 -50.000000
50.000000 50.000000 -50.000000
-50.000000 -50.000000 0.000000
0.000000 -50.000000 0.000000
50.000000 -50.000000 0.000000
-50.000000 0.000000 0.000000
0.000000 0.000000 0.000000
50.000000 0.000000 0.000000
-50.000000 50.000000 0.000000
0.000000 50.000000 0.000000
50.000000 50.000000 0.000000
-50.000000 -50.000000 50.000000
0.000000 -50.000000 50.000000
50.000000 -50.000000 50.000000
-50.000000 0.000000 50.000000
0.000000 0.000000 50.000000
50.000000 0.000000 50.000000
-50.000000 50.000000 50.000000
0.000000 50.000000 50.000000
50.000000 50.000000 50.000000
3 5 1 4
3 5 14 4
3 1 14 5
3 13 4 14
3 10 13 14
3 10 1 13
3 14 1 10
3 1 4 13
3 19 22 9
3 19 22 18
3 9 19 18
3 18 22 21
3 9 18 21
3 21 9 22
3 25 13 12
3 25 16 13
3 15 12 16
3 15 24 25
3 24 15 12
3 12 24 25
3 15 25 16
3 12 13 16
3 12 22 13
3 22 25 13
3 25 21 22
3 24 12 21
3 24 21 25
3 21 22 12
3 9 13 12
3 10 13 9
3 10 22 13
3 19 9 10
3 19 22 10
3 9 21 12
3 1 2 11
3 10 1 11
3 10 14 11
3 2 1 5
3 2 5 14
3 2 14 11
3 13 4 3
3 13 16 4
3 12 13 3
3 3 16 15
3 15 3 12
3 3 4 16
3 3 7 4
3 6 3 15
3 6 15 16
3 6 16 7
3 3 6 7
3 7 4 16
3 22 13 23
3 20 19 10
3 20 23 10
3 19 20 23
3 19 23 22
3 23 13 10
3 23 13 14
3 23 20 11
3 20 10 11
3 14 23 11
3 7 4 17
3 17 7 16
3 17 13 16
3 17 14 13
3 17 4 14
3 5 4 8
3 17 5 8
3 7 17 8
3 7 8 4
3 5 17 14
3 0 13 12
3 1 13 0
3 0 1 10
3 0 10 9
3 12 0 9
3 0 3 4
3 1 0 4
3 12 3 0
3 26 13 17
3 22 13 26
3 26 22 23
3 26 23 14
3 17 26 14
3 26 17 16
3 26 25 22
3 25 26 16
