OFF
836 4006 0
-8207.106800 707.106800 2500.000000
-7500.000000 1000.000000 2500.000000
-6792.893200 707.106800 2500.000000
-6500.000000 0.000000 2500.000000
-6792.893200 -707.106800 2500.000000
-7500.000000 -1000.000000 2500.000000
-8207.106800 -707.106800 2500.000000
-8500.000000 0.000000 2500.000000
-8207.106800 -707.106800 -2500.000000
-7500.000000 -1000.000000 -2500.000000
-6792.893200 -707.106800 -2500.000000
-6500.000000 0.000000 -2500.000000
-6792.893200 707.106800 -2500.000000
-7500.000000 1000.000000 -2500.000000
-8207.106800 707.106800 -2500.000000
-8500.000000 0.000000 -2500.000000
6792.893200 -707.106800 -2500.000000
7500.000000 -1000.000000 -2500.000000
8207.106800 -707.106800 -2500.000000
8500.000000 0.000000 -2500.000000
8207.106800 707.106800 -2500.000000
7500.000000 1000.000000 -2500.000000
6792.893200 707.106800 -2500.000000
6500.000000 0.000000 -2500.000000
6792.893200 707.106800 2500.000000
7500.000000 1000.000000 2500.000000
8207.106800 707.106800 2500.000000
8500.000000 0.000000 2500.000000
8207.106800 -707.106800 2500.000000
7500.000000 -1000.000000 2500.000000
6792.893200 -707.106800 2500.000000
6500.000000 0.000000 2500.000000
2750.000000 3939.339800 6060.660200
2750.000000 5000.000000 6500.000000
2750.000000 6060.660200 6060.660200
2750.000000 3500.000000 5000.000000
2750.000000 6500.000000 5000.000000
2750.000000 2549.509800 5000.000000
2750.000000 2549.509800 6250.000000
2750.000000 2549.509800 7500.000000
2750.000000 7848.209100 7500.000000
2750.000000 6081.976000 7500.000000
2750.000000 4315.742900 7500.000000
2750.000000 9614.442300 7500.000000
2750.000000 9614.442300 6250.000000
2750.000000 9614.442300 5000.000000
2750.000000 8057.221100 5000.000000
2501.602600 -9682.044400 5000.000000
2251.547400 -9743.230200 5000.000000
2750.000000 -9614.442300 5000.000000
2000.000000 -9797.959000 5000.000000
2750.000000 -8057.221100 5000.000000
2750.000000 -6500.000000 5000.000000
2000.000000 -6500.000000 5000.000000
2000.000000 -8148.979500 5000.000000
2750.000000 -3500.000000 5000.000000
2000.000000 -3500.000000 5000.000000
2750.000000 -2549.509800 5000.000000
2267.741500 -2986.611500 5000.000000
2518.371900 -2778.543300 5000.000000
2000.000000 -3172.144400 5000.000000
2000.000000 3500.000000 5000.000000
2000.000000 3172.144400 5000.000000
2518.371900 2778.543300 5000.000000
2267.741500 2986.611500 5000.000000
2000.000000 6500.000000 5000.000000
2251.547400 9743.230200 5000.000000
2501.602600 9682.044400 5000.000000
2000.000000 9797.959000 5000.000000
2000.000000 8148.979500 5000.000000
-2501.602600 9682.044400 5000.000000
-2251.547400 9743.230200 5000.000000
-2750.000000 9614.442300 5000.000000
-2000.000000 9797.959000 5000.000000
-2750.000000 7807.221100 5000.000000
-2750.000000 6000.000000 5000.000000
-2000.000000 6000.000000 5000.000000
-2000.000000 7898.979500 5000.000000
-2750.000000 4000.000000 5000.000000
-2000.000000 4000.000000 5000.000000
-2750.000000 2549.509800 5000.000000
-2267.741500 2986.611500 5000.000000
-2518.371900 2778.543300 5000.000000
-2000.000000 3172.144400 5000.000000
-2000.000000 -4000.000000 5000.000000
-2750.000000 -4000.000000 5000.000000
-2000.000000 -3172.144400 5000.000000
-2518.371900 -2778.543300 5000.000000
-2267.741500 -2986.611500 5000.000000
-2750.000000 -2549.509800 5000.000000
-2750.000000 -6000.000000 5000.000000
-2000.000000 -6000.000000 5000.000000
-2750.000000 -7807.221100 5000.000000
-2750.000000 -9614.442300 5000.000000
-2251.547400 -9743.230200 5000.000000
-2501.602600 -9682.044400 5000.000000
-2000.000000 -9797.959000 5000.000000
-2000.000000 -7898.979500 5000.000000
-2750.000000 9614.442300 6250.000000
-2750.000000 9614.442300 7500.000000
-2750.000000 4315.742900 7500.000000
-2750.000000 6081.976000 7500.000000
-2750.000000 7848.209100 7500.000000
-2750.000000 2549.509800 7500.000000
-2750.000000 2549.509800 6250.000000
-2750.000000 5707.106800 5707.106800
-2750.000000 5000.000000 6000.000000
-2750.000000 4292.893200 5707.106800
-2750.000000 -4292.893200 5707.106800
-2750.000000 -5000.000000 6000.000000
-2750.000000 -5707.106800 5707.106800
-2750.000000 -2549.509800 6250.000000
-2750.000000 -2549.509800 7500.000000
-2750.000000 -7848.209100 7500.000000
-2750.000000 -6081.976000 7500.000000
-2750.000000 -4315.742900 7500.000000
-2750.000000 -9614.442300 7500.000000
-2750.000000 -9614.442300 6250.000000
2750.000000 -9614.442300 6250.000000
2750.000000 -9614.442300 7500.000000
2750.000000 -4315.742900 7500.000000
2750.000000 -6081.976000 7500.000000
2750.000000 -7848.209100 7500.000000
2750.000000 -2549.509800 7500.000000
2750.000000 -2549.509800 6250.000000
2750.000000 -6060.660200 6060.660200
2750.000000 -5000.000000 6500.000000
2750.000000 -3939.339800 6060.660200
-2000.000000 -9797.959000 1666.666700
-2000.000000 -9797.959000 3333.333300
-2000.000000 -9797.959000 0.000000
-2000.000000 -8141.505300 0.000000
-2000.000000 -6485.051700 0.000000
-2000.000000 -4828.598000 0.000000
-2000.000000 -3172.144400 0.000000
-2000.000000 -3172.144400 1666.666700
-2000.000000 -3172.144400 3333.333300
-2000.000000 -4292.893200 4292.893200
-2000.000000 -5000.000000 4000.000000
-2000.000000 -5707.106800 4292.893200
5000.000000 -3939.339800 6060.660200
5000.000000 -3500.000000 5000.000000
5000.000000 -3939.339800 3939.339800
5000.000000 -5000.000000 3500.000000
5000.000000 -6060.660200 3939.339800
5000.000000 -6500.000000 5000.000000
5000.000000 -6060.660200 6060.660200
5000.000000 -5000.000000 6500.000000
2000.000000 -6060.660200 3939.339800
2000.000000 -5000.000000 3500.000000
2000.000000 -3939.339800 3939.339800
2000.000000 -3172.144400 3333.333300
2000.000000 -3172.144400 1666.666700
2000.000000 -3172.144400 0.000000
2000.000000 -4828.598000 0.000000
2000.000000 -6485.051700 0.000000
2000.000000 -8141.505300 0.000000
2000.000000 -9797.959000 0.000000
2000.000000 -9797.959000 3333.333300
2000.000000 -9797.959000 1666.666700
2000.000000 9797.959000 1666.666700
2000.000000 9797.959000 3333.333300
2000.000000 9797.959000 0.000000
2000.000000 8141.505300 0.000000
2000.000000 6485.051700 0.000000
2000.000000 4828.598000 0.000000
2000.000000 3172.144400 0.000000
2000.000000 3172.144400 1666.666700
2000.000000 3172.144400 3333.333300
2000.000000 3939.339800 3939.339800
2000.000000 5000.000000 3500.000000
2000.000000 6060.660200 3939.339800
-5000.000000 8660.254000 -5833.333300
-5000.000000 8660.254000 -4166.666700
-5000.000000 8660.254000 -7500.000000
-5000.000000 8660.254000 -2500.000000
-6427.876100 7660.444400 -2500.000000
-7660.444400 6427.876100 -2500.000000
-8660.254000 5000.000000 -2500.000000
-9396.926200 3420.201400 -2500.000000
-9848.077500 1736.481800 -2500.000000
-10000.000000 0.000000 -2500.000000
-9848.077500 -1736.481800 -2500.000000
-9396.926200 -3420.201400 -2500.000000
-8660.254000 -5000.000000 -2500.000000
-7660.444400 -6427.876100 -2500.000000
-6427.876100 -7660.444400 -2500.000000
-5000.000000 -8660.254000 -2500.000000
-5000.000000 -8660.254000 -4166.666700
-5000.000000 -8660.254000 -5833.333300
-5000.000000 -8660.254000 -7500.000000
3420.201400 -9396.926200 -7500.000000
1736.481800 -9848.077500 -7500.000000
0.000000 -10000.000000 -7500.000000
-1736.481800 -9848.077500 -7500.000000
-3420.201400 -9396.926200 -7500.000000
5000.000000 -8660.254000 -7500.000000
5000.000000 -8660.254000 -5833.333300
5000.000000 -8660.254000 -4166.666700
5000.000000 -8660.254000 -2500.000000
6427.876100 -7660.444400 -2500.000000
7660.444400 -6427.876100 -2500.000000
8660.254000 -5000.000000 -2500.000000
9396.926200 -3420.201400 -2500.000000
9848.077500 -1736.481800 -2500.000000
10000.000000 0.000000 -2500.000000
9848.077500 1736.481800 -2500.000000
9396.926200 3420.201400 -2500.000000
8660.254000 5000.000000 -2500.000000
7660.444400 6427.876100 -2500.000000
6427.876100 7660.444400 -2500.000000
5000.000000 8660.254000 -2500.000000
5000.000000 8660.254000 -4166.666700
5000.000000 8660.254000 -5833.333300
5000.000000 8660.254000 -7500.000000
-3420.201400 9396.926200 -7500.000000
-1736.481800 9848.077500 -7500.000000
0.000000 10000.000000 -7500.000000
1736.481800 9848.077500 -7500.000000
3420.201400 9396.926200 -7500.000000
-4276.840100 -9039.283100 7500.000000
-3525.169900 -9358.054100 7500.000000
-5000.000000 -8660.254000 7500.000000
-5000.000000 -8660.254000 5833.333300
-5000.000000 -8660.254000 4166.666700
-5000.000000 -8660.254000 2500.000000
-6427.876100 -7660.444400 2500.000000
-7660.444400 -6427.876100 2500.000000
-8660.254000 -5000.000000 2500.000000
-9396.926200 -3420.201400 2500.000000
-9848.077500 -1736.481800 2500.000000
-10000.000000 0.000000 2500.000000
-9848.077500 1736.481800 2500.000000
-9396.926200 3420.201400 2500.000000
-8660.254000 5000.000000 2500.000000
-7660.444400 6427.876100 2500.000000
-6427.876100 7660.444400 2500.000000
-5000.000000 8660.254000 2500.000000
-5000.000000 8660.254000 4166.666700
-5000.000000 8660.254000 5833.333300
-5000.000000 8660.254000 7500.000000
-3525.169900 9358.054100 7500.000000
-4276.840100 9039.283100 7500.000000
-2000.000000 9797.959000 3333.333300
-2000.000000 9797.959000 1666.666700
-2000.000000 9797.959000 0.000000
-1338.358100 9910.035200 0.000000
-670.689200 9977.483400 0.000000
0.000000 10000.000000 0.000000
670.689200 9977.483400 0.000000
1338.358100 9910.035200 0.000000
4276.840100 9039.283100 7500.000000
3525.169900 9358.054100 7500.000000
5000.000000 8660.254000 7500.000000
5000.000000 8660.254000 5833.333300
5000.000000 8660.254000 4166.666700
5000.000000 8660.254000 2500.000000
6427.876100 7660.444400 2500.000000
7660.444400 6427.876100 2500.000000
8660.254000 5000.000000 2500.000000
9396.926200 3420.201400 2500.000000
9848.077500 1736.481800 2500.000000
10000.000000 0.000000 2500.000000
9848.077500 -1736.481800 2500.000000
9396.926200 -3420.201400 2500.000000
8660.254000 -5000.000000 2500.000000
7660.444400 -6427.876100 2500.000000
6427.876100 -7660.444400 2500.000000
5000.000000 -8660.254000 2500.000000
5000.000000 -8660.254000 4166.666700
5000.000000 -8660.254000 5833.333300
5000.000000 -8660.254000 7500.000000
3525.169900 -9358.054100 7500.000000
4276.840100 -9039.283100 7500.000000
1338.358100 -9910.035200 0.000000
670.689200 -9977.483400 0.000000
0.000000 -10000.000000 0.000000
-670.689200 -9977.483400 0.000000
-1338.358100 -9910.035200 0.000000
-5000.000000 4292.893200 5707.106800
-5000.000000 4000.000000 5000.000000
-5000.000000 4292.893200 4292.893200
-5000.000000 5000.000000 4000.000000
-5000.000000 5707.106800 4292.893200
-5000.000000 6000.000000 5000.000000
-5000.000000 5707.106800 5707.106800
-5000.000000 5000.000000 6000.000000
-2000.000000 5707.106800 4292.893200
-2000.000000 5000.000000 4000.000000
-2000.000000 4292.893200 4292.893200
-3634.167500 -924.838900 7500.000000
-3634.167500 924.838900 7500.000000
-5000.000000 6735.753100 7500.000000
-5000.000000 4811.252200 7500.000000
-5000.000000 2886.751300 7500.000000
-5000.000000 962.250400 7500.000000
-5000.000000 -962.250400 7500.000000
-5000.000000 -2886.751300 7500.000000
-5000.000000 -4811.252200 7500.000000
-5000.000000 -6735.753100 7500.000000
-3247.595300 -1875.000000 -7500.000000
-1875.000000 -3247.595300 -7500.000000
0.000000 -3750.000000 -7500.000000
1875.000000 -3247.595300 -7500.000000
3247.595300 -1875.000000 -7500.000000
3750.000000 0.000000 -7500.000000
3247.595300 1875.000000 -7500.000000
1875.000000 3247.595300 -7500.000000
0.000000 3750.000000 -7500.000000
-1875.000000 3247.595300 -7500.000000
-3247.595300 1875.000000 -7500.000000
-3750.000000 0.000000 -7500.000000
699.056900 -3684.266500 0.000000
-699.056900 -3684.266500 0.000000
3634.167500 924.838900 7500.000000
3634.167500 -924.838900 7500.000000
-699.056900 3684.266500 0.000000
699.056900 3684.266500 0.000000
-2000.000000 3172.144400 0.000000
-2000.000000 3172.144400 3333.333300
-2000.000000 3172.144400 1666.666700
-2000.000000 4828.598000 0.000000
-2000.000000 6485.051700 0.000000
-2000.000000 8141.505300 0.000000
-5000.000000 -5707.106800 5707.106800
-5000.000000 -6000.000000 5000.000000
-5000.000000 -5707.106800 4292.893200
-5000.000000 -5000.000000 4000.000000
-5000.000000 -4292.893200 4292.893200
-5000.000000 -4000.000000 5000.000000
-5000.000000 -4292.893200 5707.106800
-5000.000000 -5000.000000 6000.000000
5000.000000 6060.660200 6060.660200
5000.000000 6500.000000 5000.000000
5000.000000 6060.660200 3939.339800
5000.000000 5000.000000 3500.000000
5000.000000 3939.339800 3939.339800
5000.000000 3500.000000 5000.000000
5000.000000 3939.339800 6060.660200
5000.000000 5000.000000 6500.000000
5000.000000 -6735.753100 7500.000000
5000.000000 -4811.252200 7500.000000
5000.000000 -2886.751300 7500.000000
5000.000000 -962.250400 7500.000000
5000.000000 962.250400 7500.000000
5000.000000 2886.751300 7500.000000
5000.000000 4811.252200 7500.000000
5000.000000 6735.753100 7500.000000
-5000.000000 6735.753100 2500.000000
-5000.000000 4811.252200 2500.000000
-5000.000000 2886.751300 2500.000000
-5000.000000 962.250400 2500.000000
-5000.000000 -962.250400 2500.000000
-5000.000000 -2886.751300 2500.000000
-5000.000000 -4811.252200 2500.000000
-5000.000000 -6735.753100 2500.000000
-5000.000000 -6735.753100 -2500.000000
-5000.000000 -4811.252200 -2500.000000
-5000.000000 -2886.751300 -2500.000000
-5000.000000 -962.250400 -2500.000000
-5000.000000 962.250400 -2500.000000
-5000.000000 2886.751300 -2500.000000
-5000.000000 4811.252200 -2500.000000
-5000.000000 6735.753100 -2500.000000
-5000.000000 -6735.753100 -7500.000000
-5000.000000 -4811.252200 -7500.000000
-5000.000000 -2886.751300 -7500.000000
-5000.000000 -962.250400 -7500.000000
-5000.000000 962.250400 -7500.000000
-5000.000000 2886.751300 -7500.000000
-5000.000000 4811.252200 -7500.000000
-5000.000000 6735.753100 -7500.000000
5000.000000 6735.753100 -2500.000000
5000.000000 4811.252200 -2500.000000
5000.000000 2886.751300 -2500.000000
5000.000000 962.250400 -2500.000000
5000.000000 -962.250400 -2500.000000
5000.000000 -2886.751300 -2500.000000
5000.000000 -4811.252200 -2500.000000
5000.000000 -6735.753100 -2500.000000
5000.000000 6735.753100 -7500.000000
5000.000000 4811.252200 -7500.000000
5000.000000 2886.751300 -7500.000000
5000.000000 962.250400 -7500.000000
5000.000000 -962.250400 -7500.000000
5000.000000 -2886.751300 -7500.000000
5000.000000 -4811.252200 -7500.000000
5000.000000 -6735.753100 -7500.000000
5000.000000 -6735.753100 2500.000000
5000.000000 -4811.252200 2500.000000
5000.000000 -2886.751300 2500.000000
5000.000000 -962.250400 2500.000000
5000.000000 962.250400 2500.000000
5000.000000 2886.751300 2500.000000
5000.000000 4811.252200 2500.000000
5000.000000 6735.753100 2500.000000
-8500.000000 0.000000 833.333300
-8500.000000 0.000000 -833.333300
-8207.106800 -707.106800 833.333300
-8207.106800 -707.106800 -833.333300
-7500.000000 -1000.000000 833.333300
-7500.000000 -1000.000000 -833.333300
-6792.893200 -707.106800 833.333300
-6792.893200 -707.106800 -833.333300
-6500.000000 0.000000 833.333300
-6500.000000 0.000000 -833.333300
-6792.893200 707.106800 833.333300
-6792.893200 707.106800 -833.333300
-7500.000000 1000.000000 833.333300
-7500.000000 1000.000000 -833.333300
-8207.106800 707.106800 833.333300
-8207.106800 707.106800 -833.333300
6500.000000 0.000000 -833.333300
6500.000000 0.000000 833.333300
6792.893200 707.106800 -833.333300
6792.893200 707.106800 833.333300
7500.000000 1000.000000 -833.333300
7500.000000 1000.000000 833.333300
8207.106800 707.106800 -833.333300
8207.106800 707.106800 833.333300
8500.000000 0.000000 -833.333300
8500.000000 0.000000 833.333300
8207.106800 -707.106800 -833.333300
8207.106800 -707.106800 833.333300
7500.000000 -1000.000000 -833.333300
7500.000000 -1000.000000 833.333300
6792.893200 -707.106800 -833.333300
6792.893200 -707.106800 833.333300
2750.000000 6621.713100 6775.035200
2750.000000 7680.041100 6111.156200
2750.000000 3617.329600 6811.449200
-2750.000000 7345.530400 6351.171900
-2750.000000 5524.762500 6691.164100
-2750.000000 3883.835100 6679.253700
-2750.000000 -7345.530700 6351.171900
-2750.000000 -5524.762700 6691.164100
-2750.000000 -3883.835200 6679.253700
2750.000000 -7680.040700 6111.156400
2750.000000 -6621.713200 6775.035200
2750.000000 -3617.329600 6811.449200
-2000.000000 -7884.945800 3160.061500
-2000.000000 -7568.292400 1512.289100
-2000.000000 -5767.640500 1342.566500
-2000.000000 -6217.249100 2728.862000
-2000.000000 -4308.591300 1129.981000
-2000.000000 -4569.816400 2578.847800
3874.186100 -4433.854100 6389.056800
3874.107600 -5590.921100 6378.699500
3861.845500 -6397.099700 5545.996600
3669.563300 -6356.669700 4360.119300
3508.988600 -5557.227000 3607.341400
3509.294600 -4436.393100 3609.911100
3671.462000 -3639.231400 4368.882900
3862.696300 -3608.505300 5560.127200
2000.000000 -6945.063900 1482.830000
2000.000000 -4985.168000 1180.260000
2000.000000 -7606.184000 3342.500200
2000.000000 -8437.610600 1960.410500
2000.000000 -5958.516900 2551.681600
2000.000000 -4375.804200 2525.307600
2000.000000 7922.333100 3218.287800
2000.000000 7602.224100 1500.385800
2000.000000 5780.776300 1276.853700
2000.000000 6289.287900 2576.018500
2000.000000 4298.906800 1070.978700
2000.000000 4550.641200 2402.114800
-9958.810200 -906.697400 -1237.865000
-9999.917000 40.736300 -6.478900
-9953.404100 964.233600 1225.846600
-9622.025100 -2723.349500 1231.219500
-9613.101800 -2754.682300 -1238.488800
-8946.798700 -4467.078800 1223.454700
-8888.861500 -4581.281500 -1241.096500
-7936.641200 -6083.561900 1266.275300
-7666.099700 -6421.130300 -1292.067900
-6577.974800 -7531.948400 1495.177200
-6127.386500 -7902.856100 -1004.228500
-3051.497700 -9523.043700 -5400.869400
6048.943300 -7963.057500 1194.339200
7612.993500 -6484.005700 1317.749100
8682.455000 -4961.348100 -1342.905900
8841.049800 -4672.883400 1211.536700
9590.667300 -2831.801700 1208.509000
9564.698900 -2918.310300 -1251.649700
9621.736800 2724.367900 1231.147900
9611.846700 2759.058300 -1238.208700
8946.246700 4468.184100 1223.681000
8887.866400 4583.211900 -1240.963000
7936.069300 6084.308000 1266.444900
7665.435100 6421.923800 -1292.050400
6577.612100 7532.265200 1495.295900
6127.010400 7903.147700 -1004.204500
3053.861200 9522.286100 -5401.673300
-6048.601800 7963.316900 1192.755100
-7611.931100 6485.252800 1316.834900
-8680.609500 4964.576300 -1344.466700
-8839.178200 4676.422600 1210.659400
-9588.722500 2838.380000 1207.476100
-9562.633600 2925.070600 -1253.687300
-5695.473100 8219.585500 -1288.773800
-4997.672800 8661.597200 -138.087500
-4617.962100 8869.860600 1221.714600
-3926.680500 9196.802700 5596.540000
-3697.821000 9291.185000 3751.695800
-3432.930500 9392.283400 2187.457800
-3428.504800 9393.899900 417.400300
-3465.456000 9380.331300 -1614.764500
-3617.270000 9322.840700 -3696.805700
-3883.429000 9215.149500 -5428.191400
-7344.845000 6786.254600 -1240.433500
-6742.082900 7385.412500 -15.061700
-8162.892400 5776.433800 -21.062900
-9192.777600 3936.094400 -58.307400
-9950.955700 989.181400 -1240.908300
-9800.402300 1987.992700 -22.236400
-9826.557800 -1854.389900 -5.671300
-9960.015600 -893.357900 1232.773000
-9288.158800 -3705.415900 -13.789800
-8355.269300 -5494.494900 -20.658800
-7034.697000 -7107.252500 147.390900
-4747.897000 -8800.992800 -763.340700
-5301.092600 -8479.293400 717.859300
-3407.989800 -9401.361900 -3305.326300
-3477.164400 -9375.997400 -1396.252400
-3561.334100 -9344.351200 412.026100
-3632.296400 -9316.996500 2030.684600
-3705.304200 -9288.203300 3717.031800
-3926.560500 -9196.854000 5587.436600
-963.292700 -9953.495200 -5573.518000
-1640.687800 -9864.489000 -3715.157000
-2065.733200 -9784.311200 -1904.395400
904.164500 -9959.040400 -5566.485900
217.110800 -9997.642900 -3707.930900
-415.257300 -9991.374300 -1840.732200
2549.112600 -9669.644500 -5580.908000
2051.178100 -9787.372900 -3610.010100
1413.778800 -9899.557000 -1862.924600
3885.058700 -9214.462500 -5426.401900
3621.409700 -9321.233400 -3693.112200
3473.269100 -9377.441100 -1609.322600
3433.213700 -9392.179900 418.249500
3433.958500 -9391.907600 2186.857200
3697.745800 -9291.215000 3751.532600
3926.653400 -9196.814300 5596.358100
5696.544900 -8218.842700 -1286.919800
4998.739300 -8660.981800 -135.914300
4617.813600 -8869.937800 1222.506400
7346.113500 -6784.881500 -1239.039000
6743.433500 -7384.179400 -13.495500
8165.193400 -5773.180900 -19.775800
9195.738100 -3929.173000 -56.808900
9951.850300 -980.141000 -1238.675200
9802.680200 -1976.729800 -20.203700
9959.068300 903.858100 -1237.888700
9999.913300 -41.648900 -6.409200
9953.293300 -965.376900 1225.697500
9826.400900 1855.221100 -6.130800
9960.012400 893.394500 1232.547800
9287.465600 3707.153000 -13.490000
8354.466800 5495.715000 -20.458200
7034.086500 7107.856700 147.508000
4747.979100 8800.948500 -763.112300
5300.823400 8479.461700 718.018100
3410.206900 9400.557900 -3305.572100
3478.114900 9375.644900 -1395.957300
3561.321300 9344.356100 412.213600
3632.218300 9317.026900 2030.803400
3705.302500 9288.204000 3717.063900
3926.560900 9196.853800 5587.445400
968.082700 9953.030500 -5576.053400
1645.961900 9863.610400 -3716.966200
2068.811400 9783.660800 -1904.885400
-898.426700 9959.559700 -5571.053000
-208.805800 9997.819800 -3712.446700
420.548100 9991.153100 -1842.223500
-2545.158900 9670.685900 -5584.776800
-2041.938600 9789.304700 -3617.067900
-1405.354700 9900.756400 -1866.790400
-3869.825400 5320.965000 5947.091000
-3695.309000 5825.325500 5564.657200
-4010.380600 5992.727200 5120.385400
-3625.669300 5813.858900 4418.937500
-3504.993200 4984.105300 4000.126300
-3641.840700 4152.058400 4469.910300
-3857.484200 4056.110800 5330.262200
-3873.643000 4586.241600 5910.386700
-4037.887700 -2215.326600 7500.000000
-3877.482200 2557.778400 7500.000000
-3885.831500 -5554.046900 7500.000000
-3862.677200 -7436.942000 7500.000000
-3892.583900 -3770.316100 7500.000000
-4055.897800 4050.831400 7500.000000
-3891.690400 5627.532100 7500.000000
-3862.745500 7456.747700 7500.000000
-3749.637700 52.125400 -5078.673200
-3734.612000 339.371900 -3160.588300
-3747.166800 -145.742400 -1590.826400
-3743.227400 -225.275100 236.657900
-3746.106500 -170.839200 2116.260400
-3744.282500 -206.999300 3925.013500
-3735.605900 -328.250400 5807.047400
700.860100 -3683.923900 -1823.980700
-864.115000 3649.082800 -1783.406000
-3323.124800 1737.625200 -5597.077700
-3322.277100 1739.245400 -3652.299500
-3315.557600 1752.021100 -1656.031800
-3338.881100 1707.153400 78.004800
-3347.229900 1690.725200 1824.723400
-3423.691000 1529.980300 3538.978100
-3561.394600 1174.295000 5386.043200
-2021.423100 3158.535800 -5633.130500
-2182.344400 3049.569300 -3801.351800
-2424.198900 2861.076700 -2104.817800
-145.426700 3747.179100 -5570.409800
-428.241800 3725.467600 -3702.874500
1986.683400 3180.501400 -5732.931500
1610.868100 3386.385100 -3678.977900
1106.488600 3583.041000 -1883.671000
3496.553600 1355.216900 -5622.697600
3157.977800 2022.294700 -3693.665000
2948.279700 2317.357700 -1533.856900
3211.167700 1936.724500 748.614000
3246.691200 1876.565100 2628.833300
3339.451800 1706.036800 4340.343000
3353.775300 1677.704200 6105.191400
3664.408400 -796.625000 -5681.603700
3749.960300 -17.249900 -3790.337600
3733.314700 353.356800 -1843.697000
3735.691100 327.280200 115.635200
3744.828400 196.875900 2068.899800
3744.021000 211.676300 3906.844300
3735.589400 328.438400 5801.020900
2682.806800 -2620.123600 -5693.243100
3203.583100 -1949.244800 -3923.043700
3369.672400 -1645.541800 -1950.289500
3378.385900 -1627.577500 -75.261000
3365.031400 -1655.011700 1752.194100
3427.395300 -1521.664000 3508.794100
3561.941700 -1172.634300 5374.533800
948.969700 -3627.941100 -5641.081100
1731.316700 -3326.415800 -3866.659900
2326.690100 -2940.920400 -2228.811700
-977.074300 -3620.473200 -5534.442400
-182.839900 -3745.540000 -3694.081400
-2508.975900 -2787.030600 -5271.536400
-2122.301200 -3091.656100 -3487.395700
-1347.025000 -3499.717600 -1834.110200
-3374.464200 -1635.692900 -5987.975700
-3432.959300 -1509.069400 -3640.733300
-3097.229800 -2114.158900 -1441.903400
-3233.944100 -1898.448100 784.387000
-3249.864000 -1871.064900 2642.425900
-3339.674200 -1705.601400 4346.396200
-3353.509300 -1678.235700 6107.450500
-2000.000000 4971.516900 1244.050900
-2000.000000 7455.191600 3402.804200
-2000.000000 6890.730200 1537.074700
-2000.000000 8396.739100 1992.292900
-2000.000000 5867.217500 2726.116200
-2000.000000 4392.112500 2701.890200
-4050.844200 -4815.694500 5982.869000
-3660.934800 -5889.147300 4542.378900
-3860.876700 -5939.114200 5343.605200
-3514.562100 -5273.709900 4038.187700
-3588.618900 -4342.063100 4246.927000
-3840.206700 -4017.661400 5187.112000
-3701.984000 -4388.688400 5791.390000
-3879.025400 -5444.752600 5895.653500
3874.823000 5019.714600 6499.870400
3518.469200 5644.858600 3645.689300
3685.467400 6389.604200 4435.199100
3713.504000 4672.592000 3536.168100
3236.469200 3959.323400 3919.725800
3956.008300 3536.925900 4669.221700
3877.298500 3725.672800 5791.258600
3866.046400 6314.276000 5722.965100
0.000000 -7176.216600 0.000000
0.000000 -5424.505700 0.000000
0.000000 -8708.324400 0.000000
0.000000 6052.932500 0.000000
0.000000 4741.201300 0.000000
0.000000 8001.494600 0.000000
3877.482100 2557.776500 7500.000000
4055.897800 4050.829900 7500.000000
4037.887700 -2215.326700 7500.000000
3892.583900 -3770.316200 7500.000000
3885.831600 -5554.019200 7500.000000
3862.677300 -7436.934400 7500.000000
3891.690400 5627.531400 7500.000000
3862.745500 7456.747500 7500.000000
-7742.325500 -4344.719600 2500.000000
-8633.483000 -1981.352000 2500.000000
-6758.859500 2701.280300 2500.000000
-9047.196600 1466.340800 2500.000000
-8120.304600 2455.894300 2500.000000
-5892.913700 1810.656500 2500.000000
-6292.646400 -2066.291500 2500.000000
-9136.790100 -897.974000 2500.000000
-6144.824900 6017.279300 2500.000000
-7778.845300 4129.521800 2500.000000
-6412.539500 4451.691000 2500.000000
-7654.029500 -2794.265800 2500.000000
-6320.122200 -3650.759100 2500.000000
-6591.290400 -5064.252600 2500.000000
-6127.525900 -6162.573000 2500.000000
-5000.000000 3819.313600 6656.902200
-5000.000000 -5939.909900 6675.539300
-5000.000000 -7240.155300 6153.740400
-5000.000000 -7273.984800 4513.146100
-5000.000000 -2434.306100 5464.960200
-5000.000000 -2431.409200 3891.227400
-5000.000000 7276.149500 5496.944000
-5000.000000 7290.430700 3870.477500
-5000.000000 2477.699800 6129.043300
-5000.000000 2442.495500 4543.688600
-5000.000000 931.671300 4187.547500
-5000.000000 772.654000 5953.487800
-5000.000000 -754.085800 4051.145700
-5000.000000 -920.725200 5815.957500
-8713.514900 -1922.091800 -2500.000000
-6716.724700 -2728.726500 -2500.000000
-8972.067500 1545.270500 -2500.000000
-7768.985000 4273.187800 -2500.000000
-7812.769600 2578.291500 -2500.000000
-7981.382800 -2712.328100 -2500.000000
-5884.087400 -1813.460900 -2500.000000
-6317.205900 2040.598800 -2500.000000
-6376.999600 3589.524200 -2500.000000
-6607.824300 5033.459400 -2500.000000
-6131.768600 6152.628300 -2500.000000
-6395.394900 -4470.038200 -2500.000000
-7747.937100 -4210.953300 -2500.000000
-6141.804200 -6024.234200 -2500.000000
-9151.683300 -874.010900 -2500.000000
-5000.000000 6660.417900 -6096.626900
-5000.000000 7244.084000 -4517.814000
-5000.000000 4892.862900 -5613.579800
-5000.000000 5697.080300 -4165.222900
-5000.000000 3279.190100 -5813.424700
-5000.000000 3891.405400 -4085.534100
-5000.000000 1409.354300 -5835.657700
-5000.000000 2062.266900 -4155.255100
-5000.000000 -616.398100 -5860.268600
-5000.000000 131.774600 -4187.723600
-5000.000000 -2904.145500 -5996.548800
-5000.000000 -1893.883500 -4248.779600
-5000.000000 -5176.313900 -5812.593400
-5000.000000 -3960.672000 -4230.449100
-5000.000000 -7030.486300 -5512.885900
-5000.000000 -6107.749900 -4089.962500
7742.324200 -4344.723800 -2500.000000
8633.480700 -1981.355000 -2500.000000
6758.543600 2701.522200 -2500.000000
6292.645800 -2066.294200 -2500.000000
5892.850000 1810.686500 -2500.000000
9136.789500 -897.975000 -2500.000000
9047.051800 1466.517400 -2500.000000
8120.150800 2455.976500 -2500.000000
7654.027800 -2794.268900 -2500.000000
6320.121500 -3650.762100 -2500.000000
6591.289600 -5064.254600 -2500.000000
6127.525600 -6162.573600 -2500.000000
6412.320300 4451.904400 -2500.000000
7778.819500 4129.528300 -2500.000000
6144.838500 6017.204600 -2500.000000
5000.000000 -6111.824600 -5908.863300
5000.000000 -7026.278700 -4485.608400
5000.000000 -3966.968400 -5769.078000
5000.000000 -5151.767100 -4187.195900
5000.000000 -1933.337800 -5776.088900
5000.000000 -2801.249500 -4021.764300
5000.000000 -176.025800 -6123.051800
5000.000000 -282.930700 -4324.843600
5000.000000 1486.630700 -5844.164900
5000.000000 1988.827200 -4179.337900
5000.000000 3398.104300 -5828.717800
5000.000000 3995.859200 -4162.832200
5000.000000 5287.062800 -5838.162900
5000.000000 5850.140900 -4155.940600
5000.000000 7077.900000 -5852.865400
5000.000000 7495.986700 -4129.468400
8711.385000 -1927.717200 2500.000000
6099.101900 -1801.672100 2500.000000
8973.031400 1544.717300 2500.000000
7769.960500 4273.979600 2500.000000
6318.349100 2041.058900 2500.000000
7814.021800 2578.652400 2500.000000
6377.636100 3589.982500 2500.000000
6739.107600 -2904.533200 2500.000000
7985.799500 -2744.777900 2500.000000
6139.148800 -6038.579700 2500.000000
7761.459800 -4254.622900 2500.000000
6394.439400 -4521.328500 2500.000000
9151.022600 -875.708400 2500.000000
6608.118000 5033.682300 2500.000000
6131.784800 6152.651800 2500.000000
5000.000000 -7517.519000 3526.759500
5000.000000 7429.059400 4482.028100
5000.000000 7434.146600 6185.818700
5000.000000 2823.879600 4055.966000
5000.000000 2259.393300 5422.721400
5000.000000 1775.890500 3734.664500
5000.000000 -7540.611900 4801.659900
5000.000000 -7433.336100 6256.713000
5000.000000 -2305.320800 4489.663900
5000.000000 -2222.447900 6124.305800
5000.000000 -1237.218100 3901.342500
5000.000000 -558.970600 5755.414600
5000.000000 424.366300 4261.579400
5000.000000 1180.368800 6085.721600
-3673.163300 -3420.362100 -7500.000000
-817.843600 -4701.475200 -7500.000000
-2034.305500 -5016.862900 -7500.000000
3018.785300 -4332.571000 -7500.000000
834.963500 -4904.822100 -7500.000000
-1024.979400 -6356.071200 -7500.000000
-3223.078500 -4534.742000 -7500.000000
-2994.999500 4317.322400 -7500.000000
-673.262600 4919.675600 -7500.000000
1481.823600 4793.413100 -7500.000000
3356.083500 3924.914500 -7500.000000
-2783.825200 -7824.608400 -7500.000000
-471.314600 -8084.051100 -7500.000000
1676.540100 -8185.641900 -7500.000000
3587.349400 -7826.584200 -7500.000000
-3233.589200 -6059.823800 -7500.000000
1211.895900 -6391.036800 -7500.000000
3193.661600 -6274.490700 -7500.000000
-3283.840400 6191.582800 -7500.000000
-1296.121600 6357.634800 -7500.000000
937.727300 6434.887300 -7500.000000
3103.409800 5840.307700 -7500.000000
-3707.993000 7775.966900 -7500.000000
-2040.515800 7972.783600 -7500.000000
140.790000 8226.707600 -7500.000000
2688.787200 7798.913400 -7500.000000
3 746 365 816
3 825 365 746
3 825 365 816
3 812 825 816
3 812 746 816
3 825 746 812
3 735 173 507
3 508 173 507
3 508 173 735
3 575 508 507
3 575 735 507
3 508 735 575
3 686 126 120
3 446 447 126
3 686 447 126
3 446 447 686
3 446 120 126
3 446 685 120
3 686 685 120
3 685 446 686
3 163 564 563
3 162 564 163
3 162 564 571
3 162 163 571
3 571 564 563
3 163 563 571
3 399 8 397
3 733 397 399
3 15 397 733
3 15 397 8
3 733 15 8
3 399 8 733
3 584 279 705
3 585 584 279
3 585 705 279
3 584 705 585
3 238 502 74
3 503 238 502
3 98 72 502
3 74 502 98
3 98 74 72
3 503 502 72
3 74 72 503
3 238 74 503
3 832 371 174
3 832 172 174
3 172 174 734
3 508 734 172
3 832 734 508
3 508 172 832
3 734 174 371
3 734 832 371
3 832 828 371
3 734 828 371
3 508 828 734
3 508 832 828
3 503 712 655
3 74 655 712
3 503 655 74
3 238 712 503
3 238 74 712
3 655 237 712
3 655 503 237
3 238 237 712
3 237 238 503
3 153 641 378
3 154 641 153
3 601 641 154
3 601 378 641
3 601 154 378
3 153 378 154
3 179 498 495
3 722 498 495
3 179 498 722
3 178 179 495
3 728 495 178
3 722 495 728
3 728 722 178
3 179 178 722
3 536 676 532
3 676 536 678
3 533 678 536
3 533 676 678
3 533 532 676
3 536 533 532
3 366 647 744
3 810 300 744
3 644 744 647
3 644 746 744
3 810 744 366
3 365 744 366
3 810 365 366
3 746 744 365
3 810 365 746
3 816 810 746
3 644 810 816
3 812 644 816
3 746 644 642
3 812 642 644
3 746 642 812
3 647 810 644
3 647 300 810
3 300 366 744
3 300 647 366
3 300 810 366
3 545 544 379
3 548 545 544
3 548 379 544
3 155 379 548
3 155 156 379
3 545 379 156
3 155 545 156
3 548 545 155
3 748 749 746
3 825 364 365
3 746 365 364
3 748 746 364
3 825 364 748
3 825 749 746
3 749 825 815
3 825 748 815
3 748 749 815
3 608 714 80
3 583 714 608
3 608 80 583
3 583 584 714
3 584 78 80
3 583 584 78
3 583 80 78
3 713 80 714
3 584 80 713
3 584 280 714
3 280 714 713
3 280 713 279
3 584 280 279
3 584 713 279
3 583 280 714
3 584 583 280
3 608 714 715
3 609 715 714
3 608 715 609
3 608 80 609
3 713 609 714
3 80 609 713
3 773 775 774
3 618 774 773
3 618 773 775
3 619 774 618
3 619 775 774
3 618 775 619
3 428 41 40
3 689 40 428
3 689 40 41
3 428 41 689
3 372 164 373
3 372 394 164
3 372 373 394
3 165 164 394
3 165 373 164
3 394 373 165
3 512 409 514
3 498 409 512
3 411 409 498
3 514 409 411
3 411 498 514
3 512 498 514
3 180 513 721
3 498 180 513
3 411 513 498
3 14 513 411
3 14 721 513
3 14 411 721
3 498 721 411
3 180 721 498
3 509 729 510
3 729 728 510
3 509 510 728
3 729 728 177
3 729 509 177
3 509 728 177
3 509 510 499
3 176 729 499
3 509 499 176
3 176 729 177
3 176 177 509
3 729 363 499
3 510 363 729
3 499 363 510
3 516 697 691
3 396 697 516
3 398 697 396
3 396 516 398
3 6 697 398
3 691 6 697
3 6 398 691
3 469 400 398
3 469 691 400
3 691 398 400
3 469 230 691
3 516 469 230
3 691 230 516
3 469 398 516
3 227 704 703
3 473 703 227
3 519 703 473
3 704 703 519
3 475 473 704
3 519 475 473
3 475 704 519
3 704 473 227
3 475 227 473
3 475 226 704
3 227 475 226
3 227 226 704
3 601 641 640
3 378 640 601
3 378 641 640
3 470 401 399
3 470 517 401
3 515 470 517
3 515 401 517
3 515 399 401
3 470 399 515
3 809 808 623
3 800 809 808
3 800 808 801
3 623 801 799
3 800 801 799
3 623 799 800
3 623 808 801
3 809 623 800
3 113 117 434
3 113 221 434
3 527 434 221
3 92 434 527
3 92 434 117
3 527 117 92
3 527 117 221
3 116 113 221
3 117 116 221
3 116 117 113
3 527 434 113
3 113 221 527
3 186 476 732
3 474 186 476
3 519 474 476
3 519 732 476
3 474 732 519
3 185 732 474
3 185 732 186
3 474 185 186
3 821 815 477
3 822 821 815
3 822 477 815
3 821 477 822
3 462 164 395
3 394 164 462
3 394 395 164
3 671 394 465
3 462 465 394
3 671 465 462
3 671 669 394
3 462 669 671
3 334 669 335
3 395 334 335
3 334 669 395
3 394 395 335
3 669 335 394
3 463 669 462
3 463 395 669
3 463 462 395
3 517 724 720
3 720 724 472
3 517 720 472
3 470 724 517
3 517 470 472
3 183 724 470
3 183 472 724
3 470 183 472
3 515 469 516
3 515 469 398
3 467 515 516
3 467 398 516
3 467 396 398
3 399 397 396
3 467 397 396
3 399 397 467
3 399 396 398
3 515 398 401
3 399 398 401
3 466 399 467
3 515 467 466
3 470 515 466
3 399 466 470
3 730 731 518
3 730 472 731
3 472 518 731
3 730 518 472
3 720 730 731
3 720 472 731
3 720 518 472
3 730 518 720
3 449 456 52
3 148 456 450
3 449 450 456
3 148 449 450
3 52 456 53
3 148 456 53
3 52 148 53
3 449 148 52
3 613 308 818
3 819 308 613
3 819 308 818
3 616 819 613
3 615 830 819
3 616 615 819
3 830 615 616
3 616 613 830
3 830 819 818
3 613 818 830
3 605 318 361
3 606 605 318
3 606 361 318
3 605 361 606
3 530 130 131
3 523 530 130
3 523 131 130
3 523 522 131
3 522 530 131
3 522 530 523
3 215 216 833
3 508 833 832
3 508 575 833
3 575 508 832
3 215 833 832
3 575 832 215
3 575 216 833
3 215 575 216
3 215 832 174
3 215 174 172
3 508 215 172
3 508 215 832
3 703 354 730
3 702 703 354
3 702 357 354
3 730 354 357
3 357 702 730
3 730 702 518
3 703 518 702
3 518 703 730
3 102 502 241
3 98 502 102
3 98 502 241
3 99 98 241
3 99 241 102
3 98 99 102
3 151 390 152
3 637 390 151
3 637 636 390
3 637 636 151
3 152 390 636
3 151 636 152
3 696 400 702
3 696 5 400
3 5 701 400
3 696 5 701
3 701 702 400
3 696 701 702
3 468 7 231
3 396 231 7
3 468 231 396
3 0 7 468
3 0 7 396
3 410 0 396
3 468 396 410
3 410 0 468
3 500 322 510
3 500 323 322
3 500 363 323
3 322 323 363
3 363 510 322
3 499 363 500
3 500 499 510
3 512 495 722
3 512 495 498
3 723 498 512
3 723 722 498
3 727 723 722
3 727 512 722
3 723 512 727
3 727 495 722
3 512 495 727
3 654 348 656
3 322 656 348
3 654 322 656
3 349 348 654
3 349 322 348
3 654 322 349
3 508 575 215
3 496 233 234
3 699 234 496
3 699 234 233
3 497 233 699
3 496 497 233
3 497 699 496
3 749 643 645
3 356 643 749
3 356 646 643
3 356 749 646
3 646 643 645
3 749 645 646
3 658 581 287
3 75 581 655
3 75 581 287
3 655 287 75
3 658 655 287
3 348 581 658
3 348 712 581
3 655 712 348
3 655 581 712
3 658 655 348
3 505 657 244
3 504 657 505
3 504 244 657
3 505 504 244
3 51 158 49
3 54 158 51
3 49 47 158
3 48 158 54
3 48 158 47
3 54 48 47
3 49 54 47
3 51 54 49
3 679 570 681
3 164 570 679
3 679 164 681
3 571 570 164
3 571 681 570
3 163 571 164
3 163 681 571
3 163 681 164
3 236 493 698
3 494 236 493
3 510 494 493
3 510 698 493
3 510 494 698
3 698 236 235
3 700 698 235
3 700 494 235
3 698 494 700
3 494 235 236
3 225 355 526
3 225 440 355
3 708 355 440
3 708 526 355
3 708 440 526
3 225 526 440
3 81 83 289
3 78 81 83
3 78 81 289
3 79 78 83
3 79 83 289
3 78 79 289
3 537 823 824
3 534 823 537
3 537 824 534
3 534 192 823
3 191 534 192
3 191 192 823
3 191 823 824
3 534 824 191
3 628 375 627
3 375 628 374
3 628 620 374
3 620 375 374
3 620 627 375
3 628 620 627
3 605 606 360
3 596 605 606
3 596 360 606
3 595 360 596
3 595 605 360
3 596 595 605
3 654 349 318
3 654 659 349
3 659 320 349
3 654 659 320
3 320 318 349
3 654 320 318
3 651 652 664
3 136 651 652
3 136 651 664
3 89 136 652
3 89 664 652
3 87 136 89
3 136 664 87
3 85 87 89
3 85 664 89
3 85 87 664
3 136 664 137
3 85 664 137
3 136 137 85
3 88 136 87
3 88 87 85
3 136 85 88
3 661 440 92
3 708 92 440
3 440 661 708
3 708 707 92
3 662 325 324
3 662 707 324
3 707 324 325
3 708 707 325
3 708 662 325
3 662 92 707
3 708 661 662
3 90 92 662
3 661 92 90
3 662 90 661
3 440 92 90
3 440 90 661
3 708 661 325
3 662 661 325
3 595 741 604
3 594 743 604
3 741 603 604
3 603 604 594
3 594 603 740
3 741 740 603
3 594 740 741
3 594 741 743
3 743 595 604
3 743 741 595
3 594 604 595
3 743 595 594
3 708 224 92
3 527 224 708
3 527 92 224
3 527 708 223
3 708 223 707
3 92 223 707
3 92 527 223
3 615 613 308
3 307 615 308
3 819 307 308
3 615 819 307
3 616 613 615
3 727 349 700
3 727 362 349
3 362 361 349
3 727 362 361
3 361 350 349
3 727 350 361
3 350 349 700
3 692 350 727
3 692 350 700
3 727 700 692
3 519 355 354
3 704 355 519
3 704 355 354
3 519 354 704
3 741 361 604
3 739 741 361
3 739 741 604
3 612 611 361
3 739 612 361
3 739 611 612
3 611 604 361
3 739 604 611
3 835 830 569
3 834 835 830
3 834 573 830
3 573 569 830
3 573 834 569
3 834 217 218
3 569 218 217
3 834 217 569
3 835 834 218
3 835 569 218
3 225 708 355
3 225 526 224
3 708 225 224
3 708 526 224
3 154 677 155
3 154 601 155
3 601 677 155
3 601 312 677
3 312 677 154
3 601 154 312
3 708 224 223
3 527 223 224
3 406 597 404
3 407 404 597
3 406 407 404
3 606 597 406
3 405 597 606
3 407 597 405
3 405 606 407
3 406 407 606
3 135 353 444
3 650 133 444
3 354 444 133
3 134 133 650
3 357 133 134
3 134 650 357
3 354 133 357
3 357 650 354
3 353 650 444
3 354 650 353
3 135 444 354
3 353 135 445
3 354 445 135
3 353 445 354
3 135 650 444
3 353 651 135
3 650 651 135
3 651 353 650
3 357 353 354
3 357 358 353
3 358 650 353
3 357 650 358
3 654 321 322
3 349 321 322
3 654 321 349
3 62 169 168
3 64 62 168
3 169 168 35
3 64 35 168
3 61 64 35
3 169 61 35
3 61 64 169
3 62 169 64
3 313 677 312
3 601 313 312
3 643 677 676
3 601 676 677
3 643 676 601
3 643 646 677
3 601 643 646
3 646 313 677
3 601 646 313
3 134 135 444
3 650 444 134
3 134 650 135
3 648 743 745
3 596 648 595
3 359 595 596
3 596 648 359
3 359 743 595
3 743 648 595
3 359 743 745
3 648 745 359
3 193 823 192
3 531 193 192
3 531 823 192
3 822 826 823
3 531 826 823
3 826 531 532
3 822 532 531
3 822 826 532
3 822 823 193
3 531 193 822
3 352 717 599
3 351 352 717
3 715 351 717
3 715 599 717
3 351 599 715
3 352 599 598
3 351 598 599
3 351 352 598
3 687 437 122
3 438 437 687
3 438 437 122
3 687 122 438
3 345 346 683
3 338 683 674
3 345 674 683
3 338 674 345
3 338 339 683
3 346 338 339
3 346 683 339
3 345 338 346
3 462 461 164
3 395 461 164
3 463 461 395
3 462 463 461
3 685 805 684
3 685 342 805
3 684 685 342
3 343 342 805
3 684 805 315
3 343 315 805
3 684 343 315
3 342 343 684
3 471 702 690
3 518 702 471
3 518 690 702
3 473 690 518
3 518 473 471
3 228 690 473
3 228 471 690
3 473 228 471
3 787 486 784
3 558 486 787
3 558 786 486
3 787 786 558
3 786 784 486
3 787 786 784
3 606 350 607
3 606 318 350
3 320 350 318
3 606 318 320
3 320 607 350
3 606 320 607
3 580 579 711
3 285 580 579
3 285 711 579
3 285 711 284
3 580 285 284
3 580 711 284
3 163 565 562
3 561 565 163
3 561 565 562
3 163 562 561
3 583 582 350
3 349 582 583
3 349 350 582
3 350 281 583
3 349 350 281
3 349 583 281
3 686 147 341
3 340 147 341
3 686 340 341
3 146 147 686
3 146 147 340
3 686 447 146
3 447 340 146
3 686 340 447
3 102 593 431
3 102 593 101
3 431 102 101
3 592 101 593
3 592 431 593
3 101 431 592
3 761 378 760
3 548 760 761
3 548 378 760
3 761 378 548
3 74 75 655
3 76 74 75
3 287 76 75
3 76 287 655
3 77 74 76
3 655 77 76
3 655 77 74
3 607 608 350
3 608 351 350
3 607 608 598
3 607 351 598
3 351 608 598
3 695 351 350
3 606 350 695
3 695 351 606
3 606 351 607
3 673 336 672
3 799 672 673
3 799 336 672
3 673 337 799
3 337 799 336
3 673 337 336
3 595 604 360
3 741 360 604
3 361 741 360
3 361 605 360
3 611 612 604
3 605 361 612
3 612 605 604
3 595 604 605
3 741 360 595
3 740 743 741
3 740 743 594
3 804 452 57
3 637 452 804
3 637 57 452
3 638 637 57
3 638 804 57
3 638 806 804
3 638 637 806
3 637 804 806
3 423 421 793
3 555 421 423
3 555 262 421
3 262 27 421
3 793 421 27
3 262 27 793
3 793 262 555
3 482 555 423
3 263 781 555
3 482 555 263
3 482 781 263
3 781 482 425
3 423 425 482
3 423 781 425
3 781 793 555
3 28 781 423
3 28 781 793
3 423 793 28
3 804 141 453
3 804 452 141
3 452 141 453
3 804 453 57
3 57 453 55
3 452 453 55
3 57 55 452
3 638 805 453
3 804 805 638
3 638 453 57
3 141 804 805
3 141 453 805
3 742 367 744
3 647 744 742
3 366 744 367
3 300 366 367
3 300 647 367
3 742 367 647
3 445 138 663
3 443 445 138
3 139 443 138
3 139 138 663
3 139 663 661
3 443 661 139
3 443 663 661
3 445 663 354
3 443 354 663
3 354 443 445
3 758 753 17
3 758 424 17
3 424 753 17
3 759 753 424
3 759 753 758
3 424 758 759
3 505 323 500
3 505 245 323
3 506 505 245
3 506 323 245
3 500 505 506
3 506 363 323
3 506 499 363
3 500 506 499
3 451 142 390
3 452 451 142
3 452 390 142
3 452 151 390
3 151 451 390
3 150 151 452
3 150 451 151
3 150 451 452
3 459 150 151
3 451 152 459
3 151 152 451
3 151 152 459
3 150 149 451
3 149 451 459
3 150 459 149
3 359 11 405
3 360 359 11
3 360 405 11
3 359 595 360
3 596 405 360
3 359 405 403
3 596 403 405
3 359 403 596
3 821 477 195
3 194 477 195
3 821 194 195
3 528 477 821
3 528 477 194
3 821 194 528
3 183 724 731
3 472 731 184
3 183 731 184
3 472 183 184
3 472 724 731
3 672 671 170
3 672 465 170
3 465 671 170
3 672 167 465
3 167 671 465
3 672 671 167
3 794 559 762
3 560 488 559
3 794 488 559
3 560 488 794
3 489 560 559
3 489 762 559
3 560 762 489
3 794 762 560
3 642 645 643
3 749 643 642
3 642 645 749
3 736 734 828
3 370 736 734
3 370 734 371
3 828 370 371
3 736 828 370
3 322 323 506
3 507 322 506
3 507 363 322
3 175 363 507
3 506 363 175
3 175 506 507
3 574 571 570
3 681 570 574
3 574 571 681
3 484 419 556
3 557 556 484
3 484 557 419
3 419 416 556
3 418 419 416
3 418 556 416
3 554 420 421
3 418 420 554
3 418 420 421
3 419 418 421
3 554 421 419
3 553 418 554
3 553 485 418
3 556 553 485
3 556 418 485
3 554 553 556
3 554 556 557
3 419 557 554
3 207 206 756
3 207 756 757
3 485 757 207
3 485 756 757
3 485 206 756
3 207 485 206
3 368 740 369
3 310 368 369
3 368 740 310
3 603 369 310
3 603 740 369
3 310 740 603
3 375 23 376
3 412 23 376
3 375 23 412
3 627 376 375
3 627 412 376
3 375 412 627
3 322 679 681
3 577 681 322
3 577 679 681
3 576 679 577
3 576 322 679
3 577 322 576
3 372 210 491
3 764 372 210
3 764 491 210
3 560 764 372
3 560 491 764
3 372 491 560
3 616 563 570
3 164 563 616
3 164 570 563
3 617 570 164
3 616 570 617
3 617 164 616
3 821 822 194
3 822 193 528
3 194 822 193
3 194 193 528
3 528 477 822
3 651 136 135
3 445 135 136
3 353 136 445
3 651 136 353
3 375 626 774
3 772 626 375
3 772 774 626
3 375 772 774
3 510 349 511
3 362 349 510
3 510 511 362
3 362 700 349
3 511 349 700
3 511 700 728
3 362 728 700
3 511 728 362
3 510 698 700
3 349 698 510
3 349 698 700
3 510 700 511
3 728 362 510
3 509 511 728
3 510 509 511
3 828 734 737
3 735 734 828
3 735 734 737
3 829 735 828
3 737 735 829
3 829 828 737
3 205 551 755
3 204 205 551
3 204 751 551
3 755 551 751
3 204 751 755
3 205 204 755
3 636 635 390
3 153 152 635
3 636 635 152
3 153 152 636
3 153 390 635
3 153 636 390
3 152 390 153
3 808 392 630
3 801 808 392
3 801 622 392
3 629 392 622
3 629 630 392
3 622 629 630
3 630 623 801
3 799 622 801
3 622 799 623
3 630 623 622
3 630 801 808
3 623 808 630
3 189 477 188
3 748 189 188
3 748 477 188
3 189 477 748
3 647 744 745
3 742 744 745
3 647 745 742
3 741 603 739
3 611 604 603
3 610 611 739
3 610 611 603
3 739 738 610
3 739 603 738
3 603 610 738
3 619 776 373
3 776 619 774
3 374 774 619
3 374 774 776
3 374 776 373
3 619 373 374
3 121 438 122
3 687 121 122
3 121 438 687
3 483 424 550
3 552 424 422
3 483 422 424
3 483 552 422
3 552 550 424
3 483 552 550
3 720 401 403
3 401 720 9
3 725 720 9
3 725 401 9
3 725 403 401
3 720 403 725
3 684 439 685
3 684 123 439
3 123 685 439
3 684 123 685
3 443 661 440
3 443 440 90
3 139 661 90
3 139 443 90
3 139 440 90
3 443 139 440
3 825 821 364
3 748 821 364
3 748 815 821
3 825 815 821
3 522 132 529
3 643 132 522
3 132 676 677
3 132 643 677
3 532 676 643
3 529 676 533
3 533 529 532
3 643 529 532
3 529 132 676
3 522 529 643
3 356 357 645
3 749 356 357
3 749 645 357
3 356 645 749
3 770 632 769
3 632 770 768
3 767 770 768
3 767 632 768
3 767 769 632
3 770 767 769
3 358 359 745
3 358 648 745
3 359 648 358
3 649 359 596
3 649 648 359
3 596 649 648
3 520 131 524
3 523 131 520
3 524 523 130
3 524 131 130
3 520 523 524
3 187 356 520
3 523 356 187
3 523 520 356
3 187 523 520
3 815 643 642
3 522 749 643
3 529 749 522
3 815 529 643
3 529 815 477
3 195 477 189
3 190 821 195
3 190 195 189
3 821 189 190
3 821 748 189
3 748 749 477
3 477 749 529
3 825 642 746
3 749 644 642
3 746 644 749
3 825 812 642
3 812 815 642
3 825 812 815
3 526 224 92
3 93 526 92
3 440 97 92
3 440 93 97
3 93 97 92
3 526 93 440
3 524 130 128
3 131 128 130
3 521 524 525
3 521 441 525
3 521 524 441
3 441 128 525
3 128 525 524
3 441 128 131
3 524 131 441
3 358 649 650
3 649 357 650
3 645 357 646
3 649 646 357
3 645 649 646
3 645 358 357
3 649 358 645
3 411 723 409
3 721 411 409
3 721 723 411
3 13 409 723
3 13 721 409
3 723 13 721
3 778 776 615
3 777 778 776
3 777 776 775
3 777 615 775
3 615 776 775
3 778 615 777
3 821 190 364
3 748 364 189
3 189 364 190
3 186 356 476
3 186 356 187
3 476 186 187
3 520 476 356
3 187 520 476
3 519 356 476
3 732 356 519
3 186 732 356
3 658 287 288
3 582 288 658
3 582 288 287
3 581 582 658
3 581 582 287
3 187 356 188
3 522 187 188
3 522 356 188
3 522 187 356
3 746 747 744
3 746 747 644
3 644 745 647
3 745 744 747
3 648 745 644
3 648 747 745
3 645 747 648
3 645 644 747
3 648 645 644
3 639 642 643
3 815 643 639
3 639 642 815
3 522 749 188
3 356 749 522
3 356 749 188
3 516 697 7
3 231 697 7
3 516 7 231
3 230 691 697
3 230 697 231
3 516 230 231
3 748 188 749
3 522 477 529
3 748 522 477
3 522 748 188
3 522 188 477
3 649 403 359
3 725 403 649
3 10 403 725
3 10 359 403
3 725 10 359
3 649 359 725
3 822 532 815
3 528 532 822
3 528 815 532
3 528 529 815
3 528 529 477
3 301 647 644
3 301 816 810
3 301 816 644
3 300 301 810
3 300 644 810
3 300 647 644
3 301 300 647
3 8 401 9
3 719 8 9
3 719 401 9
3 8 401 719
3 445 444 354
3 135 445 444
3 815 812 811
3 642 811 815
3 812 811 642
3 750 760 480
3 759 750 760
3 759 480 760
3 750 480 759
3 736 737 734
3 736 737 828
3 648 358 645
3 725 359 358
3 649 358 725
3 645 648 649
3 642 301 644
3 642 301 816
3 642 816 812
3 749 747 645
3 749 644 747
3 644 645 642
3 587 291 609
3 103 587 291
3 103 291 104
3 587 104 103
3 104 291 609
3 587 609 104
3 310 817 603
3 610 603 817
3 310 610 603
3 309 310 817
3 309 610 817
3 310 309 610
3 442 133 444
3 445 442 444
3 442 354 445
3 442 133 354
3 627 626 375
3 634 376 626
3 627 626 634
3 376 634 627
3 772 626 376
3 376 772 375
3 227 690 228
3 473 227 228
3 518 703 690
3 518 473 703
3 703 690 227
3 180 181 513
3 513 14 15
3 721 14 15
3 181 513 15
3 15 181 721
3 180 721 181
3 648 594 595
3 648 594 743
3 134 444 133
3 522 132 356
3 522 523 132
3 523 131 132
3 132 131 520
3 356 132 520
3 522 523 187
3 522 131 132
3 470 719 724
3 183 719 724
3 719 183 182
3 719 470 182
3 470 182 183
3 816 365 810
3 623 37 800
3 673 37 623
3 673 800 37
3 800 799 337
3 673 337 800
3 673 623 799
3 316 321 318
3 602 316 318
3 316 321 602
3 612 602 318
3 612 321 318
3 602 321 612
3 356 357 646
3 647 594 742
3 745 742 594
3 648 647 594
3 745 594 743
3 644 647 648
3 91 92 97
3 139 91 97
3 139 91 92
3 440 139 97
3 139 92 90
3 820 307 819
3 831 820 819
3 615 819 831
3 831 820 615
3 820 307 615
3 539 544 379
3 545 539 544
3 539 379 156
3 540 539 545
3 540 156 545
3 540 157 539
3 156 157 539
3 157 156 540
3 732 730 357
3 519 357 732
3 519 730 357
3 519 732 730
3 496 694 699
3 497 699 694
3 512 694 496
3 512 497 694
3 496 512 497
3 351 598 404
3 597 598 351
3 404 598 597
3 406 597 351
3 351 404 406
3 597 607 598
3 606 607 597
3 406 606 351
3 311 368 310
3 311 310 603
3 311 740 603
3 368 740 311
3 736 738 817
3 610 738 736
3 736 817 610
3 603 817 738
3 519 357 356
3 732 357 356
3 646 133 649
3 357 133 646
3 649 133 134
3 134 357 649
3 526 527 224
3 93 92 117
3 527 93 117
3 526 93 527
3 358 403 725
3 358 720 403
3 358 720 725
3 399 719 8
3 719 399 401
3 8 399 401
3 719 470 401
3 470 466 182
3 719 466 182
3 466 719 733
3 719 733 8
3 466 397 399
3 181 15 397
3 733 181 15
3 466 181 397
3 733 181 466
3 693 410 0
3 468 693 0
3 468 410 693
3 694 410 0
3 693 0 694
3 497 694 693
3 410 408 497
3 694 408 410
3 694 497 408
3 468 232 693
3 497 468 232
3 497 693 232
3 410 497 468
3 724 720 731
3 474 731 184
3 474 518 731
3 474 518 472
3 474 472 184
3 185 184 731
3 474 518 730
3 185 731 730
3 474 730 519
3 185 730 732
3 185 474 184
3 508 735 734
3 828 735 833
3 508 833 735
3 508 828 833
3 357 358 747
3 357 645 747
3 648 358 747
3 358 745 747
3 699 233 694
3 497 233 694
3 9 403 10
3 725 9 10
3 9 401 403
3 746 749 747
3 749 357 747
3 360 12 726
3 407 726 361
3 360 726 361
3 407 361 360
3 407 12 726
3 360 12 407
3 742 594 740
3 743 594 742
3 742 743 740
3 736 370 738
3 369 738 817
3 369 738 370
3 817 369 370
3 736 370 817
3 739 736 611
3 739 736 738
3 610 611 736
3 745 743 742
3 309 818 308
3 613 309 308
3 610 309 613
3 610 818 613
3 309 818 610
3 636 629 628
3 636 628 635
3 391 635 636
3 391 628 635
3 629 628 391
3 629 391 636
3 391 413 635
3 413 628 635
3 629 628 413
3 413 391 629
3 610 614 737
3 611 610 614
3 611 737 614
3 736 610 737
3 739 737 611
3 739 737 736
3 310 738 817
3 310 369 738
3 310 369 817
3 603 369 738
3 647 311 594
3 742 311 594
3 300 367 311
3 647 300 311
3 742 367 311
3 311 603 594
3 368 311 367
3 742 368 367
3 368 742 740
3 641 770 633
3 377 770 641
3 377 633 770
3 634 633 377
3 641 634 633
3 634 377 641
3 163 461 160
3 163 160 162
3 565 162 163
3 565 162 160
3 163 461 565
3 566 565 160
3 461 160 566
3 565 461 562
3 566 562 461
3 565 566 562
3 743 360 595
3 741 743 360
3 723 409 498
3 179 180 498
3 180 179 721
3 723 498 179
3 179 723 721
3 729 362 510
3 728 729 362
3 818 309 817
3 818 817 829
3 610 829 818
3 817 829 610
3 572 575 576
3 572 829 576
3 829 575 576
3 572 833 829
3 572 575 833
3 575 829 833
3 735 172 734
3 735 172 508
3 420 18 422
3 755 422 420
3 755 18 422
3 19 755 420
3 19 755 18
3 420 19 18
3 740 738 603
3 740 738 369
3 740 741 738
3 741 739 738
3 613 829 818
3 613 614 829
3 610 613 614
3 610 829 614
3 14 397 15
3 181 513 397
3 411 397 513
3 14 411 397
3 739 361 362
3 612 361 362
3 611 362 739
3 611 602 362
3 602 612 362
3 611 602 612
3 396 697 7
3 396 231 516
3 396 411 410
3 410 396 467
3 411 467 397
3 396 397 411
3 514 468 497
3 410 497 514
3 467 468 410
3 514 467 468
3 411 408 410
3 410 514 408
3 411 408 514
3 467 411 513
3 498 513 514
3 514 513 467
3 832 833 828
3 572 833 216
3 834 829 833
3 572 573 829
3 573 834 829
3 572 834 573
3 834 833 216
3 834 216 217
3 572 217 834
3 572 217 216
3 572 216 575
3 173 508 172
3 173 172 735
3 610 737 829
3 829 828 610
3 817 370 828
3 817 610 828
3 829 817 828
3 726 13 409
3 723 726 13
3 727 409 723
3 727 726 409
3 723 727 726
3 829 735 833
3 828 833 829
3 699 700 235
3 699 494 235
3 699 234 494
3 496 234 494
3 511 496 494
3 511 700 494
3 496 700 511
3 699 700 496
3 723 179 722
3 698 511 494
3 510 511 494
3 511 698 700
3 176 175 363
3 729 176 363
3 175 499 506
3 176 499 175
3 743 359 360
3 175 735 363
3 737 363 507
3 735 737 363
3 735 576 507
3 737 576 735
3 737 507 576
3 175 507 173
3 735 175 173
3 612 362 318
3 321 318 362
3 362 602 321
3 506 323 576
3 577 506 245
3 577 323 245
3 506 577 576
3 322 323 577
3 576 323 322
3 506 322 576
3 754 22 375
3 414 22 375
3 754 22 414
3 628 375 754
3 628 412 627
3 414 412 628
3 414 375 412
3 754 414 628
3 361 612 318
3 605 612 318
3 406 1 408
3 695 408 406
3 695 1 408
3 695 406 2
3 2 695 1
3 406 2 1
3 587 294 713
3 295 587 294
3 295 294 713
3 291 587 295
3 291 713 295
3 587 713 291
3 737 739 362
3 363 737 362
3 363 611 362
3 737 611 363
3 10 405 11
3 359 10 11
3 10 403 405
3 363 362 510
3 363 362 729
3 579 593 592
3 431 593 579
3 431 432 592
3 579 432 105
3 431 432 105
3 579 105 431
3 579 592 432
3 617 164 614
3 165 164 617
3 679 165 164
3 165 617 679
3 679 614 164
3 617 614 679
3 562 164 461
3 163 164 562
3 163 164 461
3 671 669 170
3 465 669 170
3 462 669 465
3 237 501 493
3 236 237 493
3 236 348 493
3 237 236 348
3 500 493 348
3 501 500 493
3 500 348 501
3 237 501 348
3 611 614 363
3 602 611 614
3 602 363 614
3 363 602 362
3 572 569 217
3 572 573 569
3 507 506 576
3 614 602 322
3 363 322 602
3 576 614 322
3 363 614 576
3 507 363 576
3 507 614 576
3 737 614 507
3 735 614 576
3 737 614 735
3 492 779 780
3 835 780 779
3 492 780 830
3 835 830 780
3 492 830 835
3 492 213 779
3 213 835 779
3 214 835 213
3 219 214 835
3 214 219 213
3 492 835 219
3 219 492 213
3 213 780 779
3 213 780 492
3 735 829 614
3 692 406 695
3 692 408 406
3 692 1 408
3 695 692 1
3 284 581 580
3 712 580 284
3 712 581 580
3 283 284 712
3 283 581 712
3 284 283 581
3 505 657 656
3 244 657 323
3 505 244 245
3 323 245 244
3 323 657 656
3 505 656 323
3 693 694 233
3 233 497 232
3 233 232 693
3 182 466 181
3 733 182 181
3 182 733 719
3 509 177 495
3 178 495 177
3 728 178 177
3 511 509 495
3 511 728 495
3 727 495 511
3 727 511 728
3 728 727 722
3 466 467 513
3 181 466 513
3 12 409 13
3 726 12 13
3 727 406 409
3 407 406 727
3 407 406 409
3 727 726 407
3 12 407 409
3 512 692 699
3 694 692 512
3 694 692 699
3 512 699 496
3 411 13 409
3 14 721 13
3 411 14 13
3 407 11 405
3 360 405 407
3 12 360 11
3 407 12 11
3 654 348 658
3 658 654 656
3 655 348 657
3 656 657 348
3 655 656 657
3 658 656 655
3 799 393 622
3 336 799 393
3 336 672 393
3 672 622 393
3 623 37 168
3 37 63 168
3 63 64 168
3 63 35 64
3 169 168 672
3 169 35 672
3 35 672 63
3 37 63 672
3 623 37 672
3 622 623 168
3 622 672 168
3 623 672 673
3 727 511 700
3 727 728 362
3 617 165 373
3 372 164 617
3 617 373 372
3 408 0 410
3 1 694 408
3 1 694 0
3 408 1 0
3 129 526 525
3 225 525 440
3 526 225 525
3 129 95 440
3 93 129 95
3 93 95 97
3 95 97 440
3 526 129 93
3 128 129 525
3 440 525 441
3 441 440 128
3 129 128 440
3 727 408 692
3 727 409 408
3 512 408 514
3 411 409 408
3 497 408 512
3 1 692 694
3 727 692 512
3 590 297 330
3 298 590 297
3 298 297 330
3 590 330 298
3 352 404 3
3 404 352 598
3 351 3 404
3 352 351 3
3 405 403 597
3 650 597 403
3 402 597 650
3 402 650 403
3 405 403 402
3 404 597 402
3 407 405 404
3 402 404 405
3 82 583 78
3 583 78 289
3 319 289 583
3 319 78 289
3 78 319 81
3 82 319 81
3 82 81 78
3 319 82 80
3 319 80 608
3 583 350 319
3 351 715 714
3 351 715 608
3 350 351 714
3 281 350 714
3 280 281 714
3 280 583 281
3 319 350 608
3 583 82 80
3 82 78 80
3 583 659 289
3 659 289 319
3 659 350 319
3 349 659 582
3 350 320 349
3 659 320 350
3 583 582 659
3 688 42 668
3 683 668 42
3 683 688 668
3 42 683 688
3 496 700 692
3 496 512 700
3 512 692 700
3 699 496 692
3 512 511 495
3 512 496 511
3 699 692 700
3 512 514 497
3 606 349 350
3 606 321 349
3 654 318 321
3 321 606 318
3 606 318 362
3 606 362 321
3 362 321 349
3 361 606 362
3 361 350 606
3 247 681 248
3 574 247 248
3 574 681 248
3 573 681 574
3 573 679 681
3 573 577 679
3 574 573 577
3 577 247 681
3 574 577 247
3 352 598 650
3 352 597 598
3 597 598 650
3 404 597 352
3 352 402 404
3 352 650 402
3 394 373 762
3 787 373 394
3 787 762 373
3 787 559 762
3 794 559 787
3 794 394 762
3 787 794 394
3 413 392 31
3 415 392 413
3 24 392 415
3 413 415 24
3 24 392 31
3 413 24 31
3 659 288 582
3 289 659 288
3 289 288 582
3 583 289 582
3 609 716 291
3 713 716 609
3 716 295 291
3 716 295 713
3 587 713 609
3 167 464 166
3 621 167 166
3 621 464 166
3 167 464 621
3 607 319 608
3 607 320 319
3 659 319 320
3 695 350 406
3 692 695 350
3 692 406 350
3 407 350 406
3 407 606 350
3 695 2 351
3 406 2 351
3 409 406 408
3 727 361 726
3 405 606 596
3 372 563 616
3 372 164 563
3 616 373 372
3 617 373 616
3 363 322 362
3 321 322 602
3 321 362 322
3 349 510 348
3 510 322 348
3 657 503 243
3 504 503 657
3 504 503 243
3 244 504 243
3 244 243 657
3 574 250 571
3 163 571 574
3 163 574 250
3 162 571 250
3 163 162 250
3 372 211 563
3 372 564 211
3 564 211 563
3 561 564 372
3 164 564 561
3 561 372 164
3 563 564 164
3 561 163 564
3 561 164 163
3 163 164 563
3 616 778 563
3 616 372 778
3 780 372 778
3 570 778 780
3 570 563 778
3 563 570 780
3 372 563 780
3 73 243 71
3 77 73 71
3 77 243 71
3 73 77 243
3 505 501 657
3 504 505 501
3 504 657 501
3 505 501 323
3 656 501 657
3 322 501 656
3 322 323 501
3 656 322 323
3 77 74 243
3 77 655 243
3 503 243 74
3 504 237 503
3 655 504 237
3 504 655 657
3 657 243 655
3 698 493 348
3 510 348 493
3 698 349 348
3 285 578 286
3 592 286 285
3 592 578 286
3 285 578 592
3 234 699 235
3 234 235 494
3 711 238 712
3 711 74 712
3 239 238 711
3 239 502 711
3 238 239 502
3 502 74 711
3 698 348 236
3 504 348 237
3 504 501 348
3 504 501 237
3 500 510 493
3 657 348 504
3 505 500 501
3 348 712 237
3 783 484 786
3 783 261 484
3 260 261 484
3 261 260 783
3 260 786 484
3 783 260 786
3 240 292 593
3 239 593 240
3 711 593 239
3 239 711 240
3 711 292 593
3 240 711 292
3 100 591 585
3 433 591 100
3 585 705 433
3 585 293 705
3 591 293 585
3 591 705 293
3 433 705 591
3 100 585 433
3 242 593 502
3 102 242 593
3 102 502 593
3 241 502 242
3 102 241 242
3 239 431 711
3 502 431 239
3 74 431 502
3 711 431 74
3 70 77 71
3 70 71 243
3 72 77 70
3 72 70 243
3 243 72 74
3 77 72 74
3 292 592 593
3 578 592 579
3 578 292 592
3 579 292 578
3 285 292 579
3 711 285 292
3 239 431 593
3 711 580 431
3 580 579 431
3 243 503 72
3 284 711 712
3 580 431 74
3 74 581 580
3 74 75 581
3 580 581 75
3 580 74 75
3 74 75 579
3 580 75 579
3 74 579 431
3 61 62 64
3 62 61 169
3 348 283 712
3 283 581 348
3 660 666 590
3 436 666 660
3 436 590 666
3 436 660 115
3 660 590 115
3 590 436 115
3 476 520 521
3 356 521 476
3 356 520 521
3 587 705 591
3 104 705 587
3 433 705 104
3 587 433 103
3 433 103 104
3 587 591 433
3 102 431 502
3 98 102 431
3 74 98 431
3 578 105 106
3 578 106 585
3 578 432 585
3 432 106 585
3 432 106 105
3 578 579 432
3 578 579 105
3 81 319 83
3 289 83 319
3 75 74 431
3 75 431 105
3 579 75 105
3 591 587 103
3 100 591 103
3 433 100 103
3 296 709 586
3 297 296 709
3 297 586 709
3 296 297 586
3 652 89 710
3 89 664 710
3 652 710 664
3 709 665 710
3 665 664 710
3 89 664 665
3 665 709 89
3 709 710 652
3 89 709 652
3 584 585 433
3 107 584 585
3 107 433 585
3 584 433 107
3 517 701 469
3 471 701 517
3 469 701 229
3 471 229 701
3 469 471 229
3 517 471 469
3 431 101 432
3 592 101 432
3 502 593 239
3 111 108 666
3 85 111 108
3 85 108 665
3 665 85 111
3 665 108 666
3 111 666 665
3 101 592 100
3 432 101 100
3 432 592 100
3 784 259 486
3 488 259 486
3 488 486 559
3 488 784 559
3 787 559 784
3 787 486 559
3 259 784 488
3 242 240 593
3 242 502 239
3 240 242 239
3 582 281 583
3 282 349 281
3 282 281 582
3 349 582 282
3 584 705 104
3 104 107 584
3 104 107 433
3 314 682 39
3 624 314 39
3 38 624 39
3 38 682 39
3 38 624 682
3 314 682 624
3 294 591 293
3 294 293 705
3 587 591 294
3 587 705 294
3 592 293 286
3 592 293 591
3 100 592 591
3 100 592 585
3 585 578 293
3 592 578 585
3 286 293 578
3 585 286 293
3 585 286 578
3 100 432 585
3 107 585 106
3 433 107 106
3 432 433 106
3 432 100 433
3 349 582 658
3 348 582 349
3 581 582 348
3 658 348 349
3 659 658 288
3 659 654 658
3 283 582 348
3 581 283 582
3 283 282 582
3 282 283 349
3 349 283 348
3 682 345 683
3 345 674 682
3 39 682 683
3 39 430 683
3 682 430 39
3 430 668 33
3 42 33 668
3 430 42 33
3 42 683 430
3 674 32 668
3 430 32 668
3 674 32 430
3 674 683 668
3 682 674 430
3 713 294 705
3 713 104 705
3 587 104 713
3 705 279 713
3 104 80 713
3 78 104 80
3 584 107 78
3 104 78 107
3 104 609 80
3 705 293 286
3 286 585 279
3 286 279 705
3 285 286 293
3 292 285 293
3 292 293 592
3 285 579 578
3 468 467 516
3 468 516 231
3 676 678 156
3 536 156 676
3 678 274 156
3 157 156 536
3 157 156 274
3 536 157 274
3 678 274 536
3 716 714 715
3 609 600 716
3 715 600 609
3 715 716 600
3 713 714 716
3 693 231 7
3 693 7 0
3 232 468 231
3 232 231 693
3 662 667 706
3 707 667 662
3 707 706 667
3 707 706 324
3 662 706 324
3 519 703 730
3 474 519 518
3 518 519 473
3 402 696 353
3 352 696 353
3 352 402 353
3 696 402 4
3 352 4 402
3 696 352 4
3 398 5 400
3 691 5 400
3 6 691 5
3 398 6 5
3 402 353 403
3 651 353 352
3 651 352 650
3 358 403 353
3 649 597 403
3 650 649 597
3 702 353 358
3 720 702 358
3 401 702 720
3 403 401 400
3 702 400 403
3 702 401 400
3 696 702 353
3 696 702 402
3 702 403 402
3 651 650 598
3 352 598 651
3 133 677 313
3 134 133 646
3 313 134 133
3 134 313 646
3 132 677 133
3 133 132 646
3 643 646 132
3 4 400 5
3 696 4 5
3 400 696 402
3 4 402 400
3 396 6 398
3 7 697 6
3 396 7 6
3 600 290 296
3 600 718 290
3 718 296 290
3 600 296 718
3 600 290 653
3 718 653 600
3 586 653 718
3 586 296 653
3 296 586 718
3 290 653 296
3 471 517 702
3 518 471 517
3 517 720 702
3 517 472 518
3 720 730 702
3 359 597 596
3 359 649 597
3 606 597 596
3 649 596 597
3 691 229 701
3 469 701 691
3 230 469 229
3 230 229 691
3 471 228 229
3 690 701 471
3 690 701 229
3 690 229 228
3 702 354 353
3 358 357 730
3 358 730 720
3 291 600 295
3 609 291 600
3 716 295 600
3 3 402 4
3 352 3 4
3 3 404 402
3 403 400 402
3 703 702 690
3 701 517 702
3 690 702 701
3 724 9 401
3 724 9 720
3 517 724 401
3 691 701 5
3 517 400 469
3 515 400 517
3 401 398 400
3 515 398 400
3 724 719 9
3 2 404 3
3 351 2 3
3 2 406 404
3 515 517 469
3 519 354 703
3 704 354 703
3 134 649 650
3 530 132 529
3 530 131 132
3 530 522 529
3 519 354 356
3 357 356 354
3 223 589 222
3 223 527 589
3 527 220 589
3 223 527 220
3 220 589 222
3 223 220 222
3 134 646 649
3 51 542 158
3 54 456 158
3 54 456 51
3 542 51 456
3 541 542 158
3 541 158 159
3 457 159 541
3 457 159 158
3 456 457 158
3 457 541 456
3 542 456 541
3 127 55 453
3 124 453 127
3 127 124 55
3 124 57 55
3 638 453 124
3 124 638 57
3 521 524 131
3 132 441 521
3 132 441 131
3 132 521 131
3 225 355 521
3 475 355 226
3 225 355 226
3 475 225 226
3 475 521 355
3 225 475 521
3 791 481 788
3 789 481 791
3 789 788 481
3 791 789 788
3 169 465 168
3 169 672 170
3 169 170 465
3 167 168 672
3 167 168 465
3 521 520 131
3 521 520 524
3 49 158 542
3 51 542 49
3 442 132 354
3 133 442 132
3 133 354 132
3 356 132 476
3 521 476 132
3 356 132 646
3 357 132 356
3 133 132 357
3 354 132 356
3 442 443 355
3 441 442 443
3 440 441 443
3 355 443 440
3 440 441 355
3 442 355 132
3 441 132 355
3 442 441 132
3 354 443 355
3 442 445 443
3 132 354 355
3 809 682 624
3 809 624 314
3 344 682 809
3 344 682 314
3 809 314 344
3 137 85 88
3 86 136 88
3 86 137 88
3 136 86 137
3 533 278 131
3 530 533 278
3 130 530 278
3 130 278 131
3 533 131 530
3 707 222 299
3 707 589 299
3 589 299 222
3 223 589 707
3 223 222 707
3 519 475 355
3 226 355 704
3 589 706 667
3 707 299 706
3 589 299 706
3 662 589 667
3 707 589 662
3 519 356 355
3 356 476 355
3 476 521 355
3 519 476 521
3 519 521 475
3 525 225 355
3 441 525 355
3 225 521 525
3 706 331 660
3 667 331 660
3 706 660 667
3 324 706 331
3 324 331 667
3 662 324 667
3 450 451 459
3 149 450 451
3 450 459 149
3 326 355 661
3 443 661 355
3 325 661 326
3 708 325 326
3 355 708 326
3 354 663 355
3 326 661 663
3 355 663 326
3 531 528 193
3 528 531 532
3 354 355 326
3 354 326 327
3 663 327 354
3 663 327 326
3 588 667 589
3 588 706 667
3 299 589 588
3 706 588 299
3 588 298 660
3 706 299 298
3 588 298 299
3 331 706 298
3 331 660 298
3 667 588 660
3 479 792 266
3 791 792 266
3 791 479 266
3 481 265 791
3 479 481 265
3 479 791 265
3 792 549 481
3 479 549 792
3 479 549 481
3 791 792 481
3 91 90 92
3 91 139 90
3 434 589 707
3 223 434 707
3 223 527 434
3 220 589 434
3 113 220 434
3 220 527 221
3 220 221 113
3 530 676 131
3 533 676 530
3 131 678 533
3 131 678 676
3 686 121 126
3 121 686 447
3 125 121 126
3 125 126 447
3 438 121 125
3 438 447 125
3 121 447 438
3 94 96 97
3 129 97 94
3 129 97 96
3 94 129 96
3 129 440 97
3 94 97 95
3 129 94 95
3 113 589 434
3 220 113 589
3 434 667 662
3 662 589 434
3 434 435 667
3 434 588 435
3 588 667 435
3 434 589 588
3 434 92 707
3 662 667 110
3 434 667 110
3 90 662 110
3 90 110 434
3 90 434 92
3 588 435 114
3 434 435 114
3 588 114 434
3 527 707 434
3 527 223 707
3 434 110 435
3 667 660 109
3 435 660 109
3 435 667 660
3 110 667 109
3 110 109 435
3 353 664 328
3 354 327 664
3 327 664 328
3 354 327 328
3 353 354 328
3 353 445 664
3 138 664 445
3 138 664 663
3 663 354 664
3 113 434 114
3 589 113 114
3 588 589 114
3 328 710 664
3 353 328 710
3 651 710 353
3 652 710 651
3 138 137 664
3 138 445 137
3 445 136 137
3 717 710 652
3 709 717 710
3 718 652 709
3 718 717 652
3 718 717 709
3 665 710 329
3 709 710 329
3 665 329 709
3 715 608 599
3 608 599 598
3 716 715 717
3 600 717 718
3 716 717 718
3 600 718 716
3 600 599 717
3 715 599 600
3 660 115 435
3 436 115 435
3 436 435 109
3 436 660 109
3 86 88 85
3 84 86 85
3 84 85 137
3 86 84 137
3 330 709 666
3 665 666 709
3 330 665 666
3 330 709 329
3 665 330 329
3 55 151 150
3 55 58 151
3 55 58 56
3 150 55 56
3 150 58 56
3 60 58 151
3 60 151 150
3 58 150 60
3 85 665 89
3 664 85 665
3 687 686 447
3 438 687 447
3 686 687 438
3 121 686 438
3 686 121 687
3 588 114 115
3 435 115 114
3 588 115 590
3 588 590 298
3 331 298 330
3 660 331 330
3 660 590 330
3 651 717 599
3 352 717 651
3 651 598 599
3 663 664 327
3 296 716 718
3 295 716 296
3 295 296 290
3 291 295 290
3 291 290 600
3 296 718 709
3 653 709 586
3 653 718 709
3 608 609 599
3 600 599 609
3 600 652 718
3 599 600 652
3 717 652 599
3 111 653 586
3 112 111 653
3 111 586 112
3 290 112 653
3 586 290 296
3 112 290 586
3 666 109 660
3 108 436 109
3 108 109 666
3 111 436 108
3 111 436 666
3 111 112 590
3 436 111 112
3 111 590 436
3 115 436 112
3 115 112 590
3 35 32 674
3 37 674 35
3 38 674 37
3 37 38 35
3 38 32 674
3 35 38 32
3 623 624 37
3 624 37 800
3 624 800 809
3 624 809 623
3 352 353 710
3 651 652 717
3 352 710 717
3 653 89 652
3 653 111 709
3 89 709 111
3 111 89 653
3 653 652 600
3 590 709 330
3 590 297 709
3 297 709 330
3 651 599 652
3 687 803 448
3 146 447 803
3 340 803 146
3 687 340 803
3 686 687 340
3 447 448 803
3 687 448 438
3 125 447 448
3 125 438 448
3 664 329 328
3 710 328 329
3 664 665 329
3 85 89 111
3 590 586 297
3 112 586 590
3 660 330 666
3 684 453 805
3 684 685 453
3 453 342 805
3 685 342 453
3 687 270 803
3 270 273 803
3 273 543 270
3 687 543 270
3 687 273 543
3 271 803 273
3 687 273 271
3 271 803 340
3 687 271 340
3 635 634 641
3 153 634 641
3 153 635 641
3 634 153 635
3 377 641 153
3 153 635 377
3 377 635 634
3 685 453 446
3 446 453 439
3 685 120 439
3 446 439 120
3 684 124 453
3 684 685 124
3 127 439 453
3 124 127 439
3 685 439 124
3 123 124 439
3 123 124 684
3 446 127 453
3 127 439 446
3 543 49 51
3 542 543 49
3 543 542 269
3 543 51 269
3 51 542 269
3 685 123 120
3 439 120 123
3 638 124 684
3 315 638 124
3 123 315 124
3 315 123 684
3 638 684 315
3 344 631 314
3 809 631 344
3 631 624 623
3 631 809 623
3 624 631 314
3 675 797 670
3 46 670 797
3 675 36 46
3 670 46 36
3 36 670 675
3 333 797 675
3 333 797 798
3 675 798 332
3 333 798 332
3 675 333 332
3 798 46 797
3 46 798 429
3 675 429 798
3 675 46 429
3 345 682 809
3 345 682 344
3 809 345 344
3 120 126 121
3 686 120 121
3 439 127 126
3 439 126 120
3 446 126 127
3 60 150 56
3 60 56 58
3 455 389 459
3 458 389 455
3 458 450 389
3 455 450 458
3 450 459 389
3 455 459 450
3 450 143 389
3 451 450 143
3 451 389 143
3 451 459 389
3 601 153 641
3 153 601 312
3 153 312 154
3 455 155 389
3 454 455 155
3 454 388 155
3 455 388 454
3 388 389 155
3 455 389 388
3 268 267 388
3 546 388 268
3 546 545 388
3 478 546 545
3 478 388 545
3 546 478 268
3 478 267 388
3 268 478 267
3 457 546 541
3 540 546 457
3 540 546 541
3 457 541 540
3 427 390 788
3 782 390 427
3 782 390 788
3 427 788 782
3 159 457 156
3 157 159 156
3 159 157 540
3 159 457 540
3 454 156 540
3 454 156 457
3 540 457 454
3 264 482 263
3 264 263 781
3 482 781 789
3 264 781 789
3 482 789 264
3 437 803 802
3 145 146 803
3 447 146 448
3 145 448 146
3 145 803 802
3 448 802 145
3 437 802 448
3 687 803 437
3 125 448 52
3 437 125 52
3 51 437 52
3 448 52 51
3 51 437 448
3 125 437 438
3 272 118 543
3 273 272 543
3 437 543 687
3 687 273 437
3 122 437 273
3 122 272 437
3 273 122 272
3 437 51 543
3 118 437 51
3 118 51 49
3 543 118 49
3 272 118 437
3 770 768 640
3 639 768 632
3 639 640 768
3 632 639 640
3 770 640 633
3 632 640 633
3 770 633 632
3 687 122 273
3 482 264 481
3 482 481 550
3 482 789 550
3 788 550 789
3 481 550 788
3 789 264 481
3 118 122 437
3 122 118 119
3 272 122 119
3 272 119 118
3 426 377 376
3 753 377 426
3 753 377 376
3 16 753 376
3 16 426 376
3 753 426 16
3 541 268 796
3 542 541 268
3 542 268 269
3 796 269 542
3 796 269 268
3 541 796 542
3 54 53 456
3 51 52 456
3 51 52 53
3 54 51 53
3 159 540 541
3 154 155 378
3 389 155 154
3 378 154 389
3 548 155 388
3 389 548 388
3 378 379 548
3 378 155 379
3 389 378 548
3 389 388 790
3 548 790 389
3 548 388 790
3 546 156 540
3 457 454 546
3 155 156 546
3 155 156 454
3 546 454 155
3 148 458 456
3 450 458 456
3 458 148 149
3 450 149 458
3 450 149 148
3 827 824 823
3 534 823 827
3 537 534 827
3 827 824 537
3 50 54 158
3 48 50 158
3 50 48 54
3 639 826 640
3 639 643 826
3 640 535 643
3 826 535 640
3 643 532 826
3 535 532 643
3 531 535 532
3 531 535 826
3 639 643 640
3 639 814 826
3 814 826 815
3 639 815 814
3 529 528 532
3 822 815 826
3 628 376 627
3 376 628 635
3 412 635 628
3 412 376 635
3 628 627 635
3 376 634 635
3 634 635 627
3 455 154 155
3 455 154 389
3 452 55 150
3 804 141 142
3 452 142 141
3 804 142 390
3 804 390 806
3 637 390 806
3 57 637 151
3 59 57 151
3 452 59 57
3 59 151 58
3 55 59 58
3 452 55 59
3 55 57 59
3 51 802 796
3 145 449 802
3 449 448 145
3 437 802 51
3 51 449 52
3 448 449 52
3 449 796 802
3 51 796 449
3 267 790 478
3 388 267 790
3 478 790 548
3 548 388 478
3 796 144 802
3 145 802 144
3 449 145 144
3 796 144 449
3 455 458 459
3 149 459 458
3 462 165 394
3 464 462 165
3 464 394 165
3 464 465 394
3 462 464 465
3 796 388 144
3 449 388 144
3 796 388 449
3 389 390 142
3 451 143 142
3 389 142 143
3 152 389 390
3 451 389 152
3 804 807 805
3 638 807 805
3 638 808 807
3 638 806 808
3 806 808 807
3 804 806 807
3 447 147 686
3 447 147 146
3 26 557 419
3 26 783 557
3 26 419 783
3 783 419 484
3 261 557 783
3 261 557 484
3 259 794 784
3 784 559 794
3 258 259 488
3 794 488 258
3 259 258 794
3 541 388 268
3 546 388 541
3 541 546 268
3 152 153 389
3 455 389 153
3 153 455 152
3 455 459 152
3 482 550 552
3 423 552 482
3 423 425 552
3 425 550 552
3 425 482 550
3 807 343 805
3 684 805 638
3 638 315 631
3 638 807 631
3 807 315 631
3 315 807 343
3 315 631 343
3 807 343 631
3 271 270 803
3 270 271 273
3 264 791 265
3 481 264 265
3 791 264 789
3 554 422 551
3 483 551 422
3 552 483 551
3 554 552 551
3 422 554 420
3 423 421 420
3 423 421 554
3 423 420 422
3 425 423 422
3 425 552 422
3 482 552 555
3 555 552 554
3 423 554 555
3 446 147 341
3 446 147 447
3 685 686 341
3 685 446 341
3 29 427 30
3 782 29 30
3 782 427 30
3 782 29 425
3 427 782 425
3 29 425 427
3 29 425 788
3 782 788 29
3 427 788 425
3 786 417 484
3 786 419 417
3 484 417 419
3 783 419 786
3 456 268 796
3 541 268 456
3 51 796 269
3 449 456 796
3 304 769 384
3 625 769 304
3 625 771 769
3 384 771 625
3 384 771 769
3 304 625 305
3 384 304 305
3 625 305 384
3 204 483 751
3 203 204 483
3 758 483 203
3 758 751 483
3 203 758 751
3 204 203 751
3 548 479 790
3 267 790 479
3 479 267 478
3 548 479 478
3 792 790 548
3 792 790 266
3 267 479 266
3 790 267 266
3 548 479 792
3 543 687 803
3 543 802 269
3 796 802 269
3 270 802 803
3 543 803 270
3 802 543 270
3 266 479 265
3 266 265 791
3 458 388 455
3 450 388 458
3 450 144 388
3 143 450 144
3 143 144 388
3 389 143 388
3 376 634 377
3 426 635 412
3 412 376 426
3 427 635 426
3 427 377 635
3 427 426 377
3 456 388 457
3 456 796 388
3 450 449 144
3 458 455 454
3 458 454 456
3 454 457 388
3 456 454 457
3 268 388 796
3 457 541 388
3 543 269 270
3 802 270 269
3 809 631 807
3 809 344 807
3 343 314 315
3 631 315 314
3 343 344 314
3 807 344 343
3 638 631 630
3 638 808 630
3 807 630 808
3 807 631 630
3 446 453 140
3 446 685 140
3 685 453 140
3 342 453 140
3 341 140 342
3 685 341 342
3 446 140 147
3 341 147 140
3 760 549 547
3 480 549 759
3 760 759 549
3 480 549 547
3 750 202 480
3 201 750 202
3 201 202 480
3 760 750 201
3 547 201 760
3 547 201 480
3 630 806 808
3 637 638 630
3 637 806 630
3 35 673 672
3 35 37 672
3 673 37 35
3 811 639 302
3 642 639 302
3 642 811 302
3 639 814 642
3 639 811 814
3 811 642 814
3 342 140 805
3 141 805 140
3 453 141 140
3 684 124 805
3 638 805 124
3 629 637 630
3 629 391 630
3 629 637 391
3 806 630 391
3 391 637 806
3 46 255 568
3 797 255 46
3 797 568 255
3 254 568 797
3 46 568 254
3 798 797 254
3 46 254 798
3 689 798 254
3 251 254 798
3 568 251 254
3 689 254 568
3 568 251 689
3 689 347 798
3 253 689 347
3 253 347 798
3 253 251 798
3 689 253 251
3 263 555 262
3 793 263 262
3 781 263 793
3 631 808 630
3 809 808 631
3 630 631 623
3 809 807 808
3 671 394 393
3 167 394 671
3 167 393 394
3 671 393 336
3 336 671 672
3 622 393 167
3 167 622 168
3 428 34 41
3 688 41 428
3 34 41 688
3 428 34 688
3 675 689 428
3 346 339 347
3 688 346 347
3 688 346 339
3 332 347 339
3 688 339 332
3 675 332 347
3 688 332 675
3 689 688 347
3 689 675 347
3 34 675 428
3 688 675 668
3 34 675 668
3 688 668 34
3 41 688 689
3 668 675 332
3 668 688 332
3 668 332 339
3 688 339 668
3 255 46 567
3 797 255 567
3 46 670 567
3 670 797 567
3 68 66 161
3 69 68 161
3 69 66 161
3 68 69 66
3 37 35 63
3 254 253 798
3 253 254 251
3 32 33 668
3 32 430 33
3 624 674 800
3 673 35 674
3 337 673 674
3 337 800 674
3 624 38 674
3 624 38 37
3 800 809 682
3 800 682 345
3 800 345 674
3 32 38 430
3 38 39 430
3 338 337 674
3 345 800 338
3 337 338 800
3 754 374 414
3 752 754 374
3 752 414 374
3 754 414 752
3 668 346 339
3 346 668 683
3 346 688 683
3 668 683 339
3 345 809 800
3 338 674 668
3 338 668 339
3 762 560 764
3 373 764 560
3 373 764 762
3 560 762 373
3 163 250 681
3 249 574 248
3 249 248 681
3 250 574 249
3 250 249 681
3 689 798 429
3 254 429 798
3 568 429 254
3 568 689 429
3 42 39 683
3 39 42 430
3 621 622 393
3 167 621 622
3 167 464 393
3 621 165 464
3 621 394 165
3 393 394 621
3 464 394 393
3 167 465 464
3 621 373 166
3 165 166 373
3 621 166 165
3 621 374 373
3 393 374 621
3 393 373 374
3 394 373 393
3 688 33 41
3 34 33 41
3 668 33 34
3 688 668 33
3 42 688 41
3 42 41 33
3 34 429 675
3 34 429 36
3 675 34 36
3 36 429 46
3 670 463 171
3 670 460 669
3 460 463 669
3 463 670 669
3 460 463 171
3 36 460 670
3 36 65 460
3 65 460 171
3 36 65 171
3 36 171 670
3 629 392 391
3 413 392 629
3 31 392 391
3 413 391 31
3 462 164 165
3 565 564 162
3 561 564 565
3 675 347 798
3 34 428 429
3 689 428 429
3 256 566 395
3 463 460 395
3 460 461 463
3 566 461 395
3 161 566 160
3 460 161 160
3 161 566 460
3 461 460 160
3 256 395 460
3 256 460 566
3 161 567 460
3 566 161 567
3 567 256 460
3 567 256 566
3 205 420 551
3 553 420 205
3 205 553 551
3 418 420 553
3 551 420 422
3 553 554 551
3 69 460 46
3 65 69 460
3 36 46 460
3 65 36 46
3 69 65 46
3 689 40 429
3 428 40 429
3 794 795 488
3 795 794 560
3 490 488 560
3 795 560 490
3 795 258 488
3 258 488 490
3 258 490 257
3 795 258 257
3 795 490 257
3 795 794 258
3 46 429 568
3 44 46 429
3 568 45 44
3 46 44 45
3 568 45 46
3 252 429 44
3 689 429 251
3 251 252 40
3 251 429 40
3 429 252 40
3 568 252 251
3 44 252 568
3 670 395 669
3 460 395 670
3 689 251 40
3 44 429 40
3 43 44 40
3 43 40 252
3 44 43 252
3 423 27 421
3 28 793 27
3 423 28 27
3 429 568 798
3 254 798 568
3 798 347 332
3 372 764 373
3 560 373 372
3 254 797 255
3 568 254 255
3 680 165 679
3 617 679 680
3 680 317 617
3 317 165 617
3 680 317 165
3 670 333 797
3 333 675 670
3 67 161 66
3 69 67 66
3 46 161 69
3 46 45 161
3 69 46 45
3 45 161 67
3 69 45 67
3 797 395 567
3 256 797 395
3 256 567 395
3 255 797 256
3 255 256 567
3 45 568 567
3 46 567 45
3 255 567 568
3 671 335 394
3 669 671 335
3 487 762 763
3 752 559 487
3 762 559 752
3 762 487 559
3 752 762 763
3 487 763 752
3 614 570 679
3 616 570 614
3 616 617 614
3 334 670 669
3 334 670 395
3 754 621 374
3 375 374 754
3 628 621 754
3 621 620 374
3 628 621 620
3 795 257 395
3 560 395 795
3 560 490 395
3 490 257 395
3 46 161 460
3 161 460 69
3 323 322 681
3 577 681 246
3 323 681 246
3 246 577 245
3 246 245 323
3 395 372 491
3 560 372 395
3 562 560 491
3 562 395 491
3 562 490 395
3 560 562 490
3 46 567 161
3 567 161 45
3 256 395 562
3 256 395 257
3 490 256 257
3 562 256 490
3 627 375 619
3 619 374 616
3 620 616 374
3 619 620 616
3 375 774 619
3 374 375 774
3 627 620 619
3 797 334 395
3 333 334 797
3 333 670 334
3 30 413 31
3 391 30 31
3 391 30 427
3 413 391 427
3 30 427 413
3 463 465 170
3 171 463 170
3 171 170 669
3 670 171 669
3 463 462 465
3 27 557 26
3 26 27 783
3 27 262 557
3 27 262 783
3 261 262 557
3 262 261 783
3 336 393 394
3 336 394 335
3 671 336 335
3 377 378 770
3 641 633 640
3 378 379 768
3 640 379 768
3 378 379 640
3 770 378 768
3 377 378 641
3 425 28 423
3 781 425 29
3 29 781 28
3 425 29 28
3 794 560 394
3 795 394 560
3 795 394 794
3 20 756 19
3 553 19 20
3 553 20 756
3 205 19 553
3 205 19 756
3 206 553 205
3 206 205 756
3 206 553 756
3 795 395 394
3 560 395 394
3 785 393 392
3 393 392 415
3 415 785 393
3 24 785 392
3 785 415 24
3 628 629 392
3 629 621 392
3 621 415 392
3 628 392 413
3 628 413 415
3 621 628 415
3 629 621 628
3 808 391 392
3 806 391 808
3 622 621 392
3 629 622 621
3 558 484 556
3 558 417 556
3 558 484 417
3 417 419 556
3 788 759 792
3 390 759 788
3 389 377 390
3 759 378 389
3 377 759 378
3 377 389 378
3 390 377 759
3 792 759 389
3 389 792 390
3 788 390 792
3 262 421 557
3 557 421 419
3 554 557 555
3 262 555 557
3 787 417 786
3 785 417 787
3 787 785 786
3 25 417 785
3 25 786 417
3 785 25 786
3 783 417 25
3 783 419 417
3 783 786 25
3 260 484 486
3 786 486 260
3 558 486 484
3 786 484 558
3 259 260 486
3 259 784 260
3 786 260 784
3 372 491 561
3 562 491 372
3 562 491 561
3 372 561 562
3 421 26 419
3 421 27 26
3 419 25 417
3 26 783 25
3 419 26 25
3 417 24 415
3 415 414 787
3 417 415 414
3 417 787 414
3 785 415 787
3 25 785 24
3 417 25 24
3 21 414 22
3 754 21 22
3 754 21 416
3 416 414 754
3 21 416 414
3 558 416 556
3 419 417 416
3 787 416 752
3 485 416 558
3 485 757 416
3 558 757 485
3 21 416 757
3 752 416 21
3 21 752 757
3 757 558 752
3 787 752 558
3 787 417 416
3 753 759 377
3 759 426 753
3 427 426 759
3 413 635 427
3 391 782 635
3 391 782 30
3 390 635 782
3 390 377 635
3 427 759 788
3 416 414 752
3 21 754 752
3 758 483 550
3 750 483 758
3 750 480 483
3 750 758 480
3 480 483 550
3 758 550 480
3 418 416 485
3 757 416 418
3 418 553 756
3 553 206 485
3 20 757 418
3 20 757 756
3 418 756 20
3 553 20 418
3 489 208 209
3 763 762 209
3 764 209 489
3 764 209 762
3 560 764 489
3 762 489 763
3 763 209 208
3 763 489 208
3 763 487 208
3 487 208 489
3 487 489 559
3 763 559 487
3 762 559 763
3 621 620 373
3 373 616 374
3 620 617 373
3 620 617 616
3 761 544 379
3 761 200 544
3 761 200 379
3 199 200 544
3 539 199 544
3 199 379 539
3 200 199 379
3 487 757 207
3 487 558 757
3 487 558 485
3 487 485 207
3 487 757 763
3 207 757 763
3 487 207 208
3 763 208 207
3 558 752 763
3 757 752 763
3 558 763 487
3 751 424 483
3 751 422 424
3 18 422 751
3 18 755 751
3 205 420 19
3 205 755 19
3 204 551 483
3 416 20 418
3 21 757 20
3 416 21 20
3 491 489 210
3 209 764 210
3 209 210 489
3 489 491 560
3 620 373 166
3 620 621 166
3 619 776 616
3 373 616 776
3 558 556 485
3 391 390 782
3 391 806 390
3 637 629 636
3 620 165 166
3 620 617 165
3 620 166 617
3 166 317 617
3 317 166 165
3 464 165 166
3 131 278 678
3 533 276 678
3 277 533 276
3 277 276 678
3 277 678 278
3 533 277 278
3 562 491 164
3 372 164 491
3 372 560 394
3 787 374 393
3 787 394 393
3 762 374 373
3 752 374 787
3 752 374 762
3 787 762 752
3 416 417 414
3 621 415 374
3 801 392 393
3 799 801 393
3 785 787 393
3 415 414 374
3 628 621 414
3 621 415 414
3 602 679 680
3 317 602 617
3 316 317 680
3 316 602 680
3 316 602 317
3 602 614 679
3 602 614 617
3 321 680 679
3 321 316 680
3 322 321 679
3 614 679 322
3 573 576 577
3 573 574 570
3 614 570 573
3 573 576 614
3 246 681 247
3 577 246 247
3 570 571 563
3 561 491 211
3 372 211 561
3 210 372 211
3 210 211 491
3 213 212 780
3 492 212 780
3 213 492 212
3 372 373 778
3 778 373 776
3 778 616 776
3 566 256 562
3 558 487 559
3 558 559 486
3 787 784 794
3 830 835 831
3 830 778 831
3 778 835 831
3 830 835 778
3 570 569 830
3 573 570 569
3 614 570 830
3 834 830 829
3 829 830 818
3 613 614 830
3 575 507 576
3 573 572 576
3 492 778 780
3 570 778 492
3 570 563 492
3 212 780 563
3 563 212 492
3 820 775 382
3 381 777 775
3 820 777 775
3 381 777 820
3 381 775 382
3 820 381 382
3 306 775 382
3 777 615 820
3 306 773 775
3 618 773 306
3 618 615 775
3 306 618 615
3 306 615 307
3 820 306 307
3 306 820 382
3 561 211 564
3 780 831 779
3 778 831 780
3 778 779 831
3 780 778 779
3 830 831 819
3 616 831 615
3 616 778 831
3 780 835 778
3 492 570 830
3 614 613 616
3 615 619 776
3 619 616 615
3 831 381 820
3 381 777 831
3 778 831 777
3 214 779 380
3 835 214 380
3 835 779 380
3 214 213 779
3 219 835 218
3 492 219 218
3 569 492 218
3 492 835 569
3 570 492 569
3 563 780 211
3 372 780 211
3 211 780 212
3 563 211 212
3 831 835 380
3 831 779 380
3 424 16 426
3 753 426 424
3 17 753 16
3 424 17 16
3 619 626 774
3 627 619 626
3 618 626 772
3 619 618 626
3 773 618 772
3 774 772 773
3 775 776 774
3 776 619 775
3 779 778 777
3 380 779 777
3 381 380 777
3 381 831 380
3 301 642 302
3 811 301 302
3 812 301 811
3 301 812 816
3 383 771 305
3 384 383 771
3 305 771 384
3 383 384 305
3 773 382 775
3 383 382 773
3 306 773 383
3 383 306 382
3 626 772 633
3 772 625 633
3 625 633 626
3 772 626 625
3 772 633 376
3 634 626 633
3 634 376 633
3 376 377 770
3 772 376 770
3 769 772 770
3 633 770 769
3 625 633 769
3 769 771 772
3 625 771 772
3 619 615 618
3 815 811 814
3 22 412 23
3 375 22 23
3 22 414 412
3 424 427 425
3 788 425 424
3 424 427 788
3 625 304 632
3 769 632 625
3 304 632 385
3 769 385 632
3 304 384 385
3 769 385 384
3 425 422 424
3 788 759 424
3 550 759 788
3 758 759 550
3 751 758 17
3 751 424 17
3 482 789 425
3 789 29 425
3 789 29 788
3 789 781 29
3 389 635 390
3 389 635 378
3 378 377 635
3 635 153 154
3 455 153 154
3 389 154 635
3 635 154 378
3 422 17 424
3 18 751 17
3 422 18 17
3 156 539 155
3 538 379 155
3 199 379 538
3 538 199 539
3 155 539 538
3 750 550 759
3 550 480 759
3 750 758 550
3 758 750 759
3 203 483 750
3 203 483 480
3 203 480 202
3 750 203 202
3 203 750 758
3 415 412 414
3 628 413 412
3 413 412 415
3 639 827 826
3 813 827 639
3 813 827 826
3 813 826 814
3 639 303 813
3 814 302 303
3 639 303 302
3 811 302 814
3 814 303 813
3 19 418 20
3 19 420 418
3 427 412 413
3 427 426 412
3 427 426 788
3 426 424 788
3 412 426 16
3 16 376 23
3 412 16 23
3 618 383 305
3 306 383 305
3 306 305 618
3 618 773 383
3 625 632 633
3 792 378 389
3 792 549 760
3 759 549 792
3 378 759 760
3 378 792 760
3 761 379 548
3 761 379 378
3 625 618 771
3 383 773 771
3 618 773 771
3 625 618 305
3 618 625 626
3 773 772 771
3 132 131 676
3 530 676 529
3 537 534 191
3 824 191 537
3 537 766 198
3 537 197 766
3 197 766 198
3 537 197 198
3 639 765 827
3 639 813 765
3 386 765 813
3 386 765 387
3 827 386 387
3 827 765 387
3 813 386 827
3 546 540 545
3 548 478 545
3 534 531 192
3 534 826 823
3 531 534 535
3 826 534 535
3 275 536 274
3 275 274 678
3 536 678 275
3 537 191 197
3 537 824 197
3 196 197 824
3 196 197 191
3 824 196 191
3 386 767 765
3 813 768 765
3 813 767 768
3 767 768 765
3 386 767 813
3 640 643 155
3 643 601 155
3 601 640 155
3 643 601 640
3 676 155 677
3 768 379 766
3 640 766 768
3 535 766 640
3 538 766 535
3 198 766 538
3 198 766 379
3 538 379 198
3 535 379 538
3 535 155 379
3 536 155 535
3 536 156 155
3 676 156 155
3 535 676 536
3 643 676 535
3 535 536 532
3 539 535 538
3 535 155 539
3 533 275 276
3 678 276 275
3 533 536 275
3 530 529 533
3 536 535 539
3 157 536 539
3 536 535 156
3 155 156 535
3 196 824 387
3 197 196 387
3 765 197 387
3 765 824 387
3 824 766 197
3 765 766 824
3 765 766 197
3 200 547 544
3 761 200 547
3 548 544 547
3 548 761 547
3 761 760 201
3 200 761 201
3 200 201 547
3 548 760 547
3 548 547 549
3 378 549 548
3 760 549 378
3 792 549 389
3 378 389 549
3 479 548 549
3 389 790 792
3 792 549 788
3 550 788 549
3 792 788 550
3 481 549 550
3 481 792 550
3 792 791 788
3 480 550 549
3 639 632 303
3 632 303 813
3 639 768 765
3 385 386 813
3 386 385 767
3 304 385 813
3 632 813 304
3 769 767 385
3 304 813 303
3 632 304 303
3 199 538 198
3 379 199 198
3 765 768 766
3 765 827 766
3 827 639 766
3 639 768 766
3 639 827 768
3 765 768 827
3 534 766 538
3 537 766 534
3 534 537 538
3 538 537 198
3 824 827 387
3 827 765 824
3 535 534 538
3 826 766 640
3 827 766 826
3 826 827 823
3 424 426 427
