1031  3  0  0
   0    0  0  0
   1    0  0  1
   2    0  1  0
   3    0  1  1
   4    0  0  0.31860157857808041
   5    0  1  0.26231531769682742
   6    0  0.48585338649624638  0.80893250968661934
   7    0  0.7684637577432758  0.32449279008768989
   8    0  0.51183386250391327  0.1544612220660645
   9    0  0.16350774412208305  0.88763620419230826
  10    0  0  0.44711607460928748
  11    0  0.77003314950001123  0.18985440889291322
  12    0  0.62824488924021493  0.3135715526569644
  13    0  0.58350834779195815  0.85606498460297242
  14    0  0.6535585979888775  0
  15    0  0.44467523165557565  0.72780386675119546
  16    0  0.57903436123004703  0.47591841160303405
  17    0  0.14545616234637712  0.49583600654799487
  18    0  0.80110018775713143  0.47181059339159198
  19    0  0.16396501595420235  0.24342948815423926
  20    0  0.61976448895100866  0.58421231562562892
  21    0  0.18954678246901396  0.79033971153426519
  22    0  1  0.61426403511725391
  23    0  0.85078514066159738  0.88537778056584326
  24    0  0.28119576246152744  0.73010357623852351
  25    0  0.7217105088875293  1
  26    0  0.38074698515696159  0
  27    0  0.56984014416729023  0.37775660104768322
  28    0  0.7317168371463717  0.59757115467676658
  29    0  0.8200105012259673  0.1170794230032796
  30    0  0.89662011031390931  1
  31    0  0.44790115117077944  0.32773629387293723
  32    0  1  0.38881455787523955
  33    0  0.20347700844793171  0.12158072517135768
  34    0  0  0.71172591147485076
  35    0  0.40119583057024422  0.4547029166504501
  36    0  0.88593383567667683  0.50353363746395252
  37    0  0.35431937380347883  0.66871079879725237
  38    0  0.32460322292792787  0.31490702532573878
  39    0  0.83041410237363389  0.65177049358699723
  40    0  0.10285255051683934  0.80915140632229632
  41    0  0.67065309896685843  0.49448160370013389
  42    0  0.7013908739423601  0
  43    0  0.82467216638806307  0.7637658615321109
  44    0  0.26729272848141761  0.19290520535325914
  45    0  0.3200652227552877  0.88197253127154052
  46    0  0.54029509032807355  1
  47    0  1  0.14422668491744151
  48    0  0.42190358356940016  0.87265616960394177
  49    0  0.54272405393532386  0
  50    0  1  0.89904821905941079
  51    0  1  0.48293254825625198
  52    0  0.140723329515624  0.41123531557936577
  53    0  0  0.16757420892962721
  54    0  0.5314872971340614  0.65952382402039877
  55    0  0.81581087217732429  0.25708776206957984
  56    0  1  0.25875859625154873
  57    0  0.55943082643586861  0.25334921356649492
  58    0  1  0.78637643353422326
  59    0  0  0.28897457591402992
  60    0  0.43754112557955283  0.17576650957053516
  61    0  0.74302351767169317  0.82840819520498865
  62    0  0.21244908965000225  1
  63    0  0.7990787175989762  0
  64    0  0.14990760682806226  0.65311045919507538
  65    0  0.39960102305670325  0.25892249668128453
  66    0  0.30214862200705506  0.57078393658906912
  67    0  0.47617650415228457  0.41693797868896793
  68    0  0.31294542650438967  0.44077720194110281
  69    0  0.47823309224419114  0
  70    0  0.63890007250935765  0.75469988851905134
  71    0  0.48327276329744379  0.530800622528108
  72    0  0.62063147530809804  0.18294010232950136
  73    0  0.18749813313573088  0.56977707472492756
  74    0  0.79986714456881447  1
  75    0  0.75479976909792335  0.41369978868007573
  76    0  0.21529300434359136  0.7093510346443167
  77    0  0.66221450034677787  0.40606802883092868
  78    0  0.3449963063193221  0.79876831318590658
  79    0  0.69078388103491128  0.2504365120075922
  80    0  0.62637908651908536  0.65128164427211332
  81    0  0.82189520725379628  0.55615598249641862
  82    0  1  0.56851899770406389
  83    0  0  0.53958910651131464
  84    0  0.75328106483960378  0.71520406128542535
  85    0  0  0.88472056388870179
  86    0  0.65306156916953517  0.84089960311273071
  87    0  0.36675784943936585  1
  88    0  0.3583905194796107  0.1459558728077138
  89    0  0.23752456042082096  0.30226908937890823
  90    0  0.55410351517686618  0.81394660231492932
  91    0  0.10637968295400013  0
  92    0  0.14605695411842445  0.75928746483905152
  93    0  0.48184465964149104  1
  94    0  0.27456529488931014  0
  95    0  0.55956839323109431  0.72934997691007097
  96    0  0.40458446586937308  0.56766472425939751
  97    0  0.24101750562685526  0.39226689173566193
  98    0  0.88135688876264284  0.37765144236135073
  99    0  0.32279785270069894  0.23169962935626659
 100    0  0  0.45168027362866658
 101    0  0.57239857512516679  1
 102    0  0.86453353647978304  0.70081265372515633
 103    0  0.54046307303289332  0.1407418818924126
 104    0  0.6619265115443429  1
 105    0  0.75324814267639351  0.11525936715623966
 106    0  1  0.21360939330029274
 107    0  0.72873567179795684  0.4990947460753799
 108    0  0.45346563254414118  0.75709533034970156
 109    0  0.66293257404148254  0.11105434393453022
 110    0  0.37016734328463752  0.72511162516532057
 111    0  0.35935039096660126  0.37526867015523097
 112    0  0.25987173511206246  0.86852459360630274
 113    0  0.29769356919153211  0.67669892153659994
 114    0  0.17020750389464576  0.49632987793071176
 115    0  0.27696351555233467  0.76157899463409984
 116    0  1  0.72990305950111445
 117    0.10153004374942715  0.88680674695768558  0.20792923699150631
 118    0.10180065759328003  0.58702691107951832  0
 119    0.10221814958786239  0.78177360568792387  0.62729328550663044
 120    0.10383051282152157  1  0
 121    0.10695536348205126  0.36666356935595812  0
 122    0.10818393572893907  0.88022161041067315  1
 123    0.10835666332000803  0.4382501729019434  0.32049836407107513
 124    0.10849380519571844  0.13698184344348469  1
 125    0.1087416376555335  0.5852386320477867  0.540324538144488
 126    0.10901625052303221  1  0.29893249419722817
 127    0.11040920164266442  0  0.74644411091898366
 128    0.11176837921121928  0.22220822047333771  0.10641198922019213
 129    0.11200020099360104  1  0.61690703570006389
 130    0.1136953615761136  1  0.48676332552290363
 131    0.1209127840994135  0.77559922141075388  0.86169269036558327
 132    0.12116737916878012  0  0.6014087454058844
 133    0.12333751154790937  0.17521503955282575  0.24184093887707869
 134    0.12371879361202885  0.73779099852004515  0.21414083653878768
 135    0.12415078558577776  0  0.36404297697662835
 136    0.12500163190353131  0.13223811441091329  0.15944134200467125
 137    0.12550991779685439  0.41873708226856476  0.83476029832780829
 138    0.12556242115011332  0  0.20499647513224273
 139    0.12727762421536948  0.43098294331530973  0.14819501305686775
 140    0.13058090357717447  0.84743930176045634  0.45139352184988368
 141    0.13104211577511277  1  0.86288126704726942
 142    0.13123608600523598  0.27938897378614974  1
 143    0.13142969388573539  0.26308233963795025  0.56434257763269657
 144    0.13186294913386681  0.34392906584432958  0.49409731887812203
 145    0.13198439349538266  0.15942259184646385  0.86895651307162924
 146    0.13262859582448513  1  0.40008897607879201
 147    0.13302894726545406  0.7890052096597775  0.30030037876695848
 148    0.13332734934862875  0.33680048450686734  0.85187904705441198
 149    0.13338927005159873  0.55170671159358642  0.4224763416040665
 150    0.13598377000470813  0.50973103034931744  0.66744301821982943
 151    0.13727486187938728  0.50452838316646031  0.56434153075002824
 152    0.13836784813978914  0.5558698598816344  0.30930176006908117
 153    0.13853799088987828  0.35222712447933752  1
 154    0.13868756898772772  0  1
 155    0.13898147096337884  0.69441808086635815  0.39046664527723035
 156    0.13980809762556301  1  0
 157    0.14279918893062543  0.69705658507460577  0.30347396120345677
 158    0.14288087502756838  0  0.28782159024895854
 159    0.14299986559542344  0.6045860151796667  0
 160    0.14536973382190843  0.19918682545889224  0.71516416263363014
 161    0.14573388034810095  0.63565722024752191  0.62065040622846013
 162    0.14712478839609608  0.41220658527056986  0.65506449723600191
 163    0.14803693627868103  0.78052021839298358  0
 164    0.14924666870392303  0  0.66580758429308795
 165    0.15010136940338792  0.68372891071208086  0.83298819076334352
 166    0.15111601909658517  0.86641910053896909  0
 167    0.15262522932974537  0.71238856044264753  1
 168    0.15349353809892863  0.22196800546132509  0
 169    0.15528870980422693  0.70344748901981546  0.55839226210793824
 170    0.15597608042670913  0.15416873733121667  0.38456025284197237
 171    0.15753519563562535  0.27277967660607738  0.18490177929550949
 172    0.15958480314078921  0.89138780846539734  0.81948242530074777
 173    0.15996190152780737  0.84087964990658259  0.74693995461577101
 174    0.1613107589928498  0.81679529594224043  0.54966092104140674
 175    0.16152934130349622  0.53529260578457849  0.20350972383759075
 176    0.16172234924167167  0  0.82744556335538777
 177    0.16266515468014497  0.18457333895214198  0.62973390302951038
 178    0.16407123420951761  0.20782422884968776  0.31293973204721082
 179    0.16492719313442208  0.42528808708315241  1
 180    0.16511887904739109  0.55879688240371228  1
 181    0.16602502210228459  0.46919529536889809  0.45307032472845521
 182    0.16627580651630747  0  0
 183    0.16667418964201855  0.48058657196827936  0
 184    0.16676253822007017  0.46504335426421223  0.26011026242443175
 185    0.16701456010432186  0.72664509792887944  0.74628499282967364
 186    0.16725913575080914  0.13448485451674236  0.79443316738898218
 187    0.16788474847452051  0.58608331134617075  0.85608917325641687
 188    0.16839239488102165  1  0.26450571923503452
 189    0.16846965268032585  0.60056135700939239  0.71981239989558587
 190    0.16895550213617189  0.23967723098373733  0.40119830630853437
 191    0.16903489402484412  0.3456698918691517  0.58062375182939341
 192    0.17053559341983737  0.37880540610150892  0.22213220568802658
 193    0.17099178162753925  0  0.89283569984780731
 194    0.17118787145173953  0.64400527935183183  0.47857092281363822
 195    0.17269569884035044  0.61836358109114964  0.37305767427846936
 196    0.17480995219680348  0.10465493365904727  0.5877866358485283
 197    0.17682018790061749  0.38376506940108424  0.39210558791409666
 198    0.17794255381178847  0.85086076607925454  0.37605820531341161
 199    0.17803438735229904  0.64100517293390513  0.20838427562960232
 200    0.17989604023884787  0.48535678083178846  0.35642402217797148
 201    0.18024570255773958  0.83545977330705767  1
 202    0.18388502363607365  1  0.76369833571809542
 203    0.18424080478858004  0.64419095644693114  1
 204    0.18632512372546844  0.10205997928234531  0.44940732355701518
 205    0.19230936983437771  0  0
 206    0.19409060009596149  0.50776848062762614  1
 207    0.19564322073442411  0.29731560780703126  0.31009389392225911
 208    0.19644639890445784  0  0.34500200561500738
 209    0.19680484452926078  1  0.6255858602412866
 210    0.19712530595067815  0.46151083036130669  0.79568163973549333
 211    0.19773622660900245  0.25885113156287126  0.75459710820736681
 212    0.19792492044572435  0  0.55129768470188423
 213    0.19928651414014326  0.31431214658517448  0
 214    0.20117612339924537  0.78063635728623981  0.15910661849793589
 215    0.20198060679115268  1  0
 216    0.20456675359579476  1  0.63147057986732558
 217    0.20509593803891227  1  0.47024004441665612
 218    0.20675996571863034  0.83940739090431493  0.28500144892733403
 219    0.2083575874322203  0  0.74280570606322271
 220    0.20843330803382284  0.67045044944603416  0
 221    0.20934741570166321  0.38809451549016288  0.73828201439870922
 222    0.21014118463294651  0.80375259585252046  0.6641772684089825
 223    0.21133098142403786  0.46819401156875196  0.60847490588435937
 224    0.21186459416430653  0  1
 225    0.21274799624522694  0.18423153853276386  1
 226    0.21327130401826827  0.7750962473960179  0.86842690059951377
 227    0.21513973392103491  1  0.38127018657974421
 228    0.21599191379122318  0.54484745879037577  0.56528124412541914
 229    0.21616164171161384  1  0.14411519644104945
 230    0.21653810855861913  0  0.21476989320761056
 231    0.21680067571469347  0.25034138737557332  0.58522916044744511
 232    0.21812698499013  0.14352522350406555  0.52173896524831587
 233    0.21845214801105428  1  1
 234    0.21903578398589463  0.41065321673710764  1
 235    0.2197890651713017  0.75612043273805662  0.58061713386638836
 236    0.222256619753532  0.6487120504098286  0
 237    0.22276586758135458  0.7793621328228203  0.78419090859338503
 238    0.22318851489115668  1  0.5246875832797695
 239    0.22339268778357546  0.64252107041720352  1
 240    0.22450553263068054  1  0.87934791824304614
 241    0.22482282513160429  0.74603882680037381  0.41993111426923202
 242    0.22491359131640798  0.7072738724905786  0.66544650316457377
 243    0.22752580082718174  0  0.69293515881081191
 244    0.22921903009563152  0.41696345499011339  0
 245    0.22930862674740371  1  0.77755113394683673
 246    0.22989525007367839  0.38290671175949759  0.3240816122081257
 247    0.23023067917969481  0.88636342921974032  0
 248    0.23102587625916696  0.7583928213675325  1
 249    0.23487622468109109  0.17327129790709944  0.76062020750086712
 250    0.23541644491705727  0.12679362668180771  0.87409225934946466
 251    0.23664655105509108  0.12050194738446726  0.28317834571164591
 252    0.23737590415170717  0.23316779868966575  0.45509111075689662
 253    0.23893012608938996  0.22868108745548379  0
 254    0.23904081748142783  0.69492408351373258  0.32913710127922902
 255    0.23909083331145559  0.68183063489873741  0.76702747473411581
 256    0.23930768079766768  0.27400348767034011  0.87686315224282507
 257    0.24207225077324129  0.47814894057790736  0.69974576573491121
 258    0.24256445085779271  0.29715623809988334  1
 259    0.24475089504619252  0.47223914353376634  0.21934163464213702
 260    0.24568662356591958  0.45337877019949624  0
 261    0.24671315090262108  0.5010639905605675  0.49344334478653934
 262    0.24747836175904292  0.42420710103625336  0.53993119366257525
 263    0.24847212006969419  0.546661654562137  0
 264    0.24853808738923336  0.88728920399855715  0.87028406519578461
 265    0.24867154911071679  0.31726091019756369  0.69027876286355627
 266    0.24939164653412724  0.58345617821192486  1
 267    0.25060846574351925  0.60514630187308405  0.51737143369068406
 268    0.25076061573016489  0.66632683151847205  0.57717655646388455
 269    0.25423970496997444  1  0.21154908724511057
 270    0.25429651268428038  1  0.22333540143457481
 271    0.25432446718920776  0.3198503240249298  0.15901468256214457
 272    0.25582024550730592  0.76617914040502899  0.27495593236914651
 273    0.25626385699728582  0.43011633625911072  0.44852050172636521
 274    0.25650071170176647  0.20229551617117428  0.30863351867533018
 275    0.25685138383137407  0.60114310084840206  0.19142349740712855
 276    0.25733162876936311  0.51025455017389365  0.11646145752274079
 277    0.25774108847352617  1  0.70554483454375083
 278    0.25844000343511936  0.81593851669476569  0.51080739486327009
 279    0.25852205123375116  0.17637004739908119  0.60457611339192152
 280    0.25860198404609214  0.14033298175927861  0
 281    0.25937134472154644  0.58047641806395622  0.32373607190343384
 282    0.26087900656396545  0.22747409532513846  0.18519366424639727
 283    0.26212810983154372  0.32137088169661798  0.55560065667572567
 284    0.26267381929167166  0.46860311760861617  0.34661034431477467
 285    0.26298645236379314  0.59187992920548704  0.66370061140957748
 286    0.26377019881928909  0.85357779024527924  0.72715354903268814
 287    0.26412888883040236  0.70638915855065898  0.86360458483875924
 288    0.26431285313698161  0.5409758767317483  0.77021831448201838
 289    0.26535958786774799  0  0.37165616616075292
 290    0.26597359233633705  0.17483957224663355  0.39459723298304894
 291    0.26673556923447156  1  0.30425549046273542
 292    0.26929810697012435  0.34664100052953672  0.47397310677469112
 293    0.27103840518432654  0  0.11854326350463068
 294    0.2726730507824453  0  0.86088692625250318
 295    0.27300347695128457  0.70383346531956714  0.49205359535457105
 296    0.27324088468751212  0  0.418839840129204
 297    0.27384312839113012  0  0.1738596859154824
 298    0.27410690132278215  0.33306610717816099  0.77712729758818
 299    0.27478924608817068  1  0.40489700301867476
 300    0.27605594382265436  0.54527262979740598  0.89450005737404137
 301    0.27610345093124589  0  0.46746893850854315
 302    0.27715203653910825  0.29889056739106196  0
 303    0.27780522705811905  0.40689708303450656  0.82391830520876563
 304    0.27960065205871509  0.5898161067628872  0.43698179180454277
 305    0.28223772459954766  0.38875939847880059  0.2533862276965908
 306    0.28294685741601217  0.83402108912035566  0.39994004226981661
 307    0.28309640038725459  0.21842777943691721  0.67322799220117646
 308    0.28454817099028351  0  0.63801022385206052
 309    0.28507775406214625  0  1
 310    0.28593517283685271  0.76936490413063729  1
 311    0.28609790875267838  0.77118854870171138  0.15268711794991546
 312    0.28612293923538845  0.46642543739151493  1
 313    0.28661236476374186  0.66352725346078356  1
 314    0.28705660714349734  0.14017783385030777  0
 315    0.28789392491049581  0.11436398925669038  0.79220853754311304
 316    0.28813466260329895  0.14430566389762961  1
 317    0.2897280513348125  0  0.5492460614793393
 318    0.29043023759015718  0.34390239163110792  0.89584966564566837
 319    0.29153194922886488  0.28606880816371799  0.24246073724282299
 320    0.29171379909635514  0.79018878040956053  0
 321    0.29315067265347594  1  0
 322    0.29397460426652389  0.86854040289862589  0.14539269249734149
 323    0.2952284420498969  0  0.74514026262369282
 324    0.29531150928681904  0.67657218980650646  0.21806850898407837
 325    0.29534111180393835  1  0.56782238079602587
 326    0.29809676363047277  1  1
 327    0.30438314072144956  0.54902631535778013  0.5609440045702383
 328    0.30589362406013704  1  0.82752621739492649
 329    0.30678420411125717  0.77206577932068876  0.81301722564488033
 330    0.3084275703511199  0.79031969696186555  0.6575854430644531
 331    0.31044742582985585  0.39702643008047589  0.10096351361832979
 332    0.31122419128317502  0.65132735055807656  1
 333    0.31163940534756163  0.32454556329731082  0.38975834023015471
 334    0.31348569351001926  0  0.19921070804505078
 335    0.31435477634251729  0  0.29220255895019959
 336    0.31527473919649018  0.39852266060706026  0.62931156870870386
 337    0.31647001535463765  0.17430255125506613  0.73975096374456639
 338    0.31692550363266198  0.1776985374528687  0.88441347229794343
 339    0.3170893790297542  0.85149613350915554  0.58295644448985384
 340    0.31764797321428179  0.3823263007046841  1
 341    0.3204285525463505  0.6185011127105825  0.79935566913602663
 342    0.32259551418188409  0.51320991790972814  0.69313291593039739
 343    0.32303618515551819  0.23966766437222028  0.35174544627325777
 344    0.32514728013997274  0.40130227952443054  0.73539330883162901
 345    0.32528267734247318  0.20104374593725616  0.24271600091284457
 346    0.32621455053616305  0.78002131902663818  0.45986853942439004
 347    0.32860463110357441  0.57540105822047571  0.14549171777435729
 348    0.32876831450376626  0  0
 349    0.32949630264559149  1  0
 350    0.33035962779785194  1  0.4765254185848482
 351    0.3332496491669753  0.26722319934876149  0.78019318977435748
 352    0.33661431461887331  0.11839772070306744  0.51357819022745899
 353    0.33842799312208677  0  0
 354    0.33901586249239879  0.29178850014270402  1
 355    0.33934552571825288  0.88576412059084053  0.80182748133197534
 356    0.3395023870834315  0.78745147949571093  0.31409009024130968
 357    0.34079790598786597  0.29508240436678734  0.57661190585330202
 358    0.34101270637757813  0.88224727889896981  0.28633875349131183
 359    0.34102048431351079  1  0.48151389688408286
 360    0.34124414701895817  1  0.63358694375792801
 361    0.34297644205814831  0.48116291824703983  0.87105628594919371
 362    0.3440377229239685  0.60180256118591158  1
 363    0.34467992169171124  0.72093530095334257  0.56372171770674695
 364    0.34669388647754595  0.63183926317458627  0.51110712839598083
 365    0.34689335760314077  0.31027152069019132  0.13471997303916874
 366    0.34695617471881296  0.58677040551740511  0
 367    0.34973292410021839  0.14487600707071507  0.41429645596269388
 368    0.35029449081762576  1  0.37485988351883148
 369    0.35176661482401728  0.48474458542623261  0.77085367874336286
 370    0.35410541077270985  0.431334642920706  0.29986006012817906
 371    0.35649094840275647  0.64913582111099355  0.65184109647589761
 372    0.35682330486394365  0.40643435773467307  1
 373    0.35843078493851532  0.66555802273330145  0
 374    0.35865430487818367  1  1
 375    0.35867338972124135  0  0.36076860739480748
 376    0.35931691050427539  0.70194226008103222  0.34432733988770137
 377    0.35973125291058838  0.50801225295764119  0
 378    0.36029048540768172  0  1
 379    0.36080229050396162  0.69941298146293862  1
 380    0.36176963454276678  0.80918055177564885  0.89398971648990233
 381    0.36191138953683794  0.51709825081474159  0.32330608840376984
 382    0.36382091085405427  0.72411141355714004  0
 383    0.3641530488824421  0.59841398165955995  0.34797029030728127
 384    0.36546332548267457  0.3230167328675011  0
 385    0.36584534696420745  0.13682601500643166  0.82896358363038669
 386    0.3666079980112894  1  0.88305735182829259
 387    0.36707830197538016  0.81776085643227947  0.22369552143016153
 388    0.3679304137033001  0.44050534034879757  0.54406059933722462
 389    0.36834930244277403  0.70426121790109808  0.4573136340480749
 390    0.36899583886290388  0.25526714682320251  0.65689899501055571
 391    0.36939496320612564  0.67961278767778233  0.16932703408982494
 392    0.36999812078832589  0.3217868162106835  0.71716256985778326
 393    0.37014984946752733  0  0.66042566609159359
 394    0.37061313291844877  0.52771521002050026  0.5092181253264253
 395    0.37152923576758434  0.55791821678559661  1
 396    0.37162889136204891  0  0.50588331766026517
 397    0.37347344273931216  0.30654615127934376  0.24153904416836813
 398    0.37420692161277824  0.21372509878133339  0.54974561329929705
 399    0.37463073970306271  0.1632695921182144  1
 400    0.37547466886524045  1  0.3480103822578331
 401    0.37755837868373354  0.68043314854199066  0.73182555317333886
 402    0.37789115888425756  0.23398970189690324  0
 403    0.37889174371319972  1  0.17306821466720396
 404    0.37988592944984811  0.85431976329539305  1
 405    0.38177323136060781  1  0.78025736104189236
 406    0.38294863563044179  0.48900509156686417  0.18491100340262775
 407    0.38390610188924057  0.5735398482774029  0.68604585567133225
 408    0.38522625132590382  0.24209163019934798  0.17548305486709692
 409    0.38555812147916046  0.4730980786103901  0.44256491096067324
 410    0.38647024170820371  0.84400380462637381  0.525720276200903
 411    0.38754275291868667  0.14869777593707764  0.26601420865133113
 412    0.38908643781977176  0.16546324807963969  0.6496994803545032
 413    0.39143481590829465  0.3996635497200301  0
 414    0.39201846433183457  0.75512127689067676  0.64559037636174188
 415    0.39452075704891565  0.50429619167187678  0.6177884564631817
 416    0.39491285393266706  0.14011295147878827  0.17901539001756878
 417    0.39546115297853213  0.39764683746517387  0.78182735344371512
 418    0.39621422599041839  1  0.59271288227849384
 419    0.39649744135907339  1  0.10510818479754502
 420    0.40234742736294049  0.26076834605089561  0.85885742531186304
 421    0.40255525180598001  0  0.82936774535803404
 422    0.40379009646872233  0.77696076100656353  0.7445920716214236
 423    0.40790927920647968  0.65530806283238319  1
 424    0.40915320359481488  0.87279764948440075  0.16362140669726538
 425    0.4094178872651455  0  0.11071327870705723
 426    0.41099983268953427  0.64074259003613165  0
 427    0.41122042364928313  0.89404192531039817  0.69080754957738799
 428    0.41135529976966484  0.62362267228837931  0.27160643537293322
 429    0.4117727481592674  0.1486406452424468  0.48515408098488932
 430    0.41312030746412265  0.33498054524694953  1
 431    0.41597359396135769  0.26557388812510047  0.48486491840289414
 432    0.41645395911335858  1  0.43146127652010752
 433    0.41974132378867945  0.68735855807036961  0.54205067393825812
 434    0.42151145968130738  0.36212044693917733  0.15301262629308926
 435    0.42151390137755307  0  0.20039859614311084
 436    0.42161591167890977  0.60898879273147077  0.82241718031582156
 437    0.42217499838338973  0.18970343206626136  0.35376506833422922
 438    0.42246483036030924  0.76058931153453324  0
 439    0.42258257652176451  0.85869404237748426  0
 440    0.42258652653045814  0.74649217337458307  0.22120550364623243
 441    0.4228577075505911  1  1
 442    0.42344962712421746  0.72471149095865961  0.82994435111966625
 443    0.42486650195411457  0.88863363841156984  0.80000434239184548
 444    0.42516342047846956  0.59016015459191717  0.49278731083083149
 445    0.42527374356834802  0.48391396905610412  1
 446    0.42635655333254679  0  0.73797556501574069
 447    0.42678343401328467  1  0.50795760209051499
 448    0.4279681692833302  0  0.57097043141480486
 449    0.43180293949180021  0.10274428103530281  1
 450    0.43307661091855959  0.40201553403616191  0.68652980388494744
 451    0.43513034977701137  0.65437037223039174  0.4256559408045244
 452    0.43699538127636511  0.53355566354427886  0.27046223082455201
 453    0.43779656584833004  0  0.40929089259666374
 454    0.4379886906308943  0.88146704198437265  0.27803232607780115
 455    0.43898142926715156  0.87761046092429318  0.46623914913921344
 456    0.43939006855907975  0.10849425568561641  0
 457    0.43983406101158151  0  0.3521182884983432
 458    0.44094517412371009  0.38851890703510122  0.40187064693917202
 459    0.44126315593403503  0.16108926072787164  0.56902616111519921
 460    0.4419221906845836  0.51519816608457769  0.81405408285786063
 461    0.4439251385332087  0.65211272086196093  0.61873556627571069
 462    0.44589951256389593  0.62384814376424591  0.73994460376901006
 463    0.44688809001758939  0.4106077183256745  0.2379972747744839
 464    0.44732981675151812  0  0.45568169422657667
 465    0.44846165765016899  0.82518771339669827  0.40103746802684331
 466    0.4491473320753141  0.43606147783300114  0.84257271882719509
 467    0.44942894421014978  0.56902509696933545  0.15295458252413741
 468    0.45078827544051181  0.23925192134166257  0.12268546585841822
 469    0.45118509982383853  0.60429763197905872  0
 470    0.45142238019809044  0.81320341516569661  1
 471    0.45150542329351706  0.80837937046313779  0.85714258946541344
 472    0.45173979023075878  0.39371313088183824  0.52771713601183712
 473    0.45208175006860618  0.22083325255801556  1
 474    0.45232197554719933  1  0.29441207397415275
 475    0.4552407651857408  0.45166194524683079  0
 476    0.45635186210134215  0.34319998443221517  1
 477    0.45655901394901849  0  0.85268723428063176
 478    0.45656868809936901  0.71095621199113324  0.32417001756889507
 479    0.45677429264817193  0.72812419717528054  0.47459595560115164
 480    0.4568092129998968  1  0
 481    0.45723996384279603  0.65516240967175288  0.20862710626807873
 482    0.45791094735097504  0.33935867446260393  0
 483    0.45883491106756841  0.30290872734184754  0.57390125377714996
 484    0.45964253213217271  0.46607328310187379  0.13243093004566547
 485    0.46125972866909004  1  0.14389445006399285
 486    0.46281146557595909  0.20360975894276245  0.72867776588713062
 487    0.46377073807340502  0.28835763200072895  0.23908860475536292
 488    0.46573095109438944  0  0.26049060270876645
 489    0.46809409013272535  0.81078974470253529  0.6505150469884099
 490    0.46950073668690673  1  0.78512550023373739
 491    0.47057212786256708  0.62401336978007194  1
 492    0.47221742635837843  0.49921997026233295  0.49595864800305511
 493    0.47235854240856368  0.1095680953521028  0.66014907005953816
 494    0.47278062907614227  0  0
 495    0.47338039243115315  0.2661780355002914  0.66215059690740996
 496    0.47365963765613833  0.55997684001762171  0.68261992316300579
 497    0.47577475628609839  0.56737931879203718  0.3708019877879945
 498    0.4777014784068952  1  1
 499    0.48102537195256784  0.15621637011141348  0.233561622747717
 500    0.48109080654514336  0.56539397770263156  0.58528810824127031
 501    0.48152056453670256  0.77909705232254922  0.16102374038065759
 502    0.48152497597849309  0  0.68110473086496881
 503    0.48153585696406948  0.88867340763559322  0.35298486214369235
 504    0.48250413805087222  0.68920088062334772  0
 505    0.48405584540195673  0.80273771273816108  0.73539667842074663
 506    0.48736971458056166  0.22078335965349855  0.8345356537880394
 507    0.48749011090370181  0.25279848728781645  0.35686960277048652
 508    0.48760729817612569  0.45273802721081974  0.59599992841486593
 509    0.4906777984041199  0.69992198726523736  0.68291854069954372
 510    0.4915691901426944  0.88360158553037127  0.13357447645367221
 511    0.49197629655697328  0.22236350953394482  0
 512    0.49277430997424421  1  0.6538994556560539
 513    0.49379641140463532  0.36745358788471755  0.32924838394790312
 514    0.50002383169966236  0.43365046974073357  0.75962549898575893
 515    0.50212129072774647  0.35032350959666059  0.8765108638407757
 516    0.5036191690212698  1  0.45634982547085373
 517    0.50606114400045943  0.82054155992377775  0.28439153906560188
 518    0.50626148778377411  0.86491110277999583  0.8009942948804929
 519    0.50736958336915572  0.50476217483291874  1
 520    0.50751956303671486  0.14522658506770561  1
 521    0.50763480374812275  0.26242078442904054  1
 522    0.50808464099805906  0.78855069638658093  0.57413017856706305
 523    0.508110893120026  0.11613024282214179  0.53076563567950041
 524    0.5091835727015821  0.71311653243958273  1
 525    0.51114992735629095  0.17629151053929309  0.12444172768366031
 526    0.5111637925296193  0.12381178126018774  0.35123440894300578
 527    0.51148928103523461  0.68808779254627139  0.53731048999982844
 528    0.51264395759029202  0.16243563591328297  0.4439813550290943
 529    0.51505259826417438  0  0.53335863412399476
 530    0.51528063032400162  0.33566629338418003  0.19142084265518147
 531    0.51543884775910465  1  0.22732580093454496
 532    0.51552614676920427  0.29413656015578693  0.49102849689330336
 533    0.51571553842974849  0  1
 534    0.51580525305392111  0.81678584284976863  1
 535    0.51682742272527193  0.54055008960918782  0
 536    0.52126104897078807  0.63675552422444104  0.83722771830928389
 537    0.52181313298566334  0.66598926642764689  0.13163257213093177
 538    0.52242659713910633  0.33666286738582096  0.10743334703863008
 539    0.52260622704143267  0.29305181859596308  0.79617518237704499
 540    0.52415100386695002  0.66046790897368779  0.36175776380166508
 541    0.52438167292970561  1  0.71826809032705452
 542    0.52452160831865202  0.77621808333382014  0
 543    0.52481386227826399  0.12588614096395423  0
 544    0.52570282852280659  0.32952681380303878  0.40257458562458998
 545    0.52604080067287506  0.53235189694233698  0.30005252942112798
 546    0.52627864303723848  1  0.28270105615866303
 547    0.52645299526062383  1  0.37766250767930915
 548    0.52743309957018858  0.24580581896685194  0.57904073144260038
 549    0.52743974401870464  0  0.85120103374732503
 550    0.52950229360520573  0.4312340689643786  0
 551    0.52964914296912624  0.80091845071561041  0.4147846650978928
 552    0.52972628293672408  0.55974788800288  0.74839000563082103
 553    0.53038851464313885  0.5861739887332893  0.18226256840110042
 554    0.53053896055018623  0.44658325864927451  0.86231028255621223
 555    0.53157901875281199  0.4517195111245611  0.33237117585971149
 556    0.53294490598372257  0.44364764636850446  0.24427063737366184
 557    0.53303548276516644  1  0.82319014561474668
 558    0.53331277598374127  0.68311186780713928  0.76300647023438184
 559    0.53351692388425165  0.87379715509020572  0.60041864607219009
 560    0.5360090757331778  0.51219524720947152  0.42108080090723243
 561    0.53634184806755958  0  0.78123328127781666
 562    0.53678803299876221  0.85486697032382308  1
 563    0.53762077804489361  0  0.14904821317202713
 564    0.53824112536131363  0.47740920866596082  0.66362630523418142
 565    0.53907507540467026  1  0.57784429667248594
 566    0.53919085582252202  0.84094082939199477  0
 567    0.53941907312576121  0.60427402643710681  0.51024121189021909
 568    0.54003614567361402  0.24782899286476645  0.23011155893234547
 569    0.54668698728313081  0  0.40698022609105367
 570    0.54801502717905171  1  0
 571    0.54922260983425741  0.3743324749006946  0
 572    0.55090220948487323  0  0
 573    0.55205616643925026  0.69382094744331613  0.62440149805953715
 574    0.5522450182901123  0  0.73638894183044823
 575    0.55275889259857214  0.76450124382545315  0.80173818870610913
 576    0.55470712099780428  0.30504019230382345  0.65946439499319065
 577    0.55602271596782815  0.62978506402464896  0
 578    0.55640502218845533  0  0.63713465057301477
 579    0.55661541276889726  0.64561901798063503  0.25425792737718139
 580    0.55683187582937033  0.49113218411521087  0.51144007771502042
 581    0.55735182694782226  0.50709807656114314  0.14566000951257915
 582    0.5588754625229051  0.7331203093764187  0.23706531302223965
 583    0.56186720895006814  0  0.20727884219841958
 584    0.56188521848624151  0.76873966055029141  0.32409519880012172
 585    0.56263622215185105  1  1
 586    0.56334640556398508  0.54065258123588689  0.84117984278255886
 587    0.56437022766068623  0.40249681497912199  0.57906045592081934
 588    0.56538844429205937  1  1
 589    0.56751855297566345  0.79854114047893621  0.70451593819065206
 590    0.56753047011188318  0.36891874460255414  0.470503631991956
 591    0.56775992918768803  0.8772936593888585  0.4756052850839349
 592    0.5684788517419973  0.14402545505283115  0.68069870270039301
 593    0.56930569206234494  0.41746060842097898  1
 594    0.56986483864909976  0.83783516743252728  0.20831370715583758
 595    0.5715119929158935  0.10978813806315163  0.22895604620005486
 596    0.57438202206392697  0.71037688158157886  0.45925345684701729
 597    0.5747425605472356  0.1838365618031795  0.7851382411051393
 598    0.57661378379534112  0.19370881051287681  0.89615570726324312
 599    0.57696693561622336  0.59253467948915262  0.63575794785082906
 600    0.58241378013856604  0.23195352737638189  0.48765495000059889
 601    0.58244023550487867  0.10134948096727733  0.4584731040871694
 602    0.58257407581290932  1  0.44841989964294909
 603    0.58616055033687664  0.28202521055840546  0.73439702595980239
 604    0.58621452110604755  1  0.27679101166236991
 605    0.58641810641713665  0.44225302593079524  0.79865401896174149
 606    0.58733826799059008  0  0.32438773686459216
 607    0.58765614001260502  0.85254922078109052  0.86830740653785787
 608    0.58829601281349109  0.65345691892885271  1
 609    0.58906457400336576  1  0.72518673113730625
 610    0.59320198005283364  0.27669028350300817  0.16389119279222153
 611    0.59338385687515705  0.15498390368559029  1
 612    0.59350534044455627  0.76652780339007798  1
 613    0.59511112662978771  0.26313934240224601  0.83113101287490121
 614    0.59563347092617958  0.40322586943991262  0.70939867021245162
 615    0.59748295310087207  0.38199010567855041  0.16911158874818499
 616    0.59780922107807211  0.31919408373528513  0.26881721458570984
 617    0.59796098464078762  0.26873428416771683  0
 618    0.60096002145429872  0.54807651968275473  1
 619    0.60384474947060496  0.74659033630872917  0.5370496953407059
 620    0.6039215125951567  0.86674649317978769  0.12094774102262006
 621    0.60605094812148907  1  0.16711054771245246
 622    0.60769702234665224  0.12415060860050725  0
 623    0.60881307376134686  0.58738038010330362  0.72285743416464143
 624    0.6094193957798727  0.87476037458282563  0.73816592551488758
 625    0.61069369717697264  0.54975236764150515  0.33428288748294149
 626    0.61183697993879371  0.64296635445424877  0
 627    0.61241181196996175  0.55901704601884505  0
 628    0.61244661783774712  0  1
 629    0.61263683682947911  0.25836246789353123  1
 630    0.6128627562069543  0.75932938290295371  0
 631    0.61315907013390381  0.2390784919098822  0.57042766260972999
 632    0.61362466269779081  0.58025352705855449  0.43700824438711033
 633    0.61479683437113075  1  0
 634    0.61506122600945901  0.45165446678204607  0
 635    0.61744645647063967  0.77203490512787243  0.14150303951406112
 636    0.61759388349756239  0.21072550481997684  0.33243706199175582
 637    0.61775778052914676  0.455216470814441  0.34261781483190984
 638    0.61808002889337066  0  0.13820698330543835
 639    0.61887253083894667  0.35109587171374074  1
 640    0.62066505157832497  0.63134891893402056  0.79850753350401416
 641    0.6233669845799622  1  0.61245622131768207
 642    0.62440217665662046  0.8602214488286325  0
 643    0.62450834876495764  0  0.50787248660718498
 644    0.62572511626306226  0.15426602110542892  0.61143376984528131
 645    0.62883443861388233  0.81048375041089427  0.47868770382865983
 646    0.62909521092687393  0.60696320412809113  0.53745370642999291
 647    0.62965693702256686  0  0.59511995541886675
 648    0.6297257898297135  0.128844185818066  1
 649    0.63163940375849537  0.35761451744562656  0.77309106303316144
 650    0.63249146469141082  0.33461494567125183  0.38802521419692132
 651    0.63257511316694048  0.31550075686716378  0.4869947005091011
 652    0.63340584738184746  0.68937489382403327  0.73666875900638551
 653    0.63355140930449094  0.47381471069076075  1
 654    0.63467483197539265  0.72431370687718921  0.81637503207757123
 655    0.63534648739161625  0.82898625136069981  0.28847736201772606
 656    0.63595252015713888  0.45958111407780106  0.46513758628693647
 657    0.63606399090397681  1  1
 658    0.63646450242678743  0.82792199946233513  0.61814684401768571
 659    0.63746866360534826  0  0.74389051490899183
 660    0.63774196888679213  0.65278037917060627  0.18272333942374488
 661    0.63802489781160743  0  0.82900062426105503
 662    0.63815506480233863  0.14988924460130357  0.52400421189168178
 663    0.63915633124474369  1  0.79921438142182044
 664    0.64102235419629949  0.17196987696359914  0.4116909381520375
 665    0.64145959973123934  0.34116360922431171  0.64008374301639481
 666    0.6425381047437938  0.77249715039215372  0.37696957582778462
 667    0.64335137695569122  0.3837392730211947  1
 668    0.64439915830484751  0.63433958587521111  0.31009646032824467
 669    0.644755374387876  1  0.25609609847420411
 670    0.64494649180014896  0.42927359546968386  0.25252004195498706
 671    0.64506353824233642  0.52873669329764872  0.20308943865196671
 672    0.64633958996392771  0.49020519286224334  0.7305959653410059
 673    0.64839557247969981  0.88979331093439629  0.35197522989672231
 674    0.64901112651317017  0.50450842142010044  0.55775423157105197
 675    0.65029499307907435  1  0.65470734397736552
 676    0.65075481881971686  0.36643034681590958  0.5575066280870512
 677    0.65212559276477744  0.47989950700288342  0
 678    0.65629955053178757  1  0.51307147077861492
 679    0.65638991714391359  0.54719736827127863  0
 680    0.65662536107806047  0.25302105033326761  0.77326773429197759
 681    0.65768044224708266  0  0.41303560287899171
 682    0.65797154097663746  1  0.85367653602867621
 683    0.6586227132418031  0.73468055616908579  0.20718504967600018
 684    0.65961734784743453  0.8110797210277767  0.78513383795718494
 685    0.65987664296014048  0.60923860977982547  0.64833490311393105
 686    0.66131887897056274  0.16938296026590136  0.81724290788266796
 687    0.66212220865493154  0  0.24580910990669838
 688    0.66251023200859305  0.11343242423621702  0.15147841724179079
 689    0.66294770488807264  0.7096846527224423  1
 690    0.664919612819308  0.84210854247538847  1
 691    0.66540986931104074  0.69846331496007086  0.57759965743436081
 692    0.66801229779742755  0.22996791807266634  0.16477786630496141
 693    0.66831182068206862  0.13695569530355978  0.23209399520083424
 694    0.66861558078692995  0.47493801463159829  0.88370787827256314
 695    0.67003303701752803  0.35095480941046309  0
 696    0.67058513987122204  0.34511180363414024  0.19996426292135422
 697    0.67360657246112021  0.71440943679015056  0
 698    0.67420427255831017  0.226752278648293  1
 699    0.67788052607041682  0.61812599019685788  1
 700    0.67896570269711132  0.55334244606998284  1
 701    0.67919656675616891  0  0
 702    0.67962795742426985  0  0.32482234988738667
 703    0.68306911532658809  1  0.35845160006664312
 704    0.68383782791952441  0.26614417053401218  0.67991814982628318
 705    0.6847554086078953  0.30845047814596133  0.28977838717392695
 706    0.68577487257694181  0.42304372879426599  0.39141395078858959
 707    0.68607267919111958  0.67184645530954279  0.37943456030899558
 708    0.68698033112918666  1  1
 709    0.68825547715560598  0.65654653741687419  0
 710    0.68974455056167128  0.12944245736132279  1
 711    0.69280340981626798  0.20812109746355448  0.48958092150622334
 712    0.6956901815356793  0.54895177370654713  0.8372535933975227
 713    0.69760974935237319  1  0
 714    0.70132218213871089  0.48004521774276621  0.63363116695071731
 715    0.70142804943559511  0.83636535216659724  0.13107233995747924
 716    0.70146455451572176  0  0.49458682776246571
 717    0.70254514241983557  0.56220000850910334  0.31915007962718578
 718    0.70389517116418143  0  1
 719    0.7039280134817083  0.27241847467246638  0.4242258609238011
 720    0.7042281955593791  0.8224519760359339  0.52853974582237839
 721    0.70462937922996183  0  0.70220667562637584
 722    0.70605673144445225  0.86432612162904521  0.69880627468350764
 723    0.70730283293645635  0.16046711407294015  0
 724    0.7081306824793876  0.18380907328805451  0.74665146302415819
 725    0.70820049281409292  0  0.52724835378283719
 726    0.71310248335403048  0.25786992002455794  0.59496274672929039
 727    0.71506470338844164  0.81584698568957392  0
 728    0.71510792765049924  0.30013356843649597  0.51990166854992992
 729    0.71795210771661311  1  0.75327983713236368
 730    0.71934788969158259  0.73715367475573768  1
 731    0.7198835628007576  0.49506859369024414  0.4674777708821875
 732    0.72019225930275577  0.5991289633625968  0.12697017021603246
 733    0.72065485634764948  0.63234893878558862  1
 734    0.72066066430061615  0  0.19518196764097373
 735    0.72096217085340197  0.14751834317498508  0.58797038903497534
 736    0.72107640934735751  0.87369004071866141  0.45337250842065746
 737    0.72174733912002076  0.53269048515214534  0.23891669177077396
 738    0.72238325784577717  0.85207187446010257  0.85930445827460378
 739    0.72290843440678254  0.33849982273116008  0.84333260575024882
 740    0.72374591264534482  0.42991752745168199  0.7919286746559927
 741    0.72687497296977421  0.78954156500763961  0.23686512632570472
 742    0.7290966771588181  0.47807237050342755  0
 743    0.72962814139707  0  0.80483625215691501
 744    0.73090022991648607  0.84074837952844217  0.37123833835641162
 745    0.7314270619643588  0.26016833534691231  0
 746    0.7332376629124725  0.29583625804819547  0.7463053730532182
 747    0.73406505018270307  0.44825941295308946  1
 748    0.73444724442370291  0.72745179587688702  0.49058778165724037
 749    0.73534146286912194  0.62650032510166087  0.86235635301007441
 750    0.73540139931517057  0.14996517502006418  0.39232002028610363
 751    0.73595701363808397  0.55748736309135649  0.57545486374205224
 752    0.73631698335142826  0.10578501159849178  0.87140844908488224
 753    0.73683370745694643  0.64680841129710243  0.56530684646122076
 754    0.73944539528997832  0  0.65783403282725073
 755    0.73996700549627414  0.59634797118999794  0.72816087231156801
 756    0.74148814638683969  1  0
 757    0.74155863765402807  0.88308600091156486  0.24510280032400036
 758    0.74191544919256502  0.73057675850082981  0.67758464023451903
 759    0.74277979376679237  1  0.5845287807928965
 760    0.74314020294719052  1  0.4260008090393152
 761    0.74471694837465841  1  0.10191820766097602
 762    0.7452860530189771  0  0.36901069777752427
 763    0.74784792628662122  0.47202748450704901  0.30706977613812825
 764    0.74799435125683156  0.37706982106504422  0.28090355993245031
 765    0.74868765541930482  0.72302312428119142  0.82546996311435183
 766    0.74995913994059826  0.16472881480612958  0.26484194986086895
 767    0.75073450123907348  1  0.6822443305734599
 768    0.75116555592433665  0.62600777902520366  0.48139962793424823
 769    0.7517233999145656  0.42408781933050077  0.54138101864206123
 770    0.75404680850689543  0.21340744352383859  0.86392076514658678
 771    0.75414240128712817  0.22630421190327743  1
 772    0.75590778459481844  0.70839371892545822  0
 773    0.75805852745510205  0  0.60524016876305287
 774    0.75871598372635041  0.27830100084597531  0.25907943117070253
 775    0.75885301434791252  0.42237675223683985  0.67152009853345296
 776    0.75946150390524836  0.35788251400193294  0.18166511255599993
 777    0.76037856289558825  0.68838537206340056  0.2586128869905947
 778    0.76205782908147679  0.72499970359016919  0.4085470189108853
 779    0.76319968884440037  1  1
 780    0.7643792344798982  0.44562751799987771  0.18339358553263846
 781    0.76518981957501608  1  0.31502053042189337
 782    0.76707444952037296  0  0
 783    0.76815715152188557  0.22372282984163808  0.6818273774360436
 784    0.76888233997066979  0.57006825756685098  1
 785    0.76980509438487321  1  0.82204049971962778
 786    0.77116335437601169  0.30024284705830367  0.38162417851237784
 787    0.77144910862204785  0.52644393290315883  0.77936295509526765
 788    0.77250788454807651  1  0.20990976021733232
 789    0.77257789781142538  0.55984050210974445  0
 790    0.77536031109303671  0.72094075914862654  0.58464086942345794
 791    0.77560764952426875  0.36582260285724499  0
 792    0.77933784075603163  0.88623840733815562  0.66242320468215043
 793    0.77957622063734333  0.72258962161884366  1
 794    0.78225755365350702  0.34351230749163586  1
 795    0.78286950786814158  0.59134463937550485  0.32968261607245175
 796    0.78291638681709164  0.3867743785266135  0.4726802454404096
 797    0.78372971475245545  1  0.40789332548950419
 798    0.78515545034957135  0  0.73330048893245725
 799    0.78529067123861662  0.74633165441918792  0.18675840078810174
 800    0.78605844964305993  0.85597582600825772  0.76325826208282943
 801    0.78612098939326702  0  0.12626989566289365
 802    0.78657210608318273  0.16616640701248012  0.13649559223353419
 803    0.78877632430227618  0  0.55428063470806233
 804    0.79240468543190645  0.82180270048048265  1
 805    0.79252313260439  1  1
 806    0.7926354334269391  0.31229297204315254  0.67648863285242866
 807    0.79364093951352932  0  0.23084528122133632
 808    0.7938998093191495  0.52330091185641603  0.13864545290044258
 809    0.79598270889076939  0.25607888983262256  0.49793007630784941
 810    0.79640571579124197  0.87390248169497087  1
 811    0.79693173838437015  0.8392078694545736  0.30743573469268282
 812    0.79913574262147091  0.64347408979230469  0.10771981548308387
 813    0.80017871236677329  0  0.48653506391438439
 814    0.80129712811410503  0.16908816090319734  0
 815    0.80262213891941059  0.38245391941395018  0.7819220054913435
 816    0.8045076901533792  0.3244071517356088  0.56730761391245565
 817    0.80461936693169378  0.1484824975781634  0.84588879694460939
 818    0.80501778490029685  0.8033596041048976  0
 819    0.80604646473649  0.66657213838910179  0.73610845558705951
 820    0.80749519571312467  0.20427212399202627  0.36918949981564386
 821    0.80753740225371806  0.64508155638170706  1
 822    0.8084505349040253  0.60178783882222675  0.62645700866839005
 823    0.80901440553687975  0.45413432946758153  0.89308448908326976
 824    0.81077392410593596  0.50012986722219499  0.42860113864616411
 825    0.81106484743083973  0.8802811280312266  0.1106972622868287
 826    0.81119940141276214  0.48527098442373012  0.53095176568388713
 827    0.81291413437129223  0.47512348056295184  0
 828    0.81325268217440849  0.17346359360698058  0.61741593482017398
 829    0.81445583066937266  1  0.51269246863779794
 830    0.81583462301226173  1  0.37245380287102042
 831    0.81592008100470415  0.74874447198033012  0.89703170069509008
 832    0.81907750593793971  0.41295354782920213  0.59119640647397276
 833    0.82173087366180109  0  0.83220448408740932
 834    0.82198189826791901  0.69336024668405605  0.34600615115744127
 835    0.82202053148624465  0.76859939734891913  0.47141174804510189
 836    0.82369845550590448  0.27182483661804918  0
 837    0.82452190669757008  0.27349390276023516  0.77228379825750437
 838    0.82489020132632063  0.75598231525482662  0
 839    0.82596821179576718  0.25796382472888929  0.13607547033983303
 840    0.82844989547656755  0.41428441969609769  0.37274373020941715
 841    0.82874808718541415  0.16054772752352517  0.47257756596422235
 842    0.82967629165725132  0.5942328421180556  0.17339158884566164
 843    0.83011376205557053  1  0.11696590696523122
 844    0.83232790538688695  0.40258940138961324  0.1309805420585847
 845    0.83238216973312074  0.68521442402259725  0.53290786967098103
 846    0.83248163108268547  0.5944638209204286  0.82028707809777657
 847    0.83261212521229766  0.82599676894729868  0.56842672436808783
 848    0.83332290322832814  0  0.41013925024650738
 849    0.83501616661587807  0.75359418297056624  0.64263932522177203
 850    0.83604557479835628  0  1
 851    0.83750251094817829  0.7289697100934589  0.78648789162057675
 852    0.83770979378341259  0.17552323601884379  0.24679813053786492
 853    0.83869268116252305  0.27315341778089752  0.29625690788784487
 854    0.83899629466778247  0.48701987905289434  0.24502700988143181
 855    0.83959847358967865  0.46433247594797905  0.66586780156531411
 856    0.84080160111696056  0.32973420215706639  0.21490295432020751
 857    0.84153532437673462  0.59033617079512768  0.73364489675763989
 858    0.84370826030720836  0  0
 859    0.84741970432231351  1  0.81129133323130054
 860    0.85079176558263481  0.58146510151562691  0.38722183508995861
 861    0.85161628442179182  0.10441317794830356  0.31844559237995945
 862    0.85287780620235598  0  0.57793807370525219
 863    0.85428384178242256  0.80575292659102893  0.82219154829871832
 864    0.85752541259524728  0.42508376083288746  1
 865    0.85938977717753695  0.71449007858704272  0
 866    0.86019057791473907  0.68923723387827507  1
 867    0.86107164587137786  0.64270260832610726  0.4570157876621237
 868    0.86127823405189641  0.77014978404339662  0.22907178111098547
 869    0.86147059327849074  0.19995609796945196  1
 870    0.86330248534138887  0  0.65702755980725869
 871    0.86333416630177662  1  0.30053924747697752
 872    0.86409979665216208  0.36508473816390419  0.29773218011001135
 873    0.86411477006087312  0.139716747814641  0.7543883626953044
 874    0.86526929344736692  0  0.22588864875166073
 875    0.86539566281088542  0.52123386277062533  1
 876    0.86571709241617001  0.32797313895820679  0.87336230275403426
 877    0.86592242206600534  0.88959279188011298  0.38264080358187569
 878    0.86628325102229375  1  0.83787277903833535
 879    0.86692770298419586  0.30249664772433904  0.38142618404229411
 880    0.8682710069963967  0.83507378862503612  0.66067418594989147
 881    0.86929547991051914  0.85892125325894964  0.21599713899238746
 882    0.86985216612849114  0.45467189754912646  0.83136844367338458
 883    0.87029124103953359  0  0.25024676206606589
 884    0.87029717196525369  0.6218099981807973  0.27376819639360572
 885    0.87049991491935474  0.34661242562339734  0.70703612358619383
 886    0.8717745010561827  0.82727565910211143  1
 887    0.87180919911501331  0.7892817801778067  1
 888    0.87242882146617873  0.34667908410181225  1
 889    0.87450593451002634  0.56524208502276507  0.5306385111754256
 890    0.87511148609832168  0.82236084511590524  0.1139013055830074
 891    0.87545406555610072  0.60541796728579955  1
 892    0.87636823691429144  0.64172814624993368  0.5898517819165533
 893    0.88029949740824021  0.22518577626828676  0.54946696151356833
 894    0.88145121332469245  1  1
 895    0.8817108812114588  0.562534012277771  0
 896    0.88178665268387924  0.14372325908785893  0
 897    0.88531182173939305  0.12095104929550188  0.4245356707819764
 898    0.88634233181331712  1  0.64348051632950287
 899    0.8869145911604791  0  0.71439115986818802
 900    0.88815497558111856  0.67886136974519118  0.21135065880212556
 901    0.89000827726767873  0.30664687759642573  0.60761404184552792
 902    0.89083241698595439  0.78444151806311557  0.41009472966115273
 903    0.89132984113628022  0.22162443938619386  0.34708156459887163
 904    0.89221303989841205  0.48809641605988868  0.36711309258260383
 905    0.89227067140188554  0.21836665003589847  0.72906645032610817
 906    0.89259538033486951  0.64851395486922192  0
 907    0.89643837131213155  0.36247469786199965  0.46950581335151054
 908    0.89644508128082534  0.72427187996902687  0.89706667246278982
 909    0.89735846881461967  1  0.52802289488982246
 910    0.89887955410108433  0.85100888531438434  0.29923804708581936
 911    0.89938990934252194  0.34487785134931298  0
 912    0.89950500489920504  1  1
 913    1  0.2598545063714337  0
 914    1  0.89475773624286414  0
 915    1  1  0.1660997521052868
 916    1  0.73156971715198438  0.54138266788173561
 917    1  0.409774594396972  0.63844095546504065
 918    1  0.28756181926526803  1
 919    1  0.51238513842907651  0.60219085903792413
 920    1  0.52413741032738215  0.10406365449384322
 921    1  0.45425836520410834  0.47104305377465816
 922    1  0  0.36926056140784469
 923    1  0.17087966625145398  0.65282875231853532
 924    1  0.62483702679750874  0.83734195570613756
 925    1  1  0.46005455455823246
 926    1  1  0.75355058413965126
 927    1  0.62483376614579966  0.69199863091397107
 928    1  0.24664893032105681  0.42628313744178542
 929    1  0  0.53118640708931586
 930    1  0.39410544025000238  0.89833578655412383
 931    1  0.1738918993850383  0
 932    1  0.8540839845592848  0.73200461234694403
 933    1  0.56999536106953685  0.44848327475039196
 934    1  0.4291838660165323  0
 935    1  0.50548119641485978  0.69081649743396001
 936    1  0.51910265814090795  0.21162939503302525
 937    1  0.69404173089321752  0.37369195453624188
 938    1  0.43120785157558372  0.17277604302993388
 939    1  0.24004550291759186  0.86175312061157028
 940    1  0.13122855505247777  0.17685293235176303
 941    1  0.6156913846221046  0.16094705095289108
 942    1  0.31743928537786359  0.26424777980875863
 943    1  0.40883650112659864  0.25957621595004737
 944    1  0.81259541011250647  0.51028802710848553
 945    1  0.89095446903162456  0.15896872930761854
 946    1  0.36277281500236719  0.79031265462991684
 947    1  1  0.44384730912644182
 948    1  0  0.17217533343838379
 949    1  0.68874470327500603  0.77400128399642909
 950    1  0  0.83703164308449629
 951    1  0.48543700078526975  1
 952    1  0.7716466189170712  0.33260211291582709
 953    1  0.80413645674460899  0.24289079547400846
 954    1  1  0
 955    1  0.44390907244586364  0.75366775980957379
 956    1  0.56445304851584399  0.28638598966483347
 957    1  0  0.44889241171624594
 958    1  0.18237720437583751  1
 959    1  0.70873179282965171  0.62825887788096346
 960    1  0.16022350147049877  0.38397762056318852
 961    1  0.16562868884298643  0.27456367607849486
 962    1  0.6823081090874239  0.48919596693502715
 963    1  0.65347067099384848  1
 964    1  0.72218972853510432  0
 965    1  0.52968854348898708  0.80567266260356063
 966    1  0.17958301667197454  0.5579806804817089
 967    1  0.20345129284646926  0
 968    1  1  0.5858070285040452
 969    1  0.2556895430137951  0.21435093295120752
 970    1  0.28294773601353695  0.52000219409743753
 971    1  0.26471687503990482  0.65896268278400316
 972    1  0.1127938170097405  0.76480406669267642
 973    1  0.35442769982453876  0.36875619857092284
 974    1  0.66554854834541433  0.28851605657837398
 975    1  0.51351406772224673  0
 976    1  1  0.34462238511959553
 977    1  0.26022275159802799  0.31755331260337882
 978    1  0.37362113773541716  0
 979    1  0.6679992175870646  0
 980    1  0.75773971064764223  0
 981    1  0.61191677714372017  0.37906781780687748
 982    1  0.3667853827393166  0.6932935241566347
 983    1  0.84197467111098834  0
 984    1  0.39677235492667784  0.50336694518164238
 985    1  0.35939138147136807  0.58930909333899595
 986    1  0.78491814691934814  0.15659285834903675
 987    1  0.83553105430430508  0.886542554301327
 988    1  0  0.6897355623345951
 989    1  0  1
 990    1  0.49587193362051896  0.53698195291842266
 991    1  1  0.70232446560909423
 992    1  0  0.23165975026952457
 993    1  0.47359259783962421  0.41404339200208862
 994    1  0.76593381390882764  0.73981851832209655
 995    1  0.45427181593458515  0.65025892432398735
 996    1  0.30925673898355777  0.85892072062231584
 997    1  0.15241731950822454  0.47561746583629178
 998    1  0.28657096689857853  0
 999    1  0.81075290542307399  0.4347084632099138
1000    1  0.84653570898642005  0.6237747303747847
1001    1  0.1141454048130606  0.63446029715586538
1002    1  0.28649723182888559  0.13424777095575507
1003    1  0  0.12711563394012565
1004    1  0.47659615260134852  0.32337330941430797
1005    1  1  0.64433812281983505
1006    1  0.85978292548686275  0.33662115380418667
1007    1  1  1
1008    1  0.16831547805999911  0.86571703644185172
1009    1  0.46770139700468211  0.85734363926854962
1010    1  0.60070696054644945  0.10106599216199753
1011    1  1  0.79785105218384411
1012    1  0  0.29748951163820386
1013    1  0.38819584475102303  0.13327705532200446
1014    1  1  0.2415505693897535
1015    1  0.38147334179743836  1
1016    1  0.54360228450960579  0.63750351892033674
1017    1  0.785849429747282  1
1018    1  0.58370473631682429  0.73903969959293281
1019    1  0.59828069055037525  0.21711052257171254
1020    1  0.25040195913353092  0.76866824917201337
1021    1  1  0.14292766958378911
1022    1  0.87628149911547726  1
1023    1  0.73410744552167351  0.55226916296343664
1024    1  0.87555160295866663  0.5152539006868041
1025    1  0.67068398042314836  0.85432228366027418
1026    1  0.60973952409982379  0.54101091144974367
1027    1  0.55702743474001837  1
1028    1  0.85119546367076604  0.78811255683339132
1029    1  0.19194728471994393  0.11284523209187662
1030    1  0  0
# Generated by c:\dev\polylla3D\tetgen\build\tetgen.exe -fzenn c:\dev\polylla3D\data\input\1000poisson.node 
