# This file was created by meshio v5.3.5
1040 3 0 0
0 0.0000000000000000e+00 0.0000000000000000e+00 0.0000000000000000e+00
1 0.0000000000000000e+00 0.0000000000000000e+00 1.0000000000000000e+00
2 0.0000000000000000e+00 1.0000000000000000e+00 0.0000000000000000e+00
3 0.0000000000000000e+00 1.0000000000000000e+00 1.0000000000000000e+00
4 0.0000000000000000e+00 0.0000000000000000e+00 3.1860157857808041e-01
5 0.0000000000000000e+00 1.0000000000000000e+00 2.6231531769682742e-01
6 0.0000000000000000e+00 4.8585338649624638e-01 8.0893250968661934e-01
7 0.0000000000000000e+00 7.6846375774327580e-01 3.2449279008768989e-01
8 0.0000000000000000e+00 5.1183386250391327e-01 1.5446122206606450e-01
9 0.0000000000000000e+00 1.6350774412208305e-01 8.8763620419230826e-01
10 0.0000000000000000e+00 0.0000000000000000e+00 4.4711607460928748e-01
11 0.0000000000000000e+00 7.7003314950001123e-01 1.8985440889291322e-01
12 0.0000000000000000e+00 6.2824488924021493e-01 3.1357155265696440e-01
13 0.0000000000000000e+00 5.8350834779195815e-01 8.5606498460297242e-01
14 0.0000000000000000e+00 6.5355859798887750e-01 0.0000000000000000e+00
15 0.0000000000000000e+00 4.4467523165557565e-01 7.2780386675119546e-01
16 0.0000000000000000e+00 5.7903436123004703e-01 4.7591841160303405e-01
17 0.0000000000000000e+00 1.4545616234637712e-01 4.9583600654799487e-01
18 0.0000000000000000e+00 8.0110018775713143e-01 4.7181059339159198e-01
19 0.0000000000000000e+00 1.6396501595420235e-01 2.4342948815423926e-01
20 0.0000000000000000e+00 6.1976448895100866e-01 5.8421231562562892e-01
21 0.0000000000000000e+00 1.8954678246901396e-01 7.9033971153426519e-01
22 0.0000000000000000e+00 1.0000000000000000e+00 6.1426403511725391e-01
23 0.0000000000000000e+00 8.5078514066159738e-01 8.8537778056584326e-01
24 0.0000000000000000e+00 2.8119576246152744e-01 7.3010357623852351e-01
25 0.0000000000000000e+00 7.2171050888752930e-01 1.0000000000000000e+00
26 0.0000000000000000e+00 3.8074698515696159e-01 0.0000000000000000e+00
27 0.0000000000000000e+00 5.6984014416729023e-01 3.7775660104768322e-01
28 0.0000000000000000e+00 7.3171683714637170e-01 5.9757115467676658e-01
29 0.0000000000000000e+00 8.2001050122596730e-01 1.1707942300327960e-01
30 0.0000000000000000e+00 8.9662011031390931e-01 1.0000000000000000e+00
31 0.0000000000000000e+00 4.4790115117077944e-01 3.2773629387293723e-01
32 0.0000000000000000e+00 1.0000000000000000e+00 3.8881455787523955e-01
33 0.0000000000000000e+00 2.0347700844793171e-01 1.2158072517135768e-01
34 0.0000000000000000e+00 0.0000000000000000e+00 1.0000000000000000e+00
35 0.0000000000000000e+00 0.0000000000000000e+00 7.1172591147485076e-01
36 0.0000000000000000e+00 4.0119583057024422e-01 4.5470291665045010e-01
37 0.0000000000000000e+00 8.8593383567667683e-01 5.0353363746395252e-01
38 0.0000000000000000e+00 3.5431937380347883e-01 6.6871079879725237e-01
39 0.0000000000000000e+00 3.2460322292792787e-01 3.1490702532573878e-01
40 0.0000000000000000e+00 8.3041410237363389e-01 6.5177049358699723e-01
41 0.0000000000000000e+00 1.0285255051683934e-01 8.0915140632229632e-01
42 0.0000000000000000e+00 6.7065309896685843e-01 4.9448160370013389e-01
43 0.0000000000000000e+00 7.0139087394236010e-01 0.0000000000000000e+00
44 0.0000000000000000e+00 8.2467216638806307e-01 7.6376586153211090e-01
45 0.0000000000000000e+00 2.6729272848141761e-01 1.9290520535325914e-01
46 0.0000000000000000e+00 3.2006522275528770e-01 8.8197253127154052e-01
47 0.0000000000000000e+00 5.4029509032807355e-01 1.0000000000000000e+00
48 0.0000000000000000e+00 1.0000000000000000e+00 1.4422668491744151e-01
49 0.0000000000000000e+00 4.2190358356940016e-01 8.7265616960394177e-01
50 0.0000000000000000e+00 5.4272405393532386e-01 0.0000000000000000e+00
51 0.0000000000000000e+00 1.0000000000000000e+00 8.9904821905941079e-01
52 0.0000000000000000e+00 1.0000000000000000e+00 4.8293254825625198e-01
53 0.0000000000000000e+00 1.4072332951562400e-01 4.1123531557936577e-01
54 0.0000000000000000e+00 0.0000000000000000e+00 1.6757420892962721e-01
55 0.0000000000000000e+00 5.3148729713406140e-01 6.5952382402039877e-01
56 0.0000000000000000e+00 8.1581087217732429e-01 2.5708776206957984e-01
57 0.0000000000000000e+00 1.0000000000000000e+00 2.5875859625154873e-01
58 0.0000000000000000e+00 5.5943082643586861e-01 2.5334921356649492e-01
59 0.0000000000000000e+00 1.0000000000000000e+00 7.8637643353422326e-01
60 0.0000000000000000e+00 0.0000000000000000e+00 2.8897457591402992e-01
61 0.0000000000000000e+00 4.3754112557955283e-01 1.7576650957053516e-01
62 0.0000000000000000e+00 7.4302351767169317e-01 8.2840819520498865e-01
63 0.0000000000000000e+00 2.1244908965000225e-01 1.0000000000000000e+00
64 0.0000000000000000e+00 7.9907871759897620e-01 0.0000000000000000e+00
65 0.0000000000000000e+00 1.4990760682806226e-01 6.5311045919507538e-01
66 0.0000000000000000e+00 3.9960102305670325e-01 2.5892249668128453e-01
67 0.0000000000000000e+00 3.0214862200705506e-01 5.7078393658906912e-01
68 0.0000000000000000e+00 4.7617650415228457e-01 4.1693797868896793e-01
69 0.0000000000000000e+00 3.1294542650438967e-01 4.4077720194110281e-01
70 0.0000000000000000e+00 4.7823309224419114e-01 0.0000000000000000e+00
71 0.0000000000000000e+00 6.3890007250935765e-01 7.5469988851905134e-01
72 0.0000000000000000e+00 4.8327276329744379e-01 5.3080062252810800e-01
73 0.0000000000000000e+00 6.2063147530809804e-01 1.8294010232950136e-01
74 0.0000000000000000e+00 1.8749813313573088e-01 5.6977707472492756e-01
75 0.0000000000000000e+00 7.9986714456881447e-01 1.0000000000000000e+00
76 0.0000000000000000e+00 7.5479976909792335e-01 4.1369978868007573e-01
77 0.0000000000000000e+00 2.1529300434359136e-01 7.0935103464431670e-01
78 0.0000000000000000e+00 6.6221450034677787e-01 4.0606802883092868e-01
79 0.0000000000000000e+00 3.4499630631932210e-01 7.9876831318590658e-01
80 0.0000000000000000e+00 6.9078388103491128e-01 2.5043651200759220e-01
81 0.0000000000000000e+00 0.0000000000000000e+00 0.0000000000000000e+00
82 0.0000000000000000e+00 6.2637908651908536e-01 6.5128164427211332e-01
83 0.0000000000000000e+00 8.2189520725379628e-01 5.5615598249641862e-01
84 0.0000000000000000e+00 1.0000000000000000e+00 5.6851899770406389e-01
85 0.0000000000000000e+00 0.0000000000000000e+00 5.3958910651131464e-01
86 0.0000000000000000e+00 1.0000000000000000e+00 0.0000000000000000e+00
87 0.0000000000000000e+00 7.5328106483960378e-01 7.1520406128542535e-01
88 0.0000000000000000e+00 0.0000000000000000e+00 8.8472056388870179e-01
89 0.0000000000000000e+00 6.5306156916953517e-01 8.4089960311273071e-01
90 0.0000000000000000e+00 3.6675784943936585e-01 1.0000000000000000e+00
91 0.0000000000000000e+00 3.5839051947961070e-01 1.4595587280771380e-01
92 0.0000000000000000e+00 2.3752456042082096e-01 3.0226908937890823e-01
93 0.0000000000000000e+00 5.5410351517686618e-01 8.1394660231492932e-01
94 0.0000000000000000e+00 1.0637968295400013e-01 0.0000000000000000e+00
95 0.0000000000000000e+00 1.4605695411842445e-01 7.5928746483905152e-01
96 0.0000000000000000e+00 4.8184465964149104e-01 1.0000000000000000e+00
97 0.0000000000000000e+00 2.7456529488931014e-01 0.0000000000000000e+00
98 0.0000000000000000e+00 5.5956839323109431e-01 7.2934997691007097e-01
99 0.0000000000000000e+00 4.0458446586937308e-01 5.6766472425939751e-01
100 0.0000000000000000e+00 2.4101750562685526e-01 3.9226689173566193e-01
101 0.0000000000000000e+00 1.0000000000000000e+00 1.0000000000000000e+00
102 0.0000000000000000e+00 8.8135688876264284e-01 3.7765144236135073e-01
103 0.0000000000000000e+00 3.2279785270069894e-01 2.3169962935626659e-01
104 0.0000000000000000e+00 0.0000000000000000e+00 4.5168027362866658e-01
105 0.0000000000000000e+00 5.7239857512516679e-01 1.0000000000000000e+00
106 0.0000000000000000e+00 8.6453353647978304e-01 7.0081265372515633e-01
107 0.0000000000000000e+00 5.4046307303289332e-01 1.4074188189241260e-01
108 0.0000000000000000e+00 6.6192651154434290e-01 1.0000000000000000e+00
109 0.0000000000000000e+00 7.5324814267639351e-01 1.1525936715623966e-01
110 0.0000000000000000e+00 1.0000000000000000e+00 2.1360939330029274e-01
111 0.0000000000000000e+00 7.2873567179795684e-01 4.9909474607537990e-01
112 0.0000000000000000e+00 4.5346563254414118e-01 7.5709533034970156e-01
113 0.0000000000000000e+00 6.6293257404148254e-01 1.1105434393453022e-01
114 0.0000000000000000e+00 3.7016734328463752e-01 7.2511162516532057e-01
115 0.0000000000000000e+00 3.5935039096660126e-01 3.7526867015523097e-01
116 0.0000000000000000e+00 2.5987173511206246e-01 8.6852459360630274e-01
117 0.0000000000000000e+00 2.9769356919153211e-01 6.7669892153659994e-01
118 0.0000000000000000e+00 1.7020750389464576e-01 4.9632987793071176e-01
119 0.0000000000000000e+00 2.7696351555233467e-01 7.6157899463409984e-01
120 0.0000000000000000e+00 1.0000000000000000e+00 7.2990305950111445e-01
121 1.0153004374942715e-01 8.8680674695768558e-01 2.0792923699150631e-01
122 1.0180065759328003e-01 5.8702691107951832e-01 0.0000000000000000e+00
123 1.0221814958786239e-01 7.8177360568792387e-01 6.2729328550663044e-01
124 1.0383051282152157e-01 1.0000000000000000e+00 0.0000000000000000e+00
125 1.0695536348205126e-01 3.6666356935595812e-01 0.0000000000000000e+00
126 1.0818393572893907e-01 8.8022161041067315e-01 1.0000000000000000e+00
127 1.0835666332000803e-01 4.3825017290194340e-01 3.2049836407107513e-01
128 1.0849380519571844e-01 1.3698184344348469e-01 1.0000000000000000e+00
129 1.0874163765553350e-01 5.8523863204778670e-01 5.4032453814448800e-01
130 1.0901625052303221e-01 1.0000000000000000e+00 2.9893249419722817e-01
131 1.1040920164266442e-01 0.0000000000000000e+00 7.4644411091898366e-01
132 1.1176837921121928e-01 2.2220822047333771e-01 1.0641198922019213e-01
133 1.1200020099360104e-01 1.0000000000000000e+00 6.1690703570006389e-01
134 1.1369536157611360e-01 1.0000000000000000e+00 4.8676332552290363e-01
135 1.2091278409941350e-01 7.7559922141075388e-01 8.6169269036558327e-01
136 1.2116737916878012e-01 0.0000000000000000e+00 6.0140874540588440e-01
137 1.2333751154790937e-01 1.7521503955282575e-01 2.4184093887707869e-01
138 1.2371879361202885e-01 7.3779099852004515e-01 2.1414083653878768e-01
139 1.2415078558577776e-01 0.0000000000000000e+00 3.6404297697662835e-01
140 1.2500163190353131e-01 1.3223811441091329e-01 1.5944134200467125e-01
141 1.2550991779685439e-01 4.1873708226856476e-01 8.3476029832780829e-01
142 1.2556242115011332e-01 0.0000000000000000e+00 2.0499647513224273e-01
143 1.2727762421536948e-01 4.3098294331530973e-01 1.4819501305686775e-01
144 1.3058090357717447e-01 8.4743930176045634e-01 4.5139352184988368e-01
145 1.3104211577511277e-01 1.0000000000000000e+00 8.6288126704726942e-01
146 1.3123608600523598e-01 2.7938897378614974e-01 1.0000000000000000e+00
147 1.3142969388573539e-01 2.6308233963795025e-01 5.6434257763269657e-01
148 1.3186294913386681e-01 3.4392906584432958e-01 4.9409731887812203e-01
149 1.3198439349538266e-01 1.5942259184646385e-01 8.6895651307162924e-01
150 1.3262859582448513e-01 1.0000000000000000e+00 4.0008897607879201e-01
151 1.3302894726545406e-01 7.8900520965977750e-01 3.0030037876695848e-01
152 1.3332734934862875e-01 3.3680048450686734e-01 8.5187904705441198e-01
153 1.3338927005159873e-01 5.5170671159358642e-01 4.2247634160406650e-01
154 1.3598377000470813e-01 5.0973103034931744e-01 6.6744301821982943e-01
155 1.3727486187938728e-01 5.0452838316646031e-01 5.6434153075002824e-01
156 1.3836784813978914e-01 5.5586985988163440e-01 3.0930176006908117e-01
157 1.3853799088987828e-01 3.5222712447933752e-01 1.0000000000000000e+00
158 1.3868756898772772e-01 0.0000000000000000e+00 1.0000000000000000e+00
159 1.3898147096337884e-01 6.9441808086635815e-01 3.9046664527723035e-01
160 1.3980809762556301e-01 1.0000000000000000e+00 0.0000000000000000e+00
161 1.4279918893062543e-01 6.9705658507460577e-01 3.0347396120345677e-01
162 1.4288087502756838e-01 0.0000000000000000e+00 2.8782159024895854e-01
163 1.4299986559542344e-01 6.0458601517966670e-01 0.0000000000000000e+00
164 1.4536973382190843e-01 1.9918682545889224e-01 7.1516416263363014e-01
165 1.4573388034810095e-01 6.3565722024752191e-01 6.2065040622846013e-01
166 1.4712478839609608e-01 4.1220658527056986e-01 6.5506449723600191e-01
167 1.4803693627868103e-01 7.8052021839298358e-01 0.0000000000000000e+00
168 1.4924666870392303e-01 0.0000000000000000e+00 6.6580758429308795e-01
169 1.5010136940338792e-01 6.8372891071208086e-01 8.3298819076334352e-01
170 1.5111601909658517e-01 8.6641910053896909e-01 0.0000000000000000e+00
171 1.5262522932974537e-01 7.1238856044264753e-01 1.0000000000000000e+00
172 1.5349353809892863e-01 2.2196800546132509e-01 0.0000000000000000e+00
173 1.5528870980422693e-01 7.0344748901981546e-01 5.5839226210793824e-01
174 1.5597608042670913e-01 1.5416873733121667e-01 3.8456025284197237e-01
175 1.5753519563562535e-01 2.7277967660607738e-01 1.8490177929550949e-01
176 1.5958480314078921e-01 8.9138780846539734e-01 8.1948242530074777e-01
177 1.5996190152780737e-01 8.4087964990658259e-01 7.4693995461577101e-01
178 1.6131075899284980e-01 8.1679529594224043e-01 5.4966092104140674e-01
179 1.6152934130349622e-01 5.3529260578457849e-01 2.0350972383759075e-01
180 1.6172234924167167e-01 0.0000000000000000e+00 8.2744556335538777e-01
181 1.6266515468014497e-01 1.8457333895214198e-01 6.2973390302951038e-01
182 1.6407123420951761e-01 2.0782422884968776e-01 3.1293973204721082e-01
183 1.6492719313442208e-01 4.2528808708315241e-01 1.0000000000000000e+00
184 1.6511887904739109e-01 5.5879688240371228e-01 1.0000000000000000e+00
185 1.6602502210228459e-01 4.6919529536889809e-01 4.5307032472845521e-01
186 1.6627580651630747e-01 0.0000000000000000e+00 0.0000000000000000e+00
187 1.6667418964201855e-01 4.8058657196827936e-01 0.0000000000000000e+00
188 1.6676253822007017e-01 4.6504335426421223e-01 2.6011026242443175e-01
189 1.6701456010432186e-01 7.2664509792887944e-01 7.4628499282967364e-01
190 1.6725913575080914e-01 1.3448485451674236e-01 7.9443316738898218e-01
191 1.6788474847452051e-01 5.8608331134617075e-01 8.5608917325641687e-01
192 1.6839239488102165e-01 1.0000000000000000e+00 2.6450571923503452e-01
193 1.6846965268032585e-01 6.0056135700939239e-01 7.1981239989558587e-01
194 1.6895550213617189e-01 2.3967723098373733e-01 4.0119830630853437e-01
195 1.6903489402484412e-01 3.4566989186915170e-01 5.8062375182939341e-01
196 1.7053559341983737e-01 3.7880540610150892e-01 2.2213220568802658e-01
197 1.7099178162753925e-01 0.0000000000000000e+00 8.9283569984780731e-01
198 1.7118787145173953e-01 6.4400527935183183e-01 4.7857092281363822e-01
199 1.7269569884035044e-01 6.1836358109114964e-01 3.7305767427846936e-01
200 1.7480995219680348e-01 1.0465493365904727e-01 5.8778663584852830e-01
201 1.7682018790061749e-01 3.8376506940108424e-01 3.9210558791409666e-01
202 1.7794255381178847e-01 8.5086076607925454e-01 3.7605820531341161e-01
203 1.7803438735229904e-01 6.4100517293390513e-01 2.0838427562960232e-01
204 1.7989604023884787e-01 4.8535678083178846e-01 3.5642402217797148e-01
205 1.8024570255773958e-01 8.3545977330705767e-01 1.0000000000000000e+00
206 1.8388502363607365e-01 1.0000000000000000e+00 7.6369833571809542e-01
207 1.8424080478858004e-01 6.4419095644693114e-01 1.0000000000000000e+00
208 1.8632512372546844e-01 1.0205997928234531e-01 4.4940732355701518e-01
209 1.9230936983437771e-01 0.0000000000000000e+00 0.0000000000000000e+00
210 1.9409060009596149e-01 5.0776848062762614e-01 1.0000000000000000e+00
211 1.9564322073442411e-01 2.9731560780703126e-01 3.1009389392225911e-01
212 1.9644639890445784e-01 0.0000000000000000e+00 3.4500200561500738e-01
213 1.9680484452926078e-01 1.0000000000000000e+00 6.2558586024128660e-01
214 1.9712530595067815e-01 4.6151083036130669e-01 7.9568163973549333e-01
215 1.9773622660900245e-01 2.5885113156287126e-01 7.5459710820736681e-01
216 1.9792492044572435e-01 0.0000000000000000e+00 5.5129768470188423e-01
217 1.9928651414014326e-01 3.1431214658517448e-01 0.0000000000000000e+00
218 2.0117612339924537e-01 7.8063635728623981e-01 1.5910661849793589e-01
219 2.0198060679115268e-01 1.0000000000000000e+00 0.0000000000000000e+00
220 2.0456675359579476e-01 1.0000000000000000e+00 6.3147057986732558e-01
221 2.0509593803891227e-01 1.0000000000000000e+00 4.7024004441665612e-01
222 2.0675996571863034e-01 8.3940739090431493e-01 2.8500144892733403e-01
223 2.0835758743222030e-01 0.0000000000000000e+00 7.4280570606322271e-01
224 2.0843330803382284e-01 6.7045044944603416e-01 0.0000000000000000e+00
225 2.0934741570166321e-01 3.8809451549016288e-01 7.3828201439870922e-01
226 2.1014118463294651e-01 8.0375259585252046e-01 6.6417726840898250e-01
227 2.1133098142403786e-01 4.6819401156875196e-01 6.0847490588435937e-01
228 2.1186459416430653e-01 0.0000000000000000e+00 1.0000000000000000e+00
229 2.1274799624522694e-01 1.8423153853276386e-01 1.0000000000000000e+00
230 2.1327130401826827e-01 7.7509624739601790e-01 8.6842690059951377e-01
231 2.1513973392103491e-01 1.0000000000000000e+00 3.8127018657974421e-01
232 2.1599191379122318e-01 5.4484745879037577e-01 5.6528124412541914e-01
233 2.1616164171161384e-01 1.0000000000000000e+00 1.4411519644104945e-01
234 2.1653810855861913e-01 0.0000000000000000e+00 2.1476989320761056e-01
235 2.1680067571469347e-01 2.5034138737557332e-01 5.8522916044744511e-01
236 2.1812698499013000e-01 1.4352522350406555e-01 5.2173896524831587e-01
237 2.1845214801105428e-01 1.0000000000000000e+00 1.0000000000000000e+00
238 2.1903578398589463e-01 4.1065321673710764e-01 1.0000000000000000e+00
239 2.1978906517130170e-01 7.5612043273805662e-01 5.8061713386638836e-01
240 2.2225661975353200e-01 6.4871205040982860e-01 0.0000000000000000e+00
241 2.2276586758135458e-01 7.7936213282282030e-01 7.8419090859338503e-01
242 2.2318851489115668e-01 1.0000000000000000e+00 5.2468758327976950e-01
243 2.2339268778357546e-01 6.4252107041720352e-01 1.0000000000000000e+00
244 2.2450553263068054e-01 1.0000000000000000e+00 8.7934791824304614e-01
245 2.2482282513160429e-01 7.4603882680037381e-01 4.1993111426923202e-01
246 2.2491359131640798e-01 7.0727387249057860e-01 6.6544650316457377e-01
247 2.2752580082718174e-01 0.0000000000000000e+00 6.9293515881081191e-01
248 2.2921903009563152e-01 4.1696345499011339e-01 0.0000000000000000e+00
249 2.2930862674740371e-01 1.0000000000000000e+00 7.7755113394683673e-01
250 2.2989525007367839e-01 3.8290671175949759e-01 3.2408161220812570e-01
251 2.3023067917969481e-01 8.8636342921974032e-01 0.0000000000000000e+00
252 2.3102587625916696e-01 7.5839282136753250e-01 1.0000000000000000e+00
253 2.3487622468109109e-01 1.7327129790709944e-01 7.6062020750086712e-01
254 2.3541644491705727e-01 1.2679362668180771e-01 8.7409225934946466e-01
255 2.3664655105509108e-01 1.2050194738446726e-01 2.8317834571164591e-01
256 2.3737590415170717e-01 2.3316779868966575e-01 4.5509111075689662e-01
257 2.3893012608938996e-01 2.2868108745548379e-01 0.0000000000000000e+00
258 2.3904081748142783e-01 6.9492408351373258e-01 3.2913710127922902e-01
259 2.3909083331145559e-01 6.8183063489873741e-01 7.6702747473411581e-01
260 2.3930768079766768e-01 2.7400348767034011e-01 8.7686315224282507e-01
261 2.4207225077324129e-01 4.7814894057790736e-01 6.9974576573491121e-01
262 2.4256445085779271e-01 2.9715623809988334e-01 1.0000000000000000e+00
263 2.4475089504619252e-01 4.7223914353376634e-01 2.1934163464213702e-01
264 2.4568662356591958e-01 4.5337877019949624e-01 0.0000000000000000e+00
265 2.4671315090262108e-01 5.0106399056056750e-01 4.9344334478653934e-01
266 2.4747836175904292e-01 4.2420710103625336e-01 5.3993119366257525e-01
267 2.4847212006969419e-01 5.4666165456213700e-01 0.0000000000000000e+00
268 2.4853808738923336e-01 8.8728920399855715e-01 8.7028406519578461e-01
269 2.4867154911071679e-01 3.1726091019756369e-01 6.9027876286355627e-01
270 2.4939164653412724e-01 5.8345617821192486e-01 1.0000000000000000e+00
271 2.5060846574351925e-01 6.0514630187308405e-01 5.1737143369068406e-01
272 2.5076061573016489e-01 6.6632683151847205e-01 5.7717655646388455e-01
273 2.5423970496997444e-01 1.0000000000000000e+00 2.1154908724511057e-01
274 2.5429651268428038e-01 1.0000000000000000e+00 2.2333540143457481e-01
275 2.5432446718920776e-01 3.1985032402492980e-01 1.5901468256214457e-01
276 2.5582024550730592e-01 7.6617914040502899e-01 2.7495593236914651e-01
277 2.5626385699728582e-01 4.3011633625911072e-01 4.4852050172636521e-01
278 2.5650071170176647e-01 2.0229551617117428e-01 3.0863351867533018e-01
279 2.5685138383137407e-01 6.0114310084840206e-01 1.9142349740712855e-01
280 2.5733162876936311e-01 5.1025455017389365e-01 1.1646145752274079e-01
281 2.5774108847352617e-01 1.0000000000000000e+00 7.0554483454375083e-01
282 2.5844000343511936e-01 8.1593851669476569e-01 5.1080739486327009e-01
283 2.5852205123375116e-01 1.7637004739908119e-01 6.0457611339192152e-01
284 2.5860198404609214e-01 1.4033298175927861e-01 0.0000000000000000e+00
285 2.5937134472154644e-01 5.8047641806395622e-01 3.2373607190343384e-01
286 2.6087900656396545e-01 2.2747409532513846e-01 1.8519366424639727e-01
287 2.6212810983154372e-01 3.2137088169661798e-01 5.5560065667572567e-01
288 2.6267381929167166e-01 4.6860311760861617e-01 3.4661034431477467e-01
289 2.6298645236379314e-01 5.9187992920548704e-01 6.6370061140957748e-01
290 2.6377019881928909e-01 8.5357779024527924e-01 7.2715354903268814e-01
291 2.6412888883040236e-01 7.0638915855065898e-01 8.6360458483875924e-01
292 2.6431285313698161e-01 5.4097587673174830e-01 7.7021831448201838e-01
293 2.6535958786774799e-01 0.0000000000000000e+00 3.7165616616075292e-01
294 2.6597359233633705e-01 1.7483957224663355e-01 3.9459723298304894e-01
295 2.6673556923447156e-01 1.0000000000000000e+00 3.0425549046273542e-01
296 2.6929810697012435e-01 3.4664100052953672e-01 4.7397310677469112e-01
297 2.7103840518432654e-01 0.0000000000000000e+00 1.1854326350463068e-01
298 2.7267305078244530e-01 0.0000000000000000e+00 8.6088692625250318e-01
299 2.7300347695128457e-01 7.0383346531956714e-01 4.9205359535457105e-01
300 2.7324088468751212e-01 0.0000000000000000e+00 4.1883984012920400e-01
301 2.7384312839113012e-01 0.0000000000000000e+00 1.7385968591548240e-01
302 2.7410690132278215e-01 3.3306610717816099e-01 7.7712729758818000e-01
303 2.7478924608817068e-01 1.0000000000000000e+00 4.0489700301867476e-01
304 2.7605594382265436e-01 5.4527262979740598e-01 8.9450005737404137e-01
305 2.7610345093124589e-01 0.0000000000000000e+00 4.6746893850854315e-01
306 2.7715203653910825e-01 2.9889056739106196e-01 0.0000000000000000e+00
307 2.7780522705811905e-01 4.0689708303450656e-01 8.2391830520876563e-01
308 2.7960065205871509e-01 5.8981610676288720e-01 4.3698179180454277e-01
309 2.8223772459954766e-01 3.8875939847880059e-01 2.5338622769659080e-01
310 2.8294685741601217e-01 8.3402108912035566e-01 3.9994004226981661e-01
311 2.8309640038725459e-01 2.1842777943691721e-01 6.7322799220117646e-01
312 2.8454817099028351e-01 0.0000000000000000e+00 6.3801022385206052e-01
313 2.8507775406214625e-01 0.0000000000000000e+00 1.0000000000000000e+00
314 2.8593517283685271e-01 7.6936490413063729e-01 1.0000000000000000e+00
315 2.8609790875267838e-01 7.7118854870171138e-01 1.5268711794991546e-01
316 2.8612293923538845e-01 4.6642543739151493e-01 1.0000000000000000e+00
317 2.8661236476374186e-01 6.6352725346078356e-01 1.0000000000000000e+00
318 2.8705660714349734e-01 1.4017783385030777e-01 0.0000000000000000e+00
319 2.8789392491049581e-01 1.1436398925669038e-01 7.9220853754311304e-01
320 2.8813466260329895e-01 1.4430566389762961e-01 1.0000000000000000e+00
321 2.8972805133481250e-01 0.0000000000000000e+00 5.4924606147933930e-01
322 2.9043023759015718e-01 3.4390239163110792e-01 8.9584966564566837e-01
323 2.9153194922886488e-01 2.8606880816371799e-01 2.4246073724282299e-01
324 2.9171379909635514e-01 7.9018878040956053e-01 0.0000000000000000e+00
325 2.9315067265347594e-01 1.0000000000000000e+00 0.0000000000000000e+00
326 2.9397460426652389e-01 8.6854040289862589e-01 1.4539269249734149e-01
327 2.9522844204989690e-01 0.0000000000000000e+00 7.4514026262369282e-01
328 2.9531150928681904e-01 6.7657218980650646e-01 2.1806850898407837e-01
329 2.9534111180393835e-01 1.0000000000000000e+00 5.6782238079602587e-01
330 2.9809676363047277e-01 1.0000000000000000e+00 1.0000000000000000e+00
331 3.0438314072144956e-01 5.4902631535778013e-01 5.6094400457023830e-01
332 3.0589362406013704e-01 1.0000000000000000e+00 8.2752621739492649e-01
333 3.0678420411125717e-01 7.7206577932068876e-01 8.1301722564488033e-01
334 3.0842757035111990e-01 7.9031969696186555e-01 6.5758544306445310e-01
335 3.1044742582985585e-01 3.9702643008047589e-01 1.0096351361832979e-01
336 3.1122419128317502e-01 6.5132735055807656e-01 1.0000000000000000e+00
337 3.1163940534756163e-01 3.2454556329731082e-01 3.8975834023015471e-01
338 3.1348569351001926e-01 0.0000000000000000e+00 1.9921070804505078e-01
339 3.1435477634251729e-01 0.0000000000000000e+00 2.9220255895019959e-01
340 3.1527473919649018e-01 3.9852266060706026e-01 6.2931156870870386e-01
341 3.1647001535463765e-01 1.7430255125506613e-01 7.3975096374456639e-01
342 3.1692550363266198e-01 1.7769853745286870e-01 8.8441347229794343e-01
343 3.1708937902975420e-01 8.5149613350915554e-01 5.8295644448985384e-01
344 3.1764797321428179e-01 3.8232630070468410e-01 1.0000000000000000e+00
345 3.2042855254635050e-01 6.1850111271058250e-01 7.9935566913602663e-01
346 3.2259551418188409e-01 5.1320991790972814e-01 6.9313291593039739e-01
347 3.2303618515551819e-01 2.3966766437222028e-01 3.5174544627325777e-01
348 3.2514728013997274e-01 4.0130227952443054e-01 7.3539330883162901e-01
349 3.2528267734247318e-01 2.0104374593725616e-01 2.4271600091284457e-01
350 3.2621455053616305e-01 7.8002131902663818e-01 4.5986853942439004e-01
351 3.2860463110357441e-01 5.7540105822047571e-01 1.4549171777435729e-01
352 3.2876831450376626e-01 0.0000000000000000e+00 0.0000000000000000e+00
353 3.2949630264559149e-01 1.0000000000000000e+00 0.0000000000000000e+00
354 3.3035962779785194e-01 1.0000000000000000e+00 4.7652541858484820e-01
355 3.3324964916697530e-01 2.6722319934876149e-01 7.8019318977435748e-01
356 3.3661431461887331e-01 1.1839772070306744e-01 5.1357819022745899e-01
357 3.3842799312208677e-01 0.0000000000000000e+00 0.0000000000000000e+00
358 3.3901586249239879e-01 2.9178850014270402e-01 1.0000000000000000e+00
359 3.3934552571825288e-01 8.8576412059084053e-01 8.0182748133197534e-01
360 3.3950238708343150e-01 7.8745147949571093e-01 3.1409009024130968e-01
361 3.4079790598786597e-01 2.9508240436678734e-01 5.7661190585330202e-01
362 3.4101270637757813e-01 8.8224727889896981e-01 2.8633875349131183e-01
363 3.4102048431351079e-01 1.0000000000000000e+00 4.8151389688408286e-01
364 3.4124414701895817e-01 1.0000000000000000e+00 6.3358694375792801e-01
365 3.4297644205814831e-01 4.8116291824703983e-01 8.7105628594919371e-01
366 3.4403772292396850e-01 6.0180256118591158e-01 1.0000000000000000e+00
367 3.4467992169171124e-01 7.2093530095334257e-01 5.6372171770674695e-01
368 3.4669388647754595e-01 6.3183926317458627e-01 5.1110712839598083e-01
369 3.4689335760314077e-01 3.1027152069019132e-01 1.3471997303916874e-01
370 3.4695617471881296e-01 5.8677040551740511e-01 0.0000000000000000e+00
371 3.4973292410021839e-01 1.4487600707071507e-01 4.1429645596269388e-01
372 3.5029449081762576e-01 1.0000000000000000e+00 3.7485988351883148e-01
373 3.5176661482401728e-01 4.8474458542623261e-01 7.7085367874336286e-01
374 3.5410541077270985e-01 4.3133464292070600e-01 2.9986006012817906e-01
375 3.5649094840275647e-01 6.4913582111099355e-01 6.5184109647589761e-01
376 3.5682330486394365e-01 4.0643435773467307e-01 1.0000000000000000e+00
377 3.5843078493851532e-01 6.6555802273330145e-01 0.0000000000000000e+00
378 3.5865430487818367e-01 1.0000000000000000e+00 1.0000000000000000e+00
379 3.5867338972124135e-01 0.0000000000000000e+00 3.6076860739480748e-01
380 3.5931691050427539e-01 7.0194226008103222e-01 3.4432733988770137e-01
381 3.5973125291058838e-01 5.0801225295764119e-01 0.0000000000000000e+00
382 3.6029048540768172e-01 0.0000000000000000e+00 1.0000000000000000e+00
383 3.6080229050396162e-01 6.9941298146293862e-01 1.0000000000000000e+00
384 3.6176963454276678e-01 8.0918055177564885e-01 8.9398971648990233e-01
385 3.6191138953683794e-01 5.1709825081474159e-01 3.2330608840376984e-01
386 3.6382091085405427e-01 7.2411141355714004e-01 0.0000000000000000e+00
387 3.6415304888244210e-01 5.9841398165955995e-01 3.4797029030728127e-01
388 3.6546332548267457e-01 3.2301673286750110e-01 0.0000000000000000e+00
389 3.6584534696420745e-01 1.3682601500643166e-01 8.2896358363038669e-01
390 3.6660799801128940e-01 1.0000000000000000e+00 8.8305735182829259e-01
391 3.6707830197538016e-01 8.1776085643227947e-01 2.2369552143016153e-01
392 3.6793041370330010e-01 4.4050534034879757e-01 5.4406059933722462e-01
393 3.6834930244277403e-01 7.0426121790109808e-01 4.5731363404807490e-01
394 3.6899583886290388e-01 2.5526714682320251e-01 6.5689899501055571e-01
395 3.6939496320612564e-01 6.7961278767778233e-01 1.6932703408982494e-01
396 3.6999812078832589e-01 3.2178681621068350e-01 7.1716256985778326e-01
397 3.7014984946752733e-01 0.0000000000000000e+00 6.6042566609159359e-01
398 3.7061313291844877e-01 5.2771521002050026e-01 5.0921812532642530e-01
399 3.7152923576758434e-01 5.5791821678559661e-01 1.0000000000000000e+00
400 3.7162889136204891e-01 0.0000000000000000e+00 5.0588331766026517e-01
401 3.7347344273931216e-01 3.0654615127934376e-01 2.4153904416836813e-01
402 3.7420692161277824e-01 2.1372509878133339e-01 5.4974561329929705e-01
403 3.7463073970306271e-01 1.6326959211821440e-01 1.0000000000000000e+00
404 3.7547466886524045e-01 1.0000000000000000e+00 3.4801038225783310e-01
405 3.7755837868373354e-01 6.8043314854199066e-01 7.3182555317333886e-01
406 3.7789115888425756e-01 2.3398970189690324e-01 0.0000000000000000e+00
407 3.7889174371319972e-01 1.0000000000000000e+00 1.7306821466720396e-01
408 3.7988592944984811e-01 8.5431976329539305e-01 1.0000000000000000e+00
409 3.8177323136060781e-01 1.0000000000000000e+00 7.8025736104189236e-01
410 3.8294863563044179e-01 4.8900509156686417e-01 1.8491100340262775e-01
411 3.8390610188924057e-01 5.7353984827740290e-01 6.8604585567133225e-01
412 3.8522625132590382e-01 2.4209163019934798e-01 1.7548305486709692e-01
413 3.8555812147916046e-01 4.7309807861039010e-01 4.4256491096067324e-01
414 3.8647024170820371e-01 8.4400380462637381e-01 5.2572027620090300e-01
415 3.8754275291868667e-01 1.4869777593707764e-01 2.6601420865133113e-01
416 3.8908643781977176e-01 1.6546324807963969e-01 6.4969948035450320e-01
417 3.9143481590829465e-01 3.9966354972003010e-01 0.0000000000000000e+00
418 3.9201846433183457e-01 7.5512127689067676e-01 6.4559037636174188e-01
419 3.9452075704891565e-01 5.0429619167187678e-01 6.1778845646318170e-01
420 3.9491285393266706e-01 1.4011295147878827e-01 1.7901539001756878e-01
421 3.9546115297853213e-01 3.9764683746517387e-01 7.8182735344371512e-01
422 3.9621422599041839e-01 1.0000000000000000e+00 5.9271288227849384e-01
423 3.9649744135907339e-01 1.0000000000000000e+00 1.0510818479754502e-01
424 4.0234742736294049e-01 2.6076834605089561e-01 8.5885742531186304e-01
425 4.0255525180598001e-01 0.0000000000000000e+00 8.2936774535803404e-01
426 4.0379009646872233e-01 7.7696076100656353e-01 7.4459207162142360e-01
427 4.0790927920647968e-01 6.5530806283238319e-01 1.0000000000000000e+00
428 4.0915320359481488e-01 8.7279764948440075e-01 1.6362140669726538e-01
429 4.0941788726514550e-01 0.0000000000000000e+00 1.1071327870705723e-01
430 4.1099983268953427e-01 6.4074259003613165e-01 0.0000000000000000e+00
431 4.1122042364928313e-01 8.9404192531039817e-01 6.9080754957738799e-01
432 4.1135529976966484e-01 6.2362267228837931e-01 2.7160643537293322e-01
433 4.1177274815926740e-01 1.4864064524244680e-01 4.8515408098488932e-01
434 4.1312030746412265e-01 3.3498054524694953e-01 1.0000000000000000e+00
435 4.1597359396135769e-01 2.6557388812510047e-01 4.8486491840289414e-01
436 4.1645395911335858e-01 1.0000000000000000e+00 4.3146127652010752e-01
437 4.1974132378867945e-01 6.8735855807036961e-01 5.4205067393825812e-01
438 4.2151145968130738e-01 3.6212044693917733e-01 1.5301262629308926e-01
439 4.2151390137755307e-01 0.0000000000000000e+00 2.0039859614311084e-01
440 4.2161591167890977e-01 6.0898879273147077e-01 8.2241718031582156e-01
441 4.2217499838338973e-01 1.8970343206626136e-01 3.5376506833422922e-01
442 4.2246483036030924e-01 7.6058931153453324e-01 0.0000000000000000e+00
443 4.2258257652176451e-01 8.5869404237748426e-01 0.0000000000000000e+00
444 4.2258652653045814e-01 7.4649217337458307e-01 2.2120550364623243e-01
445 4.2285770755059110e-01 1.0000000000000000e+00 1.0000000000000000e+00
446 4.2344962712421746e-01 7.2471149095865961e-01 8.2994435111966625e-01
447 4.2486650195411457e-01 8.8863363841156984e-01 8.0000434239184548e-01
448 4.2516342047846956e-01 5.9016015459191717e-01 4.9278731083083149e-01
449 4.2527374356834802e-01 4.8391396905610412e-01 1.0000000000000000e+00
450 4.2635655333254679e-01 0.0000000000000000e+00 7.3797556501574069e-01
451 4.2678343401328467e-01 1.0000000000000000e+00 5.0795760209051499e-01
452 4.2796816928333020e-01 0.0000000000000000e+00 5.7097043141480486e-01
453 4.3180293949180021e-01 1.0274428103530281e-01 1.0000000000000000e+00
454 4.3307661091855959e-01 4.0201553403616191e-01 6.8652980388494744e-01
455 4.3513034977701137e-01 6.5437037223039174e-01 4.2565594080452440e-01
456 4.3699538127636511e-01 5.3355566354427886e-01 2.7046223082455201e-01
457 4.3779656584833004e-01 0.0000000000000000e+00 4.0929089259666374e-01
458 4.3798869063089430e-01 8.8146704198437265e-01 2.7803232607780115e-01
459 4.3898142926715156e-01 8.7761046092429318e-01 4.6623914913921344e-01
460 4.3939006855907975e-01 1.0849425568561641e-01 0.0000000000000000e+00
461 4.3983406101158151e-01 0.0000000000000000e+00 3.5211828849834320e-01
462 4.4094517412371009e-01 3.8851890703510122e-01 4.0187064693917202e-01
463 4.4126315593403503e-01 1.6108926072787164e-01 5.6902616111519921e-01
464 4.4192219068458360e-01 5.1519816608457769e-01 8.1405408285786063e-01
465 4.4392513853320870e-01 6.5211272086196093e-01 6.1873556627571069e-01
466 4.4589951256389593e-01 6.2384814376424591e-01 7.3994460376901006e-01
467 4.4688809001758939e-01 4.1060771832567450e-01 2.3799727477448390e-01
468 4.4732981675151812e-01 0.0000000000000000e+00 4.5568169422657667e-01
469 4.4846165765016899e-01 8.2518771339669827e-01 4.0103746802684331e-01
470 4.4914733207531410e-01 4.3606147783300114e-01 8.4257271882719509e-01
471 4.4942894421014978e-01 5.6902509696933545e-01 1.5295458252413741e-01
472 4.5078827544051181e-01 2.3925192134166257e-01 1.2268546585841822e-01
473 4.5118509982383853e-01 6.0429763197905872e-01 0.0000000000000000e+00
474 4.5142238019809044e-01 8.1320341516569661e-01 1.0000000000000000e+00
475 4.5150542329351706e-01 8.0837937046313779e-01 8.5714258946541344e-01
476 4.5173979023075878e-01 3.9371313088183824e-01 5.2771713601183712e-01
477 4.5208175006860618e-01 2.2083325255801556e-01 1.0000000000000000e+00
478 4.5232197554719933e-01 1.0000000000000000e+00 2.9441207397415275e-01
479 4.5524076518574080e-01 4.5166194524683079e-01 0.0000000000000000e+00
480 4.5635186210134215e-01 3.4319998443221517e-01 1.0000000000000000e+00
481 4.5655901394901849e-01 0.0000000000000000e+00 8.5268723428063176e-01
482 4.5656868809936901e-01 7.1095621199113324e-01 3.2417001756889507e-01
483 4.5677429264817193e-01 7.2812419717528054e-01 4.7459595560115164e-01
484 4.5680921299989680e-01 1.0000000000000000e+00 0.0000000000000000e+00
485 4.5723996384279603e-01 6.5516240967175288e-01 2.0862710626807873e-01
486 4.5791094735097504e-01 3.3935867446260393e-01 0.0000000000000000e+00
487 4.5883491106756841e-01 3.0290872734184754e-01 5.7390125377714996e-01
488 4.5964253213217271e-01 4.6607328310187379e-01 1.3243093004566547e-01
489 4.6125972866909004e-01 1.0000000000000000e+00 1.4389445006399285e-01
490 4.6281146557595909e-01 2.0360975894276245e-01 7.2867776588713062e-01
491 4.6377073807340502e-01 2.8835763200072895e-01 2.3908860475536292e-01
492 4.6573095109438944e-01 0.0000000000000000e+00 2.6049060270876645e-01
493 4.6809409013272535e-01 8.1078974470253529e-01 6.5051504698840990e-01
494 4.6950073668690673e-01 1.0000000000000000e+00 7.8512550023373739e-01
495 4.7057212786256708e-01 6.2401336978007194e-01 1.0000000000000000e+00
496 4.7221742635837843e-01 4.9921997026233295e-01 4.9595864800305511e-01
497 4.7235854240856368e-01 1.0956809535210280e-01 6.6014907005953816e-01
498 4.7278062907614227e-01 0.0000000000000000e+00 0.0000000000000000e+00
499 4.7338039243115315e-01 2.6617803550029140e-01 6.6215059690740996e-01
500 4.7365963765613833e-01 5.5997684001762171e-01 6.8261992316300579e-01
501 4.7577475628609839e-01 5.6737931879203718e-01 3.7080198778799450e-01
502 4.7770147840689520e-01 1.0000000000000000e+00 1.0000000000000000e+00
503 4.8102537195256784e-01 1.5621637011141348e-01 2.3356162274771700e-01
504 4.8109080654514336e-01 5.6539397770263156e-01 5.8528810824127031e-01
505 4.8152056453670256e-01 7.7909705232254922e-01 1.6102374038065759e-01
506 4.8152497597849309e-01 0.0000000000000000e+00 6.8110473086496881e-01
507 4.8153585696406948e-01 8.8867340763559322e-01 3.5298486214369235e-01
508 4.8250413805087222e-01 6.8920088062334772e-01 0.0000000000000000e+00
509 4.8405584540195673e-01 8.0273771273816108e-01 7.3539667842074663e-01
510 4.8736971458056166e-01 2.2078335965349855e-01 8.3453565378803940e-01
511 4.8749011090370181e-01 2.5279848728781645e-01 3.5686960277048652e-01
512 4.8760729817612569e-01 4.5273802721081974e-01 5.9599992841486593e-01
513 4.9067779840411990e-01 6.9992198726523736e-01 6.8291854069954372e-01
514 4.9156919014269440e-01 8.8360158553037127e-01 1.3357447645367221e-01
515 4.9197629655697328e-01 2.2236350953394482e-01 0.0000000000000000e+00
516 4.9277430997424421e-01 1.0000000000000000e+00 6.5389945565605390e-01
517 4.9379641140463532e-01 3.6745358788471755e-01 3.2924838394790312e-01
518 5.0002383169966236e-01 4.3365046974073357e-01 7.5962549898575893e-01
519 5.0212129072774647e-01 3.5032350959666059e-01 8.7651086384077570e-01
520 5.0361916902126980e-01 1.0000000000000000e+00 4.5634982547085373e-01
521 5.0606114400045943e-01 8.2054155992377775e-01 2.8439153906560188e-01
522 5.0626148778377411e-01 8.6491110277999583e-01 8.0099429488049290e-01
523 5.0736958336915572e-01 5.0476217483291874e-01 1.0000000000000000e+00
524 5.0751956303671486e-01 1.4522658506770561e-01 1.0000000000000000e+00
525 5.0763480374812275e-01 2.6242078442904054e-01 1.0000000000000000e+00
526 5.0808464099805906e-01 7.8855069638658093e-01 5.7413017856706305e-01
527 5.0811089312002600e-01 1.1613024282214179e-01 5.3076563567950041e-01
528 5.0918357270158210e-01 7.1311653243958273e-01 1.0000000000000000e+00
529 5.1114992735629095e-01 1.7629151053929309e-01 1.2444172768366031e-01
530 5.1116379252961930e-01 1.2381178126018774e-01 3.5123440894300578e-01
531 5.1148928103523461e-01 6.8808779254627139e-01 5.3731048999982844e-01
532 5.1264395759029202e-01 1.6243563591328297e-01 4.4398135502909430e-01
533 5.1505259826417438e-01 0.0000000000000000e+00 5.3335863412399476e-01
534 5.1528063032400162e-01 3.3566629338418003e-01 1.9142084265518147e-01
535 5.1543884775910465e-01 1.0000000000000000e+00 2.2732580093454496e-01
536 5.1552614676920427e-01 2.9413656015578693e-01 4.9102849689330336e-01
537 5.1571553842974849e-01 0.0000000000000000e+00 1.0000000000000000e+00
538 5.1580525305392111e-01 8.1678584284976863e-01 1.0000000000000000e+00
539 5.1682742272527193e-01 5.4055008960918782e-01 0.0000000000000000e+00
540 5.2126104897078807e-01 6.3675552422444104e-01 8.3722771830928389e-01
541 5.2181313298566334e-01 6.6598926642764689e-01 1.3163257213093177e-01
542 5.2242659713910633e-01 3.3666286738582096e-01 1.0743334703863008e-01
543 5.2260622704143267e-01 2.9305181859596308e-01 7.9617518237704499e-01
544 5.2415100386695002e-01 6.6046790897368779e-01 3.6175776380166508e-01
545 5.2438167292970561e-01 1.0000000000000000e+00 7.1826809032705452e-01
546 5.2452160831865202e-01 7.7621808333382014e-01 0.0000000000000000e+00
547 5.2481386227826399e-01 1.2588614096395423e-01 0.0000000000000000e+00
548 5.2570282852280659e-01 3.2952681380303878e-01 4.0257458562458998e-01
549 5.2604080067287506e-01 5.3235189694233698e-01 3.0005252942112798e-01
550 5.2627864303723848e-01 1.0000000000000000e+00 2.8270105615866303e-01
551 5.2645299526062383e-01 1.0000000000000000e+00 3.7766250767930915e-01
552 5.2743309957018858e-01 2.4580581896685194e-01 5.7904073144260038e-01
553 5.2743974401870464e-01 0.0000000000000000e+00 8.5120103374732503e-01
554 5.2950229360520573e-01 4.3123406896437860e-01 0.0000000000000000e+00
555 5.2964914296912624e-01 8.0091845071561041e-01 4.1478466509789280e-01
556 5.2972628293672408e-01 5.5974788800288000e-01 7.4839000563082103e-01
557 5.3038851464313885e-01 5.8617398873328930e-01 1.8226256840110042e-01
558 5.3053896055018623e-01 4.4658325864927451e-01 8.6231028255621223e-01
559 5.3157901875281199e-01 4.5171951112456110e-01 3.3237117585971149e-01
560 5.3294490598372257e-01 4.4364764636850446e-01 2.4427063737366184e-01
561 5.3303548276516644e-01 1.0000000000000000e+00 8.2319014561474668e-01
562 5.3331277598374127e-01 6.8311186780713928e-01 7.6300647023438184e-01
563 5.3351692388425165e-01 8.7379715509020572e-01 6.0041864607219009e-01
564 5.3600907573317780e-01 5.1219524720947152e-01 4.2108080090723243e-01
565 5.3634184806755958e-01 0.0000000000000000e+00 7.8123328127781666e-01
566 5.3678803299876221e-01 8.5486697032382308e-01 1.0000000000000000e+00
567 5.3762077804489361e-01 0.0000000000000000e+00 1.4904821317202713e-01
568 5.3824112536131363e-01 4.7740920866596082e-01 6.6362630523418142e-01
569 5.3907507540467026e-01 1.0000000000000000e+00 5.7784429667248594e-01
570 5.3919085582252202e-01 8.4094082939199477e-01 0.0000000000000000e+00
571 5.3941907312576121e-01 6.0427402643710681e-01 5.1024121189021909e-01
572 5.4003614567361402e-01 2.4782899286476645e-01 2.3011155893234547e-01
573 5.4668698728313081e-01 0.0000000000000000e+00 4.0698022609105367e-01
574 5.4801502717905171e-01 1.0000000000000000e+00 0.0000000000000000e+00
575 5.4922260983425741e-01 3.7433247490069460e-01 0.0000000000000000e+00
576 5.5090220948487323e-01 0.0000000000000000e+00 0.0000000000000000e+00
577 5.5205616643925026e-01 6.9382094744331613e-01 6.2440149805953715e-01
578 5.5224501829011230e-01 0.0000000000000000e+00 7.3638894183044823e-01
579 5.5275889259857214e-01 7.6450124382545315e-01 8.0173818870610913e-01
580 5.5470712099780428e-01 3.0504019230382345e-01 6.5946439499319065e-01
581 5.5602271596782815e-01 6.2978506402464896e-01 0.0000000000000000e+00
582 5.5640502218845533e-01 0.0000000000000000e+00 6.3713465057301477e-01
583 5.5661541276889726e-01 6.4561901798063503e-01 2.5425792737718139e-01
584 5.5683187582937033e-01 4.9113218411521087e-01 5.1144007771502042e-01
585 5.5735182694782226e-01 5.0709807656114314e-01 1.4566000951257915e-01
586 5.5887546252290510e-01 7.3312030937641870e-01 2.3706531302223965e-01
587 5.6186720895006814e-01 0.0000000000000000e+00 2.0727884219841958e-01
588 5.6188521848624151e-01 7.6873966055029141e-01 3.2409519880012172e-01
589 5.6263622215185105e-01 1.0000000000000000e+00 1.0000000000000000e+00
590 5.6334640556398508e-01 5.4065258123588689e-01 8.4117984278255886e-01
591 5.6437022766068623e-01 4.0249681497912199e-01 5.7906045592081934e-01
592 5.6538844429205937e-01 1.0000000000000000e+00 1.0000000000000000e+00
593 5.6751855297566345e-01 7.9854114047893621e-01 7.0451593819065206e-01
594 5.6753047011188318e-01 3.6891874460255414e-01 4.7050363199195600e-01
595 5.6775992918768803e-01 8.7729365938885850e-01 4.7560528508393490e-01
596 5.6847885174199730e-01 1.4402545505283115e-01 6.8069870270039301e-01
597 5.6930569206234494e-01 4.1746060842097898e-01 1.0000000000000000e+00
598 5.6986483864909976e-01 8.3783516743252728e-01 2.0831370715583758e-01
599 5.7151199291589350e-01 1.0978813806315163e-01 2.2895604620005486e-01
600 5.7438202206392697e-01 7.1037688158157886e-01 4.5925345684701729e-01
601 5.7474256054723560e-01 1.8383656180317950e-01 7.8513824110513930e-01
602 5.7661378379534112e-01 1.9370881051287681e-01 8.9615570726324312e-01
603 5.7696693561622336e-01 5.9253467948915262e-01 6.3575794785082906e-01
604 5.8241378013856604e-01 2.3195352737638189e-01 4.8765495000059889e-01
605 5.8244023550487867e-01 1.0134948096727733e-01 4.5847310408716940e-01
606 5.8257407581290932e-01 1.0000000000000000e+00 4.4841989964294909e-01
607 5.8616055033687664e-01 2.8202521055840546e-01 7.3439702595980239e-01
608 5.8621452110604755e-01 1.0000000000000000e+00 2.7679101166236991e-01
609 5.8641810641713665e-01 4.4225302593079524e-01 7.9865401896174149e-01
610 5.8733826799059008e-01 0.0000000000000000e+00 3.2438773686459216e-01
611 5.8765614001260502e-01 8.5254922078109052e-01 8.6830740653785787e-01
612 5.8829601281349109e-01 6.5345691892885271e-01 1.0000000000000000e+00
613 5.8906457400336576e-01 1.0000000000000000e+00 7.2518673113730625e-01
614 5.9320198005283364e-01 2.7669028350300817e-01 1.6389119279222153e-01
615 5.9338385687515705e-01 1.5498390368559029e-01 1.0000000000000000e+00
616 5.9350534044455627e-01 7.6652780339007798e-01 1.0000000000000000e+00
617 5.9511112662978771e-01 2.6313934240224601e-01 8.3113101287490121e-01
618 5.9563347092617958e-01 4.0322586943991262e-01 7.0939867021245162e-01
619 5.9748295310087207e-01 3.8199010567855041e-01 1.6911158874818499e-01
620 5.9780922107807211e-01 3.1919408373528513e-01 2.6881721458570984e-01
621 5.9796098464078762e-01 2.6873428416771683e-01 0.0000000000000000e+00
622 6.0096002145429872e-01 5.4807651968275473e-01 1.0000000000000000e+00
623 6.0384474947060496e-01 7.4659033630872917e-01 5.3704969534070590e-01
624 6.0392151259515670e-01 8.6674649317978769e-01 1.2094774102262006e-01
625 6.0605094812148907e-01 1.0000000000000000e+00 1.6711054771245246e-01
626 6.0769702234665224e-01 1.2415060860050725e-01 0.0000000000000000e+00
627 6.0881307376134686e-01 5.8738038010330362e-01 7.2285743416464143e-01
628 6.0941939577987270e-01 8.7476037458282563e-01 7.3816592551488758e-01
629 6.1069369717697264e-01 5.4975236764150515e-01 3.3428288748294149e-01
630 6.1183697993879371e-01 6.4296635445424877e-01 0.0000000000000000e+00
631 6.1241181196996175e-01 5.5901704601884505e-01 0.0000000000000000e+00
632 6.1244661783774712e-01 0.0000000000000000e+00 1.0000000000000000e+00
633 6.1263683682947911e-01 2.5836246789353123e-01 1.0000000000000000e+00
634 6.1286275620695430e-01 7.5932938290295371e-01 0.0000000000000000e+00
635 6.1315907013390381e-01 2.3907849190988220e-01 5.7042766260972999e-01
636 6.1362466269779081e-01 5.8025352705855449e-01 4.3700824438711033e-01
637 6.1479683437113075e-01 1.0000000000000000e+00 0.0000000000000000e+00
638 6.1506122600945901e-01 4.5165446678204607e-01 0.0000000000000000e+00
639 6.1744645647063967e-01 7.7203490512787243e-01 1.4150303951406112e-01
640 6.1759388349756239e-01 2.1072550481997684e-01 3.3243706199175582e-01
641 6.1775778052914676e-01 4.5521647081444100e-01 3.4261781483190984e-01
642 6.1808002889337066e-01 0.0000000000000000e+00 1.3820698330543835e-01
643 6.1887253083894667e-01 3.5109587171374074e-01 1.0000000000000000e+00
644 6.2066505157832497e-01 6.3134891893402056e-01 7.9850753350401416e-01
645 6.2336698457996220e-01 1.0000000000000000e+00 6.1245622131768207e-01
646 6.2440217665662046e-01 8.6022144882863250e-01 0.0000000000000000e+00
647 6.2450834876495764e-01 0.0000000000000000e+00 5.0787248660718498e-01
648 6.2572511626306226e-01 1.5426602110542892e-01 6.1143376984528131e-01
649 6.2883443861388233e-01 8.1048375041089427e-01 4.7868770382865983e-01
650 6.2909521092687393e-01 6.0696320412809113e-01 5.3745370642999291e-01
651 6.2965693702256686e-01 0.0000000000000000e+00 5.9511995541886675e-01
652 6.2972578982971350e-01 1.2884418581806600e-01 1.0000000000000000e+00
653 6.3163940375849537e-01 3.5761451744562656e-01 7.7309106303316144e-01
654 6.3249146469141082e-01 3.3461494567125183e-01 3.8802521419692132e-01
655 6.3257511316694048e-01 3.1550075686716378e-01 4.8699470050910110e-01
656 6.3340584738184746e-01 6.8937489382403327e-01 7.3666875900638551e-01
657 6.3355140930449094e-01 4.7381471069076075e-01 1.0000000000000000e+00
658 6.3467483197539265e-01 7.2431370687718921e-01 8.1637503207757123e-01
659 6.3534648739161625e-01 8.2898625136069981e-01 2.8847736201772606e-01
660 6.3595252015713888e-01 4.5958111407780106e-01 4.6513758628693647e-01
661 6.3606399090397681e-01 1.0000000000000000e+00 1.0000000000000000e+00
662 6.3646450242678743e-01 8.2792199946233513e-01 6.1814684401768571e-01
663 6.3746866360534826e-01 0.0000000000000000e+00 7.4389051490899183e-01
664 6.3774196888679213e-01 6.5278037917060627e-01 1.8272333942374488e-01
665 6.3802489781160743e-01 0.0000000000000000e+00 8.2900062426105503e-01
666 6.3815506480233863e-01 1.4988924460130357e-01 5.2400421189168178e-01
667 6.3915633124474369e-01 1.0000000000000000e+00 7.9921438142182044e-01
668 6.4102235419629949e-01 1.7196987696359914e-01 4.1169093815203750e-01
669 6.4145959973123934e-01 3.4116360922431171e-01 6.4008374301639481e-01
670 6.4253810474379380e-01 7.7249715039215372e-01 3.7696957582778462e-01
671 6.4335137695569122e-01 3.8373927302119470e-01 1.0000000000000000e+00
672 6.4439915830484751e-01 6.3433958587521111e-01 3.1009646032824467e-01
673 6.4475537438787600e-01 1.0000000000000000e+00 2.5609609847420411e-01
674 6.4494649180014896e-01 4.2927359546968386e-01 2.5252004195498706e-01
675 6.4506353824233642e-01 5.2873669329764872e-01 2.0308943865196671e-01
676 6.4633958996392771e-01 4.9020519286224334e-01 7.3059596534100590e-01
677 6.4839557247969981e-01 8.8979331093439629e-01 3.5197522989672231e-01
678 6.4901112651317017e-01 5.0450842142010044e-01 5.5775423157105197e-01
679 6.5029499307907435e-01 1.0000000000000000e+00 6.5470734397736552e-01
680 6.5075481881971686e-01 3.6643034681590958e-01 5.5750662808705120e-01
681 6.5212559276477744e-01 4.7989950700288342e-01 0.0000000000000000e+00
682 6.5629955053178757e-01 1.0000000000000000e+00 5.1307147077861492e-01
683 6.5638991714391359e-01 5.4719736827127863e-01 0.0000000000000000e+00
684 6.5662536107806047e-01 2.5302105033326761e-01 7.7326773429197759e-01
685 6.5768044224708266e-01 0.0000000000000000e+00 4.1303560287899171e-01
686 6.5797154097663746e-01 1.0000000000000000e+00 8.5367653602867621e-01
687 6.5862271324180310e-01 7.3468055616908579e-01 2.0718504967600018e-01
688 6.5961734784743453e-01 8.1107972102777670e-01 7.8513383795718494e-01
689 6.5987664296014048e-01 6.0923860977982547e-01 6.4833490311393105e-01
690 6.6131887897056274e-01 1.6938296026590136e-01 8.1724290788266796e-01
691 6.6212220865493154e-01 0.0000000000000000e+00 2.4580910990669838e-01
692 6.6251023200859305e-01 1.1343242423621702e-01 1.5147841724179079e-01
693 6.6294770488807264e-01 7.0968465272244230e-01 1.0000000000000000e+00
694 6.6491961281930800e-01 8.4210854247538847e-01 1.0000000000000000e+00
695 6.6540986931104074e-01 6.9846331496007086e-01 5.7759965743436081e-01
696 6.6801229779742755e-01 2.2996791807266634e-01 1.6477786630496141e-01
697 6.6831182068206862e-01 1.3695569530355978e-01 2.3209399520083424e-01
698 6.6861558078692995e-01 4.7493801463159829e-01 8.8370787827256314e-01
699 6.7003303701752803e-01 3.5095480941046309e-01 0.0000000000000000e+00
700 6.7058513987122204e-01 3.4511180363414024e-01 1.9996426292135422e-01
701 6.7360657246112021e-01 7.1440943679015056e-01 0.0000000000000000e+00
702 6.7420427255831017e-01 2.2675227864829300e-01 1.0000000000000000e+00
703 6.7788052607041682e-01 6.1812599019685788e-01 1.0000000000000000e+00
704 6.7896570269711132e-01 5.5334244606998284e-01 1.0000000000000000e+00
705 6.7919656675616891e-01 0.0000000000000000e+00 0.0000000000000000e+00
706 6.7962795742426985e-01 0.0000000000000000e+00 3.2482234988738667e-01
707 6.8306911532658809e-01 1.0000000000000000e+00 3.5845160006664312e-01
708 6.8383782791952441e-01 2.6614417053401218e-01 6.7991814982628318e-01
709 6.8475540860789530e-01 3.0845047814596133e-01 2.8977838717392695e-01
710 6.8577487257694181e-01 4.2304372879426599e-01 3.9141395078858959e-01
711 6.8607267919111958e-01 6.7184645530954279e-01 3.7943456030899558e-01
712 6.8698033112918666e-01 1.0000000000000000e+00 1.0000000000000000e+00
713 6.8825547715560598e-01 6.5654653741687419e-01 0.0000000000000000e+00
714 6.8974455056167128e-01 1.2944245736132279e-01 1.0000000000000000e+00
715 6.9280340981626798e-01 2.0812109746355448e-01 4.8958092150622334e-01
716 6.9569018153567930e-01 5.4895177370654713e-01 8.3725359339752270e-01
717 6.9760974935237319e-01 1.0000000000000000e+00 0.0000000000000000e+00
718 7.0132218213871089e-01 4.8004521774276621e-01 6.3363116695071731e-01
719 7.0142804943559511e-01 8.3636535216659724e-01 1.3107233995747924e-01
720 7.0146455451572176e-01 0.0000000000000000e+00 4.9458682776246571e-01
721 7.0254514241983557e-01 5.6220000850910334e-01 3.1915007962718578e-01
722 7.0389517116418143e-01 0.0000000000000000e+00 1.0000000000000000e+00
723 7.0392801348170830e-01 2.7241847467246638e-01 4.2422586092380110e-01
724 7.0422819555937910e-01 8.2245197603593390e-01 5.2853974582237839e-01
725 7.0462937922996183e-01 0.0000000000000000e+00 7.0220667562637584e-01
726 7.0605673144445225e-01 8.6432612162904521e-01 6.9880627468350764e-01
727 7.0730283293645635e-01 1.6046711407294015e-01 0.0000000000000000e+00
728 7.0813068247938760e-01 1.8380907328805451e-01 7.4665146302415819e-01
729 7.0820049281409292e-01 0.0000000000000000e+00 5.2724835378283719e-01
730 7.1310248335403048e-01 2.5786992002455794e-01 5.9496274672929039e-01
731 7.1506470338844164e-01 8.1584698568957392e-01 0.0000000000000000e+00
732 7.1510792765049924e-01 3.0013356843649597e-01 5.1990166854992992e-01
733 7.1795210771661311e-01 1.0000000000000000e+00 7.5327983713236368e-01
734 7.1934788969158259e-01 7.3715367475573768e-01 1.0000000000000000e+00
735 7.1988356280075760e-01 4.9506859369024414e-01 4.6747777088218750e-01
736 7.2019225930275577e-01 5.9912896336259680e-01 1.2697017021603246e-01
737 7.2065485634764948e-01 6.3234893878558862e-01 1.0000000000000000e+00
738 7.2066066430061615e-01 0.0000000000000000e+00 1.9518196764097373e-01
739 7.2096217085340197e-01 1.4751834317498508e-01 5.8797038903497534e-01
740 7.2107640934735751e-01 8.7369004071866141e-01 4.5337250842065746e-01
741 7.2174733912002076e-01 5.3269048515214534e-01 2.3891669177077396e-01
742 7.2238325784577717e-01 8.5207187446010257e-01 8.5930445827460378e-01
743 7.2290843440678254e-01 3.3849982273116008e-01 8.4333260575024882e-01
744 7.2374591264534482e-01 4.2991752745168199e-01 7.9192867465599270e-01
745 7.2687497296977421e-01 7.8954156500763961e-01 2.3686512632570472e-01
746 7.2909667715881810e-01 4.7807237050342755e-01 0.0000000000000000e+00
747 7.2962814139707000e-01 0.0000000000000000e+00 8.0483625215691501e-01
748 7.3090022991648607e-01 8.4074837952844217e-01 3.7123833835641162e-01
749 7.3142706196435880e-01 2.6016833534691231e-01 0.0000000000000000e+00
750 7.3323766291247250e-01 2.9583625804819547e-01 7.4630537305321820e-01
751 7.3406505018270307e-01 4.4825941295308946e-01 1.0000000000000000e+00
752 7.3444724442370291e-01 7.2745179587688702e-01 4.9058778165724037e-01
753 7.3534146286912194e-01 6.2650032510166087e-01 8.6235635301007441e-01
754 7.3540139931517057e-01 1.4996517502006418e-01 3.9232002028610363e-01
755 7.3595701363808397e-01 5.5748736309135649e-01 5.7545486374205224e-01
756 7.3631698335142826e-01 1.0578501159849178e-01 8.7140844908488224e-01
757 7.3683370745694643e-01 6.4680841129710243e-01 5.6530684646122076e-01
758 7.3944539528997832e-01 0.0000000000000000e+00 6.5783403282725073e-01
759 7.3996700549627414e-01 5.9634797118999794e-01 7.2816087231156801e-01
760 7.4148814638683969e-01 1.0000000000000000e+00 0.0000000000000000e+00
761 7.4155863765402807e-01 8.8308600091156486e-01 2.4510280032400036e-01
762 7.4191544919256502e-01 7.3057675850082981e-01 6.7758464023451903e-01
763 7.4277979376679237e-01 1.0000000000000000e+00 5.8452878079289650e-01
764 7.4314020294719052e-01 1.0000000000000000e+00 4.2600080903931520e-01
765 7.4471694837465841e-01 1.0000000000000000e+00 1.0191820766097602e-01
766 7.4528605301897710e-01 0.0000000000000000e+00 3.6901069777752427e-01
767 7.4784792628662122e-01 4.7202748450704901e-01 3.0706977613812825e-01
768 7.4799435125683156e-01 3.7706982106504422e-01 2.8090355993245031e-01
769 7.4868765541930482e-01 7.2302312428119142e-01 8.2546996311435183e-01
770 7.4995913994059826e-01 1.6472881480612958e-01 2.6484194986086895e-01
771 7.5073450123907348e-01 1.0000000000000000e+00 6.8224433057345990e-01
772 7.5116555592433665e-01 6.2600777902520366e-01 4.8139962793424823e-01
773 7.5172339991456560e-01 4.2408781933050077e-01 5.4138101864206123e-01
774 7.5404680850689543e-01 2.1340744352383859e-01 8.6392076514658678e-01
775 7.5414240128712817e-01 2.2630421190327743e-01 1.0000000000000000e+00
776 7.5590778459481844e-01 7.0839371892545822e-01 0.0000000000000000e+00
777 7.5805852745510205e-01 0.0000000000000000e+00 6.0524016876305287e-01
778 7.5871598372635041e-01 2.7830100084597531e-01 2.5907943117070253e-01
779 7.5885301434791252e-01 4.2237675223683985e-01 6.7152009853345296e-01
780 7.5946150390524836e-01 3.5788251400193294e-01 1.8166511255599993e-01
781 7.6037856289558825e-01 6.8838537206340056e-01 2.5861288699059470e-01
782 7.6205782908147679e-01 7.2499970359016919e-01 4.0854701891088530e-01
783 7.6319968884440037e-01 1.0000000000000000e+00 1.0000000000000000e+00
784 7.6437923447989820e-01 4.4562751799987771e-01 1.8339358553263846e-01
785 7.6518981957501608e-01 1.0000000000000000e+00 3.1502053042189337e-01
786 7.6707444952037296e-01 0.0000000000000000e+00 0.0000000000000000e+00
787 7.6815715152188557e-01 2.2372282984163808e-01 6.8182737743604360e-01
788 7.6888233997066979e-01 5.7006825756685098e-01 1.0000000000000000e+00
789 7.6980509438487321e-01 1.0000000000000000e+00 8.2204049971962778e-01
790 7.7116335437601169e-01 3.0024284705830367e-01 3.8162417851237784e-01
791 7.7144910862204785e-01 5.2644393290315883e-01 7.7936295509526765e-01
792 7.7250788454807651e-01 1.0000000000000000e+00 2.0990976021733232e-01
793 7.7257789781142538e-01 5.5984050210974445e-01 0.0000000000000000e+00
794 7.7536031109303671e-01 7.2094075914862654e-01 5.8464086942345794e-01
795 7.7560764952426875e-01 3.6582260285724499e-01 0.0000000000000000e+00
796 7.7933784075603163e-01 8.8623840733815562e-01 6.6242320468215043e-01
797 7.7957622063734333e-01 7.2258962161884366e-01 1.0000000000000000e+00
798 7.8225755365350702e-01 3.4351230749163586e-01 1.0000000000000000e+00
799 7.8286950786814158e-01 5.9134463937550485e-01 3.2968261607245175e-01
800 7.8291638681709164e-01 3.8677437852661350e-01 4.7268024544040960e-01
801 7.8372971475245545e-01 1.0000000000000000e+00 4.0789332548950419e-01
802 7.8515545034957135e-01 0.0000000000000000e+00 7.3330048893245725e-01
803 7.8529067123861662e-01 7.4633165441918792e-01 1.8675840078810174e-01
804 7.8605844964305993e-01 8.5597582600825772e-01 7.6325826208282943e-01
805 7.8612098939326702e-01 0.0000000000000000e+00 1.2626989566289365e-01
806 7.8657210608318273e-01 1.6616640701248012e-01 1.3649559223353419e-01
807 7.8877632430227618e-01 0.0000000000000000e+00 5.5428063470806233e-01
808 7.9240468543190645e-01 8.2180270048048265e-01 1.0000000000000000e+00
809 7.9252313260439000e-01 1.0000000000000000e+00 1.0000000000000000e+00
810 7.9263543342693910e-01 3.1229297204315254e-01 6.7648863285242866e-01
811 7.9364093951352932e-01 0.0000000000000000e+00 2.3084528122133632e-01
812 7.9389980931914950e-01 5.2330091185641603e-01 1.3864545290044258e-01
813 7.9598270889076939e-01 2.5607888983262256e-01 4.9793007630784941e-01
814 7.9640571579124197e-01 8.7390248169497087e-01 1.0000000000000000e+00
815 7.9693173838437015e-01 8.3920786945457360e-01 3.0743573469268282e-01
816 7.9913574262147091e-01 6.4347408979230469e-01 1.0771981548308387e-01
817 8.0017871236677329e-01 0.0000000000000000e+00 4.8653506391438439e-01
818 8.0129712811410503e-01 1.6908816090319734e-01 0.0000000000000000e+00
819 8.0262213891941059e-01 3.8245391941395018e-01 7.8192200549134350e-01
820 8.0450769015337920e-01 3.2440715173560880e-01 5.6730761391245565e-01
821 8.0461936693169378e-01 1.4848249757816340e-01 8.4588879694460939e-01
822 8.0501778490029685e-01 8.0335960410489760e-01 0.0000000000000000e+00
823 8.0604646473649000e-01 6.6657213838910179e-01 7.3610845558705951e-01
824 8.0749519571312467e-01 2.0427212399202627e-01 3.6918949981564386e-01
825 8.0753740225371806e-01 6.4508155638170706e-01 1.0000000000000000e+00
826 8.0845053490402530e-01 6.0178783882222675e-01 6.2645700866839005e-01
827 8.0901440553687975e-01 4.5413432946758153e-01 8.9308448908326976e-01
828 8.1077392410593596e-01 5.0012986722219499e-01 4.2860113864616411e-01
829 8.1106484743083973e-01 8.8028112803122660e-01 1.1069726228682870e-01
830 8.1119940141276214e-01 4.8527098442373012e-01 5.3095176568388713e-01
831 8.1291413437129223e-01 4.7512348056295184e-01 0.0000000000000000e+00
832 8.1325268217440849e-01 1.7346359360698058e-01 6.1741593482017398e-01
833 8.1445583066937266e-01 1.0000000000000000e+00 5.1269246863779794e-01
834 8.1583462301226173e-01 1.0000000000000000e+00 3.7245380287102042e-01
835 8.1592008100470415e-01 7.4874447198033012e-01 8.9703170069509008e-01
836 8.1907750593793971e-01 4.1295354782920213e-01 5.9119640647397276e-01
837 8.2173087366180109e-01 0.0000000000000000e+00 8.3220448408740932e-01
838 8.2198189826791901e-01 6.9336024668405605e-01 3.4600615115744127e-01
839 8.2202053148624465e-01 7.6859939734891913e-01 4.7141174804510189e-01
840 8.2369845550590448e-01 2.7182483661804918e-01 0.0000000000000000e+00
841 8.2452190669757008e-01 2.7349390276023516e-01 7.7228379825750437e-01
842 8.2489020132632063e-01 7.5598231525482662e-01 0.0000000000000000e+00
843 8.2596821179576718e-01 2.5796382472888929e-01 1.3607547033983303e-01
844 8.2844989547656755e-01 4.1428441969609769e-01 3.7274373020941715e-01
845 8.2874808718541415e-01 1.6054772752352517e-01 4.7257756596422235e-01
846 8.2967629165725132e-01 5.9423284211805560e-01 1.7339158884566164e-01
847 8.3011376205557053e-01 1.0000000000000000e+00 1.1696590696523122e-01
848 8.3232790538688695e-01 4.0258940138961324e-01 1.3098054205858470e-01
849 8.3238216973312074e-01 6.8521442402259725e-01 5.3290786967098103e-01
850 8.3248163108268547e-01 5.9446382092042860e-01 8.2028707809777657e-01
851 8.3261212521229766e-01 8.2599676894729868e-01 5.6842672436808783e-01
852 8.3332290322832814e-01 0.0000000000000000e+00 4.1013925024650738e-01
853 8.3501616661587807e-01 7.5359418297056624e-01 6.4263932522177203e-01
854 8.3604557479835628e-01 0.0000000000000000e+00 1.0000000000000000e+00
855 8.3750251094817829e-01 7.2896971009345890e-01 7.8648789162057675e-01
856 8.3770979378341259e-01 1.7552323601884379e-01 2.4679813053786492e-01
857 8.3869268116252305e-01 2.7315341778089752e-01 2.9625690788784487e-01
858 8.3899629466778247e-01 4.8701987905289434e-01 2.4502700988143181e-01
859 8.3959847358967865e-01 4.6433247594797905e-01 6.6586780156531411e-01
860 8.4080160111696056e-01 3.2973420215706639e-01 2.1490295432020751e-01
861 8.4153532437673462e-01 5.9033617079512768e-01 7.3364489675763989e-01
862 8.4370826030720836e-01 0.0000000000000000e+00 0.0000000000000000e+00
863 8.4741970432231351e-01 1.0000000000000000e+00 8.1129133323130054e-01
864 8.5079176558263481e-01 5.8146510151562691e-01 3.8722183508995861e-01
865 8.5161628442179182e-01 1.0441317794830356e-01 3.1844559237995945e-01
866 8.5287780620235598e-01 0.0000000000000000e+00 5.7793807370525219e-01
867 8.5428384178242256e-01 8.0575292659102893e-01 8.2219154829871832e-01
868 8.5752541259524728e-01 4.2508376083288746e-01 1.0000000000000000e+00
869 8.5938977717753695e-01 7.1449007858704272e-01 0.0000000000000000e+00
870 8.6019057791473907e-01 6.8923723387827507e-01 1.0000000000000000e+00
871 8.6107164587137786e-01 6.4270260832610726e-01 4.5701578766212370e-01
872 8.6127823405189641e-01 7.7014978404339662e-01 2.2907178111098547e-01
873 8.6147059327849074e-01 1.9995609796945196e-01 1.0000000000000000e+00
874 8.6330248534138887e-01 0.0000000000000000e+00 6.5702755980725869e-01
875 8.6333416630177662e-01 1.0000000000000000e+00 3.0053924747697752e-01
876 8.6409979665216208e-01 3.6508473816390419e-01 2.9773218011001135e-01
877 8.6411477006087312e-01 1.3971674781464100e-01 7.5438836269530440e-01
878 8.6526929344736692e-01 0.0000000000000000e+00 2.2588864875166073e-01
879 8.6539566281088542e-01 5.2123386277062533e-01 1.0000000000000000e+00
880 8.6571709241617001e-01 3.2797313895820679e-01 8.7336230275403426e-01
881 8.6592242206600534e-01 8.8959279188011298e-01 3.8264080358187569e-01
882 8.6628325102229375e-01 1.0000000000000000e+00 8.3787277903833535e-01
883 8.6692770298419586e-01 3.0249664772433904e-01 3.8142618404229411e-01
884 8.6827100699639670e-01 8.3507378862503612e-01 6.6067418594989147e-01
885 8.6929547991051914e-01 8.5892125325894964e-01 2.1599713899238746e-01
886 8.6985216612849114e-01 4.5467189754912646e-01 8.3136844367338458e-01
887 8.7029124103953359e-01 0.0000000000000000e+00 2.5024676206606589e-01
888 8.7029717196525369e-01 6.2180999818079730e-01 2.7376819639360572e-01
889 8.7049991491935474e-01 3.4661242562339734e-01 7.0703612358619383e-01
890 8.7177450105618270e-01 8.2727565910211143e-01 1.0000000000000000e+00
891 8.7180919911501331e-01 7.8928178017780670e-01 1.0000000000000000e+00
892 8.7242882146617873e-01 3.4667908410181225e-01 1.0000000000000000e+00
893 8.7450593451002634e-01 5.6524208502276507e-01 5.3063851117542560e-01
894 8.7511148609832168e-01 8.2236084511590524e-01 1.1390130558300740e-01
895 8.7545406555610072e-01 6.0541796728579955e-01 1.0000000000000000e+00
896 8.7636823691429144e-01 6.4172814624993368e-01 5.8985178191655330e-01
897 8.8029949740824021e-01 2.2518577626828676e-01 5.4946696151356833e-01
898 8.8145121332469245e-01 1.0000000000000000e+00 1.0000000000000000e+00
899 8.8171088121145880e-01 5.6253401227777100e-01 0.0000000000000000e+00
900 8.8178665268387924e-01 1.4372325908785893e-01 0.0000000000000000e+00
901 8.8531182173939305e-01 1.2095104929550188e-01 4.2453567078197640e-01
902 8.8634233181331712e-01 1.0000000000000000e+00 6.4348051632950287e-01
903 8.8691459116047910e-01 0.0000000000000000e+00 7.1439115986818802e-01
904 8.8815497558111856e-01 6.7886136974519118e-01 2.1135065880212556e-01
905 8.9000827726767873e-01 3.0664687759642573e-01 6.0761404184552792e-01
906 8.9083241698595439e-01 7.8444151806311557e-01 4.1009472966115273e-01
907 8.9132984113628022e-01 2.2162443938619386e-01 3.4708156459887163e-01
908 8.9221303989841205e-01 4.8809641605988868e-01 3.6711309258260383e-01
909 8.9227067140188554e-01 2.1836665003589847e-01 7.2906645032610817e-01
910 8.9259538033486951e-01 6.4851395486922192e-01 0.0000000000000000e+00
911 8.9643837131213155e-01 3.6247469786199965e-01 4.6950581335151054e-01
912 8.9644508128082534e-01 7.2427187996902687e-01 8.9706667246278982e-01
913 8.9735846881461967e-01 1.0000000000000000e+00 5.2802289488982246e-01
914 8.9887955410108433e-01 8.5100888531438434e-01 2.9923804708581936e-01
915 8.9938990934252194e-01 3.4487785134931298e-01 0.0000000000000000e+00
916 8.9950500489920504e-01 1.0000000000000000e+00 1.0000000000000000e+00
917 1.0000000000000000e+00 2.5985450637143370e-01 0.0000000000000000e+00
918 1.0000000000000000e+00 8.9475773624286414e-01 0.0000000000000000e+00
919 1.0000000000000000e+00 1.0000000000000000e+00 1.6609975210528680e-01
920 1.0000000000000000e+00 7.3156971715198438e-01 5.4138266788173561e-01
921 1.0000000000000000e+00 4.0977459439697200e-01 6.3844095546504065e-01
922 1.0000000000000000e+00 2.8756181926526803e-01 1.0000000000000000e+00
923 1.0000000000000000e+00 5.1238513842907651e-01 6.0219085903792413e-01
924 1.0000000000000000e+00 5.2413741032738215e-01 1.0406365449384322e-01
925 1.0000000000000000e+00 4.5425836520410834e-01 4.7104305377465816e-01
926 1.0000000000000000e+00 0.0000000000000000e+00 3.6926056140784469e-01
927 1.0000000000000000e+00 1.7087966625145398e-01 6.5282875231853532e-01
928 1.0000000000000000e+00 6.2483702679750874e-01 8.3734195570613756e-01
929 1.0000000000000000e+00 1.0000000000000000e+00 4.6005455455823246e-01
930 1.0000000000000000e+00 1.0000000000000000e+00 7.5355058413965126e-01
931 1.0000000000000000e+00 6.2483376614579966e-01 6.9199863091397107e-01
932 1.0000000000000000e+00 2.4664893032105681e-01 4.2628313744178542e-01
933 1.0000000000000000e+00 0.0000000000000000e+00 5.3118640708931586e-01
934 1.0000000000000000e+00 3.9410544025000238e-01 8.9833578655412383e-01
935 1.0000000000000000e+00 1.7389189938503830e-01 0.0000000000000000e+00
936 1.0000000000000000e+00 8.5408398455928480e-01 7.3200461234694403e-01
937 1.0000000000000000e+00 5.6999536106953685e-01 4.4848327475039196e-01
938 1.0000000000000000e+00 0.0000000000000000e+00 1.0000000000000000e+00
939 1.0000000000000000e+00 4.2918386601653230e-01 0.0000000000000000e+00
940 1.0000000000000000e+00 5.0548119641485978e-01 6.9081649743396001e-01
941 1.0000000000000000e+00 5.1910265814090795e-01 2.1162939503302525e-01
942 1.0000000000000000e+00 6.9404173089321752e-01 3.7369195453624188e-01
943 1.0000000000000000e+00 4.3120785157558372e-01 1.7277604302993388e-01
944 1.0000000000000000e+00 2.4004550291759186e-01 8.6175312061157028e-01
945 1.0000000000000000e+00 1.3122855505247777e-01 1.7685293235176303e-01
946 1.0000000000000000e+00 6.1569138462210460e-01 1.6094705095289108e-01
947 1.0000000000000000e+00 3.1743928537786359e-01 2.6424777980875863e-01
948 1.0000000000000000e+00 4.0883650112659864e-01 2.5957621595004737e-01
949 1.0000000000000000e+00 8.1259541011250647e-01 5.1028802710848553e-01
950 1.0000000000000000e+00 8.9095446903162456e-01 1.5896872930761854e-01
951 1.0000000000000000e+00 3.6277281500236719e-01 7.9031265462991684e-01
952 1.0000000000000000e+00 1.0000000000000000e+00 4.4384730912644182e-01
953 1.0000000000000000e+00 0.0000000000000000e+00 1.7217533343838379e-01
954 1.0000000000000000e+00 6.8874470327500603e-01 7.7400128399642909e-01
955 1.0000000000000000e+00 0.0000000000000000e+00 8.3703164308449629e-01
956 1.0000000000000000e+00 4.8543700078526975e-01 1.0000000000000000e+00
957 1.0000000000000000e+00 7.7164661891707120e-01 3.3260211291582709e-01
958 1.0000000000000000e+00 8.0413645674460899e-01 2.4289079547400846e-01
959 1.0000000000000000e+00 1.0000000000000000e+00 0.0000000000000000e+00
960 1.0000000000000000e+00 4.4390907244586364e-01 7.5366775980957379e-01
961 1.0000000000000000e+00 5.6445304851584399e-01 2.8638598966483347e-01
962 1.0000000000000000e+00 0.0000000000000000e+00 4.4889241171624594e-01
963 1.0000000000000000e+00 1.8237720437583751e-01 1.0000000000000000e+00
964 1.0000000000000000e+00 7.0873179282965171e-01 6.2825887788096346e-01
965 1.0000000000000000e+00 1.6022350147049877e-01 3.8397762056318852e-01
966 1.0000000000000000e+00 1.6562868884298643e-01 2.7456367607849486e-01
967 1.0000000000000000e+00 6.8230810908742390e-01 4.8919596693502715e-01
968 1.0000000000000000e+00 6.5347067099384848e-01 1.0000000000000000e+00
969 1.0000000000000000e+00 7.2218972853510432e-01 0.0000000000000000e+00
970 1.0000000000000000e+00 5.2968854348898708e-01 8.0567266260356063e-01
971 1.0000000000000000e+00 1.7958301667197454e-01 5.5798068048170890e-01
972 1.0000000000000000e+00 2.0345129284646926e-01 0.0000000000000000e+00
973 1.0000000000000000e+00 1.0000000000000000e+00 5.8580702850404520e-01
974 1.0000000000000000e+00 2.5568954301379510e-01 2.1435093295120752e-01
975 1.0000000000000000e+00 2.8294773601353695e-01 5.2000219409743753e-01
976 1.0000000000000000e+00 2.6471687503990482e-01 6.5896268278400316e-01
977 1.0000000000000000e+00 1.1279381700974050e-01 7.6480406669267642e-01
978 1.0000000000000000e+00 3.5442769982453876e-01 3.6875619857092284e-01
979 1.0000000000000000e+00 6.6554854834541433e-01 2.8851605657837398e-01
980 1.0000000000000000e+00 5.1351406772224673e-01 0.0000000000000000e+00
981 1.0000000000000000e+00 1.0000000000000000e+00 3.4462238511959553e-01
982 1.0000000000000000e+00 2.6022275159802799e-01 3.1755331260337882e-01
983 1.0000000000000000e+00 3.7362113773541716e-01 0.0000000000000000e+00
984 1.0000000000000000e+00 6.6799921758706460e-01 0.0000000000000000e+00
985 1.0000000000000000e+00 7.5773971064764223e-01 0.0000000000000000e+00
986 1.0000000000000000e+00 6.1191677714372017e-01 3.7906781780687748e-01
987 1.0000000000000000e+00 3.6678538273931660e-01 6.9329352415663470e-01
988 1.0000000000000000e+00 8.4197467111098834e-01 0.0000000000000000e+00
989 1.0000000000000000e+00 3.9677235492667784e-01 5.0336694518164238e-01
990 1.0000000000000000e+00 3.5939138147136807e-01 5.8930909333899595e-01
991 1.0000000000000000e+00 7.8491814691934814e-01 1.5659285834903675e-01
992 1.0000000000000000e+00 8.3553105430430508e-01 8.8654255430132700e-01
993 1.0000000000000000e+00 0.0000000000000000e+00 6.8973556233459510e-01
994 1.0000000000000000e+00 0.0000000000000000e+00 1.0000000000000000e+00
995 1.0000000000000000e+00 4.9587193362051896e-01 5.3698195291842266e-01
996 1.0000000000000000e+00 1.0000000000000000e+00 7.0232446560909423e-01
997 1.0000000000000000e+00 0.0000000000000000e+00 2.3165975026952457e-01
998 1.0000000000000000e+00 4.7359259783962421e-01 4.1404339200208862e-01
999 1.0000000000000000e+00 7.6593381390882764e-01 7.3981851832209655e-01
1000 1.0000000000000000e+00 4.5427181593458515e-01 6.5025892432398735e-01
1001 1.0000000000000000e+00 3.0925673898355777e-01 8.5892072062231584e-01
1002 1.0000000000000000e+00 1.5241731950822454e-01 4.7561746583629178e-01
1003 1.0000000000000000e+00 2.8657096689857853e-01 0.0000000000000000e+00
1004 1.0000000000000000e+00 8.1075290542307399e-01 4.3470846320991380e-01
1005 1.0000000000000000e+00 8.4653570898642005e-01 6.2377473037478470e-01
1006 1.0000000000000000e+00 1.1414540481306060e-01 6.3446029715586538e-01
1007 1.0000000000000000e+00 2.8649723182888559e-01 1.3424777095575507e-01
1008 1.0000000000000000e+00 0.0000000000000000e+00 1.2711563394012565e-01
1009 1.0000000000000000e+00 4.7659615260134852e-01 3.2337330941430797e-01
1010 1.0000000000000000e+00 1.0000000000000000e+00 6.4433812281983505e-01
1011 1.0000000000000000e+00 8.5978292548686275e-01 3.3662115380418667e-01
1012 1.0000000000000000e+00 1.0000000000000000e+00 1.0000000000000000e+00
1013 1.0000000000000000e+00 1.6831547805999911e-01 8.6571703644185172e-01
1014 1.0000000000000000e+00 4.6770139700468211e-01 8.5734363926854962e-01
1015 1.0000000000000000e+00 6.0070696054644945e-01 1.0106599216199753e-01
1016 1.0000000000000000e+00 1.0000000000000000e+00 7.9785105218384411e-01
1017 1.0000000000000000e+00 0.0000000000000000e+00 2.9748951163820386e-01
1018 1.0000000000000000e+00 3.8819584475102303e-01 1.3327705532200446e-01
1019 1.0000000000000000e+00 1.0000000000000000e+00 2.4155056938975350e-01
1020 1.0000000000000000e+00 3.8147334179743836e-01 1.0000000000000000e+00
1021 1.0000000000000000e+00 5.4360228450960579e-01 6.3750351892033674e-01
1022 1.0000000000000000e+00 7.8584942974728200e-01 1.0000000000000000e+00
1023 1.0000000000000000e+00 5.8370473631682429e-01 7.3903969959293281e-01
1024 1.0000000000000000e+00 5.9828069055037525e-01 2.1711052257171254e-01
1025 1.0000000000000000e+00 0.0000000000000000e+00 0.0000000000000000e+00
1026 1.0000000000000000e+00 2.5040195913353092e-01 7.6866824917201337e-01
1027 1.0000000000000000e+00 1.0000000000000000e+00 1.4292766958378911e-01
1028 1.0000000000000000e+00 8.7628149911547726e-01 1.0000000000000000e+00
1029 1.0000000000000000e+00 7.3410744552167351e-01 5.5226916296343664e-01
1030 1.0000000000000000e+00 8.7555160295866663e-01 5.1525390068680410e-01
1031 1.0000000000000000e+00 6.7068398042314836e-01 8.5432228366027418e-01
1032 1.0000000000000000e+00 6.0973952409982379e-01 5.4101091144974367e-01
1033 1.0000000000000000e+00 5.5702743474001837e-01 1.0000000000000000e+00
1034 1.0000000000000000e+00 8.5119546367076604e-01 7.8811255683339132e-01
1035 1.0000000000000000e+00 1.9194728471994393e-01 1.1284523209187662e-01
1036 1.0000000000000000e+00 0.0000000000000000e+00 0.0000000000000000e+00
1037 1.0000000000000000e+00 0.0000000000000000e+00 1.0000000000000000e+00
1038 1.0000000000000000e+00 1.0000000000000000e+00 0.0000000000000000e+00
1039 1.0000000000000000e+00 1.0000000000000000e+00 1.0000000000000000e+00
