1000  3  0  0
   0    0  0  0
   1    0.1111111111111111  0  0
   2    0.22222222222222221  0  0
   3    0.33333333333333331  0  0
   4    0.44444444444444442  0  0
   5    0.55555555555555558  0  0
   6    0.66666666666666663  0  0
   7    0.77777777777777779  0  0
   8    0.88888888888888884  0  0
   9    1  0  0
  10    0  0.1111111111111111  0
  11    0.1111111111111111  0.1111111111111111  0
  12    0.22222222222222221  0.1111111111111111  0
  13    0.33333333333333331  0.1111111111111111  0
  14    0.44444444444444442  0.1111111111111111  0
  15    0.55555555555555558  0.1111111111111111  0
  16    0.66666666666666663  0.1111111111111111  0
  17    0.77777777777777779  0.1111111111111111  0
  18    0.88888888888888884  0.1111111111111111  0
  19    1  0.1111111111111111  0
  20    0  0.22222222222222221  0
  21    0.1111111111111111  0.22222222222222221  0
  22    0.22222222222222221  0.22222222222222221  0
  23    0.33333333333333331  0.22222222222222221  0
  24    0.44444444444444442  0.22222222222222221  0
  25    0.55555555555555558  0.22222222222222221  0
  26    0.66666666666666663  0.22222222222222221  0
  27    0.77777777777777779  0.22222222222222221  0
  28    0.88888888888888884  0.22222222222222221  0
  29    1  0.22222222222222221  0
  30    0  0.33333333333333331  0
  31    0.1111111111111111  0.33333333333333331  0
  32    0.22222222222222221  0.33333333333333331  0
  33    0.33333333333333331  0.33333333333333331  0
  34    0.44444444444444442  0.33333333333333331  0
  35    0.55555555555555558  0.33333333333333331  0
  36    0.66666666666666663  0.33333333333333331  0
  37    0.77777777777777779  0.33333333333333331  0
  38    0.88888888888888884  0.33333333333333331  0
  39    1  0.33333333333333331  0
  40    0  0.44444444444444442  0
  41    0.1111111111111111  0.44444444444444442  0
  42    0.22222222222222221  0.44444444444444442  0
  43    0.33333333333333331  0.44444444444444442  0
  44    0.44444444444444442  0.44444444444444442  0
  45    0.55555555555555558  0.44444444444444442  0
  46    0.66666666666666663  0.44444444444444442  0
  47    0.77777777777777779  0.44444444444444442  0
  48    0.88888888888888884  0.44444444444444442  0
  49    1  0.44444444444444442  0
  50    0  0.55555555555555558  0
  51    0.1111111111111111  0.55555555555555558  0
  52    0.22222222222222221  0.55555555555555558  0
  53    0.33333333333333331  0.55555555555555558  0
  54    0.44444444444444442  0.55555555555555558  0
  55    0.55555555555555558  0.55555555555555558  0
  56    0.66666666666666663  0.55555555555555558  0
  57    0.77777777777777779  0.55555555555555558  0
  58    0.88888888888888884  0.55555555555555558  0
  59    1  0.55555555555555558  0
  60    0  0.66666666666666663  0
  61    0.1111111111111111  0.66666666666666663  0
  62    0.22222222222222221  0.66666666666666663  0
  63    0.33333333333333331  0.66666666666666663  0
  64    0.44444444444444442  0.66666666666666663  0
  65    0.55555555555555558  0.66666666666666663  0
  66    0.66666666666666663  0.66666666666666663  0
  67    0.77777777777777779  0.66666666666666663  0
  68    0.88888888888888884  0.66666666666666663  0
  69    1  0.66666666666666663  0
  70    0  0.77777777777777779  0
  71    0.1111111111111111  0.77777777777777779  0
  72    0.22222222222222221  0.77777777777777779  0
  73    0.33333333333333331  0.77777777777777779  0
  74    0.44444444444444442  0.77777777777777779  0
  75    0.55555555555555558  0.77777777777777779  0
  76    0.66666666666666663  0.77777777777777779  0
  77    0.77777777777777779  0.77777777777777779  0
  78    0.88888888888888884  0.77777777777777779  0
  79    1  0.77777777777777779  0
  80    0  0.88888888888888884  0
  81    0.1111111111111111  0.88888888888888884  0
  82    0.22222222222222221  0.88888888888888884  0
  83    0.33333333333333331  0.88888888888888884  0
  84    0.44444444444444442  0.88888888888888884  0
  85    0.55555555555555558  0.88888888888888884  0
  86    0.66666666666666663  0.88888888888888884  0
  87    0.77777777777777779  0.88888888888888884  0
  88    0.88888888888888884  0.88888888888888884  0
  89    1  0.88888888888888884  0
  90    0  1  0
  91    0.1111111111111111  1  0
  92    0.22222222222222221  1  0
  93    0.33333333333333331  1  0
  94    0.44444444444444442  1  0
  95    0.55555555555555558  1  0
  96    0.66666666666666663  1  0
  97    0.77777777777777779  1  0
  98    0.88888888888888884  1  0
  99    1  1  0
 100    0  0  0.1111111111111111
 101    0.1111111111111111  0  0.1111111111111111
 102    0.22222222222222221  0  0.1111111111111111
 103    0.33333333333333331  0  0.1111111111111111
 104    0.44444444444444442  0  0.1111111111111111
 105    0.55555555555555558  0  0.1111111111111111
 106    0.66666666666666663  0  0.1111111111111111
 107    0.77777777777777779  0  0.1111111111111111
 108    0.88888888888888884  0  0.1111111111111111
 109    1  0  0.1111111111111111
 110    0  0.1111111111111111  0.1111111111111111
 111    0.1111111111111111  0.1111111111111111  0.1111111111111111
 112    0.22222222222222221  0.1111111111111111  0.1111111111111111
 113    0.33333333333333331  0.1111111111111111  0.1111111111111111
 114    0.44444444444444442  0.1111111111111111  0.1111111111111111
 115    0.55555555555555558  0.1111111111111111  0.1111111111111111
 116    0.66666666666666663  0.1111111111111111  0.1111111111111111
 117    0.77777777777777779  0.1111111111111111  0.1111111111111111
 118    0.88888888888888884  0.1111111111111111  0.1111111111111111
 119    1  0.1111111111111111  0.1111111111111111
 120    0  0.22222222222222221  0.1111111111111111
 121    0.1111111111111111  0.22222222222222221  0.1111111111111111
 122    0.22222222222222221  0.22222222222222221  0.1111111111111111
 123    0.33333333333333331  0.22222222222222221  0.1111111111111111
 124    0.44444444444444442  0.22222222222222221  0.1111111111111111
 125    0.55555555555555558  0.22222222222222221  0.1111111111111111
 126    0.66666666666666663  0.22222222222222221  0.1111111111111111
 127    0.77777777777777779  0.22222222222222221  0.1111111111111111
 128    0.88888888888888884  0.22222222222222221  0.1111111111111111
 129    1  0.22222222222222221  0.1111111111111111
 130    0  0.33333333333333331  0.1111111111111111
 131    0.1111111111111111  0.33333333333333331  0.1111111111111111
 132    0.22222222222222221  0.33333333333333331  0.1111111111111111
 133    0.33333333333333331  0.33333333333333331  0.1111111111111111
 134    0.44444444444444442  0.33333333333333331  0.1111111111111111
 135    0.55555555555555558  0.33333333333333331  0.1111111111111111
 136    0.66666666666666663  0.33333333333333331  0.1111111111111111
 137    0.77777777777777779  0.33333333333333331  0.1111111111111111
 138    0.88888888888888884  0.33333333333333331  0.1111111111111111
 139    1  0.33333333333333331  0.1111111111111111
 140    0  0.44444444444444442  0.1111111111111111
 141    0.1111111111111111  0.44444444444444442  0.1111111111111111
 142    0.22222222222222221  0.44444444444444442  0.1111111111111111
 143    0.33333333333333331  0.44444444444444442  0.1111111111111111
 144    0.44444444444444442  0.44444444444444442  0.1111111111111111
 145    0.55555555555555558  0.44444444444444442  0.1111111111111111
 146    0.66666666666666663  0.44444444444444442  0.1111111111111111
 147    0.77777777777777779  0.44444444444444442  0.1111111111111111
 148    0.88888888888888884  0.44444444444444442  0.1111111111111111
 149    1  0.44444444444444442  0.1111111111111111
 150    0  0.55555555555555558  0.1111111111111111
 151    0.1111111111111111  0.55555555555555558  0.1111111111111111
 152    0.22222222222222221  0.55555555555555558  0.1111111111111111
 153    0.33333333333333331  0.55555555555555558  0.1111111111111111
 154    0.44444444444444442  0.55555555555555558  0.1111111111111111
 155    0.55555555555555558  0.55555555555555558  0.1111111111111111
 156    0.66666666666666663  0.55555555555555558  0.1111111111111111
 157    0.77777777777777779  0.55555555555555558  0.1111111111111111
 158    0.88888888888888884  0.55555555555555558  0.1111111111111111
 159    1  0.55555555555555558  0.1111111111111111
 160    0  0.66666666666666663  0.1111111111111111
 161    0.1111111111111111  0.66666666666666663  0.1111111111111111
 162    0.22222222222222221  0.66666666666666663  0.1111111111111111
 163    0.33333333333333331  0.66666666666666663  0.1111111111111111
 164    0.44444444444444442  0.66666666666666663  0.1111111111111111
 165    0.55555555555555558  0.66666666666666663  0.1111111111111111
 166    0.66666666666666663  0.66666666666666663  0.1111111111111111
 167    0.77777777777777779  0.66666666666666663  0.1111111111111111
 168    0.88888888888888884  0.66666666666666663  0.1111111111111111
 169    1  0.66666666666666663  0.1111111111111111
 170    0  0.77777777777777779  0.1111111111111111
 171    0.1111111111111111  0.77777777777777779  0.1111111111111111
 172    0.22222222222222221  0.77777777777777779  0.1111111111111111
 173    0.33333333333333331  0.77777777777777779  0.1111111111111111
 174    0.44444444444444442  0.77777777777777779  0.1111111111111111
 175    0.55555555555555558  0.77777777777777779  0.1111111111111111
 176    0.66666666666666663  0.77777777777777779  0.1111111111111111
 177    0.77777777777777779  0.77777777777777779  0.1111111111111111
 178    0.88888888888888884  0.77777777777777779  0.1111111111111111
 179    1  0.77777777777777779  0.1111111111111111
 180    0  0.88888888888888884  0.1111111111111111
 181    0.1111111111111111  0.88888888888888884  0.1111111111111111
 182    0.22222222222222221  0.88888888888888884  0.1111111111111111
 183    0.33333333333333331  0.88888888888888884  0.1111111111111111
 184    0.44444444444444442  0.88888888888888884  0.1111111111111111
 185    0.55555555555555558  0.88888888888888884  0.1111111111111111
 186    0.66666666666666663  0.88888888888888884  0.1111111111111111
 187    0.77777777777777779  0.88888888888888884  0.1111111111111111
 188    0.88888888888888884  0.88888888888888884  0.1111111111111111
 189    1  0.88888888888888884  0.1111111111111111
 190    0  1  0.1111111111111111
 191    0.1111111111111111  1  0.1111111111111111
 192    0.22222222222222221  1  0.1111111111111111
 193    0.33333333333333331  1  0.1111111111111111
 194    0.44444444444444442  1  0.1111111111111111
 195    0.55555555555555558  1  0.1111111111111111
 196    0.66666666666666663  1  0.1111111111111111
 197    0.77777777777777779  1  0.1111111111111111
 198    0.88888888888888884  1  0.1111111111111111
 199    1  1  0.1111111111111111
 200    0  0  0.22222222222222221
 201    0.1111111111111111  0  0.22222222222222221
 202    0.22222222222222221  0  0.22222222222222221
 203    0.33333333333333331  0  0.22222222222222221
 204    0.44444444444444442  0  0.22222222222222221
 205    0.55555555555555558  0  0.22222222222222221
 206    0.66666666666666663  0  0.22222222222222221
 207    0.77777777777777779  0  0.22222222222222221
 208    0.88888888888888884  0  0.22222222222222221
 209    1  0  0.22222222222222221
 210    0  0.1111111111111111  0.22222222222222221
 211    0.1111111111111111  0.1111111111111111  0.22222222222222221
 212    0.22222222222222221  0.1111111111111111  0.22222222222222221
 213    0.33333333333333331  0.1111111111111111  0.22222222222222221
 214    0.44444444444444442  0.1111111111111111  0.22222222222222221
 215    0.55555555555555558  0.1111111111111111  0.22222222222222221
 216    0.66666666666666663  0.1111111111111111  0.22222222222222221
 217    0.77777777777777779  0.1111111111111111  0.22222222222222221
 218    0.88888888888888884  0.1111111111111111  0.22222222222222221
 219    1  0.1111111111111111  0.22222222222222221
 220    0  0.22222222222222221  0.22222222222222221
 221    0.1111111111111111  0.22222222222222221  0.22222222222222221
 222    0.22222222222222221  0.22222222222222221  0.22222222222222221
 223    0.33333333333333331  0.22222222222222221  0.22222222222222221
 224    0.44444444444444442  0.22222222222222221  0.22222222222222221
 225    0.55555555555555558  0.22222222222222221  0.22222222222222221
 226    0.66666666666666663  0.22222222222222221  0.22222222222222221
 227    0.77777777777777779  0.22222222222222221  0.22222222222222221
 228    0.88888888888888884  0.22222222222222221  0.22222222222222221
 229    1  0.22222222222222221  0.22222222222222221
 230    0  0.33333333333333331  0.22222222222222221
 231    0.1111111111111111  0.33333333333333331  0.22222222222222221
 232    0.22222222222222221  0.33333333333333331  0.22222222222222221
 233    0.33333333333333331  0.33333333333333331  0.22222222222222221
 234    0.44444444444444442  0.33333333333333331  0.22222222222222221
 235    0.55555555555555558  0.33333333333333331  0.22222222222222221
 236    0.66666666666666663  0.33333333333333331  0.22222222222222221
 237    0.77777777777777779  0.33333333333333331  0.22222222222222221
 238    0.88888888888888884  0.33333333333333331  0.22222222222222221
 239    1  0.33333333333333331  0.22222222222222221
 240    0  0.44444444444444442  0.22222222222222221
 241    0.1111111111111111  0.44444444444444442  0.22222222222222221
 242    0.22222222222222221  0.44444444444444442  0.22222222222222221
 243    0.33333333333333331  0.44444444444444442  0.22222222222222221
 244    0.44444444444444442  0.44444444444444442  0.22222222222222221
 245    0.55555555555555558  0.44444444444444442  0.22222222222222221
 246    0.66666666666666663  0.44444444444444442  0.22222222222222221
 247    0.77777777777777779  0.44444444444444442  0.22222222222222221
 248    0.88888888888888884  0.44444444444444442  0.22222222222222221
 249    1  0.44444444444444442  0.22222222222222221
 250    0  0.55555555555555558  0.22222222222222221
 251    0.1111111111111111  0.55555555555555558  0.22222222222222221
 252    0.22222222222222221  0.55555555555555558  0.22222222222222221
 253    0.33333333333333331  0.55555555555555558  0.22222222222222221
 254    0.44444444444444442  0.55555555555555558  0.22222222222222221
 255    0.55555555555555558  0.55555555555555558  0.22222222222222221
 256    0.66666666666666663  0.55555555555555558  0.22222222222222221
 257    0.77777777777777779  0.55555555555555558  0.22222222222222221
 258    0.88888888888888884  0.55555555555555558  0.22222222222222221
 259    1  0.55555555555555558  0.22222222222222221
 260    0  0.66666666666666663  0.22222222222222221
 261    0.1111111111111111  0.66666666666666663  0.22222222222222221
 262    0.22222222222222221  0.66666666666666663  0.22222222222222221
 263    0.33333333333333331  0.66666666666666663  0.22222222222222221
 264    0.44444444444444442  0.66666666666666663  0.22222222222222221
 265    0.55555555555555558  0.66666666666666663  0.22222222222222221
 266    0.66666666666666663  0.66666666666666663  0.22222222222222221
 267    0.77777777777777779  0.66666666666666663  0.22222222222222221
 268    0.88888888888888884  0.66666666666666663  0.22222222222222221
 269    1  0.66666666666666663  0.22222222222222221
 270    0  0.77777777777777779  0.22222222222222221
 271    0.1111111111111111  0.77777777777777779  0.22222222222222221
 272    0.22222222222222221  0.77777777777777779  0.22222222222222221
 273    0.33333333333333331  0.77777777777777779  0.22222222222222221
 274    0.44444444444444442  0.77777777777777779  0.22222222222222221
 275    0.55555555555555558  0.77777777777777779  0.22222222222222221
 276    0.66666666666666663  0.77777777777777779  0.22222222222222221
 277    0.77777777777777779  0.77777777777777779  0.22222222222222221
 278    0.88888888888888884  0.77777777777777779  0.22222222222222221
 279    1  0.77777777777777779  0.22222222222222221
 280    0  0.88888888888888884  0.22222222222222221
 281    0.1111111111111111  0.88888888888888884  0.22222222222222221
 282    0.22222222222222221  0.88888888888888884  0.22222222222222221
 283    0.33333333333333331  0.88888888888888884  0.22222222222222221
 284    0.44444444444444442  0.88888888888888884  0.22222222222222221
 285    0.55555555555555558  0.88888888888888884  0.22222222222222221
 286    0.66666666666666663  0.88888888888888884  0.22222222222222221
 287    0.77777777777777779  0.88888888888888884  0.22222222222222221
 288    0.88888888888888884  0.88888888888888884  0.22222222222222221
 289    1  0.88888888888888884  0.22222222222222221
 290    0  1  0.22222222222222221
 291    0.1111111111111111  1  0.22222222222222221
 292    0.22222222222222221  1  0.22222222222222221
 293    0.33333333333333331  1  0.22222222222222221
 294    0.44444444444444442  1  0.22222222222222221
 295    0.55555555555555558  1  0.22222222222222221
 296    0.66666666666666663  1  0.22222222222222221
 297    0.77777777777777779  1  0.22222222222222221
 298    0.88888888888888884  1  0.22222222222222221
 299    1  1  0.22222222222222221
 300    0  0  0.33333333333333331
 301    0.1111111111111111  0  0.33333333333333331
 302    0.22222222222222221  0  0.33333333333333331
 303    0.33333333333333331  0  0.33333333333333331
 304    0.44444444444444442  0  0.33333333333333331
 305    0.55555555555555558  0  0.33333333333333331
 306    0.66666666666666663  0  0.33333333333333331
 307    0.77777777777777779  0  0.33333333333333331
 308    0.88888888888888884  0  0.33333333333333331
 309    1  0  0.33333333333333331
 310    0  0.1111111111111111  0.33333333333333331
 311    0.1111111111111111  0.1111111111111111  0.33333333333333331
 312    0.22222222222222221  0.1111111111111111  0.33333333333333331
 313    0.33333333333333331  0.1111111111111111  0.33333333333333331
 314    0.44444444444444442  0.1111111111111111  0.33333333333333331
 315    0.55555555555555558  0.1111111111111111  0.33333333333333331
 316    0.66666666666666663  0.1111111111111111  0.33333333333333331
 317    0.77777777777777779  0.1111111111111111  0.33333333333333331
 318    0.88888888888888884  0.1111111111111111  0.33333333333333331
 319    1  0.1111111111111111  0.33333333333333331
 320    0  0.22222222222222221  0.33333333333333331
 321    0.1111111111111111  0.22222222222222221  0.33333333333333331
 322    0.22222222222222221  0.22222222222222221  0.33333333333333331
 323    0.33333333333333331  0.22222222222222221  0.33333333333333331
 324    0.44444444444444442  0.22222222222222221  0.33333333333333331
 325    0.55555555555555558  0.22222222222222221  0.33333333333333331
 326    0.66666666666666663  0.22222222222222221  0.33333333333333331
 327    0.77777777777777779  0.22222222222222221  0.33333333333333331
 328    0.88888888888888884  0.22222222222222221  0.33333333333333331
 329    1  0.22222222222222221  0.33333333333333331
 330    0  0.33333333333333331  0.33333333333333331
 331    0.1111111111111111  0.33333333333333331  0.33333333333333331
 332    0.22222222222222221  0.33333333333333331  0.33333333333333331
 333    0.33333333333333331  0.33333333333333331  0.33333333333333331
 334    0.44444444444444442  0.33333333333333331  0.33333333333333331
 335    0.55555555555555558  0.33333333333333331  0.33333333333333331
 336    0.66666666666666663  0.33333333333333331  0.33333333333333331
 337    0.77777777777777779  0.33333333333333331  0.33333333333333331
 338    0.88888888888888884  0.33333333333333331  0.33333333333333331
 339    1  0.33333333333333331  0.33333333333333331
 340    0  0.44444444444444442  0.33333333333333331
 341    0.1111111111111111  0.44444444444444442  0.33333333333333331
 342    0.22222222222222221  0.44444444444444442  0.33333333333333331
 343    0.33333333333333331  0.44444444444444442  0.33333333333333331
 344    0.44444444444444442  0.44444444444444442  0.33333333333333331
 345    0.55555555555555558  0.44444444444444442  0.33333333333333331
 346    0.66666666666666663  0.44444444444444442  0.33333333333333331
 347    0.77777777777777779  0.44444444444444442  0.33333333333333331
 348    0.88888888888888884  0.44444444444444442  0.33333333333333331
 349    1  0.44444444444444442  0.33333333333333331
 350    0  0.55555555555555558  0.33333333333333331
 351    0.1111111111111111  0.55555555555555558  0.33333333333333331
 352    0.22222222222222221  0.55555555555555558  0.33333333333333331
 353    0.33333333333333331  0.55555555555555558  0.33333333333333331
 354    0.44444444444444442  0.55555555555555558  0.33333333333333331
 355    0.55555555555555558  0.55555555555555558  0.33333333333333331
 356    0.66666666666666663  0.55555555555555558  0.33333333333333331
 357    0.77777777777777779  0.55555555555555558  0.33333333333333331
 358    0.88888888888888884  0.55555555555555558  0.33333333333333331
 359    1  0.55555555555555558  0.33333333333333331
 360    0  0.66666666666666663  0.33333333333333331
 361    0.1111111111111111  0.66666666666666663  0.33333333333333331
 362    0.22222222222222221  0.66666666666666663  0.33333333333333331
 363    0.33333333333333331  0.66666666666666663  0.33333333333333331
 364    0.44444444444444442  0.66666666666666663  0.33333333333333331
 365    0.55555555555555558  0.66666666666666663  0.33333333333333331
 366    0.66666666666666663  0.66666666666666663  0.33333333333333331
 367    0.77777777777777779  0.66666666666666663  0.33333333333333331
 368    0.88888888888888884  0.66666666666666663  0.33333333333333331
 369    1  0.66666666666666663  0.33333333333333331
 370    0  0.77777777777777779  0.33333333333333331
 371    0.1111111111111111  0.77777777777777779  0.33333333333333331
 372    0.22222222222222221  0.77777777777777779  0.33333333333333331
 373    0.33333333333333331  0.77777777777777779  0.33333333333333331
 374    0.44444444444444442  0.77777777777777779  0.33333333333333331
 375    0.55555555555555558  0.77777777777777779  0.33333333333333331
 376    0.66666666666666663  0.77777777777777779  0.33333333333333331
 377    0.77777777777777779  0.77777777777777779  0.33333333333333331
 378    0.88888888888888884  0.77777777777777779  0.33333333333333331
 379    1  0.77777777777777779  0.33333333333333331
 380    0  0.88888888888888884  0.33333333333333331
 381    0.1111111111111111  0.88888888888888884  0.33333333333333331
 382    0.22222222222222221  0.88888888888888884  0.33333333333333331
 383    0.33333333333333331  0.88888888888888884  0.33333333333333331
 384    0.44444444444444442  0.88888888888888884  0.33333333333333331
 385    0.55555555555555558  0.88888888888888884  0.33333333333333331
 386    0.66666666666666663  0.88888888888888884  0.33333333333333331
 387    0.77777777777777779  0.88888888888888884  0.33333333333333331
 388    0.88888888888888884  0.88888888888888884  0.33333333333333331
 389    1  0.88888888888888884  0.33333333333333331
 390    0  1  0.33333333333333331
 391    0.1111111111111111  1  0.33333333333333331
 392    0.22222222222222221  1  0.33333333333333331
 393    0.33333333333333331  1  0.33333333333333331
 394    0.44444444444444442  1  0.33333333333333331
 395    0.55555555555555558  1  0.33333333333333331
 396    0.66666666666666663  1  0.33333333333333331
 397    0.77777777777777779  1  0.33333333333333331
 398    0.88888888888888884  1  0.33333333333333331
 399    1  1  0.33333333333333331
 400    0  0  0.44444444444444442
 401    0.1111111111111111  0  0.44444444444444442
 402    0.22222222222222221  0  0.44444444444444442
 403    0.33333333333333331  0  0.44444444444444442
 404    0.44444444444444442  0  0.44444444444444442
 405    0.55555555555555558  0  0.44444444444444442
 406    0.66666666666666663  0  0.44444444444444442
 407    0.77777777777777779  0  0.44444444444444442
 408    0.88888888888888884  0  0.44444444444444442
 409    1  0  0.44444444444444442
 410    0  0.1111111111111111  0.44444444444444442
 411    0.1111111111111111  0.1111111111111111  0.44444444444444442
 412    0.22222222222222221  0.1111111111111111  0.44444444444444442
 413    0.33333333333333331  0.1111111111111111  0.44444444444444442
 414    0.44444444444444442  0.1111111111111111  0.44444444444444442
 415    0.55555555555555558  0.1111111111111111  0.44444444444444442
 416    0.66666666666666663  0.1111111111111111  0.44444444444444442
 417    0.77777777777777779  0.1111111111111111  0.44444444444444442
 418    0.88888888888888884  0.1111111111111111  0.44444444444444442
 419    1  0.1111111111111111  0.44444444444444442
 420    0  0.22222222222222221  0.44444444444444442
 421    0.1111111111111111  0.22222222222222221  0.44444444444444442
 422    0.22222222222222221  0.22222222222222221  0.44444444444444442
 423    0.33333333333333331  0.22222222222222221  0.44444444444444442
 424    0.44444444444444442  0.22222222222222221  0.44444444444444442
 425    0.55555555555555558  0.22222222222222221  0.44444444444444442
 426    0.66666666666666663  0.22222222222222221  0.44444444444444442
 427    0.77777777777777779  0.22222222222222221  0.44444444444444442
 428    0.88888888888888884  0.22222222222222221  0.44444444444444442
 429    1  0.22222222222222221  0.44444444444444442
 430    0  0.33333333333333331  0.44444444444444442
 431    0.1111111111111111  0.33333333333333331  0.44444444444444442
 432    0.22222222222222221  0.33333333333333331  0.44444444444444442
 433    0.33333333333333331  0.33333333333333331  0.44444444444444442
 434    0.44444444444444442  0.33333333333333331  0.44444444444444442
 435    0.55555555555555558  0.33333333333333331  0.44444444444444442
 436    0.66666666666666663  0.33333333333333331  0.44444444444444442
 437    0.77777777777777779  0.33333333333333331  0.44444444444444442
 438    0.88888888888888884  0.33333333333333331  0.44444444444444442
 439    1  0.33333333333333331  0.44444444444444442
 440    0  0.44444444444444442  0.44444444444444442
 441    0.1111111111111111  0.44444444444444442  0.44444444444444442
 442    0.22222222222222221  0.44444444444444442  0.44444444444444442
 443    0.33333333333333331  0.44444444444444442  0.44444444444444442
 444    0.44444444444444442  0.44444444444444442  0.44444444444444442
 445    0.55555555555555558  0.44444444444444442  0.44444444444444442
 446    0.66666666666666663  0.44444444444444442  0.44444444444444442
 447    0.77777777777777779  0.44444444444444442  0.44444444444444442
 448    0.88888888888888884  0.44444444444444442  0.44444444444444442
 449    1  0.44444444444444442  0.44444444444444442
 450    0  0.55555555555555558  0.44444444444444442
 451    0.1111111111111111  0.55555555555555558  0.44444444444444442
 452    0.22222222222222221  0.55555555555555558  0.44444444444444442
 453    0.33333333333333331  0.55555555555555558  0.44444444444444442
 454    0.44444444444444442  0.55555555555555558  0.44444444444444442
 455    0.55555555555555558  0.55555555555555558  0.44444444444444442
 456    0.66666666666666663  0.55555555555555558  0.44444444444444442
 457    0.77777777777777779  0.55555555555555558  0.44444444444444442
 458    0.88888888888888884  0.55555555555555558  0.44444444444444442
 459    1  0.55555555555555558  0.44444444444444442
 460    0  0.66666666666666663  0.44444444444444442
 461    0.1111111111111111  0.66666666666666663  0.44444444444444442
 462    0.22222222222222221  0.66666666666666663  0.44444444444444442
 463    0.33333333333333331  0.66666666666666663  0.44444444444444442
 464    0.44444444444444442  0.66666666666666663  0.44444444444444442
 465    0.55555555555555558  0.66666666666666663  0.44444444444444442
 466    0.66666666666666663  0.66666666666666663  0.44444444444444442
 467    0.77777777777777779  0.66666666666666663  0.44444444444444442
 468    0.88888888888888884  0.66666666666666663  0.44444444444444442
 469    1  0.66666666666666663  0.44444444444444442
 470    0  0.77777777777777779  0.44444444444444442
 471    0.1111111111111111  0.77777777777777779  0.44444444444444442
 472    0.22222222222222221  0.77777777777777779  0.44444444444444442
 473    0.33333333333333331  0.77777777777777779  0.44444444444444442
 474    0.44444444444444442  0.77777777777777779  0.44444444444444442
 475    0.55555555555555558  0.77777777777777779  0.44444444444444442
 476    0.66666666666666663  0.77777777777777779  0.44444444444444442
 477    0.77777777777777779  0.77777777777777779  0.44444444444444442
 478    0.88888888888888884  0.77777777777777779  0.44444444444444442
 479    1  0.77777777777777779  0.44444444444444442
 480    0  0.88888888888888884  0.44444444444444442
 481    0.1111111111111111  0.88888888888888884  0.44444444444444442
 482    0.22222222222222221  0.88888888888888884  0.44444444444444442
 483    0.33333333333333331  0.88888888888888884  0.44444444444444442
 484    0.44444444444444442  0.88888888888888884  0.44444444444444442
 485    0.55555555555555558  0.88888888888888884  0.44444444444444442
 486    0.66666666666666663  0.88888888888888884  0.44444444444444442
 487    0.77777777777777779  0.88888888888888884  0.44444444444444442
 488    0.88888888888888884  0.88888888888888884  0.44444444444444442
 489    1  0.88888888888888884  0.44444444444444442
 490    0  1  0.44444444444444442
 491    0.1111111111111111  1  0.44444444444444442
 492    0.22222222222222221  1  0.44444444444444442
 493    0.33333333333333331  1  0.44444444444444442
 494    0.44444444444444442  1  0.44444444444444442
 495    0.55555555555555558  1  0.44444444444444442
 496    0.66666666666666663  1  0.44444444444444442
 497    0.77777777777777779  1  0.44444444444444442
 498    0.88888888888888884  1  0.44444444444444442
 499    1  1  0.44444444444444442
 500    0  0  0.55555555555555558
 501    0.1111111111111111  0  0.55555555555555558
 502    0.22222222222222221  0  0.55555555555555558
 503    0.33333333333333331  0  0.55555555555555558
 504    0.44444444444444442  0  0.55555555555555558
 505    0.55555555555555558  0  0.55555555555555558
 506    0.66666666666666663  0  0.55555555555555558
 507    0.77777777777777779  0  0.55555555555555558
 508    0.88888888888888884  0  0.55555555555555558
 509    1  0  0.55555555555555558
 510    0  0.1111111111111111  0.55555555555555558
 511    0.1111111111111111  0.1111111111111111  0.55555555555555558
 512    0.22222222222222221  0.1111111111111111  0.55555555555555558
 513    0.33333333333333331  0.1111111111111111  0.55555555555555558
 514    0.44444444444444442  0.1111111111111111  0.55555555555555558
 515    0.55555555555555558  0.1111111111111111  0.55555555555555558
 516    0.66666666666666663  0.1111111111111111  0.55555555555555558
 517    0.77777777777777779  0.1111111111111111  0.55555555555555558
 518    0.88888888888888884  0.1111111111111111  0.55555555555555558
 519    1  0.1111111111111111  0.55555555555555558
 520    0  0.22222222222222221  0.55555555555555558
 521    0.1111111111111111  0.22222222222222221  0.55555555555555558
 522    0.22222222222222221  0.22222222222222221  0.55555555555555558
 523    0.33333333333333331  0.22222222222222221  0.55555555555555558
 524    0.44444444444444442  0.22222222222222221  0.55555555555555558
 525    0.55555555555555558  0.22222222222222221  0.55555555555555558
 526    0.66666666666666663  0.22222222222222221  0.55555555555555558
 527    0.77777777777777779  0.22222222222222221  0.55555555555555558
 528    0.88888888888888884  0.22222222222222221  0.55555555555555558
 529    1  0.22222222222222221  0.55555555555555558
 530    0  0.33333333333333331  0.55555555555555558
 531    0.1111111111111111  0.33333333333333331  0.55555555555555558
 532    0.22222222222222221  0.33333333333333331  0.55555555555555558
 533    0.33333333333333331  0.33333333333333331  0.55555555555555558
 534    0.44444444444444442  0.33333333333333331  0.55555555555555558
 535    0.55555555555555558  0.33333333333333331  0.55555555555555558
 536    0.66666666666666663  0.33333333333333331  0.55555555555555558
 537    0.77777777777777779  0.33333333333333331  0.55555555555555558
 538    0.88888888888888884  0.33333333333333331  0.55555555555555558
 539    1  0.33333333333333331  0.55555555555555558
 540    0  0.44444444444444442  0.55555555555555558
 541    0.1111111111111111  0.44444444444444442  0.55555555555555558
 542    0.22222222222222221  0.44444444444444442  0.55555555555555558
 543    0.33333333333333331  0.44444444444444442  0.55555555555555558
 544    0.44444444444444442  0.44444444444444442  0.55555555555555558
 545    0.55555555555555558  0.44444444444444442  0.55555555555555558
 546    0.66666666666666663  0.44444444444444442  0.55555555555555558
 547    0.77777777777777779  0.44444444444444442  0.55555555555555558
 548    0.88888888888888884  0.44444444444444442  0.55555555555555558
 549    1  0.44444444444444442  0.55555555555555558
 550    0  0.55555555555555558  0.55555555555555558
 551    0.1111111111111111  0.55555555555555558  0.55555555555555558
 552    0.22222222222222221  0.55555555555555558  0.55555555555555558
 553    0.33333333333333331  0.55555555555555558  0.55555555555555558
 554    0.44444444444444442  0.55555555555555558  0.55555555555555558
 555    0.55555555555555558  0.55555555555555558  0.55555555555555558
 556    0.66666666666666663  0.55555555555555558  0.55555555555555558
 557    0.77777777777777779  0.55555555555555558  0.55555555555555558
 558    0.88888888888888884  0.55555555555555558  0.55555555555555558
 559    1  0.55555555555555558  0.55555555555555558
 560    0  0.66666666666666663  0.55555555555555558
 561    0.1111111111111111  0.66666666666666663  0.55555555555555558
 562    0.22222222222222221  0.66666666666666663  0.55555555555555558
 563    0.33333333333333331  0.66666666666666663  0.55555555555555558
 564    0.44444444444444442  0.66666666666666663  0.55555555555555558
 565    0.55555555555555558  0.66666666666666663  0.55555555555555558
 566    0.66666666666666663  0.66666666666666663  0.55555555555555558
 567    0.77777777777777779  0.66666666666666663  0.55555555555555558
 568    0.88888888888888884  0.66666666666666663  0.55555555555555558
 569    1  0.66666666666666663  0.55555555555555558
 570    0  0.77777777777777779  0.55555555555555558
 571    0.1111111111111111  0.77777777777777779  0.55555555555555558
 572    0.22222222222222221  0.77777777777777779  0.55555555555555558
 573    0.33333333333333331  0.77777777777777779  0.55555555555555558
 574    0.44444444444444442  0.77777777777777779  0.55555555555555558
 575    0.55555555555555558  0.77777777777777779  0.55555555555555558
 576    0.66666666666666663  0.77777777777777779  0.55555555555555558
 577    0.77777777777777779  0.77777777777777779  0.55555555555555558
 578    0.88888888888888884  0.77777777777777779  0.55555555555555558
 579    1  0.77777777777777779  0.55555555555555558
 580    0  0.88888888888888884  0.55555555555555558
 581    0.1111111111111111  0.88888888888888884  0.55555555555555558
 582    0.22222222222222221  0.88888888888888884  0.55555555555555558
 583    0.33333333333333331  0.88888888888888884  0.55555555555555558
 584    0.44444444444444442  0.88888888888888884  0.55555555555555558
 585    0.55555555555555558  0.88888888888888884  0.55555555555555558
 586    0.66666666666666663  0.88888888888888884  0.55555555555555558
 587    0.77777777777777779  0.88888888888888884  0.55555555555555558
 588    0.88888888888888884  0.88888888888888884  0.55555555555555558
 589    1  0.88888888888888884  0.55555555555555558
 590    0  1  0.55555555555555558
 591    0.1111111111111111  1  0.55555555555555558
 592    0.22222222222222221  1  0.55555555555555558
 593    0.33333333333333331  1  0.55555555555555558
 594    0.44444444444444442  1  0.55555555555555558
 595    0.55555555555555558  1  0.55555555555555558
 596    0.66666666666666663  1  0.55555555555555558
 597    0.77777777777777779  1  0.55555555555555558
 598    0.88888888888888884  1  0.55555555555555558
 599    1  1  0.55555555555555558
 600    0  0  0.66666666666666663
 601    0.1111111111111111  0  0.66666666666666663
 602    0.22222222222222221  0  0.66666666666666663
 603    0.33333333333333331  0  0.66666666666666663
 604    0.44444444444444442  0  0.66666666666666663
 605    0.55555555555555558  0  0.66666666666666663
 606    0.66666666666666663  0  0.66666666666666663
 607    0.77777777777777779  0  0.66666666666666663
 608    0.88888888888888884  0  0.66666666666666663
 609    1  0  0.66666666666666663
 610    0  0.1111111111111111  0.66666666666666663
 611    0.1111111111111111  0.1111111111111111  0.66666666666666663
 612    0.22222222222222221  0.1111111111111111  0.66666666666666663
 613    0.33333333333333331  0.1111111111111111  0.66666666666666663
 614    0.44444444444444442  0.1111111111111111  0.66666666666666663
 615    0.55555555555555558  0.1111111111111111  0.66666666666666663
 616    0.66666666666666663  0.1111111111111111  0.66666666666666663
 617    0.77777777777777779  0.1111111111111111  0.66666666666666663
 618    0.88888888888888884  0.1111111111111111  0.66666666666666663
 619    1  0.1111111111111111  0.66666666666666663
 620    0  0.22222222222222221  0.66666666666666663
 621    0.1111111111111111  0.22222222222222221  0.66666666666666663
 622    0.22222222222222221  0.22222222222222221  0.66666666666666663
 623    0.33333333333333331  0.22222222222222221  0.66666666666666663
 624    0.44444444444444442  0.22222222222222221  0.66666666666666663
 625    0.55555555555555558  0.22222222222222221  0.66666666666666663
 626    0.66666666666666663  0.22222222222222221  0.66666666666666663
 627    0.77777777777777779  0.22222222222222221  0.66666666666666663
 628    0.88888888888888884  0.22222222222222221  0.66666666666666663
 629    1  0.22222222222222221  0.66666666666666663
 630    0  0.33333333333333331  0.66666666666666663
 631    0.1111111111111111  0.33333333333333331  0.66666666666666663
 632    0.22222222222222221  0.33333333333333331  0.66666666666666663
 633    0.33333333333333331  0.33333333333333331  0.66666666666666663
 634    0.44444444444444442  0.33333333333333331  0.66666666666666663
 635    0.55555555555555558  0.33333333333333331  0.66666666666666663
 636    0.66666666666666663  0.33333333333333331  0.66666666666666663
 637    0.77777777777777779  0.33333333333333331  0.66666666666666663
 638    0.88888888888888884  0.33333333333333331  0.66666666666666663
 639    1  0.33333333333333331  0.66666666666666663
 640    0  0.44444444444444442  0.66666666666666663
 641    0.1111111111111111  0.44444444444444442  0.66666666666666663
 642    0.22222222222222221  0.44444444444444442  0.66666666666666663
 643    0.33333333333333331  0.44444444444444442  0.66666666666666663
 644    0.44444444444444442  0.44444444444444442  0.66666666666666663
 645    0.55555555555555558  0.44444444444444442  0.66666666666666663
 646    0.66666666666666663  0.44444444444444442  0.66666666666666663
 647    0.77777777777777779  0.44444444444444442  0.66666666666666663
 648    0.88888888888888884  0.44444444444444442  0.66666666666666663
 649    1  0.44444444444444442  0.66666666666666663
 650    0  0.55555555555555558  0.66666666666666663
 651    0.1111111111111111  0.55555555555555558  0.66666666666666663
 652    0.22222222222222221  0.55555555555555558  0.66666666666666663
 653    0.33333333333333331  0.55555555555555558  0.66666666666666663
 654    0.44444444444444442  0.55555555555555558  0.66666666666666663
 655    0.55555555555555558  0.55555555555555558  0.66666666666666663
 656    0.66666666666666663  0.55555555555555558  0.66666666666666663
 657    0.77777777777777779  0.55555555555555558  0.66666666666666663
 658    0.88888888888888884  0.55555555555555558  0.66666666666666663
 659    1  0.55555555555555558  0.66666666666666663
 660    0  0.66666666666666663  0.66666666666666663
 661    0.1111111111111111  0.66666666666666663  0.66666666666666663
 662    0.22222222222222221  0.66666666666666663  0.66666666666666663
 663    0.33333333333333331  0.66666666666666663  0.66666666666666663
 664    0.44444444444444442  0.66666666666666663  0.66666666666666663
 665    0.55555555555555558  0.66666666666666663  0.66666666666666663
 666    0.66666666666666663  0.66666666666666663  0.66666666666666663
 667    0.77777777777777779  0.66666666666666663  0.66666666666666663
 668    0.88888888888888884  0.66666666666666663  0.66666666666666663
 669    1  0.66666666666666663  0.66666666666666663
 670    0  0.77777777777777779  0.66666666666666663
 671    0.1111111111111111  0.77777777777777779  0.66666666666666663
 672    0.22222222222222221  0.77777777777777779  0.66666666666666663
 673    0.33333333333333331  0.77777777777777779  0.66666666666666663
 674    0.44444444444444442  0.77777777777777779  0.66666666666666663
 675    0.55555555555555558  0.77777777777777779  0.66666666666666663
 676    0.66666666666666663  0.77777777777777779  0.66666666666666663
 677    0.77777777777777779  0.77777777777777779  0.66666666666666663
 678    0.88888888888888884  0.77777777777777779  0.66666666666666663
 679    1  0.77777777777777779  0.66666666666666663
 680    0  0.88888888888888884  0.66666666666666663
 681    0.1111111111111111  0.88888888888888884  0.66666666666666663
 682    0.22222222222222221  0.88888888888888884  0.66666666666666663
 683    0.33333333333333331  0.88888888888888884  0.66666666666666663
 684    0.44444444444444442  0.88888888888888884  0.66666666666666663
 685    0.55555555555555558  0.88888888888888884  0.66666666666666663
 686    0.66666666666666663  0.88888888888888884  0.66666666666666663
 687    0.77777777777777779  0.88888888888888884  0.66666666666666663
 688    0.88888888888888884  0.88888888888888884  0.66666666666666663
 689    1  0.88888888888888884  0.66666666666666663
 690    0  1  0.66666666666666663
 691    0.1111111111111111  1  0.66666666666666663
 692    0.22222222222222221  1  0.66666666666666663
 693    0.33333333333333331  1  0.66666666666666663
 694    0.44444444444444442  1  0.66666666666666663
 695    0.55555555555555558  1  0.66666666666666663
 696    0.66666666666666663  1  0.66666666666666663
 697    0.77777777777777779  1  0.66666666666666663
 698    0.88888888888888884  1  0.66666666666666663
 699    1  1  0.66666666666666663
 700    0  0  0.77777777777777779
 701    0.1111111111111111  0  0.77777777777777779
 702    0.22222222222222221  0  0.77777777777777779
 703    0.33333333333333331  0  0.77777777777777779
 704    0.44444444444444442  0  0.77777777777777779
 705    0.55555555555555558  0  0.77777777777777779
 706    0.66666666666666663  0  0.77777777777777779
 707    0.77777777777777779  0  0.77777777777777779
 708    0.88888888888888884  0  0.77777777777777779
 709    1  0  0.77777777777777779
 710    0  0.1111111111111111  0.77777777777777779
 711    0.1111111111111111  0.1111111111111111  0.77777777777777779
 712    0.22222222222222221  0.1111111111111111  0.77777777777777779
 713    0.33333333333333331  0.1111111111111111  0.77777777777777779
 714    0.44444444444444442  0.1111111111111111  0.77777777777777779
 715    0.55555555555555558  0.1111111111111111  0.77777777777777779
 716    0.66666666666666663  0.1111111111111111  0.77777777777777779
 717    0.77777777777777779  0.1111111111111111  0.77777777777777779
 718    0.88888888888888884  0.1111111111111111  0.77777777777777779
 719    1  0.1111111111111111  0.77777777777777779
 720    0  0.22222222222222221  0.77777777777777779
 721    0.1111111111111111  0.22222222222222221  0.77777777777777779
 722    0.22222222222222221  0.22222222222222221  0.77777777777777779
 723    0.33333333333333331  0.22222222222222221  0.77777777777777779
 724    0.44444444444444442  0.22222222222222221  0.77777777777777779
 725    0.55555555555555558  0.22222222222222221  0.77777777777777779
 726    0.66666666666666663  0.22222222222222221  0.77777777777777779
 727    0.77777777777777779  0.22222222222222221  0.77777777777777779
 728    0.88888888888888884  0.22222222222222221  0.77777777777777779
 729    1  0.22222222222222221  0.77777777777777779
 730    0  0.33333333333333331  0.77777777777777779
 731    0.1111111111111111  0.33333333333333331  0.77777777777777779
 732    0.22222222222222221  0.33333333333333331  0.77777777777777779
 733    0.33333333333333331  0.33333333333333331  0.77777777777777779
 734    0.44444444444444442  0.33333333333333331  0.77777777777777779
 735    0.55555555555555558  0.33333333333333331  0.77777777777777779
 736    0.66666666666666663  0.33333333333333331  0.77777777777777779
 737    0.77777777777777779  0.33333333333333331  0.77777777777777779
 738    0.88888888888888884  0.33333333333333331  0.77777777777777779
 739    1  0.33333333333333331  0.77777777777777779
 740    0  0.44444444444444442  0.77777777777777779
 741    0.1111111111111111  0.44444444444444442  0.77777777777777779
 742    0.22222222222222221  0.44444444444444442  0.77777777777777779
 743    0.33333333333333331  0.44444444444444442  0.77777777777777779
 744    0.44444444444444442  0.44444444444444442  0.77777777777777779
 745    0.55555555555555558  0.44444444444444442  0.77777777777777779
 746    0.66666666666666663  0.44444444444444442  0.77777777777777779
 747    0.77777777777777779  0.44444444444444442  0.77777777777777779
 748    0.88888888888888884  0.44444444444444442  0.77777777777777779
 749    1  0.44444444444444442  0.77777777777777779
 750    0  0.55555555555555558  0.77777777777777779
 751    0.1111111111111111  0.55555555555555558  0.77777777777777779
 752    0.22222222222222221  0.55555555555555558  0.77777777777777779
 753    0.33333333333333331  0.55555555555555558  0.77777777777777779
 754    0.44444444444444442  0.55555555555555558  0.77777777777777779
 755    0.55555555555555558  0.55555555555555558  0.77777777777777779
 756    0.66666666666666663  0.55555555555555558  0.77777777777777779
 757    0.77777777777777779  0.55555555555555558  0.77777777777777779
 758    0.88888888888888884  0.55555555555555558  0.77777777777777779
 759    1  0.55555555555555558  0.77777777777777779
 760    0  0.66666666666666663  0.77777777777777779
 761    0.1111111111111111  0.66666666666666663  0.77777777777777779
 762    0.22222222222222221  0.66666666666666663  0.77777777777777779
 763    0.33333333333333331  0.66666666666666663  0.77777777777777779
 764    0.44444444444444442  0.66666666666666663  0.77777777777777779
 765    0.55555555555555558  0.66666666666666663  0.77777777777777779
 766    0.66666666666666663  0.66666666666666663  0.77777777777777779
 767    0.77777777777777779  0.66666666666666663  0.77777777777777779
 768    0.88888888888888884  0.66666666666666663  0.77777777777777779
 769    1  0.66666666666666663  0.77777777777777779
 770    0  0.77777777777777779  0.77777777777777779
 771    0.1111111111111111  0.77777777777777779  0.77777777777777779
 772    0.22222222222222221  0.77777777777777779  0.77777777777777779
 773    0.33333333333333331  0.77777777777777779  0.77777777777777779
 774    0.44444444444444442  0.77777777777777779  0.77777777777777779
 775    0.55555555555555558  0.77777777777777779  0.77777777777777779
 776    0.66666666666666663  0.77777777777777779  0.77777777777777779
 777    0.77777777777777779  0.77777777777777779  0.77777777777777779
 778    0.88888888888888884  0.77777777777777779  0.77777777777777779
 779    1  0.77777777777777779  0.77777777777777779
 780    0  0.88888888888888884  0.77777777777777779
 781    0.1111111111111111  0.88888888888888884  0.77777777777777779
 782    0.22222222222222221  0.88888888888888884  0.77777777777777779
 783    0.33333333333333331  0.88888888888888884  0.77777777777777779
 784    0.44444444444444442  0.88888888888888884  0.77777777777777779
 785    0.55555555555555558  0.88888888888888884  0.77777777777777779
 786    0.66666666666666663  0.88888888888888884  0.77777777777777779
 787    0.77777777777777779  0.88888888888888884  0.77777777777777779
 788    0.88888888888888884  0.88888888888888884  0.77777777777777779
 789    1  0.88888888888888884  0.77777777777777779
 790    0  1  0.77777777777777779
 791    0.1111111111111111  1  0.77777777777777779
 792    0.22222222222222221  1  0.77777777777777779
 793    0.33333333333333331  1  0.77777777777777779
 794    0.44444444444444442  1  0.77777777777777779
 795    0.55555555555555558  1  0.77777777777777779
 796    0.66666666666666663  1  0.77777777777777779
 797    0.77777777777777779  1  0.77777777777777779
 798    0.88888888888888884  1  0.77777777777777779
 799    1  1  0.77777777777777779
 800    0  0  0.88888888888888884
 801    0.1111111111111111  0  0.88888888888888884
 802    0.22222222222222221  0  0.88888888888888884
 803    0.33333333333333331  0  0.88888888888888884
 804    0.44444444444444442  0  0.88888888888888884
 805    0.55555555555555558  0  0.88888888888888884
 806    0.66666666666666663  0  0.88888888888888884
 807    0.77777777777777779  0  0.88888888888888884
 808    0.88888888888888884  0  0.88888888888888884
 809    1  0  0.88888888888888884
 810    0  0.1111111111111111  0.88888888888888884
 811    0.1111111111111111  0.1111111111111111  0.88888888888888884
 812    0.22222222222222221  0.1111111111111111  0.88888888888888884
 813    0.33333333333333331  0.1111111111111111  0.88888888888888884
 814    0.44444444444444442  0.1111111111111111  0.88888888888888884
 815    0.55555555555555558  0.1111111111111111  0.88888888888888884
 816    0.66666666666666663  0.1111111111111111  0.88888888888888884
 817    0.77777777777777779  0.1111111111111111  0.88888888888888884
 818    0.88888888888888884  0.1111111111111111  0.88888888888888884
 819    1  0.1111111111111111  0.88888888888888884
 820    0  0.22222222222222221  0.88888888888888884
 821    0.1111111111111111  0.22222222222222221  0.88888888888888884
 822    0.22222222222222221  0.22222222222222221  0.88888888888888884
 823    0.33333333333333331  0.22222222222222221  0.88888888888888884
 824    0.44444444444444442  0.22222222222222221  0.88888888888888884
 825    0.55555555555555558  0.22222222222222221  0.88888888888888884
 826    0.66666666666666663  0.22222222222222221  0.88888888888888884
 827    0.77777777777777779  0.22222222222222221  0.88888888888888884
 828    0.88888888888888884  0.22222222222222221  0.88888888888888884
 829    1  0.22222222222222221  0.88888888888888884
 830    0  0.33333333333333331  0.88888888888888884
 831    0.1111111111111111  0.33333333333333331  0.88888888888888884
 832    0.22222222222222221  0.33333333333333331  0.88888888888888884
 833    0.33333333333333331  0.33333333333333331  0.88888888888888884
 834    0.44444444444444442  0.33333333333333331  0.88888888888888884
 835    0.55555555555555558  0.33333333333333331  0.88888888888888884
 836    0.66666666666666663  0.33333333333333331  0.88888888888888884
 837    0.77777777777777779  0.33333333333333331  0.88888888888888884
 838    0.88888888888888884  0.33333333333333331  0.88888888888888884
 839    1  0.33333333333333331  0.88888888888888884
 840    0  0.44444444444444442  0.88888888888888884
 841    0.1111111111111111  0.44444444444444442  0.88888888888888884
 842    0.22222222222222221  0.44444444444444442  0.88888888888888884
 843    0.33333333333333331  0.44444444444444442  0.88888888888888884
 844    0.44444444444444442  0.44444444444444442  0.88888888888888884
 845    0.55555555555555558  0.44444444444444442  0.88888888888888884
 846    0.66666666666666663  0.44444444444444442  0.88888888888888884
 847    0.77777777777777779  0.44444444444444442  0.88888888888888884
 848    0.88888888888888884  0.44444444444444442  0.88888888888888884
 849    1  0.44444444444444442  0.88888888888888884
 850    0  0.55555555555555558  0.88888888888888884
 851    0.1111111111111111  0.55555555555555558  0.88888888888888884
 852    0.22222222222222221  0.55555555555555558  0.88888888888888884
 853    0.33333333333333331  0.55555555555555558  0.88888888888888884
 854    0.44444444444444442  0.55555555555555558  0.88888888888888884
 855    0.55555555555555558  0.55555555555555558  0.88888888888888884
 856    0.66666666666666663  0.55555555555555558  0.88888888888888884
 857    0.77777777777777779  0.55555555555555558  0.88888888888888884
 858    0.88888888888888884  0.55555555555555558  0.88888888888888884
 859    1  0.55555555555555558  0.88888888888888884
 860    0  0.66666666666666663  0.88888888888888884
 861    0.1111111111111111  0.66666666666666663  0.88888888888888884
 862    0.22222222222222221  0.66666666666666663  0.88888888888888884
 863    0.33333333333333331  0.66666666666666663  0.88888888888888884
 864    0.44444444444444442  0.66666666666666663  0.88888888888888884
 865    0.55555555555555558  0.66666666666666663  0.88888888888888884
 866    0.66666666666666663  0.66666666666666663  0.88888888888888884
 867    0.77777777777777779  0.66666666666666663  0.88888888888888884
 868    0.88888888888888884  0.66666666666666663  0.88888888888888884
 869    1  0.66666666666666663  0.88888888888888884
 870    0  0.77777777777777779  0.88888888888888884
 871    0.1111111111111111  0.77777777777777779  0.88888888888888884
 872    0.22222222222222221  0.77777777777777779  0.88888888888888884
 873    0.33333333333333331  0.77777777777777779  0.88888888888888884
 874    0.44444444444444442  0.77777777777777779  0.88888888888888884
 875    0.55555555555555558  0.77777777777777779  0.88888888888888884
 876    0.66666666666666663  0.77777777777777779  0.88888888888888884
 877    0.77777777777777779  0.77777777777777779  0.88888888888888884
 878    0.88888888888888884  0.77777777777777779  0.88888888888888884
 879    1  0.77777777777777779  0.88888888888888884
 880    0  0.88888888888888884  0.88888888888888884
 881    0.1111111111111111  0.88888888888888884  0.88888888888888884
 882    0.22222222222222221  0.88888888888888884  0.88888888888888884
 883    0.33333333333333331  0.88888888888888884  0.88888888888888884
 884    0.44444444444444442  0.88888888888888884  0.88888888888888884
 885    0.55555555555555558  0.88888888888888884  0.88888888888888884
 886    0.66666666666666663  0.88888888888888884  0.88888888888888884
 887    0.77777777777777779  0.88888888888888884  0.88888888888888884
 888    0.88888888888888884  0.88888888888888884  0.88888888888888884
 889    1  0.88888888888888884  0.88888888888888884
 890    0  1  0.88888888888888884
 891    0.1111111111111111  1  0.88888888888888884
 892    0.22222222222222221  1  0.88888888888888884
 893    0.33333333333333331  1  0.88888888888888884
 894    0.44444444444444442  1  0.88888888888888884
 895    0.55555555555555558  1  0.88888888888888884
 896    0.66666666666666663  1  0.88888888888888884
 897    0.77777777777777779  1  0.88888888888888884
 898    0.88888888888888884  1  0.88888888888888884
 899    1  1  0.88888888888888884
 900    0  0  1
 901    0.1111111111111111  0  1
 902    0.22222222222222221  0  1
 903    0.33333333333333331  0  1
 904    0.44444444444444442  0  1
 905    0.55555555555555558  0  1
 906    0.66666666666666663  0  1
 907    0.77777777777777779  0  1
 908    0.88888888888888884  0  1
 909    1  0  1
 910    0  0.1111111111111111  1
 911    0.1111111111111111  0.1111111111111111  1
 912    0.22222222222222221  0.1111111111111111  1
 913    0.33333333333333331  0.1111111111111111  1
 914    0.44444444444444442  0.1111111111111111  1
 915    0.55555555555555558  0.1111111111111111  1
 916    0.66666666666666663  0.1111111111111111  1
 917    0.77777777777777779  0.1111111111111111  1
 918    0.88888888888888884  0.1111111111111111  1
 919    1  0.1111111111111111  1
 920    0  0.22222222222222221  1
 921    0.1111111111111111  0.22222222222222221  1
 922    0.22222222222222221  0.22222222222222221  1
 923    0.33333333333333331  0.22222222222222221  1
 924    0.44444444444444442  0.22222222222222221  1
 925    0.55555555555555558  0.22222222222222221  1
 926    0.66666666666666663  0.22222222222222221  1
 927    0.77777777777777779  0.22222222222222221  1
 928    0.88888888888888884  0.22222222222222221  1
 929    1  0.22222222222222221  1
 930    0  0.33333333333333331  1
 931    0.1111111111111111  0.33333333333333331  1
 932    0.22222222222222221  0.33333333333333331  1
 933    0.33333333333333331  0.33333333333333331  1
 934    0.44444444444444442  0.33333333333333331  1
 935    0.55555555555555558  0.33333333333333331  1
 936    0.66666666666666663  0.33333333333333331  1
 937    0.77777777777777779  0.33333333333333331  1
 938    0.88888888888888884  0.33333333333333331  1
 939    1  0.33333333333333331  1
 940    0  0.44444444444444442  1
 941    0.1111111111111111  0.44444444444444442  1
 942    0.22222222222222221  0.44444444444444442  1
 943    0.33333333333333331  0.44444444444444442  1
 944    0.44444444444444442  0.44444444444444442  1
 945    0.55555555555555558  0.44444444444444442  1
 946    0.66666666666666663  0.44444444444444442  1
 947    0.77777777777777779  0.44444444444444442  1
 948    0.88888888888888884  0.44444444444444442  1
 949    1  0.44444444444444442  1
 950    0  0.55555555555555558  1
 951    0.1111111111111111  0.55555555555555558  1
 952    0.22222222222222221  0.55555555555555558  1
 953    0.33333333333333331  0.55555555555555558  1
 954    0.44444444444444442  0.55555555555555558  1
 955    0.55555555555555558  0.55555555555555558  1
 956    0.66666666666666663  0.55555555555555558  1
 957    0.77777777777777779  0.55555555555555558  1
 958    0.88888888888888884  0.55555555555555558  1
 959    1  0.55555555555555558  1
 960    0  0.66666666666666663  1
 961    0.1111111111111111  0.66666666666666663  1
 962    0.22222222222222221  0.66666666666666663  1
 963    0.33333333333333331  0.66666666666666663  1
 964    0.44444444444444442  0.66666666666666663  1
 965    0.55555555555555558  0.66666666666666663  1
 966    0.66666666666666663  0.66666666666666663  1
 967    0.77777777777777779  0.66666666666666663  1
 968    0.88888888888888884  0.66666666666666663  1
 969    1  0.66666666666666663  1
 970    0  0.77777777777777779  1
 971    0.1111111111111111  0.77777777777777779  1
 972    0.22222222222222221  0.77777777777777779  1
 973    0.33333333333333331  0.77777777777777779  1
 974    0.44444444444444442  0.77777777777777779  1
 975    0.55555555555555558  0.77777777777777779  1
 976    0.66666666666666663  0.77777777777777779  1
 977    0.77777777777777779  0.77777777777777779  1
 978    0.88888888888888884  0.77777777777777779  1
 979    1  0.77777777777777779  1
 980    0  0.88888888888888884  1
 981    0.1111111111111111  0.88888888888888884  1
 982    0.22222222222222221  0.88888888888888884  1
 983    0.33333333333333331  0.88888888888888884  1
 984    0.44444444444444442  0.88888888888888884  1
 985    0.55555555555555558  0.88888888888888884  1
 986    0.66666666666666663  0.88888888888888884  1
 987    0.77777777777777779  0.88888888888888884  1
 988    0.88888888888888884  0.88888888888888884  1
 989    1  0.88888888888888884  1
 990    0  1  1
 991    0.1111111111111111  1  1
 992    0.22222222222222221  1  1
 993    0.33333333333333331  1  1
 994    0.44444444444444442  1  1
 995    0.55555555555555558  1  1
 996    0.66666666666666663  1  1
 997    0.77777777777777779  1  1
 998    0.88888888888888884  1  1
 999    1  1  1
# Generated by c:\dev\polylla3D\tetgen\build\tetgen.exe -fzenn c:\dev\polylla3D\data\input\1000uniform.node 
