992  3  0  0
   0    0  0  0
   1    0  1  1
   2    0  0.16335709065097792  0
   3    0  0.42319640806428027  0.7018480506170488
   4    0  0  0.34225230215432478
   5    0  0.49017832095485914  0.40944257800872075
   6    0  0.8552255545976517  0.82782191519582116
   7    0  0.18865448953862896  0.73798078962048819
   8    0  0.20023126188121976  0.59878398759038298
   9    0  0.6160673814651233  0
  10    0  1  0.61981660561687968
  11    0  0.5855591245056766  0.11773679221745548
  12    0  0.3901181861725963  0.69198516286622369
  13    0  0  0.22232141759999047
  14    0  0.39864910408452103  0.41466145303491808
  15    0  0.31510791344329869  0.76104723694058485
  16    0  0  0.71377381859414291
  17    0  0.22805632393519815  0.10780324499305882
  18    0  0.4792826847036068  0.46895393699397103
  19    0  0.40131230564620934  0.76072475182847576
  20    0  0.10873828871636759  0.4933886630987121
  21    0  0.64579739418635607  1
  22    0  0.41053092295308991  0.50961676055810301
  23    0  0.22645777261927358  1
  24    0  1  0.24130669972882668
  25    0  0.2365382420643708  0.45257811043354235
  26    0  0.4642058980357493  1
  27    0  0.7619019123959162  0.42397898304177939
  28    0  0.49480537485218468  0
  29    0  0.26691087601322538  0
  30    0  0.46859952910676939  0.47196358445002462
  31    0  0.14882979524277085  0.48477440820333362
  32    0  0.10814529842094778  0.88569742595786638
  33    0  1  0.17733293509809123
  34    0  0.57566233176815396  0.28705533679705586
  35    0  1  0.27005381569799292
  36    0  0.57015518853004887  0.6328216362736907
  37    0  0.47378384708366184  0.3286432854144582
  38    0  0  0.54802281520051399
  39    0  0.89171125782799832  0.69619603208751579
  40    0  0.46393322204022547  0
  41    0  0.13429170666584545  0.33388816981548652
  42    0  0.88001606314959557  0.75448280427513459
  43    0  0.81224790973130867  0
  44    0  1  0.75284870575413998
  45    0  0.42841898836615533  0.52196408980266218
  46    0  0.35518272288298358  0.89645584933085376
  47    0  0.50319662826535017  0
  48    0  0.66420625194563809  0.50272555992749368
  49    0  0  0.77581385803574421
  50    0  0.2442765084437285  0.25843691902262478
  51    0  0.60952597245695894  0.67165058629034269
  52    0  0.72945007590020861  0.47150755168953873
  53    0  1  0.5222892427588075
  54    0  0.2228632559210042  0.73907125239797733
  55    0  0.48910594782550809  0.53757089762128618
  56    0  0.53953674567122967  1
  57    0  1  0
  58    0  0.40453762717635877  0.2652002355837394
  59    0  1  0.42364397754872929
  60    0  0.5584971973634838  0.33164087596565206
  61    0  0.23421428924242904  0.86400482079341667
  62    0  0.14884283778087304  0.42806030843675058
  63    0  0.84787774995528731  0.8680319074870938
  64    0  0.3071291951565448  0.24619244912587579
  65    0  0.43238961523435471  0
  66    0  0  0.39096190733860769
  67    0  0.83645799887904704  0.75037879703647004
  68    0  0.61053436523590543  0.11566344178769661
  69    0  0.13994364550064353  1
  70    0  0.68546363233218299  0.50774557375121721
  71    0  0  0.68603359998707225
  72    0  0.42249240644287966  0.61341525889720272
  73    0  0.46343204481796008  0.41162528243903329
  74    0  0.88059051218799267  0.68677260478617619
  75    0  0.23542794013088786  0.52086458565299243
  76    0  0.75278644286076923  0.80880950101403293
  77    0  0.73686746925416702  0.89740949553303506
  78    0  1  0.32376858442187839
  79    0  0.12183033598087045  0.85068890083381987
  80    0  0.47505217191622917  0.72919542128354209
  81    0  0  0.29845424399656328
  82    0  0  1
  83    0  1  0.54499228108873188
  84    0  0.18482937265198529  0.83722614063366207
  85    0  1  0.25302156667097175
  86    0  0.41977381197454311  0.51304884996787237
  87    0  1  0.222020656519621
  88    0  0.73135039499480803  0.37669567316799546
  89    0  1  0.72419918408462391
  90    0  0.18045283472655971  0.88978908058308204
  91    0  0.42186962166930919  0.30982763814443415
  92    0  0.64409796815775866  1
  93    0  0  0.42825595874811051
  94    0  0.8420893242332661  0.47978437302627819
  95    0  0.61346356278994651  0.1217838170544957
  96    0  0.40037770433159969  0.51157426981357312
  97    0  0.61259175912469388  1
  98    0  0.23711122250941452  0.15624272855869548
  99    0  0.76659137848651693  0.33308770186978365
 100    0  0.85303968565635446  0.30344110496307708
 101    0  0.89009189365349162  0
 102    0  0.56031898396427793  1
 103    0  0.86552959192826162  0.85835771238373371
 104    0  0.38709575766863402  0.76098862655743194
 105    0  1  0.34094693380103547
 106    0  0.88210599687660385  0.42224469788087193
 107    0  0.35834952763673567  0.86305207474926349
 108    0  0.86383583252807961  0.51378766056437908
 109    0  0.59713155164110987  0.8904027575460598
 110    0.10118357900024244  0.29522628649334126  1
 111    0.1025977280605479  0.64702220812421474  0.68192255936633817
 112    0.10289710749839309  0.33099672263499669  0.43683124964939379
 113    0.10385732844959206  0.80520674741801823  0.15415718917970589
 114    0.10547667814468797  0.21465539477875661  0.52185996135983637
 115    0.10940058530913255  0.86316880780617022  1
 116    0.10949771398264707  0.63844870491382599  0.43988197956087849
 117    0.10958228989556373  0.53905663214488986  0.74485055110389353
 118    0.11033752250145001  0.46013839593651262  0.51947617505410348
 119    0.11106918071390437  0.83529714550348722  0.24345570832636498
 120    0.11197651777479201  0.48663221013475821  0.64891028724001398
 121    0.11712421591244748  0.80111801397944737  0.50029680080869832
 122    0.12013798902267947  0.33331048524822626  0.7878898477877273
 123    0.12298231448007924  1  0.21808225380800295
 124    0.12346823223455794  0.5865467542035544  0
 125    0.12454043349444699  0.68539736817845842  0.76176818599605622
 126    0.12521309588710594  0.77307935936294614  0.48975831277595316
 127    0.12713661424650891  0.20874628070810253  0.10508792509647069
 128    0.12781603960376009  0.23644372418298321  0.26920253583080056
 129    0.1278233804428428  0.17485363399998799  0.27717762239814614
 130    0.12810256232747719  0.28005873285587035  1
 131    0.13031321847395627  0.88952298300539578  1
 132    0.13150122032856937  0.86689851809658913  1
 133    0.1316934697408928  0.83825697220662754  0.13487571677870436
 134    0.13240576684657424  0  0.5298486643470357
 135    0.13562648835841506  1  0.12222008885276736
 136    0.13615280053642709  0.29074552007500287  0.18046799283779946
 137    0.13657573789033828  0.12380329351177166  0.14135259369398012
 138    0.1369321914018774  1  0.74771399370616654
 139    0.13706418703109924  0.36492314068685217  0
 140    0.13875302598817063  0.23920143844704134  0.55811467758889421
 141    0.13904130216833677  0.47202083253928129  0.12938557571303333
 142    0.13964282996389277  0.70140496227646087  0
 143    0.14004419025902048  0.73059408107694779  0.77109598999149342
 144    0.14067182990214466  1  0.77247695036583519
 145    0.14068465842789357  0.31746916026337757  0.37378709592046555
 146    0.14175767076975798  0  1
 147    0.14280722967877824  0.64318831588554037  0.48364060430968814
 148    0.14290844912089329  1  0.48809990322724139
 149    0.14295241206820242  0.66736387942309738  0.23836234021328151
 150    0.1435046413878629  0.44092350116669021  0.4438396162861763
 151    0.14372061409144876  0  0.62311030284195812
 152    0.14701686557200522  1  0.40426607532216841
 153    0.14915678288403778  1  0.37380604230384473
 154    0.14981826216600458  0  0
 155    0.15007702742566442  0.58778541362100256  0.36099807262170946
 156    0.15043990675421937  1  0.17407189498197018
 157    0.15082784009015138  0.42050084473228566  0.8392850645708918
 158    0.15115135718730033  0.85206921249888445  0.18390753195259713
 159    0.1517722005271519  0.3869840076780291  0.50222994104898144
 160    0.15184057990684741  0.80351494265099155  0.8990744581581156
 161    0.15328214292254605  0.84760224037969867  0.86436342185943726
 162    0.15373678265428137  0.7358112862540257  0.39631612964782814
 163    0.15384101143227236  1  0.75982694605387591
 164    0.15409158537359979  0.24561244821495265  0.73619163477737426
 165    0.15434527975357026  0.37380651193400916  0.36937974132784435
 166    0.1578173283278298  0.13270733196723461  0
 167    0.1586579526842693  0.48504844602580766  0.24604957530806726
 168    0.15886454945225159  0.46836579211934448  0.76276517536348265
 169    0.16369103404570717  1  1
 170    0.16517070120541433  0.40888958776299023  1
 171    0.16591739968128805  0  0.349157671267464
 172    0.16620636322328708  0.70655768522347551  0.19899971094644608
 173    0.16739043732571401  0.36688178921107517  0.4059913211327667
 174    0.17020389138085212  0.7080047689616229  0.86315491971253078
 175    0.17150810253184212  0.26311478578850234  0.32309724758358438
 176    0.17229651611411856  0.13013006599077204  0.55199918377930079
 177    0.17326081696054052  0.82547400247355185  0.81732087695245703
 178    0.17348292936914755  0.35401926264222128  0.69887311404904096
 179    0.1743300218613798  0.61492907215226689  0.30888054272123255
 180    0.17559764318053994  0.11838078804962837  0.47140641580425957
 181    0.1758879734872294  0.6909047834047336  0.77072012169037618
 182    0.17928903679452768  0.11217349875204707  0.70870623061792948
 183    0.17955860257656486  0.16810431947828075  0.69951361116509336
 184    0.18044220540714639  0.63761280104057771  0.46868070980336496
 185    0.18084117732063554  0.15909696495801406  0.80526300767908987
 186    0.18192498502048693  0.595545567650272  0.17556318439599239
 187    0.18246592170114107  0.68139108896746448  0.32124487566592519
 188    0.18528551502807067  0.51145321730189885  0.43418752409055594
 189    0.18573440125518226  0.5601811587312131  0.81628292665020341
 190    0.18622586431581001  1  0.48832516458202135
 191    0.18633024270375087  0.86930797476193611  0.68325143591833892
 192    0.18752577762145328  0.55465374249144972  0.2014674195872167
 193    0.18770465470316655  0  0.70271655555253132
 194    0.18860908918212638  0.51564221439753322  0
 195    0.19003364929362687  0.70562415916872234  0.54797056083256135
 196    0.19465144741294937  0.29372153575401683  0
 197    0.19685738394712882  0.57725459949357338  0.1595817309451103
 198    0.19758723669677802  0.11045399869357386  0.30225152724328408
 199    0.1991552383213443  0.3222672733559564  0.39096440873528426
 200    0.19966922512186291  1  0.37606991781791443
 201    0.20011133580686802  0.61602946285687232  0.29603243966222681
 202    0.20137658740847519  0  0.75426932014983794
 203    0.20157737154406485  0.25859180464581921  0
 204    0.20192379950297401  0  0.83888502478650395
 205    0.20203101335181872  0.48071141264686879  0.29623822840884628
 206    0.20209653511425185  0.47958660529271813  0.48112641692680369
 207    0.20221413074202743  0.47001252205017585  0.30627384934352198
 208    0.2024666615809475  1  0.26302853668656101
 209    0.20255027060408271  0.76235135454156211  0.4857282132834263
 210    0.20311035957773205  0.5233459442846059  0.11122988854527993
 211    0.20311284523558459  0.49940258828163753  0.83928165517212583
 212    0.20519837458457835  0.44867618243021579  0.6556029560002038
 213    0.20651835736086521  0.48523489775372042  1
 214    0.20823209370590923  1  0.18996468593904747
 215    0.20859042949835882  0.13313711471767875  0.73808288561082547
 216    0.20873089591876659  0.27606718237360683  0.51842548992183868
 217    0.2099276402737581  0.57811197561272276  0.33059189974672176
 218    0.21209330479439459  0.79840061626151915  0.22251069840608528
 219    0.21253509806424042  0.72003280492682487  0.12571013793025387
 220    0.21325992891435042  0.30379781167795328  0.2986485072723245
 221    0.21347975958109722  0.29832248335932343  0.5976413414019438
 222    0.21538333811744115  0  0.85220337296056559
 223    0.21627718447192834  0.30265654811623344  0
 224    0.21736418139444347  0.86605258968354726  0.15992816756246542
 225    0.21809721268439108  0.64349082486474551  0.59782658314300074
 226    0.21923358716667851  0  0
 227    0.22094193380330218  0.86521026819108782  0.18925149500874583
 228    0.2216143888885852  0.43547659304565711  0.16006020526193565
 229    0.2217929359754256  0.10154977082578553  0.36510157489909401
 230    0.22218019186554672  0  0.45143477361668527
 231    0.22513318470873167  0.26701236760851721  0.15754982273429408
 232    0.22568122361959753  0.31272370748820333  0.77112434902136484
 233    0.22642316962525288  0.68549432674049959  0
 234    0.22798352883710582  0.66298816297406771  0.13400775956249111
 235    0.22877862223677403  0.55138517570408885  1
 236    0.22906195859337708  0.51241642781257557  0.53092464991279531
 237    0.22947390340610918  0.43916282091806225  0.62950758687766306
 238    0.23026987655763831  0.15807353959329606  0.3029605958415007
 239    0.232914960493257  0  0.32051955523534059
 240    0.23295514500716819  1  0
 241    0.23312697048530506  0.3311377768690601  0.79791506286225389
 242    0.23659481048818709  0.17878895647981063  0.51201382537076012
 243    0.23764354877981875  0.84191695636467911  0.17441136241295219
 244    0.23884285668628935  0.3066078191165752  0.50296107532817191
 245    0.23894168951397454  0.58427852513126666  0.26867239014398259
 246    0.23899149942092901  0.85568330015273042  0.14428540629997388
 247    0.23956650663059942  0.70451032060255558  0
 248    0.24057360990522159  0  0
 249    0.24209579736343623  0.86144823778283319  0.58098570890581014
 250    0.24220660094738899  0.14079700918015803  0.88212249065586645
 251    0.2432542276230375  0  0.80501633077485235
 252    0.2445806420557125  0.44216095281355983  0.82851519125112416
 253    0.24594647391248836  0.78686173452535235  0.77705021641279648
 254    0.24671530748391179  1  0.82692020471619165
 255    0.24936583666440582  0.33680982458755226  0.85247979194939505
 256    0.25228446164194795  0.78718496238784164  0.89462824906120209
 257    0.25326139730494246  0.89181791628109552  1
 258    0.25501422508881499  1  0.44471776197032586
 259    0.25518644825940662  1  0.34689140073661484
 260    0.25588294175425108  0  0.26900410353723103
 261    0.2558942797248539  0.62440717326021422  0.2330485459007362
 262    0.25962038522852515  0.87404886488828826  0.25992570101105017
 263    0.26047645298159383  0.32561587508284995  0
 264    0.2607981342432516  0.21773736293887469  0
 265    0.2629555639858121  0.73939058591741957  0.35627611530695602
 266    0.26337254256342257  0.79560049474894901  0.16403489336154975
 267    0.26392186276800322  0  0.10989663298331886
 268    0.2639298373633342  0.27934756597510435  0.62991447767523689
 269    0.26512344401759602  0.76816283342598934  0.61953232573234374
 270    0.26528739970161219  0.52762845087186838  0.83650962757941216
 271    0.26614243431463325  0.58514629282305997  0.83588018273396847
 272    0.26864457618764015  0.2783177751218614  1
 273    0.27012732496569525  0.52875198144531466  0
 274    0.27191149051813357  0.43522053205634359  0.78586097624820273
 275    0.27249416851844854  0.81791925581094893  0.72115049590324432
 276    0.27273750382604955  0.71374524609181522  0.14434106735533092
 277    0.27283834161189424  0.49481643787074348  0.13802098666446916
 278    0.27481401794563742  0.8093381486665232  0
 279    0.27536080808767449  0  0
 280    0.27767976060026933  0.18625605592289407  0.83358309473967707
 281    0.27829709524156976  0.15708997257600543  0.37800675244387949
 282    0.27849618814048882  0.27737042910823462  0.83004956689767051
 283    0.27855589858530394  0.88997118245439644  0
 284    0.2790473926630862  0.89949541535146726  0.40393211088971703
 285    0.28225050610375246  0  0.61461138820569861
 286    0.28230825166757478  0.60140855384323832  0
 287    0.28351693473288309  0.67505420317303633  0.39219992931254166
 288    0.2835547379545168  0.19805845037937875  0.42734369816096351
 289    0.28373865433142587  0.27522562103313652  0.52166115412590308
 290    0.28386560651765957  0.34923154986755678  0.84109059689572485
 291    0.28395008705904934  0.38240676093528292  0
 292    0.28414235388575459  1  0.12776214833250443
 293    0.2853064056759953  0  0.16507391629806223
 294    0.28576148205871277  0.6558966479429672  0.2908850615596873
 295    0.28924899916686186  0.55580084037040822  0.33415443210857354
 296    0.28944742741544038  0.60855026733591067  0.67957479161946321
 297    0.28982605629901859  0.48536032905888615  0.84185813757283812
 298    0.29078734396525829  0.14383980083329706  0.23177954674451651
 299    0.29089967394528693  0.39175539708770479  0.68504550880864723
 300    0.29128397153265895  0.32219103357953349  0.53526975495883844
 301    0.29311023829196281  0.20440350784768735  0.16080204197859793
 302    0.29386902538486492  0.23262590213983736  0.84708654902285363
 303    0.2945795523763497  0.35541074952001983  0.37859560038973816
 304    0.29471608713634889  0.5905421635112208  0.26648702751671616
 305    0.29500238505804188  0.8105574382988997  0.84812265279266108
 306    0.29532898431934895  0.50536347429209694  0.40395119748467623
 307    0.2954958094304404  0.15396820052665505  0
 308    0.29658209163572047  0  0
 309    0.29673531596139313  0.43523517261501299  0.50954278252508267
 310    0.29812320817103954  1  0.46362838685666119
 311    0.29953460801698883  0.59073721891271325  0.23034390395669679
 312    0.29955713632041814  1  0.39364569555435824
 313    0.29956504656995919  0.39334252754226451  0.78812959806863714
 314    0.29974150678061062  0.83813964155000931  0.27986035938703624
 315    0.29974951253809434  0.39515585173993384  0.78645239886544682
 316    0.30163827744830796  0.75020416625014097  0.64973437250497945
 317    0.30240101331587854  0.24772549095409435  0.57144483387937928
 318    0.30254007333175426  0.4176400696043957  0.36627522888548292
 319    0.30313761260775063  0.88904360026701734  0.51048323040058585
 320    0.30429754971454892  0  0.45328219193100827
 321    0.30437551611753577  0.62337331525116779  0.53512364176394256
 322    0.30491891697632323  1  0.2104320352139547
 323    0.30514321690562607  0.10285391776685293  0.5225803719447083
 324    0.30529120353232797  0.43108875727584595  0.27485209499472574
 325    0.30682040288202994  0.89301137751841231  0.24369138643645605
 326    0.30824984623798279  0.35099265177989913  0
 327    0.30997574539001027  0.55059453885144249  1
 328    0.31120928614672905  0  0.42338019244375324
 329    0.31191364255106646  0.56920439510445531  0.48134530343294413
 330    0.31192031863193181  0.89575059561868009  0.54003673595892265
 331    0.31275503935385418  1  0.54115148984459116
 332    0.31634812398968148  0.37022706692360263  0.39316849116092834
 333    0.31676183351302767  0.21615638287056627  1
 334    0.31732682273085766  0.70377052196282697  1
 335    0.31809983332110947  0.37855637747926785  0.19443201877351779
 336    0.31848519128288832  0.31427216249897971  0.47053008109090555
 337    0.31906333772798656  0  1
 338    0.32035857255014333  0.20329174198319511  1
 339    0.32055238552062815  0  0.52742478308738139
 340    0.32088053212652234  1  0.45036574446237609
 341    0.32151655353023789  1  0.29970631264766656
 342    0.32369977694355867  0.41280321489418337  1
 343    0.32395703638632622  0.5067755024117182  0.65926301297207257
 344    0.32430882133837025  0.14446978315336623  0.43746625026374863
 345    0.32446101064037836  0.15002039222183994  0.88763734435271902
 346    0.32457643905707589  1  0.5760512445712489
 347    0.32458298754137183  0.86654066531844354  0.48067418218804514
 348    0.32514537279239053  0.48112723353216014  1
 349    0.32612677598287765  0.25682617261917806  0.69407952625718838
 350    0.3276126864696729  0.78873000472433541  0.66486481585035684
 351    0.32796891759614033  0  0.15861148057031793
 352    0.32911956039315526  0.43067971790070747  0.77239496055957635
 353    0.3318133719978984  0.33501671170987868  0.37508137607269454
 354    0.33227630447815781  0.2498486817014226  0.47620062745247504
 355    0.33285079261976702  0.76444297648578374  0.40238901565669638
 356    0.33306162488503288  0.68846794117093468  0.78352739963205931
 357    0.33392678590696279  0.6614625065834705  0.33754615285340372
 358    0.33409660608739444  0  0.58227637701195789
 359    0.33704201891855612  0.742313456860065  0.173372395796627
 360    0.33759345550309527  0.7560131002730609  0.16401296048796599
 361    0.33873333182295884  0.62261557418394919  0.3787488013778354
 362    0.33939498010188496  0.89954965873477122  1
 363    0.33949530346515733  0  0.49873350280879636
 364    0.33975645685205058  0.16609063348879249  0.84155727116838319
 365    0.34230663529337102  0.60245203097229627  0.10730216676109983
 366    0.34323467968155974  0.84843906839701311  0.52434164009403139
 367    0.34367000653210555  0.70813788054039262  0.14345859129472283
 368    0.34643119016143209  0  0.14107819627657969
 369    0.34955728270643827  0.70361401097330933  0.88688493202681018
 370    0.34982936586961733  0  0.23366887935512248
 371    0.3525484764226019  0  0.74080300686266221
 372    0.35304541896293906  0.6923244986064947  0
 373    0.35417842069523486  0.23864115092184424  0.22721870864957672
 374    0.35433656638452715  0.73149171704290272  0.24234339812980099
 375    0.35450286695094746  0.28788246453702293  0.32876383642338447
 376    0.36054980180178076  0.53882725815780308  0.27967983390338713
 377    0.36102777206741699  0.24858968422382699  0.40781514671479036
 378    0.36172261942824724  0.3245919861425951  0.59471478991512161
 379    0.36323365495876903  1  0.70809380213015161
 380    0.36390152751485905  1  0.36286095503552274
 381    0.36432052761337275  0.43098517505711487  0.12037642810161486
 382    0.36456383884829213  0.45174124177893826  0.76357703950970002
 383    0.36598970375411699  1  0.18095477871970878
 384    0.3688364274820416  0.12376247645121086  0.13211350696744217
 385    0.36954406312046606  0.70157805545162177  0.19060294238572251
 386    0.3696255354622674  1  0.78734012374528861
 387    0.37014173961002461  0.54167385419251746  0.4579601702996341
 388    0.3718117364304403  0.65482720368557568  0.20798819900344512
 389    0.37350027744351133  0.77045841534153547  0.59986179583562016
 390    0.37377240450227855  0.20643065180382425  0.87603125634507761
 391    0.37475705481426314  0.6568635065564804  0.50471401984793252
 392    0.37523793340914846  0  1
 393    0.37605775372885231  0.88119161258890966  0.84738196961196799
 394    0.37689621464465828  1  0.67384127092979607
 395    0.37771063412926342  0.40048609428364057  0.24930969657485091
 396    0.37846094021204679  0.72419886261931599  0.35170405428284868
 397    0.37863130980269344  0.50556305324918271  0.82677963555524614
 398    0.38291369246657037  0.53571241240481593  0.67598559626072285
 399    0.38418808788639758  0  0.29305924513655157
 400    0.38419892606373118  1  0.29628533309033778
 401    0.38583131461730802  0.35781872772214784  0.23029698309424784
 402    0.38675295309407587  0.76047785220798603  1
 403    0.38783130894665863  0.66256699554188137  0.16115407076185506
 404    0.3882768166429087  0.62640596438796436  0.51478225894366425
 405    0.38988963727537584  0.88955614243943493  0.49912117631585318
 406    0.39020781892313061  0.81385416284757139  0.7244657004498597
 407    0.39159644279462069  0.49210934547099738  0.20549765854267832
 408    0.39178897753473529  0  0.12144284225529978
 409    0.39371022305709458  0.84393848279027261  0.58162841067596183
 410    0.39406482435579859  0.70347594441959405  0
 411    0.39433898002964052  0.10534774586579865  0.85649717928886837
 412    0.39525705557213975  0.2983140315267806  0.54542867315473964
 413    0.39597263272159489  0.38537217906123911  0.12850182196682725
 414    0.39748413750364364  0.53808220227235637  0.41537300663361032
 415    0.40241979400256056  0.12412366739056413  0.53537564773752644
 416    0.4028486156027673  0.53988067518118987  0.59542405250151187
 417    0.40438198729231201  0.26876287228126139  0.5771255450332422
 418    0.404923611804892  0  0.45812499629812986
 419    0.40493202101910764  0.24998822462972625  0.56204487380510271
 420    0.40603271554241382  0.80435093022178383  0.18894082447787919
 421    0.4072896949665531  0.21762020200323196  0.61048252374470946
 422    0.40786090304510203  0.72122938363747358  0.37714254514600654
 423    0.40827204126258243  0.6304037467364898  0.42912003419024625
 424    0.40892085380337362  0.48365608520985537  1
 425    0.40903831684747294  0.89995898910322014  0.74993058941728719
 426    0.40976327335838636  0  0.25586691613043155
 427    0.41017064168189543  0.77271141492514417  0.1378799596677841
 428    0.41291514128857443  0.44912803377916422  0.4164948249804602
 429    0.41309003325566596  0.60454961395155205  0.85217683278467138
 430    0.41464770562221342  0.82089553175715879  0.47906059503452503
 431    0.41700773625555965  0.31822529721178772  0.73762463149736124
 432    0.41766729155678939  0.51439137110872912  0.3291073646675382
 433    0.42360899063435797  0.202666967023447  0.47455396453347121
 434    0.42573112287574266  0.48552007915568585  0.60083191535337599
 435    0.43010785196149437  0  0.49890766887590021
 436    0.43102064529740847  1  0
 437    0.43148748582303187  0.32620094308116776  0.23829175512229472
 438    0.43281347967539796  0.80851149792317312  0.15386385182771822
 439    0.43428886647957143  0.89493991528386196  0.1108044041484314
 440    0.43448899806089292  0.12962539707159593  0.83459071154624265
 441    0.43449486848941565  0.76800345009885052  0.29222723527412497
 442    0.43451847568994084  0.54266179900820011  0.60135803985659364
 443    0.43728963622224537  0  0.75077917406845018
 444    0.43844157933505423  0  0.85680173026130535
 445    0.44114570882572957  0.18574435795423327  0.56472391441320091
 446    0.44173493685990428  0.1478691018575673  0.29387060995611225
 447    0.4424468131117486  0.76660601765535785  1
 448    0.44270422665804077  0.75960970462767119  0
 449    0.44645885202825752  0.89178636069963046  0.78604800043969203
 450    0.44670893129400957  0.70825567849785831  0.2080780637849029
 451    0.4479955098539613  0.43549003794802121  0.52773044619947218
 452    0.44930324972069358  0.63260736127897021  0.19673575280047972
 453    0.44932179606668587  0.1863387427739962  0.40831697104792841
 454    0.45038876024394037  0.68676601178603403  0.68175456935227396
 455    0.45151277959620573  0.41955295422867178  0
 456    0.45196098758335368  1  0.19565021590615217
 457    0.45555053243290156  0.81432943738754437  0.62373310476231669
 458    0.45611397969723999  0  0.81995908928772177
 459    0.45646787605802297  0.89602109388251816  0.84540809993631139
 460    0.457254859843227  0.26457495108934226  0.80844484051601417
 461    0.45772871418189509  0  0
 462    0.45781252521974602  0.71602243980163172  0.37741205448274973
 463    0.45925802205400945  0.68753355677900396  0.10694774650375316
 464    0.46234331600346679  0.35536534844523204  0.75683194080285132
 465    0.46555454783443861  0.3391987458738196  0.40421991529359524
 466    0.46576890185610131  0.1666217183962363  0.49104980697958045
 467    0.46652632204963129  0.29485177679767516  0.75628993475236073
 468    0.46676248142092647  0.2577999238963401  0.46142709500918011
 469    0.46714632065418604  1  0.38164973229056287
 470    0.46774779518928522  0.76407513416379236  0.7401639377131991
 471    0.46823872060013849  0.27852350631130407  0.79701857518316632
 472    0.46859734261654484  0.38607630612408783  1
 473    0.46982178216948045  0  1
 474    0.47066064655030093  0.73602447251131153  0.20113743881027424
 475    0.47156513070875183  0.12036846496431419  1
 476    0.47302458848663287  0.2468367858811602  0.23828531913288398
 477    0.47348944755378597  0.83569757723726013  0
 478    0.47643920336204459  0.45653286636493595  0.66696093317908633
 479    0.47818211541300926  0.30621676757385086  0.65857808442794752
 480    0.47993380841683686  0.13709324578936299  0.29931865133502267
 481    0.48222521949150399  0.20029917086777482  1
 482    0.48329369050986315  0.57366919906835445  0.36029542604103049
 483    0.48393667569312693  0.47859872097054079  0.49200600948692375
 484    0.48478195619909825  0.72326193326799693  0.37698621123339759
 485    0.48638520559461562  0.18045933261078939  0.88628337307440752
 486    0.48685693755539494  0.31881919050598961  0.49775979127867931
 487    0.48711595774667793  1  0.89842624438595853
 488    0.48748284585664492  1  0.38105977107911049
 489    0.48789686966993095  0.368067135569901  0.43524974448469045
 490    0.49050677134465492  0.26008043019901739  0.58892261475073027
 491    0.49304098788726447  0.54961265728368525  0.58575559649179221
 492    0.49308106408260199  0.30688775728817363  0.84587924568239781
 493    0.49432463317051012  0.33359900600292103  0.72327745022358458
 494    0.49506626014122612  1  1
 495    0.50129609967264988  0.15750660941016825  0.18138360226695172
 496    0.50254206834102599  0.63687059115037259  1
 497    0.50262619403754172  0.14412861763280327  0.54985424232717317
 498    0.50303776640307207  0.47809840803487658  1
 499    0.50478691738486925  0.46876291652517021  0
 500    0.50681793869346692  0.24903336897271688  0.89181927145314899
 501    0.50745468258330861  0.7471709517893933  0.30263875846400434
 502    0.5074790229195143  0.46904529764082847  1
 503    0.50787264329306259  0.22679068224682286  0.17047149506594284
 504    0.50792617873908141  1  0.41784976337252666
 505    0.50960351853585806  0.42857948649809408  0.42504816505906406
 506    0.51080251895699658  0.43959680678407209  0.87820876305652396
 507    0.51105291632586702  0.15852817988274448  0.4765163150397741
 508    0.5121829176069792  0.27897357818492208  0.89423393647777327
 509    0.51288670946634962  0.89443935567084665  1
 510    0.51463348868544134  0.59943537389587387  0.23166961499713024
 511    0.51496026712394305  0.75567007757994742  0.25477927540287926
 512    0.5153887860263151  0.62785832040118117  0
 513    0.51556065132855389  0.30312340809411564  0.5269415156782401
 514    0.51609448532197422  0.10096324599029172  0.51630321019952552
 515    0.51640734514649334  0.66887826993547006  0.7995276906902864
 516    0.51776295565578656  0.82980853757062911  0.27714608113258521
 517    0.5179928653025303  0  0
 518    0.51928614073408952  0  0.18753320794218153
 519    0.52029546808674454  0.79577767544182487  0.1994306876237919
 520    0.52068853923859659  0  0.46424029780651455
 521    0.52191994180210122  0.7651248130688928  0.14571725258757207
 522    0.52247437141205422  0.85411797066763606  0.70175577951487189
 523    0.52375476933803833  0.2490894048425436  0.60551395764584515
 524    0.52378272205899734  0.63398730655093716  0.66648599679593978
 525    0.52403236561393485  0.20796681887319179  0.72694984721430123
 526    0.52521139865449495  1  0
 527    0.52563266610584392  0.88917968210689113  0.15042493130557011
 528    0.52670336499310888  0.37422063031787067  0.1089044661062778
 529    0.52755695517220824  0.6162554998686175  0.6233632134164262
 530    0.52969932148642784  0  0.38093002559050682
 531    0.53041846873567888  0.73182222899822191  0
 532    0.53043835105770598  0  0.13079660874916821
 533    0.53066170985730421  0.59655431558371208  0
 534    0.53079626649775913  0.78145238077868773  0.60375500533926796
 535    0.53403735845043965  0.43823298458933757  0.68110520974615518
 536    0.53404203527842264  0.83931119933810017  0.19344888489255774
 537    0.53450406270400674  0  0.58100057451368625
 538    0.5347683055862843  0.85450393089234766  0.36803738444629119
 539    0.53586487221842261  0.88224600768165595  0.60483236876022128
 540    0.53656742216589748  0.64576668029048245  0.16650068018498654
 541    0.5375093020185564  0.20811824979828131  0.2690542301362352
 542    0.53805981317576734  0.50447156098785018  0
 543    0.53831101235779577  0.78462125099020674  0.49313078407065991
 544    0.53834570604325427  0.22172794299166088  0.63824814614120873
 545    0.53904307798734996  0.49954837902206273  0.26787606675156239
 546    0.5407047038582955  0.42342379417007769  0.56157141863224669
 547    0.54254673344854154  0.1788511652362591  0.14303494522995386
 548    0.54652213205817202  0.62937007726066485  0.79761954995297446
 549    0.5469556402945609  0.47230841840998183  0.65396029387581334
 550    0.54697623345840451  0.86986269079753731  0.6653216057669491
 551    0.5482622453260837  0.16909649624806455  0.46282378777998856
 552    0.55111388778241954  0.16354600327901392  1
 553    0.55266380462680542  0.30293306011798415  0.8996175728785295
 554    0.55483075056021991  0.28466378724243779  1
 555    0.55911058092610066  0.75051841520991369  0.77526610412443486
 556    0.55965682590412669  0.23889446237920087  0
 557    0.55978257161153477  0.1777321973692858  0
 558    0.56044675556656254  0.55246769772266491  0.47581151212375739
 559    0.56113620225067007  1  0.30550229731949308
 560    0.56122962647154295  0.29842264665229878  0
 561    0.56500274034110021  0.17754234585693662  0.33654006734317377
 562    0.56518197923803604  0.59765734502163337  0.45729409476099769
 563    0.5655268734974922  0.70761882683303023  0.17226357429167127
 564    0.56560689325599867  0.27483540919774241  1
 565    0.56571828432562943  0.71193644261063505  0.54493180378083561
 566    0.56921102991206296  0.26889232137735364  0.87544488141799781
 567    0.56963488188109312  0.70225410803718713  0.40460149468819973
 568    0.57085212848543299  0.88282878374946794  0.73616018449174347
 569    0.57164481057325045  0.57014482932278754  0.24874090887843259
 570    0.57506062769595556  0  0.3186310748568606
 571    0.57619781903349121  0  0.55638475070509552
 572    0.57667798430421913  0.26860676285740614  0.6683970969195524
 573    0.57842740534224768  0.16638211353033083  1
 574    0.57887322716566136  0.67438492501443226  0.50019259036936847
 575    0.57924355432908314  0.74838501989364159  0.70356918166171523
 576    0.58045334524963199  0.78923671372199378  0.82097317241119572
 577    0.5822943486332024  0.24335466920575777  0.50974450458158416
 578    0.58452635468976799  0.35296899972672302  0.76762650792391063
 579    0.58488853380879668  0.51783149474789847  0.87922308079961864
 580    0.58619428852906441  0.77386922743897602  0.87927310257707292
 581    0.58787744116751828  0.63539814970439268  0.80417041728941474
 582    0.58982123192844005  0  0.19997208942011335
 583    0.59024597522227884  0.31182366283593044  0.50519368128927766
 584    0.59109949824514152  0.23230485587009009  0.87938846973825457
 585    0.59139288054376926  0.53716512096298119  0.15542670249793611
 586    0.59142902069276959  0.75489097097235691  0.53264561833884172
 587    0.59177461515173457  0  1
 588    0.59226061302891209  0.39638962434245018  0
 589    0.5929202810549663  0.22675744218634775  0
 590    0.59663504614953133  0.36761238990391965  0.59600820700774326
 591    0.59738467271846174  0  0.76163439232912133
 592    0.59950491973297759  0.24963323638511192  0
 593    0.59990594330274438  0.59551005330904494  0
 594    0.60121076576547938  0.52089413849564203  0.174156609722392
 595    0.60183170203375458  0.2176396955830161  0.12412451201487407
 596    0.60204028334773019  0.86308577316244073  0.66204784860174137
 597    0.6027552464711593  0.70390655428583593  0.75029223988366511
 598    0.60397171042897746  0.32864661092055014  0.6107234873341677
 599    0.60400403865821561  0.20432940110118847  0.6379941489162565
 600    0.60452626389756769  0  0.41042284352863145
 601    0.60597586125306913  0.88406873317045698  0
 602    0.60666420208076677  0.20219826403092644  0.13174247714025011
 603    0.60734888378607077  1  0.20847822876038025
 604    0.61020919646288863  1  0.76819611062939153
 605    0.61068897710848158  1  0.41898620444784007
 606    0.61274972612377498  0.53788653221738603  0.33030437759434417
 607    0.61275478003461137  0  0.49128732658345398
 608    0.61367946898300951  0.40734379424612865  0.1064941362536852
 609    0.61418494039189708  0  0
 610    0.61972753907989098  0.52897888330847609  0.38299071507568505
 611    0.62072852124301792  0.48226238685349399  0.59504684538830988
 612    0.62150500033330447  0.1287945958897867  0.86479772820905954
 613    0.62244917204868366  0  0.33699989404428565
 614    0.62285505053496348  0.48075474962483322  0.15834385500269366
 615    0.62311693191962159  0.74149071408924927  0
 616    0.62389331300103978  0.48831121840009395  0
 617    0.62393054068690257  1  0.13735306750352183
 618    0.62459898922412871  0.30316278470702807  0.89177105253192768
 619    0.62634657396594717  0.73310700040038879  0.5303038961734815
 620    0.62953623591242036  0.10035897503739222  0
 621    0.63089495232123094  0.72359032351992569  0.15123167516529845
 622    0.6322474609775528  0.856475724666241  0.77436231041182357
 623    0.63285246462969336  0  0
 624    0.63417178906496141  0.19644545221439913  0.57664542224198045
 625    0.63441128488599308  0.53224785944951147  0.79357798675634117
 626    0.63445150521853133  0  0.264195030194743
 627    0.6349868924228832  0.33286828509212474  0.36317319971241435
 628    0.63567654568445631  0.33331785724332952  0.30865807025011816
 629    0.63623738493251458  0.49305453825040324  0
 630    0.63663972450681028  0.44859407814378938  0.79570627931910265
 631    0.63759679726876861  0.52760104868861102  0.87844076821603134
 632    0.63888428075674319  0.8195551872881448  0.56498801210414662
 633    0.64034779446696521  0.6331944200134475  0.87379974765756951
 634    0.64133242855462891  0.77920838463529829  0.74182755889061858
 635    0.6419040588202104  0.72909542403065009  1
 636    0.64259246217432686  0.45256623187729916  1
 637    0.64438442647748662  0.74697667682062074  0
 638    0.64572236782134984  1  0.24787798898740432
 639    0.64679615739449292  0.35149876329289864  0.53510858262615879
 640    0.64808041714128883  1  0.66462737051570953
 641    0.64820852372412907  0.55045353680384268  0.15609768126176438
 642    0.64867333282180584  0.45234006906725688  0.2144443969019737
 643    0.65298490500903272  0.87646914404741982  0.35976853419682331
 644    0.65301326793157333  0.2680082976315471  0.61637847864021145
 645    0.65579879353099102  0.51947058637299626  0.86090511875525255
 646    0.6575198675895555  0.76564470046863931  0.73521956611875905
 647    0.65755267508496384  0.10478134765534719  0.35280532632054773
 648    0.65862759724421827  1  0
 649    0.6587150791479246  0  0.18692503383629833
 650    0.65891349592658044  0.69711728160230546  0.20408554278223168
 651    0.66174603379399  1  0.7329904423720468
 652    0.6629380576570536  0.33851884033105106  1
 653    0.66309812748346553  0.19608084174081619  0.74738001373888496
 654    0.66322467422351017  0  0.88656090466175241
 655    0.66524333228505472  0.78544834686339216  0.40104581556911889
 656    0.66619607287368332  0.20913255767003025  0
 657    0.66678009883938338  0.36777389747204792  0.29125581094409292
 658    0.66780290454977453  0.25044876928748561  0.70838216502612694
 659    0.66797393428497109  0.23840520559075407  1
 660    0.67061595753610803  0.64015911144862836  0.25358281730086762
 661    0.67063613266444488  0.14638102405753917  0.58620389255773264
 662    0.67238640296153784  0.60960589970185208  0
 663    0.6733985917213603  0.504327698397807  1
 664    0.67410983794785451  0.43957771734048401  0.29126322650370806
 665    0.67424539873078015  0  0.36843071067144351
 666    0.67571293500814344  0.87874917583208823  0.23533025605513025
 667    0.67683795143256265  1  0.18064168122628477
 668    0.67854541661283485  0.31651200669644852  0.89301367691894185
 669    0.6802733240394887  0.73347792989984384  0.10417230950629441
 670    0.68049544607076429  0  0
 671    0.680568125672663  0.48674257244063079  0.66398843823975073
 672    0.68171590672558025  1  0.49083577687603974
 673    0.68205795060279328  0.88373641432450933  0.55352702761092465
 674    0.68331457280079322  0.60784831185980503  0.52163126061001874
 675    0.68469535527575365  0.18710032683325728  0.25768475609511476
 676    0.68507487835518666  0.22561615580875272  0.80512999719078748
 677    0.68535528356912867  0.28463978251392974  0.4707635148519933
 678    0.68774063128887575  0.59437502337574166  0.82985413613114511
 679    0.68857071167240547  0  0.22589670789939498
 680    0.68866101526041912  0.33734340826726628  0.17364469784827397
 681    0.68934786028963624  0.18647510372166065  0
 682    0.69034191698178404  0.56544426342584431  0.66607168371155789
 683    0.6913535242760882  0  0.50123330878966554
 684    0.69201462094815636  0.58704720773120644  0
 685    0.69310387915185889  0.61498352665124112  0.54485524432771104
 686    0.69482579808536316  0.30893215608436286  0.23723720899912459
 687    0.69520065213934623  0.47540913119769523  0.89496141844311305
 688    0.69762015673219235  0  0.20298131800617614
 689    0.69843670016514126  0.45292933544885938  1
 690    0.69872599712446126  0.24517508352324813  0.89903892703461885
 691    0.6996792675975172  0.33778081146107175  0.40257371044552048
 692    0.70267303623401522  0.24388301242581722  0
 693    0.70327655955305379  0.46812776941405843  0.22906675859905445
 694    0.70390039488320788  0.34803723565840283  0
 695    0.70445841871685855  0.74395824196464788  0.43687592350767268
 696    0.70456861356159584  0.422318565268893  0
 697    0.70631617590755713  0.69429470764485191  0.67054762232919884
 698    0.7067297724622259  0.82788246043887781  0.51857708788008283
 699    0.70689983482882623  0.14829932389929568  1
 700    0.70766620719094731  0.42569122691233929  0.27488674477805319
 701    0.70777729361576469  0.54633787176269366  1
 702    0.7078636608104254  0.11527717381612079  0.54859560071804547
 703    0.70957058055690336  0.18813732955792273  0.88292659994800005
 704    0.71154024821085049  0  0.6766959410848904
 705    0.71164010752335594  0.53765037756644929  0.58702010131118187
 706    0.71180716540022759  0.56526982876955012  0.40109031663385775
 707    0.71445748283789101  1  0.13399897519110548
 708    0.71547517336860023  0.69612521880451672  0.54841702487048061
 709    0.71646396432076087  0.62196946592689817  0.32324657538900692
 710    0.71735512966050674  1  0.3209249571822349
 711    0.72012163114485916  0.6821836991828627  0.21552302796600609
 712    0.72061016336416506  0.1691654958223312  0.55702978809902415
 713    0.72177535629665079  0.54238960151501447  0.57360193116188318
 714    0.72281235090228713  0  0.72460946427005912
 715    0.72293990503782068  0.10886926423161203  0.8466796709196005
 716    0.72334325488114748  1  0.2701551210875911
 717    0.7258770663404509  0.2025625238264902  1
 718    0.72688538569719618  0.87713659491796225  0.11986676241350447
 719    0.72936193555316953  0  0.45010901720010377
 720    0.72969439958536597  0.30464205680935397  0.40800818351594015
 721    0.72973672713249171  0.82207378293108913  0.41500569122995068
 722    0.73029497660754883  0.82177724480362135  0.33577570504091303
 723    0.73089466814988135  0.2081480529378974  0.24586467267782419
 724    0.7336018622248589  0.706062361747269  0.40894923601231103
 725    0.73388462252655406  0.58802882272771051  0.28330871182528206
 726    0.73431179380828493  0  0.34398592175744758
 727    0.73516753803166657  0.52360813682824725  0.14956005174480969
 728    0.73601083150211011  1  0.30839589202009898
 729    0.73725441408333703  0.66260124507947038  0
 730    0.7385188481441336  0.39275469374186323  0.10806860025060028
 731    0.74081411279575005  0.77389360676461261  0.12533712059764701
 732    0.74146875595653139  0.75941277155991516  1
 733    0.74210598313794163  0.74914397946475109  0.71716121576933722
 734    0.74213513077838167  0.85804068737486583  0.83805000819440434
 735    0.74320867953173952  0.55586314626746813  0.44938290839697559
 736    0.74380903409573007  0  0
 737    0.7442309454212318  0.11174167272297475  0
 738    0.74488977006738377  0.15895952363762444  0.75956363283193917
 739    0.7449735026255021  1  0
 740    0.74807604293518259  0.84528005790283789  0.2813277245576089
 741    0.74875177377871904  0.83140759233843087  1
 742    0.74895092042488498  0.79067163637010485  0.83992264382235204
 743    0.74898192250042062  0.78009081639309874  0.77616388387594015
 744    0.74955995597898317  0.73842277320260119  0.39215706231392056
 745    0.750185297124079  0.33305043966090475  0.4754988243495234
 746    0.75197947571704871  0.26305802697320113  0.52266409559580651
 747    0.75226743142419383  1  0.82461748489130682
 748    0.75288018293527803  0.21592871884783804  0.559652116492111
 749    0.75464291747307743  0.32492798222011965  0.32764176703324976
 750    0.75485880074418166  0.33302250222258079  0.30737068703809189
 751    0.75506872394669788  0.62881798706984737  0.57259691129257817
 752    0.75510167010739648  0.50362362684933182  0.32055644773067282
 753    0.75588744149139908  0  0.14536331125534352
 754    0.75685283094823219  0.7265071499269895  0.18186699910132831
 755    0.7572039071805271  0.13945867047798066  0.40244469661608573
 756    0.75811913138091713  0.66823202061319498  0.1282448603175933
 757    0.75871255341438115  0.56420413748186393  0
 758    0.75954559524366416  0.46599716479823228  0.46337785668119624
 759    0.76028546649871487  0.84196358128730808  0.48123333383932565
 760    0.76115531042817497  0  0.5959384647550896
 761    0.76133164791702401  0.11969151938410427  0.75258527797004249
 762    0.7616515006612472  0  0.8497527700753007
 763    0.7644321531171886  0.74878240285644027  0.88769319304150807
 764    0.76448814784440355  0.57311077338119787  0.5264191422885528
 765    0.76553540224943972  0.78926107270727131  0.21347684270936917
 766    0.766409451587724  1  0
 767    0.76697112232512776  1  0.64343778359045911
 768    0.76715196374765338  0.15155783237723619  0.40593069027349094
 769    0.76873752125647077  0.50579270748496619  0.3598084639882515
 770    0.77093660554111165  0  0.27923424550995524
 771    0.77156919547363767  0.69595144383317931  0.10585203095493645
 772    0.77305214728815186  0  0.60921781316898627
 773    0.77430436657357626  0.80007831447739486  0.78925773005736222
 774    0.77456668737783063  0.41872239091172292  0.17533447862617757
 775    0.77476091919221068  1  0.56339512328354557
 776    0.77557010060254694  0  1
 777    0.77650093509686879  0.1548104143292337  0
 778    0.77727473988980988  1  0.76463201438922712
 779    0.77730318281881905  0.58070720976929668  0.61396083080489861
 780    0.77793432842182841  0.60902767036400707  1
 781    0.77822928404679004  0.27378419451293812  0.8457572649662235
 782    0.77870068390800307  0.36036421982168676  0.83992305051190796
 783    0.78337613405763062  0.57925069500079196  0.446299588421191
 784    0.7847284915884597  0.64071143345071746  0.29189955738600748
 785    0.78660094012709514  0.27491098295699834  1
 786    0.78921617935481114  0.26065449301481336  0
 787    0.78929608061634082  0  0
 788    0.79221806691070762  0.89080087092481408  0.57559450215380581
 789    0.79241285151638519  0.4748496193562336  0.574832634036056
 790    0.79340544435214955  0.12348862762116164  0.70130557935653837
 791    0.79377051240491858  0  0.88287663867257204
 792    0.79426233993431172  0.1097227007253273  0.63396177054534419
 793    0.79702690124098985  0  0.66339464280479099
 794    0.79716711414012043  0.15594018902845341  0
 795    0.79716942287250236  0.86995586458797391  0.15925420857227057
 796    0.79913567192102453  0.14975470419337689  0.24626094824351896
 797    0.80035104492392506  0.43266301075349145  0.26132191569779584
 798    0.80258275484216957  0.22547805680516553  0.83344122284719513
 799    0.80370704885334432  0.40596341198155184  0.32285623281656661
 800    0.80681682816666711  0  0.71289584154054386
 801    0.80801607254323293  0.86470662596479742  1
 802    0.81048948513504815  1  0.87645232928920269
 803    0.81084322944233977  0.14320221109390385  0.83807728911947743
 804    0.81154050575248304  0.34379218319523808  0.283344223524162
 805    0.81196587112637719  0.57629776903290419  0
 806    0.81213178940266317  0.13594275641937359  0.76887831063626599
 807    0.8149042443148935  0.77951036789109618  0
 808    0.81654696329955045  0.41125415165060908  0.55911042089239316
 809    0.81746649075092526  0  0.83926244319282661
 810    0.82008792861382596  0.4608960065637776  0.13121251779554399
 811    0.82099883690720754  0.56039035488217714  1
 812    0.82108660548128398  0  0.61603172120842287
 813    0.8235484253421621  0.27394627399886562  0.58946170147890598
 814    0.82405163759354272  1  0.12860389726879196
 815    0.825121135836972  0.8576423861223097  0
 816    0.8251727821709417  0.61769166373904716  0.20540124054913711
 817    0.82613182185879674  0.36194276828540628  0.74999405105072614
 818    0.82627902480678439  0.82996061386277409  0.68229760137932882
 819    0.82667176710276002  0.17596060781474931  0.23249858372353227
 820    0.82671880094957528  0.20294316013147362  0
 821    0.8279892579526118  0.51891705787434872  0.85475035593007975
 822    0.82869005934862316  0.23052240445780414  0.46611292683679528
 823    0.8288863408790339  0  0.48270642098263028
 824    0.83265432167747744  0.46792808250020734  0.70684067675327045
 825    0.8331082132252402  0  0.28517514611237127
 826    0.83457487251111973  0.51113868290615261  0.62059988359207785
 827    0.83615389198684131  0.87475699005697771  0.60887449454736642
 828    0.83927282992440999  0.38079493961730426  0.20791321875959079
 829    0.83996918520253216  0.88945220105464184  0.12775689054327621
 830    0.84027620232569966  0.30661271645698107  0.42818982091298907
 831    0.84062196914121767  0  1
 832    0.84098994238179681  1  0.66534438193585699
 833    0.84133046463186201  0.36369733133148208  0.4283399957538977
 834    0.84223985774932075  1  1
 835    0.84239216323604271  0.19144953099503026  0.85414305897940945
 836    0.8449425459076173  0.45961562753806151  0.23064894979181449
 837    0.84618317239763929  0.34241233390649273  0.14468222774222417
 838    0.84667393105093602  0.37507918681280061  0.36440590351772295
 839    0.84735254051482267  0.81454955175862676  0.16974187038435928
 840    0.84738714474164412  0.63045641974711109  0.71446448066290713
 841    0.85346430192434719  0.62999777228254417  1
 842    0.85511099612812524  1  0.40998196021336319
 843    0.85536687278960211  0.65065913440750101  0.1905099039508461
 844    0.85550186346411905  0.3077425972415414  0
 845    0.85562977644787841  0.36878342257843255  1
 846    0.85597993239827985  0.46470170972742197  0.39494872807576509
 847    0.85607460336226682  0.15719622314943027  0.65138035481242751
 848    0.85801093726861277  0.71664301694664767  0.54366632484426525
 849    0.85833437123499523  0  0
 850    0.86079699227669071  0.41061055334611651  0.29387441949402926
 851    0.8627138822152568  0.31782597592967454  0.14703829322231921
 852    0.86515308833716298  0  0.39837159367086417
 853    0.8652874533326399  0  0.43566665525648185
 854    0.86573613653972736  0.7889764116795801  0
 855    0.86650492125263701  0.42902779969575155  0.59986961895958713
 856    0.86931644303871036  0.31084099965394296  0.31971333823954107
 857    0.87037067643509058  0.64180130277364578  1
 858    0.87146314270547864  0.3360253076068882  0.64501227542296702
 859    0.87262787209404957  0.55655614668108455  0.72560385314032527
 860    0.87487557333341515  0.73581927691502802  0.5321451701032659
 861    0.87510028235822124  0.45365983275337396  0.3260414911910634
 862    0.87553080715224119  0.89223954484478718  1
 863    0.87590492952732879  0.83816229453034985  0.29169917465060291
 864    0.87610372494078004  0.34672254521948975  0.5815813406642073
 865    0.87614678851207084  1  0.71538609665511732
 866    0.87666612396792654  0.31740385441816044  0.45962499362720477
 867    0.8775207509648919  0.43307362311827802  0
 868    0.8785564396315293  0  0.67131024295676822
 869    0.87872587994887796  0.87299809288230745  0.39284321485433038
 870    0.88030295881248444  0.36143565874393047  0.55729724623667209
 871    0.88086145949194172  1  0.78564756909714695
 872    0.88314575820555141  0.23395809560445358  1
 873    0.88339816228585732  0.84795077502935923  0.46341064413541433
 874    0.88489686622123154  0.82714561465203695  0.64630854394836434
 875    0.88502650581712572  0.71094627784243059  0.77811506366504457
 876    0.88928092999658648  0.58374578702374857  0.16332257956063245
 877    0.88992501050185457  0  0.57268075346356262
 878    0.89005800711747507  0  1
 879    0.89038354727152391  0.28116720640372062  0.3818660710068712
 880    0.8905621862517169  0.66229819760900566  0.39425506214222927
 881    0.89063135984023645  0  0.69213200169972078
 882    0.8923878686309894  0.64676347424618652  0.65901121918875027
 883    0.89371753882912386  0.37237649234746095  0.36162907056113591
 884    0.8939403715655132  0.25943274799593818  0.24490025459401521
 885    0.89399850678844661  0.51800900558986884  0.75332427973201599
 886    0.894191185280787  0.63667556939197167  0.63004717094651241
 887    0.89503880436439842  0.55380901139869876  0.87879185646224856
 888    0.89541969569620683  0.82023566698330697  1
 889    0.89589526832430089  0.15977617336507999  0.35218607553571302
 890    0.89609380508106029  0.16863113014475006  0.51793614756994022
 891    0.8966714509992989  0.18644803263909993  0.49067565690611403
 892    0.89679487216296994  0.52860688994261307  0.46029850959175334
 893    0.89778731342402007  0  0
 894    0.89793612554825941  0.38784920598328532  0.66244612670644876
 895    0.89869915916691856  0.8839930064002488  0.54409426410058381
 896    0.89933563021772334  0.89214833005696181  0.43884069370667389
 897    0.89963131363098614  0.83032358376185456  1
 898    0.89987662285245529  0.75422465951909357  0.8100471522413385
 899    1  0.83575330281614291  1
 900    1  0.18383955374427807  1
 901    1  0.38560742439454465  0.56352873640947376
 902    1  0.66524864413575058  1
 903    1  0.69417756758464466  0.51677521969743101
 904    1  0.52990567183438875  0.69845869261776206
 905    1  0.18416522489870624  0.58162095938888381
 906    1  1  1
 907    1  0.20307542795923661  0.60049801774346911
 908    1  0.78387219716222067  0.5092748331407575
 909    1  0.65535181831674205  0.452948649322095
 910    1  0.29541202302951797  1
 911    1  0.80250427879554509  0.58490383401529444
 912    1  0.23646069903365918  0.69031451601046101
 913    1  0.84828202363251792  0.61232433422121413
 914    1  0.23720226953334478  0.5730243670549463
 915    1  0.36241128562429881  0.44767339953630758
 916    1  0.43640319767805613  0.4773554245869519
 917    1  0.41692058589103997  1
 918    1  0.55008867805455641  0.42565546766974327
 919    1  0.5840742485094943  0.82435346624690831
 920    1  0.59124061191561994  0.57243181799635257
 921    1  0.69207329832568276  0.55560195405019841
 922    1  0.65605699493744174  0.16777043043615292
 923    1  1  0.36555414622686699
 924    1  0.54560331131386264  0.28362417027361964
 925    1  1  0.10164209775382349
 926    1  0.81139712233922479  0.51132610803398915
 927    1  0.50057568848863121  0.77453797252893497
 928    1  0.87207072748110048  0.82202729129389318
 929    1  0.8456859722380432  0.42999815148122944
 930    1  0.1596599913131006  0.42850457018533761
 931    1  0.89781746920565386  0.65525365609459707
 932    1  0.3243922626549286  0.84429526451739689
 933    1  0.60121004169986803  0.22101415402070779
 934    1  0.18713733628781515  0.68782587589031041
 935    1  0.82633660731912972  0.18156475263402216
 936    1  0.69248556479066448  0.76852447131016
 937    1  0.85468423671511462  0.78406734972705261
 938    1  0.74325592078558189  0.76532434466132371
 939    1  0.60804657393542938  0.35136627060046344
 940    1  0.27076322000253894  0.2123037281877076
 941    1  0.81819208632715468  0.66548851923843355
 942    1  0.60167317462117142  0.69836969897582846
 943    1  0.86718651413696035  0.41786949338717749
 944    1  0.2404016081981486  0.61269902316179325
 945    1  0.4529417156971185  0.42686166424976046
 946    1  0.22956036920964118  0.87834014767599911
 947    1  0.53668852253903843  0.76127325357576103
 948    1  1  0.34240697423061905
 949    1  0.44601893944929982  0.27493514450957979
 950    1  0.79578577960320107  0.75153980017397259
 951    1  0  0.63424050652934705
 952    1  0.8497817794236886  0.42527494041535407
 953    1  0  0.84796004261845115
 954    1  1  0.51574126689240629
 955    1  0.22346801463697841  0.82663515849527536
 956    1  0.85526492956081579  0
 957    1  0.18985633829419135  0
 958    1  0.29017841403975564  0.73337921675750706
 959    1  0.57820852902194453  0.79672759438751795
 960    1  0.43523335996564771  0.31538237363886057
 961    1  0.70773629076542921  0.49875703103006941
 962    1  0.57075631431502671  0.44042144269451267
 963    1  0.10583151667864266  0
 964    1  0  0.84707926353319385
 965    1  0.64036917767377066  0.6283038702251561
 966    1  0.3216055752990491  0.72161001395236102
 967    1  0.71932632427512277  0.32651140465484374
 968    1  0.38808489557106773  1
 969    1  0.20838270715658125  0.82735328206149406
 970    1  0.43013671096183825  0.51141878208615354
 971    1  1  0.7000095177403769
 972    1  0.77728052146415061  0.36025694645607331
 973    1  0.1558057359016094  0.17290416797316288
 974    1  0.25080794387420302  0.68672292989125128
 975    1  0.11204671266226318  1
 976    1  0.42133107240037349  0.11256788251728789
 977    1  0.63534899461471595  0.31780209261489478
 978    1  0.16333694199113791  0.88141917818832094
 979    1  0.3034850258755849  0.33899608342129395
 980    1  0.72228668525466444  0.53915415418706236
 981    1  1  0.15286778051803451
 982    1  0.79487516572813477  0.20909396165491967
 983    1  0.51614730197359471  0.5342869662092059
 984    1  0  0.2926836012836278
 985    1  0.75758234652040457  0.65664414438293073
 986    1  0.71004491909239753  0.52932745318664143
 987    1  0  1
 988    1  1  0.67200813186333275
 989    1  0.83451476682710968  0.6183114216106268
 990    1  0  0
 991    1  1  0
# Generated by c:\dev\polylla3D\tetgen\build\tetgen.exe -fzenn c:\dev\polylla3D\data\input\1000random.node 
