15  3  0  0
   0    0  0  0
   1    0  0  1
   2    0  1  0
   3    0  1  1
   4    0.059333850448494485  0.14913100508031285  0.19484241399480748
   5    0.17827256063480523  0.13886136800429905  0.86778754961292126
   6    0.35935395503294076  0.49156483654942412  0.54336987841362205
   7    0.44377275715303938  0.9559583656355356  0.29705134221380236
   8    0.59334435297807397  0.22727568774253043  0.12807322684739586
   9    0.69449611984931181  0.82989706573399347  0.9560951692638513
  10    0.75633646699880808  0.29697064223910108  0.92106300499929661
  11    1  0  0
  12    1  0  1
  13    1  1  0
  14    1  1  1
# Generated by c:\dev\polylla3D\tetgen\build\tetgen.exe -fzenn c:\dev\polylla3D\data\input\27poisson.node 
