45  4  0
    0       2     0     8     4
    1      13     2     8     7
    2       3     7     9     6
    3       4     0     1     3
    4      14    10    11    12
    5      14     3     9     1
    6       4     0     3     2
    7      10     5     9     6
    8      14     7     9     3
    9      13     0    11     8
   10       3     7     6     2
   11       4     2     6     7
   12       3     2     6     4
   13      13     7     8     6
   14       1     5    12     0
   15      13     0     8     2
   16       3     6     9     5
   17       1     4     5     0
   18       3     4     5     1
   19       3     6     5     4
   20       5    12     8    10
   21       5     4     8     0
   22       4     7     8     2
   23       5    12    11     8
   24       7     3    14     2
   25       6     7     8     4
   26      12     1    10     5
   27       9    14    13     7
   28       7    14    13     2
   29      10     1     9     5
   30       3     5     9     1
   31      14     1     9    12
   32      10    12     9     1
   33      14    12     9    10
   34      10    14    13     9
   35      10    13    11     8
   36       5     0    11    12
   37       8    12    11    10
   38       8     0    11     5
   39       9     7    13     6
   40       9     6    13    10
   41      13     6     8    10
   42       5     6     8     4
   43      10     6     8     5
   44      13    10    11    14
# Generated by c:\dev\polylla3D\tetgen\build\tetgen.exe -fzenn c:\dev\polylla3D\data\input\27poisson.node 
