96  1
    0      4     8     0  0        0     21
    1      4     2     8  0        0     22
    2      0     2     4  0        0      6
    3      0     8     2  0        0     15
    4      7     8     2  0        1     22
    5      7    13     8  0        1     13
    6      2    13     7  0        1     28
    7      2     8    13  0        1     15
    8      6     9     7  0        2     39
    9      6     3     9  0        2     16
   10      7     3     6  0        2     10
   11      7     9     3  0        2      8
   12      3     1     0  1        3     -1
   13      3     4     1  0        3     18
   14      0     4     3  0        3      6
   15      0     1     4  0        3     17
   16     12    11    10  0        4     37
   17     12    14    11  1        4     -1
   18     10    14    12  0        4     33
   19     10    11    14  0        4     44
   20      1     9     3  0        5     30
   21      1    14     9  0        5     31
   22      3    14     1  1        5     -1
   23      3     9    14  0        5      8
   24      2     3     0  1        6     -1
   25      2     4     3  0        6     12
   26      6     9     5  0        7     16
   27      6    10     9  0        7     40
   28      5    10     6  0        7     43
   29      5     9    10  0        7     29
   30      7    14     3  0        8     24
   31      7     9    14  0        8     27
   32      8    11     0  0        9     38
   33      8    13    11  0        9     35
   34      0    13     8  0        9     15
   35      0    11    13  1        9     -1
   36      2     6     7  0       10     11
   37      2     3     6  0       10     12
   38      7     3     2  0       10     24
   39      7     4     6  0       11     25
   40      2     4     7  0       11     22
   41      2     6     4  0       11     12
   42      4     3     6  0       12     19
   43      6     8     7  0       13     25
   44      6    13     8  0       13     41
   45      7    13     6  0       13     39
   46      0    12     5  0       14     36
   47      0     1    12  1       14     -1
   48      5     1     0  0       14     17
   49      5    12     1  0       14     26
   50      0    13     2  1       15     -1
   51      5     3     9  0       16     30
   52      6     3     5  0       16     19
   53      0     5     4  0       17     21
   54      4     5     1  0       17     18
   55      1     3     5  0       18     30
   56      4     5     3  0       18     19
   57      4     5     6  0       19     42
   58     10     8    12  0       20     37
   59     10     5     8  0       20     43
   60     12     5    10  0       20     26
   61     12     8     5  0       20     23
   62      0     5     8  0       21     38
   63      4     8     5  0       21     42
   64      7     8     4  0       22     25
   65      8    11    12  0       23     37
   66      8     5    11  0       23     38
   67     12    11     5  0       23     36
   68      2    14     3  1       24     -1
   69      2     7    14  0       24     28
   70      4     6     8  0       25     42
   71      5    10     1  0       26     29
   72      1    10    12  0       26     32
   73      7    13    14  0       27     28
   74      7     9    13  0       27     39
   75     14    13     9  0       27     34
   76      2    13    14  1       28     -1
   77      5     9     1  0       29     30
   78      1     9    10  0       29     32
   79     12     9     1  0       31     32
   80     12    14     9  0       31     33
   81      1    14    12  1       31     -1
   82     12     9    10  0       32     33
   83     10    14     9  0       33     34
   84      9    10    13  0       34     40
   85     14    13    10  0       34     44
   86      8    10    11  0       35     37
   87     13    10     8  0       35     41
   88     13    11    10  0       35     44
   89     12    11     0  1       36     -1
   90      0    11     5  0       36     38
   91      6     9    13  0       39     40
   92     10    13     6  0       40     41
   93     10     8     6  0       41     43
   94      6     8     5  0       42     43
   95     14    13    11  1       44     -1
# Generated by c:\dev\polylla3D\tetgen\build\tetgen.exe -fzenn c:\dev\polylla3D\data\input\27poisson.node 
