236  1
    0      0     4    11  0        0     11
    1      0     5     4  0        0      9
    2     11     5     0  0        0    101
    3     11     4     5  0        0    106
    4      8    13     9  0        1     52
    5      8    10    13  0        1     19
    6      9    10     8  0        1     38
    7      9    13    10  0        1     45
    8      4     9    11  0        2     32
    9      4     7     9  0        2     15
   10     11     7     4  0        2     12
   11     11     9     7  0        2     80
   12     15    16     2  0        3     33
   13     15    25    16  0        3     64
   14      2    25    15  0        3     66
   15      2    16    25  0        3     76
   16     13    26    10  0        4     67
   17     13     3    26  0        4     21
   18     10     3    13  0        4     22
   19     10    26     3  0        4     85
   20      6     3     7  0        5     29
   21      6     2     3  0        5     16
   22      7     2     6  0        5    103
   23      7     3     2  0        5     72
   24     11    17    20  0        6     89
   25     11    14    17  0        6    112
   26     20    14    11  0        6     92
   27     20    17    14  0        6     54
   28     11    17     5  0        7    101
   29     11    16    17  0        7     89
   30      5    16    11  0        7    106
   31      5    17    16  0        7     71
   32      1    14     0  0        8     55
   33      1     8    14  0        8     50
   34      0     8     1  0        8     31
   35      0    14     8  0        8     53
   36      0     2     4  0        9     17
   37      0     5     2  0        9    100
   38      4     2     5  0        9     10
   39      5     6     2  0       10     49
   40      4     6     5  0       10    105
   41      4     2     6  0       10     16
   42      0     8    11  0       11     53
   43      0     4     8  0       11     31
   44     11     8     4  0       11     32
   45      4     6     7  0       12     15
   46     11     6     4  0       12    104
   47     11     7     6  0       12     30
   48      1     8     4  0       13     31
   49      1     3     8  0       13     37
   50      4     3     1  0       13     26
   51      4     8     3  0       13     34
   52     19    16    21  0       14     84
   53     19    12    16  0       14     75
   54     21    12    19  0       14     77
   55     21    16    12  0       14     48
   56      4     6     9  0       15     35
   57      7     9     6  0       15     29
   58      2     3     4  0       16     17
   59      4     3     6  0       16     34
   60      0     3     4  0       17     26
   61      0     2     3  1       17     -1
   62     10    15     9  0       18     81
   63     10     7    15  0       18     58
   64      9     7    10  0       18     28
   65      9    15     7  0       18     79
   66      8     1    13  0       19     50
   67     10     1     8  0       19     37
   68     10    13     1  0       19     22
   69     20    16    11  0       20     89
   70     20    12    16  0       20     48
   71     11    12    20  0       20     92
   72     11    16    12  0       20     60
   73      1    26    13  0       21     47
   74      1     3    26  1       21     -1
   75     13     3     1  0       21     22
   76     10     3     1  0       22     37
   77     19    25    26  0       23     63
   78     19    21    25  0       23    107
   79     26    21    19  0       23     86
   80     26    25    21  0       23     99
   81     10    22    13  0       24     67
   82     10    18    22  0       24     98
   83     13    18    10  0       24     45
   84     13    22    18  0       24     68
   85     18    26    13  0       25     68
   86     18    24    26  0       25     39
   87     13    24    18  0       25     46
   88     13    26    24  0       25     47
   89      3     1     0  1       26     -1
   90      0     1     4  0       26     31
   91     18    22    20  0       27     69
   92     18    21    22  0       27     97
   93     20    21    18  0       27     82
   94     20    22    21  0       27     44
   95      7     3     9  0       28     29
   96      7    10     3  0       28     58
   97      9     3    10  0       28     38
   98      9     6     3  0       29     36
   99     11    16     6  0       30    104
  100     11     7    16  0       30     60
  101      6    16     7  0       30    103
  102      4     9     8  0       32     35
  103     11     8     9  0       32     40
  104     15    16     7  0       33     43
  105      7     2    15  0       33     72
  106      7    16     2  0       33    103
  107      3     6     8  0       34     36
  108      4     8     6  0       34     35
  109      9     8     6  0       35     36
  110      9     8     3  0       36     38
  111      3     8    10  0       37     38
  112     26    22    24  0       39     59
  113     26    18    22  0       39     68
  114     24    22    18  0       39     69
  115     11    14     9  0       40     78
  116     11     8    14  0       40     53
  117      9    14     8  0       40     52
  118     24    14    13  0       41     56
  119     24    20    14  0       41     65
  120     13    20    24  0       41     46
  121     13    14    20  0       41     51
  122      3    15     2  0       42     72
  123      3    26    15  0       42     85
  124      2    26     3  1       42     -1
  125      2    15    26  0       42     66
  126     12    16     7  0       43     60
  127     12    15    16  0       43     75
  128      7    15    12  0       43     79
  129     20    22    24  0       44     69
  130     24    21    20  0       44     57
  131     24    22    21  0       44    113
  132      9    18    10  0       45     88
  133      9    13    18  0       45     95
  134     24    18    20  0       46     69
  135     13    20    18  0       46     51
  136      1    24    13  0       47     56
  137      1    26    24  1       47     -1
  138     21    16    20  0       48    102
  139     20    12    21  0       48     82
  140      2    16     6  0       49    103
  141      2     5    16  0       49     71
  142      6    16     5  0       49    105
  143     13    14     1  0       50     56
  144     13     8    14  0       50     52
  145     20    18    14  0       51     91
  146     13    14    18  0       51     94
  147      9    14    13  0       52     93
  148      0    14    11  0       53    111
  149     20    23    14  0       54     65
  150     20    17    23  0       54    109
  151     14    23    17  0       54    112
  152      0    24    14  0       55     90
  153      1    24     0  1       55     -1
  154      1    14    24  0       55     56
  155     20    23    21  0       57    109
  156     20    24    23  0       57     65
  157     21    23    24  0       57    113
  158     10     3    15  0       58     85
  159      7    15     3  0       58     72
  160     26    23    24  1       59     -1
  161     26    22    23  0       59     74
  162     24    23    22  0       59    113
  163     11     7    12  0       60     80
  164      2    17     0  0       61    100
  165      2    25    17  0       61     76
  166      0    25     2  1       61     -1
  167      0    17    25  0       61     62
  168     17    23     0  0       62    110
  169     17    25    23  0       62     73
  170      0    23    25  1       62     -1
  171     15    25    26  0       63     66
  172     15    19    25  0       63     64
  173     26    19    15  0       63     86
  174     19    16    15  0       64     75
  175     19    25    16  0       64    108
  176     14    24    23  0       65     90
  177      2    25    26  1       66     -1
  178     13    26    22  0       67     68
  179     10    22    26  0       67     70
  180     10    22    21  0       70     96
  181     21    26    10  0       70     87
  182     21    22    26  0       70     99
  183      5    17     2  0       71    100
  184      2    17    16  0       71     76
  185     17    21    23  0       73    109
  186     25    21    17  0       73    107
  187     25    23    21  0       73    114
  188     25    23    26  1       74     -1
  189     25    22    23  0       74    114
  190     26    22    25  0       74     99
  191     19    12    15  0       75     77
  192     16    25    17  0       76    108
  193     15    21    12  0       77     83
  194     19    21    15  0       77     86
  195     11    12     9  0       78     80
  196     11    14    12  0       78     92
  197      9    12    14  0       78     93
  198     15    12     9  0       79     81
  199      9    12     7  0       79     80
  200     10    12     9  0       81     88
  201     10    15    12  0       81     83
  202     21    18    12  0       82     97
  203     20    12    18  0       82     91
  204     21    12    10  0       83     96
  205     10    15    21  0       83     87
  206     19    17    21  0       84    107
  207     19    16    17  0       84    108
  208     21    17    16  0       84    102
  209     26    15    10  0       85     87
  210     21    15    26  0       86     87
  211      9    18    12  0       88     95
  212     10    12    18  0       88     98
  213     16    17    20  0       89    102
  214     24    23     0  1       90     -1
  215      0    23    14  0       90    111
  216     14    12    18  0       91     94
  217     14    20    12  0       91     92
  218      9    12    13  0       93     95
  219     13    12    14  0       93     94
  220     13    12    18  0       94     95
  221     10    22    12  0       96     98
  222     21    12    22  0       96     97
  223     22    18    12  0       97     98
  224     22    25    21  0       99    114
  225      5    17     0  0      100    101
  226      0    11    17  0      101    110
  227     21    17    20  0      102    109
  228     11    16     4  0      104    106
  229      4    16     6  0      104    105
  230      4    16     5  0      105    106
  231     19    17    25  0      107    108
  232     11    23     0  0      110    111
  233     11    17    23  0      110    112
  234     11    23    14  0      111    112
  235     21    23    22  0      113    114
# Generated by c:\dev\polylla3D\tetgen\build\tetgen.exe -fzenn c:\dev\polylla3D\data\input\27random.node 
