# This file was created by meshio v5.3.5
27 3 0 0
0 0.0000000000000000e+00 0.0000000000000000e+00 0.0000000000000000e+00
1 0.0000000000000000e+00 0.0000000000000000e+00 1.0000000000000000e+00
2 0.0000000000000000e+00 1.0000000000000000e+00 0.0000000000000000e+00
3 0.0000000000000000e+00 1.0000000000000000e+00 1.0000000000000000e+00
4 5.1087433880366961e-02 4.4938461234900007e-01 1.6758836302280777e-01
5 5.6074983341622642e-02 3.5721607607827166e-01 4.1477240044123564e-02
6 7.1126754405394510e-02 8.3323831831449990e-01 2.5469773351872727e-01
7 2.2275439261223995e-01 9.0062949180110330e-01 3.6302261394495494e-01
8 2.3511673671241384e-01 4.0983705166496109e-01 6.4913236760917237e-01
9 2.9944131919704520e-01 6.2292797931081145e-01 6.6316939192844615e-01
10 3.0632195150859121e-01 8.6493557564352241e-01 9.5907945533508510e-01
11 4.9900209066097134e-01 4.1543191841829208e-01 3.4676253252013667e-01
12 5.7079044659046707e-01 6.9181729216433485e-01 4.3212860473471038e-01
13 6.2133756769044690e-01 4.2368544249415696e-01 9.5848284713854670e-01
14 6.2652899931980044e-01 1.7820300276418199e-01 5.9590076781483214e-01
15 6.5103966288958415e-01 9.0913228310845351e-01 3.9387059423309323e-01
16 6.5842465639433512e-01 5.6957708197010126e-01 2.7840774193255580e-01
17 8.1900510870890675e-01 3.9803333944168517e-01 2.0937709890561984e-02
18 8.3264440586195854e-01 4.9591505046377182e-01 8.5980936108726302e-01
19 8.6651726646261340e-01 9.2694748111212699e-01 4.2045594894896565e-01
20 8.7843062708936337e-01 2.8960250148634659e-01 5.9146267499494332e-01
21 9.5379250582414055e-01 7.3088518647600265e-01 6.0683747115326880e-01
22 9.7258391043865866e-01 6.6946135199793000e-01 8.4795773566411170e-01
23 1.0000000000000000e+00 0.0000000000000000e+00 0.0000000000000000e+00
24 1.0000000000000000e+00 0.0000000000000000e+00 1.0000000000000000e+00
25 1.0000000000000000e+00 1.0000000000000000e+00 0.0000000000000000e+00
26 1.0000000000000000e+00 1.0000000000000000e+00 1.0000000000000000e+00
