115  4  0
    0       5    11     4     0
    1      10     9    13     8
    2       7    11     9     4
    3      25     2    16    15
    4       3    10    26    13
    5       2     7     3     6
    6      14    20    17    11
    7      16     5    17    11
    8       8     0    14     1
    9       5     4     2     0
   10       6     4     2     5
   11       4    11     8     0
   12       6    11     7     4
   13       3     4     8     1
   14      12    21    16    19
   15       6     7     9     4
   16       6     4     3     2
   17       2     4     3     0
   18       7     9    15    10
   19       1    10    13     8
   20      12    11    16    20
   21       3    13    26     1
   22       3    10    13     1
   23      21    26    25    19
   24      18    13    22    10
   25      24    13    26    18
   26       4     0     1     3
   27      21    20    22    18
   28      10     9     3     7
   29       6     7     3     9
   30       7     6    16    11
   31       4     0     8     1
   32       9    11     8     4
   33       2     7    16    15
   34       6     4     8     3
   35       6     9     8     4
   36       3     9     8     6
   37      10     3     8     1
   38      10     9     8     3
   39      18    24    22    26
   40       8     9    14    11
   41      20    13    14    24
   42      26     2    15     3
   43      15     7    16    12
   44      21    24    22    20
   45      18     9    13    10
   46      18    13    20    24
   47      24     1    26    13
   48      12    20    16    21
   49       5     6    16     2
   50       8     1    14    13
   51      18    13    14    20
   52      13     9    14     8
   53       8    11    14     0
   54      17    14    23    20
   55      24     1    14     0
   56      24    13    14     1
   57      24    21    23    20
   58       3     7    15    10
   59      22    24    23    26
   60       7    11    16    12
   61      25     0    17     2
   62      25     0    23    17
   63      19    26    25    15
   64      25    15    16    19
   65      24    20    23    14
   66      15    26    25     2
   67      26    10    22    13
   68      26    13    22    18
   69      18    20    22    24
   70      26    21    22    10
   71      16     2    17     5
   72       3     2    15     7
   73      21    25    23    17
   74      22    26    23    25
   75      12    19    16    15
   76      25     2    17    16
   77      21    19    12    15
   78      14     9    12    11
   79       7     9    12    15
   80       7    11    12     9
   81      15     9    12    10
   82      18    20    12    21
   83      15    10    12    21
   84      16    21    17    19
   85       3    10    15    26
   86      26    21    15    19
   87      26    10    15    21
   88      18    10    12     9
   89      11    20    17    16
   90      14     0    23    24
   91      20    18    12    14
   92      14    11    12    20
   93      14    13    12     9
   94      18    13    12    14
   95      18     9    12    13
   96      22    21    12    10
   97      18    21    12    22
   98      22    10    12    18
   99      26    21    25    22
  100       2     0    17     5
  101      11     5    17     0
  102      16    20    17    21
  103       2     6    16     7
  104       6     4    16    11
  105       5     4    16     6
  106       5    11    16     4
  107      25    19    17    21
  108      16    19    17    25
  109      17    20    23    21
  110      17     0    23    11
  111      14    11    23     0
  112      17    11    23    14
  113      22    21    23    24
  114      25    21    23    22
# Generated by c:\dev\polylla3D\tetgen\build\tetgen.exe -fzenn c:\dev\polylla3D\data\input\27random.node 
