27  3  0  0
   0    0  0  0
   1    0  0  1
   2    0  1  0
   3    0  1  1
   4    0.051087433880366961  0.44938461234900007  0.16758836302280777
   5    0.056074983341622642  0.35721607607827166  0.041477240044123564
   6    0.07112675440539451  0.8332383183144999  0.25469773351872727
   7    0.22275439261223995  0.9006294918011033  0.36302261394495494
   8    0.23511673671241384  0.40983705166496109  0.64913236760917237
   9    0.2994413191970452  0.62292797931081145  0.66316939192844615
  10    0.30632195150859121  0.86493557564352241  0.9590794553350851
  11    0.49900209066097134  0.41543191841829208  0.34676253252013667
  12    0.57079044659046707  0.69181729216433485  0.43212860473471038
  13    0.6213375676904469  0.42368544249415696  0.9584828471385467
  14    0.62652899931980044  0.17820300276418199  0.59590076781483214
  15    0.65103966288958415  0.90913228310845351  0.39387059423309323
  16    0.65842465639433512  0.56957708197010126  0.2784077419325558
  17    0.81900510870890675  0.39803333944168517  0.020937709890561984
  18    0.83264440586195854  0.49591505046377182  0.85980936108726302
  19    0.8665172664626134  0.92694748111212699  0.42045594894896565
  20    0.87843062708936337  0.28960250148634659  0.59146267499494332
  21    0.95379250582414055  0.73088518647600265  0.6068374711532688
  22    0.97258391043865866  0.66946135199793  0.8479577356641117
  23    1  0  0
  24    1  0  1
  25    1  1  0
  26    1  1  1
# Generated by c:\dev\polylla3D\tetgen\build\tetgen.exe -fzenn c:\dev\polylla3D\data\input\27random.node 
