120  1
    0      7     4    17  0        0     21
    1      7    16     4  0        0     38
    2     17    16     7  1        0     -1
    3     17     4    16  0        0     34
    4     12    25    24  0        1      3
    5     12    21    25  0        1     12
    6     24    21    12  1        1     -1
    7     24    25    21  1        1     -1
    8     20    10    19  1        2     -1
    9     20    23    10  0        2     13
   10     19    23    20  1        2     -1
   11     19    10    23  0        2     20
   12     15    25    24  1        3     -1
   13     15    12    25  0        3      9
   14     24    12    15  1        3     -1
   15     21    22     9  0        4     11
   16     21    12    22  0        4     12
   17      9    12    21  1        4     -1
   18      9    22    12  0        4     17
   19     10    13    14  0        5     33
   20     10     1    13  0        5     22
   21     14     1    10  0        5     36
   22     14    13     1  0        5     25
   23      5     4     1  1        6     -1
   24      5    14     4  0        6     32
   25      1    14     5  0        6     14
   26      1     4    14  0        6     25
   27     19    22     9  0        7     15
   28     19    18    22  1        7     -1
   29      9    18    19  1        7     -1
   30      9    22    18  0        7     11
   31      3    16    15  0        8     24
   32      3    12    16  0        8     28
   33     15    12     3  1        8     -1
   34     15    16    12  0        8      9
   35     12    25    16  0        9     10
   36     15    16    25  1        9     -1
   37     25    13    12  0       10     26
   38     25    16    13  0       10     41
   39     12    13    16  0       10     28
   40     18    21    22  1       11     -1
   41      9    21    18  1       11     -1
   42     25    22    21  1       12     -1
   43     25    12    22  0       12     26
   44     23    11    20  1       13     -1
   45     23    10    11  0       13     30
   46     20    11    10  1       13     -1
   47      1    14     2  0       14     19
   48      2     5     1  1       14     -1
   49      2    14     5  1       14     -1
   50     19    10     9  1       15     -1
   51     19    22    10  0       15     20
   52      9    10    22  0       15     18
   53     13     4    17  0       16     34
   54     13    14     4  0       16     25
   55     17    14    13  0       16     46
   56     17     4    14  0       16     32
   57      9    13    12  0       17     44
   58      9    22    13  0       17     18
   59     12    13    22  0       17     26
   60     10    13     9  0       18     43
   61     10    22    13  0       18     27
   62      1    11     2  1       19     -1
   63      1    14    11  0       19     36
   64      2    11    14  1       19     -1
   65     23    22    10  0       20     27
   66     19    22    23  1       20     -1
   67     17     8     4  0       21     37
   68      7     8    17  1       21     -1
   69      7     4     8  1       21     -1
   70      1    13     0  0       22     35
   71      0    10     1  1       22     -1
   72      0    13    10  0       22     43
   73      6    16     3  0       23     24
   74      6     7    16  1       23     -1
   75      3     7     6  1       23     -1
   76      3    16     7  0       23     38
   77      6    15     3  1       24     -1
   78      6    16    15  1       24     -1
   79      1     4    13  0       25     35
   80     22    25    13  0       26     42
   81     22    13    23  0       27     39
   82     23    13    10  0       27     33
   83     12    13     3  0       28     45
   84      3    13    16  0       28     29
   85     13     4     3  0       29     31
   86     13    16     4  0       29     34
   87      3     4    16  0       29     38
   88     10    11    14  0       30     36
   89     14    23    10  0       30     33
   90     14    11    23  1       30     -1
   91      0     4     3  1       31     -1
   92      0    13     4  0       31     35
   93      3    13     0  0       31     45
   94     17     4     5  0       32     37
   95      5    14    17  1       32     -1
   96     23    13    14  0       33     40
   97     17    13    16  0       34     47
   98      1     4     0  1       35     -1
   99     10    11     1  1       36     -1
  100      5     8     4  1       37     -1
  101     17     8     5  1       37     -1
  102      3     4     7  1       38     -1
  103     22    13    26  0       39     42
  104     26    23    22  1       39     -1
  105     26    13    23  0       39     40
  106     26    14    23  1       40     -1
  107     26    13    14  0       40     46
  108     26    13    25  0       41     42
  109     26    16    13  0       41     47
  110     25    16    26  1       41     -1
  111     26    22    25  1       42     -1
  112      0     9    10  1       43     -1
  113      0    13     9  0       43     44
  114      0    13    12  0       44     45
  115     12     9     0  1       44     -1
  116     12     0     3  1       45     -1
  117     26    13    17  0       46     47
  118     17    14    26  1       46     -1
  119     26    16    17  1       47     -1
# Generated by c:\dev\polylla3D\tetgen\build\tetgen.exe -fzenn c:\dev\polylla3D\data\input\27uniform.node 
