48  4  0
    0      16    17     4     7
    1      21    24    25    12
    2      23    19    10    20
    3      12    24    25    15
    4      12     9    22    21
    5       1    14    13    10
    6      14     1     4     5
    7      18     9    22    19
    8      12    15    16     3
    9      25    15    16    12
   10      16    12    13    25
   11      21     9    22    18
   12      12    21    22    25
   13      10    20    11    23
   14       5     2    14     1
   15      22     9    10    19
   16      14    17     4    13
   17      22    12    13     9
   18      22     9    13    10
   19      14     2    11     1
   20      22    19    10    23
   21       8     7     4    17
   22      10     0    13     1
   23       7     3    16     6
   24      15     6    16     3
   25      13     1     4    14
   26      25    12    13    22
   27      10    23    13    22
   28      16     3    13    12
   29      16     3     4    13
   30      23    14    11    10
   31      13     3     4     0
   32      14     5     4    17
   33      10    14    13    23
   34      13    17     4    16
   35       0     1     4    13
   36      14     1    11    10
   37       8    17     4     5
   38      16     7     4     3
   39      23    26    13    22
   40      14    26    13    23
   41      16    25    13    26
   42      22    26    13    25
   43       9     0    13    10
   44       9    12    13     0
   45       0    12    13     3
   46      14    17    13    26
   47      16    26    13    17
# Generated by c:\dev\polylla3D\tetgen\build\tetgen.exe -fzenn c:\dev\polylla3D\data\input\27uniform.node 
