# This file was created by meshio v5.3.5
9 3 0 0
0 0.0000000000000000e+00 0.0000000000000000e+00 0.0000000000000000e+00
1 0.0000000000000000e+00 0.0000000000000000e+00 1.0000000000000000e+00
2 0.0000000000000000e+00 1.0000000000000000e+00 0.0000000000000000e+00
3 0.0000000000000000e+00 1.0000000000000000e+00 1.0000000000000000e+00
4 6.0398587149528615e-02 1.5112252125336789e-01 3.3541947023628171e-01
5 1.0000000000000000e+00 0.0000000000000000e+00 0.0000000000000000e+00
6 1.0000000000000000e+00 0.0000000000000000e+00 1.0000000000000000e+00
7 1.0000000000000000e+00 1.0000000000000000e+00 0.0000000000000000e+00
8 1.0000000000000000e+00 1.0000000000000000e+00 1.0000000000000000e+00
