30  1
    0      3     2     4  0        0      5
    1      3     0     2  1        0     -1
    2      4     0     3  0        0      1
    3      4     2     0  0        0      4
    4      3     1     0  1        1     -1
    5      3     4     1  0        1      6
    6      0     1     4  0        1      2
    7      1     6     0  1        2     -1
    8      1     4     6  0        2      7
    9      0     6     4  0        2      9
   10      4     7     2  0        3      4
   11      4     8     7  0        3     11
   12      2     8     4  0        3      5
   13      2     7     8  1        3     -1
   14      2     0     7  1        4     -1
   15      4     7     0  0        4      8
   16      3     8     4  0        5      6
   17      3     2     8  1        5     -1
   18      3     8     1  1        6     -1
   19      1     8     4  0        6      7
   20      4     6     8  0        7     10
   21      1     8     6  1        7     -1
   22      4     5     0  0        8      9
   23      4     7     5  0        8     11
   24      0     5     7  1        8     -1
   25      0     6     5  1        9     -1
   26      4     5     6  0        9     10
   27      6     8     5  1       10     -1
   28      4     5     8  0       10     11
   29      8     7     5  1       11     -1
# Generated by c:\dev\polylla3D\tetgen\build\tetgen.exe -fzenn c:\dev\polylla3D\data\input\8poisson.node 
