18  1
    0      0     6     2  1        0     -1
    1      0     7     6  0        0      4
    2      2     7     0  0        0      1
    3      2     6     7  1        0     -1
    4      0     3     7  0        1      3
    5      2     3     0  1        1     -1
    6      2     7     3  1        1     -1
    7      1     7     5  1        2     -1
    8      1     0     7  0        2      3
    9      5     0     1  1        2     -1
   10      5     7     0  0        2      5
   11      3     1     0  1        3     -1
   12      3     7     1  1        3     -1
   13      6     4     7  1        4     -1
   14      6     0     4  1        4     -1
   15      7     4     0  0        4      5
   16      7     4     5  1        5     -1
   17      5     4     0  1        5     -1
# Generated by c:\dev\polylla3D\tetgen\build\tetgen.exe -fzenn c:\dev\polylla3D\data\input\8random.node 
