413  3  0  0
   0    0  0  0
   1    1  0  0
   2    1  1  0
   3    0  1  0
   4    0  0  1
   5    1  0  1
   6    1  1  1
   7    0  1  1
   8    1  0.50399280367541621  0.53977926499496098
   9    0.49016466710946716  1  0.53248154607029619
  10    1  1  0.5
  11    0.5  1  1
  12    1  0.5  1
  13    0  0.51147736967193713  0.49189310666482489
  14    0  0.5  1
  15    0.51978047546950568  0.49101202885027179  0
  16    0  0.5  0
  17    0.48208785530916798  0  0.49201160858758131
  18    0.49153725139903914  0.48120282469816089  1
  19    0.52122165044633051  0.46589997942868483  0.5129515778565209
  20    0  0  0.5
  21    0.5  0  0
  22    0  1  0.5
  23    0.5  1  0
  24    1  0.5  0
  25    0.5  0  1
  26    0.73658501070553473  1  0.74870401529765762
  27    0.74778138381277881  0.7348203925806146  0
  28    1  0  0.5
  29    0.52675407114539619  0.7443698430138419  0.72775666040277498
  30    0.46004830038493438  0.75149099269956976  0.26000968723086765
  31    0.24842029482090508  0  0.23525220807467845
  32    0.25234599368343552  0.26473011651033324  0.5217428436422854
  33    0.76085548223823674  0.25713772164731463  1
  34    0.47838493401245613  0.27505643690222104  0.7372544207221724
  35    0.74851295369706417  0.50649333257297102  0.75627349688863144
  36    0.25554942505904277  0  0.5043970331741473
  37    0.75839381651598003  0.48248671749021654  1
  38    0.48197788305559569  0.23525759039643124  1
  39    0.23134515133731653  0.50324528606170826  0.27128604369836973
  40    0.25  0  1
  41    0.25981065075438109  0.51526855629776458  0.74053090148361345
  42    0.25940754573734376  0.76069797627760138  0.51867045818782676
  43    0.47896073073899442  0.27206520191833394  0.23624578001716234
  44    0.73418494440581372  0.73455465859333791  0.48725820545519538
  45    0  0  0.75
  46    1  0.28066560880504848  0.74523175778673145
  47    0.74166855007062737  0.25872211254400984  0.47773927353505596
  48    1  0.71171939351728208  0.77933862626015182
  49    0.74372796056921497  0.27964805497496914  0
  50    0.46604172282550127  0.4789397055364224  0.72412731799047281
  51    0  0.25  1
  52    0.48460489592325129  0  0.25308528784545248
  53    0.34871477891811153  0  0.37269423392382006
  54    0.75388837202465508  0.5036064923388367  0.26208059470409095
  55    0.77732194923542741  1  0.53622245054860007
  56    0.51364252299267832  1  0.73038645610377428
  57    0.73804364280714607  0.49995573318608394  0.4767423090908034
  58    0.24926684123782  0.28771472018234689  0
  59    1  0.27680190406160987  0.25342622302585549
  60    0  0.75  0
  61    1  1  0.75
  62    0  0.24995520937178434  0.24921441686768364
  63    0  0.47321205161089386  0.23834269472071631
  64    0  0.24518642224702905  0.47650841710002206
  65    0.242774032332917  0.25236562187102507  0.25344138616083878
  66    1  0.77975968774472293  0.4655650000564005
  67    1  0.84215623266158113  0.65282004149385453
  68    1  0.75  1
  69    0.75  1  1
  70    0.25  1  0
  71    0.61094115960047801  0.35145190576095897  0.64245001874475571
  72    0.59382091520173208  1  0.87360142669131657
  73    0.3399595750984617  0.12085180779676265  0.50712620306875833
  74    1  0.25  1
  75    0.35561590628245254  0.11790896191088597  0.24154181601489255
  76    0  0.75695287678493306  0.38433916524878936
  77    0.62617955790182123  0.86318504280530484  0.73702739199328826
  78    0  1  0.75
  79    0.62306242357897557  1  0.26619598664815874
  80    0.62835339262701961  1  0.5945513885409085
  81    0.5975294334346668  0.38288341542567  0.34621655187566769
  82    0.4950048323491768  0.75078985608943705  0.51492285368497959
  83    1  0.22670220556971776  0.50136640170781599
  84    1  0.50202279732174471  0.73512805426139205
  85    0.68840390340957047  0.33776489171234786  0.1983559040329459
  86    0  1  0.25
  87    0.36606343886829718  0  0.7576736515642184
  88    0.37620067162110654  0.64835434471990327  0.37492150164674215
  89    0.87675792978952583  1  0.65291057386379392
  90    0.24164388761774649  1  0.64322639583981256
  91    0  0.39330428780454463  0.74530292402194565
  92    1  0.75  0
  93    0.16525965273568413  0.54547243911277243  0.4490391195119301
  94    0.75407566135265669  0.87598252305071822  0.61527397001034412
  95    0.69082434978874274  0.36889228412054653  0.51582543623115373
  96    0.61981487744044328  0.40055684277525488  0.79427184759753144
  97    0.71400943569448627  0.4994959058520278  0
  98    1  0  0.25
  99    0.31339357456742573  0.69815303348372504  0
 100    0.75  0  0
 101    0.4313248964134983  0.312311987855726  0.44362669695600487
 102    1  0.25  0
 103    1  0.65334047699707998  0.59797728741920408
 104    0.75890508336054663  0  0.77065462103759985
 105    0.28648022975944321  1  0.29190065892194267
 106    0.15552052102846356  0.82729813814751973  0
 107    0.34921632242553691  0.83634844728707747  0.62538831736001077
 108    0.49785247042647779  0.24241191928689132  0
 109    0.86985428926447528  0.61366474651180658  0.76106673132425828
 110    0.36819693582748303  0.27302972915742535  0.12235210796508597
 111    0  0.75  1
 112    1  0.49958738982278905  0.25696551219160157
 113    1  0.4060834961509332  0.41374623480865669
 114    0.25  0  0
 115    0  0.25  0
 116    0  0  0.25
 117    0  0.3775665784362513  0.57692915424218238
 118    0  0.12314511352852492  0.4012403735693621
 119    1  0.12658250155470271  0.155969047995177
 120    0.16721824593999368  0.75985480416827034  0.26332688378245472
 121    0.6129585815094476  0.72374634880833777  1
 122    0.75562164562716805  0  0.26655490163573081
 123    0.76046521578919124  0.62482855512386892  0.62838982182443948
 124    0  0.68841959998798674  0.68853907980744011
 125    0.33125671222860542  0.55251641919553662  0.58226070701322807
 126    0.75  0  1
 127    0.49573419477839342  0.13225251341795832  0.37668040735912911
 128    0.32137083245766174  1  0.4797902955189014
 129    0  0.81252880783073633  0.18593703835231623
 130    0.32985430518254999  0.22601227211530184  0.37672535468277668
 131    0.25757091085382516  0.49001740986474673  0
 132    1  0.37949291922919665  0.58963242807593264
 133    0.14062905636931988  0  0.64461744852327185
 134    1  0.59795350786878831  0.87601562280956757
 135    0.46269876198833976  0.38524267571620657  0.61546522321826924
 136    0.5145867389669555  0.86477825028404098  0.61975115109707479
 137    0.87325353194433863  0.49642008587688741  0.38826590690445012
 138    0.62508573396492473  0.40087983298294105  1
 139    0.77672225107924597  0.68916248927112334  1
 140    0.48418472987891858  0.48064542891223327  0.19638190005195352
 141    1  0  0.75
 142    0.5954521056759029  0.14394636858482693  1
 143    1  0.73438947641543817  0.24968366748091153
 144    0.60563141745675153  0  0.86743776765079061
 145    0.7956025616957082  0  0.45762617878969752
 146    1  0.40157565247644367  0.87213959989985557
 147    0.18492182291105744  0.43484767025894477  0.5583749610148816
 148    0.13659605817124082  1  0.35718737533317041
 149    0.69578631618875808  0.68377338531103582  0.82405562826946344
 150    0.87018252293211751  0.87215109611444086  0.4815868585091021
 151    0.26923079740281303  0.26207981400337049  0.73533368289110812
 152    0.35997716094900456  0.38543440642743576  0.28285150806271697
 153    0.62452533353441009  0.60089222051995295  0.70257376329636523
 154    0.87205637772667755  0.62445904581445899  0.49833472608220081
 155    0  0.875  0
 156    0.83333969842669242  0.15624516627447385  0.23209294660603724
 157    0.15462619343513531  1  0.16673642549879597
 158    0.46881369002585788  1  0.33585039984069154
 159    0.36340365825983151  0.25389174802065545  0.63936760395896952
 160    0.84463961750738459  0.85903139578187759  1
 161    0.3277021124581852  0.74022153238605959  1
 162    0.31020959525497427  0.39256288429164626  0.68704092280607165
 163    0.47745780608707955  0.65261207576463109  1
 164    0.62517725943221636  0.57602020438800861  1
 165    0.48674589187227524  0.60985388489052694  0.64073562658988947
 166    0.87936014909618132  0.40754193632049823  1
 167    0  0.12498694593399164  0.12487433213328564
 168    0.24035224319098489  0.72087569663892881  0.70549676456599208
 169    0.73697502330292863  0.7284449875274841  0.27836339013090711
 170    0.12454485015020512  0.12694908241040814  0.24999053490283077
 171    1  0.59742764824987304  0.41098843668530777
 172    0.33558123218913222  0.12885714081088842  0
 173    0.86145859075373521  0.35266305491226335  0.5017964992630537
 174    0.75  1  0
 175    0.3961920512349551  0.39909244171945957  0
 176    0.23977431057521431  0.363558537566808  1
 177    0.3206013833614359  0.53792241857882583  1
 178    0.86264700840916253  0.50162889031491653  0.61447475630576431
 179    0  0.83372717938899332  0.55289444789982922
 180    0.16124974787120033  0.60320406616651756  0.60263908816610567
 181    0.372089342775756  0  0.1229664354481808
 182    0.37862960181694588  0.64227179014673275  0.82109383808488434
 183    0.86649433847236201  0.37342829532198984  0.24503739780674322
 184    0.17875648398608368  0.85027076787759714  0.36198089080624529
 185    0.83971237590308168  0.12759134425318039  0
 186    0.25  1  1
 187    0.23063939525043484  0.12934018750360604  0.13835007521214659
 188    0.61692441841287116  0.61497537751891118  0.51814216509803912
 189    0.65814542206832949  0.13598507703172438  0.49866870182542944
 190    0.33285694822446155  0.49908293739027398  0.42031216796074578
 191    0.84764417268334979  0  0.6159309887161718
 192    0.77111546956860466  0.11757896273144437  0.35153890479547578
 193    0.13579202749094096  0.6155589764785192  0
 194    0.83861808702165686  0.29110884955064786  0.83994460138900795
 195    0.81065982846936813  0.19924201118103874  0.65049806688758915
 196    0.58537264896084706  0.27676396054218944  0.50638152137958026
 197    0.31406459526607022  0.17701342797530895  1
 198    0.16452100631316871  0.49053258954853396  1
 199    0.88328603615716639  0.56498736061938482  1
 200    0  0.61353062609066245  0.13746131183294324
 201    0.26976708691365114  0  0.66572804577861788
 202    0.13270957567599428  0.27935550930394232  0.1178556423229066
 203    0.59988882192309256  0.37448815645846278  0
 204    0.31616389533798678  1  0.81776871217898639
 205    0.25483027507870332  0.38926314335113354  0.12915850539269305
 206    1  1  0.25
 207    0  0.54095589427540547  0.80499382249150842
 208    0.80014327640859328  0.36600107864570464  0.63723974728896271
 209    0.41157867268540471  1  0.1603264244687102
 210    0.73731549205479885  0.62060358472398924  0.37410873306862424
 211    0.20120560960498424  0.15764133701033411  0.61254650631250684
 212    0.38072611275723195  0.72118618441081206  0.55918883929320684
 213    0.73110783558820547  0.14263138074558343  0.86742636281153707
 214    0.67085675821363933  0.22521130412179885  0.74893574299678423
 215    0.85346303204656127  0.12785915427342867  0.49393920051070683
 216    0.14893521162663179  0  0.37319574043329651
 217    0.8393557165802682  0.84327202904793519  0.77001930839145771
 218    0.78957730705517393  0.56878888704349617  0.88493690214040166
 219    0.64308223144179355  0  0.14884655523730184
 220    0  0.21951306802715115  0.68759598678362188
 221    0.87005011669747201  0.58409110300980716  0
 222    0.88063388603566062  0.26695225172380999  0.37782914673339985
 223    1  0.50013040935744435  0.87197954045473824
 224    0.27688043550653174  1  0.15112081414311787
 225    0.72838290268826411  0.74006614748913391  0.70970146473736617
 226    0  0.52683186320310005  0.64542419949158958
 227    0.37135223990522825  0.83433719878350165  0.39935352156499582
 228    0.42251081645291955  0.87598422095177297  0.5038366738639688
 229    0.22559678468010541  1  0.41028348963033395
 230    0.87107245841266834  0.73028182856842228  0.39019188256418547
 231    0.66993230127991532  0.85126944158434936  1
 232    0.86952559509052174  0.41610161012309121  0
 233    0.13457300085238691  0.59997048937105257  0.75512135253334722
 234    0.62260234907051248  0.49376321003120671  0.14105213969129032
 235    0.63215603824456523  0.20000351473343317  0.33138041359161541
 236    0.14915815218230449  1  0.52275879327600305
 237    0.56778314630652771  0.56960549086327295  0.85605952100225935
 238    0.63096783749111407  1  0.42648228325523702
 239    0.68124956319089813  0.8289497412263126  0.87394881240906475
 240    0.16526911824319979  1  0.75012883163870259
 241    0.50241099185577687  0.37506796504130474  0
 242    0  0.63335999918321528  0.28592805267326193
 243    0.58607739496644995  1  0.13574634387676815
 244    0.72713017275164238  0.61038321864167255  0.12672611033813846
 245    0.54094360236926176  0  0.70664610215974111
 246    0.65878599040696018  0.12618877973614637  0
 247    0.12480943627187982  0  0.12235968542595962
 248    0.13796068215487731  0.25810241271544337  0.3816128185747063
 249    0.35875665786656263  0.48642827067303007  0.86637368337298082
 250    0.51144680175790258  0.13263173150769145  0.15618135491595594
 251    0.25086639385272624  0  0.37254147335026977
 252    0  0.375  1
 253    0.15328540803640633  0.88924358573109319  0.15840215423964615
 254    0  0.61408509058223681  0.4131047925606372
 255    0.094868938202255337  0.37210985465000623  1
 256    0.87016798979579102  0.7438835842988295  0.60484989792717492
 257    0.76911814437223724  0.32835439294390051  0.3429151182879131
 258    0.5089095822432772  0.20296052361577682  0.58658193178544771
 259    0.51865779099786768  0.77575184715348489  0
 260    0.6282969048045427  0  0.26226302687509884
 261    0.60029835808860832  0.27310815271964262  1
 262    0.80622753161084904  1  0.32658971820926636
 263    0.39339443764483628  0.42665808071777778  0.12793568358465859
 264    1  0.12852413661305237  0.83739610125281505
 265    1  0.89239435935994849  0.1440039824866193
 266    0.25628268985045999  0.89612874627373951  0.52669218112490368
 267    0.18445511594452932  0  0.82009883107341885
 268    0.15388518967811465  0.66116741969956727  0.14989761109632085
 269    0.31454951204625309  0.59447425675106791  0.71366392748048102
 270    0  1  0.625
 271    0  0.85086053630612524  0.72097703142480751
 272    0.39080652074349792  0  0.62325792033404659
 273    0.375  0  1
 274    0.45428097724495087  0.11257177231894558  1
 275    0.16346601324804674  0.13022959848912716  0
 276    0.84872015670983192  0.29489815829899824  0.1354442151361592
 277    0.58506164186071385  0.83849931594878224  0.33108228943937806
 278    0.36906751864209397  0.86357473007284957  0
 279    0.68126187473911293  0.26484029303534745  0.60593412497955823
 280    0.85616765365598069  0.77386141375480388  0.13283583725625758
 281    0.7413762639561654  0.42896350101361858  0.88419769470713161
 282    0.65350013605977231  0.87683289428936917  0
 283    0.67865599576351909  0  0.57890951340230168
 284    0  1  0.125
 285    0.46053812293233332  0.62683836119772218  0
 286    0.85294940665245023  0.87225466954713338  0
 287    0.45674460762069458  0  0.8667784806364518
 288    0.39219819623150159  0.35474729121451187  1
 289    0  0.65483442020841442  0.53385252380604631
 290    0.64013607228239444  0.76031267227980748  0.12891944608646116
 291    0.45843274239591508  1  0.88454009214081442
 292    0.87702900459435074  0  0.87898637042225847
 293    0.32668449963583562  0  0.88608163651261285
 294    1  0.12575775375726661  0.66192120198202464
 295    0.54793097063165708  0.11416526862080488  0.82311679074707345
 296    0.27047256535527275  0.84574099170592798  0
 297    0.87557197653342567  0.14270179058297827  0.80428060143267477
 298    0.58659636842347962  0.13502395060565681  0.64421095938465811
 299    0  0.39370853403871214  0.39948798006383285
 300    0.87049643246844333  0.63181478089485388  0.24025880205803385
 301    0  0.39042888977550239  0.10399181154117811
 302    0.73045461751689778  1  0.17502690002737931
 303    0.18217246115242858  0.61885739211243906  0.3373949967473262
 304    0.37793297736355269  0.15756016463331513  0.83402357361688861
 305    0.86835957134834418  0.48822491624889097  0.12487559207775037
 306    0  0.375  0
 307    0.5960925498229922  0.62458956989013115  0.25143057603631713
 308    0.38923411758880672  0.31251745861760205  0.83288306935562229
 309    0.30466356769257369  0.83714629187703893  0.85133716755172906
 310    0.3768705131071779  1  0.64307179297965944
 311    0.49140017815474835  0.81588384100539235  1
 312    0.51271712565068606  0.86399998163707625  0.13972372529422028
 313    0.60721799480130179  0.87517741262047011  0.48979325759822367
 314    0  0.42083539309188239  0.88281824690866351
 315    0  0.52240347526642794  0.36580847207151329
 316    1  0.86697596669608357  0.84031161881295779
 317    0.14033883946379488  0.23415604074757634  1
 318    0.87273366228303551  1  0.85192135151674775
 319    0.47462882872013062  0.52990044163810712  0.35086274850928589
 320    0  0.14588920723438781  0.86179759902566844
 321    0.17462625469387497  0.12826967610646073  0.78875153643064055
 322    0.1368796506800814  0.43328079201823322  0.71302049666670753
 323    0.12608613731739493  0.27882650566789025  0.6371386721403518
 324    0.33712509778111155  0.86481101285659556  0.21277696827794912
 325    0  0.29700318479520865  0.8624022793001519
 326    0  0.86361132301676258  0.86428305374714975
 327    0.13177145395327372  0.38157626952606272  0.26558413225221755
 328    0.67333476603538078  0.17184738486071352  0.14944866809851201
 329    0.74095090619250181  0.41848282556280275  0.1145817722035431
 330    0.10587959301028316  0.41949951070634817  0
 331    0.24269340993213939  0.36797653278258435  0.40368108853552265
 332    0.85618066435480022  0  0.14731987578912195
 333    1  0.87645444230813963  0.34791042366658131
 334    0.32866893173715156  0.67007116323112603  0.19707172602644774
 335    0  0.49614372896219866  0.12132229939016899
 336    0.24631069292926902  0.39178560369210308  0.86650391921789105
 337    0.125  1  0
 338    1  1  0.125
 339    0.34092860302453865  0.37492438264242978  0.52409152998783659
 340    0.56899686757771295  0.69548771734928749  0.39759044120442555
 341    0.72062101761492947  0.88507278951049728  0.16533488385903561
 342    1  0.12377403580977413  0.34462057505581517
 343    0.16301265287152797  0.65131535113416072  1
 344    0.1484830013363112  0.82014810934951643  0.61078924205993934
 345    0.12671203663701186  0.31024017626207673  0.50283999782114486
 346    0.37576580138155913  0.1236292379103  0.69576888324338315
 347    1  0.87564397913919112  0.24887092078010903
 348    0.38182328632283002  0.53842554828415468  0
 349    0.51705034442464348  0.3491094157274886  1
 350    0.63621780744301282  0  0.38944357952334768
 351    0.45755697459198508  0.60777810526536913  0.46808766770480076
 352    0.48622097778403284  0.87812510252632725  0.85661143639749748
 353    0.85428028271305556  0.71572297428105203  0.87044761801120241
 354    0.125  1  1
 355    0.60204474079611359  0.51970681752474679  0.33401780315328117
 356    0.28121289636369146  0.63618525284984551  0.46767820488166478
 357    0.11698029162457076  0.30189978907719256  0.84812391136091481
 358    0.65131414376821239  0.48051588618385355  0.63265546267981365
 359    0.375  1  1
 360    0.55831342311097465  0.35176064319737693  0.13348075024919809
 361    0.59506543890516339  0.6267792602349459  0
 362    0.38803985933420115  0.76035333907296954  0.73093575212349782
 363    0.7528822615106131  0.87165992348017018  0
 364    0.31673674501783994  0.54296512471304503  0.10715176183018901
 365    0.66348691283259287  0.27741678972675132  0.88001717566582816
 366    0.87716753251471102  0.12586410051877606  1
 367    0.88112545911080387  1  0.15091604347306237
 368    1  0.41356739814192517  0.12568924443180862
 369    0  0.70349973386229714  0.84810918460043805
 370    0.74027603459850566  0.87836774853640176  0.38971300050872393
 371    0.35295869827311988  0.90117664684612975  1
 372    0  0.11761305735107011  0.5549233382137484
 373    0.14647392686571778  1  0.88636441699844404
 374    0.15221583311289125  0.47686467107638064  0.87774357477526743
 375    0.88201123100787426  0  0.34901956499242059
 376    0.12423261084927996  0.47972720835474236  0.11941623778525338
 377    0.62159611774319035  0.73983488263324371  0.59876479237769298
 378    0.52013328820104288  1  0.22267534983147463
 379    0.14791735851723148  0.13296463482059678  0.48821422288537103
 380    0.1125886324059034  1  0.65614551119109521
 381    0  0.86516511894445947  0.30796404163329194
 382    0.17374461117982659  0.86221770515711893  1
 383    0.87111579239235426  0.85922081025552699  0.26619413808531434
 384    0  0.89010097458949733  0.40305047404242172
 385    0.87245636576728436  1  0.75042058094221331
 386    0.49306280370326944  0.63637841312795873  0.11695417662352674
 387    0.47837417185025621  0.74998560911141143  0.88709966720011613
 388    0.14903064952619791  0.77035215222159903  0.85460794362186743
 389    0.87891386171907693  0.43607416738565213  0.7695005900006946
 390    0.38921961728305027  0.55966431232305891  0.25464910243353917
 391    0.21725338068539901  0.62207551481513879  0.85755613344708737
 392    1  0.58551331991692757  0.12544390912189016
 393    0.28617703588966681  0.74803584894625452  0.37660320424196975
 394    0.73130968121672157  0.35571896219960558  0.73546575685337001
 395    0.25795117168526316  0.21659628538022893  0.89132079710598822
 396    0.75056901449831404  0  0.13600535108471179
 397    0.8829296186907154  0.4831988169869757  0.877058509105065
 398    0  0  0.875
 399    0.33361066373325021  0.76934855401479707  0.10661855615475657
 400    0.8731564322760722  0  0.25238868095311284
 401    0.125  0  1
 402    0.50912343605092569  0.37711790337744294  0.89342172217897786
 403    0.24958431909298037  0.88915836546856941  0.72031720146063904
 404    0.12015380928608724  0.85817410953082052  0.779168398363279
 405    0.13474006756193796  0.70925938182562509  0.46197919504150886
 406    0.11368479806797621  0.89029242769915207  0.4936132296684112
 407    0.11910311674809433  0.43599536822405699  0.41735902042294704
 408    0.22863899125821063  0.11759384279705117  0.3594939523057803
 409    0.55176036628145697  0.24717226263680375  0.88909616268203495
 410    0.43116186342534529  0.88661149182143006  0.74440569873983653
 411    0.16873895540852732  0.10797658063390454  1
 412    0  0.125  1
# Generated by c:\dev\polylla3D\tetgen\build\tetgen.exe -fzenn c:\dev\polylla3D\data\1000semiuniform.node 
