991  3  0  0
   0    0  0  0
   1    0  0  1
   2    0  0.49726326541911914  0.78227887464836821
   3    0  0.70373378680476462  0.25152581966405829
   4    0  0.82173419815306203  0.67901418128604263
   5    0  0  0.35497432263158513
   6    0  0.66401451987479798  0.30448955921098275
   7    0  0.37677025997997771  0
   8    0  0.62799545827959857  0.52727283902992494
   9    0  0.12052346534402503  0.62726361061807767
  10    0  0.51311611703917237  0.1686779247808663
  11    0  0.66940846282337474  0.19235173783202708
  12    0  0.56641899124295814  0.46550873440302809
  13    0  0  0.7332234630984853
  14    0  0.71209484168218373  0.3655580892595971
  15    0  0  0.64646282328059046
  16    0  0.12885282937129228  0.13551062754858079
  17    0  0.89279193552776659  0.63048563055449347
  18    0  0.43439160626078266  0.50700629802368624
  19    0  0.13360728539497368  0.6671801579713611
  20    0  0.48397778552975845  0.57316176416808362
  21    0  0.63700276462874095  0.18518687276005696
  22    0  0.682779546664117  0.2105089874112166
  23    0  0  0.26352573060730056
  24    0  0.24828921067117882  0.25038656170781681
  25    0  0.71301930458851492  0.53835938837811692
  26    0  0  0.51821997288230803
  27    0  1  0
  28    0  0.58951215456951322  0.60656526977283987
  29    0  0.15737754176207619  0.61338364068554396
  30    0  0.23175500499200108  0.22833657746744029
  31    0  1  1
  32    0  0.67779493467315777  0.85050159261655811
  33    0  0.87650111181633727  0.54621437308093534
  34    0  0.27911577221899619  0.59335957075891788
  35    0  0.483133701642946  0
  36    0  0.15893877045571136  0.33570977736854812
  37    0  0.11622896320853471  0.84851936838544273
  38    0  0.76222758148066705  0
  39    0  0.8872150732534877  1
  40    0  0.8694287519562971  0.14489895146376097
  41    0  0.25461607933685826  1
  42    0  0.41510661584370157  1
  43    0  0  0.87664380878139214
  44    0  0.5907307420814577  0.81559599678926675
  45    0  0.41503114771808136  0.62690355931899555
  46    0  0.23349180277382808  0.46612774739163609
  47    0  1  0.39169807891426178
  48    0  0  0.74688850113805993
  49    0  0.18392896214944876  0.7324917601085541
  50    0  1  0.24424668126239923
  51    0  0.78982769197919156  0.41322157458588049
  52    0  0.88357934852469544  0.29291891486768296
  53    0  0.49114152890646878  0.42209245872029899
  54    0  0.38900742971575775  0.45700910211381762
  55    0  0.55117183952993243  0.55849196744929086
  56    0  1  0.59198746123264467
  57    0  0.48785797561708655  0.68903001806564745
  58    0  0.1793165141069285  0.5998981205830477
  59    0  0.71370064148864754  0
  60    0  0.33075659876056462  0.54270106133398366
  61    0  0.21208256192179631  0.23172107969749778
  62    0  0.45990871435666991  1
  63    0  0.31676351406169134  0.78689543044876964
  64    0  0.67658794868990824  0.20050748245017425
  65    0  0.64848919411263006  0.83781948701317599
  66    0  0.1931039638069012  0.70337421725414095
  67    0  0.61301100483765913  0.71339274724628277
  68    0  0.79761921762536292  0.26686399945972816
  69    0  0.57098926876152523  0.4392742991337043
  70    0  0.40855826488329416  0.554997012784335
  71    0  0.16801617707583094  0.64604224639082919
  72    0  0.35805451674713051  0.42049657462876633
  73    0  0.16547178108763194  0.34047531073690196
  74    0  0.49652584730414484  0.71726048503063555
  75    0  0.78556321657624817  0.39938466665041994
  76    0  0.52995645587467666  0.73306776775065141
  77    0  0.58761038837257029  0.63563065263563179
  78    0  0.88493734356035658  1
  79    0  0.85021982594383783  0.37138274984300235
  80    0  0.76156550138362711  0.28742590764295217
  81    0  0.59591764113252754  0.30680555013209021
  82    0  0.21598155693578713  0.63483435324580029
  83    0  0  0.35249126979814971
  84    0  1  0.28468399790938304
  85    0  0.37185122530831416  0.45164593131443753
  86    0  0.70373922120329191  0.890106681216005
  87    0  0.60399486773695388  0.63749772890089984
  88    0  0.41871545435700575  0.85946704104380933
  89    0  0.85369163362962797  0.28375953968059908
  90    0  0.6093329837656728  0.54083902262022632
  91    0  0  0.57623578881061188
  92    0  0.30272890016183285  0.84976293295564831
  93    0  0.79497935524984098  0.61760616966740012
  94    0  1  0.69657109036310327
  95    0  0.83187730597517584  0.88983352763140555
  96    0  1  0.57585302189812426
  97    0  0.17209671069004606  0.24822545047322786
  98    0  0.49565474573591817  0.57527790970283088
  99    0.10135582998179626  0.4859870874433444  0.52762319597973539
 100    0.1019943826142794  0.19906941898996566  0.41173779212882866
 101    0.1029944345435273  1  0.48097102765921573
 102    0.10316409608127741  0.32999803116249693  0.31000854262119226
 103    0.10336015863657966  0.43883697385524056  1
 104    0.10459872548442817  1  0.69979876539781349
 105    0.10562097347377608  0.56335916776208439  0.64228423921154931
 106    0.10571508194278012  0.35629227172633926  0.24546197492210586
 107    0.10660643786368151  0.68886994575772953  0
 108    0.10797637149140027  1  0.44286620904319174
 109    0.10806421609609185  0.42572078001928115  0.46725567975817295
 110    0.11059796488435236  0.18373032430828051  0.54876446557154157
 111    0.11103127051674644  0.74186963029088338  0.79282140970479364
 112    0.11365012995308232  0.11797300765766927  0.34873090314853106
 113    0.11451460015584791  0.7788135236807322  0.34014974242787854
 114    0.11687537062507747  0.23001551543628174  0
 115    0.11809842400185433  0.7858800656757684  0.22421691249189568
 116    0.1186560257654663  1  0.7022076129932715
 117    0.11874012810549683  0  0
 118    0.11963367105719214  0.43977905119562843  0.13078697806565032
 119    0.12006243775796432  0.58750658840217596  0.31105668770976758
 120    0.12023973061322479  0.41500142071257007  1
 121    0.12098572937616703  0.33719830784471616  0.31417577268960883
 122    0.12177669318860418  0.13679251230195189  0.18551822454452482
 123    0.12248142198975542  0.50118131435769298  0.62906134575769912
 124    0.12566795723640356  0.29786022380688837  0
 125    0.12574200441160044  0.74323954774115664  0.87691270155843526
 126    0.12631667139453573  0.74223635426774459  0
 127    0.12642989495764712  0.87762987496688172  0.72368796184518824
 128    0.12776774175127914  0.75501908780997828  0.27729307909450984
 129    0.12797004893020669  0.71256693489257628  0.35412455191690428
 130    0.12911687409855754  0.33855112508819973  1
 131    0.13058885388213215  0.82000004062085929  0.49169634914404581
 132    0.13152734189478266  0.49363810093490867  0.19857870201271866
 133    0.13493125760104574  0  1
 134    0.13494737247526056  0.5556246042700318  0.7081090763340937
 135    0.13575339688640331  1  0.54487405473049144
 136    0.13698601677868327  0.1552843456773445  0.71528122145393924
 137    0.13774916010485683  0.2574854499930439  0.4963673848934913
 138    0.13786172605162794  0.7425826334701684  0.85122227142156992
 139    0.13849887078828382  0.55879042283349767  0.82572542370647384
 140    0.13951659187821297  0.30801661554217252  0.445382914740592
 141    0.14024625927566614  0  0.80062310371065082
 142    0.14211213066686446  1  0.35364318935797301
 143    0.1425534062615651  0.29070212328322831  0.70356044100544191
 144    0.14399959398625795  0.43563255613797069  0.69897362861015599
 145    0.14998627460680214  0.57215593062030123  1
 146    0.15210135074969267  1  1
 147    0.15396862513167597  0.45460918196209876  0.73366353593307332
 148    0.15406350652147727  1  0.15492302890518306
 149    0.15499760091460546  0.57010580438667535  0.15295779704087875
 150    0.15613000663141885  1  0.36912284004407325
 151    0.15771138759657743  0.32254055400349846  0.87156406916484874
 152    0.1584081326630119  0.83341931826624382  0.40037009518815436
 153    0.15997724408675174  1  0.41523105953432171
 154    0.16089166723581183  0.10124052470841871  0.32894397261579433
 155    0.16212168657884685  0.54242146650609924  0.17839633243259512
 156    0.16459250024029071  0.57334663361616112  0.57051492985878538
 157    0.16540703462253925  1  0.51605238029097544
 158    0.165821305598709  0.24699862640430781  0.62386950373401606
 159    0.16585447943245879  0.24941075554156278  0.33102956641084547
 160    0.16591049535308733  0.51137831068049167  0
 161    0.16738172773297189  1  0.51466105737961276
 162    0.16835602761519342  0.71389435749009  0.61808749020185327
 163    0.16981946089117306  0.70235162835985721  0.85654003059347905
 164    0.1703827694928568  0.78834129796685337  0.2053124935712195
 165    0.1709659087911739  0.82945144865923925  0.69063632052437596
 166    0.17137551019478547  0.61799603670573844  0.82258792996630337
 167    0.17176456059896217  0.15317867742695346  0.69749820095747805
 168    0.17210355329183158  1  1
 169    0.17293629319321036  0.40681669137116561  0.38451386211891025
 170    0.17302937391785289  0.13260778132470941  0.84339638231612324
 171    0.17504407602916605  0.55911359292407581  0.21979166645697013
 172    0.17568946873590896  0  0.54269428091611993
 173    0.17670023397458789  0.26912305237978817  0.75078280601549741
 174    0.17674105525098005  0.41357811201169814  0.60724443947718076
 175    0.17695529776965224  0.79992044328924472  1
 176    0.17719172190536225  0  0.45369719768356243
 177    0.17764710008690832  0.20249104745673918  1
 178    0.17878490285981208  0.46260093936802249  0.52975172395352932
 179    0.1793883754363349  0.10786736739866776  0
 180    0.17968766552105053  0.89155662873010755  0
 181    0.18167830518622363  0  0.23557633299214864
 182    0.18192480109719489  0.76831934428473569  0.78352838364313981
 183    0.18230848535765121  0.26778271197847892  0.13477596558984839
 184    0.183575415643773  0.18857133926949932  0.57664430627207197
 185    0.19369076643069039  0.38997752185251433  0.56630889018769159
 186    0.19758226769083342  0.29742622031788157  0.38334283707516026
 187    0.19911544702945039  0.38622273945038654  0.8699785335491883
 188    0.19953060169306358  0  0.7508522668259795
 189    0.19982297096080837  0.77716956666696635  0.3927610604063082
 190    0.20054966701091514  0.54565914460769338  0.42820782954305392
 191    0.20112492934666126  0.74412529769977653  0.33618567768222019
 192    0.20192933538640001  0.27712148616821997  0.58034521896261071
 193    0.20216371408259681  0  0.52619364170039618
 194    0.20265794072978283  0  0.39827244771708725
 195    0.20275153242560051  0.32723610998394459  0.37465311995746076
 196    0.20300278361373048  0  0.18559145262744237
 197    0.20572284965167087  0.43619880202415751  0
 198    0.20600954456792708  0.80944253128957233  0.72253962100585767
 199    0.20616547079261416  1  0.39008994384852091
 200    0.20642885844953773  0.77945773395936546  0.40988050388045316
 201    0.20737043133390509  0  0.27862161603743085
 202    0.20780085249638824  1  0.12710838265795044
 203    0.20966716220035231  0.16104079070268651  0.27081331038599588
 204    0.20984354656420934  0.51718129463383233  0.63237718536411558
 205    0.21167244186435008  0.69995538289565762  0.43716515639822995
 206    0.21356912967138164  1  0.57975247593466195
 207    0.21383573556798408  0.81119797917419323  0.30337087835494203
 208    0.21496634783442137  0.58471615844732661  0.33303445952004218
 209    0.21635112707811688  0.73389533725027145  1
 210    0.21702956175085342  0.25327370023868712  0.613842732508463
 211    0.2196149546064311  0.70636863728784294  0
 212    0.22037811391078155  0  0.56547071977761665
 213    0.22076549711321392  0.37726308483570337  0.49810778974221415
 214    0.2226760638996399  0.30023946941517166  0.6343274656488358
 215    0.22297389646561416  0.30342735688821965  0.84739386704989539
 216    0.22535086739422094  0.2879573999765126  0.43771643060144261
 217    0.22633312742476397  0.63677536972279358  0.62146764320378833
 218    0.22660169861080548  0.2833733241313986  0.13211121456009933
 219    0.23455409666241511  0.12897980409052623  0
 220    0.23610574107764637  1  0.12303276448806988
 221    0.23633481940279655  0.60838983613637443  0.7165250087392071
 222    0.23721023376498473  0.89776779031459741  0
 223    0.23754222768542899  0.42537157131389447  0.77033992427422093
 224    0.23960802818356497  0.40775465763117547  0.17375507922934075
 225    0.23978166275917689  0.89948136237293297  1
 226    0.24217857660560627  0.1003532824777098  1
 227    0.24449716615041139  0.5999455949704896  0.783870717851187
 228    0.24451340674271826  0  0.4770547723087446
 229    0.24477066689004123  0.1102951468533494  0.58024999490655371
 230    0.2462266382145305  0.86160857690232939  1
 231    0.24693447313082995  0.51245426718994591  0.55827368189087223
 232    0.24931164654427507  0.70339987357242806  0.12300033091649876
 233    0.25034374006115789  0  0.57588656696668594
 234    0.25161393253865749  0.80769036602197297  0.22726025549576123
 235    0.25265636337491937  0.66470348617929398  0.18727035574658979
 236    0.25317256114072006  0.33867548441433915  0.30160960545514581
 237    0.25679126308327138  0  0.15416695019764159
 238    0.25757446368491832  0.21512353235091219  0.78610514042881541
 239    0.2588160557335083  0.5018285252554967  0.38504241109743731
 240    0.25940530024799591  0.50896943481430357  0.23474563749223076
 241    0.25979150170851384  0.87553533689060348  0.57180568160496514
 242    0.25984615414243206  0.68849395797743518  0.7200856895267187
 243    0.2599081453596328  0.55466986143621744  0.79923070867879409
 244    0.26006065659876121  0.21800485086650867  0.13030303398530763
 245    0.26243670556670895  0  0.34069842711493536
 246    0.26286524942272582  0.19125629215279571  0.44615355306082716
 247    0.26416470450465668  1  0.32384553033181496
 248    0.26510726119307026  0.39632622723997968  0.59534351831859578
 249    0.26844983350128804  1  0.76796327223592986
 250    0.26977080233727324  0.62445445273972244  1
 251    0.27089966504761254  0.61564234004675145  0.44169493644531532
 252    0.2716465672103503  1  0.18850965566129418
 253    0.27326680094447275  0.57721256316452496  0.29259942234455927
 254    0.27354259248458745  0.26971031583099814  0.19472353145677446
 255    0.2743420537749699  0.30607346277764835  0.38172868324908149
 256    0.27447827342657893  0.21932189285323922  1
 257    0.27571029420226378  0.52885649262596357  0.19096253844608757
 258    0.27712827125052808  0  0.41902921174739183
 259    0.27923302398043737  0.31498859462450035  0.32102509303588933
 260    0.28057776162586645  0.88602855105780653  0.2146897066453588
 261    0.28197013328184428  0.13471841394590389  0.73646051166827442
 262    0.28215745452321384  0.42146437545800786  0.10889248850316058
 263    0.28218248383039235  0.27911880641122566  0.42908362378635501
 264    0.28272250689432221  0.84656849037555393  0.11004980876552628
 265    0.28616287457950318  0.61918549636250342  0
 266    0.28665691773034097  0.7633308009758587  0.80888845785821417
 267    0.28758946655896211  0.49035837223097367  0.53676884573397265
 268    0.2877412192540949  0.43484801799404416  0.84689014754246073
 269    0.28875072580889172  1  0.15149192257613275
 270    0.28950271788205928  0.18852468051460236  0.71354932276591065
 271    0.2901390285692621  0.25846704109950658  0.73987321540874162
 272    0.29125963789852782  0.88954097337256899  0.88323817907193414
 273    0.29191854539071171  0.31369501678801603  0.46005971783952715
 274    0.29386953466090737  0.53422946878851274  0.62794884544556284
 275    0.29504367344059179  0.2447555897977306  0
 276    0.2966483502201086  0.83389100388229564  0.47980658719028912
 277    0.29712523370648669  0.76071173205392084  0
 278    0.29885207834550631  0.79257820072549789  0.28569996357018057
 279    0.29996362799061083  0.31637708692189004  0.45295372345529172
 280    0.30019402244448745  0.76875766666168577  0.58365016053690688
 281    0.30203840983593466  0  0.35077338354483611
 282    0.30246440822893539  0.59090478188037587  0
 283    0.303027839583492  1  0.52320971809988859
 284    0.30447579772157551  1  0
 285    0.30464131358168445  0.38467830669677461  0.62283637022728811
 286    0.30684945195362601  0.74245753823503524  0.46208627740652797
 287    0.30746355257579072  0.74179841902599486  0.48862906949611395
 288    0.30769008963211608  0.42012295376999431  0.18962054134658146
 289    0.30836129482548447  0.2782552294522882  0.29441636262682669
 290    0.30882311163740694  0.23720220983614848  0.83476609458324269
 291    0.30884976406815468  0.23450129892121963  0.68272259802447244
 292    0.30893137603557164  0.82732427315661816  1
 293    0.30935989248507823  1  0.68333833073802397
 294    0.31031525071436761  0.1572605367363612  0.48143528230562527
 295    0.31125016538197725  0.78425429103262867  0
 296    0.31135527707263611  0.66339123002044886  0.56639409931808959
 297    0.31252572935544465  0.34514153141549142  0.64454975889914845
 298    0.31514832957823025  0.10617092298657382  0.47599065188662404
 299    0.31697175339581696  0.64951773636132581  0.17766481659313238
 300    0.31832544980636657  0.82838157642841181  0.47270832224817672
 301    0.31978465759075181  1  0.89832542442459118
 302    0.32242115662648274  0.18889300058925873  0
 303    0.32296087977373245  1  1
 304    0.32424704711165031  0.48100764852156763  0.53884599075435502
 305    0.32467854188455703  0.88991922225522346  0.15114187043662075
 306    0.32501672177951224  0.78602181248533731  0.58861959259920915
 307    0.32528930741349549  0.3596367295784072  0.82718736070805765
 308    0.326884887328734  0.52146892007299162  0.80363082816625642
 309    0.32695685953010545  0.54921105430042516  1
 310    0.32769139597328856  0.83085667395607254  1
 311    0.32893401766279573  0.77080382968588146  0.44083453044306942
 312    0.32943090218295534  0.73719769698831883  0.48860453150676364
 313    0.33056603717694011  0.78204385181409097  0.59558009683507018
 314    0.33181634459214115  0.68402724842496687  0.56017541669783599
 315    0.33287563367849493  0.45232618506537825  0.51665152983941287
 316    0.33385078516711042  0.27829756889269541  0.68454565263606204
 317    0.33404649120071483  1  0
 318    0.33409337004424045  0  0.64632194245269714
 319    0.33418755388966248  1  0.65528638060285005
 320    0.33420521388485092  0.81279122440885876  0.59227695840167605
 321    0.3360149043788504  1  0.64076817028632116
 322    0.33605921229269553  0.55119879728512322  1
 323    0.3363904921868609  0.65426235499118157  0.19531690784348954
 324    0.33735532813179792  1  0.5638263036678961
 325    0.33960049651497848  0  0.48923045585694858
 326    0.34161545372714308  0.59142307009144635  0.22671883271722448
 327    0.34200528598422097  1  0.66704213827326575
 328    0.3430916492404511  0.54493363113092053  0.31426410283555262
 329    0.34521306722488498  0.42639965191253348  0.54111443055202524
 330    0.3467092312623743  0.8578416184782206  1
 331    0.34687102482507093  0.66070790743507368  0.87340387483609727
 332    0.34742406898442413  0.12443512423643532  1
 333    0.34745579306583485  0.18662976278810361  0.53309742487787148
 334    0.34834685757264672  0.7543680601734376  0.47129443283268246
 335    0.34948085206024826  0.48005612072998394  0
 336    0.3498311760932058  1  0.46815104745129377
 337    0.34987542392692694  0.63465640967891179  0.11044140210036157
 338    0.35189015370887222  0.42297514014420867  0.76310250379197542
 339    0.35491563685471295  0.87566907538449679  0.45116381015665774
 340    0.35568799742458079  0.39511958585770579  0.27675743370753147
 341    0.35572618507599219  0.71370555571454752  0.31308639817684991
 342    0.35719005248450364  0.17537642502206208  0.37370314640909341
 343    0.3586535110632677  0.10881473033465483  0.4931325499058381
 344    0.35951231559069996  0.31795006141634208  0.47025066388186865
 345    0.35962250835880616  0.39564743601266672  0.19615172015358473
 346    0.3605956383939376  1  0.59621618275859301
 347    0.36135311971036788  0.89507131384295147  0.13367208390495644
 348    0.36192916641683004  0  0.59077681861390463
 349    0.3620426236890586  0.11671867445119655  0.54460052651065372
 350    0.36315240065169008  0.37095014063333853  0
 351    0.36325593080431706  1  1
 352    0.36405362762383908  0.63262307913230553  0.34135011559927053
 353    0.36493111150281454  0.25727306371306413  0.5038703358788178
 354    0.36590878485914113  0  0.57902209326987797
 355    0.36656882817939607  0.81053180498323574  0.25080802607786357
 356    0.36840385939573073  0.33347947471628892  0.71649596165784857
 357    0.36887358243511015  0.20757987190444205  0.27289820499741801
 358    0.37042359345987397  0.4496794537351837  0
 359    0.37127240314822196  0.72331354598242947  0.68825267416082314
 360    0.37203029502575646  0.14334467949342355  0.61292634909603527
 361    0.37450588369383297  0.80276678021993553  0.49362993497305474
 362    0.37517062769927467  0.52911738303226885  0.53412752834151411
 363    0.37527021499013891  0.42344195318223266  0.2469967973218935
 364    0.37684812081310015  0.82941542569879756  0
 365    0.37861176893822079  0.78433919632965654  0.58885137169973745
 366    0.38048194246481393  0.24656476476329903  0.68156880229486116
 367    0.38099800871882461  0.69640198499947625  0.31781293755792683
 368    0.38498839995042555  0  0.67387319859979367
 369    0.38509341145164377  0.225242381456628  0.65668561397111702
 370    0.38795640804334686  1  0.52464138562078899
 371    0.38942740886783689  0.38182639151285602  0
 372    0.38952841493817603  0.7349000010421709  0.12875184068699552
 373    0.39039460038044294  0.37734290629738387  0.8718540092891035
 374    0.39147765324190986  0.43466992213856215  0.79703579597111596
 375    0.39246917100647738  0.67028213540392956  0.79138845726093421
 376    0.39525825965924166  1  0.36604631569395518
 377    0.39754034234160307  0.57674239564677443  0.88022909497556945
 378    0.39784551105302512  0.74197026382790099  0.48459107882094365
 379    0.3980720079239779  0.12522823982515852  0
 380    0.39869873728491867  0.48270354427479989  0.41477569878891629
 381    0.39874735661993743  0.10433589149553724  0
 382    0.39920718514908038  1  0.18472487812061988
 383    0.40045558973038586  0.24463408941271592  0.51407667017044167
 384    0.40224378939018879  0.73421764632319364  0.73010836478411767
 385    0.40263139639641188  0.30793822667811066  0.76578078332771637
 386    0.4047602109297882  0.37852646730438688  1
 387    0.40597687929934878  1  0.37945051530489449
 388    0.40890025293978338  1  0.16393947500457284
 389    0.40907638342131203  0  0.79911862380628695
 390    0.4091645870965247  0.13710129307680796  1
 391    0.40928900843174065  0.10303536644252198  0.47259475236319237
 392    0.41192283334422253  0.51851946983156239  0.7328358916814115
 393    0.41295098176810785  0.22928598032720882  0.35915940843146943
 394    0.41363644095074148  0.29280256282962269  0.16901375246484873
 395    0.4149755057145833  0.43408530602145379  0.26138033571383001
 396    0.41588768846126511  1  0.78534684881429062
 397    0.41604405765519892  0.64373896601016933  0.47909640457776226
 398    0.41687216852935205  0.44431997768090659  0
 399    0.41688484201137166  0.82790249881234179  0.11929543199330717
 400    0.41753964442706615  0.41487693792123226  0.20113323013248974
 401    0.41775327778110838  0.89260990311413946  0
 402    0.41882131040665749  0.54875912245673586  0
 403    0.42074846740737692  1  0
 404    0.42088808860591298  0.79569544346348176  0.18068317304078585
 405    0.42164161062142902  0.46885482905479303  0.41818376829228865
 406    0.42212045996584768  0.31391706067323066  0.85286402602015854
 407    0.42279214091104234  0.72131200429731346  0.50231173796755868
 408    0.42316504287019063  1  0.84378709966281185
 409    0.42451789112102645  0.37264165980259523  0.33217687143654784
 410    0.42667783210668453  0.57474711942658019  1
 411    0.42754192751336684  0  0.20185779245735491
 412    0.42756827499996308  0.63442633872567322  0.33051532198763789
 413    0.42888986626002557  0.18644924270525265  0.72014733186149027
 414    0.42900295052627946  1  0.37522380506295006
 415    0.42905123973022063  0.49811639204486791  0.70974729871515929
 416    0.42952598638497208  0.81420819112175602  1
 417    0.43034465730473126  0  0.4199783141103931
 418    0.43090726888372732  0  0.73927509803250036
 419    0.43111603790225006  0.15631333917486523  0.37905510530429976
 420    0.43144652175969045  0.73399981752492915  0.7492431188613069
 421    0.43154038752915469  0.24621445080383086  0.33824197699956027
 422    0.43160849465347795  0  0.16178166438027364
 423    0.43229983923579318  0.35396226620163318  0.19355061925514661
 424    0.43360621840623348  0.15348538056056171  0.53944201312497342
 425    0.43638910684431853  0.48476280881579581  0.79826778256093733
 426    0.4385211831457746  0.48709745013894234  0.67143700478447921
 427    0.43891245562989589  0.17502752160218271  0.70676723387026086
 428    0.43926012355928978  0.36688300945540364  0.62366319723169683
 429    0.44154109872865155  0.39907735028656133  0.33990042069378668
 430    0.44169715154955413  0.42580392546439261  0.35727598324734167
 431    0.44316804929671572  0.46635266235259931  0.17089109616858678
 432    0.44333420575252136  1  0.75006201080953105
 433    0.44350808460318469  0.80096762089164564  0.26700560101341264
 434    0.445033008500612  0.73017077173743183  0.72684929060961978
 435    0.446764076887745  0.1506919870184843  0.60771309482900349
 436    0.44817385539065691  0.27740215926498057  0.62535450318377761
 437    0.44857718625036092  0.79076330579134957  0.74262640278768388
 438    0.44863979754494676  0.52966681194983745  1
 439    0.45143332158393923  0  0
 440    0.4518704029452798  0.46651259649872012  0.81172038958860437
 441    0.45201457825142632  1  0.40790297375080453
 442    0.4539388979928104  0  0.89960313847903217
 443    0.45421804311111347  0  0.60380494078950342
 444    0.45516988205407716  0.20043562974462004  0.47933630802250926
 445    0.45541372600793084  1  0.3236221018588924
 446    0.45684501858124937  0.62310287998756386  0.84494386655156339
 447    0.45708527543751432  0.71031310277957305  0.56344652417585861
 448    0.46053506169893688  1  0.20317584344145434
 449    0.46155534805358478  0.13419761692104959  0.41122120803024731
 450    0.46425949932599453  0.74566709427536149  0.24541956254639119
 451    0.46622989932449488  0.76290365434528962  0.59024089961709936
 452    0.46702840122455569  0.59380614712867263  0.45012932051192223
 453    0.46745811474438537  0.66953588568520839  0.65071555338535869
 454    0.46978957188707826  0.22555378799309822  1
 455    0.47200105842122175  0.4201812852764133  0.71720691697887762
 456    0.47354165755511002  0.42328264693845108  0.8350335362311323
 457    0.47830135300825349  0.14903798115109679  0.79473509644361606
 458    0.47837275609864571  1  0.84413159845199182
 459    0.48001242881985073  0.3987905112647846  0.74047702724250786
 460    0.48085457142071875  0.28664069394302671  0.76542686678650507
 461    0.48150447599399293  0  0
 462    0.48156097584776958  0.39728743807292011  0.11107694254026135
 463    0.48280817637541029  0  0.12008744905611946
 464    0.48402323137783376  0.82438570867833527  0.60051000232801766
 465    0.48418395260559588  0  0.79862872603347379
 466    0.48544178649086789  0.86845622169390457  0.25597300718393334
 467    0.48612151476033172  0  0.58908667368954526
 468    0.4867492466529556  0.23005249958277829  1
 469    0.4868077109990242  1  0.55192643498540894
 470    0.48697570712198368  1  0.31826554801396456
 471    0.48702710145529138  0.47849744641634595  0.14434118496845438
 472    0.48743435213427422  0  0.89966646848858267
 473    0.48757424384704939  0.20604644191724952  0.73349155939949517
 474    0.48911309472783315  0.13148317012136845  0.10356380529924458
 475    0.48983290298842752  1  0.34776453089160742
 476    0.49030357734463759  0.54689853635872687  0.3873375802753205
 477    0.49043250672177341  0.31645103855850276  0.78810821356699035
 478    0.49048003820211739  0.21154460129621544  0.16108990389759437
 479    0.4916810660781552  0.84030835734416232  0.36441900429747887
 480    0.49196963141219718  1  0.804717437671988
 481    0.49415771670473407  0.32466546331689738  1
 482    0.49431515515645563  0.25839154997476588  1
 483    0.49440877101808622  0.276444102528137  0.19118113864546715
 484    0.49645651804444557  0.460746891070967  1
 485    0.49805678994621905  0.50029239462395447  0.15975700563883122
 486    0.49972235994395919  1  0.78667272398743582
 487    0.50130589463035136  0.3629074008377331  0.23559024332306788
 488    0.50210461545014118  0.80144069770773196  0.37878326790192851
 489    0.50210766479038804  0.16055894030209339  0.3509630501520542
 490    0.50327140725659147  0.59739953658486877  1
 491    0.5036416590095808  0.46288708293923608  1
 492    0.50372782976466424  0.52102769399537774  0.66873438560139653
 493    0.50441601537777048  0.34807966337117291  1
 494    0.50509136575461555  0.13551365688487227  0.26247635752190068
 495    0.50851045710756193  0.19543852026652486  0.55119806060269416
 496    0.50961842677060221  0.53140610992395032  0.19177306923772175
 497    0.51333866618114976  0.85427368579979923  0.63126958333164351
 498    0.51426013799994741  0.19596487140904451  0.56763159429475984
 499    0.51481390383699832  0.33316232858319128  0
 500    0.51486271995266886  0.27095671816812061  0.18410486041378304
 501    0.51719670997487921  0.72442887230833741  0.27274418413121915
 502    0.51798080986725437  0.43605979853787535  0
 503    0.5181714963847136  1  0.16328846578302747
 504    0.51844107527284433  0  0.4547460536397635
 505    0.51961498121589389  1  0.26699756644390293
 506    0.5199962579779609  0.65598823961535035  0.21159764135333536
 507    0.52060230334736857  0.81978182011786505  0.62799631943186818
 508    0.52324922978146016  0.41561989324842408  0.14594356314743717
 509    0.52545549906472699  0.7484254575820678  0.16027201689594006
 510    0.52721617307782087  0.6782368407960726  0.29866661991196997
 511    0.52796316783697461  0.13671529941262117  0.52268933728321409
 512    0.52807878306715295  0.53882964882910356  0.89575083151547252
 513    0.53011751876698265  0.86214962783494686  0.53031620796080037
 514    0.53099832584047724  0  0.42322047215148439
 515    0.53148410893375608  0.27737190317393257  0
 516    0.53498879435724411  0.26607131640423953  0.85966007772501041
 517    0.53527752395389994  1  0.56168991394986878
 518    0.5356051814383419  0.18022039954980096  0
 519    0.53768737274181966  0.21177400710371463  0.83115050874777197
 520    0.53962833688448797  0.86544387261820255  0.15224688950148424
 521    0.54335736995121342  0.7723429677631154  1
 522    0.5435971458717016  0.7650660131040361  0.45431148698857782
 523    0.54802959265682749  0  0.8308453661102646
 524    0.54941296340250634  0.81619595936767442  0.8984067123255407
 525    0.55027223523751145  0.59606928304489049  0.75614379739152104
 526    0.55064444096580245  0  0.33658846542129228
 527    0.55137548294024086  0.22449234682236463  0.38183032587735621
 528    0.55224975258420916  0.26082452695574898  0.82927256494714841
 529    0.55238372219331  0.56017911225643879  0
 530    0.55444365166063081  0.61592799736782333  1
 531    0.55445782770543661  0.88474106640019212  1
 532    0.55623295196230782  0.45060663990342353  0.53166648327632748
 533    0.5564221111348433  0.80761999839149623  0.57256907130547408
 534    0.5569100477973622  0.49641230482786436  0.40274975071768537
 535    0.56015412422810984  0.44147849676472939  0.48516134688854318
 536    0.56180737393685154  0  0.3256765682954641
 537    0.56189166027180382  1  0.84843877351973085
 538    0.5622742481236741  0.57365765207714448  0.28029016388363426
 539    0.56326301538530876  0.61467368842176506  0.16648115751647019
 540    0.56358559335369618  0.26901952251170136  1
 541    0.56358601598401092  0  0.34390920938778591
 542    0.56360819222102299  0  1
 543    0.56433433432450175  0.79595699104671125  0.10957984992579706
 544    0.56690640443200946  0.40701637167300131  0.70600879398427852
 545    0.56959153267057272  0.742450797251345  0.42533106592073222
 546    0.56996326776805362  0.33725806432394423  0.58999814140435503
 547    0.57004894754682578  0.7412875656634873  0.4365921523319618
 548    0.570336191760075  0.71521981572088211  0.11565905779086505
 549    0.57039798995248303  0.79589756506177889  0.8261771760793496
 550    0.57045693861004487  0.60835994489013034  0.57611375705615619
 551    0.57194248424202432  0.58104723963388027  1
 552    0.5726500407372388  0.10497952172493041  0.70568213463661189
 553    0.5756429914431922  0.26371020712074122  0.49233868286943905
 554    0.57600924728119707  0  0.39818313417418549
 555    0.58008655069898052  0.8466801249812278  0.49649474485320788
 556    0.58153481297565279  0.11331778367024126  0.81876162679398379
 557    0.58322651443815887  0.38627652827503256  0.78498178370314531
 558    0.58389983024042535  0.77729053496950362  0.25272187872898111
 559    0.58396050580883008  0.26462423931425627  0.13278296224975161
 560    0.58456498172628502  0.82708742885147346  0.15700104654101521
 561    0.58458319266354053  0.65380985602827202  1
 562    0.58558394945497794  0.84033496808445718  0.68504600163905638
 563    0.58568311705799592  0.15350713548771433  0.63391994432279197
 564    0.58619078658443291  0.66750526592687331  0.73714224314937649
 565    0.58632064790396698  0.11188222530059133  0.67876005538013462
 566    0.58806997255429438  0.46530251413266521  0.32403500646106032
 567    0.58839092683286709  0  0
 568    0.58908661662418338  0.19922592119827409  0.12451580256752393
 569    0.58925296716346998  0.10340306693894519  0.57738904881510733
 570    0.58955812439449673  1  0.64002414698651
 571    0.59029841675853867  0.60334809864113215  0.1107382251613831
 572    0.59086354680187192  0  0.81714771096772087
 573    0.59484392910503658  0.30490240325070617  0.27263835187691987
 574    0.59496470715405314  0  0.24649538551459493
 575    0.59507996169930122  0.53364833497105058  0.73847401473297514
 576    0.59731979478050834  0.80777490479640912  0.38313330935015688
 577    0.59785167464728506  0.55842119791681  0.63365111669992802
 578    0.59994462618558375  0.44998165043479055  0
 579    0.60065463156702958  0.32811329673148315  0.62833371823334516
 580    0.60102471915861932  0.11815764672830276  0.25480708875707436
 581    0.60118817472362318  1  1
 582    0.60155526458519204  0.79821381117559853  0.50917058529034043
 583    0.60206003037801248  0.76220877044957835  0.20550594555533364
 584    0.60516039188485693  0.55857297945702788  0.46984476176615075
 585    0.60618471454801071  0.39769498517221658  0.35511712321467204
 586    0.60774215547999055  0.77574165612392754  0.23924245274418199
 587    0.60774739581348136  1  1
 588    0.60847042252691796  1  0.66932546900691858
 589    0.61063007052914131  0  0
 590    0.61213307819227936  0.16007643399139249  0.23937250799262777
 591    0.61277808741475048  1  0.83899044315895355
 592    0.61293261001262644  0.48557001230662122  0.87364181142682018
 593    0.61313390491952868  0.60480869524007674  0.36734449792220514
 594    0.61358790633839888  0.48829053614961049  0
 595    0.61393581699918154  0.45949212322766275  0.30206174231974015
 596    0.61409149926911788  0.11128340212054777  0.22792892018139177
 597    0.61478385609219377  0.17298192209361429  0.47895049186911076
 598    0.61577604076370707  0.17158292311306156  0.2441142261599788
 599    0.61587526546124283  0.88304922537871866  1
 600    0.61714930612098229  0  0.33340478954675545
 601    0.61899540830120447  1  0.43891923817389444
 602    0.61964106575774824  0.62416768463331196  0.22602375779919037
 603    0.61979403051529691  0  0.77531858197260106
 604    0.62003611584952734  0.38704890075827314  0.1534017153963354
 605    0.62005449954192382  0.89366630191032326  0.24040205059209174
 606    0.62006807302068856  0.28860243263342988  0
 607    0.62070037941850598  0.51675156376782272  0.82341722491868319
 608    0.62080653100768468  0.15186702272216257  1
 609    0.62154859752105684  0.78068173793248108  0.58074555126157712
 610    0.62302057019275625  0.82774220927615105  0.24230708477421403
 611    0.62650096133327404  0.15553996199410414  0
 612    0.62704469077622926  0.22966563344507385  0.66770995882819184
 613    0.6280507460763799  0.57034912610483868  0.41239719137777731
 614    0.62945650215375759  0.15998190307741456  0.10366182420669401
 615    0.63157996370271496  0.43050063400527305  0
 616    0.63541362994870276  0  0.40211732877965167
 617    0.63553529240377382  0.32070921215327786  0.392623139097385
 618    0.63699098005355104  1  0.64269005040141791
 619    0.63707412676145336  0.73943729040367623  0.21240390777017326
 620    0.63762453963360144  0.46807722243873429  0.78677460332235993
 621    0.63772388578167194  0  0.5354299913270979
 622    0.63802286101165628  0.64207897977562722  0.84424960697044138
 623    0.63844592866929895  0.68088889540312725  0.39052323066436923
 624    0.63877644041368542  0.45590349320374446  0.14930002045328683
 625    0.64227605767550056  0.43763351143467177  0.5797485535124568
 626    0.64229664644725193  0.42925177141722104  0.16436490532188519
 627    0.64550489688528667  0.80372051525438448  0.89699572456602117
 628    0.64684180199537933  0  0.74033784804855496
 629    0.64746817891227204  0.75036002624342235  0.75195282548273612
 630    0.64846286933198871  0.77725048743186065  0
 631    0.64930899453923596  0.76706707988392175  0
 632    0.65097009604214728  0.1185209709101932  0.38396561479271585
 633    0.6520823993373559  0.67415592750109388  0.59314235078037558
 634    0.65312122475062906  0.66164760476410511  0.72808964325095693
 635    0.65350965197961308  0.21485349577527191  0.43595791260834305
 636    0.65573832368603102  0  0.23106097484125354
 637    0.6577978582952051  0  0.70736893212453533
 638    0.65936834510545528  0.36611999447950827  0
 639    0.65965264473856899  0.37816220450092286  0.78520841570472888
 640    0.66079114307187148  0  0.53189642053928765
 641    0.66171340708370829  0.28981010397747742  0.37564252827368927
 642    0.66212001818183264  0.5984402273620798  0.6356219200962554
 643    0.66212502549856622  0.74646661622274924  1
 644    0.6626546650493883  0.10340629247654176  0.42458208647369233
 645    0.66389290823787772  0.28349431009718995  0.23194358724167141
 646    0.66581389388573831  0.33776771774438119  0.42848890846468557
 647    0.66662998801463369  1  0.71336615810528614
 648    0.6700132969856738  0  0.10490942178851081
 649    0.67126726471938147  0.67874689871109706  0.58292922394115543
 650    0.67145482868867323  0.58071703979446621  0.13514292832753061
 651    0.67252577055660934  0.22165666544483298  0.74707612691895198
 652    0.67448916018573613  0.82087350807385095  1
 653    0.67598301803883465  0.55415733008060342  1
 654    0.67698196749365103  0.78127441524180152  0.77812884175230479
 655    0.6779993860270932  0.26796995798924783  0.71226533510241818
 656    0.67865873196306803  0.17173097121257586  0.69757049680229966
 657    0.67881120166463038  0.18021707360564565  0
 658    0.67988816225510296  0.25658304649868735  0
 659    0.68089620072865131  0.70860228164086303  0.5922728224722702
 660    0.68224675552526171  0.10314065481708201  0.53892351990798126
 661    0.68275670704296143  0.88265409153930341  0.2474962349161689
 662    0.68369671795569675  0.21200067352295837  0.81816166835036863
 663    0.68400590336086331  0.14433005599116666  0.18787310705309068
 664    0.68439624162979917  0.83769403372161944  0
 665    0.68616307896474316  0.70374520564085452  0.57522404100372182
 666    0.68657152113348374  0.53511777899553381  1
 667    0.68918870906433305  0.86581070622491085  1
 668    0.68929057289191764  0.53249843644460149  0.61122918225086098
 669    0.69159705382038394  0.7067986125142085  0.37266995440626738
 670    0.69218567376205142  0.70217121246825243  0.32063206444188797
 671    0.6924443868656911  0.10512938108100256  0
 672    0.69301596751536598  0.77169947441125564  0
 673    0.69326106084666217  0  1
 674    0.6932721994625991  0.87454155432217129  0.25578046042832014
 675    0.69408283929776948  0.57815944405522379  0.89230251507822222
 676    0.69587296388108366  0.73853794168968923  0.6623037269378097
 677    0.69670208223223373  0.77018907285378568  0.50622273286883945
 678    0.6971849391573538  0.18329459473663556  0
 679    0.69770960676853711  0.77584398692402379  0.87773898484504698
 680    0.69972144311833484  0.34338195555621309  0.21558105584484788
 681    0.70016900380102243  0.68354292499996894  0.54743298555199371
 682    0.70047808320824023  0.85520303314681423  0.38784122981893543
 683    0.70072774316607978  0.49593711238364779  0
 684    0.70100139844990572  0  0.5821134618745496
 685    0.70462299045893195  0.59824637810390868  0
 686    0.70951027257360522  0  0
 687    0.70979313912248632  0.73571008954854311  0.30663052021577264
 688    0.71038044405882639  1  0
 689    0.71042262171141846  0.6970759476585382  0.49703156225604617
 690    0.71235727804824833  0  0.24445212355113155
 691    0.71286030437548342  0  0.67356183843245798
 692    0.71379008046665327  0.25698678961977794  0.29882772509305511
 693    0.71402525457980481  0.48917816521883506  0.83586176832439774
 694    0.71516728510980565  1  0.8719552934872411
 695    0.71558549996156462  1  0.18791338512756062
 696    0.7162723655545381  0.1802302516085843  0.32226766556300324
 697    0.7169555876883732  0.67082502126871912  0.10433429788882498
 698    0.71837800301666932  0.82271352860282432  0.11453402244216548
 699    0.71889858025797915  0.30204067803588863  0
 700    0.71982416898788393  0.56067482277054659  1
 701    0.72187624455397481  0  1
 702    0.72198130693352558  0.13248372696513711  0.35993720208092062
 703    0.72227102382865427  0.76721930969046293  0.38487646494655592
 704    0.7228064846195158  0.39835092294214891  0.13824490308534465
 705    0.72594972250259404  0.70045190545290892  0.83552724225600761
 706    0.72673097804260878  0.86263800962581161  0.38869602672580095
 707    0.72688844018794763  0.79642133651938851  0.46288313194597519
 708    0.72721076909722859  0.74235751642660153  0.37289774853631552
 709    0.72794902876881817  0.20187623950375733  0
 710    0.7296399196757789  0.85300443927237091  0.31940618186738456
 711    0.72989184493252524  0.74999181791562264  0.42730350562044228
 712    0.72992615357041002  0.81734559945138641  0.51073438581584252
 713    0.73166845719099693  0.6367293709006091  0.56314702150517426
 714    0.7322305810810058  0  0.88022316469598627
 715    0.73450634694092143  0  0.71958065046123032
 716    0.73533270778660387  0.1976395050268831  0
 717    0.73567791695307549  0.61768316587196004  0.8395858933014726
 718    0.73794135117905191  0.245520154916822  0.5797556349259777
 719    0.73865671298599467  0.7188196614038892  0.24533720370628198
 720    0.73929325573683891  0.18714709601534396  0.44607632160263588
 721    0.73938207414243773  0.71144571193965811  0.83779914226285612
 722    0.73959482109767172  0.72980003124244253  0
 723    0.74133364772740029  0  0.80794261790498956
 724    0.74380046243249365  0.29301190119682741  0.27409190979197151
 725    0.74421530038939865  0.25264507384979185  0
 726    0.74430588142850296  0.60024725826395253  0
 727    0.74452366261385572  1  0.82600178669497915
 728    0.74454910482303505  0  0
 729    0.74487227557359204  0.49498126881486959  0
 730    0.74790428926696884  0.43024317596480011  0.12957134627665612
 731    0.74795875353285257  0.5857555754128545  0.46062666393747398
 732    0.74896592059327216  0.25721776909104455  0.62487086393098312
 733    0.74906538761298924  0.13867799761737487  0.68437247168763105
 734    0.75129772910182435  0  1
 735    0.75274307307507571  0.21986412244736586  0.59702596828711918
 736    0.75480510114942678  0.45048173472171615  0.26481542822792015
 737    0.75492640185174986  0  0.14535772786770973
 738    0.7556507788701573  0.45215833715262177  0.36687473258129777
 739    0.75574688112156108  0.16778869027022048  0.8234086600842585
 740    0.75636251714457792  0  0.74949513562041514
 741    0.75793281141793623  0.2415832588517387  0
 742    0.75851880949087869  0  0
 743    0.75879119403993067  0.83383731108577352  0.60473445915588886
 744    0.75999737588404781  0.4580858466291895  0.10734136283402085
 745    0.76012997229867429  1  0.75934170783471966
 746    0.76167591720205596  1  0.23379251053343486
 747    0.76299245273309635  0.20519381366233913  0.34679761453456548
 748    0.76391712270025258  0.53798702662095843  0.15784098286800718
 749    0.76397871881152224  0.59013287341266019  0
 750    0.7652007643900508  0.55221403405953606  0.22798811881652725
 751    0.76611619526045616  0.81106542027151862  0.17478946172534138
 752    0.7676501719715394  0.71575053835637392  0.37899574968607008
 753    0.76859600271375406  0.41856050495167962  0.46150582417521513
 754    0.76943068247776158  0  0.51664889367950007
 755    0.77145081294345053  0.63985969416915689  1
 756    0.77196932594752621  0.51983283898441313  0.63858092774671948
 757    0.77307611794791531  0.60963135719140582  0.34947810104144539
 758    0.77556730030734655  0.80160726478027045  0.60500648399227785
 759    0.77608793226663597  0.78749361203812651  0.15353606228174055
 760    0.77771997629704093  0.74161716022750757  0.32000717565944181
 761    0.77805396607082444  0.23134787632950038  0
 762    0.77942780953315693  0.86067327573786023  0.80150983379556873
 763    0.77948474132103718  0.30637271351081496  0.89289174219678369
 764    0.78246008271441059  0.82428036842106323  0.39217699875478274
 765    0.78326602467296957  0  0.17213772741543931
 766    0.78424507429832424  0.54420385985472108  0.10005082903859785
 767    0.78484123473500378  0.815030928866877  0.85992956706937107
 768    0.78489663826828826  1  0.54678203808790149
 769    0.78511007522750131  0.50408004058265221  0.15205312874820354
 770    0.7855045811598832  0.62247196100948732  1
 771    0.78564053203330064  0.28825723578293838  0.19163485408627845
 772    0.78626723597713299  0.80739904706832843  0.62715203806696851
 773    0.78663423903857099  0.39834558172047885  0.28269857729466119
 774    0.78760398658246999  0.3580847749968209  0.62320932511066018
 775    0.78822336871560195  0.16601611221931634  0.44686503456305271
 776    0.78846596500015387  0.21387488946729416  0.46857919330028419
 777    0.79094826698155296  0.5182896259137445  0.64819526459583354
 778    0.79141476866061922  0.71659181324076926  1
 779    0.7916606131391879  0  0.43792425664824175
 780    0.79200238161479319  0.89305086126885114  0.20259632674570904
 781    0.7928141970167627  0.62344412815017458  0.55830274522366885
 782    0.79295439480479257  0.54850481976112131  0.49942686902622768
 783    0.79414106406952967  0  0.20149848506405965
 784    0.79584508737417403  0.80721590888325101  0.60254304252296553
 785    0.79791051778569444  0.25378435770421115  0.24724744363725593
 786    0.79861387440671117  0  0.880651012240527
 787    0.79936843848827133  0.81961063464276218  1
 788    0.80118513565969329  0.29771431860057196  0.59056450245397862
 789    0.80152287021294533  0  0.78567082529042787
 790    0.80199194355554859  0.80415767730283771  0.57741392554772775
 791    0.80269537053973938  0.50154132009482022  0
 792    0.80297766604059406  0.84243459306645074  0.79491770481931801
 793    0.80408074974417476  0.52731029998104917  1
 794    0.80512255618912654  0.49245403147951072  0.69509501040254618
 795    0.80532318530061364  0.88146582740376045  0
 796    0.80556399396089751  0.75409673465323179  0.77806072757073752
 797    0.81319659065447869  0.62857148465726764  0.42743404095570314
 798    0.81435387506352652  0.36214348303408606  0.49672354489393722
 799    0.81520364067324702  0.76968312324809185  0.43837637744539293
 800    0.81675695398699277  0.33759527750837637  0.18707232974158439
 801    0.81678997588445346  0  0.50020351266031826
 802    0.81844247184258667  0.57806661580822327  0.59728257013638308
 803    0.81848747961530854  0  0.47201983480167009
 804    0.81887311138552588  0  0.19286708118442075
 805    0.81946816645071607  0.87684597020003741  0.47984652880522682
 806    0.81953780758914929  0.58841244525458791  0.21677050789747321
 807    0.82009928119721853  1  0.35797400132982038
 808    0.821917661036347  0.40582539191908473  0.5025215175555241
 809    0.82277305432251524  0.178614197514115  0.52574959241380848
 810    0.82535778617439015  0.35884742742494213  0.59608641757688396
 811    0.82899308965796437  1  0.6653611835884099
 812    0.83139394187119153  0.3434786960924574  0.50726027475428959
 813    0.83216450664027941  1  0.76162715805158376
 814    0.8326106569449675  0.39524084411416027  0.54467707288511547
 815    0.83354583900896895  1  0.19310505741124229
 816    0.83398095230573011  0  0
 817    0.8343854353338408  0.83065033363223817  0.10844413565554334
 818    0.83440453506826939  0.44837125024410185  0.41849535800821791
 819    0.83461883369746592  0.51657193895817233  0.46164013305766383
 820    0.83698983759911805  0.87222957419635672  0.4953988347152315
 821    0.8376058114999384  0.71482875516190714  0.31324051190416446
 822    0.83788979331850388  0.15693312704609852  0.84523175291661057
 823    0.83843564258577163  1  0.38593964942084502
 824    0.8386466646108518  0.77190847672295904  0.25860717964184565
 825    0.84054389041325506  0.72709741309959841  0.24498580467677411
 826    0.84073413098041938  0.68098160821942655  0
 827    0.84131374313944829  1  0.5709040699523743
 828    0.84197430674018259  0.76869401448191166  0.54913371802960442
 829    0.84295829226235364  0.78145100774962328  0.80545532905717687
 830    0.84693447248445086  0.20648531261400971  1
 831    0.84824686187152343  0.26876540467446941  0.47254843209038933
 832    0.85457288219824867  0.40545043826542715  0.86434672075461549
 833    0.85542509356432694  0.61131237721389553  0.2890949808599802
 834    0.85664976333636089  0.3064021547986725  0.83826554899048289
 835    0.85746788520399286  0.10215203313434207  0.78464205947346088
 836    0.85778231040239006  0.69637220995168947  0.26874235086432652
 837    0.85828757459736904  0.16879533123172619  0.28739011992809049
 838    0.85998335310398633  0.24966572039528134  0
 839    0.861188902624765  0.10916137544041848  0.68478555454579304
 840    0.86207190890729068  0.8109599617433273  0.605310537915831
 841    0.86272936322242022  0.64935233028956296  0.67809719537198643
 842    0.86485194598279447  0.73294511199681533  0.49586989631789657
 843    0.86582999988644038  0.50483796565695882  0.77156529456681588
 844    0.86626400404348947  0.35592164635055767  0.71239937866034775
 845    0.86668571200495614  0.45858007301977721  0.66299442945886311
 846    0.86797203996507921  0.75311578640893817  0
 847    0.86803360364016002  0.65135594891528803  0.36271586123103527
 848    0.86804275365727468  0.52402145691167457  0.37297057223346686
 849    0.86849642190203957  0.66820183593922733  1
 850    0.86920585796243  0.72664613571483461  0.38820494467146038
 851    0.86922442804686317  0.37756203060432159  0.63548992050113107
 852    0.87023654594170352  1  0.27724636989250684
 853    0.87199075963882267  0.62622482388886591  0.43024089838207291
 854    0.87399160244780016  1  0.84761456714747552
 855    0.87479505753680376  0.40716411564098276  0.47422350849608508
 856    0.8792967162050348  0.33873731812404451  0.38466332338896791
 857    0.87957501181300179  0.64824676026108485  0.75285309326999272
 858    0.88034676915030718  0.38297378181205499  0
 859    0.88067102934046493  0.21791388233066733  1
 860    0.88093561539510468  1  0.19607142280794776
 861    0.88188646506877943  0.72884965870526974  0.45147813840238571
 862    0.88210106516704301  0.41151094671331456  1
 863    0.88450077331052113  0.71079726620554706  0.19651121459420284
 864    0.88472521285585837  0.67878027567854415  0.26820200445914877
 865    0.88580956737267014  0  0.37357820497306649
 866    0.88623355107194624  0.29407723705322786  0.24741089394957849
 867    0.8864857270395754  0.11409789440337548  0.24140280683292015
 868    0.8865048440726  0.48701932197517028  0.88855941060399446
 869    0.88666314206143459  0.5448068543210095  0.68809599339355065
 870    0.88674752131179568  0.77912063116646912  0.61558935844900564
 871    0.88698029950354662  0.1284036789099724  0.36666945622867808
 872    0.88727687037620917  0.42247416397638249  0.62916313534675194
 873    0.88850431191631007  0.60246708743263133  0.33347305112517067
 874    0.88908034365985777  0.30510518444113588  0.18938377624069969
 875    0.89148248720777501  0.85689457247545009  0.32688895854236366
 876    0.8925354164626379  0.17820621592945407  0.89439669182181092
 877    0.89260042368602599  0.81974491988837239  1
 878    0.89368631792793496  0  0.39403318268140108
 879    0.89445710789980992  1  0.55045875812392953
 880    0.89713764690201525  0.36370100678413764  0.55463558411080816
 881    0.89735288366906873  0.28274346114464077  0
 882    0.89789661091897566  0.59512241109080688  0.8092918086316524
 883    0.89826534267957914  0.59013716885656187  1
 884    0.89837257596702436  0.79026035765999958  0
 885    1  0.57653898210949373  0.15237799693478571
 886    1  0.15355844493311865  0.55657926885486941
 887    1  0  0.30034192437921137
 888    1  0.22021478603430522  0.70442582230183881
 889    1  0.33745360874583807  0.18418466508052622
 890    1  0.87446357031360156  0.48652090406227022
 891    1  0.70669935253419291  0.50426471193652556
 892    1  1  0.17077153010677437
 893    1  0.60515292642836715  0.55161075477960864
 894    1  0.58263880999841811  0.19968420761981376
 895    1  0.64046937887106736  0.33718715079990424
 896    1  0.86176332820720858  0.16661746574617353
 897    1  0.66130083275336382  0.78749106704025162
 898    1  0.8524715825258754  0.17464733531794674
 899    1  0.6337081015638244  0.86054007739515426
 900    1  0.34933024721839057  0.37857772382407373
 901    1  0.70002370988612128  0.21443432055680844
 902    1  0.61751921064556226  0.43362678054006032
 903    1  1  0.41820374654718706
 904    1  0.32400130571365371  1
 905    1  0.5561199513888343  1
 906    1  0  0.35850573760209425
 907    1  0.37758164040603936  0.52412870598887684
 908    1  0  0.79043186866262993
 909    1  0.49913089450053061  0.49276450819091366
 910    1  0.47142107095996533  0.10188627143045326
 911    1  0.37015497093258676  0.34989069856471444
 912    1  1  0.26143946676481722
 913    1  0.89599709994864407  0.39833392464384798
 914    1  0.88285870486395135  0.50155134127898593
 915    1  0.24716789035797138  0
 916    1  0.60043128415682834  0.2909738612886128
 917    1  1  0.30507648117299269
 918    1  0.52892825356005579  0.39430418455256155
 919    1  0.79809852508271295  0.65614253633498076
 920    1  0.20932434600591576  0.73781163867036315
 921    1  0.79518261199017348  0.69409199296065194
 922    1  0.18019179562676046  0.82217889619904994
 923    1  0.59288250952566546  0.47667857303704342
 924    1  0  0.55364171245166782
 925    1  0.35337419597473185  0.81355339398098825
 926    1  0.34165102547634452  0.64140150037883148
 927    1  0.62202409080657139  0.65433943443156994
 928    1  0.34115587684846516  0.61930493005442688
 929    1  0.82102943675938189  0.12228707318418253
 930    1  0.6101579824292499  0.88124319439098031
 931    1  0.60162439143441127  0.33138219050604556
 932    1  0.71626132976079382  0.69822003890179463
 933    1  0.86873736158849824  1
 934    1  0.76220999904706477  0.79326719273045332
 935    1  0.64117090908196395  0.27358293681105839
 936    1  0.10774434987648063  0.30462697252252291
 937    1  0.88215664784338454  1
 938    1  0.3639016925810683  0.57005673214775887
 939    1  0  0.13518398216170813
 940    1  0.82995633546550895  1
 941    1  0.39164202856155383  0.59468294157175861
 942    1  0.63902436468039037  0.27377873152651244
 943    1  0.35579652104962334  0
 944    1  0.18954897254991654  0.76007521087527063
 945    1  0.41632283861911856  0.3690571369756861
 946    1  0.4838885387501678  0.77371930881377282
 947    1  0.72381958780864297  0.29161890880408836
 948    1  0.46635354513494021  0
 949    1  0.41050538112996426  0.85104276544817503
 950    1  0.13660821207735807  0.19600336623101011
 951    1  0.59472738694059135  0.64337565529919372
 952    1  0.26587338573666897  0.16270580019338599
 953    1  0.20974032880409044  0.73768712342299114
 954    1  0.89373493570527107  0.76458773150833048
 955    1  0.80814804796398521  0.34794986543552864
 956    1  0.32019365746622108  0.37423295598016038
 957    1  0.73112341331992947  0.64519485223469641
 958    1  0.53868413162185136  0.24469361278297586
 959    1  0.35753344915747265  1
 960    1  0.25558936134816035  0.47349597923309095
 961    1  0.37482405732775448  0.23656427877773578
 962    1  0.8960203071271291  0.72791718341484035
 963    1  1  0.23944186687543112
 964    1  0.64505612776372701  0.86757507781109777
 965    1  0.84434172514408934  0
 966    1  0.47371787160624768  1
 967    1  0.44444645603685518  0.51292886577003871
 968    1  0.81012001128312705  0
 969    1  0.82173456023792923  0.30032886160730154
 970    1  1  0.56647834704597921
 971    1  0.61611042411860417  0.39880116712618763
 972    1  0.37449687764098971  1
 973    1  1  0.12966275411770067
 974    1  1  0.71179664909483031
 975    1  0.70723121912820319  0.57076054886815875
 976    1  0.71024112281526364  0.74267928863309329
 977    1  0.37937957480185391  1
 978    1  0.65535518310179353  0.44454785385165585
 979    1  0.43673965309493501  0
 980    1  0.37494498038158275  1
 981    1  0.51446464496362343  1
 982    1  0.13074272886045279  0.88242002006122466
 983    1  0.84556667266196694  0.50851863717193946
 984    1  0.49690440576728923  0.71783811503452744
 985    1  0.52442629819610931  0.31110164405392893
 986    1  0  1
 987    1  1  0.2294789459241029
 988    1  0  0
 989    1  1  0
 990    1  1  1
# Generated by c:\dev\polylla3D\tetgen\build\tetgen.exe -fzenn c:\dev\polylla3D\data\1000random.node 
