# This file was created by meshio v5.3.5
4691 4 0
0 971 869 969 910
1 828 971 869 910
2 850 971 869 1018
3 850 828 971 869
4 924 850 869 815
5 924 850 869 1018
6 924 971 869 1018
7 924 971 869 969
8 163 63 13 105
9 439 505 489 499
10 439 505 489 422
11 439 505 422 401
12 484 505 422 401
13 846 869 779 815
14 846 850 869 815
15 762 846 869 779
16 762 869 779 815
17 762 850 828 869
18 762 846 850 869
19 967 888 926 914
20 1005 888 926 815
21 1005 924 869 815
22 1005 888 869 815
23 1005 924 869 969
24 1005 888 869 969
25 1005 967 888 969
26 1005 967 888 926
27 427 390 348 412
28 129 44 33 56
29 129 162 73 33
30 129 44 160 33
31 129 162 160 33
32 69 163 63 105
33 69 121 163 63
34 149 163 63 13
35 149 121 163 63
36 226 163 160 199
37 359 439 422 401
38 345 427 348 412
39 158 227 249 3
40 503 485 456 398
41 503 586 485 541
42 1023 890 870 810
43 867 783 810 698
44 867 783 870 810
45 867 1023 870 810
46 411 516 463 464
47 15 22 85 150
48 15 202 85 150
49 48 120 22 58
50 48 120 13 105
51 48 120 58 13
52 115 120 22 150
53 132 202 85 150
54 277 132 202 311
55 1014 852 995 930
56 830 1014 852 930
57 708 762 779 815
58 98 54 171 161
59 98 43 54 161
60 478 484 505 401
61 853 945 987 938
62 590 546 526 454
63 430 546 531 454
64 878 967 888 969
65 878 888 869 969
66 878 956 969 910
67 878 869 969 910
68 878 956 828 910
69 878 828 869 910
70 730 757 818 728
71 730 668 757 728
72 488 427 390 482
73 488 427 390 412
74 488 345 492 412
75 488 345 427 412
76 488 345 427 492
77 613 667 730 661
78 613 667 730 728
79 899 809 888 914
80 944 888 926 914
81 944 809 888 914
82 866 911 904 817
83 866 911 1008 994
84 887 852 995 930
85 887 830 852 930
86 887 980 995 930
87 678 668 757 728
88 715 866 760 817
89 579 651 565 489
90 585 579 651 489
91 585 651 565 489
92 145 174 157 20
93 127 145 110 21
94 127 145 157 21
95 294 260 250 171
96 184 120 58 13
97 236 327 310 199
98 236 327 286 199
99 236 327 286 310
100 26 83 189 99
101 147 83 189 99
102 147 129 120 56
103 147 201 120 150
104 131 95 67 36
105 368 327 286 310
106 122 236 163 199
107 122 236 121 163
108 122 69 121 163
109 122 163 160 199
110 122 69 163 160
111 322 242 299 263
112 322 242 162 263
113 322 388 299 263
114 875 998 964 901
115 241 149 121 163
116 241 236 121 163
117 353 272 258 255
118 353 323 272 255
119 353 461 323 457
120 166 158 227 3
121 166 158 227 249
122 477 376 439 417
123 477 567 586 541
124 477 586 485 541
125 477 503 485 398
126 477 503 485 541
127 573 554 586 485
128 307 236 286 310
129 307 368 286 310
130 307 241 236 310
131 745 783 810 698
132 978 1023 870 940
133 978 1023 890 870
134 399 452 435 496
135 467 420 374 407
136 555 516 463 464
137 555 516 581 464
138 555 647 516 581
139 555 576 516 463
140 555 576 647 516
141 380 463 457 464
142 380 411 463 464
143 380 461 457 464
144 380 461 416 464
145 380 461 323 457
146 380 461 323 416
147 100 48 120 56
148 100 48 120 22
149 100 147 120 56
150 100 120 22 150
151 100 147 120 150
152 100 147 56 99
153 100 147 15 99
154 100 15 22 150
155 100 147 15 150
156 134 48 44 56
157 134 129 44 56
158 134 129 120 56
159 134 48 120 56
160 134 129 44 160
161 134 48 69 44
162 134 69 44 160
163 134 226 129 160
164 134 69 163 160
165 134 226 163 160
166 134 48 120 105
167 134 48 69 105
168 134 69 163 105
169 134 147 129 120
170 134 147 201 120
171 134 147 226 129
172 134 147 201 226
173 134 163 13 105
174 134 120 13 105
175 134 184 163 13
176 134 184 120 13
177 27 120 22 58
178 27 115 120 22
179 186 183 132 261
180 186 132 261 311
181 186 132 202 311
182 68 132 85 57
183 68 132 85 150
184 335 277 411 311
185 335 380 277 411
186 991 1014 962 883
187 845 905 980 930
188 845 887 980 930
189 845 887 830 930
190 845 1014 905 930
191 845 830 1014 930
192 754 887 830 852
193 490 350 404 390
194 490 350 404 363
195 75 43 54 161
196 75 43 157 161
197 75 54 171 161
198 82 145 157 21
199 82 127 157 21
200 82 43 157 161
201 82 127 170 157
202 82 216 157 161
203 82 216 170 157
204 23 93 144 2
205 23 98 54 171
206 868 853 945 938
207 868 854 853 945
208 533 546 531 454
209 533 590 546 454
210 513 430 416 531
211 513 430 461 416
212 513 416 531 464
213 513 461 416 464
214 513 430 546 531
215 513 581 531 464
216 513 461 581 464
217 858 757 818 728
218 858 878 818 828
219 858 878 956 828
220 864 899 888 914
221 864 967 888 914
222 864 878 967 888
223 771 667 730 728
224 771 730 818 728
225 771 667 730 762
226 771 858 818 728
227 771 858 818 828
228 384 538 425 522
229 339 503 456 468
230 339 425 503 468
231 339 283 425 233
232 472 477 567 541
233 472 567 565 499
234 472 538 567 565
235 472 384 538 425
236 472 384 538 522
237 587 503 637 541
238 587 472 538 425
239 587 472 503 541
240 587 472 425 503
241 587 472 567 541
242 587 472 538 567
243 587 538 567 565
244 587 657 567 565
245 587 657 538 565
246 804 888 926 815
247 623 579 651 565
248 594 579 488 601
249 594 579 488 492
250 825 944 888 926
251 825 944 809 888
252 825 804 888 926
253 849 899 809 914
254 849 944 809 914
255 849 944 899 914
256 785 678 668 637
257 785 678 668 757
258 1020 866 911 817
259 1020 911 904 817
260 927 866 911 1008
261 927 1020 866 932
262 927 1020 866 911
263 877 875 964 901
264 1009 998 964 901
265 1009 877 964 901
266 731 785 678 637
267 731 715 760 637
268 731 715 866 760
269 731 785 760 637
270 731 785 866 760
271 666 715 760 637
272 385 413 456 329
273 385 339 456 329
274 385 339 456 398
275 385 485 456 398
276 385 307 368 398
277 385 307 368 286
278 342 345 492 402
279 342 292 345 412
280 342 292 418 412
281 512 505 489 422
282 512 585 505 489
283 512 484 505 422
284 475 579 565 489
285 475 579 488 492
286 475 342 418 412
287 475 565 489 499
288 475 418 489 499
289 475 488 492 412
290 475 345 492 412
291 475 342 345 412
292 475 342 345 492
293 703 672 752 644
294 703 712 752 644
295 563 657 567 565
296 563 567 565 499
297 563 585 651 565
298 563 565 489 499
299 563 585 565 489
300 563 505 489 499
301 563 585 505 489
302 563 439 505 499
303 563 477 439 499
304 563 477 567 499
305 37 27 115 110
306 133 145 174 20
307 525 466 453 526
308 455 466 453 526
309 455 403 453 372
310 455 453 372 382
311 455 403 453 454
312 455 436 430 382
313 455 436 466 382
314 455 453 526 454
315 455 546 526 454
316 455 430 382 338
317 455 403 430 338
318 455 430 546 454
319 455 403 430 454
320 455 372 382 338
321 455 403 372 338
322 455 513 430 546
323 455 513 436 430
324 450 478 484 401
325 450 582 478 484
326 450 513 430 461
327 450 513 436 430
328 51 127 110 21
329 51 27 115 110
330 194 127 145 110
331 194 37 115 110
332 194 37 145 110
333 203 127 170 157
334 203 216 170 157
335 203 127 145 157
336 203 194 127 251
337 203 194 127 145
338 203 216 157 161
339 193 260 171 161
340 193 260 250 171
341 193 98 171 161
342 193 98 250 171
343 193 98 43 161
344 296 294 260 171
345 383 436 466 382
346 383 436 466 433
347 40 162 73 33
348 40 139 162 33
349 40 47 139 33
350 285 322 374 263
351 285 388 374 263
352 285 388 374 446
353 215 149 163 13
354 215 184 163 13
355 215 184 149 13
356 215 241 149 163
357 146 215 184 149
358 331 353 258 255
359 187 272 258 255
360 187 115 120 150
361 187 201 150 255
362 187 201 120 150
363 204 241 149 121
364 204 215 241 149
365 78 147 83 99
366 78 147 56 99
367 78 147 129 56
368 675 725 626 698
369 675 725 810 698
370 169 122 236 199
371 19 69 44 160
372 19 122 69 160
373 8 69 121 63
374 8 122 69 121
375 8 122 94 121
376 259 327 310 199
377 259 226 160 199
378 267 322 242 162
379 267 147 226 129
380 267 147 201 226
381 267 316 299 189
382 770 715 760 817
383 770 760 904 817
384 770 666 715 760
385 11 128 181 112
386 367 345 492 402
387 367 345 427 492
388 326 342 345 402
389 326 367 345 402
390 138 118 86 172
391 138 119 50 25
392 138 119 50 158
393 138 118 50 25
394 138 118 50 158
395 276 345 348 412
396 276 292 345 412
397 276 390 348 412
398 276 404 390 412
399 276 350 249 348
400 276 350 390 348
401 276 350 404 390
402 244 166 158 249
403 244 166 227 249
404 72 166 158 3
405 72 50 158 3
406 221 138 119 185
407 221 138 119 158
408 221 292 291 185
409 221 244 166 209
410 221 166 158 209
411 221 244 166 158
412 18 50 158 3
413 18 118 50 158
414 18 158 249 3
415 18 118 158 249
416 102 128 210 164
417 24 149 121 63
418 557 564 503 637
419 557 503 485 456
420 557 503 586 485
421 557 573 586 485
422 557 666 573 586
423 557 666 715 637
424 557 573 715 604
425 557 666 573 715
426 557 503 637 541
427 557 666 637 541
428 557 503 586 541
429 557 666 586 541
430 504 557 573 604
431 556 425 503 468
432 556 564 503 468
433 556 587 425 503
434 556 564 503 637
435 556 587 503 637
436 556 587 668 637
437 556 564 678 637
438 709 745 810 698
439 709 745 626 698
440 709 679 725 626
441 709 725 810 698
442 709 725 626 698
443 764 745 783 870
444 996 978 890 1006
445 393 477 376 417
446 393 448 477 417
447 393 477 376 398
448 393 477 485 398
449 393 307 376 398
450 393 307 368 398
451 393 307 368 310
452 393 241 376 310
453 393 307 241 310
454 393 307 241 376
455 572 420 435 469
456 572 568 452 496
457 572 452 435 496
458 572 420 452 435
459 572 420 568 452
460 459 385 368 407
461 459 448 554 485
462 459 385 485 398
463 459 385 368 398
464 459 393 448 485
465 459 393 448 368
466 459 393 485 398
467 459 393 368 398
468 597 572 420 568
469 629 679 725 626
470 414 388 374 446
471 414 388 374 263
472 414 322 374 263
473 414 322 388 263
474 400 467 374 407
475 400 327 374 407
476 400 322 327 374
477 400 414 322 374
478 400 414 467 374
479 400 459 467 407
480 400 259 322 327
481 400 368 327 407
482 400 459 368 407
483 400 459 448 368
484 400 259 327 310
485 400 368 327 310
486 400 393 368 310
487 400 393 448 310
488 400 393 448 368
489 631 555 647 658
490 631 555 576 647
491 631 709 745 626
492 631 709 745 658
493 549 478 461 457
494 549 450 478 461
495 549 450 582 478
496 549 450 513 461
497 394 403 430 454
498 394 403 308 338
499 394 403 430 338
500 394 430 416 338
501 317 246 308 338
502 317 394 416 338
503 317 394 308 338
504 317 380 323 416
505 317 380 416 464
506 224 187 150 255
507 224 323 272 255
508 224 187 272 255
509 224 187 115 150
510 224 187 194 272
511 224 187 194 115
512 165 277 132 202
513 165 224 277 202
514 165 132 202 150
515 462 529 543 506
516 595 576 647 516
517 595 576 647 663
518 595 529 543 506
519 41 68 132 57
520 116 186 183 132
521 116 41 132 57
522 116 41 183 132
523 116 132 85 57
524 116 26 85 57
525 116 26 85 99
526 64 27 115 22
527 64 115 22 150
528 64 37 27 115
529 64 22 85 150
530 64 68 85 150
531 293 267 316 189
532 839 884 819 803
533 780 754 887 830
534 780 754 887 895
535 727 780 754 895
536 664 533 590 546
537 664 533 546 531
538 692 694 708 779
539 692 708 762 779
540 301 350 358 363
541 301 350 404 363
542 301 377 358 363
543 301 377 404 363
544 301 244 377 358
545 301 244 377 290
546 301 350 358 249
547 301 276 350 249
548 301 276 350 404
549 301 358 227 249
550 301 244 358 227
551 301 244 227 249
552 301 276 158 249
553 301 244 158 249
554 301 221 276 158
555 301 221 244 158
556 301 244 290 209
557 301 221 290 209
558 301 221 244 209
559 491 488 482 580
560 491 488 580 601
561 491 490 390 482
562 491 488 390 482
563 491 490 404 390
564 491 404 390 412
565 491 488 390 412
566 603 692 708 661
567 603 692 667 661
568 603 613 667 661
569 113 82 157 20
570 113 174 157 20
571 113 75 43 157
572 113 82 43 157
573 113 75 157 161
574 52 82 170 10
575 52 82 127 170
576 52 82 127 21
577 197 23 144 171
578 197 23 98 171
579 197 284 250 190
580 197 284 294 250
581 197 294 250 171
582 197 284 294 313
583 135 35 93 39
584 135 35 93 98
585 135 197 250 190
586 135 23 93 98
587 135 197 23 98
588 135 197 98 171
589 135 23 93 144
590 135 197 23 144
591 562 448 477 417
592 562 571 448 417
593 562 554 586 485
594 562 477 586 485
595 562 448 554 485
596 562 477 567 586
597 562 571 702 654
598 562 393 477 485
599 562 393 448 485
600 562 393 448 477
601 421 549 478 457
602 421 478 461 457
603 421 353 461 457
604 421 478 359 401
605 748 770 875 836
606 693 709 679 626
607 693 631 658 626
608 693 631 709 626
609 693 631 709 658
610 693 690 658 749
611 693 709 745 658
612 559 562 448 554
613 559 562 571 448
614 559 629 679 626
615 788 854 853 774
616 788 868 854 853
617 931 999 900 986
618 1019 936 895 842
619 710 794 700 665
620 907 858 878 818
621 907 858 878 956
622 907 919 1008 994
623 993 864 899 914
624 993 992 899 914
625 793 843 717 822
626 793 843 717 743
627 793 843 864 743
628 640 714 567 654
629 640 562 567 654
630 640 562 567 586
631 640 567 586 541
632 640 657 714 567
633 763 714 717 822
634 763 843 717 822
635 763 843 717 743
636 763 657 714 717
637 387 384 418 291
638 387 292 418 412
639 387 292 418 291
640 387 276 292 412
641 387 276 404 412
642 387 384 404 522
643 387 301 276 404
644 387 491 404 412
645 387 491 404 522
646 240 283 425 233
647 355 339 425 468
648 355 339 283 425
649 355 395 425 468
650 355 395 283 425
651 381 355 339 468
652 381 339 456 468
653 381 413 456 329
654 381 339 456 329
655 424 339 307 398
656 424 472 384 425
657 424 339 425 503
658 424 472 425 503
659 424 477 376 398
660 424 503 456 398
661 424 339 456 398
662 424 339 503 456
663 424 477 503 398
664 424 477 503 541
665 424 472 503 541
666 424 472 477 541
667 432 477 567 499
668 432 472 567 499
669 432 472 477 567
670 432 472 565 499
671 432 472 538 565
672 432 472 538 522
673 432 384 418 291
674 432 472 384 522
675 432 387 418 522
676 432 387 384 522
677 432 387 384 418
678 655 623 657 717
679 655 657 538 565
680 655 623 657 565
681 655 657 717 668
682 655 538 613 522
683 655 613 730 661
684 655 587 613 668
685 655 587 538 613
686 655 587 657 668
687 655 587 657 538
688 655 613 730 668
689 655 793 730 661
690 655 793 717 730
691 655 793 686 661
692 655 793 717 686
693 655 717 686 743
694 655 623 717 743
695 941 944 899 914
696 941 992 899 914
697 941 849 944 899
698 684 579 651 642
699 684 594 579 642
700 532 594 488 601
701 532 488 482 580
702 532 594 488 492
703 532 488 427 482
704 532 488 427 492
705 909 862 992 899
706 909 849 862 899
707 909 941 992 899
708 909 941 849 899
709 909 941 992 1015
710 902 1011 867 954
711 902 1011 997 954
712 902 1013 997 954
713 801 715 866 817
714 662 785 657 714
715 662 640 657 714
716 662 785 668 637
717 662 785 760 637
718 662 666 760 637
719 662 587 657 668
720 662 587 668 637
721 662 587 657 567
722 662 640 657 567
723 662 587 637 541
724 662 666 637 541
725 662 587 567 541
726 662 640 567 541
727 662 666 586 541
728 662 640 586 541
729 662 640 666 586
730 857 785 760 822
731 857 785 866 760
732 857 934 904 822
733 857 760 904 817
734 857 866 904 817
735 857 866 760 817
736 857 934 919 994
737 857 907 919 994
738 857 911 904 994
739 857 866 911 994
740 857 866 911 904
741 857 907 785 866
742 857 866 1008 994
743 857 907 1008 994
744 857 907 866 1008
745 953 927 866 832
746 953 927 866 1008
747 863 937 980 1006
748 813 727 780 749
749 813 727 690 749
750 813 727 690 718
751 1001 934 998 904
752 1001 875 904 964
753 1001 875 998 964
754 1001 875 998 904
755 1001 911 904 994
756 1001 857 904 994
757 1001 857 934 994
758 1001 857 934 904
759 641 731 715 637
760 641 557 715 637
761 641 557 715 604
762 821 785 678 757
763 821 731 785 678
764 821 731 785 866
765 821 907 785 866
766 821 731 866 832
767 821 953 866 832
768 386 343 435 469
769 386 420 435 469
770 386 420 343 435
771 386 385 281 286
772 386 459 385 407
773 386 385 368 407
774 386 385 368 286
775 278 339 307 398
776 278 385 307 398
777 278 385 339 398
778 278 385 307 286
779 278 385 339 329
780 278 339 307 233
781 278 385 281 329
782 278 385 281 286
783 278 307 236 286
784 278 169 281 286
785 278 238 281 329
786 245 138 167 181
787 245 138 167 185
788 245 138 292 185
789 245 292 291 185
790 269 359 422 401
791 269 146 215 149
792 269 204 215 149
793 269 204 124 149
794 609 585 579 489
795 609 579 651 642
796 609 585 579 651
797 609 703 672 642
798 364 342 492 402
799 364 474 492 402
800 364 326 342 402
801 364 326 474 402
802 514 475 565 499
803 514 475 418 499
804 514 432 565 499
805 514 432 418 499
806 514 432 538 565
807 514 475 579 565
808 514 432 418 522
809 514 432 538 522
810 514 623 579 601
811 514 623 579 565
812 514 579 488 601
813 514 475 579 488
814 514 475 418 412
815 514 475 488 412
816 514 655 623 601
817 514 491 488 601
818 514 655 538 565
819 514 655 623 565
820 514 655 538 522
821 514 491 488 412
822 514 387 418 412
823 514 387 418 522
824 514 387 491 412
825 514 387 491 522
826 659 714 567 654
827 659 563 567 654
828 659 657 714 567
829 659 563 657 567
830 659 563 585 651
831 659 763 657 714
832 659 623 651 565
833 659 563 651 565
834 659 623 657 565
835 659 563 657 565
836 659 623 651 743
837 659 623 717 743
838 659 623 657 717
839 659 763 717 743
840 659 763 657 717
841 928 1009 901 948
842 928 1009 998 901
843 807 877 798 901
844 807 877 875 901
845 807 720 718 702
846 807 720 798 718
847 807 813 877 798
848 807 877 875 836
849 807 813 798 718
850 807 813 877 836
851 807 748 875 836
852 807 748 718 702
853 807 748 770 702
854 807 748 770 875
855 495 490 404 363
856 495 377 404 363
857 178 113 157 161
858 178 113 174 157
859 178 113 75 161
860 178 260 171 161
861 178 75 171 161
862 302 403 372 338
863 302 403 308 338
864 223 246 308 338
865 223 302 231 308
866 223 302 308 338
867 223 231 308 188
868 223 246 308 188
869 223 133 231 188
870 223 133 231 174
871 223 133 145 174
872 81 133 145 20
873 81 82 145 21
874 81 145 110 21
875 81 37 145 110
876 81 145 157 20
877 81 82 157 20
878 81 82 145 157
879 510 525 466 453
880 614 710 700 665
881 722 599 712 660
882 547 599 660 644
883 354 450 436 430
884 354 450 430 461
885 354 430 382 338
886 354 436 430 382
887 354 353 323 272
888 354 353 461 323
889 354 430 416 338
890 354 430 461 416
891 354 461 323 416
892 354 317 416 338
893 354 317 323 416
894 465 547 512 484
895 520 450 513 436
896 520 465 450 436
897 520 455 436 466
898 520 465 450 484
899 520 465 547 484
900 520 547 582 660
901 520 547 599 660
902 520 450 582 484
903 520 547 582 484
904 520 436 466 433
905 520 465 436 433
906 91 101 127 170
907 91 52 127 170
908 91 52 101 170
909 91 51 127 21
910 91 52 127 21
911 175 51 127 110
912 175 194 127 110
913 175 194 127 251
914 175 187 272 258
915 175 187 194 272
916 175 91 51 107
917 175 91 51 127
918 175 272 258 251
919 175 194 272 251
920 234 203 194 251
921 234 203 194 145
922 234 203 145 157
923 234 223 194 145
924 234 302 266 174
925 234 145 174 157
926 234 223 145 174
927 234 302 231 174
928 234 223 302 338
929 234 223 302 231
930 234 223 231 174
931 268 319 210 207
932 268 319 210 216
933 360 268 319 216
934 257 128 167 164
935 257 128 210 164
936 274 210 216 170
937 274 319 210 216
938 274 257 319 210
939 274 203 216 170
940 274 360 319 216
941 274 360 383 216
942 274 383 436 382
943 143 47 95 36
944 143 131 95 36
945 143 47 139 61
946 143 182 95 1
947 123 40 47 61
948 123 47 139 61
949 123 40 47 139
950 123 143 139 61
951 123 40 139 162
952 230 134 226 163
953 230 134 184 163
954 230 215 184 163
955 230 215 241 163
956 230 259 310 199
957 230 226 163 199
958 230 259 226 199
959 230 241 236 163
960 230 241 236 310
961 230 236 163 199
962 230 236 310 199
963 89 146 101 164
964 275 230 215 184
965 275 146 215 184
966 275 269 146 215
967 275 269 359 401
968 275 175 184 258
969 239 187 201 255
970 239 187 201 120
971 239 134 201 120
972 239 134 201 226
973 140 240 119 185
974 168 129 162 73
975 168 78 147 129
976 168 267 129 162
977 168 267 242 162
978 168 267 147 129
979 168 267 147 189
980 168 147 83 189
981 168 78 147 83
982 168 267 299 189
983 168 267 242 299
984 765 867 810 698
985 765 675 810 698
986 765 675 725 810
987 49 169 67 36
988 49 169 122 94
989 49 8 122 94
990 49 19 122 69
991 49 8 122 69
992 177 122 94 121
993 177 169 122 94
994 177 122 236 121
995 177 169 122 236
996 177 278 307 236
997 177 169 236 286
998 177 278 236 286
999 177 278 169 286
1000 177 241 236 121
1001 378 343 281 217
1002 378 238 281 217
1003 378 238 281 329
1004 378 385 281 329
1005 378 385 413 329
1006 378 386 343 281
1007 378 386 385 281
1008 378 386 343 469
1009 152 131 67 36
1010 152 169 67 36
1011 152 169 131 36
1012 152 49 169 67
1013 109 47 139 33
1014 109 139 162 33
1015 109 162 160 33
1016 109 139 162 160
1017 109 44 160 33
1018 109 19 44 160
1019 309 259 162 160
1020 309 259 226 160
1021 309 129 162 160
1022 309 226 129 160
1023 309 267 129 162
1024 309 267 226 129
1025 309 259 322 162
1026 309 267 322 162
1027 309 400 259 322
1028 225 259 322 162
1029 225 322 162 263
1030 225 285 322 263
1031 225 259 160 199
1032 225 259 162 160
1033 225 259 327 199
1034 225 259 322 327
1035 351 316 397 299
1036 351 267 316 299
1037 351 322 388 299
1038 351 414 322 388
1039 351 309 267 322
1040 351 322 242 299
1041 351 267 242 299
1042 351 267 322 242
1043 279 201 150 255
1044 279 224 150 255
1045 279 224 202 150
1046 279 335 380 277
1047 279 224 323 255
1048 279 224 277 202
1049 279 224 317 323
1050 826 770 875 904
1051 826 857 904 822
1052 826 807 770 702
1053 826 807 770 875
1054 826 934 904 822
1055 826 807 875 901
1056 826 875 998 901
1057 826 875 998 904
1058 826 807 720 702
1059 826 934 998 822
1060 826 934 998 904
1061 151 35 88 66
1062 151 218 228 207
1063 151 53 88 66
1064 151 53 128 66
1065 151 53 128 112
1066 151 128 181 112
1067 141 35 88 39
1068 141 218 88 39
1069 141 135 218 39
1070 141 135 35 39
1071 141 151 218 88
1072 141 151 35 88
1073 141 135 218 190
1074 141 151 218 207
1075 141 151 35 66
1076 141 135 250 190
1077 141 35 66 10
1078 141 128 66 207
1079 141 151 128 207
1080 141 151 128 66
1081 141 135 35 98
1082 141 268 250 207
1083 141 193 98 250
1084 141 98 250 171
1085 141 135 98 171
1086 141 35 98 10
1087 141 197 250 171
1088 141 135 197 171
1089 141 135 197 250
1090 141 98 43 10
1091 141 193 98 43
1092 265 245 342 304
1093 265 364 326 342
1094 265 245 342 292
1095 265 326 342 345
1096 265 342 292 345
1097 265 245 138 181
1098 265 326 367 264
1099 265 367 264 345
1100 265 326 367 345
1101 265 264 172 181
1102 336 276 345 348
1103 336 367 264 345
1104 336 345 427 348
1105 336 367 345 427
1106 196 276 249 348
1107 196 118 158 249
1108 196 276 158 249
1109 196 138 118 158
1110 243 138 292 185
1111 243 221 292 185
1112 243 221 138 185
1113 243 221 276 292
1114 243 221 138 158
1115 243 221 276 158
1116 243 245 138 292
1117 243 265 245 292
1118 243 265 245 138
1119 243 276 292 345
1120 243 265 292 345
1121 243 196 138 158
1122 243 196 276 158
1123 243 336 276 345
1124 243 265 264 345
1125 243 336 264 345
1126 243 138 172 181
1127 243 265 172 181
1128 243 265 138 181
1129 243 196 138 118
1130 9 138 86 25
1131 9 138 118 25
1132 9 138 118 86
1133 9 118 50 25
1134 9 18 118 50
1135 12 102 128 164
1136 136 24 149 121
1137 136 24 124 149
1138 136 204 149 121
1139 136 204 124 149
1140 46 138 119 25
1141 46 119 50 25
1142 46 55 119 50
1143 473 557 503 456
1144 473 557 564 503
1145 473 503 456 468
1146 473 564 503 468
1147 473 504 557 456
1148 473 381 456 468
1149 473 504 413 456
1150 473 381 413 456
1151 471 504 557 456
1152 471 504 557 573
1153 471 557 485 456
1154 471 557 573 485
1155 471 385 485 456
1156 471 385 413 456
1157 471 504 413 456
1158 471 459 385 485
1159 471 386 459 385
1160 471 573 554 485
1161 471 459 554 485
1162 471 459 573 554
1163 471 378 385 413
1164 471 378 386 385
1165 471 378 386 469
1166 471 459 420 407
1167 471 386 420 407
1168 471 386 459 407
1169 619 613 667 728
1170 619 678 668 728
1171 619 730 668 728
1172 619 613 730 728
1173 619 613 730 668
1174 619 587 613 668
1175 619 556 587 668
1176 619 556 587 613
1177 619 678 668 637
1178 619 556 668 637
1179 619 556 678 637
1180 494 556 425 468
1181 494 395 425 468
1182 494 556 587 613
1183 494 556 587 425
1184 494 587 538 613
1185 494 587 538 425
1186 409 425 522 497
1187 409 384 425 522
1188 409 494 425 497
1189 409 494 395 425
1190 409 404 522 497
1191 409 384 404 522
1192 881 764 745 870
1193 881 764 790 745
1194 881 996 978 989
1195 881 996 978 870
1196 881 978 989 940
1197 881 978 870 940
1198 1021 845 905 980
1199 1021 989 905 947
1200 1021 881 989 905
1201 1021 881 996 905
1202 1021 881 996 989
1203 963 978 890 1006
1204 598 572 568 496
1205 544 572 420 469
1206 670 666 573 715
1207 670 573 554 586
1208 670 666 573 586
1209 646 597 568 625
1210 508 597 568 625
1211 508 420 568 452
1212 508 597 420 568
1213 680 629 675 725
1214 680 765 625 796
1215 680 646 625 796
1216 680 646 597 625
1217 540 631 658 626
1218 695 576 647 663
1219 695 631 576 647
1220 695 764 745 663
1221 695 764 790 745
1222 695 631 647 658
1223 695 631 745 658
1224 534 549 461 457
1225 534 461 457 464
1226 534 461 581 464
1227 534 555 581 464
1228 534 513 461 581
1229 534 463 457 464
1230 534 555 463 464
1231 534 555 463 457
1232 507 430 531 454
1233 507 394 430 454
1234 507 533 531 454
1235 507 430 416 531
1236 507 394 430 416
1237 333 246 308 188
1238 333 317 246 308
1239 333 317 394 308
1240 333 317 394 416
1241 373 277 411 311
1242 373 380 411 464
1243 297 373 333 357
1244 297 333 317 246
1245 297 373 333 317
1246 297 165 224 277
1247 297 165 224 246
1248 297 165 277 311
1249 297 373 277 311
1250 297 224 317 246
1251 297 279 224 277
1252 297 279 224 317
1253 297 279 380 277
1254 297 380 277 411
1255 297 373 277 411
1256 297 373 380 411
1257 297 317 380 464
1258 297 373 380 464
1259 297 317 380 323
1260 297 279 380 323
1261 297 279 317 323
1262 297 317 416 464
1263 297 373 416 464
1264 297 373 317 416
1265 125 64 68 150
1266 125 165 224 246
1267 125 68 132 150
1268 125 165 132 150
1269 125 165 68 132
1270 125 64 37 115
1271 125 224 202 150
1272 125 165 202 150
1273 125 165 224 202
1274 125 224 115 150
1275 125 64 115 150
1276 447 373 357 346
1277 341 373 346 311
1278 341 392 261 311
1279 341 392 411 311
1280 341 373 411 311
1281 341 183 261 311
1282 515 595 529 506
1283 515 447 529 506
1284 515 392 411 506
1285 515 447 373 411
1286 515 595 576 516
1287 515 411 516 463
1288 515 576 516 463
1289 621 647 516 581
1290 621 595 647 516
1291 744 695 764 663
1292 744 695 764 790
1293 744 695 701 663
1294 589 701 595 663
1295 589 595 576 663
1296 589 515 550 576
1297 589 515 595 576
1298 232 293 267 189
1299 232 267 147 189
1300 232 267 147 201
1301 232 147 201 150
1302 232 147 15 99
1303 232 279 202 150
1304 232 279 201 150
1305 232 15 202 150
1306 232 147 15 150
1307 232 15 85 99
1308 232 15 202 85
1309 232 132 202 85
1310 232 116 132 85
1311 232 335 277 202
1312 232 279 277 202
1313 232 279 335 277
1314 303 186 261 311
1315 303 232 293 186
1316 303 232 293 335
1317 303 186 202 311
1318 303 392 261 311
1319 303 232 186 202
1320 303 232 335 202
1321 303 277 202 311
1322 303 335 277 311
1323 303 335 277 202
1324 303 392 411 311
1325 880 839 933 883
1326 880 706 839 819
1327 880 790 905 844
1328 880 845 1014 905
1329 880 845 830 1014
1330 624 695 576 663
1331 624 695 631 576
1332 624 695 745 663
1333 624 695 631 745
1334 624 764 745 663
1335 624 745 783 698
1336 624 764 745 783
1337 787 880 845 830
1338 787 845 790 905
1339 787 880 790 905
1340 787 880 845 905
1341 674 727 754 778
1342 636 727 780 749
1343 636 690 658 749
1344 636 727 690 749
1345 636 555 647 581
1346 636 555 647 658
1347 636 534 555 581
1348 733 754 830 852
1349 733 787 706 621
1350 903 1014 962 852
1351 591 491 482 580
1352 591 491 490 482
1353 649 591 603 708
1354 649 692 694 708
1355 649 603 692 708
1356 552 613 522 497
1357 552 603 613 667
1358 552 603 613 661
1359 29 210 164 170
1360 29 102 210 164
1361 29 102 128 210
1362 29 12 128 66
1363 29 12 102 128
1364 198 197 144 171
1365 198 197 294 171
1366 198 296 294 171
1367 198 197 294 313
1368 198 296 294 313
1369 509 421 359 417
1370 509 421 478 359
1371 509 359 439 417
1372 509 439 505 401
1373 509 478 505 401
1374 509 477 439 417
1375 509 359 439 401
1376 509 478 359 401
1377 509 562 477 417
1378 509 562 571 417
1379 509 562 571 477
1380 638 720 702 654
1381 638 720 718 702
1382 638 571 702 654
1383 638 639 571 654
1384 638 639 720 654
1385 638 639 720 718
1386 638 748 718 702
1387 638 693 748 718
1388 638 693 690 718
1389 638 748 679 702
1390 638 693 748 679
1391 776 720 798 718
1392 776 639 720 718
1393 776 802 798 842
1394 776 813 798 718
1395 776 813 727 718
1396 650 547 660 644
1397 650 547 582 660
1398 650 712 660 644
1399 570 563 585 505
1400 570 563 439 505
1401 570 509 439 505
1402 570 639 571 654
1403 570 509 639 571
1404 570 563 477 439
1405 570 509 477 439
1406 570 509 571 477
1407 570 562 571 654
1408 570 562 571 477
1409 570 563 567 654
1410 570 563 477 567
1411 570 562 567 654
1412 570 562 477 567
1413 767 709 725 810
1414 767 709 679 725
1415 767 693 709 679
1416 616 559 562 571
1417 616 562 571 702
1418 616 559 562 554
1419 616 638 571 702
1420 616 638 679 702
1421 616 748 679 702
1422 616 670 748 679
1423 616 670 629 679
1424 616 562 554 586
1425 561 559 629 626
1426 561 616 559 554
1427 561 459 448 554
1428 561 559 448 554
1429 561 616 670 554
1430 561 616 670 629
1431 561 559 629 679
1432 561 616 629 679
1433 561 616 559 679
1434 561 400 459 448
1435 835 722 712 752
1436 984 931 999 900
1437 979 1019 936 895
1438 584 520 599 660
1439 584 599 466 546
1440 584 520 599 466
1441 584 520 582 660
1442 584 674 582 660
1443 584 455 466 546
1444 584 520 455 466
1445 584 455 513 546
1446 584 455 513 436
1447 584 520 513 436
1448 584 520 455 436
1449 584 520 450 582
1450 584 520 450 513
1451 584 549 450 582
1452 584 549 450 513
1453 758 710 660 778
1454 758 710 794 778
1455 758 710 794 665
1456 758 722 712 660
1457 758 722 794 665
1458 758 835 722 712
1459 758 599 660 665
1460 758 722 599 665
1461 758 722 599 660
1462 758 674 660 778
1463 781 710 852 778
1464 1003 878 967 969
1465 1003 878 956 969
1466 1003 907 878 956
1467 1003 907 919 1008
1468 913 934 1022 822
1469 913 934 998 822
1470 913 928 998 901
1471 913 826 998 822
1472 913 826 998 901
1473 805 843 864 743
1474 805 843 864 899
1475 723 751 825 809
1476 988 864 967 914
1477 988 993 864 914
1478 988 864 878 967
1479 988 1003 878 967
1480 983 993 992 899
1481 773 793 878 818
1482 773 793 730 818
1483 773 878 828 869
1484 773 878 818 828
1485 773 878 888 869
1486 773 793 730 661
1487 773 762 828 869
1488 773 771 818 828
1489 773 771 730 818
1490 773 793 686 661
1491 773 771 762 828
1492 773 771 730 762
1493 773 888 869 815
1494 773 804 888 815
1495 773 762 869 815
1496 773 708 762 815
1497 773 692 708 661
1498 773 692 708 762
1499 773 667 730 661
1500 773 692 667 661
1501 773 692 667 762
1502 773 667 730 762
1503 773 686 708 661
1504 773 735 686 708
1505 773 735 804 815
1506 773 735 708 815
1507 766 793 730 818
1508 766 730 757 818
1509 766 785 757 818
1510 766 907 785 818
1511 766 793 717 730
1512 766 730 668 757
1513 766 785 668 757
1514 766 793 717 822
1515 766 655 730 668
1516 766 655 717 668
1517 766 655 717 730
1518 766 657 717 668
1519 766 714 717 822
1520 766 785 714 822
1521 766 662 657 668
1522 766 662 785 668
1523 766 662 785 657
1524 766 657 714 717
1525 766 785 657 714
1526 318 240 290 209
1527 318 395 283 425
1528 318 240 283 425
1529 318 240 384 425
1530 318 409 384 425
1531 318 409 395 425
1532 320 221 290 209
1533 320 240 290 209
1534 320 240 221 209
1535 320 301 221 290
1536 320 318 240 290
1537 320 318 240 384
1538 320 301 221 276
1539 320 387 301 276
1540 320 318 409 384
1541 320 221 276 292
1542 320 387 276 292
1543 320 221 292 291
1544 320 387 292 291
1545 320 221 291 185
1546 320 240 291 185
1547 320 240 221 185
1548 320 387 384 291
1549 320 240 384 291
1550 320 387 384 404
1551 320 387 301 404
1552 252 240 425 233
1553 252 240 384 425
1554 252 339 425 233
1555 252 339 307 233
1556 252 140 240 233
1557 252 240 384 291
1558 252 136 140 233
1559 271 355 339 283
1560 271 381 355 339
1561 271 339 283 233
1562 328 418 489 499
1563 328 432 418 499
1564 328 432 418 291
1565 328 342 292 418
1566 328 292 418 291
1567 328 245 342 292
1568 328 245 292 291
1569 328 245 342 304
1570 328 245 337 304
1571 732 703 672 642
1572 732 684 651 642
1573 732 609 651 642
1574 732 609 703 642
1575 732 609 703 651
1576 689 594 615 642
1577 689 684 594 642
1578 689 684 594 615
1579 671 594 579 601
1580 671 684 594 579
1581 671 623 579 601
1582 671 623 579 651
1583 671 684 579 651
1584 671 655 686 601
1585 671 655 623 601
1586 671 623 651 743
1587 671 684 651 743
1588 671 751 686 743
1589 671 655 686 743
1590 671 655 623 743
1591 671 805 751 743
1592 671 805 684 743
1593 808 732 703 672
1594 808 703 672 752
1595 808 740 672 752
1596 713 740 617 752
1597 713 794 704 665
1598 713 722 794 665
1599 952 902 942 997
1600 952 902 834 942
1601 965 952 912 834
1602 840 902 834 942
1603 879 902 1011 867
1604 879 840 902 942
1605 879 1011 942 997
1606 879 902 942 997
1607 879 902 1011 997
1608 906 902 867 954
1609 906 902 1013 954
1610 906 951 867 954
1611 906 1013 951 954
1612 906 951 867 1023
1613 906 867 1023 810
1614 906 1023 890 810
1615 906 963 1013 951
1616 906 951 978 1023
1617 906 978 1023 890
1618 906 963 951 978
1619 906 963 978 890
1620 797 770 715 817
1621 797 801 715 817
1622 797 670 770 715
1623 696 641 715 604
1624 696 641 731 715
1625 950 953 907 1008
1626 950 1003 907 1008
1627 950 1003 907 956
1628 950 907 858 956
1629 918 863 980 1006
1630 918 863 996 1006
1631 918 863 845 980
1632 918 1021 845 980
1633 918 1021 845 905
1634 918 1021 996 905
1635 872 845 887 980
1636 872 863 845 980
1637 872 845 887 830
1638 872 990 980 995
1639 872 887 980 995
1640 872 990 887 995
1641 872 990 937 980
1642 872 863 937 980
1643 872 990 887 895
1644 872 780 887 830
1645 872 780 845 830
1646 872 863 780 845
1647 872 780 887 895
1648 872 727 780 895
1649 872 813 727 780
1650 872 863 780 749
1651 872 813 780 749
1652 872 813 863 749
1653 833 996 890 1006
1654 833 863 890 1006
1655 833 863 996 1006
1656 833 881 996 870
1657 833 881 790 905
1658 833 881 996 905
1659 833 845 790 905
1660 833 881 745 870
1661 833 881 790 745
1662 833 978 890 870
1663 833 996 978 870
1664 833 996 978 890
1665 833 890 870 810
1666 833 709 745 810
1667 833 918 845 905
1668 833 918 996 905
1669 833 918 863 845
1670 833 918 863 996
1671 833 783 870 810
1672 833 745 783 810
1673 833 745 783 870
1674 789 863 780 749
1675 789 863 780 845
1676 789 833 863 845
1677 789 833 845 790
1678 789 695 658 749
1679 789 695 745 658
1680 789 695 790 745
1681 789 833 790 745
1682 789 693 658 749
1683 789 833 693 749
1684 789 693 745 658
1685 789 693 709 745
1686 789 833 709 745
1687 789 833 693 709
1688 792 693 690 718
1689 792 813 690 718
1690 792 693 690 749
1691 792 813 690 749
1692 792 693 748 718
1693 792 807 813 836
1694 792 807 813 718
1695 792 833 693 749
1696 792 807 748 836
1697 792 807 748 718
1698 792 767 748 836
1699 792 767 890 836
1700 792 693 748 679
1701 792 767 748 679
1702 792 767 693 679
1703 792 813 877 836
1704 792 767 693 709
1705 792 833 693 709
1706 792 767 890 810
1707 792 767 709 810
1708 792 833 890 810
1709 792 833 709 810
1710 894 939 1009 981
1711 894 939 1009 877
1712 894 1009 981 948
1713 894 939 937 981
1714 894 1019 981 948
1715 894 1009 901 948
1716 894 1009 877 901
1717 894 990 937 981
1718 894 872 990 937
1719 894 1019 895 842
1720 894 1019 981 895
1721 894 776 798 842
1722 894 813 877 798
1723 894 776 813 798
1724 894 877 798 901
1725 894 990 981 895
1726 894 872 990 895
1727 894 776 813 727
1728 894 872 813 727
1729 1004 1001 904 964
1730 1004 1001 911 904
1731 1004 1020 911 904
1732 1004 875 904 964
1733 611 557 564 637
1734 611 641 557 637
1735 611 564 678 637
1736 611 641 557 604
1737 611 731 678 637
1738 611 641 731 637
1739 611 473 557 564
1740 611 504 557 604
1741 611 473 504 557
1742 831 785 757 818
1743 831 821 785 757
1744 831 858 757 818
1745 831 907 785 818
1746 831 821 907 785
1747 831 907 858 818
1748 831 950 907 858
1749 831 950 953 907
1750 831 953 907 1008
1751 831 907 866 1008
1752 831 821 907 866
1753 831 953 866 1008
1754 831 821 953 866
1755 315 359 439 417
1756 315 376 439 417
1757 315 275 269 359
1758 315 275 269 215
1759 315 393 376 310
1760 315 393 376 417
1761 315 230 215 241
1762 315 275 230 215
1763 315 241 376 310
1764 315 230 241 310
1765 315 275 331 359
1766 315 275 230 331
1767 648 609 512 585
1768 648 703 672 644
1769 648 609 703 672
1770 648 609 585 651
1771 648 609 703 651
1772 648 650 547 644
1773 408 475 342 492
1774 408 364 342 492
1775 408 364 474 492
1776 408 364 342 304
1777 408 328 337 489
1778 408 328 342 304
1779 408 328 337 304
1780 408 475 418 489
1781 408 328 418 489
1782 408 475 342 418
1783 408 328 342 418
1784 408 337 489 422
1785 408 512 489 422
1786 229 265 364 326
1787 229 151 228 207
1788 229 151 128 207
1789 229 128 167 181
1790 229 265 245 181
1791 229 265 245 304
1792 229 364 342 304
1793 229 265 342 304
1794 229 265 364 342
1795 229 245 167 181
1796 229 245 167 304
1797 229 257 167 304
1798 229 257 128 167
1799 479 474 492 402
1800 479 532 427 492
1801 479 532 594 492
1802 479 532 594 615
1803 479 367 492 402
1804 479 367 427 492
1805 340 364 326 474
1806 340 229 326 228
1807 340 229 364 326
1808 633 672 752 644
1809 633 740 672 752
1810 633 600 740 672
1811 633 740 617 752
1812 633 600 740 617
1813 633 712 752 644
1814 633 722 712 752
1815 633 713 617 752
1816 633 713 722 752
1817 633 713 722 617
1818 633 547 599 644
1819 633 722 599 712
1820 633 722 599 665
1821 633 712 660 644
1822 633 599 660 644
1823 633 599 712 660
1824 558 648 609 512
1825 558 609 672 642
1826 558 648 547 644
1827 558 648 547 512
1828 558 648 672 644
1829 558 648 609 672
1830 558 633 547 644
1831 558 633 672 644
1832 558 633 600 672
1833 677 720 714 654
1834 677 659 714 654
1835 677 639 720 654
1836 677 570 639 654
1837 677 659 563 654
1838 677 570 563 654
1839 677 659 563 585
1840 677 570 563 585
1841 677 659 585 651
1842 891 928 901 948
1843 891 894 901 948
1844 891 894 798 901
1845 891 894 1019 948
1846 891 894 1019 842
1847 891 802 798 842
1848 891 894 798 842
1849 891 791 802 798
1850 891 835 802 842
1851 891 1019 936 842
1852 891 835 936 842
1853 975 916 862 992
1854 975 909 992 1015
1855 975 909 862 992
1856 975 896 909 1015
1857 975 896 909 862
1858 975 999 900 986
1859 237 178 174 157
1860 237 234 174 157
1861 237 234 266 157
1862 237 234 266 174
1863 237 178 157 161
1864 237 178 260 161
1865 76 81 133 20
1866 431 510 525 426
1867 431 510 525 453
1868 431 510 466 453
1869 431 510 383 426
1870 431 510 383 466
1871 431 347 383 426
1872 431 455 453 382
1873 431 455 466 382
1874 431 455 466 453
1875 431 453 372 382
1876 519 510 525 426
1877 578 599 466 546
1878 578 633 599 665
1879 578 525 466 526
1880 578 510 525 466
1881 578 455 546 526
1882 578 455 466 526
1883 578 455 466 546
1884 578 614 525 526
1885 578 614 590 526
1886 578 590 546 526
1887 683 614 710 700
1888 683 781 710 700
1889 683 664 590 546
1890 391 450 478 401
1891 391 354 353 461
1892 391 354 450 461
1893 391 421 478 401
1894 391 450 478 461
1895 391 421 331 353
1896 391 421 478 461
1897 391 421 353 461
1898 391 331 359 401
1899 391 421 359 401
1900 391 421 331 359
1901 306 354 382 338
1902 306 234 382 338
1903 306 354 436 382
1904 306 274 436 382
1905 306 194 272 251
1906 306 234 194 251
1907 306 234 203 251
1908 306 274 203 251
1909 273 354 323 272
1910 273 354 317 323
1911 273 224 323 272
1912 273 224 317 323
1913 273 224 317 246
1914 273 354 317 338
1915 273 224 194 272
1916 273 317 246 338
1917 273 223 246 338
1918 273 306 354 338
1919 273 306 354 272
1920 273 306 194 272
1921 273 234 223 338
1922 273 234 223 194
1923 273 306 234 338
1924 273 306 234 194
1925 349 484 422 401
1926 349 269 422 401
1927 349 269 337 422
1928 34 89 146 101
1929 34 175 146 107
1930 34 175 91 107
1931 34 175 91 146
1932 220 146 101 164
1933 220 175 91 146
1934 220 34 91 101
1935 220 34 146 101
1936 220 34 91 146
1937 220 275 269 146
1938 220 175 146 184
1939 220 275 146 184
1940 220 275 175 184
1941 126 146 184 107
1942 126 175 146 107
1943 126 175 146 184
1944 126 184 58 107
1945 126 51 58 107
1946 126 175 51 107
1947 126 184 120 58
1948 126 51 27 58
1949 126 51 27 115
1950 126 51 115 110
1951 126 175 51 110
1952 126 187 115 120
1953 126 187 194 115
1954 126 175 187 194
1955 126 27 120 58
1956 126 27 115 120
1957 126 194 115 110
1958 126 175 194 110
1959 366 284 294 313
1960 366 284 437 294
1961 366 296 294 313
1962 410 296 294 352
1963 410 519 510 426
1964 325 347 426 352
1965 325 347 383 426
1966 325 410 426 352
1967 325 347 260 352
1968 325 410 294 352
1969 325 510 383 426
1970 325 294 260 250
1971 325 193 260 250
1972 325 296 260 352
1973 325 296 294 352
1974 325 296 294 260
1975 325 268 193 250
1976 325 193 260 161
1977 325 268 193 216
1978 325 360 383 216
1979 325 360 268 216
1980 361 383 436 433
1981 361 274 383 436
1982 361 465 436 433
1983 361 360 383 433
1984 361 274 360 383
1985 361 465 450 436
1986 361 306 274 436
1987 361 274 360 319
1988 361 274 257 319
1989 361 349 257 319
1990 361 391 450 401
1991 361 450 484 401
1992 361 465 450 484
1993 361 349 484 401
1994 79 143 47 61
1995 79 143 47 95
1996 79 143 95 1
1997 79 143 182 1
1998 214 123 143 139
1999 214 79 143 182
2000 214 123 143 61
2001 214 79 143 61
2002 176 225 285 263
2003 176 225 285 139
2004 176 123 139 162
2005 176 214 285 139
2006 176 214 123 139
2007 176 225 162 263
2008 176 225 139 162
2009 176 242 162 263
2010 176 168 242 162
2011 176 168 162 73
2012 176 40 162 73
2013 176 123 40 162
2014 59 89 146 124
2015 59 89 24 124
2016 59 146 124 149
2017 59 24 124 149
2018 59 34 146 107
2019 59 34 89 146
2020 59 184 149 13
2021 59 146 184 149
2022 59 149 63 13
2023 59 24 149 63
2024 59 146 184 107
2025 59 184 58 107
2026 59 184 58 13
2027 155 89 146 164
2028 155 89 146 124
2029 155 220 146 164
2030 155 220 269 146
2031 155 146 124 149
2032 155 269 124 149
2033 155 269 146 149
2034 191 230 134 226
2035 191 239 134 226
2036 191 239 230 226
2037 191 239 134 120
2038 191 134 184 120
2039 191 230 134 184
2040 191 239 187 120
2041 191 239 230 331
2042 191 126 184 120
2043 191 126 187 120
2044 191 275 230 184
2045 191 275 230 331
2046 191 126 175 184
2047 191 126 175 187
2048 191 175 184 258
2049 191 175 187 258
2050 191 187 258 255
2051 191 239 187 255
2052 191 275 184 258
2053 191 275 331 258
2054 191 331 258 255
2055 191 239 331 255
2056 117 140 55 119
2057 117 221 158 209
2058 117 221 119 158
2059 117 119 50 158
2060 117 55 119 50
2061 117 240 221 209
2062 117 140 240 119
2063 117 92 55 71
2064 117 166 158 209
2065 117 92 55 50
2066 117 221 119 185
2067 117 240 119 185
2068 117 240 221 185
2069 117 92 72 166
2070 117 72 166 158
2071 117 92 72 50
2072 117 72 50 158
2073 106 168 78 129
2074 106 129 33 56
2075 106 78 129 56
2076 96 49 169 36
2077 96 49 169 122
2078 96 49 19 122
2079 96 143 47 36
2080 96 143 47 139
2081 96 109 47 139
2082 96 109 19 139
2083 4 49 169 94
2084 4 152 49 169
2085 314 309 267 226
2086 314 267 201 226
2087 314 239 201 226
2088 314 239 201 255
2089 314 351 309 267
2090 314 232 267 201
2091 314 232 279 201
2092 282 285 322 374
2093 282 225 285 322
2094 282 322 327 374
2095 282 225 322 327
2096 282 225 285 139
2097 282 214 285 139
2098 282 327 374 407
2099 282 420 374 407
2100 179 225 160 199
2101 179 139 162 160
2102 179 225 162 160
2103 179 225 139 162
2104 179 122 160 199
2105 179 19 122 160
2106 179 109 139 160
2107 179 109 19 160
2108 179 109 19 139
2109 179 169 122 199
2110 179 96 19 139
2111 179 96 19 122
2112 179 225 327 199
2113 179 282 225 327
2114 179 282 225 139
2115 179 96 143 139
2116 179 96 169 122
2117 179 236 286 199
2118 179 169 236 199
2119 179 169 236 286
2120 179 327 286 199
2121 369 351 316 397
2122 369 351 267 316
2123 369 293 316 397
2124 369 293 267 316
2125 369 314 351 267
2126 369 232 293 335
2127 369 232 293 267
2128 442 369 351 397
2129 470 400 414 322
2130 470 351 414 322
2131 470 309 400 322
2132 470 351 309 322
2133 470 442 351 414
2134 470 400 414 467
2135 470 561 400 448
2136 470 561 559 448
2137 470 400 459 467
2138 470 561 459 467
2139 470 561 400 459
2140 736 857 760 904
2141 736 826 857 904
2142 736 770 760 904
2143 736 826 770 904
2144 736 857 760 822
2145 736 826 857 822
2146 736 826 770 702
2147 736 826 714 822
2148 736 785 760 822
2149 736 785 714 822
2150 736 826 720 702
2151 736 662 785 760
2152 736 662 785 714
2153 736 640 714 654
2154 736 662 640 714
2155 736 662 666 760
2156 736 662 640 666
2157 736 720 702 654
2158 736 720 714 654
2159 213 336 276 348
2160 213 196 276 348
2161 213 243 336 276
2162 213 243 196 276
2163 213 243 336 264
2164 213 265 264 172
2165 213 243 265 172
2166 213 243 265 264
2167 213 243 196 118
2168 213 138 118 172
2169 213 243 138 172
2170 213 243 138 118
2171 45 128 167 181
2172 45 138 167 181
2173 45 11 128 181
2174 45 11 128 112
2175 45 138 86 25
2176 45 12 128 66
2177 45 138 172 181
2178 45 138 86 172
2179 45 11 86 172
2180 45 11 172 181
2181 45 53 128 112
2182 45 53 128 66
2183 38 8 121 63
2184 38 24 121 63
2185 38 136 24 121
2186 38 7 136 24
2187 38 8 94 121
2188 38 177 94 121
2189 38 136 177 121
2190 14 89 24 124
2191 14 155 89 124
2192 521 471 459 573
2193 521 459 573 554
2194 521 471 459 420
2195 521 561 459 554
2196 521 561 459 467
2197 521 597 572 420
2198 521 544 572 420
2199 521 467 420 407
2200 521 459 420 407
2201 521 459 467 407
2202 521 471 386 420
2203 542 613 522 497
2204 542 425 522 497
2205 542 494 425 497
2206 542 552 613 497
2207 542 538 613 522
2208 542 538 425 522
2209 542 494 538 613
2210 542 494 538 425
2211 542 619 556 613
2212 542 494 556 613
2213 542 619 613 667
2214 542 552 613 667
2215 405 377 404 497
2216 405 409 404 497
2217 405 301 377 404
2218 405 320 301 404
2219 405 301 377 290
2220 405 409 384 404
2221 405 320 384 404
2222 405 320 409 384
2223 405 320 301 290
2224 405 320 318 290
2225 405 320 318 409
2226 974 963 890 1006
2227 974 963 921 890
2228 974 1009 877 964
2229 974 939 1009 877
2230 523 504 573 604
2231 523 471 504 573
2232 523 471 504 413
2233 523 471 378 469
2234 523 471 378 413
2235 685 670 573 715
2236 685 696 801 715
2237 685 797 801 715
2238 685 797 670 715
2239 685 573 715 604
2240 685 696 715 604
2241 685 797 801 834
2242 691 646 741 796
2243 691 680 646 597
2244 691 840 741 796
2245 691 682 646 741
2246 691 840 847 834
2247 691 597 572 568
2248 691 646 597 568
2249 691 682 598 572
2250 691 682 646 598
2251 691 646 598 568
2252 691 598 572 568
2253 440 414 388 446
2254 440 442 500 397
2255 440 351 414 388
2256 440 442 351 414
2257 440 442 351 397
2258 440 351 397 299
2259 440 351 388 299
2260 551 414 467 446
2261 551 508 467 420
2262 551 508 597 420
2263 551 545 508 625
2264 551 508 597 625
2265 551 521 467 420
2266 551 521 597 420
2267 551 561 629 597
2268 551 680 629 597
2269 551 680 597 625
2270 551 521 561 467
2271 551 521 561 597
2272 551 545 675 625
2273 551 680 675 625
2274 551 680 629 675
2275 511 440 545 500
2276 511 440 442 500
2277 511 440 442 414
2278 511 440 545 446
2279 511 440 414 446
2280 511 551 414 446
2281 511 551 545 446
2282 511 470 442 414
2283 511 470 442 540
2284 511 540 559 626
2285 511 470 540 559
2286 511 470 414 467
2287 511 551 414 467
2288 511 561 559 626
2289 511 470 561 559
2290 511 561 629 626
2291 511 551 561 629
2292 511 470 561 467
2293 511 551 561 467
2294 517 416 531 464
2295 517 581 531 464
2296 517 516 581 464
2297 517 621 581 531
2298 517 621 516 581
2299 517 621 595 516
2300 517 515 595 516
2301 517 515 595 529
2302 438 333 394 416
2303 438 373 333 357
2304 438 333 317 416
2305 438 373 317 416
2306 438 373 333 317
2307 438 507 416 531
2308 438 517 416 531
2309 438 517 507 531
2310 438 373 416 464
2311 438 517 416 464
2312 438 447 373 357
2313 438 517 516 464
2314 438 515 447 373
2315 438 411 516 464
2316 438 373 411 464
2317 438 517 515 516
2318 438 515 447 529
2319 438 517 515 529
2320 438 515 411 516
2321 438 515 373 411
2322 60 125 64 37
2323 60 76 81 133
2324 289 373 346 311
2325 289 297 373 311
2326 289 373 357 346
2327 396 341 462 280
2328 396 341 280 346
2329 396 341 462 506
2330 396 341 392 506
2331 396 462 529 506
2332 396 447 529 506
2333 396 341 373 346
2334 396 392 411 506
2335 396 447 373 346
2336 396 341 392 411
2337 396 341 373 411
2338 396 515 411 506
2339 396 515 447 506
2340 396 515 447 411
2341 396 447 373 411
2342 458 515 550 506
2343 458 515 392 506
2344 458 515 392 411
2345 768 880 819 844
2346 768 880 706 819
2347 768 744 790 844
2348 768 744 701 790
2349 630 595 529 543
2350 630 706 595 529
2351 882 744 790 844
2352 882 790 905 844
2353 882 881 790 905
2354 882 881 764 790
2355 882 744 764 790
2356 882 881 989 905
2357 882 905 947 844
2358 882 989 905 947
2359 652 706 701 595
2360 652 589 701 595
2361 652 630 706 595
2362 652 515 595 506
2363 652 589 515 595
2364 652 768 706 701
2365 652 595 543 506
2366 652 630 595 543
2367 652 515 550 506
2368 652 589 515 550
2369 180 232 293 189
2370 180 232 293 186
2371 180 232 186 202
2372 180 26 189 99
2373 180 116 26 99
2374 180 147 189 99
2375 180 232 147 99
2376 180 232 147 189
2377 180 116 85 99
2378 180 232 85 99
2379 180 232 116 85
2380 180 186 132 202
2381 180 116 186 132
2382 180 232 132 202
2383 180 232 116 132
2384 892 839 884 933
2385 892 880 839 933
2386 892 839 884 819
2387 892 880 839 819
2388 892 880 819 844
2389 892 905 947 844
2390 892 880 905 844
2391 892 880 905 947
2392 726 789 695 749
2393 726 695 658 749
2394 726 695 647 658
2395 726 789 780 749
2396 726 789 780 845
2397 726 636 658 749
2398 726 636 647 658
2399 726 636 780 749
2400 726 780 845 830
2401 726 787 845 830
2402 726 733 787 830
2403 726 780 754 830
2404 726 733 754 830
2405 707 674 754 778
2406 707 674 710 778
2407 707 754 852 778
2408 707 710 852 778
2409 707 733 754 852
2410 707 781 710 852
2411 707 683 781 664
2412 707 683 781 710
2413 602 534 513 581
2414 602 636 534 581
2415 602 636 534 549
2416 602 584 549 513
2417 602 549 513 461
2418 602 534 513 461
2419 602 534 549 461
2420 602 584 549 582
2421 827 733 830 852
2422 827 830 1014 852
2423 827 733 787 830
2424 827 903 1014 852
2425 827 880 1014 883
2426 827 880 830 1014
2427 827 787 880 830
2428 827 1014 962 883
2429 827 903 1014 962
2430 628 686 708 661
2431 628 591 708 661
2432 628 735 686 708
2433 628 686 580 601
2434 524 603 708 661
2435 524 591 708 661
2436 524 591 603 708
2437 524 552 603 661
2438 524 591 491 490
2439 524 591 490 592
2440 524 552 613 661
2441 524 552 613 522
2442 524 552 522 497
2443 524 491 490 404
2444 524 552 495 603
2445 524 495 490 592
2446 524 495 603 592
2447 524 404 522 497
2448 524 491 404 522
2449 524 552 495 497
2450 524 495 490 404
2451 524 495 377 497
2452 524 377 404 497
2453 524 495 377 404
2454 596 649 591 603
2455 596 524 603 592
2456 596 524 591 592
2457 596 524 591 603
2458 16 52 101 170
2459 16 29 52 170
2460 16 101 164 170
2461 16 29 164 170
2462 16 29 102 164
2463 16 89 101 164
2464 154 29 210 170
2465 154 210 216 170
2466 154 82 170 10
2467 154 82 216 170
2468 154 141 66 10
2469 154 82 43 10
2470 154 141 66 207
2471 154 82 43 161
2472 154 82 216 161
2473 154 141 43 10
2474 154 141 193 43
2475 154 268 210 207
2476 154 268 210 216
2477 154 128 66 207
2478 154 128 210 207
2479 154 29 128 210
2480 154 193 43 161
2481 154 193 216 161
2482 154 268 193 216
2483 154 141 268 207
2484 154 268 193 250
2485 154 141 193 250
2486 154 141 268 250
2487 577 509 478 505
2488 577 570 509 505
2489 577 570 509 639
2490 577 509 549 478
2491 577 509 639 549
2492 577 478 484 505
2493 577 582 478 484
2494 577 650 639 582
2495 577 549 582 478
2496 577 639 549 582
2497 577 570 585 505
2498 577 677 570 585
2499 577 677 570 639
2500 577 547 582 484
2501 577 650 547 582
2502 577 512 484 505
2503 577 512 585 505
2504 577 547 512 484
2505 577 677 648 585
2506 577 648 650 547
2507 577 648 512 585
2508 577 648 547 512
2509 535 534 549 457
2510 535 534 555 457
2511 535 636 555 658
2512 535 636 534 555
2513 535 636 690 658
2514 535 631 555 658
2515 535 540 631 658
2516 607 638 693 679
2517 607 693 679 626
2518 607 559 679 626
2519 607 616 559 571
2520 607 616 559 679
2521 607 616 638 571
2522 607 616 638 679
2523 607 638 693 690
2524 607 693 658 626
2525 607 540 559 626
2526 607 535 540 559
2527 607 693 690 658
2528 607 535 690 658
2529 607 540 658 626
2530 607 535 540 658
2531 750 776 727 718
2532 750 894 776 842
2533 750 894 776 727
2534 750 650 674 660
2535 750 758 674 660
2536 750 674 727 778
2537 750 758 674 778
2538 750 894 895 842
2539 750 758 712 660
2540 750 872 727 895
2541 750 894 872 895
2542 750 894 872 727
2543 750 650 712 660
2544 750 776 802 842
2545 750 758 835 842
2546 750 758 835 712
2547 750 835 802 842
2548 814 823 794 893
2549 814 823 794 704
2550 982 920 915 893
2551 982 920 854 893
2552 917 931 853 987
2553 917 984 931 900
2554 1007 990 887 995
2555 1007 990 887 895
2556 1007 990 981 895
2557 1007 1019 981 895
2558 1007 979 1019 895
2559 946 887 852 995
2560 946 1007 887 995
2561 946 903 962 923
2562 946 903 962 852
2563 946 1014 852 995
2564 946 1014 962 852
2565 898 979 936 895
2566 898 936 895 842
2567 898 835 936 842
2568 898 976 979 936
2569 898 976 979 943
2570 618 584 674 660
2571 618 710 660 778
2572 618 674 660 778
2573 618 674 710 778
2574 618 584 599 660
2575 618 707 674 710
2576 618 599 660 665
2577 618 584 599 546
2578 618 602 584 674
2579 618 758 660 665
2580 618 758 710 665
2581 618 758 710 660
2582 618 578 599 665
2583 618 578 599 546
2584 618 707 683 710
2585 618 683 590 546
2586 618 683 664 546
2587 618 707 664 546
2588 618 707 683 664
2589 618 584 513 546
2590 618 578 590 546
2591 618 683 614 590
2592 618 683 614 710
2593 618 614 710 665
2594 618 578 614 665
2595 618 578 614 590
2596 851 946 903 923
2597 851 946 903 852
2598 874 1003 907 878
2599 874 793 864 878
2600 874 988 864 878
2601 874 988 1003 878
2602 874 907 878 818
2603 874 793 878 818
2604 874 766 907 818
2605 874 766 793 818
2606 874 793 843 822
2607 874 793 843 864
2608 874 766 793 822
2609 874 988 843 1022
2610 874 988 843 864
2611 874 766 785 822
2612 874 766 907 785
2613 874 857 907 919
2614 874 843 1022 822
2615 874 857 785 822
2616 874 857 907 785
2617 874 857 934 822
2618 874 857 934 919
2619 874 934 1022 822
2620 806 793 864 743
2621 806 805 864 743
2622 806 805 751 743
2623 806 751 686 743
2624 806 717 686 743
2625 806 793 717 743
2626 806 793 717 686
2627 806 773 793 686
2628 806 864 899 888
2629 806 805 864 899
2630 806 805 751 899
2631 806 735 751 686
2632 806 773 735 686
2633 806 773 804 888
2634 806 864 878 888
2635 806 793 864 878
2636 806 773 878 888
2637 806 773 793 878
2638 806 899 809 888
2639 806 751 899 809
2640 806 735 751 804
2641 806 773 735 804
2642 806 825 804 888
2643 806 751 825 804
2644 806 825 809 888
2645 806 751 825 809
2646 782 805 751 899
2647 782 849 899 809
2648 782 751 899 809
2649 782 849 862 899
2650 782 671 805 684
2651 957 988 843 1022
2652 957 988 843 864
2653 957 988 993 864
2654 957 983 993 899
2655 957 843 864 899
2656 957 993 864 899
2657 786 807 798 901
2658 786 826 807 901
2659 786 763 714 822
2660 786 826 714 822
2661 786 807 720 798
2662 786 826 807 720
2663 786 677 720 798
2664 786 677 791 798
2665 786 677 720 714
2666 786 736 720 714
2667 786 736 826 714
2668 786 736 826 720
2669 795 684 651 743
2670 795 732 684 651
2671 795 732 703 651
2672 795 782 732 684
2673 795 808 732 703
2674 795 805 684 743
2675 795 782 805 684
2676 795 782 808 732
2677 247 318 240 209
2678 247 318 240 283
2679 247 240 283 233
2680 330 252 384 425
2681 330 252 339 425
2682 330 424 384 425
2683 330 424 339 425
2684 330 424 339 307
2685 330 252 339 307
2686 330 424 472 384
2687 330 432 472 384
2688 330 432 384 291
2689 330 252 384 291
2690 330 307 376 398
2691 330 424 376 398
2692 330 424 307 398
2693 200 252 136 204
2694 200 252 136 140
2695 200 136 204 124
2696 200 140 240 185
2697 200 252 140 240
2698 200 240 291 185
2699 200 252 240 291
2700 200 330 252 291
2701 253 381 339 329
2702 253 271 381 339
2703 253 278 339 329
2704 253 278 238 329
2705 253 271 339 233
2706 721 671 751 686
2707 721 671 686 601
2708 721 671 684 594
2709 721 782 671 684
2710 721 684 594 615
2711 721 723 751 809
2712 721 782 751 809
2713 721 671 805 751
2714 721 782 805 751
2715 721 782 671 805
2716 721 689 723 615
2717 721 689 684 615
2718 721 782 849 809
2719 824 740 829 746
2720 824 896 808 862
2721 824 808 740 752
2722 406 360 383 433
2723 406 325 510 383
2724 406 325 360 383
2725 406 325 510 426
2726 406 325 410 426
2727 406 325 410 294
2728 406 325 360 268
2729 958 854 853 945
2730 958 853 945 987
2731 958 931 853 987
2732 958 920 854 945
2733 958 982 920 854
2734 812 896 909 862
2735 812 896 808 862
2736 812 824 829 746
2737 812 824 896 808
2738 812 824 829 900
2739 812 824 896 900
2740 1002 840 942 922
2741 1002 840 847 922
2742 1002 847 912 834
2743 1002 840 834 942
2744 1002 840 847 834
2745 1002 952 834 942
2746 1002 952 912 834
2747 885 965 912 834
2748 885 847 912 834
2749 772 840 847 922
2750 772 691 840 847
2751 756 765 867 810
2752 756 906 867 810
2753 756 765 725 810
2754 756 906 902 867
2755 756 879 765 867
2756 756 879 902 867
2757 756 879 765 796
2758 756 765 675 725
2759 756 680 675 725
2760 756 680 765 796
2761 756 765 675 625
2762 756 680 675 625
2763 756 680 765 625
2764 848 767 725 810
2765 848 756 725 810
2766 848 756 906 810
2767 848 767 890 810
2768 848 906 890 810
2769 848 767 890 836
2770 848 756 906 902
2771 1010 906 963 1013
2772 1010 963 921 890
2773 1010 906 963 890
2774 1010 848 906 890
2775 871 952 902 834
2776 871 1020 935 817
2777 871 1020 904 817
2778 784 731 866 832
2779 784 801 866 832
2780 784 696 731 715
2781 784 696 801 715
2782 784 731 715 866
2783 784 801 715 866
2784 861 894 939 937
2785 861 939 937 1006
2786 861 863 937 1006
2787 861 872 863 937
2788 861 894 872 937
2789 861 894 939 877
2790 861 974 939 1006
2791 861 872 813 863
2792 861 894 872 813
2793 861 974 939 877
2794 861 894 813 877
2795 861 863 890 1006
2796 861 974 890 1006
2797 861 792 813 877
2798 861 792 877 836
2799 861 974 877 836
2800 861 813 863 749
2801 861 792 813 749
2802 861 833 863 890
2803 861 792 833 890
2804 861 792 890 836
2805 861 792 833 749
2806 861 921 890 836
2807 861 974 921 836
2808 861 974 921 890
2809 861 789 863 749
2810 861 789 833 749
2811 861 789 833 863
2812 742 750 650 712
2813 742 650 712 644
2814 742 648 650 644
2815 742 750 835 712
2816 742 750 835 802
2817 742 703 712 644
2818 742 648 703 644
2819 742 648 791 703
2820 742 677 648 791
2821 742 703 712 752
2822 527 408 474 492
2823 527 408 475 489
2824 527 408 475 492
2825 527 475 579 489
2826 527 609 579 489
2827 527 475 579 492
2828 527 474 594 642
2829 527 474 594 492
2830 527 609 579 642
2831 527 594 579 642
2832 527 594 579 492
2833 208 151 128 181
2834 208 229 128 181
2835 208 229 151 128
2836 208 229 151 228
2837 208 229 326 228
2838 208 229 265 181
2839 208 229 265 326
2840 208 264 172 181
2841 208 11 172 181
2842 208 265 264 181
2843 208 265 326 264
2844 208 11 181 112
2845 208 151 181 112
2846 262 229 228 207
2847 262 356 228 207
2848 262 356 364 319
2849 262 340 229 228
2850 262 340 229 364
2851 262 340 356 228
2852 262 340 356 364
2853 262 229 364 304
2854 262 229 257 304
2855 262 268 319 207
2856 262 356 268 207
2857 262 356 268 319
2858 262 319 210 207
2859 262 257 319 210
2860 262 128 210 207
2861 262 229 128 207
2862 262 257 128 210
2863 262 229 257 128
2864 441 326 474 402
2865 441 340 326 474
2866 441 479 474 402
2867 441 340 364 474
2868 441 340 356 364
2869 312 340 356 228
2870 312 218 228 207
2871 312 356 228 207
2872 312 441 340 356
2873 669 600 740 672
2874 681 600 740 617
2875 681 713 740 617
2876 681 530 600 617
2877 537 530 600 617
2878 537 633 600 617
2879 537 558 633 600
2880 537 476 530 600
2881 537 476 558 600
2882 537 558 633 547
2883 537 578 633 599
2884 537 633 547 599
2885 537 558 465 433
2886 537 558 465 547
2887 537 520 547 599
2888 537 520 465 433
2889 537 520 465 547
2890 434 465 547 512
2891 434 558 547 512
2892 434 558 465 547
2893 434 361 349 319
2894 434 361 360 319
2895 434 512 484 422
2896 434 465 512 484
2897 434 349 484 422
2898 434 361 465 484
2899 434 361 349 484
2900 434 361 465 433
2901 434 361 360 433
2902 724 648 585 651
2903 724 677 585 651
2904 724 677 648 585
2905 724 648 703 651
2906 724 648 791 703
2907 724 677 648 791
2908 724 795 703 651
2909 724 795 791 703
2910 724 677 659 651
2911 724 795 651 743
2912 724 795 763 743
2913 724 659 651 743
2914 724 659 763 743
2915 724 786 677 791
2916 724 659 763 714
2917 724 786 763 714
2918 724 677 659 714
2919 724 786 677 714
2920 1016 891 1019 948
2921 1016 891 928 948
2922 1016 891 889 928
2923 1016 889 928 985
2924 977 975 896 1015
2925 977 975 999 900
2926 977 975 896 900
2927 606 614 704 665
2928 606 519 614 525
2929 606 519 510 525
2930 606 578 614 665
2931 606 578 510 525
2932 606 578 614 525
2933 606 713 704 665
2934 606 713 722 665
2935 606 713 722 617
2936 606 578 633 665
2937 606 633 722 665
2938 606 633 722 617
2939 606 537 633 617
2940 606 537 578 633
2941 332 272 258 251
2942 332 353 272 258
2943 332 391 353 258
2944 332 361 391 401
2945 332 306 272 251
2946 332 306 354 272
2947 332 354 353 272
2948 332 391 354 353
2949 332 391 354 450
2950 332 306 274 251
2951 332 361 306 274
2952 332 361 391 450
2953 332 354 450 436
2954 332 306 354 436
2955 332 361 450 436
2956 332 361 306 436
2957 222 220 257 164
2958 222 210 164 170
2959 222 257 210 164
2960 222 101 164 170
2961 222 220 101 164
2962 222 274 210 170
2963 222 274 257 210
2964 222 101 127 170
2965 222 220 349 257
2966 222 91 101 127
2967 222 220 91 101
2968 222 274 203 251
2969 222 274 203 170
2970 222 361 274 257
2971 222 361 349 257
2972 222 175 127 251
2973 222 175 91 127
2974 222 220 175 91
2975 222 203 127 251
2976 222 203 127 170
2977 305 347 266 260
2978 305 325 347 260
2979 305 237 266 260
2980 305 325 347 383
2981 305 237 260 161
2982 305 325 260 161
2983 305 237 157 161
2984 305 237 266 157
2985 305 347 266 372
2986 305 431 347 383
2987 305 203 157 161
2988 305 234 266 157
2989 305 431 347 372
2990 305 431 372 382
2991 305 383 466 382
2992 305 431 466 382
2993 305 431 383 466
2994 305 203 216 161
2995 305 234 203 157
2996 305 302 266 372
2997 305 234 302 266
2998 305 274 383 382
2999 305 306 234 382
3000 305 306 234 203
3001 305 325 383 216
3002 305 193 216 161
3003 305 325 193 161
3004 305 325 193 216
3005 305 372 382 338
3006 305 302 372 338
3007 305 234 382 338
3008 305 234 302 338
3009 305 306 274 382
3010 305 306 274 203
3011 305 274 203 216
3012 305 274 383 216
3013 248 214 143 139
3014 248 282 214 139
3015 248 324 343 295
3016 248 179 143 139
3017 248 179 282 139
3018 248 386 420 343
3019 74 155 167 164
3020 74 128 167 164
3021 74 12 128 164
3022 74 45 128 167
3023 74 45 12 128
3024 74 12 102 164
3025 74 16 102 164
3026 74 155 89 164
3027 74 16 89 164
3028 254 245 337 304
3029 254 155 167 164
3030 254 155 245 167
3031 254 257 337 304
3032 254 245 167 304
3033 254 155 220 164
3034 254 155 220 269
3035 254 257 167 164
3036 254 257 167 304
3037 254 220 257 164
3038 254 349 269 337
3039 254 220 349 269
3040 254 349 257 337
3041 254 220 349 257
3042 211 247 240 233
3043 211 271 283 233
3044 211 247 283 233
3045 137 80 55 71
3046 137 117 55 71
3047 137 117 140 55
3048 137 211 247 240
3049 137 140 240 233
3050 137 211 240 233
3051 173 117 166 209
3052 173 117 92 166
3053 173 117 92 71
3054 173 137 117 71
3055 173 117 240 209
3056 173 247 240 209
3057 173 137 247 240
3058 173 117 140 240
3059 173 137 140 240
3060 173 137 117 140
3061 5 168 129 73
3062 5 106 168 129
3063 5 129 73 33
3064 5 106 129 33
3065 108 152 49 67
3066 108 4 152 49
3067 362 239 230 226
3068 362 314 309 226
3069 362 230 259 226
3070 362 309 259 226
3071 362 309 400 259
3072 362 400 448 310
3073 362 400 259 310
3074 362 230 259 310
3075 362 315 230 310
3076 362 315 230 331
3077 362 393 448 310
3078 362 315 393 310
3079 362 393 448 417
3080 362 315 393 417
3081 362 331 359 417
3082 362 315 359 417
3083 362 315 331 359
3084 365 279 201 255
3085 365 314 201 255
3086 365 314 279 201
3087 365 279 323 255
3088 365 279 380 323
3089 365 380 323 457
3090 365 279 335 380
3091 365 314 232 279
3092 365 353 323 457
3093 365 232 279 335
3094 365 369 232 335
3095 365 380 463 457
3096 365 314 232 267
3097 365 369 232 267
3098 365 369 314 267
3099 300 386 420 407
3100 300 282 420 407
3101 300 282 327 407
3102 300 248 386 420
3103 300 248 282 420
3104 300 368 327 407
3105 300 368 327 286
3106 300 386 368 407
3107 300 386 368 286
3108 300 179 327 286
3109 300 179 282 327
3110 300 386 281 286
3111 300 386 343 281
3112 300 248 343 281
3113 300 248 386 343
3114 536 442 500 397
3115 536 442 486 397
3116 536 442 540 500
3117 536 442 540 576
3118 536 624 631 576
3119 443 442 486 397
3120 443 442 369 397
3121 443 536 486 576
3122 443 536 442 576
3123 443 536 442 486
3124 443 365 369 335
3125 443 458 515 411
3126 443 380 411 463
3127 443 335 380 411
3128 443 365 380 463
3129 443 365 335 380
3130 443 515 411 463
3131 443 515 576 463
3132 687 736 770 702
3133 687 748 770 702
3134 687 616 748 702
3135 687 670 748 770
3136 687 616 670 748
3137 687 616 562 702
3138 687 736 702 654
3139 687 736 640 654
3140 687 562 702 654
3141 687 640 562 654
3142 687 640 562 586
3143 687 616 562 586
3144 687 640 666 586
3145 687 736 640 666
3146 687 670 666 586
3147 687 670 554 586
3148 687 616 554 586
3149 687 616 670 554
3150 687 770 666 760
3151 687 736 666 760
3152 687 736 770 760
3153 687 770 666 715
3154 687 670 666 715
3155 687 670 770 715
3156 84 136 24 124
3157 84 7 136 24
3158 84 14 24 124
3159 84 7 136 140
3160 84 200 136 124
3161 84 200 136 140
3162 84 46 119 185
3163 84 14 46 185
3164 84 140 119 185
3165 84 200 140 185
3166 84 140 55 119
3167 84 7 140 55
3168 84 46 55 119
3169 97 38 177 94
3170 97 38 136 177
3171 97 7 136 140
3172 97 38 7 136
3173 192 14 155 124
3174 192 84 14 185
3175 192 84 14 124
3176 192 84 200 185
3177 192 84 200 124
3178 192 200 204 124
3179 192 245 167 185
3180 192 155 167 185
3181 192 155 245 167
3182 192 269 204 124
3183 192 155 269 124
3184 192 245 291 185
3185 192 328 245 291
3186 192 200 291 185
3187 192 254 155 245
3188 566 521 471 573
3189 566 523 471 573
3190 566 523 573 604
3191 566 685 573 604
3192 566 521 597 572
3193 566 521 544 572
3194 566 523 544 469
3195 566 523 471 469
3196 566 691 597 572
3197 566 471 386 469
3198 566 521 471 386
3199 566 544 420 469
3200 566 521 544 420
3201 566 386 420 469
3202 566 521 386 420
3203 632 691 682 572
3204 632 566 544 572
3205 632 566 691 572
3206 632 685 696 604
3207 632 566 523 544
3208 632 566 523 604
3209 632 566 685 604
3210 449 551 545 446
3211 449 551 545 508
3212 449 551 467 446
3213 449 551 508 467
3214 449 414 374 446
3215 449 414 467 446
3216 449 414 467 374
3217 449 467 420 374
3218 449 508 467 420
3219 449 285 374 446
3220 449 420 452 374
3221 449 508 420 452
3222 583 608 675 698
3223 583 675 626 698
3224 583 511 540 626
3225 583 624 608 698
3226 583 551 629 675
3227 583 511 629 626
3228 583 511 551 629
3229 583 540 631 626
3230 583 545 608 675
3231 583 551 545 675
3232 583 511 551 545
3233 583 675 725 626
3234 583 629 725 626
3235 583 629 675 725
3236 583 536 608 500
3237 583 536 540 500
3238 583 545 608 500
3239 583 511 545 500
3240 583 442 540 500
3241 583 511 442 500
3242 583 511 442 540
3243 583 745 626 698
3244 583 631 745 626
3245 583 624 745 698
3246 583 624 631 745
3247 583 536 624 608
3248 583 536 624 631
3249 583 540 631 576
3250 583 536 631 576
3251 583 536 540 576
3252 634 517 595 529
3253 634 517 621 595
3254 634 733 706 621
3255 634 706 595 529
3256 634 706 621 595
3257 634 630 706 529
3258 645 634 733 621
3259 645 634 517 621
3260 429 438 333 394
3261 429 438 333 357
3262 429 507 394 416
3263 429 438 394 416
3264 429 438 507 416
3265 429 438 447 357
3266 429 438 517 507
3267 103 60 76 133
3268 103 148 60 133
3269 219 289 346 311
3270 219 341 346 311
3271 219 341 280 346
3272 219 341 183 280
3273 219 341 183 311
3274 219 159 183 280
3275 219 289 297 311
3276 42 125 165 68
3277 42 125 64 68
3278 42 60 125 64
3279 42 103 148 6
3280 42 103 148 60
3281 42 148 125 165
3282 156 148 133 188
3283 156 223 133 188
3284 156 148 60 133
3285 156 42 60 125
3286 156 42 148 125
3287 156 42 148 60
3288 156 60 81 133
3289 156 273 223 246
3290 156 273 223 194
3291 156 125 224 246
3292 156 223 133 145
3293 156 81 133 145
3294 156 223 194 145
3295 156 60 125 37
3296 156 273 224 246
3297 156 273 224 194
3298 156 224 194 115
3299 156 125 224 115
3300 156 60 81 37
3301 156 81 37 145
3302 156 194 37 145
3303 156 194 37 115
3304 156 125 37 115
3305 528 458 515 550
3306 528 515 550 576
3307 528 443 458 486
3308 528 443 458 515
3309 528 589 550 576
3310 528 443 486 576
3311 528 443 515 576
3312 528 536 486 576
3313 528 589 576 663
3314 528 624 576 663
3315 528 536 624 576
3316 379 303 392 411
3317 379 458 392 411
3318 379 335 411 311
3319 379 303 411 311
3320 379 303 335 311
3321 379 443 335 411
3322 379 443 458 411
3323 379 303 293 335
3324 379 369 293 397
3325 379 369 293 335
3326 379 443 369 397
3327 379 443 369 335
3328 379 443 486 397
3329 379 443 458 486
3330 737 768 706 819
3331 737 652 768 706
3332 737 839 819 803
3333 737 706 839 819
3334 960 884 933 1000
3335 960 892 884 933
3336 960 892 880 947
3337 960 892 880 933
3338 729 726 695 647
3339 729 789 695 790
3340 729 726 789 695
3341 729 787 706 621
3342 729 726 621 647
3343 729 787 880 790
3344 729 787 880 706
3345 729 787 845 790
3346 729 726 787 845
3347 729 595 647 663
3348 729 695 647 663
3349 729 621 595 647
3350 729 706 621 595
3351 729 706 701 595
3352 729 744 701 790
3353 729 744 695 790
3354 729 744 695 701
3355 729 768 701 790
3356 729 768 706 701
3357 729 789 845 790
3358 729 726 789 845
3359 729 768 880 706
3360 729 701 595 663
3361 729 695 701 663
3362 729 880 790 844
3363 729 768 790 844
3364 729 768 880 844
3365 622 513 581 531
3366 622 602 513 581
3367 622 707 733 664
3368 622 618 707 546
3369 622 618 707 674
3370 622 618 602 674
3371 622 707 674 754
3372 622 664 546 531
3373 622 707 664 546
3374 622 513 546 531
3375 622 618 513 546
3376 622 602 584 513
3377 622 618 584 513
3378 622 618 602 584
3379 622 674 727 754
3380 622 602 674 727
3381 627 602 636 549
3382 627 602 549 582
3383 627 602 674 727
3384 627 602 636 727
3385 627 639 549 582
3386 627 584 674 582
3387 627 602 584 582
3388 627 602 584 674
3389 627 638 636 690
3390 627 750 674 727
3391 627 650 639 582
3392 627 750 650 639
3393 627 750 650 674
3394 627 638 690 718
3395 627 638 639 718
3396 627 750 727 718
3397 627 727 690 718
3398 627 636 727 690
3399 627 674 582 660
3400 627 650 582 660
3401 627 650 674 660
3402 627 776 639 718
3403 627 750 776 718
3404 627 750 776 639
3405 777 733 787 706
3406 777 827 733 787
3407 777 634 733 706
3408 777 827 787 880
3409 777 645 827 733
3410 777 645 634 733
3411 777 880 839 883
3412 777 827 880 883
3413 697 735 751 686
3414 697 628 735 686
3415 697 723 751 825
3416 697 751 825 804
3417 697 735 751 804
3418 588 524 591 491
3419 588 524 491 522
3420 588 514 491 601
3421 588 514 491 522
3422 588 655 686 601
3423 588 655 686 661
3424 588 628 686 661
3425 588 491 580 601
3426 588 591 491 580
3427 588 524 613 661
3428 588 524 613 522
3429 588 514 655 601
3430 588 514 655 522
3431 588 655 613 661
3432 588 655 613 522
3433 588 628 686 601
3434 588 628 591 661
3435 588 524 591 661
3436 588 628 591 580
3437 588 628 580 601
3438 111 154 66 10
3439 111 154 170 10
3440 111 154 29 170
3441 111 29 128 66
3442 111 154 128 66
3443 111 154 29 128
3444 111 52 170 10
3445 111 29 52 170
3446 560 421 549 478
3447 560 509 549 478
3448 560 509 421 478
3449 560 421 549 457
3450 560 535 549 457
3451 560 535 421 457
3452 560 509 639 549
3453 560 627 639 549
3454 560 627 638 639
3455 560 509 639 571
3456 560 638 639 571
3457 560 627 636 549
3458 560 627 638 636
3459 560 636 534 549
3460 560 535 534 549
3461 560 535 636 534
3462 560 607 638 571
3463 560 638 636 690
3464 560 607 638 690
3465 560 535 636 690
3466 560 607 535 690
3467 841 710 794 700
3468 841 781 710 700
3469 841 710 794 778
3470 841 781 710 778
3471 841 781 852 778
3472 841 851 781 852
3473 841 898 943 794
3474 841 955 943 923
3475 841 946 943 923
3476 841 851 946 923
3477 841 851 946 852
3478 738 614 704 665
3479 738 614 700 665
3480 738 794 704 665
3481 738 814 794 704
3482 738 794 700 665
3483 738 841 794 700
3484 738 841 814 794
3485 811 823 854 893
3486 811 982 854 893
3487 811 739 823 854
3488 811 958 982 854
3489 811 823 794 704
3490 811 713 794 704
3491 811 739 854 774
3492 811 739 823 704
3493 811 739 713 704
3494 811 958 854 853
3495 811 958 982 925
3496 811 854 853 774
3497 811 681 739 774
3498 811 681 739 713
3499 811 958 925 931
3500 811 713 722 794
3501 970 982 915 893
3502 970 955 943 893
3503 970 976 943 893
3504 970 976 982 893
3505 837 824 886 752
3506 837 824 740 752
3507 837 886 835 752
3508 837 713 740 752
3509 837 713 722 752
3510 837 811 713 722
3511 855 946 1007 979
3512 855 946 1007 887
3513 855 1007 887 895
3514 855 1007 979 895
3515 855 898 979 895
3516 855 946 887 852
3517 855 946 979 943
3518 855 898 979 943
3519 855 754 887 895
3520 855 754 852 778
3521 855 754 887 852
3522 855 841 946 852
3523 855 841 946 943
3524 855 727 754 778
3525 855 727 754 895
3526 855 898 758 835
3527 855 898 895 842
3528 855 898 835 842
3529 855 841 852 778
3530 855 841 898 943
3531 855 750 727 778
3532 855 750 727 895
3533 855 750 895 842
3534 855 758 835 842
3535 855 758 794 778
3536 855 898 758 794
3537 855 841 794 778
3538 855 841 898 794
3539 855 750 758 842
3540 855 750 758 778
3541 859 898 758 794
3542 859 898 758 835
3543 859 758 722 794
3544 859 758 835 722
3545 859 898 886 835
3546 859 837 886 835
3547 859 811 722 794
3548 859 837 811 722
3549 859 835 722 752
3550 859 837 722 752
3551 859 837 835 752
3552 859 898 943 794
3553 859 898 976 943
3554 859 976 943 893
3555 859 976 982 893
3556 859 976 982 925
3557 859 837 886 925
3558 859 811 982 893
3559 859 811 982 925
3560 859 837 811 925
3561 859 823 794 893
3562 859 811 823 893
3563 859 811 823 794
3564 747 827 903 852
3565 747 851 903 852
3566 747 827 733 852
3567 747 851 781 852
3568 747 707 733 852
3569 747 707 781 852
3570 747 645 827 733
3571 747 707 733 664
3572 747 707 781 664
3573 959 874 988 1003
3574 959 1003 907 919
3575 959 874 907 919
3576 959 874 1003 907
3577 959 874 988 1022
3578 959 874 934 1022
3579 959 874 934 919
3580 865 957 985 1022
3581 865 957 843 1022
3582 865 913 985 1022
3583 865 843 1022 822
3584 865 913 1022 822
3585 865 957 983 985
3586 865 983 889 985
3587 865 957 843 899
3588 865 957 983 899
3589 865 763 843 822
3590 865 786 763 822
3591 865 913 826 822
3592 865 786 826 822
3593 865 913 928 985
3594 865 913 928 901
3595 865 913 826 901
3596 865 786 826 901
3597 865 889 928 985
3598 865 795 791 889
3599 865 805 843 899
3600 865 891 928 901
3601 865 891 889 928
3602 865 891 791 889
3603 865 786 798 901
3604 865 786 791 798
3605 865 724 786 763
3606 865 724 786 791
3607 865 891 798 901
3608 865 891 791 798
3609 865 724 795 763
3610 865 724 795 791
3611 865 763 843 743
3612 865 805 843 743
3613 865 795 763 743
3614 865 795 805 743
3615 287 192 269 204
3616 287 192 200 204
3617 287 192 328 291
3618 287 254 269 337
3619 287 192 200 291
3620 287 254 155 269
3621 287 192 155 269
3622 287 192 254 155
3623 287 328 245 337
3624 287 254 245 337
3625 287 192 328 245
3626 287 192 254 245
3627 235 330 252 307
3628 235 252 136 204
3629 235 252 307 233
3630 235 252 136 233
3631 235 307 241 236
3632 235 177 241 236
3633 235 177 307 236
3634 235 204 241 121
3635 235 136 204 121
3636 235 177 241 121
3637 235 136 177 121
3638 235 278 307 233
3639 235 177 278 307
3640 195 278 339 233
3641 195 253 339 233
3642 195 253 278 339
3643 195 235 278 233
3644 195 235 177 278
3645 195 235 136 233
3646 195 235 136 177
3647 195 177 278 169
3648 195 253 152 238
3649 195 253 278 238
3650 195 97 136 177
3651 195 4 152 169
3652 195 152 238 169
3653 195 136 140 233
3654 195 97 140 233
3655 195 97 136 140
3656 195 97 4 94
3657 195 97 177 94
3658 195 177 169 94
3659 195 4 169 94
3660 195 238 169 281
3661 195 278 169 281
3662 195 278 238 281
3663 820 721 849 809
3664 820 721 723 809
3665 820 721 689 723
3666 820 721 782 849
3667 820 782 849 862
3668 820 909 849 862
3669 820 812 909 862
3670 908 931 900 986
3671 908 975 900 986
3672 908 975 916 986
3673 908 975 896 900
3674 908 824 896 900
3675 908 925 931 986
3676 908 837 824 886
3677 908 886 916 986
3678 908 975 896 862
3679 908 824 896 862
3680 908 837 886 925
3681 908 811 925 931
3682 908 837 811 925
3683 908 886 808 916
3684 908 824 886 808
3685 908 808 916 862
3686 908 975 916 862
3687 908 824 808 862
3688 444 419 437 502
3689 444 366 419 437
3690 444 366 437 294
3691 444 366 296 294
3692 444 410 296 294
3693 321 284 294 250
3694 321 325 294 250
3695 321 406 325 294
3696 321 325 268 250
3697 321 406 325 268
3698 321 268 250 207
3699 321 356 268 207
3700 321 406 437 294
3701 321 312 218 284
3702 321 218 284 190
3703 321 284 250 190
3704 321 312 218 207
3705 321 312 356 207
3706 321 141 250 207
3707 321 141 218 207
3708 321 141 250 190
3709 321 141 218 190
3710 761 812 689 746
3711 761 812 824 746
3712 761 812 824 808
3713 761 782 808 732
3714 761 824 740 746
3715 761 824 808 740
3716 761 820 812 689
3717 761 782 808 862
3718 761 812 808 862
3719 761 732 684 642
3720 761 689 684 642
3721 761 732 672 642
3722 761 808 732 672
3723 761 782 732 684
3724 761 820 721 689
3725 761 820 721 782
3726 761 820 782 862
3727 761 820 812 862
3728 761 669 672 642
3729 761 808 740 672
3730 761 721 689 684
3731 761 721 782 684
3732 761 669 740 746
3733 761 669 740 672
3734 968 885 965 932
3735 968 885 965 912
3736 873 885 965 932
3737 873 965 932 935
3738 873 885 965 834
3739 873 801 866 817
3740 873 871 935 817
3741 873 797 801 834
3742 873 871 797 834
3743 873 965 952 834
3744 873 871 952 834
3745 873 871 965 952
3746 873 1020 935 817
3747 873 1020 866 817
3748 873 1020 866 935
3749 873 797 801 817
3750 873 871 797 817
3751 800 685 801 834
3752 800 873 801 834
3753 800 873 885 834
3754 800 873 885 801
3755 800 885 847 834
3756 753 772 691 847
3757 753 691 840 741
3758 753 772 691 840
3759 775 756 879 796
3760 775 756 879 902
3761 775 879 840 796
3762 775 879 840 902
3763 775 840 902 834
3764 775 848 756 902
3765 775 691 840 796
3766 775 691 840 834
3767 775 756 680 796
3768 775 871 902 834
3769 775 871 848 902
3770 775 680 646 796
3771 775 691 646 796
3772 775 691 680 646
3773 775 871 797 834
3774 775 871 848 797
3775 775 691 685 834
3776 719 767 679 725
3777 719 767 748 679
3778 719 629 679 725
3779 719 848 756 725
3780 719 670 629 679
3781 719 670 748 679
3782 719 680 629 725
3783 719 756 680 725
3784 719 797 670 770
3785 719 680 629 597
3786 719 775 756 680
3787 719 775 848 797
3788 719 775 848 756
3789 719 685 797 670
3790 719 775 691 680
3791 719 775 691 685
3792 719 685 797 834
3793 719 775 797 834
3794 719 775 685 834
3795 1017 1010 906 1013
3796 1017 1010 848 906
3797 1017 906 902 1013
3798 1017 848 906 902
3799 1017 871 848 902
3800 1017 871 952 902
3801 1017 902 1013 997
3802 1017 952 902 997
3803 961 871 965 952
3804 961 1017 871 952
3805 961 873 965 935
3806 961 873 871 935
3807 961 873 871 965
3808 961 1004 1020 904
3809 961 871 1020 935
3810 961 871 1020 904
3811 816 797 770 817
3812 816 871 797 817
3813 816 719 797 770
3814 816 871 848 797
3815 816 719 848 797
3816 816 748 770 836
3817 816 670 748 770
3818 816 719 670 770
3819 816 719 670 748
3820 816 719 767 748
3821 816 767 748 836
3822 816 848 767 836
3823 816 848 767 725
3824 816 719 767 725
3825 816 719 848 725
3826 705 742 750 802
3827 705 742 750 650
3828 705 750 776 802
3829 705 750 776 639
3830 705 750 650 639
3831 705 742 791 802
3832 705 742 677 791
3833 705 742 648 650
3834 705 742 677 648
3835 705 791 802 798
3836 705 677 791 798
3837 705 577 648 650
3838 705 577 677 648
3839 705 776 720 798
3840 705 776 802 798
3841 705 677 720 798
3842 705 776 639 720
3843 705 677 639 720
3844 705 577 650 639
3845 705 577 677 639
3846 838 891 791 889
3847 838 886 891 835
3848 838 742 791 703
3849 838 891 791 802
3850 838 742 791 802
3851 838 742 703 752
3852 838 891 835 802
3853 838 742 835 802
3854 838 886 835 752
3855 838 795 791 703
3856 838 795 791 889
3857 838 795 808 703
3858 838 808 703 752
3859 838 835 712 752
3860 838 742 712 752
3861 838 742 835 712
3862 838 824 808 752
3863 838 824 886 752
3864 838 824 886 808
3865 539 558 609 642
3866 539 527 609 642
3867 539 527 558 609
3868 539 527 474 642
3869 539 558 672 642
3870 539 558 600 672
3871 539 476 558 600
3872 539 669 672 642
3873 539 669 600 672
3874 539 669 612 600
3875 539 441 569 474
3876 501 558 609 512
3877 501 527 558 609
3878 501 609 512 585
3879 501 434 558 512
3880 501 512 585 489
3881 501 609 585 489
3882 501 527 609 489
3883 501 408 512 489
3884 501 527 408 489
3885 501 539 527 558
3886 553 476 530 600
3887 553 539 612 600
3888 553 539 476 600
3889 553 476 530 460
3890 548 441 569 474
3891 548 441 479 474
3892 548 479 594 615
3893 548 594 615 642
3894 548 474 594 642
3895 548 539 474 642
3896 548 539 569 474
3897 548 474 594 492
3898 548 479 594 492
3899 548 479 474 492
3900 716 669 740 746
3901 481 383 466 433
3902 481 510 383 466
3903 481 520 466 433
3904 481 537 520 433
3905 481 578 510 466
3906 481 406 383 433
3907 481 406 510 383
3908 481 520 599 466
3909 481 537 520 599
3910 481 578 599 466
3911 481 537 578 599
3912 481 606 578 510
3913 481 606 537 578
3914 375 262 364 319
3915 375 262 257 319
3916 375 408 364 304
3917 375 349 257 319
3918 375 434 349 319
3919 375 501 408 512
3920 375 501 434 512
3921 375 262 364 304
3922 375 262 257 304
3923 375 434 349 422
3924 375 408 512 422
3925 375 434 512 422
3926 375 257 337 304
3927 375 349 257 337
3928 375 408 337 304
3929 375 408 337 422
3930 375 349 337 422
3931 973 891 1019 936
3932 973 1016 891 1019
3933 973 1016 891 889
3934 973 886 916 986
3935 973 838 891 889
3936 973 838 886 889
3937 973 838 886 891
3938 973 1016 889 985
3939 676 606 614 704
3940 676 606 519 614
3941 676 739 713 704
3942 676 606 713 704
3943 676 681 739 713
3944 298 361 349 401
3945 298 332 361 401
3946 298 222 361 349
3947 298 332 361 274
3948 298 222 361 274
3949 298 275 269 401
3950 298 349 269 401
3951 298 222 220 349
3952 298 332 274 251
3953 298 222 274 251
3954 298 220 275 269
3955 298 220 349 269
3956 298 332 391 401
3957 298 332 391 258
3958 298 332 258 251
3959 298 275 175 258
3960 298 220 275 175
3961 298 222 220 175
3962 298 391 331 401
3963 298 391 353 258
3964 298 175 258 251
3965 298 222 175 251
3966 298 331 359 401
3967 298 275 359 401
3968 298 275 331 359
3969 298 391 331 353
3970 298 331 353 258
3971 298 275 331 258
3972 205 248 214 295
3973 205 214 143 182
3974 205 248 214 143
3975 344 248 324 295
3976 344 248 214 295
3977 344 420 452 435
3978 344 248 282 420
3979 344 248 420 343
3980 344 248 324 343
3981 344 282 214 285
3982 344 248 282 214
3983 344 324 399 435
3984 344 399 452 435
3985 344 324 343 435
3986 344 420 343 435
3987 344 420 452 374
3988 344 282 420 374
3989 344 282 285 374
3990 344 449 452 374
3991 344 449 285 374
3992 114 74 155 167
3993 114 14 155 89
3994 114 74 155 89
3995 114 14 46 185
3996 114 74 45 167
3997 114 45 138 167
3998 114 138 167 185
3999 114 155 167 185
4000 114 192 155 185
4001 114 192 14 185
4002 114 192 14 155
4003 114 46 138 25
4004 114 45 138 25
4005 114 138 119 185
4006 114 46 119 185
4007 114 46 138 119
4008 104 108 4 152
4009 334 239 331 255
4010 334 314 239 255
4011 334 239 230 331
4012 334 362 230 331
4013 334 362 239 230
4014 334 314 239 226
4015 334 362 239 226
4016 334 362 314 226
4017 334 365 314 255
4018 334 331 353 255
4019 334 421 331 353
4020 334 353 323 255
4021 334 365 323 255
4022 334 365 353 323
4023 334 421 353 457
4024 334 365 353 457
4025 423 470 309 400
4026 423 362 309 400
4027 423 470 400 448
4028 423 362 400 448
4029 423 470 351 309
4030 423 470 559 448
4031 423 314 351 309
4032 423 362 314 309
4033 423 470 442 351
4034 423 470 540 559
4035 423 535 540 559
4036 423 369 314 351
4037 423 442 369 351
4038 423 334 362 314
4039 423 470 442 540
4040 423 365 369 314
4041 423 334 365 314
4042 480 362 448 417
4043 480 509 421 417
4044 480 362 331 417
4045 480 362 421 331
4046 480 423 362 448
4047 480 571 448 417
4048 480 509 571 417
4049 480 560 509 421
4050 480 331 359 417
4051 480 421 359 417
4052 480 421 331 359
4053 480 560 509 571
4054 480 423 559 448
4055 480 559 571 448
4056 480 607 559 571
4057 480 560 607 571
4058 480 607 535 559
4059 480 560 607 535
4060 212 179 169 286
4061 212 300 179 286
4062 212 169 281 286
4063 212 300 281 286
4064 212 300 248 281
4065 212 248 179 143
4066 212 248 179 282
4067 212 300 179 282
4068 212 300 248 282
4069 212 248 281 217
4070 212 248 143 217
4071 212 169 131 36
4072 212 143 131 36
4073 212 96 169 36
4074 212 179 96 169
4075 212 96 143 36
4076 212 179 96 143
4077 212 143 131 217
4078 212 152 238 217
4079 212 238 281 217
4080 212 152 131 217
4081 212 152 169 131
4082 212 238 169 281
4083 212 152 238 169
4084 620 566 521 573
4085 620 670 573 554
4086 620 521 573 554
4087 620 685 670 573
4088 620 566 685 573
4089 620 566 521 597
4090 620 561 670 554
4091 620 521 561 554
4092 620 521 561 597
4093 620 719 685 670
4094 620 566 691 597
4095 620 561 629 597
4096 620 561 670 629
4097 620 719 629 597
4098 620 719 670 629
4099 620 719 691 685
4100 620 632 691 685
4101 620 632 566 685
4102 620 632 566 691
4103 620 691 680 597
4104 620 719 680 597
4105 620 719 691 680
4106 605 664 533 531
4107 605 507 533 531
4108 605 517 507 531
4109 605 622 664 531
4110 605 622 733 664
4111 605 645 733 621
4112 605 747 733 664
4113 605 747 645 733
4114 605 517 621 531
4115 605 645 517 621
4116 605 622 621 531
4117 605 622 733 621
4118 605 645 634 517
4119 498 438 447 529
4120 498 429 438 447
4121 498 438 517 529
4122 498 429 438 517
4123 498 634 517 529
4124 498 605 634 517
4125 498 429 517 507
4126 498 605 517 507
4127 142 219 183 311
4128 142 297 165 311
4129 142 219 297 311
4130 142 132 261 311
4131 142 183 261 311
4132 142 183 132 261
4133 142 277 132 311
4134 142 165 277 311
4135 142 165 277 132
4136 142 41 183 132
4137 142 219 159 130
4138 142 219 159 183
4139 142 165 68 132
4140 142 159 41 183
4141 142 42 165 68
4142 142 62 41 68
4143 142 41 68 132
4144 142 62 41 0
4145 142 62 130 0
4146 142 159 41 0
4147 142 159 130 0
4148 142 42 62 68
4149 142 148 130 165
4150 142 42 148 165
4151 142 42 148 130
4152 270 297 333 246
4153 270 297 333 357
4154 270 333 246 188
4155 270 297 373 357
4156 270 289 373 357
4157 270 289 297 373
4158 31 42 148 6
4159 31 42 148 130
4160 31 142 62 130
4161 31 142 42 130
4162 31 142 42 62
4163 206 156 148 188
4164 206 270 148 188
4165 206 270 246 188
4166 206 223 246 188
4167 206 156 223 188
4168 206 156 223 246
4169 206 156 125 246
4170 206 156 148 125
4171 206 125 165 246
4172 206 148 125 165
4173 206 297 165 246
4174 206 270 297 246
4175 206 270 219 148
4176 206 270 289 297
4177 206 219 148 130
4178 206 148 130 165
4179 206 270 219 289
4180 206 219 289 297
4181 206 142 130 165
4182 206 142 219 130
4183 206 142 297 165
4184 206 142 219 297
4185 711 652 630 706
4186 711 737 652 706
4187 966 960 880 947
4188 966 960 880 933
4189 966 1021 905 947
4190 966 880 905 947
4191 966 880 1014 905
4192 966 1021 905 980
4193 966 991 933 883
4194 966 880 933 883
4195 966 991 1014 883
4196 966 880 1014 883
4197 966 905 980 930
4198 966 1014 905 930
4199 673 621 581 531
4200 673 622 581 531
4201 673 622 621 531
4202 673 621 647 581
4203 673 726 621 647
4204 673 622 733 621
4205 673 636 647 581
4206 673 726 636 647
4207 673 602 636 581
4208 673 622 602 581
4209 673 733 787 621
4210 673 726 733 787
4211 673 726 733 754
4212 673 602 636 727
4213 673 622 602 727
4214 673 726 780 754
4215 673 726 636 780
4216 673 622 727 754
4217 673 729 787 621
4218 673 729 726 621
4219 673 729 726 787
4220 673 707 733 754
4221 673 622 707 754
4222 673 622 707 733
4223 673 727 780 754
4224 673 636 727 780
4225 769 880 706 839
4226 769 777 880 839
4227 769 737 706 839
4228 769 787 880 706
4229 769 777 787 706
4230 769 777 787 880
4231 769 711 737 706
4232 769 777 634 706
4233 769 634 630 706
4234 769 711 630 706
4235 610 628 686 580
4236 610 697 628 686
4237 610 686 580 601
4238 610 532 594 601
4239 610 488 580 601
4240 610 532 488 601
4241 610 532 488 580
4242 856 841 943 794
4243 856 859 794 893
4244 856 859 943 893
4245 856 859 943 794
4246 856 814 794 893
4247 856 841 814 794
4248 856 955 943 893
4249 856 841 955 943
4250 876 865 983 899
4251 876 865 983 889
4252 876 865 795 889
4253 876 862 992 899
4254 876 983 992 899
4255 876 865 805 899
4256 876 865 795 805
4257 876 808 916 862
4258 876 983 916 992
4259 876 916 862 992
4260 876 838 795 889
4261 876 838 795 808
4262 876 782 805 899
4263 876 795 782 805
4264 876 782 862 899
4265 876 782 808 862
4266 876 795 782 808
4267 876 886 808 916
4268 876 838 886 889
4269 876 838 886 808
4270 389 330 424 376
4271 389 424 477 376
4272 389 330 424 472
4273 389 330 432 472
4274 389 477 376 439
4275 389 328 432 291
4276 389 330 432 291
4277 389 287 328 291
4278 389 287 330 291
4279 389 424 472 477
4280 389 432 472 477
4281 389 477 439 499
4282 389 432 477 499
4283 153 195 253 233
4284 153 253 271 233
4285 153 211 271 233
4286 153 137 211 233
4287 153 195 97 233
4288 153 195 253 152
4289 153 195 97 4
4290 153 137 140 233
4291 153 104 4 70
4292 153 195 4 152
4293 153 104 4 152
4294 575 606 519 510
4295 575 681 530 617
4296 575 676 606 519
4297 575 481 606 510
4298 575 537 530 617
4299 575 606 537 617
4300 575 681 713 617
4301 575 606 713 617
4302 575 676 681 713
4303 575 676 606 713
4304 575 481 606 537
4305 371 321 312 284
4306 371 321 312 356
4307 371 284 437 294
4308 371 321 437 294
4309 371 321 284 294
4310 371 321 476 356
4311 428 476 437 460
4312 428 371 437 460
4313 428 371 321 437
4314 428 371 476 460
4315 428 371 321 476
4316 428 321 406 437
4317 428 321 476 356
4318 428 321 356 268
4319 428 406 360 268
4320 428 321 406 268
4321 428 406 360 433
4322 428 537 476 558
4323 428 537 476 530
4324 428 481 406 433
4325 428 481 537 433
4326 428 481 537 530
4327 656 761 689 746
4328 656 761 669 746
4329 656 761 689 642
4330 656 761 669 642
4331 656 689 615 642
4332 656 548 615 642
4333 656 539 669 642
4334 656 548 539 642
4335 656 548 539 569
4336 656 539 612 569
4337 656 539 669 612
4338 860 873 932 935
4339 860 873 866 935
4340 860 1020 932 935
4341 860 1020 866 935
4342 860 1020 866 932
4343 860 873 801 866
4344 860 801 866 832
4345 860 873 885 932
4346 860 873 885 801
4347 860 927 866 832
4348 860 927 866 932
4349 860 784 801 832
4350 860 800 885 801
4351 759 685 696 801
4352 759 800 685 801
4353 759 784 696 801
4354 759 632 685 696
4355 759 860 784 801
4356 759 860 800 801
4357 734 691 685 834
4358 734 800 685 834
4359 734 691 847 834
4360 734 800 847 834
4361 734 759 800 685
4362 734 753 691 741
4363 734 753 691 847
4364 734 691 682 741
4365 897 1017 1010 848
4366 897 1017 871 848
4367 897 816 871 848
4368 897 961 1017 1010
4369 897 961 1017 871
4370 897 816 848 836
4371 897 848 890 836
4372 897 1010 848 890
4373 897 961 1010 964
4374 897 921 890 836
4375 897 1010 921 890
4376 897 1010 921 964
4377 897 961 1004 964
4378 897 961 1004 904
4379 897 961 871 904
4380 897 974 921 964
4381 897 974 921 836
4382 897 1004 875 964
4383 897 1004 875 904
4384 897 871 904 817
4385 897 816 871 817
4386 897 974 877 836
4387 897 974 877 964
4388 897 877 875 836
4389 897 877 875 964
4390 897 770 875 836
4391 897 816 770 836
4392 897 770 875 904
4393 897 770 904 817
4394 897 816 770 817
4395 635 681 530 600
4396 635 553 530 600
4397 635 553 681 530
4398 635 681 600 740
4399 635 716 681 740
4400 635 553 612 600
4401 635 669 600 740
4402 635 669 612 600
4403 635 716 669 740
4404 493 553 539 612
4405 493 553 539 476
4406 493 539 612 569
4407 493 539 441 569
4408 493 539 441 476
4409 493 553 476 460
4410 493 371 476 460
4411 493 441 476 356
4412 493 312 441 356
4413 493 371 476 356
4414 493 371 312 356
4415 574 530 437 460
4416 574 553 530 460
4417 574 553 681 530
4418 574 575 681 530
4419 574 575 444 518
4420 574 575 518 593
4421 574 444 518 502
4422 574 444 437 502
4423 574 681 593 688
4424 574 635 553 681
4425 574 635 716 681
4426 799 716 829 746
4427 799 740 829 746
4428 799 716 740 746
4429 799 824 740 829
4430 799 716 681 740
4431 799 837 824 740
4432 799 681 713 740
4433 799 811 681 713
4434 799 824 829 900
4435 799 908 824 900
4436 799 908 837 824
4437 799 908 837 811
4438 799 837 713 740
4439 799 837 811 713
4440 799 908 811 931
4441 799 908 931 900
4442 799 917 829 853
4443 799 917 931 853
4444 799 958 931 853
4445 799 811 958 853
4446 799 811 958 931
4447 799 917 829 900
4448 799 917 931 900
4449 415 375 501 434
4450 415 375 364 319
4451 415 375 434 319
4452 415 501 434 558
4453 415 356 364 319
4454 415 434 360 319
4455 415 428 537 558
4456 415 434 360 433
4457 415 428 360 433
4458 415 537 558 433
4459 415 428 537 433
4460 415 360 268 319
4461 415 356 268 319
4462 415 428 360 268
4463 415 428 356 268
4464 415 558 465 433
4465 415 434 465 433
4466 415 434 558 465
4467 972 973 891 936
4468 972 973 886 891
4469 972 891 835 936
4470 972 886 891 835
4471 972 898 835 936
4472 972 898 886 835
4473 972 898 976 936
4474 972 859 898 886
4475 972 859 898 976
4476 972 859 886 925
4477 972 859 976 925
4478 972 973 886 986
4479 972 908 925 986
4480 972 908 886 986
4481 972 908 886 925
4482 949 973 886 916
4483 949 973 886 889
4484 949 876 886 916
4485 949 876 886 889
4486 949 876 983 916
4487 949 876 983 889
4488 949 983 889 985
4489 949 973 889 985
4490 256 248 343 295
4491 256 205 248 295
4492 256 343 281 217
4493 256 248 281 217
4494 256 248 343 281
4495 256 248 143 217
4496 256 205 248 143
4497 256 205 143 182
4498 256 143 131 217
4499 256 143 131 95
4500 256 143 182 95
4501 445 362 421 331
4502 445 334 421 331
4503 445 334 362 331
4504 445 480 362 421
4505 445 423 334 362
4506 445 480 423 362
4507 445 423 334 365
4508 445 334 421 457
4509 445 334 365 457
4510 445 535 421 457
4511 445 560 535 421
4512 445 480 560 421
4513 445 480 560 535
4514 445 423 535 559
4515 445 480 535 559
4516 445 480 423 559
4517 483 423 442 540
4518 483 423 535 540
4519 483 445 423 535
4520 483 442 540 576
4521 483 443 442 576
4522 483 445 423 365
4523 483 540 631 576
4524 483 535 540 631
4525 483 443 442 369
4526 483 443 365 369
4527 483 443 365 463
4528 483 445 535 457
4529 483 445 365 457
4530 483 423 442 369
4531 483 423 365 369
4532 483 631 555 576
4533 483 535 631 555
4534 483 555 576 463
4535 483 443 576 463
4536 483 365 463 457
4537 483 555 463 457
4538 483 535 555 457
4539 653 721 686 601
4540 653 610 686 601
4541 653 721 671 601
4542 653 721 751 686
4543 653 671 594 601
4544 653 610 594 601
4545 653 721 671 594
4546 653 697 751 686
4547 653 610 697 686
4548 653 721 594 615
4549 653 721 723 751
4550 653 697 723 751
4551 653 532 594 615
4552 653 610 532 594
4553 653 721 723 615
4554 288 389 330 376
4555 288 389 287 330
4556 288 287 200 204
4557 288 315 241 376
4558 288 235 204 241
4559 288 287 269 204
4560 288 200 252 204
4561 288 200 330 252
4562 288 200 330 291
4563 288 287 330 291
4564 288 287 200 291
4565 288 307 241 376
4566 288 235 307 241
4567 288 330 307 376
4568 288 235 330 307
4569 288 235 252 204
4570 288 235 330 252
4571 288 204 215 241
4572 288 269 204 215
4573 288 315 215 241
4574 288 315 269 215
4575 370 389 376 439
4576 370 315 376 439
4577 370 315 359 439
4578 370 315 269 359
4579 370 288 315 376
4580 370 288 315 269
4581 370 287 269 337
4582 370 288 287 269
4583 370 288 389 376
4584 370 288 389 287
4585 370 359 439 422
4586 370 269 359 422
4587 370 269 337 422
4588 370 389 439 499
4589 370 287 328 337
4590 370 389 287 328
4591 370 439 489 422
4592 370 337 489 422
4593 370 439 489 499
4594 370 328 489 499
4595 370 328 337 489
4596 370 328 432 499
4597 370 389 432 499
4598 370 389 328 432
4599 28 153 4 70
4600 28 153 97 4
4601 28 153 137 70
4602 28 137 80 70
4603 28 153 137 140
4604 28 97 140 233
4605 28 153 140 233
4606 28 153 97 233
4607 28 137 140 55
4608 28 137 80 55
4609 28 7 140 55
4610 28 97 7 140
4611 643 575 518 593
4612 643 575 444 518
4613 643 575 444 519
4614 643 575 676 519
4615 643 575 676 681
4616 643 676 681 739
4617 643 574 681 593
4618 643 574 575 593
4619 643 574 575 681
4620 643 681 593 688
4621 643 681 688 774
4622 643 681 739 774
4623 487 575 519 510
4624 487 575 444 519
4625 487 444 410 519
4626 487 410 519 510
4627 487 410 510 426
4628 487 406 510 426
4629 487 406 410 426
4630 487 406 410 294
4631 487 444 410 294
4632 487 481 406 510
4633 487 575 481 510
4634 487 406 437 294
4635 487 444 437 294
4636 487 428 481 530
4637 487 428 481 406
4638 487 481 537 530
4639 487 575 537 530
4640 487 575 481 537
4641 487 574 530 437
4642 487 574 575 530
4643 487 574 444 437
4644 487 574 575 444
4645 487 428 476 530
4646 487 530 437 460
4647 487 476 437 460
4648 487 476 530 460
4649 487 428 406 437
4650 487 428 476 437
4651 699 632 691 685
4652 699 734 691 685
4653 699 759 632 685
4654 699 734 759 685
4655 699 632 691 682
4656 699 734 691 682
4657 755 799 829 853
4658 755 799 716 829
4659 755 799 716 681
4660 755 799 811 853
4661 755 799 811 681
4662 755 574 681 688
4663 755 574 716 681
4664 755 811 853 774
4665 755 811 681 774
4666 755 788 688 774
4667 755 681 688 774
4668 755 788 853 774
4669 451 408 364 474
4670 451 415 356 364
4671 451 415 375 364
4672 451 415 375 501
4673 451 527 408 474
4674 451 501 527 408
4675 451 375 408 364
4676 451 375 501 408
4677 451 441 364 474
4678 451 441 356 364
4679 451 539 527 474
4680 451 501 539 527
4681 451 501 539 558
4682 451 415 501 558
4683 451 441 476 356
4684 451 428 476 356
4685 451 415 428 356
4686 451 539 441 474
4687 451 539 441 476
4688 451 539 476 558
4689 451 428 476 558
4690 451 415 428 558
