# This file was created by meshio v5.3.5
1725 4 0
0 220 64 323 372
1 165 212 269 362
2 149 139 164 218
3 362 212 136 29
4 47 195 208 279
5 153 29 225 377
6 26 77 217 239
7 90 107 310 403
8 125 41 147 162
9 282 259 290 312
10 97 49 232 329
11 43 65 75 130
12 136 82 228 313
13 197 274 293 304
14 248 32 331 345
15 32 151 159 162
16 37 139 199 218
17 192 156 235 257
18 357 91 220 325
19 96 281 365 394
20 107 82 212 228
21 241 15 263 360
22 167 187 275 202
23 217 160 239 353
24 67 94 150 256
25 126 104 213 292
26 169 244 280 300
27 2 367 286 338
28 65 43 110 152
29 126 25 142 144
30 109 123 225 256
31 346 245 87 272
32 107 168 212 362
33 205 202 327 376
34 246 108 250 328
35 354 326 373 382
36 93 180 356 405
37 156 59 183 222
38 192 156 342 375
39 96 35 153 237
40 17 53 73 127
41 288 249 336 176
42 89 94 217 385
43 33 194 213 365
44 94 44 313 370
45 266 90 344 403
46 280 290 244 169
47 113 83 173 222
48 56 26 77 80
49 183 276 305 368
50 100 21 219 246
51 76 184 384 406
52 357 151 322 336
53 283 215 145 189
54 94 44 225 377
55 248 65 327 331
56 118 64 379 248
57 35 149 153 237
58 69 6 160 318
59 190 19 319 351
60 13 147 93 180
61 113 8 137 173
62 77 80 94 136
63 303 39 334 390
64 358 135 50 19
65 119 156 185 332
66 19 81 319 355
67 162 151 322 323
68 173 132 178 208
69 125 339 19 135
70 36 73 201 272
71 267 320 321 398
72 248 299 345 407
73 268 129 60 200
74 324 253 184 105
75 129 120 242 268
76 45 372 133 20
77 54 210 307 355
78 177 176 249 288
79 102 24 232 368
80 41 233 374 391
81 369 233 388 391
82 244 234 307 386
83 38 274 304 409
84 339 125 19 190
85 190 351 356 125
86 189 47 192 235
87 96 214 365 409
88 266 310 90 107
89 163 182 237 249
90 81 47 235 257
91 43 81 101 235
92 262 206 333 383
93 180 42 356 405
94 154 66 171 230
95 142 261 365 409
96 200 376 193 268
97 169 54 210 307
98 263 140 364 390
99 158 313 228 277
100 61 10 67 89
101 173 47 195 208
102 315 303 39 63
103 32 73 159 211
104 156 342 375 400
105 129 120 253 381
106 146 74 166 194
107 139 121 149 164
108 31 52 181 75
109 258 196 279 298
110 243 209 312 378
111 72 69 231 239
112 228 82 277 313
113 42 184 393 405
114 237 182 165 50
115 198 177 374 391
116 276 232 305 368
117 97 15 234 361
118 109 103 123 256
119 295 34 304 409
120 54 244 305 329
121 44 57 123 188
122 35 218 237 281
123 178 35 208 389
124 125 42 168 212
125 266 310 107 228
126 25 295 142 144
127 149 387 29 237
128 42 184 266 393
129 84 397 223 109
130 10 66 150 333
131 147 41 180 322
132 34 214 295 298
133 189 215 192 47
134 23 209 278 312
135 125 50 165 269
136 122 332 396 156
137 149 123 153 225
138 140 307 386 390
139 50 34 71 96
140 2 367 174 286
141 344 90 380 403
142 54 85 234 329
143 56 9 136 310
144 31 53 75 251
145 169 277 307 340
146 32 73 101 159
147 71 96 214 394
148 183 156 257 276
149 54 169 244 307
150 103 109 123 178
151 160 239 318 217
152 108 21 246 250
153 73 101 159 258
154 81 43 101 152
155 41 322 336 374
156 189 127 196 235
157 255 336 357 374
158 15 234 361 386
159 127 101 196 235
160 373 309 388 404
161 102 232 276 368
162 120 76 129 242
163 124 180 226 289
164 178 137 173 57
165 171 103 66 154
166 55 10 89 150
167 26 77 80 94
168 23 174 243 282
169 52 219 250 260
170 109 84 134 223
171 21 219 246 250
172 46 132 195 208
173 217 26 239 318
174 10 150 262 333
175 88 303 334 390
176 277 44 313 340
177 53 52 75 127
178 85 49 203 329
179 27 244 290 361
180 137 178 154 57
181 162 34 50 308
182 82 107 136 228
183 179 344 405 406
184 141 5 264 292
185 20 116 118 216
186 89 67 94 150
187 232 24 305 368
188 189 196 258 298
189 31 170 187 247
190 85 183 54 257
191 126 33 213 142
192 185 246 328 49
193 110 58 172 187
194 104 245 295 298
195 17 127 189 350
196 137 230 171 300
197 314 255 357 374
198 109 217 225 353
199 352 231 311 239
200 170 118 216 408
201 123 57 154 178
202 110 65 152 205
203 15 175 263 348
204 9 128 228 310
205 43 110 152 263
206 326 373 382 404
207 96 34 214 409
208 194 281 389 394
209 33 166 194 281
210 29 82 165 212
211 69 11 72 231
212 167 62 170 202
213 44 94 225 256
214 167 115 202 275
215 178 256 154 123
216 202 301 327 376
217 216 118 379 408
218 58 108 175 110
219 343 198 374 391
220 125 168 180 269
221 368 392 24 305
222 5 264 292 366
223 127 250 43 235
224 70 253 337 106
225 97 221 244 305
226 80 55 94 313
227 168 182 269 362
228 201 87 321 267
229 113 132 173 83
230 298 17 283 245
231 36 17 53 73
232 134 397 109 223
233 158 313 277 238
234 42 212 227 228
235 122 156 192 400
236 199 353 68 134
237 125 135 162 339
238 281 35 389 394
239 139 37 164 218
240 43 235 250 328
241 21 108 172 250
242 111 343 369 388
243 56 26 72 77
244 140 152 319 390
245 105 253 148 157
246 182 163 237 387
247 346 245 298 295
248 250 127 75 52
249 19 71 135 196
250 265 2 286 338
251 342 119 156 59
252 152 101 190 331
253 155 3 284 337
254 102 49 276 232
255 319 340 351 355
256 250 127 260 235
257 43 101 127 235
258 57 19 81 95
259 65 43 75 110
260 106 155 253 337
261 204 291 359 371
262 130 65 248 331
263 308 197 38 288
264 143 92 280 265
265 53 73 130 408
266 129 86 253 284
267 217 48 316 353
268 157 253 284 337
269 73 258 346 272
270 117 64 299 345
271 105 148 184 229
272 54 57 210 355
273 64 117 220 323
274 21 52 219 250
275 213 195 214 297
276 188 44 340 377
277 71 95 208 279
278 59 113 183 222
279 104 144 213 295
280 18 163 237 249
281 133 20 372 379
282 44 169 340 277
283 286 341 363 280
284 109 123 149 225
285 402 365 261 409
286 221 27 244 280
287 28 83 215 294
288 32 151 162 323
289 259 27 290 361
290 280 265 367 383
291 73 32 101 130
292 410 362 403 107
293 26 55 94 80
294 31 75 181 187
295 172 114 181 187
296 309 186 382 371
297 31 52 75 53
298 35 123 178 358
299 43 81 140 152
300 101 43 130 152
301 118 20 379 372
302 109 48 217 353
303 30 277 290 312
304 147 323 117 345
305 182 50 237 249
306 26 72 77 239
307 45 267 321 398
308 249 41 336 374
309 26 55 89 94
310 126 104 144 213
311 156 185 332 396
312 54 57 137 210
313 77 94 217 225
314 120 129 253 268
315 107 82 136 212
316 120 76 381 129
317 265 92 280 286
318 104 213 292 297
319 288 402 18 349
320 188 82 340 351
321 82 165 212 351
322 232 276 305 329
323 88 319 340 351
324 165 29 212 362
325 94 217 225 256
326 86 129 253 381
327 394 195 208 194
328 35 208 389 394
329 327 248 331 407
330 10 66 67 150
331 211 220 323 372
332 7 326 354 382
333 101 32 159 339
334 233 41 269 391
335 115 58 202 275
336 197 317 395 411
337 102 1 119 185
338 191 104 195 283
339 93 125 147 190
340 183 59 276 368
341 105 184 227 229
342 271 344 380 404
343 165 50 182 269
344 127 258 101 73
345 48 109 217 256
346 187 114 247 275
347 207 91 322 374
348 77 149 225 239
349 125 165 212 269
350 108 49 203 328
351 88 39 190 303
352 187 167 247 170
353 32 130 331 339
354 266 310 128 90
355 112 113 137 183
356 108 110 172 250
357 207 14 343 369
358 68 160 316 353
359 309 186 204 373
360 151 336 357 395
361 170 65 248 408
362 149 29 153 237
363 67 61 89 385
364 45 133 220 321
365 182 50 249 269
366 57 123 188 358
367 39 152 263 390
368 35 109 123 149
369 81 43 85 235
370 9 128 158 228
371 50 125 135 162
372 82 277 313 340
373 147 32 162 323
374 202 65 205 327
375 27 341 290 280
376 147 32 323 345
377 60 16 193 200
378 19 81 95 196
379 304 34 308 409
380 255 252 314 325
381 175 364 263 348
382 31 116 216 170
383 39 263 364 390
384 112 54 137 300
385 77 29 136 377
386 168 124 233 388
387 151 34 159 308
388 341 262 370 383
389 215 283 191 195
390 175 364 131 263
391 150 66 230 333
392 280 265 286 367
393 201 73 211 346
394 147 117 407 345
395 194 213 366 33
396 44 57 188 210
397 321 151 323 357
398 61 217 316 385
399 87 287 295 304
400 32 211 345 379
401 217 109 225 256
402 232 221 305 24
403 70 23 209 278
404 313 9 158 228
405 42 107 212 228
406 31 170 216 408
407 27 341 363 290
408 67 103 256 66
409 301 330 335 376
410 151 211 321 323
411 194 33 281 365
412 219 246 250 328
413 202 110 205 65
414 55 89 94 150
415 183 156 222 257
416 178 137 154 8
417 41 125 147 180
418 69 160 239 318
419 47 192 235 257
420 111 326 382 388
421 97 49 329 203
422 125 93 147 180
423 42 125 168 180
424 245 346 298 272
425 11 72 231 311
426 68 139 160 353
427 94 26 217 385
428 77 29 239 352
429 357 220 323 321
430 158 128 227 228
431 17 52 53 127
432 73 101 127 130
433 101 43 127 130
434 43 75 127 130
435 171 103 154 8
436 390 364 386 140
437 242 63 303 315
438 168 124 388 404
439 53 73 127 130
440 75 53 127 130
441 151 159 304 346
442 178 256 123 103
443 303 268 63 242
444 85 49 276 328
445 85 183 276 329
446 373 240 403 404
447 169 44 340 210
448 84 48 103 109
449 212 362 136 107
450 32 211 323 345
451 46 83 294 195
452 152 110 205 263
453 66 67 150 256
454 169 230 300 383
455 34 50 71 135
456 43 65 130 152
457 124 207 233 369
458 82 88 212 227
459 77 29 149 239
460 169 280 341 383
461 130 101 331 339
462 108 43 110 250
463 56 9 80 136
464 121 139 149 239
465 17 189 283 350
466 113 171 112 137
467 73 201 272 346
468 10 67 89 150
469 76 184 381 384
470 209 158 324 378
471 54 112 183 305
472 35 109 149 218
473 120 76 242 303
474 27 282 290 363
475 189 215 47 195
476 81 47 196 235
477 160 139 239 353
478 178 256 103 154
479 123 153 225 377
480 109 149 218 353
481 196 189 279 298
482 360 49 85 328
483 244 221 300 305
484 86 157 253 284
485 192 47 215 222
486 182 168 309 362
487 184 227 266 393
488 234 203 329 360
489 230 143 300 383
490 234 54 244 307
491 180 168 233 269
492 140 43 263 360
493 309 161 371 382
494 188 44 210 340
495 368 392 305 112
496 104 213 214 295
497 105 158 227 324
498 160 217 316 353
499 163 177 182 249
500 101 19 135 196
501 224 105 253 324
502 371 11 352 291
503 283 215 191 145
504 123 35 149 153
505 120 405 184 76
506 189 145 283 350
507 250 235 260 328
508 135 159 162 339
509 276 183 305 329
510 147 13 93 407
511 265 280 347 383
512 57 44 123 154
513 277 238 313 370
514 290 280 244 27
515 28 145 191 215
516 140 43 152 263
517 58 110 175 205
518 179 270 271 380
519 211 133 220 372
520 151 32 211 323
521 161 343 388 391
522 114 31 187 247
523 170 65 187 202
524 62 65 170 202
525 82 29 136 212
526 155 129 253 284
527 74 12 146 166
528 236 229 266 406
529 268 120 334 399
530 50 41 162 249
531 309 352 362 410
532 186 309 382 373
533 79 312 243 341
534 153 29 165 237
535 41 50 162 269
536 204 291 309 352
537 210 169 307 340
538 39 268 364 376
539 50 153 165 237
540 41 180 233 269
541 53 36 73 251
542 156 85 257 276
543 50 249 308 402
544 398 411 320 401
545 227 30 277 340
546 19 101 135 339
547 71 214 279 394
548 110 202 187 65
549 221 92 280 392
550 238 55 313 370
551 199 134 218 353
552 180 41 233 322
553 32 101 130 339
554 84 109 178 389
555 101 81 196 235
556 213 142 365 409
557 81 19 101 196
558 75 172 181 187
559 62 118 170 248
560 173 222 215 47
561 295 365 214 409
562 75 65 110 187
563 75 110 172 187
564 127 258 17 189
565 159 135 101 339
566 291 11 359 371
567 47 208 95 279
568 51 252 255 325
569 49 85 276 329
570 211 220 321 323
571 63 39 327 376
572 125 50 135 165
573 19 125 135 165
574 50 19 135 165
575 54 112 137 183
576 212 393 88 356
577 324 296 253 224
578 8 137 154 171
579 290 282 341 363
580 264 194 297 74
581 37 164 218 281
582 88 30 319 390
583 308 288 336 395
584 65 130 152 331
585 334 39 364 390
586 190 88 319 390
587 65 62 248 327
588 310 266 128 228
589 114 21 172 181
590 172 75 181 250
591 402 261 138 349
592 109 35 123 178
593 110 202 205 58
594 214 34 295 409
595 104 195 213 297
596 253 105 148 184
597 176 198 336 374
598 312 209 324 378
599 41 233 322 374
600 116 62 118 170
601 62 116 167 170
602 65 62 170 248
603 230 150 333 383
604 324 296 399 253
605 386 399 312 259
606 142 126 144 213
607 173 215 195 47
608 159 34 304 346
609 184 76 405 406
610 149 217 225 239
611 244 169 290 307
612 212 82 227 228
613 160 6 316 318
614 258 127 101 196
615 195 104 213 214
616 30 334 386 390
617 113 132 8 173
618 71 19 95 196
619 39 152 205 263
620 48 103 109 256
621 103 66 154 256
622 183 85 54 329
623 8 103 154 178
624 103 84 109 178
625 178 137 8 173
626 88 340 82 351
627 132 8 173 178
628 21 172 181 250
629 43 75 110 250
630 183 54 305 329
631 75 52 181 250
632 203 97 234 329
633 268 60 106 193
634 66 143 230 333
635 84 8 132 178
636 8 84 103 178
637 67 316 217 48
638 110 108 175 241
639 121 149 164 237
640 206 10 262 333
641 137 183 222 257
642 217 77 225 239
643 276 185 328 49
644 6 61 316 318
645 194 46 195 208
646 254 303 315 242
647 173 215 83 195
648 161 163 177 182
649 110 75 172 250
650 117 91 220 323
651 287 274 295 304
652 168 124 180 233
653 180 124 226 233
654 158 30 324 378
655 112 59 113 183
656 132 84 178 389
657 62 202 301 327
658 124 168 180 344
659 215 192 342 375
660 149 387 239 29
661 367 341 280 383
662 258 17 272 73
663 19 319 351 355
664 172 275 114 187
665 293 321 87 267
666 114 31 181 187
667 28 215 342 375
668 151 32 159 211
669 42 184 405 406
670 85 234 329 360
671 203 85 329 360
672 403 410 204 309
673 249 288 336 308
674 158 79 277 378
675 317 321 395 411
676 30 277 312 378
677 16 193 200 335
678 20 118 379 216
679 46 132 208 389
680 54 169 210 300
681 167 187 247 275
682 67 48 217 256
683 344 107 168 42
684 82 227 277 340
685 336 374 177 249
686 121 149 387 239
687 134 12 199 223
688 21 52 250 181
689 118 116 170 216
690 44 313 340 377
691 193 60 200 268
692 63 200 376 335
693 131 205 364 376
694 33 37 281 138
695 302 262 341 383
696 95 71 196 279
697 224 70 278 296
698 70 209 224 278
699 39 152 190 331
700 81 47 95 196
701 301 202 330 376
702 17 189 258 298
703 74 33 166 194
704 139 149 239 353
705 74 33 194 366
706 162 34 308 159
707 309 373 403 404
708 34 71 96 214
709 227 128 229 266
710 70 296 253 106
711 215 189 192 145
712 168 388 403 404
713 59 156 183 276
714 12 68 134 199
715 122 219 328 396
716 194 146 389 397
717 41 182 249 269
718 300 112 305 392
719 92 27 280 286
720 204 291 352 410
721 165 153 188 377
722 321 411 293 395
723 42 107 168 212
724 115 62 167 202
725 309 161 382 388
726 85 183 257 276
727 174 243 282 302
728 202 205 330 376
729 47 189 196 235
730 382 373 388 404
731 310 228 136 107
732 15 140 263 360
733 48 68 316 353
734 15 203 234 360
735 34 71 298 258
736 17 258 272 298
737 215 192 222 342
738 168 125 212 269
739 112 183 305 368
740 131 58 175 205
741 29 239 352 387
742 91 357 220 323
743 29 77 225 377
744 102 59 276 119
745 14 255 314 374
746 168 42 180 344
747 94 55 150 370
748 129 106 253 268
749 195 132 173 208
750 132 195 173 83
751 25 295 274 142
752 57 173 178 208
753 57 95 173 208
754 138 237 96 402
755 39 88 190 390
756 152 140 263 390
757 362 352 29 410
758 30 307 319 390
759 205 131 330 376
760 217 160 316 318
761 137 57 154 210
762 57 44 154 210
763 83 28 215 342
764 253 70 337 157
765 209 278 312 324
766 185 156 328 396
767 96 358 50 153
768 291 56 352 410
769 270 78 271 380
770 73 36 201 211
771 26 77 94 217
772 264 141 292 297
773 36 133 201 211
774 150 230 370 383
775 39 205 327 376
776 126 33 366 213
777 232 221 97 305
778 341 367 174 302
779 39 93 190 303
780 58 202 205 330
781 89 26 94 385
782 143 92 392 280
783 62 64 248 299
784 182 165 269 362
785 116 167 170 247
786 65 152 327 331
787 233 207 322 374
788 14 343 374 207
789 128 105 227 229
790 213 194 366 297
791 128 105 158 227
792 15 140 234 386
793 234 244 361 386
794 67 89 94 217
795 150 262 333 383
796 67 316 61 217
797 91 314 357 374
798 177 161 182 391
799 294 264 297 141
800 265 347 367 383
801 137 230 210 154
802 326 7 354 373
803 45 372 220 133
804 321 151 357 395
805 148 86 381 384
806 113 137 183 222
807 137 113 173 222
808 83 195 215 294
809 312 282 341 290
810 71 34 298 214
811 127 189 196 258
812 135 34 159 258
813 71 34 135 258
814 110 202 58 187
815 46 83 195 132
816 24 221 305 392
817 145 122 192 375
818 91 117 322 323
819 123 44 188 377
820 29 149 153 225
821 29 77 149 225
822 156 192 222 257
823 248 32 345 379
824 308 34 402 409
825 54 81 85 257
826 117 147 407 13
827 30 158 277 378
828 79 312 277 378
829 274 295 304 409
830 85 81 235 257
831 137 54 183 257
832 156 85 235 257
833 57 54 137 257
834 54 57 81 257
835 173 137 222 257
836 192 47 222 257
837 47 81 95 257
838 50 96 153 237
839 34 162 50 135
840 110 175 205 263
841 288 402 38 308
842 169 44 210 230
843 44 154 210 230
844 93 39 190 331
845 194 214 365 394
846 175 110 241 263
847 137 230 300 210
848 230 137 171 154
849 156 85 276 328
850 43 85 235 328
851 261 349 409 38
852 213 194 214 365
853 343 369 388 391
854 46 84 389 146
855 150 55 262 370
856 299 248 327 407
857 61 67 217 385
858 184 148 381 384
859 124 207 226 233
860 147 162 322 323
861 76 179 405 406
862 124 180 289 344
863 42 125 180 356
864 93 125 190 356
865 125 93 180 356
866 97 15 203 234
867 88 82 212 351
868 202 115 301 306
869 71 135 196 258
870 213 292 297 366
871 234 97 244 329
872 258 127 17 73
873 135 101 196 258
874 90 344 236 266
875 74 194 297 366
876 5 74 264 366
877 164 149 218 237
878 149 35 218 237
879 153 50 165 358
880 207 226 233 322
881 191 28 215 294
882 253 155 284 337
883 18 163 164 237
884 163 121 164 237
885 80 94 136 313
886 194 213 214 297
887 46 194 195 297
888 195 194 214 297
889 149 121 387 237
890 143 112 300 392
891 139 121 231 239
892 160 139 231 239
893 69 26 318 239
894 197 308 38 304
895 36 17 73 272
896 136 82 313 377
897 188 19 351 355
898 251 216 379 408
899 57 188 210 355
900 149 109 225 353
901 309 352 371 387
902 228 310 136 9
903 221 280 300 392
904 127 250 260 52
905 151 304 321 346
906 97 232 305 329
907 54 234 244 329
908 88 190 319 351
909 344 107 42 266
910 107 90 266 403
911 138 237 281 96
912 96 35 237 281
913 175 364 348 131
914 115 62 202 301
915 27 97 221 244
916 29 165 182 362
917 159 151 211 346
918 248 62 299 327
919 363 367 286 174
920 116 0 167 247
921 219 250 260 328
922 146 223 389 397
923 100 1 185 332
924 94 67 217 256
925 73 36 379 408
926 309 186 371 204
927 120 303 334 393
928 334 39 268 364
929 166 194 281 397
930 169 54 244 300
931 210 169 230 300
932 84 397 389 223
933 143 171 230 300
934 85 156 235 328
935 62 64 118 248
936 137 54 210 300
937 184 148 384 406
938 112 137 171 300
939 32 147 331 345
940 163 18 177 249
941 179 271 344 380
942 326 382 388 404
943 67 89 217 385
944 42 180 344 405
945 298 71 214 279
946 195 394 214 194
947 27 280 286 363
948 125 41 162 269
949 50 41 249 269
950 109 35 178 389
951 50 125 162 269
952 106 129 155 60
953 163 121 237 387
954 157 70 224 253
955 57 19 95 358
956 129 106 268 60
957 41 125 180 269
958 212 168 269 362
959 172 275 187 58
960 129 106 155 253
961 94 44 150 256
962 150 44 230 256
963 66 150 230 256
964 154 66 230 256
965 44 154 230 256
966 123 44 225 256
967 44 123 154 256
968 67 103 48 256
969 57 137 173 257
970 95 57 173 257
971 81 57 95 257
972 47 173 222 257
973 47 95 173 257
974 195 191 215 294
975 36 73 251 408
976 58 187 202 275
977 151 308 336 395
978 196 71 258 279
979 336 176 357 395
980 19 165 188 351
981 293 197 304 395
982 293 304 321 395
983 232 49 276 329
984 244 97 305 329
985 125 42 212 356
986 165 82 188 351
987 340 88 82 227
988 47 95 196 279
989 9 136 228 313
990 161 182 309 387
991 323 147 117 322
992 233 168 388 391
993 119 156 332 400
994 30 312 324 378
995 55 10 150 262
996 268 120 303 334
997 9 80 136 313
998 163 161 311 387
999 97 234 244 361
1000 110 360 241 263
1001 161 309 371 387
1002 15 175 241 263
1003 120 242 268 303
1004 147 125 162 339
1005 213 126 292 366
1006 301 63 327 376
1007 42 107 228 266
1008 227 42 228 266
1009 128 227 228 266
1010 184 227 229 266
1011 281 194 365 394
1012 147 93 331 407
1013 147 331 345 407
1014 118 248 379 408
1015 128 90 236 266
1016 229 128 236 266
1017 407 117 299 345
1018 133 201 211 321
1019 99 268 334 399
1020 19 57 188 358
1021 234 140 307 386
1022 34 151 159 304
1023 83 215 222 342
1024 32 130 248 331
1025 56 77 352 410
1026 200 129 242 268
1027 63 200 242 268
1028 99 106 193 268
1029 152 39 327 331
1030 217 149 225 353
1031 32 73 379 408
1032 407 117 13 299
1033 130 32 248 408
1034 248 32 379 408
1035 73 32 130 408
1036 64 117 323 345
1037 1 119 185 332
1038 343 207 369 391
1039 11 371 352 311
1040 54 244 300 305
1041 48 109 134 353
1042 0 167 247 275
1043 114 0 247 275
1044 0 115 167 275
1045 151 162 322 336
1046 77 94 225 377
1047 94 77 136 377
1048 59 119 156 276
1049 185 276 328 156
1050 301 202 306 330
1051 156 119 185 276
1052 119 102 185 276
1053 102 49 185 276
1054 102 59 368 276
1055 363 367 341 286
1056 344 107 266 403
1057 291 309 352 371
1058 186 204 359 371
1059 30 158 227 277
1060 159 32 162 339
1061 34 151 304 308
1062 93 289 13 180
1063 82 227 228 277
1064 227 158 228 277
1065 252 14 255 314
1066 156 192 342 222
1067 407 303 39 315
1068 291 204 309 371
1069 158 79 238 277
1070 394 195 279 208
1071 9 313 158 238
1072 288 176 336 395
1073 189 47 196 279
1074 19 101 190 319
1075 92 27 221 280
1076 296 70 253 224
1077 148 22 384 406
1078 184 120 324 393
1079 286 265 338 367
1080 66 143 171 230
1081 307 30 386 390
1082 218 164 237 281
1083 30 88 334 390
1084 88 39 303 390
1085 37 138 164 281
1086 33 37 166 281
1087 127 250 75 43
1088 249 288 308 402
1089 283 215 189 195
1090 101 152 190 319
1091 362 410 403 309
1092 101 19 190 339
1093 352 311 371 387
1094 249 162 308 336
1095 107 168 362 403
1096 123 153 188 358
1097 162 41 322 336
1098 200 63 376 268
1099 274 287 293 304
1100 39 63 268 376
1101 176 177 249 336
1102 2 92 265 286
1103 407 303 93 39
1104 25 273 274 287
1105 18 177 249 288
1106 120 393 405 303
1107 295 87 304 346
1108 179 76 384 406
1109 22 179 384 406
1110 148 184 229 406
1111 180 13 226 289
1112 266 42 344 406
1113 64 248 299 345
1114 179 270 380 406
1115 229 184 266 406
1116 344 42 405 406
1117 358 135 71 50
1118 407 303 315 93
1119 165 19 188 358
1120 44 123 225 377
1121 161 163 182 387
1122 220 320 357 325
1123 151 159 162 308
1124 41 162 249 336
1125 259 27 282 290
1126 403 410 107 310
1127 243 23 282 312
1128 197 308 395 288
1129 321 87 346 304
1130 73 36 211 379
1131 20 36 379 133
1132 273 274 287 293
1133 311 161 371 387
1134 40 197 273 293
1135 273 197 274 293
1136 141 28 191 294
1137 112 54 300 305
1138 25 295 144 287
1139 292 264 297 366
1140 144 142 213 295
1141 295 25 274 287
1142 227 42 266 393
1143 383 333 143 347
1144 264 74 297 366
1145 162 151 308 336
1146 144 104 245 295
1147 144 245 287 295
1148 245 87 287 295
1149 346 245 295 87
1150 136 56 77 80
1151 77 29 352 410
1152 46 195 294 297
1153 194 74 46 146
1154 182 237 165 29
1155 104 191 195 297
1156 191 141 294 297
1157 195 191 294 297
1158 264 194 46 297
1159 141 104 292 297
1160 294 264 46 297
1161 264 194 74 46
1162 104 141 191 297
1163 214 104 295 298
1164 104 298 195 283
1165 195 189 283 298
1166 298 104 195 214
1167 195 214 279 298
1168 279 189 195 298
1169 189 279 195 47
1170 222 173 215 83
1171 245 17 272 298
1172 17 298 283 189
1173 245 104 283 298
1174 244 221 280 300
1175 365 402 261 138
1176 143 112 171 300
1177 303 88 334 393
1178 343 14 374 198
1179 147 32 331 339
1180 268 303 63 39
1181 227 184 324 393
1182 156 59 222 342
1183 59 83 113 222
1184 190 147 331 339
1185 32 147 162 339
1186 101 190 331 339
1187 125 147 190 339
1188 71 208 358 394
1189 27 341 280 363
1190 344 179 380 406
1191 303 254 315 93
1192 344 236 266 406
1193 242 76 254 303
1194 158 30 227 324
1195 112 59 183 368
1196 33 138 281 365
1197 143 265 280 347
1198 197 38 274 304
1199 287 87 293 304
1200 226 180 233 322
1201 212 88 351 356
1202 277 30 290 307
1203 169 277 290 307
1204 32 73 211 379
1205 99 386 285 399
1206 209 224 278 324
1207 367 341 383 302
1208 364 386 99 334
1209 243 282 302 341
1210 226 147 180 322
1211 120 253 324 399
1212 298 71 279 258
1213 162 50 249 308
1214 145 189 192 350
1215 263 131 175 205
1216 134 109 218 353
1217 140 15 234 360
1218 62 65 202 327
1219 388 309 403 404
1220 352 231 239 72
1221 121 231 239 311
1222 353 199 68 139
1223 149 139 218 353
1224 68 48 134 353
1225 139 199 218 353
1226 149 217 239 353
1227 140 81 234 355
1228 64 118 379 372
1229 320 220 357 321
1230 36 133 211 379
1231 259 23 278 312
1232 209 23 243 312
1233 16 301 330 335
1234 211 133 372 379
1235 23 259 282 312
1236 95 208 358 71
1237 80 9 238 313
1238 55 80 238 313
1239 6 68 160 316
1240 41 182 269 391
1241 233 207 374 391
1242 169 280 290 341
1243 146 46 194 389
1244 98 28 342 375
1245 147 117 226 13
1246 208 194 389 394
1247 226 147 13 180
1248 41 147 162 322
1249 123 35 153 358
1250 120 324 334 399
1251 397 109 35 218
1252 16 193 335 376
1253 93 254 289 405
1254 133 211 220 321
1255 312 79 243 378
1256 136 56 310 410
1257 160 69 239 231
1258 277 169 290 341
1259 190 356 303 93
1260 81 140 152 319
1261 101 81 152 319
1262 19 81 101 319
1263 314 255 325 357
1264 277 290 312 341
1265 214 96 365 394
1266 208 71 279 394
1267 50 34 96 402
1268 402 288 18 249
1269 319 307 340 355
1270 76 120 381 184
1271 55 94 313 370
1272 304 151 321 395
1273 316 217 318 385
1274 290 259 361 386
1275 122 219 260 328
1276 396 246 185 100
1277 321 293 87 304
1278 45 220 320 321
1279 133 45 267 321
1280 201 133 267 321
1281 57 54 81 355
1282 135 159 101 258
1283 91 117 226 322
1284 117 147 226 322
1285 207 91 226 322
1286 123 57 178 358
1287 145 192 215 375
1288 253 324 184 120
1289 342 400 119 98
1290 105 224 253 157
1291 320 398 401 412
1292 342 98 375 400
1293 158 105 209 324
1294 209 105 224 324
1295 400 342 119 156
1296 108 49 328 246
1297 152 39 205 327
1298 65 152 205 327
1299 1 98 119 332
1300 166 146 194 397
1301 36 251 379 408
1302 109 397 35 389
1303 63 62 301 327
1304 62 63 299 327
1305 299 63 315 327
1306 360 49 203 85
1307 156 122 192 328
1308 156 192 235 328
1309 192 122 260 328
1310 235 192 260 328
1311 12 146 166 397
1312 360 49 328 203
1313 31 116 170 247
1314 131 58 205 330
1315 58 115 202 330
1316 202 115 306 330
1317 16 301 306 330
1318 317 320 411 412
1319 358 96 50 71
1320 73 53 251 408
1321 65 130 248 408
1322 277 30 307 340
1323 130 101 152 331
1324 211 151 321 346
1325 73 159 211 346
1326 201 211 321 346
1327 249 41 374 391
1328 121 163 311 387
1329 182 29 362 387
1330 352 309 362 387
1331 309 204 352 410
1332 96 35 281 394
1333 394 358 96 35
1334 162 34 159 135
1335 398 4 401 412
1336 168 309 362 403
1337 309 182 362 387
1338 254 93 303 405
1339 29 182 237 387
1340 387 239 311 121
1341 192 156 375 400
1342 98 119 332 400
1343 122 192 375 400
1344 19 71 95 358
1345 151 357 322 323
1346 50 19 165 358
1347 205 39 364 376
1348 153 165 188 358
1349 177 176 198 336
1350 156 122 328 396
1351 208 95 358 57
1352 88 30 227 340
1353 303 93 356 405
1354 307 30 319 340
1355 30 88 319 340
1356 124 369 388 404
1357 268 99 334 364
1358 79 243 302 341
1359 262 79 302 341
1360 205 39 263 364
1361 263 140 348 364
1362 44 150 230 370
1363 132 178 208 389
1364 307 210 340 355
1365 197 308 304 395
1366 402 288 38 349
1367 44 277 313 370
1368 207 343 374 391
1369 81 140 319 355
1370 44 94 150 370
1371 344 236 406 380
1372 78 271 380 404
1373 344 168 403 404
1374 124 179 271 344
1375 179 124 289 344
1376 184 148 253 381
1377 120 184 253 381
1378 34 295 304 346
1379 34 159 258 346
1380 295 34 298 346
1381 258 272 298 346
1382 34 258 298 346
1383 201 87 272 346
1384 87 201 321 346
1385 295 365 213 214
1386 263 131 205 364
1387 140 15 263 348
1388 138 96 281 365
1389 410 403 204 310
1390 309 168 388 403
1391 204 309 373 403
1392 17 52 127 350
1393 127 52 260 350
1394 122 192 260 350
1395 122 145 192 350
1396 192 189 235 350
1397 189 127 235 350
1398 235 127 260 350
1399 192 235 260 350
1400 125 19 190 351
1401 351 190 356 88
1402 356 190 303 88
1403 258 73 346 159
1404 19 125 165 351
1405 165 125 212 351
1406 125 212 351 356
1407 364 376 193 131
1408 394 195 214 279
1409 239 387 311 352
1410 352 231 72 311
1411 72 77 239 352
1412 72 56 77 352
1413 11 72 311 352
1414 398 411 401 267
1415 317 321 411 320
1416 317 321 320 357
1417 59 83 222 342
1418 398 411 267 320
1419 321 317 395 357
1420 233 124 369 388
1421 373 309 382 388
1422 56 72 291 352
1423 72 11 291 352
1424 320 267 321 411
1425 255 176 336 374
1426 210 188 340 355
1427 340 188 351 355
1428 234 54 307 355
1429 140 234 307 355
1430 57 19 188 355
1431 19 57 81 355
1432 27 97 244 361
1433 81 54 85 355
1434 85 54 234 355
1435 176 255 336 357
1436 255 51 325 357
1437 185 100 332 396
1438 317 325 51 357
1439 79 312 341 277
1440 322 91 323 357
1441 28 145 215 375
1442 219 246 328 396
1443 219 100 246 396
1444 281 194 389 397
1445 107 344 168 403
1446 35 397 281 389
1447 35 397 218 281
1448 246 396 185 328
1449 255 176 317 357
1450 51 255 317 357
1451 317 325 320 51
1452 91 314 325 357
1453 178 57 208 358
1454 151 304 308 395
1455 43 108 110 360
1456 360 110 241 108
1457 43 110 263 360
1458 81 43 140 360
1459 43 81 85 360
1460 360 203 328 108
1461 43 85 328 360
1462 81 140 234 360
1463 234 81 85 355
1464 108 43 250 360
1465 250 43 328 360
1466 108 250 328 360
1467 203 15 241 360
1468 108 203 241 360
1469 367 341 174 363
1470 317 325 357 320
1471 174 341 282 363
1472 207 233 369 391
1473 153 123 188 377
1474 39 334 268 303
1475 358 394 96 71
1476 193 99 268 364
1477 138 237 18 164
1478 29 153 165 377
1479 94 136 313 377
1480 44 94 313 377
1481 99 131 348 364
1482 285 99 348 364
1483 131 99 193 364
1484 204 56 291 410
1485 122 332 156 400
1486 136 362 29 410
1487 56 136 77 410
1488 138 33 261 365
1489 365 33 142 213
1490 126 5 292 366
1491 93 39 331 407
1492 61 316 318 385
1493 315 13 93 254
1494 22 86 148 384
1495 265 206 338 367
1496 206 265 347 367
1497 234 81 360 85
1498 194 46 208 389
1499 296 278 324 399
1500 347 206 367 383
1501 230 169 370 383
1502 280 143 347 383
1503 14 111 343 369
1504 79 238 277 370
1505 44 169 277 370
1506 169 44 230 370
1507 277 169 341 370
1508 79 277 341 370
1509 262 79 341 370
1510 55 238 262 370
1511 238 79 262 370
1512 358 135 19 71
1513 344 90 236 380
1514 217 26 318 385
1515 315 299 327 407
1516 93 147 331 190
1517 253 148 86 381
1518 262 150 370 383
1519 169 341 370 383
1520 78 7 326 373
1521 336 322 357 374
1522 322 91 357 374
1523 113 171 137 8
1524 200 376 335 193
1525 120 405 76 303
1526 24 92 221 392
1527 88 303 356 393
1528 184 42 266 406
1529 167 187 202 170
1530 198 176 255 374
1531 14 198 255 374
1532 207 14 314 374
1533 91 207 314 374
1534 221 300 305 392
1535 330 16 335 376
1536 63 301 335 376
1537 131 193 330 376
1538 193 16 330 376
1539 82 188 340 377
1540 313 82 340 377
1541 82 165 188 377
1542 82 29 165 377
1543 29 82 136 377
1544 64 248 345 379
1545 34 96 402 409
1546 274 142 295 409
1547 38 304 308 409
1548 372 379 323 211
1549 33 365 142 261
1550 38 308 402 409
1551 142 213 295 409
1552 69 26 239 72
1553 323 64 345 379
1554 211 323 345 379
1555 84 48 109 134
1556 216 36 251 379
1557 20 36 216 379
1558 148 253 86 157
1559 278 312 324 399
1560 253 120 268 399
1561 278 296 324 224
1562 320 45 321 398
1563 186 354 373 382
1564 7 111 326 382
1565 280 169 300 383
1566 143 280 300 383
1567 367 341 286 280
1568 365 402 96 409
1569 206 262 367 383
1570 333 206 347 383
1571 333 383 143 230
1572 262 302 367 383
1573 30 290 307 386
1574 244 290 361 386
1575 290 244 307 386
1576 295 365 409 213
1577 285 386 364 348
1578 140 15 348 386
1579 174 341 302 282
1580 399 30 386 312
1581 376 364 193 268
1582 140 348 364 386
1583 364 390 386 334
1584 290 30 312 386
1585 259 290 312 386
1586 285 15 361 386
1587 259 285 361 386
1588 15 285 348 386
1589 280 143 300 392
1590 303 356 393 405
1591 369 326 388 404
1592 93 289 180 405
1593 326 78 373 404
1594 240 380 403 404
1595 343 111 382 388
1596 289 179 344 405
1597 326 111 369 388
1598 161 343 382 388
1599 331 248 345 407
1600 46 84 132 389
1601 84 146 223 389
1602 58 108 110 172
1603 152 39 190 390
1604 152 190 319 390
1605 307 319 140 355
1606 319 307 140 390
1607 96 358 153 35
1608 177 249 374 391
1609 182 41 249 391
1610 177 182 249 391
1611 168 233 269 391
1612 182 168 269 391
1613 182 161 309 391
1614 309 161 388 391
1615 168 182 309 391
1616 168 309 388 391
1617 161 177 343 391
1618 177 198 343 391
1619 374 336 177 198
1620 184 227 324 105
1621 324 120 334 393
1622 393 30 324 227
1623 30 393 324 334
1624 88 30 334 393
1625 30 88 227 393
1626 393 212 88 227
1627 35 208 358 178
1628 42 212 356 393
1629 212 42 227 393
1630 84 397 109 389
1631 208 35 358 394
1632 237 138 281 164
1633 379 372 323 64
1634 176 317 357 395
1635 411 321 293 267
1636 197 176 288 395
1637 176 197 317 395
1638 320 401 411 412
1639 317 51 320 412
1640 397 134 109 218
1641 199 134 223 397
1642 134 199 218 397
1643 12 199 223 397
1644 37 166 281 397
1645 199 37 218 397
1646 218 37 281 397
1647 146 12 223 397
1648 12 166 199 397
1649 166 37 199 397
1650 253 106 296 399
1651 399 386 285 259
1652 278 259 312 399
1653 99 386 399 334
1654 30 399 386 334
1655 312 30 324 399
1656 324 30 334 399
1657 106 253 268 399
1658 99 106 268 399
1659 99 278 296 399
1660 99 259 278 399
1661 106 99 296 399
1662 259 99 285 399
1663 204 56 410 310
1664 29 77 136 410
1665 50 96 237 402
1666 237 18 249 402
1667 50 237 249 402
1668 50 308 34 402
1669 352 362 29 387
1670 13 315 93 407
1671 237 138 18 402
1672 136 362 410 107
1673 107 136 310 410
1674 18 138 349 402
1675 39 327 331 407
1676 76 254 303 405
1677 180 289 344 405
1678 356 42 393 405
1679 90 240 380 403
1680 90 204 240 403
1681 204 90 310 403
1682 240 204 373 403
1683 380 344 403 404
1684 271 124 344 404
1685 124 168 344 404
1686 271 326 369 404
1687 271 78 326 404
1688 78 240 373 404
1689 124 271 369 404
1690 240 78 380 404
1691 393 120 405 184
1692 254 76 289 405
1693 254 93 289 13
1694 76 179 289 405
1695 22 148 236 406
1696 22 236 270 406
1697 179 22 270 406
1698 270 236 380 406
1699 148 229 236 406
1700 327 315 39 63
1701 208 47 95 173
1702 315 327 39 407
1703 13 299 315 407
1704 386 364 99 285
1705 118 170 248 408
1706 75 31 251 408
1707 53 75 251 408
1708 75 53 130 408
1709 65 75 130 408
1710 170 31 187 408
1711 65 170 187 408
1712 75 65 187 408
1713 31 75 187 408
1714 31 216 251 408
1715 365 402 138 96
1716 349 38 402 409
1717 142 38 261 409
1718 38 142 274 409
1719 402 261 349 409
1720 40 197 293 411
1721 293 197 395 411
1722 282 312 341 243
1723 40 267 401 411
1724 267 40 293 411
