# This file was created by meshio v5.3.5
1046 3 0 0
0 0.0000000000000000e+00 0.0000000000000000e+00 0.0000000000000000e+00
1 0.0000000000000000e+00 0.0000000000000000e+00 1.0000000000000000e+00
2 0.0000000000000000e+00 1.0000000000000000e+00 0.0000000000000000e+00
3 0.0000000000000000e+00 1.0000000000000000e+00 1.0000000000000000e+00
4 0.0000000000000000e+00 2.8247909913987834e-01 6.6804412107719913e-01
5 0.0000000000000000e+00 8.8889186950929078e-01 6.5922772026874010e-01
6 0.0000000000000000e+00 4.0575478525877523e-01 8.3363113935425148e-01
7 0.0000000000000000e+00 4.5996191341823656e-01 1.0000000000000000e+00
8 0.0000000000000000e+00 6.7549081722676074e-01 8.2058760738895975e-01
9 0.0000000000000000e+00 1.0000000000000000e+00 0.0000000000000000e+00
10 0.0000000000000000e+00 1.1026887566982863e-01 8.5052688460060888e-01
11 0.0000000000000000e+00 2.5626249230010600e-01 1.7825271613483162e-01
12 0.0000000000000000e+00 6.1037541808663565e-01 4.2189715556299678e-01
13 0.0000000000000000e+00 7.3502252109769817e-01 7.5667105982665106e-01
14 0.0000000000000000e+00 4.4217783125805754e-01 2.5049778236064763e-01
15 0.0000000000000000e+00 2.8919225014483774e-01 3.1226227399574041e-01
16 0.0000000000000000e+00 1.8004723905219513e-01 5.3027800576986939e-01
17 0.0000000000000000e+00 0.0000000000000000e+00 1.0000000000000000e+00
18 0.0000000000000000e+00 1.0000000000000000e+00 1.0000000000000000e+00
19 0.0000000000000000e+00 0.0000000000000000e+00 4.1592048982886554e-01
20 0.0000000000000000e+00 8.7194499983903406e-01 8.4652840055916334e-01
21 0.0000000000000000e+00 0.0000000000000000e+00 7.1807155408392509e-01
22 0.0000000000000000e+00 8.0960490481182412e-01 1.0000000000000000e+00
23 0.0000000000000000e+00 2.1291812438007418e-01 0.0000000000000000e+00
24 0.0000000000000000e+00 4.6088125908150612e-01 1.2720335448997902e-01
25 0.0000000000000000e+00 8.6245053119697035e-01 3.9145227197940702e-01
26 0.0000000000000000e+00 4.2536331738797839e-01 4.2162749157041729e-01
27 0.0000000000000000e+00 0.0000000000000000e+00 5.4494829971376491e-01
28 0.0000000000000000e+00 1.0000000000000000e+00 3.7366770759960566e-01
29 0.0000000000000000e+00 1.0000000000000000e+00 1.0000000000000000e+00
30 0.0000000000000000e+00 7.4860812241900043e-01 0.0000000000000000e+00
31 0.0000000000000000e+00 7.2402152384730567e-01 2.6857771357649313e-01
32 0.0000000000000000e+00 8.7910405948044423e-01 5.5374173353581202e-01
33 0.0000000000000000e+00 7.1862820196973398e-01 1.0000000000000000e+00
34 0.0000000000000000e+00 3.7611409583442529e-01 3.0824159404250567e-01
35 0.0000000000000000e+00 7.8130887807959071e-01 6.4082092887777153e-01
36 0.0000000000000000e+00 6.1181534664909554e-01 0.0000000000000000e+00
37 0.0000000000000000e+00 2.9195038730576683e-01 8.2320152682547909e-01
38 0.0000000000000000e+00 7.5186512087672208e-01 5.5860841573369624e-01
39 0.0000000000000000e+00 6.1638995863570700e-01 5.4257927246678495e-01
40 0.0000000000000000e+00 5.4964788683937660e-01 8.4927494640006573e-01
41 0.0000000000000000e+00 3.4122793159614945e-01 1.0000000000000000e+00
42 0.0000000000000000e+00 0.0000000000000000e+00 3.0447619388714287e-01
43 0.0000000000000000e+00 7.2876778742476700e-01 4.6771564140609223e-01
44 0.0000000000000000e+00 5.0505463257665373e-01 7.6440351629519787e-01
45 0.0000000000000000e+00 5.1572540004891088e-01 3.7646524732463915e-01
46 0.0000000000000000e+00 2.8555507111581402e-01 5.2032652997512885e-01
47 0.0000000000000000e+00 0.0000000000000000e+00 2.4006938809622058e-01
48 0.0000000000000000e+00 8.6601778869961787e-01 7.5274638524186510e-01
49 0.0000000000000000e+00 1.0289782784083787e-01 4.9104030343050831e-01
50 0.0000000000000000e+00 4.9911469594461777e-01 0.0000000000000000e+00
51 0.0000000000000000e+00 1.0000000000000000e+00 7.3327026029023612e-01
52 0.0000000000000000e+00 4.0897943705470013e-01 6.7571659357461578e-01
53 0.0000000000000000e+00 6.8515532741998975e-01 1.7521493298604304e-01
54 0.0000000000000000e+00 6.8357098457266730e-01 1.0000000000000000e+00
55 0.0000000000000000e+00 3.6511856963461503e-01 2.2738272669315746e-01
56 0.0000000000000000e+00 3.9038235971166446e-01 5.5390515432562759e-01
57 0.0000000000000000e+00 7.9316890728152933e-01 8.1154604421160448e-01
58 0.0000000000000000e+00 7.0758239522383337e-01 3.6772486631042173e-01
59 0.0000000000000000e+00 8.9084784291278885e-01 2.9992221858616053e-01
60 0.0000000000000000e+00 5.2133156320872009e-01 1.0000000000000000e+00
61 0.0000000000000000e+00 4.9375496883026898e-01 5.3413591772355529e-01
62 0.0000000000000000e+00 8.2663772716040229e-01 1.5581813390890881e-01
63 0.0000000000000000e+00 0.0000000000000000e+00 8.6162151703934542e-01
64 0.0000000000000000e+00 0.0000000000000000e+00 2.2050836368995583e-01
65 0.0000000000000000e+00 3.6722781140301808e-01 1.4028424462251399e-01
66 0.0000000000000000e+00 5.2563086152156002e-01 6.6194474740252562e-01
67 0.0000000000000000e+00 3.5713624071514605e-01 0.0000000000000000e+00
68 0.0000000000000000e+00 1.0000000000000000e+00 5.0866726447138488e-01
69 0.0000000000000000e+00 6.6895538279761368e-01 6.3815844924400411e-01
70 0.0000000000000000e+00 2.7921676514396754e-01 4.0122688594131833e-01
71 0.0000000000000000e+00 0.0000000000000000e+00 1.0000000000000000e+00
72 0.0000000000000000e+00 5.3861085725775326e-01 1.2768629447627938e-01
73 0.0000000000000000e+00 5.9266035635545444e-01 7.3744362367932603e-01
74 0.0000000000000000e+00 1.9908012919237966e-01 6.2161457301029044e-01
75 0.0000000000000000e+00 4.0766152307843684e-01 1.0000000000000000e+00
76 0.0000000000000000e+00 8.0003841563314460e-01 4.2834865660355320e-01
77 0.0000000000000000e+00 8.1854582453772329e-01 2.5220590280340677e-01
78 0.0000000000000000e+00 1.5394051585649324e-01 7.1993092229647482e-01
79 0.0000000000000000e+00 6.0727249827255436e-01 3.3111308038741111e-01
80 0.0000000000000000e+00 1.0000000000000000e+00 5.9966127422182036e-01
81 0.0000000000000000e+00 1.8799121835703558e-01 8.5480386305944989e-01
82 0.0000000000000000e+00 2.5980652633396178e-01 2.4746027515999314e-01
83 0.0000000000000000e+00 2.0974264036299076e-01 3.3038867405022054e-01
84 0.0000000000000000e+00 2.0261143778564877e-01 4.3647754439627762e-01
85 0.0000000000000000e+00 1.3005662453212824e-01 3.6839598111652161e-01
86 0.0000000000000000e+00 1.1903266693892550e-01 1.1564414214129305e-01
87 0.0000000000000000e+00 3.4550097163149418e-01 6.2558458800853023e-01
88 0.0000000000000000e+00 1.0000000000000000e+00 2.3057752368793388e-01
89 0.0000000000000000e+00 2.6547278307852129e-01 7.5979811970225786e-01
90 0.0000000000000000e+00 0.0000000000000000e+00 7.5069417668163196e-01
91 0.0000000000000000e+00 1.0000000000000000e+00 1.3740359458240506e-01
92 0.0000000000000000e+00 5.9936592935618027e-01 1.0000000000000000e+00
93 0.0000000000000000e+00 3.5561154979986015e-01 4.5931916364117442e-01
94 0.0000000000000000e+00 0.0000000000000000e+00 0.0000000000000000e+00
95 0.0000000000000000e+00 1.0000000000000000e+00 8.5097552720162006e-01
96 0.0000000000000000e+00 1.0000000000000000e+00 4.4002146755419536e-01
97 0.0000000000000000e+00 4.8143202339266400e-01 1.9555091536936745e-01
98 0.0000000000000000e+00 1.7015323950445194e-01 1.8213314061159011e-01
99 0.0000000000000000e+00 3.7850962413497125e-01 7.4156597467808927e-01
100 0.0000000000000000e+00 2.6100135539590807e-01 1.0000000000000000e+00
101 0.0000000000000000e+00 7.5578297271488459e-01 7.2204905210899939e-01
102 0.0000000000000000e+00 1.0000000000000000e+00 1.1156653498162354e-01
103 0.0000000000000000e+00 7.2129231949908545e-01 8.2539530619442880e-01
104 0.0000000000000000e+00 4.2731690383705057e-01 8.6117340136157206e-01
105 0.0000000000000000e+00 1.0000000000000000e+00 1.0000000000000000e+00
106 0.0000000000000000e+00 4.3149985614749148e-01 3.6714169271414454e-01
107 0.0000000000000000e+00 1.5054083382927380e-01 0.0000000000000000e+00
108 0.0000000000000000e+00 4.9587268405547025e-01 4.4424805279979268e-01
109 0.0000000000000000e+00 0.0000000000000000e+00 1.0000000000000000e+00
110 0.0000000000000000e+00 1.0000000000000000e+00 7.9756292943592466e-01
111 0.0000000000000000e+00 7.9330301839882256e-01 0.0000000000000000e+00
112 0.0000000000000000e+00 6.6689074421009709e-01 7.6045545530502834e-01
113 0.0000000000000000e+00 1.0000000000000000e+00 0.0000000000000000e+00
114 0.0000000000000000e+00 2.8924347072121387e-01 0.0000000000000000e+00
115 0.0000000000000000e+00 7.1111570212172126e-01 0.0000000000000000e+00
116 0.0000000000000000e+00 8.2548523683496411e-01 8.7286782882657099e-01
117 0.0000000000000000e+00 0.0000000000000000e+00 6.4950016259304411e-01
118 0.0000000000000000e+00 5.6058555899124907e-01 2.5022868403793219e-01
119 0.0000000000000000e+00 8.7519380635980126e-01 4.0132563260222270e-01
120 0.0000000000000000e+00 7.7244636393252297e-01 4.9736660538698796e-01
121 0.0000000000000000e+00 4.6112244655200718e-01 7.7745181369444094e-01
122 0.0000000000000000e+00 0.0000000000000000e+00 5.4169162550635508e-01
123 0.0000000000000000e+00 5.6976451641025128e-01 8.1515538958254219e-01
124 0.0000000000000000e+00 5.8401866908683764e-01 0.0000000000000000e+00
125 0.0000000000000000e+00 7.5699253645099429e-01 1.0000000000000000e+00
126 1.0262502090712375e-01 1.7409676525861251e-01 1.0000000000000000e+00
127 1.0372373896595402e-01 8.6140964170246515e-01 5.5008413720529892e-01
128 1.0392564859515993e-01 1.3656431616469092e-01 5.2735502377120769e-01
129 1.0561865260465257e-01 5.2267018863662851e-01 5.8629975066275164e-01
130 1.0563618358016405e-01 0.0000000000000000e+00 7.7658972741523302e-01
131 1.0673853018154014e-01 2.5518928829294291e-01 5.0587031601723986e-01
132 1.0873832422839837e-01 4.7378134459043159e-01 1.0000000000000000e+00
133 1.0976709251203529e-01 1.0000000000000000e+00 2.8409066395758398e-01
134 1.1278505164427030e-01 4.2675812869949953e-01 6.2858300649502652e-01
135 1.1328968897607819e-01 7.0892761720930175e-01 2.9954799926527037e-01
136 1.1339190614797406e-01 4.6315622474366491e-01 0.0000000000000000e+00
137 1.1398161398145280e-01 2.0484860960944504e-01 1.0826192411722628e-01
138 1.1436782995917333e-01 3.1336539592129076e-01 2.0912786911199258e-01
139 1.1531582020805485e-01 1.0000000000000000e+00 3.6496185161232109e-01
140 1.1564064992328645e-01 5.9478680707594900e-01 4.8942148867007346e-01
141 1.1734511801066740e-01 5.8270910075050764e-01 3.8954117940841504e-01
142 1.1794360605973203e-01 2.5340770408785029e-01 8.5204286021352027e-01
143 1.1890227381150330e-01 7.5063102869422682e-01 6.1523954041927986e-01
144 1.1900669661641769e-01 0.0000000000000000e+00 2.2896516118718269e-01
145 1.2002895517045471e-01 8.7090871293284700e-01 6.3807749017940829e-01
146 1.2142997700353081e-01 8.6967095651371817e-01 7.2720785648184916e-01
147 1.2202990142527195e-01 6.4818009185034053e-01 5.6812294007472408e-01
148 1.2213964811521483e-01 0.0000000000000000e+00 1.4392301756272474e-01
149 1.2230704625445356e-01 2.9249733503885417e-01 3.3112505952220850e-01
150 1.2284997270335046e-01 0.0000000000000000e+00 3.9444942867192284e-01
151 1.2302379340810971e-01 6.4095771619384134e-01 2.2771072292159716e-01
152 1.2452441499753598e-01 1.0000000000000000e+00 0.0000000000000000e+00
153 1.2532151480469231e-01 7.7055912463806209e-01 3.6412380702551261e-01
154 1.2755235838347762e-01 2.7853121974758377e-01 0.0000000000000000e+00
155 1.2800957008982466e-01 6.3946617171700515e-01 6.7582867361333332e-01
156 1.2803957205853497e-01 2.1926279865746837e-01 7.1306693524104814e-01
157 1.2821034562593697e-01 6.9239928882872415e-01 4.3033873265408551e-01
158 1.3259304657860169e-01 8.1368572494174563e-01 7.9535527052898025e-01
159 1.3403795991826725e-01 3.6166626436138277e-01 0.0000000000000000e+00
160 1.3411736301227831e-01 2.3084285150803413e-01 1.8767984756109085e-01
161 1.3742695025127749e-01 5.6816692297413163e-01 1.0403098502291899e-01
162 1.3838473481305880e-01 6.5584686415062321e-01 1.2361123840628715e-01
163 1.3937967070874635e-01 5.5227744722736016e-01 7.3972939694625772e-01
164 1.3989431211518155e-01 2.5660650493294906e-01 4.2496495509348697e-01
165 1.4034846981599364e-01 0.0000000000000000e+00 7.0752341171831701e-01
166 1.4107437372420994e-01 7.9089810758155488e-01 1.4508599022053126e-01
167 1.4199781442248621e-01 3.7020595493704156e-01 8.3678348435230521e-01
168 1.4200631628238453e-01 3.0738264477790089e-01 1.0000000000000000e+00
169 1.4312378523014491e-01 4.4523043209894464e-01 4.8980376407270854e-01
170 1.4352252155336398e-01 0.0000000000000000e+00 8.3911399246287599e-01
171 1.4392528572694610e-01 0.0000000000000000e+00 2.9397212495627445e-01
172 1.4591200618170500e-01 4.8605301505674919e-01 2.9591188123002626e-01
173 1.4679579932708689e-01 3.3446756478937129e-01 7.1449236146994510e-01
174 1.4698506072496514e-01 1.0000000000000000e+00 5.5612088693551609e-01
175 1.4782373591577538e-01 8.9769515427685176e-01 0.0000000000000000e+00
176 1.4796061629858920e-01 8.4176847319817483e-01 1.0000000000000000e+00
177 1.4842234565513529e-01 3.9271896934369932e-01 1.0000000000000000e+00
178 1.4866655893978620e-01 3.3592045858938158e-01 5.0540524769616935e-01
179 1.5096162647123548e-01 8.8662255311588700e-01 1.8897565766447255e-01
180 1.5432877259959510e-01 1.0000000000000000e+00 8.5818590253461624e-01
181 1.5448565420843258e-01 8.8016740644448732e-01 2.7338329188889138e-01
182 1.5523708776472317e-01 6.4523049066920091e-01 1.0000000000000000e+00
183 1.5658445783283553e-01 1.0000000000000000e+00 6.9413606291242358e-01
184 1.5666358856353796e-01 5.0180438871631239e-01 1.0000000000000000e+00
185 1.5884872046302362e-01 7.7529930622268950e-01 2.4644892698218951e-01
186 1.5975364685691681e-01 3.9661737869621555e-01 2.8933865007667514e-01
187 1.6151203217300703e-01 1.2766358801839753e-01 1.6128796702119205e-01
188 1.6392502629809985e-01 8.7865836089258043e-01 4.9369903986084474e-01
189 1.6442538219821073e-01 1.7446501147611138e-01 2.9212867520407465e-01
190 1.6480580405047623e-01 6.3001446214464385e-01 7.6080292323028309e-01
191 1.6598336650775847e-01 7.4865770561919898e-01 8.3898724152935511e-01
192 1.6701265787200392e-01 1.8090335405070809e-01 3.9685212836331429e-01
193 1.6802994358268666e-01 3.5978826312475137e-01 1.4040668762295175e-01
194 1.6834817783016742e-01 4.5188057883306326e-01 1.7956652667526812e-01
195 1.6917050781571555e-01 8.0742718827695026e-01 4.3209718245615947e-01
196 1.7074519714339023e-01 1.0000000000000000e+00 1.0000000000000000e+00
197 1.7151934352481479e-01 1.8524701512021691e-01 8.7896442012471965e-01
198 1.7252173304516977e-01 1.0417757831436381e-01 8.3242762432421102e-01
199 1.7478912869111404e-01 8.0442421783859752e-01 0.0000000000000000e+00
200 1.7560038271915129e-01 0.0000000000000000e+00 1.0000000000000000e+00
201 1.7753637230724900e-01 0.0000000000000000e+00 6.3467818692812017e-01
202 1.7874065011642523e-01 4.5108151561778764e-01 4.0841318869621368e-01
203 1.7923065655103446e-01 6.9685709120146244e-01 0.0000000000000000e+00
204 1.7945256189485717e-01 5.7975943522395523e-01 6.1218127077156315e-01
205 1.7988933520459160e-01 2.0903686097878438e-01 1.0000000000000000e+00
206 1.8016267187749771e-01 1.0868249541402619e-01 0.0000000000000000e+00
207 1.8155571962168676e-01 3.3566172782747550e-01 3.8705740600220834e-01
208 1.8224523533046982e-01 3.5177892771121866e-01 6.1220180243250377e-01
209 1.8236034051920280e-01 4.4335744834006058e-01 6.7385278560216677e-01
210 1.8324887188074609e-01 2.5941586748386314e-01 5.7646893466335902e-01
211 1.8360504796972016e-01 6.1304785141497420e-01 8.5898194886520640e-01
212 1.8362080272347847e-01 1.9936737417360298e-01 5.0398356576883285e-01
213 1.8376836905635266e-01 6.3055062946597407e-01 3.6278487762620393e-01
214 1.8396625657969085e-01 5.8619398461741246e-01 1.7413681081446053e-01
215 1.8461067960413757e-01 0.0000000000000000e+00 5.2251135883555999e-01
216 1.8521115852893988e-01 1.0000000000000000e+00 2.2127330213226015e-01
217 1.8605278916344709e-01 7.0029981681366427e-01 6.6661225413278746e-01
218 1.8625770851344420e-01 0.0000000000000000e+00 5.4220642125443974e-01
219 1.8869505507157677e-01 8.2616633231099978e-01 8.8234629408952781e-01
220 1.8871042428725709e-01 4.8681961423076348e-01 7.6689643041239663e-01
221 1.9115072144404183e-01 1.4883717898820600e-01 7.5747055685134401e-01
222 1.9296687682880473e-01 8.1951947071127573e-01 7.3042189514398714e-01
223 1.9338607693358223e-01 4.3833933354419186e-01 0.0000000000000000e+00
224 1.9472739610592879e-01 0.0000000000000000e+00 7.7455623825286846e-01
225 1.9588577952354549e-01 0.0000000000000000e+00 4.2893708272036118e-01
226 1.9596409587762142e-01 2.7583682699086981e-01 6.6808209164731225e-01
227 1.9659439954421354e-01 6.8082897236234308e-01 2.9027283140745441e-01
228 1.9679608426614184e-01 1.7158077933689303e-01 6.1025327533962759e-01
229 1.9735284018606819e-01 1.2682985384628831e-01 1.0000000000000000e+00
230 1.9777085323344556e-01 1.0000000000000000e+00 4.1708594845223196e-01
231 1.9934933004998429e-01 7.2643774302751574e-01 0.0000000000000000e+00
232 2.0229657754578992e-01 7.3900730770898582e-01 7.5260716952679974e-01
233 2.0455885573890853e-01 2.0976820281882902e-01 0.0000000000000000e+00
234 2.0507481080860801e-01 6.8925365667343019e-01 5.0309661040702636e-01
235 2.0571312811427428e-01 5.9921519556001401e-01 5.3210461848970148e-01
236 2.0685301478166107e-01 3.0012853570580533e-01 1.9652763984682958e-01
237 2.0896434056102786e-01 4.4191440862343118e-01 1.0010919330472820e-01
238 2.0924418843365539e-01 4.9449771502064610e-01 8.7362021217337971e-01
239 2.0926990423517838e-01 1.0000000000000000e+00 3.6034964751668314e-01
240 2.0946248994717914e-01 5.7891375247115062e-01 1.0000000000000000e+00
241 2.0999329064828764e-01 1.0000000000000000e+00 1.4702009403061439e-01
242 2.1018745664710514e-01 2.7891285015754330e-01 1.0786791137458895e-01
243 2.1048677639257612e-01 7.8458048577328876e-01 3.4540824049626884e-01
244 2.1128996399449768e-01 2.7870601761726949e-01 8.2846430302987084e-01
245 2.1279308644792563e-01 0.0000000000000000e+00 1.0101683569240774e-01
246 2.1384377505332772e-01 7.8330374996937058e-01 5.7937585861298657e-01
247 2.1412388338527710e-01 1.0000000000000000e+00 7.8736650726796120e-01
248 2.1658644989044856e-01 3.5790500198868086e-01 0.0000000000000000e+00
249 2.1707064190501146e-01 8.7606600574235405e-01 6.6488105135470366e-01
250 2.1724171250992586e-01 1.0000000000000000e+00 6.3605569270919493e-01
251 2.1766342911174685e-01 3.6196244883799727e-01 1.0000000000000000e+00
252 2.1872531265658868e-01 5.4798711326624938e-01 0.0000000000000000e+00
253 2.2571702625453913e-01 5.2281811688407098e-01 4.9759668408336211e-01
254 2.2753285770491632e-01 3.9615528235383202e-01 2.2752400876276480e-01
255 2.2782629524926051e-01 5.1122296801143507e-01 1.5335028729232866e-01
256 2.2909739982185490e-01 4.1175251038755833e-01 8.5082970988600382e-01
257 2.2927843292839012e-01 0.0000000000000000e+00 2.6048149971089180e-01
258 2.2941580967685818e-01 4.0766933371315295e-01 5.2970696980335652e-01
259 2.3085311418561064e-01 8.0955766305333499e-01 0.0000000000000000e+00
260 2.3176195685314488e-01 6.9557551041118659e-01 3.8832022214366535e-01
261 2.3200811090596687e-01 1.4003345103422526e-01 0.0000000000000000e+00
262 2.3335361579833822e-01 1.0000000000000000e+00 5.2070036914028073e-01
263 2.3501401915549847e-01 1.4328156671531361e-01 2.3976079110187631e-01
264 2.3651474513573600e-01 5.2704801777848587e-01 6.6346137376344028e-01
265 2.3758600223371212e-01 5.4194705434710100e-01 3.6079153508202250e-01
266 2.3831095940937788e-01 3.5689721766822002e-01 7.6025663599153392e-01
267 2.4049293540186475e-01 8.2487416591094553e-01 2.5527071505181492e-01
268 2.4280849276695998e-01 2.7252187275080969e-01 1.0000000000000000e+00
269 2.4328633937368133e-01 2.8020444109372994e-01 3.0434924875477948e-01
270 2.4405572513722507e-01 5.3532214021493130e-01 2.6830018118446869e-01
271 2.4695079373950429e-01 6.5877947695545824e-01 1.5895289139599775e-01
272 2.4749182773066530e-01 6.7953738956706489e-01 6.0858437705073631e-01
273 2.5079049324030567e-01 7.6651040088044253e-01 1.0000000000000000e+00
274 2.5199449071228369e-01 6.7319948595776524e-01 8.8653851784057325e-01
275 2.5241045079226931e-01 8.8116275870580574e-01 0.0000000000000000e+00
276 2.5390713202381876e-01 0.0000000000000000e+00 1.0000000000000000e+00
277 2.5544682243143046e-01 8.4178428132760019e-01 4.5523475660081858e-01
278 2.5642550921932150e-01 6.1954750256435887e-01 4.1782700300959247e-01
279 2.5655162888887173e-01 0.0000000000000000e+00 0.0000000000000000e+00
280 2.5674880999176364e-01 8.8942848311726408e-01 1.0000000000000000e+00
281 2.5730795640080251e-01 5.8253219600317885e-01 7.7897709149750050e-01
282 2.5999341958357364e-01 3.7209010978398288e-01 4.5808739189083236e-01
283 2.6056541653675525e-01 6.6056180099570228e-01 7.4249943228190940e-01
284 2.6145306925277051e-01 6.3148911929075102e-01 0.0000000000000000e+00
285 2.6213335406611915e-01 8.5225107704973291e-01 7.8514553630892159e-01
286 2.6243067486212279e-01 1.0000000000000000e+00 8.6074728121174249e-01
287 2.6262793244855398e-01 2.6688885873695833e-01 4.9473695183933297e-01
288 2.6323768073321074e-01 1.0000000000000000e+00 2.6047526149514044e-01
289 2.6373118339870383e-01 8.8030095302788680e-01 5.8781974969641981e-01
290 2.6447591341989218e-01 7.1602267433466960e-01 0.0000000000000000e+00
291 2.6488900695565248e-01 2.4031463771885184e-01 7.4912572347469319e-01
292 2.6501253705573896e-01 3.7921713761071274e-01 1.4321853691916106e-01
293 2.6517721627849866e-01 0.0000000000000000e+00 3.9555695725665385e-01
294 2.6538467854515191e-01 4.5594877618030699e-01 1.0000000000000000e+00
295 2.6622167483282849e-01 2.1328885388723223e-01 1.7624419303449940e-01
296 2.6677209334268587e-01 3.4601668872909952e-01 1.0000000000000000e+00
297 2.6774421862174003e-01 6.1126430892205930e-01 6.7096621822894342e-01
298 2.6866673461363277e-01 1.6509851762927014e-01 1.0000000000000000e+00
299 2.7097447691545123e-01 0.0000000000000000e+00 4.9963358691883852e-01
300 2.7171398980359213e-01 6.7880143397646109e-01 1.0000000000000000e+00
301 2.7188349682079960e-01 6.2648592424866156e-01 2.8649930064984658e-01
302 2.7306351274766666e-01 1.0000000000000000e+00 1.0000000000000000e+00
303 2.7311309267386635e-01 1.9537911013837483e-01 3.3664428741899194e-01
304 2.7463583036424510e-01 0.0000000000000000e+00 1.0000000000000000e+00
305 2.7677037656710379e-01 1.4062237557987592e-01 8.3096754376696191e-01
306 2.7689379887714038e-01 3.3648543108425133e-01 5.9419947322616362e-01
307 2.7738609040417095e-01 4.5270926650232124e-01 7.7054205616193072e-01
308 2.7776975606801113e-01 2.3422461388601468e-01 4.1634697011295269e-01
309 2.7876207248684676e-01 4.6376177308125927e-01 3.6203058372230135e-01
310 2.7886386727978690e-01 1.6860318869089805e-01 4.9864874160966960e-01
311 2.7944943016789364e-01 5.9972632049338670e-01 1.0000000000000000e+00
312 2.8423095978128438e-01 7.5386874543328009e-01 8.7102412772171156e-01
313 2.8584761486697674e-01 8.2984666046780631e-01 6.9590866506636184e-01
314 2.8594874481504484e-01 4.5551510768646719e-01 6.0684998452379690e-01
315 2.8659088319539072e-01 0.0000000000000000e+00 1.7233743743925084e-01
316 2.8730533349406540e-01 3.2097400519753516e-01 8.2546092430073048e-01
317 2.8869946498619042e-01 1.4275191048517122e-01 6.6667060672973777e-01
318 2.9031008315316564e-01 7.6583044783163734e-01 3.7219738118891804e-01
319 2.9043989518328472e-01 1.0000000000000000e+00 4.4014525099713681e-01
320 2.9231851397655884e-01 8.6218825422193968e-01 1.9941579254082498e-01
321 2.9339866061990860e-01 7.5527181831630641e-01 2.2222482551474801e-01
322 2.9413397449967804e-01 0.0000000000000000e+00 7.5729213270957696e-01
323 2.9538716981188179e-01 1.0000000000000000e+00 1.2221732540644686e-01
324 2.9568582686892719e-01 1.0000000000000000e+00 7.3303257652046083e-01
325 2.9679206225810251e-01 5.1530686140629822e-01 1.0000000000000000e+00
326 2.9692671575377350e-01 3.0115990955657723e-01 1.7290056104375789e-01
327 2.9795130203729292e-01 2.6463495963908706e-01 1.0000000000000000e+00
328 2.9810992574855433e-01 4.9733975472030445e-01 4.5311058034433682e-01
329 2.9880392262753164e-01 1.2497696298776437e-01 1.7360422912973517e-01
330 2.9907022469566785e-01 3.0587088507574273e-01 3.6908226181787845e-01
331 2.9970888863551687e-01 4.3245605108336510e-01 2.6556675282077552e-01
332 3.0151146321749983e-01 0.0000000000000000e+00 6.2924106774187882e-01
333 3.0335480543603177e-01 6.8328292888534758e-01 4.7034392556121929e-01
334 3.0373080823816778e-01 5.4360793823324327e-01 0.0000000000000000e+00
335 3.0574580364067361e-01 8.4308664003151779e-01 3.2516471620889581e-01
336 3.0628359502665636e-01 7.6986459478295943e-01 4.7349652857363889e-01
337 3.0728435721279390e-01 3.6576465641942041e-01 0.0000000000000000e+00
338 3.0926581381394302e-01 5.6837417546117974e-01 5.5207635893717588e-01
339 3.1110222686544359e-01 1.0000000000000000e+00 6.2971488051269264e-01
340 3.1142770137070347e-01 0.0000000000000000e+00 0.0000000000000000e+00
341 3.1497428474013983e-01 1.0000000000000000e+00 3.5435314179705807e-01
342 3.1553753539764540e-01 1.0000000000000000e+00 0.0000000000000000e+00
343 3.1556553310072388e-01 8.0582086095652428e-01 5.6053419502690449e-01
344 3.1676656852932517e-01 0.0000000000000000e+00 8.5011479691446523e-01
345 3.1731847143756137e-01 0.0000000000000000e+00 0.0000000000000000e+00
346 3.1765087912864898e-01 6.3476817060058177e-01 8.2835064395878388e-01
347 3.1818197585830837e-01 0.0000000000000000e+00 3.0983788274536184e-01
348 3.1871267332854381e-01 1.5275118790656922e-01 2.7000497409303981e-01
349 3.2050694238720934e-01 5.3607398708312815e-01 1.4180196855770386e-01
350 3.2366301802254549e-01 7.6674429320562654e-01 0.0000000000000000e+00
351 3.2398051848019388e-01 3.3452468930397194e-01 2.7016251782588779e-01
352 3.2673353864256255e-01 4.1424658850982865e-01 4.1393948952251725e-01
353 3.2694247156047201e-01 5.4561751993405128e-01 2.3062860213013098e-01
354 3.3025504678102130e-01 7.0744089274127764e-01 6.5514405754117588e-01
355 3.3072663056266932e-01 4.5670271619492142e-01 0.0000000000000000e+00
356 3.3231631116951393e-01 6.3032481095908965e-01 2.2090387140754714e-01
357 3.3276640201425078e-01 1.2225438005549905e-01 5.8424072218526579e-01
358 3.3399214964062907e-01 2.4827965357069343e-01 0.0000000000000000e+00
359 3.3410108310001824e-01 1.0865375737052546e-01 7.6998856435761509e-01
360 3.3422524575845791e-01 1.7237493192337655e-01 4.0722946312752567e-01
361 3.3501799517503122e-01 6.9776496825594869e-01 2.7452533734180118e-01
362 3.3634857238249266e-01 4.3297858552584151e-01 8.6389812050870574e-01
363 3.4000019401909592e-01 0.0000000000000000e+00 1.0000000000000000e+00
364 3.4020742130596343e-01 0.0000000000000000e+00 5.4846741709612090e-01
365 3.4027894743422182e-01 8.7794293430330073e-01 1.0000000000000000e+00
366 3.4204944597322479e-01 5.6281864150539274e-01 6.7094449445578330e-01
367 3.4317921995738249e-01 1.0000000000000000e+00 7.8622249094633789e-01
368 3.4341350608095467e-01 8.9131531285545529e-01 8.1626139071396953e-01
369 3.4346081583358806e-01 6.5022483421209620e-01 5.5663639670312859e-01
370 3.4401025576652061e-01 7.7302816140004227e-01 7.7575521236719003e-01
371 3.4570365780373929e-01 6.1790740880195205e-01 3.4893855090971115e-01
372 3.4573906901203039e-01 2.2493471359713491e-01 5.7166701545998500e-01
373 3.4670173269286653e-01 0.0000000000000000e+00 4.0385709908680195e-01
374 3.4882521455003423e-01 8.8294422146791729e-01 0.0000000000000000e+00
375 3.4899422181664491e-01 3.8375148400812953e-01 7.3606693269710277e-01
376 3.5080934053799750e-01 1.5679766400176987e-01 1.0000000000000000e+00
377 3.5382687328061185e-01 1.0000000000000000e+00 1.0000000000000000e+00
378 3.5649404461406808e-01 7.9245137557828249e-01 1.0000000000000000e+00
379 3.5753147732092028e-01 3.6760120303131516e-01 3.4220424080522172e-01
380 3.5818127447780912e-01 1.0000000000000000e+00 1.1201175502475366e-01
381 3.5911471889993446e-01 2.1055648446115904e-01 1.9424903250480405e-01
382 3.6112962514831703e-01 7.1633956010985844e-01 1.8640602357540104e-01
383 3.6138257707167931e-01 1.6471865525286034e-01 0.0000000000000000e+00
384 3.6297082998028551e-01 2.4475915832618972e-01 2.7140088364644438e-01
385 3.6314541388356564e-01 6.7099415767308068e-01 4.1221192380819938e-01
386 3.6601060628427384e-01 1.0000000000000000e+00 5.7711912409597110e-01
387 3.6652829097580669e-01 5.6038564613193953e-01 4.5951854259549602e-01
388 3.6653248083467610e-01 2.2922850102427697e-01 8.5907418339310093e-01
389 3.6721397663528321e-01 3.0714249873108534e-01 1.0000000000000000e+00
390 3.6790104391008693e-01 8.2188436770904982e-01 2.4056424363146059e-01
391 3.6801174719191598e-01 3.1397290790495602e-01 4.6163965899529108e-01
392 3.6848483736648346e-01 8.7760519911850066e-01 1.0000000000000000e+00
393 3.6856840382338985e-01 1.0000000000000000e+00 6.9404448751499948e-01
394 3.6875012610173469e-01 2.4631563618413596e-01 6.9603406074941732e-01
395 3.6934564044952867e-01 1.2693359773735294e-01 3.4288261333336045e-01
396 3.7018375566830275e-01 6.9193088867250252e-01 7.5548820564013963e-01
397 3.7033173645425677e-01 4.5540061110923719e-01 1.3894333405993736e-01
398 3.7090313806331104e-01 5.5590736702531807e-01 7.7634268065231637e-01
399 3.7146747037649369e-01 1.7553977534676421e-01 4.9490371513080555e-01
400 3.7278425665365333e-01 4.5390283940069825e-01 5.8269529419337485e-01
401 3.7350126866299904e-01 3.0862331323446002e-01 6.3244424549321909e-01
402 3.7453176432048801e-01 8.0488530006133463e-01 1.5113052647967767e-01
403 3.7504075804116971e-01 3.1140374279628125e-01 7.7149733185570490e-01
404 3.7583875624604240e-01 4.7742730424065327e-01 3.2915066828882450e-01
405 3.7610071990541838e-01 0.0000000000000000e+00 1.8590324691414764e-01
406 3.7639170914146292e-01 1.0000000000000000e+00 2.0402072801733953e-01
407 3.7644466493180367e-01 8.2271485442749048e-01 6.8694062757290331e-01
408 3.7665411250100683e-01 0.0000000000000000e+00 2.5296696770490062e-01
409 3.7779853991279055e-01 1.0000000000000000e+00 4.4984045301956954e-01
410 3.7858775579447990e-01 4.4363596403882077e-01 6.7319461793848256e-01
411 3.8193689416635040e-01 6.7231255210928265e-01 1.0000000000000000e+00
412 3.8274129274623514e-01 6.2910133319948858e-01 0.0000000000000000e+00
413 3.8276748440167840e-01 1.0000000000000000e+00 8.6766558834925411e-01
414 3.8277351500001200e-01 3.7631803872490477e-01 1.6497334437738231e-01
415 3.8394961031409791e-01 6.3461148907325948e-01 1.1564030233726988e-01
416 3.8397382854661910e-01 4.8203486633927989e-01 2.2763535118321665e-01
417 3.8472566254410412e-01 4.0946014104475381e-01 5.0754804851771040e-01
418 3.8505741021458462e-01 5.0506708380011489e-01 1.0000000000000000e+00
419 3.8682556238811161e-01 3.1969661722975673e-01 0.0000000000000000e+00
420 3.8775546402435551e-01 7.6197834365117312e-01 6.1163959735163964e-01
421 3.8822051303256261e-01 5.7238384589580293e-01 8.7785217433655027e-01
422 3.9091620273143990e-01 6.1716879560334459e-01 1.0000000000000000e+00
423 3.9110261048415468e-01 7.7866512127375209e-01 3.6956295279677348e-01
424 3.9212839510174430e-01 5.2380788798563016e-01 0.0000000000000000e+00
425 3.9303826621387261e-01 4.1285136270415629e-01 1.0000000000000000e+00
426 3.9338059902409095e-01 8.0654966276858264e-01 0.0000000000000000e+00
427 3.9359978922463379e-01 0.0000000000000000e+00 6.1158274057513629e-01
428 3.9425010419219442e-01 7.5534668543927286e-01 4.7812173757505749e-01
429 3.9773952317105199e-01 0.0000000000000000e+00 7.0927153035227219e-01
430 3.9828228587702780e-01 1.1746958738363286e-01 1.0000000000000000e+00
431 3.9837594571719304e-01 0.0000000000000000e+00 5.3147646513529478e-01
432 4.0414057124436259e-01 1.0000000000000000e+00 0.0000000000000000e+00
433 4.0534507514976814e-01 0.0000000000000000e+00 8.5789546321584631e-01
434 4.0631726228024873e-01 1.6862004355294641e-01 6.4394639924659391e-01
435 4.0707522327189610e-01 2.2504878687427729e-01 0.0000000000000000e+00
436 4.0707925047972610e-01 6.3926832489886720e-01 8.2614173434327476e-01
437 4.0892297915144254e-01 6.4009760948011962e-01 4.8374504356166093e-01
438 4.0892966443123741e-01 7.2527487147557423e-01 0.0000000000000000e+00
439 4.0893395580453390e-01 1.0000000000000000e+00 3.5334139176816914e-01
440 4.1046302462740186e-01 4.1454615108890269e-01 8.0197785398243437e-01
441 4.1105031213857224e-01 0.0000000000000000e+00 0.0000000000000000e+00
442 4.1203532887764238e-01 1.0000000000000000e+00 4.5585411655311714e-01
443 4.1234057129077678e-01 8.3189551486358215e-01 5.4299363624344510e-01
444 4.1385705383149929e-01 4.9204427294071212e-01 4.9579294462414780e-01
445 4.1428337153239153e-01 1.8939209809502300e-01 7.6915722847132506e-01
446 4.1463978774358995e-01 3.3917281722826881e-01 5.6577430437420428e-01
447 4.1557631052480315e-01 0.0000000000000000e+00 7.6168342101166564e-01
448 4.1565186470042015e-01 0.0000000000000000e+00 3.9227530986829284e-01
449 4.1765820707798174e-01 0.0000000000000000e+00 1.0883607584849865e-01
450 4.1843594407363233e-01 8.3930408030994175e-01 8.5065962822042351e-01
451 4.2152278430236589e-01 8.8979629586498843e-01 7.7136023932305309e-01
452 4.2254725471269594e-01 1.0971397151898406e-01 4.3098099940820916e-01
453 4.2640589294937942e-01 1.7281862461123981e-01 2.7448942659765707e-01
454 4.2731881101146085e-01 5.5670237811577117e-01 6.2275832174372836e-01
455 4.2883066374158696e-01 5.5959795779715382e-01 3.8710797243222728e-01
456 4.2953162850739296e-01 8.4536495865310379e-01 0.0000000000000000e+00
457 4.2980272410278220e-01 7.0560405097663070e-01 3.4918636883132292e-01
458 4.3238094040234964e-01 7.6797887615721039e-01 7.6588942801945881e-01
459 4.3241881607443811e-01 3.8942283072501782e-01 2.4804389946670116e-01
460 4.3293930248573365e-01 8.8782646364794082e-01 6.6890339676582644e-01
461 4.3387331618474617e-01 4.2540673124581807e-01 4.2810459692194286e-01
462 4.3394960851478809e-01 5.9973609883978674e-01 6.9472651716658484e-01
463 4.3446886995137252e-01 3.9334643151312032e-01 0.0000000000000000e+00
464 4.3533936319705935e-01 1.8452694019957008e-01 3.7427899046376034e-01
465 4.3542704626834211e-01 7.0024158909956857e-01 6.9954182779825314e-01
466 4.3545228789039753e-01 1.0000000000000000e+00 5.5364073219503174e-01
467 4.3573939148190144e-01 5.5771208657386806e-01 2.2795512963738074e-01
468 4.3698728245655705e-01 1.0000000000000000e+00 2.6209655493590572e-01
469 4.3736193758633490e-01 3.1171629893161013e-01 8.3022175989469793e-01
470 4.3836733155379470e-01 6.9409387355492569e-01 1.5648214855108500e-01
471 4.3988030934163308e-01 6.9289626988591535e-01 1.0000000000000000e+00
472 4.4054219598394628e-01 2.6045839711358781e-01 1.0000000000000000e+00
473 4.4065141878378949e-01 1.0000000000000000e+00 0.0000000000000000e+00
474 4.4154414070414794e-01 2.9189624688786375e-01 3.2617044016991487e-01
475 4.4293505420377138e-01 6.9654488620766797e-01 6.1196832776732979e-01
476 4.4375327753752503e-01 8.5012189058459853e-01 4.3037183961928349e-01
477 4.4629031856393692e-01 2.2448704460964677e-01 0.0000000000000000e+00
478 4.4638007014060260e-01 1.0000000000000000e+00 3.0150848619767701e-01
479 4.4893712584134299e-01 0.0000000000000000e+00 1.0000000000000000e+00
480 4.4927407076837317e-01 7.9638804960613430e-01 2.5607361155203789e-01
481 4.5006299739243094e-01 4.3283694011814611e-01 3.2886159770909251e-01
482 4.5049832072681573e-01 3.0715446195056084e-01 4.2279113551962005e-01
483 4.5111081067207115e-01 1.5548313723364887e-01 8.5576368900377897e-01
484 4.5445993386169292e-01 8.3545367368876222e-01 3.3153241625388258e-01
485 4.5598743713906487e-01 7.9699856363615351e-01 1.0000000000000000e+00
486 4.5853072958877256e-01 1.0000000000000000e+00 7.4194528916671554e-01
487 4.5989629581608510e-01 8.9265293518463773e-01 1.5010478568515440e-01
488 4.6020922187647273e-01 0.0000000000000000e+00 2.2493259070082644e-01
489 4.6069826575408235e-01 4.6809649161521033e-01 7.3054528395196905e-01
490 4.6238466750407742e-01 1.1837888594374776e-01 0.0000000000000000e+00
491 4.6652483018871310e-01 1.0000000000000000e+00 1.3655435876162203e-01
492 4.6707772796935165e-01 5.9895705310099612e-01 2.9948686153279169e-01
493 4.6772132918130055e-01 7.4781494923122516e-01 5.2689623656530882e-01
494 4.6847866801200877e-01 3.1024972509669962e-01 2.3829020980939319e-01
495 4.6852425801909225e-01 7.7085720273019220e-01 1.2599744795754320e-01
496 4.7042872667407332e-01 4.3451767223957477e-01 1.4753529315497588e-01
497 4.7060563020299695e-01 2.2871920406685342e-01 5.1730371198081870e-01
498 4.7096272082354168e-01 1.9760569446484061e-01 2.0336913191195205e-01
499 4.7144710556169517e-01 7.5516506259939720e-01 8.7052967586531538e-01
500 4.7145736186131126e-01 1.1121198132572897e-01 3.0975439623052237e-01
501 4.7418046207020415e-01 2.0393171376894609e-01 7.0870758889170049e-01
502 4.7635422039521491e-01 3.3292205170321565e-01 7.1364984327997483e-01
503 4.7769809122475448e-01 6.4037290330856100e-01 0.0000000000000000e+00
504 4.7829275950341854e-01 6.1712426374892104e-01 8.8473182287879171e-01
505 4.7832966044190561e-01 2.7671461590595292e-01 1.4230053578411017e-01
506 4.7871936225992334e-01 0.0000000000000000e+00 6.6422807482655111e-01
507 4.8023633597830739e-01 2.4932910923109378e-01 7.8666483095269113e-01
508 4.8260082214154199e-01 4.1036547917886440e-01 1.0000000000000000e+00
509 4.8342101608623034e-01 4.7031990359095366e-01 2.4116594611788170e-01
510 4.8484554330671731e-01 5.1959958108182247e-01 1.0000000000000000e+00
511 4.8695837851783902e-01 6.8010045498188632e-01 4.4552509788028749e-01
512 4.8769909532016176e-01 4.8794516652657427e-01 5.8319142559292592e-01
513 4.8860404027330617e-01 3.8358074023383643e-01 5.2960455096155323e-01
514 4.9050291657790712e-01 0.0000000000000000e+00 1.0000000000000000e+00
515 4.9050842587956522e-01 4.1547916922942585e-01 6.4983842953141346e-01
516 4.9131474080577742e-01 4.9389105312146631e-01 0.0000000000000000e+00
517 4.9143629764779961e-01 6.1258680151759970e-01 5.2823681347119023e-01
518 4.9263394422641438e-01 5.2665106369567882e-01 4.8558890576039510e-01
519 4.9326319412606734e-01 0.0000000000000000e+00 4.1745924887217239e-01
520 4.9336097371063531e-01 5.4659051498179945e-01 1.6097779606261930e-01
521 4.9422602259476306e-01 7.3235378710065813e-01 0.0000000000000000e+00
522 4.9444844128880217e-01 6.1491935888339067e-01 0.0000000000000000e+00
523 4.9446438122006942e-01 7.8217697235381733e-01 4.2330294931039275e-01
524 4.9447161512320847e-01 4.7401803326515002e-01 8.3480790447507769e-01
525 4.9540291553307636e-01 2.3187023513826005e-01 2.7613803029552003e-01
526 4.9682835773039935e-01 1.8550223274681304e-01 1.0000000000000000e+00
527 4.9699984137996711e-01 1.0000000000000000e+00 0.0000000000000000e+00
528 4.9733258462273500e-01 0.0000000000000000e+00 6.9806822681906866e-01
529 5.0069002616168157e-01 6.8043938570554308e-01 2.6214491556284308e-01
530 5.0073272718385253e-01 1.0000000000000000e+00 6.2704465570108470e-01
531 5.0160812807163946e-01 6.5011653635940947e-01 6.7697900640633590e-01
532 5.0250484331191947e-01 2.5085013525531058e-01 6.2562319482605278e-01
533 5.0304257389487383e-01 1.2178303828748287e-01 7.8810597765542401e-01
534 5.0330758327852931e-01 5.3654569079018710e-01 7.5919482203210409e-01
535 5.0347074288532800e-01 1.0000000000000000e+00 8.3244565495328027e-01
536 5.0425542698302805e-01 0.0000000000000000e+00 5.2733591238102262e-01
537 5.0657651627506839e-01 6.2983554730007274e-01 7.6090241323933394e-01
538 5.0769741131502599e-01 1.3495339252017519e-01 5.0962145914144674e-01
539 5.0781344245784743e-01 6.6247000182338267e-01 3.4703355925798518e-01
540 5.0788529906254198e-01 8.3503932199121189e-01 2.0183730454334656e-01
541 5.0979028444360941e-01 0.0000000000000000e+00 1.2840674237829924e-01
542 5.1141859553365898e-01 0.0000000000000000e+00 2.9253211787540034e-01
543 5.1188846784454656e-01 8.4961859153450292e-01 5.6233721004369175e-01
544 5.1258977534163974e-01 1.4732517779225621e-01 1.0913030953235192e-01
545 5.1279763859041549e-01 1.0000000000000000e+00 1.0000000000000000e+00
546 5.1321430203000407e-01 8.4806604353816517e-01 1.0239966860339562e-01
547 5.1345124618011584e-01 8.7264985739839918e-01 7.8754404368650988e-01
548 5.1509059670884561e-01 6.3560796384749374e-01 1.9229156177533591e-01
549 5.1649131949193883e-01 1.0000000000000000e+00 4.9742101980882025e-01
550 5.1656727579236461e-01 3.5078149831225575e-01 0.0000000000000000e+00
551 5.1982708690011192e-01 3.1684673428480592e-01 1.0000000000000000e+00
552 5.2047768266342365e-01 5.5416985657760187e-01 6.4685694074670541e-01
553 5.2098237610257825e-01 7.6725491736309392e-01 6.9579500278519935e-01
554 5.2402888827902439e-01 3.8445726510823897e-01 2.2457535843084603e-01
555 5.2845782412781384e-01 5.5965259782161514e-01 3.6456419930686623e-01
556 5.2911861659406434e-01 1.0000000000000000e+00 2.0237752200329504e-01
557 5.2966040875594156e-01 2.0877179157107817e-01 4.6069864868611349e-01
558 5.2976116938102391e-01 4.6871973818551360e-01 3.1244567107342491e-01
559 5.3035433428934164e-01 3.8672522217007244e-01 7.9412608697043907e-01
560 5.3045898145136172e-01 6.9353567606170274e-01 1.0000000000000000e+00
561 5.3185976986171746e-01 0.0000000000000000e+00 0.0000000000000000e+00
562 5.3205324120202935e-01 1.0000000000000000e+00 1.0000000000000000e+00
563 5.3242906552266689e-01 2.7026168094529152e-01 3.8045426976769786e-01
564 5.3446006914581301e-01 4.8537561892811509e-01 4.1493810292821964e-01
565 5.3697143520271728e-01 1.0000000000000000e+00 0.0000000000000000e+00
566 5.3940402438051283e-01 1.5646288044198958e-01 5.9412742863046575e-01
567 5.3979923520665074e-01 2.1910923681467720e-01 0.0000000000000000e+00
568 5.4159390220135728e-01 1.0096939086576859e-01 8.7425588853747049e-01
569 5.4160060839166924e-01 1.4514496141659755e-01 3.8549166764169940e-01
570 5.4174769646557952e-01 1.0000000000000000e+00 7.2703584171607916e-01
571 5.4556109052502921e-01 7.6644118390034544e-01 2.3479465968943325e-01
572 5.4731692858604930e-01 3.8980611975495333e-01 3.6347791370305327e-01
573 5.4782701035601256e-01 8.9947377393809913e-01 2.8411208454593223e-01
574 5.4827818299090558e-01 7.8163183206399467e-01 5.1547608226810848e-01
575 5.4892263995955892e-01 3.3787622386640626e-01 4.8555211020751665e-01
576 5.5072782165856615e-01 0.0000000000000000e+00 8.4309448391793362e-01
577 5.5104216362341751e-01 0.0000000000000000e+00 7.4985751422082969e-01
578 5.5158674464274171e-01 7.9180573810417287e-01 8.6529310777844437e-01
579 5.5231987654063319e-01 1.0000000000000000e+00 3.6761742191384672e-01
580 5.5233301997296069e-01 7.6752466472942416e-01 3.4589089019646330e-01
581 5.5294299049566398e-01 8.8791875689271593e-01 4.3627573051027313e-01
582 5.5350494172708908e-01 6.0950785862515544e-01 2.9450610348147427e-01
583 5.5530411881290653e-01 4.3820626106779781e-01 5.1457569882955123e-01
584 5.5535771228337927e-01 8.1050564390342728e-01 6.3212951995935385e-01
585 5.5571895826334106e-01 0.0000000000000000e+00 5.9801771926340530e-01
586 5.5628010030646335e-01 1.0687867906339298e-01 1.0000000000000000e+00
587 5.5813154103083418e-01 0.0000000000000000e+00 2.2563524874891386e-01
588 5.6167819631082561e-01 7.0972809759506605e-01 6.2916023767529849e-01
589 5.6312821453378381e-01 4.3150258227595384e-01 1.0000000000000000e+00
590 5.6319866243994532e-01 8.2592699235632827e-01 0.0000000000000000e+00
591 5.6418204768879798e-01 1.4579658808252155e-01 2.1813845925758504e-01
592 5.6419532124847638e-01 1.0000000000000000e+00 6.2469900871876061e-01
593 5.6564260975574776e-01 4.5176451130549261e-01 0.0000000000000000e+00
594 5.6593604655208496e-01 3.1498540883408027e-01 6.2371450365726067e-01
595 5.6747886998105868e-01 4.8213034172640806e-01 2.3556251116675653e-01
596 5.6780244449539441e-01 5.2438555726979397e-01 1.0000000000000000e+00
597 5.6926303875196382e-01 7.0348438532910829e-01 4.7347260832549304e-01
598 5.6951352680081546e-01 4.5844535441134132e-01 7.6392748412288181e-01
599 5.6987672514289955e-01 6.0105992403143160e-01 4.8635283498136772e-01
600 5.6996751315143612e-01 3.0590717667592227e-01 8.2487387014213887e-01
601 5.7166765861039393e-01 2.6931811830274743e-01 1.0000000000000000e+00
602 5.7273524016749033e-01 3.2088291731847918e-01 2.7006370875469266e-01
603 5.7421690907436684e-01 1.0623943221396462e-01 4.6477014806897193e-01
604 5.7489344267141018e-01 8.9980702089858144e-01 6.7239136530138299e-01
605 5.7641215094958032e-01 5.1793196303731992e-01 1.0000000000000000e+00
606 5.7658390512710300e-01 7.8591603409456279e-01 1.3580994460902518e-01
607 5.7670823021687612e-01 7.0653585375442107e-01 8.2185875724178281e-01
608 5.7737743820957077e-01 7.9252287718612791e-01 4.3262430554796766e-01
609 5.7954409929310835e-01 1.8090627319490757e-01 7.8775498012931588e-01
610 5.8166359134718582e-01 5.6561237540395803e-01 5.8940628735397349e-01
611 5.8220862432826492e-01 5.7082233012837336e-01 0.0000000000000000e+00
612 5.8331524232426157e-01 8.4548655444374310e-01 3.6293673519633163e-01
613 5.8347923183541872e-01 6.4179976587883736e-01 1.0000000000000000e+00
614 5.8355319988200316e-01 5.8789699603365853e-01 2.1500592632259227e-01
615 5.8410332162666512e-01 3.8719132139983098e-01 0.0000000000000000e+00
616 5.8438271586757340e-01 2.8955485957389548e-01 1.1368635462805772e-01
617 5.8487707291268765e-01 1.0000000000000000e+00 4.3735670032765944e-01
618 5.8560375113596408e-01 5.9086482799624596e-01 8.1779706876363023e-01
619 5.8676668340716598e-01 1.0000000000000000e+00 7.9687421219818877e-01
620 5.8751741935883439e-01 2.0635323436298086e-01 6.6144174991753613e-01
621 5.9026191168758768e-01 1.0000000000000000e+00 5.5762943005466048e-01
622 5.9112087177861250e-01 4.2005895911399027e-01 5.9899477109314170e-01
623 5.9144389982587942e-01 6.7222562501991567e-01 2.0810475543200230e-01
624 5.9214447139879700e-01 1.8770779136672500e-01 1.1101605481225857e-01
625 5.9367823430722300e-01 8.8441081181099845e-01 7.6397637588713763e-01
626 5.9457950290301842e-01 4.0521818876042465e-01 6.9584490452775216e-01
627 5.9460112029673740e-01 4.1752681360642618e-01 1.5200003264379863e-01
628 5.9651567831075403e-01 8.8775851099847103e-01 1.0000000000000000e+00
629 5.9655940511558581e-01 6.5088147508167282e-01 1.2232255468133538e-01
630 5.9688315758165877e-01 1.9779018070528614e-01 2.8390363330162799e-01
631 5.9699619984637509e-01 0.0000000000000000e+00 3.8384213033862413e-01
632 6.0074648213074933e-01 1.2196086776806850e-01 7.1250011588615292e-01
633 6.0107552783480167e-01 7.3317338090460393e-01 7.3742651395821934e-01
634 6.0364232422231989e-01 1.0000000000000000e+00 2.2853813529715505e-01
635 6.0458801194462164e-01 6.7657432136343376e-01 2.9647300611600874e-01
636 6.0635452432671344e-01 0.0000000000000000e+00 6.5608563126048702e-01
637 6.0674474806341328e-01 0.0000000000000000e+00 0.0000000000000000e+00
638 6.0895614957857092e-01 1.9250089237875270e-01 8.8354716730552485e-01
639 6.1263659784222657e-01 4.0814549334868661e-01 2.6689020813105802e-01
640 6.1339768811850914e-01 7.5616095200980893e-01 0.0000000000000000e+00
641 6.1484743410717391e-01 8.8377726980347382e-01 1.2020684623122227e-01
642 6.1533225021672933e-01 7.6158031021033956e-01 1.0000000000000000e+00
643 6.1558276111549959e-01 1.0000000000000000e+00 0.0000000000000000e+00
644 6.1675210991261975e-01 0.0000000000000000e+00 2.8552827265039565e-01
645 6.1805436799925606e-01 5.0774819158797702e-01 5.3243978704874062e-01
646 6.1841636635911168e-01 8.5827349556140753e-01 4.8505867204906666e-01
647 6.1898282696057116e-01 5.2252565443107335e-01 7.3104523466458060e-01
648 6.2042041493609890e-01 5.0067354274851716e-01 8.2582217629629640e-01
649 6.2171861070427192e-01 6.5442086464206106e-01 5.8634013040083299e-01
650 6.2176172266755092e-01 7.2782856467024071e-01 3.8185744584586068e-01
651 6.2437170784553098e-01 2.7595501116423476e-01 5.3168553552665743e-01
652 6.2443508733132447e-01 0.0000000000000000e+00 1.0000000000000000e+00
653 6.2611009970470821e-01 2.8888037299904989e-01 7.5348348822861455e-01
654 6.2656099623545725e-01 4.6723163389517203e-01 3.8234134871312586e-01
655 6.2723413604780565e-01 8.6629824496807195e-01 2.4393611090382011e-01
656 6.2879513505298590e-01 6.2606846391279514e-01 3.9859599152060404e-01
657 6.2974141008872475e-01 7.7829052730047088e-01 2.6038454441022979e-01
658 6.3143687310314878e-01 3.0128429521157318e-01 3.8306373132963123e-01
659 6.3191486871790559e-01 4.0550547127468001e-01 7.8968483815577395e-01
660 6.3268175017307948e-01 1.1620944977191180e-01 5.7850714612003062e-01
661 6.3268385312398290e-01 0.0000000000000000e+00 8.2736059222405722e-01
662 6.3284519697970976e-01 7.3623715527681322e-01 5.5309371061146251e-01
663 6.3391806001610129e-01 8.5151619240429344e-01 8.4186936796734291e-01
664 6.3428976648029400e-01 8.8226520385159768e-01 0.0000000000000000e+00
665 6.3482941295892537e-01 0.0000000000000000e+00 1.4872563328345059e-01
666 6.3554179941567435e-01 8.1249853561678154e-01 7.3096184009621445e-01
667 6.3582441851240590e-01 3.5284610455512233e-01 8.6201557133268158e-01
668 6.3717315854594236e-01 3.9534025335365841e-01 1.0000000000000000e+00
669 6.3788846791068110e-01 6.5474575748293251e-01 7.7843277902921637e-01
670 6.3797913637952708e-01 1.0000000000000000e+00 7.1904942266526051e-01
671 6.3844666111692561e-01 6.3420531565075533e-01 6.9426064987759861e-01
672 6.3911631024888904e-01 2.0366995546175923e-01 4.4725944854708688e-01
673 6.3961919358496810e-01 1.0000000000000000e+00 4.1060729761971720e-01
674 6.4206609550612159e-01 5.6285255010975221e-01 3.4027927913125200e-01
675 6.4256135347485510e-01 0.0000000000000000e+00 7.2996857976541141e-01
676 6.4271171540155336e-01 6.9338828103646477e-01 8.7998757125467997e-01
677 6.4277106443503884e-01 1.1375003041386277e-01 1.0000000000000000e+00
678 6.4482636925241577e-01 1.0000000000000000e+00 1.4342038984192562e-01
679 6.4507584739209534e-01 2.4567811674015602e-01 0.0000000000000000e+00
680 6.4513100619995922e-01 4.8591507739885087e-01 1.5793411078088448e-01
681 6.4527284078725022e-01 3.4489341152898867e-01 4.8116370873546854e-01
682 6.4713855944371534e-01 7.3693382278019359e-01 1.7933950574318741e-01
683 6.4882346875124186e-01 0.0000000000000000e+00 5.2083986726348575e-01
684 6.4895953791738892e-01 4.9302729822956126e-01 6.1165675439268585e-01
685 6.5001697422241034e-01 8.2900307468341661e-01 6.2540217318326108e-01
686 6.5233108446152088e-01 1.0000000000000000e+00 8.6750975422282839e-01
687 6.5276054343263756e-01 4.1414644609276641e-01 5.3159690557663963e-01
688 6.5499021606287289e-01 7.5958333582765514e-01 4.6305975556763634e-01
689 6.5524592343988464e-01 3.0927103744006906e-01 1.9041167401364978e-01
690 6.5568771095195078e-01 1.9869012427058136e-01 1.0000000000000000e+00
691 6.5643255886232688e-01 0.0000000000000000e+00 0.0000000000000000e+00
692 6.5647114388006056e-01 0.0000000000000000e+00 2.3517344091340170e-01
693 6.5683330396255646e-01 2.6663381436500477e-01 8.3760714491989874e-01
694 6.5792184286523014e-01 5.3520072065729296e-01 0.0000000000000000e+00
695 6.5955345830240908e-01 7.0365413347833761e-01 6.5056008796586751e-01
696 6.6010104977854145e-01 4.4052920550042973e-01 0.0000000000000000e+00
697 6.6077600359652144e-01 5.7955593985240617e-01 5.5094419436047382e-01
698 6.6330121901105443e-01 3.2951017301673829e-01 3.0444525022691388e-01
699 6.6364879503846419e-01 2.2647012566644564e-01 6.9996565651919496e-01
700 6.6370108354296453e-01 1.0000000000000000e+00 3.2316712032159667e-01
701 6.6722808493565955e-01 4.7531358337594926e-01 1.0000000000000000e+00
702 6.6762023622180422e-01 3.5134403777379541e-01 0.0000000000000000e+00
703 6.6885855625721724e-01 1.9178801204793894e-01 6.2257398252251595e-01
704 6.6955665177569468e-01 6.1739153725991269e-01 1.0000000000000000e+00
705 6.7079800479198270e-01 5.4983899258238322e-01 8.9767714891246009e-01
706 6.7118788658777018e-01 1.0000000000000000e+00 1.0000000000000000e+00
707 6.7221396782302290e-01 1.0000000000000000e+00 5.3344512539251254e-01
708 6.7350447687974413e-01 1.5085477387376364e-01 1.5480744531527033e-01
709 6.7420001722748935e-01 0.0000000000000000e+00 3.4131837718122437e-01
710 6.7495276443087615e-01 1.7757628864299763e-01 7.8259547561695331e-01
711 6.7519104210216496e-01 0.0000000000000000e+00 6.0563718043273407e-01
712 6.7777857260072216e-01 7.0577419156750965e-01 0.0000000000000000e+00
713 6.7777942074240771e-01 4.1966287136677310e-01 4.3491191218299469e-01
714 6.7908814085634839e-01 5.2323271102474789e-01 4.7498177811717035e-01
715 6.8078845042789993e-01 3.5432670078407724e-01 6.7836938500680910e-01
716 6.8177579166629299e-01 2.4192876548736073e-01 1.4496213100208080e-01
717 6.8295889905026830e-01 8.9869645677219823e-01 7.8592799028081062e-01
718 6.8324603498133296e-01 1.2695415113491770e-01 3.3830555195744400e-01
719 6.8356516731781736e-01 1.2990325951286769e-01 4.2773715301615539e-01
720 6.8383125498343078e-01 7.6243889934870790e-01 8.1516134297225440e-01
721 6.8392939702216826e-01 6.9885436467109840e-01 0.0000000000000000e+00
722 6.8395231348654884e-01 2.0740188542973725e-01 3.1310797710418747e-01
723 6.8516679445283868e-01 6.6699141715387822e-01 4.7040993283838711e-01
724 6.8555245534676357e-01 3.9321220049532102e-01 2.2462062931303317e-01
725 6.9215268247710393e-01 5.5250805402933878e-01 6.7251163810948189e-01
726 6.9219895657959729e-01 2.1996607209004626e-01 5.4263598773528587e-01
727 6.9246471963686229e-01 8.3554437506009038e-01 3.6839170881503014e-01
728 6.9331420400663157e-01 5.5207550922616078e-01 7.6355304291669679e-01
729 6.9335864977330597e-01 1.0834805940130754e-01 6.9603577601940181e-01
730 6.9443430305429921e-01 1.0000000000000000e+00 4.7456198565772212e-01
731 6.9571499480767662e-01 2.7046525812236116e-01 1.0000000000000000e+00
732 6.9659664645155017e-01 4.6940011075422439e-01 2.9629595580822687e-01
733 6.9713906255125924e-01 0.0000000000000000e+00 8.1434989306297267e-01
734 7.0395717995452500e-01 6.3135709632729398e-01 6.3355714493491833e-01
735 7.0478568403861397e-01 0.0000000000000000e+00 1.0000000000000000e+00
736 7.0535517037954287e-01 0.0000000000000000e+00 4.4640982654439798e-01
737 7.0679278008013413e-01 4.8431019259433861e-01 8.1388100438099031e-01
738 7.0790253208084675e-01 1.0000000000000000e+00 6.6569179122746436e-01
739 7.0791156513905718e-01 8.8882369372275183e-01 1.0000000000000000e+00
740 7.0834159255692042e-01 1.2987163708867494e-01 0.0000000000000000e+00
741 7.0910575586990643e-01 1.0000000000000000e+00 1.6275339304957145e-01
742 7.0987725484203335e-01 6.6880549831925629e-01 2.0735751681601294e-01
743 7.0998530158752571e-01 3.7554834330420150e-01 8.0519540070138584e-01
744 7.1009997256874891e-01 6.0689673368114672e-01 0.0000000000000000e+00
745 7.1051514661682946e-01 6.9444831292367826e-01 1.0000000000000000e+00
746 7.1138492103123463e-01 7.5956339350167490e-01 5.3261380603610509e-01
747 7.1234304726481446e-01 3.5895211939053667e-01 0.0000000000000000e+00
748 7.1381055215608313e-01 7.8093681076978294e-01 1.0000000000000000e+00
749 7.1474648322548107e-01 3.8528738750691699e-01 1.0000000000000000e+00
750 7.1515657205448846e-01 1.0000000000000000e+00 6.0075336308173011e-01
751 7.1541327648447472e-01 6.7028493157765179e-01 5.5139817396142798e-01
752 7.1550654252324108e-01 8.1041304237121092e-01 1.2978349729309593e-01
753 7.1599050285387233e-01 0.0000000000000000e+00 1.2577766757174541e-01
754 7.1611675284326437e-01 8.0599236989996725e-01 2.1758014321826918e-01
755 7.1722588739764481e-01 4.4157179165048227e-01 8.8623013497218295e-01
756 7.1847785209798687e-01 7.8001239560968427e-01 6.6365287898253555e-01
757 7.1917251448202635e-01 6.1550514790641531e-01 3.3838986561006890e-01
758 7.2099391825531989e-01 8.0102255508946640e-01 0.0000000000000000e+00
759 7.2106739870952807e-01 1.8733981180916665e-01 2.3263125080698677e-01
760 7.2170841472113101e-01 5.6469610218332356e-01 1.3777354665322289e-01
761 7.2387078624738588e-01 2.7667669490759650e-01 7.8025837534000497e-01
762 7.2490403222034017e-01 3.2778126692054627e-01 5.7725248820104702e-01
763 7.2573212521302910e-01 1.0000000000000000e+00 8.1300246955071565e-01
764 7.2728854479223304e-01 0.0000000000000000e+00 6.0936800216612330e-01
765 7.2800439498449965e-01 1.0023850450557278e-01 5.1270647560155980e-01
766 7.2901143062981622e-01 1.0000000000000000e+00 2.7026433644375020e-01
767 7.2903407265625131e-01 0.0000000000000000e+00 2.7119847018363252e-01
768 7.2970171724140731e-01 4.8054859284661189e-01 1.7874418507610088e-01
769 7.3030196700252870e-01 1.0000000000000000e+00 0.0000000000000000e+00
770 7.3056022353420713e-01 7.0757903954287138e-01 3.0612300073797671e-01
771 7.3085271340148705e-01 1.0000000000000000e+00 0.0000000000000000e+00
772 7.3096212615733824e-01 7.1254413306475239e-01 7.3714719152020525e-01
773 7.3322228220445596e-01 1.0000000000000000e+00 8.9814807316770928e-01
774 7.3524280072954529e-01 6.1411645165850093e-01 8.1667901954600830e-01
775 7.3611796296052978e-01 5.5794140388514391e-01 2.5052266235147508e-01
776 7.3670013040399651e-01 3.0208911241324532e-01 0.0000000000000000e+00
777 7.3673419563757014e-01 1.4874643247917324e-01 8.6704519361560062e-01
778 7.3704498578868183e-01 3.0239380321356407e-01 4.0166473106007816e-01
779 7.3746043059280419e-01 4.5946037317702471e-01 0.0000000000000000e+00
780 7.4393222503531664e-01 1.0000000000000000e+00 7.1910096728668749e-01
781 7.4552335991018148e-01 8.7702965431772795e-01 8.7675394807707052e-01
782 7.4853465351382509e-01 1.0000000000000000e+00 4.3690269542151239e-01
783 7.5030901017250307e-01 3.0274697496795350e-01 8.6996419502128597e-01
784 7.5087275877697768e-01 4.4733169846709187e-01 5.8267666781766103e-01
785 7.5272116072234341e-01 1.1339876356818335e-01 1.0000000000000000e+00
786 7.5418277995096661e-01 5.3109363989758962e-01 3.4164490294011302e-01
787 7.5459376131195077e-01 8.2572169886803526e-01 2.9068040566587949e-01
788 7.5461019902817306e-01 1.5226140462391968e-01 1.0655953900699530e-01
789 7.5520159258273534e-01 8.4060499690771084e-01 4.6026522241573636e-01
790 7.5625110002829232e-01 5.4643959235272277e-01 4.2471163231663150e-01
791 7.5670405430930343e-01 3.8064555791285393e-01 7.2941225492703388e-01
792 7.5854382401859777e-01 2.0204765106013392e-01 8.0470245830365428e-01
793 7.5863506278653625e-01 3.0922268236273404e-01 6.5739831690595341e-01
794 7.5902090460238303e-01 0.0000000000000000e+00 3.7381908414455695e-01
795 7.5904984889156424e-01 7.7331593029502377e-01 3.8354693180990407e-01
796 7.5929354074985866e-01 7.0228102138493598e-01 8.4236930429170997e-01
797 7.5973367254305135e-01 2.0197785557989872e-01 4.2883667429214889e-01
798 7.6010954117676421e-01 0.0000000000000000e+00 4.1042820690507115e-01
799 7.6431129371233619e-01 5.3052106950700317e-01 5.8490180275655124e-01
800 7.6468821385805330e-01 1.2781233985271845e-01 7.4964000492455707e-01
801 7.6632814111686609e-01 6.1326118642115535e-01 4.9510385788518652e-01
802 7.6690866255087786e-01 2.6585713402673256e-01 2.1648278837982121e-01
803 7.6713001922456581e-01 8.9273497689083137e-01 0.0000000000000000e+00
804 7.7149843861543510e-01 1.0000000000000000e+00 2.5748299960479010e-01
805 7.7443197055722857e-01 4.6638948076729514e-01 6.7792721844528847e-01
806 7.7472002318688571e-01 8.6681878032594351e-01 3.6405399161118224e-01
807 7.7517636527390144e-01 2.2983619072506953e-01 1.0000000000000000e+00
808 7.7595440837127683e-01 0.0000000000000000e+00 0.0000000000000000e+00
809 7.7701795835252663e-01 2.2296357681509221e-01 6.8191292314205276e-01
810 7.7752676203970916e-01 4.3947942948549445e-01 0.0000000000000000e+00
811 7.7909521098730772e-01 3.2330774843631843e-01 2.8126831074532188e-01
812 7.8019448665685298e-01 0.0000000000000000e+00 7.7595485915879969e-01
813 7.8022303218349620e-01 0.0000000000000000e+00 6.7254218476389438e-01
814 7.8046680053625594e-01 4.4494776492359822e-01 7.8853764556967176e-01
815 7.8128062571327273e-01 1.9008531775144663e-01 3.4785949461647087e-01
816 7.8147447003638859e-01 7.2341495876280670e-01 0.0000000000000000e+00
817 7.8188061103896278e-01 5.8202367854731007e-01 8.8804944577812661e-01
818 7.8265621458469670e-01 8.0073342512512902e-01 7.4419477818455571e-01
819 7.8431420811665120e-01 1.7881611985641752e-01 5.6103704353160921e-01
820 7.8431552708571806e-01 4.0843134326188613e-01 4.1843506806560116e-01
821 7.8532513090037592e-01 3.9680895835342478e-01 1.0000000000000000e+00
822 7.8748822490600590e-01 4.4327774550032134e-01 3.3084344757406520e-01
823 7.9010290175631825e-01 1.3120631544330516e-01 1.9131493884079415e-01
824 7.9085081828829973e-01 5.5939334530813278e-01 1.8567276216518980e-01
825 7.9114527519351097e-01 0.0000000000000000e+00 8.5061127167298023e-01
826 7.9228743609374608e-01 6.8373999437962740e-01 1.1567615683231391e-01
827 7.9240706297699837e-01 6.6001518259931968e-01 5.9570667905479446e-01
828 7.9317489414417386e-01 0.0000000000000000e+00 5.5118550405375311e-01
829 7.9323857722076829e-01 3.7597260213414102e-01 1.0369678445983385e-01
830 7.9385422450256682e-01 6.5979984778122902e-01 7.0053178957121665e-01
831 7.9591351209650485e-01 7.1228515407178217e-01 4.4655692831230448e-01
832 7.9668025667089937e-01 7.3889923783244238e-01 2.4271645653827714e-01
833 7.9720928333872598e-01 1.0000000000000000e+00 5.8456931585941496e-01
834 7.9850014214750287e-01 5.1250472932986257e-01 1.0000000000000000e+00
835 7.9958785922487108e-01 5.4665918550223769e-01 7.5201907404501822e-01
836 8.0063271973198580e-01 0.0000000000000000e+00 2.0244443761464326e-01
837 8.0116022804122522e-01 8.6485046862057946e-01 1.5179185262558959e-01
838 8.0217414343460947e-01 8.3926844760027886e-01 5.5012265618438705e-01
839 8.0327725419982920e-01 7.9315628470215926e-01 1.0000000000000000e+00
840 8.0406586824799564e-01 2.0296912986997745e-01 0.0000000000000000e+00
841 8.0549501826187375e-01 3.2723040657881747e-01 5.1686234624142735e-01
842 8.0647184356353407e-01 4.0296704395438593e-01 1.8808009459132508e-01
843 8.0801544971527761e-01 8.8479075587559564e-01 1.0000000000000000e+00
844 8.0825241637858547e-01 0.0000000000000000e+00 1.0000000000000000e+00
845 8.1471774672507280e-01 0.0000000000000000e+00 2.6734632082050186e-01
846 8.1542229946514611e-01 7.0662734782813941e-01 1.0000000000000000e+00
847 8.1590809556261612e-01 1.0000000000000000e+00 1.8043418092535177e-01
848 8.1619387229834295e-01 2.5984836531628885e-01 5.7422815463533194e-01
849 8.1659170566683781e-01 1.0000000000000000e+00 3.4295671827646057e-01
850 8.1928055572280256e-01 7.8569746195349577e-01 6.6916419549486372e-01
851 8.1959929281841681e-01 1.0000000000000000e+00 0.0000000000000000e+00
852 8.2035135970714268e-01 3.0239314303849746e-01 0.0000000000000000e+00
853 8.2214752698274307e-01 1.0000000000000000e+00 1.0000000000000000e+00
854 8.2260807890260490e-01 4.9562217149488147e-01 5.2169693723488231e-01
855 8.2309371008763754e-01 0.0000000000000000e+00 3.0422185946810204e-01
856 8.2330069010736173e-01 4.5976458696686784e-01 8.6021015535408030e-01
857 8.2392726780347503e-01 2.7727766080056132e-01 8.2681977355547076e-01
858 8.2399259260831736e-01 5.9527113293427747e-01 2.6408604520929757e-01
859 8.2780768950639505e-01 1.0000000000000000e+00 6.5197715342763707e-01
860 8.3158166991624349e-01 3.2842033341722976e-01 3.9860282374281814e-01
861 8.3389435976314941e-01 1.6160416721190057e-01 7.1099254683758217e-01
862 8.3412220392782710e-01 6.5023290653214516e-01 3.9633663073349423e-01
863 8.3453057522904273e-01 8.8145662727040153e-01 7.4163231494745474e-01
864 8.3803598864015649e-01 1.0720320926052698e-01 3.4899586560479273e-01
865 8.3851195291270120e-01 5.1249878702611085e-01 2.7177897605958840e-01
866 8.4097105871546718e-01 1.2520896614347415e-01 6.3404394781192708e-01
867 8.4163396040207406e-01 1.0000000000000000e+00 0.0000000000000000e+00
868 8.4223684373879237e-01 7.4534103607080671e-01 5.6888730193653558e-01
869 8.4386059491893517e-01 6.7410294183551178e-01 2.8888401901342442e-01
870 8.4396398188227040e-01 5.7653221990777748e-01 1.0000000000000000e+00
871 8.4522736939564080e-01 1.5809592982362425e-01 8.4520489784377340e-01
872 8.4549168910495243e-01 1.1412913058802256e-01 5.3059886911110643e-01
873 8.4568808867201106e-01 6.0953972298760717e-01 0.0000000000000000e+00
874 8.4614432584054733e-01 2.2053875864931285e-01 1.0000000000000000e+00
875 8.4625982045599546e-01 5.6775253581518981e-01 5.6043603968966005e-01
876 8.4651487864321373e-01 4.7657815164571787e-01 1.7324672259736607e-01
877 8.4724712739942154e-01 4.9985926579790174e-01 0.0000000000000000e+00
878 8.4953567385542172e-01 4.2589508157805844e-01 5.8196494313194447e-01
879 8.4991510427961581e-01 8.9352795724730161e-01 8.2606228994515074e-01
880 8.5329363151157667e-01 8.1914023064900798e-01 0.0000000000000000e+00
881 8.5442510354789614e-01 6.6094677829774884e-01 2.0567590236394129e-01
882 8.5493542137403167e-01 5.7413913321660404e-01 6.7565961734529234e-01
883 8.5574978819642944e-01 0.0000000000000000e+00 1.2919771670893734e-01
884 8.5606059191531536e-01 0.0000000000000000e+00 7.1013854048645364e-01
885 8.5608269527301506e-01 4.9523697297509894e-01 3.8303500421044301e-01
886 8.5659975520034493e-01 8.0191833585737204e-01 1.9369965193890895e-01
887 8.5671429328965476e-01 2.6535777578216069e-01 1.2357949909488572e-01
888 8.5682658331183792e-01 7.8669035850159597e-01 4.4274440790490865e-01
889 8.5735324168155902e-01 3.5378164225087666e-01 1.0000000000000000e+00
890 8.5801316630080682e-01 3.9084191304368265e-01 0.0000000000000000e+00
891 8.5807895336601681e-01 3.5378434968254502e-01 6.4975110527756352e-01
892 8.5853738041744798e-01 6.7539222939684096e-01 7.5998274672663935e-01
893 8.6163238369424089e-01 3.1597874135634751e-01 7.3298600105266165e-01
894 8.6291557314309897e-01 2.0921683899329069e-01 4.2533958731169874e-01
895 8.6407763048091779e-01 2.6679051972771761e-01 4.8754352223716585e-01
896 8.6689897310026964e-01 3.4994214673523683e-01 1.3775701878949503e-01
897 8.6721634392978708e-01 1.3122665082294999e-01 1.5062178793550707e-01
898 8.6798590616828797e-01 8.8881376519539490e-01 4.1717147971338686e-01
899 8.6912399536585228e-01 8.0054706142401688e-01 3.3327731220864321e-01
900 8.6921026305681892e-01 3.1601309116650395e-01 2.9648600591936702e-01
901 8.6937770538260872e-01 3.6869442909567185e-01 8.1970533164623338e-01
902 8.7016348399962062e-01 6.3120600452864406e-01 1.2757132003938038e-01
903 8.7051508783968479e-01 1.4970544901845251e-01 1.0000000000000000e+00
904 8.7262144759721594e-01 0.0000000000000000e+00 7.8199003857700811e-01
905 8.7342536185695840e-01 6.5462174571802201e-01 8.9673295827333821e-01
906 8.7375370094719673e-01 4.7123391382941304e-01 6.6762645288732125e-01
907 8.7512396939001214e-01 0.0000000000000000e+00 4.4512492475024540e-01
908 8.7665689502396260e-01 7.4586026043030562e-01 8.1033446366419737e-01
909 8.7701613674783419e-01 0.0000000000000000e+00 8.7187177511159863e-01
910 8.7733164720464984e-01 8.4765983474338558e-01 5.0775570740663856e-01
911 8.7785024688031055e-01 7.0141747646544894e-01 0.0000000000000000e+00
912 8.8069922040902537e-01 2.0126249773431637e-01 5.6606864000609414e-01
913 8.8182498373075124e-01 7.1805389797754549e-01 4.8713228386063229e-01
914 8.8204844714756780e-01 0.0000000000000000e+00 6.0656343806213520e-01
915 8.8317128630365649e-01 1.0000000000000000e+00 8.7974745956728018e-01
916 8.8363744850707304e-01 1.0000000000000000e+00 5.2244144046064633e-01
917 8.8403130167768884e-01 5.3762058934544643e-01 8.2993194086680633e-01
918 8.8428419195284058e-01 1.9958479754236613e-01 0.0000000000000000e+00
919 8.8563037565548586e-01 8.6480959227730803e-01 2.6552521893384901e-01
920 8.8644301892564037e-01 5.5672567188137123e-01 2.0324482402435678e-01
921 8.8702577628076318e-01 4.4848390530869447e-01 4.8642125990901697e-01
922 8.8981622550394068e-01 0.0000000000000000e+00 1.0000000000000000e+00
923 8.9027394160537421e-01 2.3399399235843960e-01 7.8191523113876371e-01
924 8.9083757501336369e-01 1.7111648838916160e-01 2.3884985166559572e-01
925 8.9200049286224325e-01 4.4453002218174253e-01 7.8435480758591003e-01
926 8.9287325193458411e-01 1.1297905242925589e-01 0.0000000000000000e+00
927 8.9526783771554108e-01 8.6808679661391230e-01 1.0000000000000000e+00
928 8.9798731313657787e-01 7.5498385298749549e-01 1.0000000000000000e+00
929 8.9887181019102136e-01 2.8286001514770054e-01 2.1875986439142697e-01
930 8.9974342496906445e-01 7.2659594647593639e-01 6.6554825297676812e-01
931 1.0000000000000000e+00 1.0000000000000000e+00 0.0000000000000000e+00
932 1.0000000000000000e+00 8.1307672242994422e-01 7.5696061522059521e-01
933 1.0000000000000000e+00 0.0000000000000000e+00 3.6190442386617772e-01
934 1.0000000000000000e+00 1.0000000000000000e+00 4.0709200065529444e-01
935 1.0000000000000000e+00 4.6784142256356648e-01 1.0000000000000000e+00
936 1.0000000000000000e+00 1.0000000000000000e+00 7.4137083067790888e-01
937 1.0000000000000000e+00 8.8072357782342769e-01 6.1058768503123939e-01
938 1.0000000000000000e+00 2.8367017596363531e-01 6.0147313359152099e-01
939 1.0000000000000000e+00 5.9644599837146961e-01 7.4286338286670683e-01
940 1.0000000000000000e+00 3.6848212774338779e-01 4.0101538320331248e-01
941 1.0000000000000000e+00 7.5556886041326177e-01 1.0757323286161026e-01
942 1.0000000000000000e+00 2.1258078031426139e-01 3.4308992086665280e-01
943 1.0000000000000000e+00 8.1017520204464766e-01 1.0000000000000000e+00
944 1.0000000000000000e+00 2.4784926942746333e-01 1.0000000000000000e+00
945 1.0000000000000000e+00 6.0244160140996750e-01 4.3698253167468748e-01
946 1.0000000000000000e+00 1.7204255206848065e-01 6.9806514085482485e-01
947 1.0000000000000000e+00 1.0762534209865965e-01 8.2810148067054079e-01
948 1.0000000000000000e+00 4.7381593414927969e-01 1.0000000000000000e+00
949 1.0000000000000000e+00 3.2217380592068828e-01 1.0000000000000000e+00
950 1.0000000000000000e+00 1.0000000000000000e+00 1.7988896438712559e-01
951 1.0000000000000000e+00 5.3090350807340747e-01 5.0507551111175919e-01
952 1.0000000000000000e+00 6.1796149790848975e-01 1.0000000000000000e+00
953 1.0000000000000000e+00 1.1641968131860823e-01 1.0000000000000000e+00
954 1.0000000000000000e+00 2.4998056038736852e-01 8.7580150905390852e-01
955 1.0000000000000000e+00 4.6784137413996157e-01 2.8209816526308418e-01
956 1.0000000000000000e+00 2.8581883964402915e-01 0.0000000000000000e+00
957 1.0000000000000000e+00 8.5772490411187352e-01 8.5127492224470969e-01
958 1.0000000000000000e+00 5.4316422570529388e-01 3.7255933923186929e-01
959 1.0000000000000000e+00 1.0000000000000000e+00 1.0000000000000000e+00
960 1.0000000000000000e+00 5.7766772738806704e-01 0.0000000000000000e+00
961 1.0000000000000000e+00 1.1039503257222158e-01 5.3679718452376468e-01
962 1.0000000000000000e+00 4.3098433147792670e-01 1.3852085521444607e-01
963 1.0000000000000000e+00 5.1098320723074397e-01 1.0547695895956734e-01
964 1.0000000000000000e+00 3.6101534478455388e-01 5.1741774810951147e-01
965 1.0000000000000000e+00 0.0000000000000000e+00 2.5084819025119165e-01
966 1.0000000000000000e+00 6.9275228711234971e-01 1.6300976729458963e-01
967 1.0000000000000000e+00 0.0000000000000000e+00 0.0000000000000000e+00
968 1.0000000000000000e+00 3.8530226237847648e-01 2.5971723675991548e-01
969 1.0000000000000000e+00 5.2917554634449948e-01 6.8961414392279263e-01
970 1.0000000000000000e+00 7.8779098022239669e-01 5.0187845468094061e-01
971 1.0000000000000000e+00 6.4021051994891953e-01 6.3613645529603424e-01
972 1.0000000000000000e+00 0.0000000000000000e+00 1.2924671370106802e-01
973 1.0000000000000000e+00 5.7968096326433316e-01 2.6725934031957144e-01
974 1.0000000000000000e+00 6.9450264397979911e-01 5.5866353857318496e-01
975 1.0000000000000000e+00 5.6937055337296139e-01 5.8541523955985197e-01
976 1.0000000000000000e+00 1.0000000000000000e+00 2.8918412317044001e-01
977 1.0000000000000000e+00 1.0000000000000000e+00 0.0000000000000000e+00
978 1.0000000000000000e+00 7.0930886467419574e-01 1.0000000000000000e+00
979 1.0000000000000000e+00 2.6561892529778625e-01 1.4835342001555490e-01
980 1.0000000000000000e+00 5.7313780935898540e-01 1.0000000000000000e+00
981 1.0000000000000000e+00 7.6390635875053248e-01 3.1619061369772977e-01
982 1.0000000000000000e+00 8.9879682185689946e-01 1.0000000000000000e+00
983 1.0000000000000000e+00 7.5783920758472911e-01 2.2306282914797324e-01
984 1.0000000000000000e+00 7.9249345642875546e-01 4.0844165872481525e-01
985 1.0000000000000000e+00 3.7916234927471387e-01 0.0000000000000000e+00
986 1.0000000000000000e+00 8.7778298624294782e-01 1.4339596144651914e-01
987 1.0000000000000000e+00 1.3515277508310664e-01 6.1454911173601867e-01
988 1.0000000000000000e+00 8.7842644796011826e-01 4.5449386296205302e-01
989 1.0000000000000000e+00 5.8152407463692113e-01 1.6290402510776977e-01
990 1.0000000000000000e+00 6.6991554830474986e-01 3.2786554011666263e-01
991 1.0000000000000000e+00 6.5225851420931058e-01 0.0000000000000000e+00
992 1.0000000000000000e+00 6.3415067771674705e-01 8.0461514272920087e-01
993 1.0000000000000000e+00 4.6086614827077022e-01 4.2882030897773687e-01
994 1.0000000000000000e+00 3.7847423033024308e-01 6.0782281760467705e-01
995 1.0000000000000000e+00 7.6389982592484984e-01 8.2335573343410551e-01
996 1.0000000000000000e+00 6.7328304861896093e-01 4.1402147343420459e-01
997 1.0000000000000000e+00 8.3191274386190317e-01 6.7763232623329661e-01
998 1.0000000000000000e+00 1.1503662784014296e-01 1.2009962284345044e-01
999 1.0000000000000000e+00 3.7376497489760724e-01 7.0084210637725497e-01
1000 1.0000000000000000e+00 4.0390109215529907e-01 1.0000000000000000e+00
1001 1.0000000000000000e+00 1.4385770381436339e-01 2.4172340120819533e-01
1002 1.0000000000000000e+00 2.3258278415258848e-01 7.3643932697318237e-01
1003 1.0000000000000000e+00 1.8726013268186978e-01 0.0000000000000000e+00
1004 1.0000000000000000e+00 0.0000000000000000e+00 8.6845053223236834e-01
1005 1.0000000000000000e+00 0.0000000000000000e+00 4.2572651288576585e-01
1006 1.0000000000000000e+00 2.6135876325340401e-01 4.6691555344195257e-01
1007 1.0000000000000000e+00 1.3474009470517120e-01 4.6681232426890185e-01
1008 1.0000000000000000e+00 0.0000000000000000e+00 5.6176617460988698e-01
1009 1.0000000000000000e+00 3.3774583581123163e-01 8.4089490225205776e-01
1010 1.0000000000000000e+00 0.0000000000000000e+00 7.2354691498949752e-01
1011 1.0000000000000000e+00 4.9830937306177270e-01 0.0000000000000000e+00
1012 1.0000000000000000e+00 4.5687846327741477e-01 5.6053300386803451e-01
1013 1.0000000000000000e+00 8.6839974165286860e-01 7.7211334060721004e-01
1014 1.0000000000000000e+00 0.0000000000000000e+00 3.5350143113912275e-01
1015 1.0000000000000000e+00 1.7791316604049262e-01 8.0440965769909101e-01
1016 1.0000000000000000e+00 2.9979597333108310e-01 3.7729192148682178e-01
1017 1.0000000000000000e+00 4.5459308471002347e-01 8.5586622597915751e-01
1018 1.0000000000000000e+00 5.9701499439450101e-01 7.0655003854195919e-01
1019 1.0000000000000000e+00 1.0000000000000000e+00 8.2876374819088072e-01
1020 1.0000000000000000e+00 1.0000000000000000e+00 5.1836528261263881e-01
1021 1.0000000000000000e+00 1.0000000000000000e+00 3.8313294586555757e-01
1022 1.0000000000000000e+00 6.2537608910107578e-01 5.4013090909192185e-01
1023 1.0000000000000000e+00 8.4064072221300079e-01 5.5532581625514865e-01
1024 1.0000000000000000e+00 1.0000000000000000e+00 8.9565711342217735e-01
1025 1.0000000000000000e+00 2.3300864880585961e-01 5.9710254294474097e-01
1026 1.0000000000000000e+00 3.3206796631247532e-01 2.1462132750705512e-01
1027 1.0000000000000000e+00 1.7466886085554595e-01 3.9162355135481142e-01
1028 1.0000000000000000e+00 4.8777211676910165e-01 1.6770566011943866e-01
1029 1.0000000000000000e+00 1.1138335840481250e-01 7.4533853931814598e-01
1030 1.0000000000000000e+00 5.7235918868410807e-01 4.6107529753131921e-01
1031 1.0000000000000000e+00 6.5005953469866828e-01 2.1031980045200271e-01
1032 1.0000000000000000e+00 2.3275537628316245e-01 3.0306208805590323e-01
1033 1.0000000000000000e+00 8.1287513279938695e-01 0.0000000000000000e+00
1034 1.0000000000000000e+00 1.0000000000000000e+00 6.9788698782968028e-01
1035 1.0000000000000000e+00 1.9747427728858730e-01 1.0000000000000000e+00
1036 1.0000000000000000e+00 6.5925603378106556e-01 1.0000000000000000e+00
1037 1.0000000000000000e+00 4.2869803433855436e-01 7.7612860207387246e-01
1038 1.0000000000000000e+00 8.3390580436479567e-01 1.0000000000000000e+00
1039 1.0000000000000000e+00 3.9546815838635174e-01 3.7379862065008934e-01
1040 1.0000000000000000e+00 7.7515538284916097e-01 7.3574466902087843e-01
1041 1.0000000000000000e+00 5.1667643865526736e-01 7.6010349618970696e-01
1042 1.0000000000000000e+00 0.0000000000000000e+00 0.0000000000000000e+00
1043 1.0000000000000000e+00 0.0000000000000000e+00 1.0000000000000000e+00
1044 1.0000000000000000e+00 1.0000000000000000e+00 0.0000000000000000e+00
1045 1.0000000000000000e+00 1.0000000000000000e+00 1.0000000000000000e+00
