1725  4  0
    0     384   148   184   381
    1     228   227    82   212
    2      96    34   409   402
    3     405    76   179   406
    4     278   399   324   296
    5      31   216   408   170
    6     324   399   120   253
    7     383   230   150   370
    8     127   130    43    75
    9     271   179   380   344
   10     165   269   362   212
   11     323   220   117    64
   12      41   180   322   233
   13      73   127   258    17
   14     381    76   120   184
   15     264   141   292   297
   16     143   280   300   383
   17     133   211   201    36
   18      93   190   147   331
   19     229   128   236   266
   20     390   152   319   190
   21     274   287   295    25
   22     224   296   324   253
   23     278   296   324   224
   24     335    16   200   193
   25     327   376    39   205
   26      16   330   335   301
   27     193   376    16   330
   28     195   214   104   213
   29      71   358   208    95
   30     193   330   131   376
   31     324   209   158   378
   32     119   102     1   185
   33     358   135    71    50
   34     397   194   389   146
   35     362   410   136   107
   36     389   397    84   109
   37     390   303    88   334
   38     133   379    20   372
   39     391   207   374   343
   40      88    30   340   319
   41      57    19    81    95
   42     388   168   233   124
   43      65   327   202    62
   44     312   386   290    30
   45     362   168   107   212
   46     103   109   123   178
   47     247   275   114     0
   48     178   173   137     8
   49     175   108   241   110
   50     166   194   146    74
   51     217    94   225    77
   52     275   115   202    58
   53     330    58   202   115
   54     205   110   202    58
   55     170   187   202    65
   56      42   406   344   266
   57     335   376   200    63
   58     109   134   353   218
   59     131   205   364   376
   60     408   216   118   170
   61     235   189   192    47
   62     304   274   295   409
   63     263   140   152    43
   64     281   237    35    96
   65      43   110   152   263
   66     218   281   164   237
   67     205    58   202   330
   68     374   343   198   391
   69      37   397   218   199
   70      96   237    35   153
   71     320   398   321   267
   72     197    38   308   288
   73      34   346   298   295
   74     236   266    90   344
   75     309   387   352   371
   76     345   248    32   379
   77     388   403   309   168
   78     270   236   380   406
   79     368   276    59   183
   80     237   138    96   281
   81     244   234    97   329
   82      43   127   101   130
   83     118   379   248    64
   84      45   220   133   372
   85     229   184   266   406
   86     133   267   201   321
   87     128     9   228   158
   88     247   167   187   275
   89     184   227   105   229
   90     118    64   248    62
   91     118    62   248   170
   92     275    58   202   187
   93     388   326   369   111
   94     410   362   309   403
   95     135   101   159   339
   96     309   387   161   182
   97     250   108   328   246
   98     250   328   235   260
   99     215   192   375   145
  100     366   213    33   194
  101     205   376    39   364
  102     356   303   393    88
  103     394   365   194   281
  104     321   211   201   133
  105     187    31    75   408
  106     209   278   324   224
  107      48   134    68   353
  108     196   135    19   101
  109     342    83   215    28
  110     250    52   260   127
  111     239   149    29    77
  112     116   170   118   216
  113     289   180   124   226
  114     261   365   409   402
  115     222   183   113    59
  116     177   391   198   343
  117     152   101   319   190
  118      80    55    26    94
  119      56   310   136   410
  120     143   383   300   230
  121      66    67    10   150
  122     268   399   120   334
  123     263   205   364   131
  124     187   110   172    58
  125     196   127   189   258
  126     187   181    75    31
  127     298    17   245   272
  128     311   371    11   352
  129     182   168   391   309
  130     254    93    13   315
  131     182   237    50   165
  132     312   259   290   386
  133     205   175   131   263
  134      43   108   250   110
  135      50    96    71   358
  136      96   153   358    50
  137      50   135    71    34
  138     195   294    83    46
  139     224   296    70   278
  140     207   226   322    91
  141     393   227   212    88
  142     236   406    22   148
  143     264    46   194    74
  144     263   110   152   205
  145     152   110    65   205
  146     362   410    29   136
  147     101   331   152   130
  148     380   344    90   403
  149     363   174   341   367
  150     399   253   106   268
  151     265   286   338     2
  152     215    47   192   189
  153     163   311   121   387
  154      99   259   278   399
  155     192   328   156   122
  156     302   174   341   282
  157     282   259   290   312
  158      99   399   278   296
  159     408   379   118   216
  160     114   187   172   275
  161     299   407   345   248
  162     340    82   277   227
  163     149   353   225   217
  164     218   199   139    37
  165     319   140   307   355
  166     367   262   302   383
  167     256   103    66    67
  168     355   188   340   351
  169     118    64   372   379
  170     205   376   131   330
  171      50   153   358   165
  172     292   213   366   297
  173     263   140   390   152
  174     327   152    65   205
  175     123   178    57   154
  176     346   321    87   304
  177      19   135   358    50
  178     108    58   172   110
  179     190   101   339   331
  180     315    63   242   303
  181     170   167   116    62
  182      31   247   116   170
  183     331   407   327   248
  184     135   159   258    34
  185     351   190   356    88
  186     200   376   268    63
  187     247   167   116   170
  188     170   216   116    31
  189     370   262   150   383
  190     175   131   364   348
  191      16   376   335   330
  192     323   357   322    91
  193     115   167     0   275
  194     170   167   187   247
  195     247    31   187   170
  196     167   275   247     0
  197     407   248   299   327
  198     125   190   339   147
  199     346   272   258   298
  200     226   124   207   233
  201     248    64   299    62
  202     346   321   304   151
  203     321   357   220   320
  204     276   183    85   257
  205     149   153    35   237
  206     408   216   251   379
  207       0   167   116   247
  208     364   285    99   386
  209     148   184   105   229
  210      88   351   340    82
  211     101   331   190   152
  212     405   406   344    42
  213      76   384   184   381
  214     324   224   105   209
  215      31   170   408   187
  216      52    53    75    31
  217     125   269    50   165
  218     116    62   118   170
  219     301   376    63   327
  220     118   408   248   379
  221     290   169   244   280
  222      58   110   202   187
  223     322    41   162   147
  224     147   226   322   180
  225      75   187    65   110
  226     170   408   248   118
  227     268   193    99   364
  228      32   211    73   159
  229     319   101    19   190
  230      32   331   339   130
  231     320   411   412   401
  232     319   190    19   351
  233     194   365    33   281
  234     317   411   412   320
  235     130    43   152   101
  236      31   216   251   408
  237     257   183    85    54
  238     165   125    19   135
  239      81   196   235    47
  240     349   261   402   138
  241      46   294   297   195
  242     159   162    34   135
  243      53    17    52   127
  244     114   181   172   187
  245     192   257   156   235
  246     189   283   215   195
  247     328   260   122   192
  248     200   193    60   268
  249     201   321    87   346
  250     258   298   189   196
  251      58   275   172   187
  252     118   216    20   116
  253     249   177    18   163
  254     196   298   189   279
  255     187    31   114   181
  256     247    31   114   187
  257     187   275   114   247
  258     341   280    27   363
  259     205    58   131   175
  260      52    31    75   181
  261     205   330   131    58
  262     268   334    39   364
  263     219   250   260   328
  264      53   127    75   130
  265      52   127    75    53
  266     290   259   361   386
  267     130   408    75    53
  268     251    53    75   408
  269      31    53    75   251
  270     251   408    75    31
  271     258   127   189    17
  272     187   181   172    75
  273      75   110   172   187
  274     196   279    71   258
  275     205    58   175   110
  276     154   103    66   256
  277     175   110   263   205
  278     327   248   299    62
  279      76   406   405   184
  280     301   115   202    62
  281     356   303   405   393
  282     350   283   145   189
  283     108   110   175    58
  284     143    92   392   280
  285     237   153    50   165
  286      65   187   202   110
  287      16   193   335   376
  288     135   125    19   339
  289     189   196   235   127
  290     250   181    21    52
  291     329    54    85   183
  292     158    79   238   277
  293     248   379   345    64
  294     334    30    88   390
  295     190    88   351   319
  296      93   180   147   125
  297      76   303   242   120
  298      88   390   319   190
  299     388   233   391   369
  300     285   259    99   399
  301     268   193   364   376
  302     157   148    86   253
  303     162   147   339    32
  304     341   363    27   290
  305     307    54   244   169
  306     254   303   405    93
  307      93   254   289   405
  308      62   327    63   299
  309     374   207   322    91
  310     254    76   289   405
  311     374   391   198   177
  312     227   229   266   128
  313     320   267   321   411
  314     149   109   225   353
  315     289    93   180    13
  316      42   168   344   180
  317     315   303   242   254
  318     248   130    65   331
  319     248   331    65   327
  320     327    62    65   248
  321     205   327   202    65
  322      65    62   202   170
  323     386   307   244   290
  324     301   327    63    62
  325     301    62   202   327
  326     184   227   393   324
  327      65   110   202   205
  328     152   331    65   130
  329     327   331    65   152
  330     330    16   306   301
  331      43   110    65   152
  332     248    62    65   170
  333     157   253   337    70
  334     200   193   268   376
  335      76   184   405   120
  336     169   230   370    44
  337     301   330   335   376
  338     152   130    65    43
  339      75   130    65   408
  340      75   408    65   187
  341      75   110    65    43
  342      43   130    65    75
  343     408   170    65   187
  344     408   130    65   248
  345     248   170    65   408
  346     184   324   120   253
  347     268   106    60   129
  348      15   175   241   263
  349     106   268    60   193
  350     301   376   202   330
  351     205   330   202   376
  352     301   327   202   376
  353     205   376   202   327
  354     170   167   202   187
  355     170    62   202   167
  356     115   167   202    62
  357     306   330   202   115
  358     301   330   202   306
  359     306   115   202   301
  360     275   167   202   115
  361     187   167   202   275
  362     335   376    63   301
  363     303   268   242   120
  364     335   193   200   376
  365     175   263   364   131
  366     244   169   300   280
  367     212   351   125   356
  368     260   127   350   235
  369      83   132   113   173
  370     405    93   180   289
  371     334   386   390   364
  372     364   386   390   140
  373     393   303   405   120
  374     348   263   364   175
  375     364   140   390   263
  376     386   334    99   364
  377     364   131    99   348
  378     133   211    36   379
  379     317   357   395   321
  380     364   193    99   131
  381     334   399    99   268
  382     386   399    99   334
  383     125   180   147    41
  384     285   399   386   259
  385     348   285    99   364
  386      70   253   337   106
  387     334   268    99   364
  388     386   285    99   399
  389     154     8   171   103
  390      21   219   100   246
  391     131   376   364   193
  392     334   303   393   120
  393     386   348   364   285
  394     348   140   364   263
  395     386   140   364   348
  396     129   253   120   268
  397     334   303   120   268
  398     307   169   290   277
  399     381   253    86   148
  400     184   324   105   227
  401     384   406   179    76
  402      70   224   157   253
  403     399   296   106   253
  404     268   253   120   399
  405     266   406   344   236
  406     268   193   106    99
  407     224   278    70   209
  408     399   253   324   296
  409     324   334   120   399
  410     394   279   195   214
  411     147   117   322   226
  412      30   386   390   334
  413      50   165    19   135
  414     184   253   120   381
  415     163   237    18   249
  416     180    13   226   289
  417     107   362   403   168
  418     205   152    39   327
  419     128   227   228   266
  420     168   180   233   124
  421     155   284   129   253
  422     381   253   120   129
  423     399   268   106    99
  424      99   296   106   399
  425     106   296    70   253
  426     224   253    70   296
  427     157   284   337   253
  428     307   169   277   340
  429     129   200    60   268
  430     129   106    60   155
  431     337   253   155   106
  432     200    16    60   193
  433     337   284   155   253
  434       3   284   155   337
  435      93   303   315   254
  436     364   376    39   268
  437     327   299   315    63
  438     351   190   125   356
  439     106   253   129   268
  440     155   253   129   106
  441     381   129   120    76
  442     268   303    39   334
  443     222   137   113   183
  444     381   148    86   384
  445     315    93    13   407
  446     384   406   184   148
  447     381   148   184   253
  448     129   253    86   381
  449     254    76   405   303
  450     125   165    50   135
  451      42   266   344   107
  452     157   253    86   284
  453     351   165    82   212
  454     120   303   405    76
  455     154   230    44   256
  456     129   284    86   253
  457     406   384   184    76
  458     159   211   346   151
  459     364   334    39   390
  460     163   387   121   237
  461     322   336   151   162
  462     390   190    39   152
  463     105   209   158   324
  464     315   407    13   299
  465     184   406   229   148
  466     390   334    39   303
  467     190   303   356    88
  468     390   140   319   152
  469     324   227   158   105
  470      30   390   319    88
  471      86   148    22   384
  472     340   377   313    82
  473      70   278    23   209
  474     136   410    77    56
  475     324   253   105   224
  476     184   253   105   324
  477     157   224   105   253
  478     184   148   105   253
  479     157   253   105   148
  480     105   227   128   229
  481     158   227   128   105
  482     212   165   125   351
  483     304   346   295    87
  484     384   148    22   406
  485      26    80    77    56
  486     271   270    78   380
  487     324   227    30   158
  488     158   378    30   324
  489     215   189   145   283
  490      22   406   179   384
  491     334   399    30   386
  492     324   399    30   334
  493     341   312   290   277
  494     244    54   300   169
  495     312   378   243   209
  496     120   184   405   393
  497     345    64   117   299
  498      50   237    96   153
  499     406   148   236   229
  500     180   405   344    42
  501     356   190    93   303
  502      93   407   315   303
  503     184   324   393   120
  504     355   319   340   307
  505     165    82   377   188
  506     352   362    29   387
  507      85   329   360   234
  508     257    54    81    57
  509       2   286   338   367
  510     351    19   355   188
  511      12   199    68   134
  512      63   376    39   327
  513      72   352   231   311
  514     263   364    39   390
  515      88   303   393   334
  516      88    30   393   227
  517     334    30   393    88
  518     324   334   393   120
  519     324   227   393    30
  520      30   334   393   324
  521     323   211   151   321
  522      93   303   405   356
  523     393   184   266   227
  524     327   407   315   299
  525     117   345   147   323
  526     345   299   117   407
  527     212   356    42   393
  528     254   303   242    76
  529     390   152    39   263
  530     129    76   242   120
  531      63   200   242   268
  532     268   303   242    63
  533     129   268   242   200
  534     120   268   242   129
  535     205   263    39   152
  536     364   263    39   205
  537      63   303    39   268
  538     268   376    39    63
  539      63   327    39   315
  540     315   303    39    63
  541      88   303    39   190
  542     390   303    39    88
  543      88   190    39   390
  544     327   152    39   331
  545     190   331    39   152
  546     315   407    39   303
  547     327   407    39   315
  548     327   331    39   407
  549     190   303    39    93
  550      93   331    39   190
  551     407   331    39    93
  552      93   303    39   407
  553     407   331   345   248
  554     357   336   255   176
  555      13   254   289    93
  556     356    93   125   180
  557     266   184    42   406
  558      42   266   228   227
  559     356    93   180   405
  560     158   227   228   128
  561     149   237    29   153
  562     211   372   133   220
  563     111   326   382   388
  564     154   178    57   137
  565     252    14   255   314
  566     161   177   343   391
  567     179   406   344   405
  568      50    34    71    96
  569     269   165   125   212
  570     161   309   391   388
  571     180    41   125   269
  572     345   407   147   331
  573     147   323   322   117
  574     288   249   402   308
  575     323    64   345   379
  576     370    94   313    44
  577     393    88   212   356
  578     182   269   391   168
  579      88   351   212   356
  580     289    76   179   405
  581     144    25   295   287
  582     204   371   359   186
  583     130   101   339    32
  584     320   357   220   325
  585     227   184   266   229
  586      42   227   228   212
  587     147   345    32   323
  588      34   298    71   214
  589     107   266   228    42
  590     212   269   362   168
  591     391    41   374   233
  592     389    46    84   146
  593     410   362   403   107
  594     403   168   404   344
  595     171   154    66   230
  596     356   190   125    93
  597     190   331   339   147
  598      32   323   151   162
  599     269   168   125   180
  600     212   168   125   269
  601     310     9   228   128
  602      77   136    29   410
  603      42   212   228   107
  604     309   388   161   382
  605     405   356    42   180
  606     107   168   344    42
  607     107   168    42   212
  608     291   371    11   359
  609     188   153   377   165
  610     362   168   309   403
  611     309   410   204   352
  612     107   310    90   403
  613     233   168   391   269
  614     393   356    42   405
  615     405   406    42   184
  616     238    55   313   370
  617     312   209    23   278
  618     218   281    35   397
  619     266   393    42   184
  620     405   184    42   393
  621     266   227    42   393
  622     212   393    42   227
  623     125   180    42   356
  624     125   356    42   212
  625     125   168    42   180
  626     212   168    42   125
  627     310   266   228   107
  628     310   128   228   266
  629     266   406   236   229
  630     160     6   318    69
  631     204   371   291   359
  632     344   406   380   236
  633     179    22   270   406
  634     217    48    67   316
  635     123   109   256   225
  636      81   355   234   140
  637      30   227   277   158
  638      56   352    77    72
  639     228   212    82   107
  640      88   351    82   212
  641     212   227    82    88
  642     136    56    77    80
  643      26   239    77   217
  644     182   387   163   237
  645     177   182   391   161
  646     124   179   271   344
  647     236   406   270    22
  648      68   139   160   353
  649     344   266   403   107
  650     180   168   344   124
  651     310   410   403   107
  652     309   168   391   388
  653     160    69   318   239
  654     289   180   344   124
  655     289   405   344   180
  656     179   405   344   289
  657     179   289   344   124
  658     107   168   403   344
  659     270   179   380   271
  660     270   406   380   179
  661     344   179   380   406
  662     320   401   412   398
  663     403   266    90   107
  664     310   266    90   128
  665     403   344    90   266
  666     236   344    90   380
  667     236   128    90   266
  668     107   266    90   310
  669     326    78   404   271
  670     344   124   404   271
  671     344   168   404   124
  672     385   217    26    94
  673     403   380   240    90
  674     403   168   388   404
  675     165   351   188    19
  676     404   168   388   124
  677     382   111     7   326
  678     388   326   382   404
  679      78   240   404   380
  680      78   380   404   271
  681     344   271   404   380
  682     240   403   404   380
  683     344   380   404   403
  684     233   388   391   168
  685     233   207   391   369
  686     197   176   288   395
  687     149   237    35   218
  688     124   388   369   233
  689     407   299   117    13
  690     177   336   198   374
  691     211   379   133   372
  692     147   323    32   162
  693      50   135    34   162
  694     194   281   389   394
  695       7   326   354   382
  696     382   354   186   373
  697     240   403   373   404
  698     326   382   373   354
  699     326   404   373   382
  700     354     7   373   326
  701      78   326   373     7
  702     404   326   373    78
  703     404    78   373   240
  704     404   388   373   382
  705     311   371   352   387
  706     124   233   369   207
  707     182   309   391   161
  708     309   371   204   186
  709     139   121   239   149
  710     373   388   309   382
  711     186   382   309   371
  712     373   382   309   186
  713     404   388   309   373
  714     404   403   309   388
  715     373   403   309   404
  716     139    37   164   218
  717     263   140    15   348
  718     309   362   352   387
  719     410   362   352   309
  720     188   153   123   377
  721     310   410   204   403
  722     309   186   204   373
  723      90   403   204   240
  724      90   310   204   403
  725     309   403   204   410
  726     309   373   204   403
  727     240   403   204   373
  728     311   387   161   371
  729     204   410   291   352
  730     204   309   291   371
  731     352   309   291   204
  732     352   371   291   309
  733     382   371   161   309
  734     309   371   161   387
  735     343   369    14   111
  736     276   329    49    85
  737     276   368    59   102
  738     309   387   182   362
  739     165   269   182   362
  740      32   162   159   339
  741     388   161   343   391
  742     309   362   182   168
  743     269   168   182   362
  744     355    19    81    57
  745     161   311   163   387
  746     161   387   163   182
  747     161   182   163   177
  748     124   180   233   226
  749     207   369   343   391
  750     388   382   343   161
  751     388   111   343   382
  752     269   180   233   168
  753      41   180   233   269
  754     101   130    73    32
  755      14   207   374   314
  756      53   408    73   130
  757     130   408    32   248
  758     388   404   369   326
  759     271   326   369   404
  760     404   124   369   271
  761     388   124   369   404
  762     357   314   255   374
  763      14   343   374   207
  764      41   269   391   182
  765     233   269   391    41
  766     125   147   339   162
  767     317   325    51   357
  768     207   369    14   343
  769     374   314   255    14
  770      91   226   322   117
  771     176   336   255   374
  772     369   388   343   391
  773     369   111   343   388
  774     357   325    51   255
  775     391   233   374   207
  776     323    64   117   345
  777     255   325    51   252
  778      41   233   322   374
  779     374    14   198   343
  780     151   336   308   162
  781     147   331    32   345
  782      73   101   258   127
  783     339   101   159    32
  784      32   162   151   159
  785     374    14   255   198
  786     320   411   321   317
  787     345   379    32   211
  788     357   374   255   336
  789     178     8   154   103
  790     198   177   176   336
  791     198   336   176   374
  792       4   398   412   401
  793     281   138    96   365
  794     220   321   133   211
  795     130   331   339   101
  796     357   374   322    91
  797     374   198   255   176
  798     395   317   197   176
  799     320    51   412   317
  800     162   269    50   125
  801     176   357   317   255
  802     401   398   411   267
  803     325   314   255   357
  804     252   314   255   325
  805     357   255    51   317
  806     248   408    32   379
  807      87   304   293   287
  808      45   267   133   321
  809     345   331    32   248
  810     248    64   345   299
  811     117   407   147   345
  812     395   304   308   197
  813     357   325   320   317
  814     411   398   320   267
  815     411   401   320   398
  816     323   379   345   211
  817      36   251    73    53
  818     374   336   322    41
  819     317   325   320    51
  820     320   317   321   357
  821     101    32    73   159
  822     304    87   295   287
  823     304   287   295   274
  824     162   125    50   135
  825     377   153    29   165
  826     346   159   258    73
  827     322   323   151   357
  828     127   130    73   101
  829     127    53    73   130
  830     321   398    45   267
  831     151   321   395   357
  832     264    74   366     5
  833     118   379    20   216
  834     211   321   323   220
  835     372   379    20   118
  836     220   321   323   357
  837     357   336   322   374
  838     321   320    45   398
  839     220   320    45   321
  840      73    36   272   201
  841     372    45    20   133
  842      45   321   133   220
  843     201   211    73    36
  844      73   201   272   346
  845     408    53    73   251
  846     408   251    73    36
  847     408   379    73    32
  848     357   314    91   325
  849     322   336   162    41
  850     372   211   323   220
  851     220    64   323   372
  852     251   379    36   408
  853     117   323   322    91
  854      91   220   117   323
  855     207   314    91   374
  856     147    41   162   125
  857     357   374    91   314
  858     358    96    71   394
  859      93   331   147   407
  860     391   182   249    41
  861     125   190   147    93
  862     207   233   322   226
  863     372    64   323   379
  864     372   379   323   211
  865     233   180   322   226
  866     374   233   322   207
  867     147   180   322    41
  868     357   220    91   323
  869     357   325    91   220
  870     147   323   162   322
  871     162   125   135   339
  872     162    41    50   269
  873      32   147   339   331
  874     226    13   147   117
  875     226   180   147    13
  876     395   197   308   288
  877     211   323    32   345
  878     248   331    32   130
  879     117    13   147   407
  880      93   407   147    13
  881      93    13   147   180
  882      96    34    71   214
  883     251   216    36   379
  884     304    38   197   274
  885      96   237   402   138
  886      41   269   162   125
  887     323   321   151   357
  888      73   211   346   159
  889     165   269    50   182
  890     322   357   151   336
  891     221   392    24    92
  892      36    53    73    17
  893     395   336   308   151
  894     135   339   159   162
  895     258   279    71   298
  896     260   350   122   192
  897     165   351    19   125
  898     130   408    73    32
  899     346    73   258   272
  900     127    17    73    53
  901      73    17   272    36
  902     162   323   151   322
  903     201   346    87   272
  904      32   211   151   323
  905     249   162   308   336
  906     159   211   151    32
  907       5   126   366   292
  908      81   257   235    85
  909     194    46   146    74
  910     214   298    71   279
  911     201   267    87   321
  912     391   177   249   182
  913     411   317   395   321
  914     395   411   197   317
  915      20   379    36   216
  916     133   379    36    20
  917     411   267    40   401
  918     176   336   395   357
  919      36   379    73   408
  920      36   211    73   379
  921      32   379    73   211
  922     201   211   346    73
  923     201   321   346   211
  924     151   211   346   321
  925     409    34   295   304
  926      50    41   249   269
  927     261    38   409   142
  928     298   272   245   346
  929     176   177   249   336
  930     176   357   395   317
  931     304    34   295   346
  932     182   177   249   163
  933     142   365   409   261
  934     346   159   304    34
  935     151   159   304   346
  936     151    34   304   159
  937      52    17   350   127
  938      96   138   402   365
  939     395   293   197   411
  940     274   287   293   304
  941     288   249   308   336
  942      50    34   402   308
  943     151    34   308   304
  944     409   274   295   142
  945     293   273   197    40
  946     274   273   197   293
  947      40   411   197   293
  948     274    25   273   287
  949     151   357   395   336
  950     304   321   395   151
  951     397   194   146   166
  952     409   142   213   365
  953     273   287   293   274
  954      87   267   293   321
  955      87   321   293   304
  956      40   411   293   267
  957     321   267   293   411
  958     288   336   308   395
  959     197   304   308    38
  960     321   304   395   293
  961     293   411   395   321
  962     151   304   308   395
  963      18   249   288   177
  964      50   162   249    41
  965     269    41   249   182
  966     336    41   249   162
  967      50   182   249   237
  968     308   249   402    50
  969     269   182   249    50
  970     163   237   249   182
  971     293   304   197   274
  972     395   304   197   293
  973     336   176   288   249
  974     395   176   288   336
  975     349    18   402   288
  976     355   188    57   210
  977     374   391   249    41
  978     374    41   249   336
  979     374   177   249   391
  980     336   177   249   374
  981     176   177   288   249
  982      96    50   402   237
  983     144   142   295    25
  984     109   134    84    48
  985     292   297   366   264
  986      18   349   402   138
  987     249    50   308   162
  988      34   162   308    50
  989     297   294   264   141
  990     402   365   409    96
  991     159    34   308   151
  992     159   162   308    34
  993     151   162   308   159
  994     146   397   223   389
  995      77    94   377   136
  996      34   308   409   402
  997     191   195   104   297
  998     297   141   292   104
  999     402   308   409    38
 1000     146   194   389    46
 1001      72   311    11   352
 1002     135   101   258   159
 1003     194   394   389   208
 1004     397   281   389   194
 1005     138   237   402    18
 1006      96    34   402    50
 1007     138   261   402   365
 1008     349   288   402    38
 1009     288    18   402   249
 1010     102   276   119    59
 1011      95   279    71   196
 1012     153   237    29   165
 1013     223   109    84   397
 1014     366   297   194    74
 1015      34   304   409   308
 1016     295   287   245   144
 1017     308   304   409    38
 1018     274    38   409   304
 1019     409   365   213   295
 1020     394    96    71   214
 1021      73   159   258   101
 1022     308    38   402   288
 1023     249   237   402    50
 1024      18   237   402   249
 1025     298   279   196   258
 1026     104   213   292   297
 1027     142    38   409   274
 1028     349   261   409   402
 1029     349    38   409   261
 1030     402    38   409   349
 1031     144   142   213   295
 1032       5   141   292   264
 1033      30   158   277   378
 1034     295    34   214   298
 1035     101   127   196   258
 1036      46   294   264   297
 1037     135   101   196   258
 1038     264   297   366    74
 1039      96    34   214   409
 1040     219    52   260   250
 1041     213   365   214   295
 1042     370    44   277   169
 1043     295   142   213   409
 1044     274    25   295   142
 1045     409    34   214   295
 1046     409   365   214    96
 1047      19   188    57   355
 1048     264    74   194   297
 1049     346   295   245   298
 1050     283    17   245   298
 1051     195    46    83   132
 1052     298    34    71   258
 1053     258   135    71   196
 1054     214   365   394    96
 1055     208    46   194   195
 1056      96   365   394   281
 1057      71    95   208   279
 1058     295   365   214   409
 1059     367   265   338   206
 1060     297   195   194    46
 1061     295    87   245   287
 1062     346    87   245   295
 1063     346   272   245    87
 1064      34   346   258   298
 1065      34   159   258   346
 1066     221   244    97   305
 1067     272    17   258   298
 1068     272    73   258    17
 1069     188    82   340   351
 1070      25   142   126   144
 1071     214   279   195   298
 1072     305   232    24   368
 1073     397   281    35   389
 1074     245   298   104   283
 1075     264     5   366   292
 1076     149   353   239   139
 1077     194    74    33   366
 1078     150   262   333   383
 1079      50   165   358    19
 1080     234    54   329   244
 1081      71   279   208   394
 1082     230   256    66   150
 1083     214   279    71   394
 1084     280   265   143    92
 1085       8   132   178   173
 1086      34   135    71   258
 1087     194   208   389    46
 1088     215   342   375   192
 1089      85    49   328   360
 1090     339   101    19   135
 1091     339   190    19   101
 1092     339   125    19   190
 1093     351   190    19   125
 1094     328   246   396   219
 1095     283   195   104   191
 1096     394   358   208    71
 1097     360    43   328    85
 1098     390    30   307   386
 1099     352   291    11    72
 1100     191    28   215   294
 1101     350   189   192   235
 1102     358    19    71   135
 1103      95    19    71   358
 1104     196    19    71    95
 1105     196   135    71    19
 1106     329   234    85    54
 1107     305   392   112   368
 1108      49   246   328   108
 1109      83   294   215    28
 1110     286    92     2   265
 1111     300   143   112   392
 1112     222    83   342    59
 1113     294   141   191    28
 1114     305   221    24   232
 1115     392   221    24   305
 1116     281   365    33   138
 1117     297    46   194   264
 1118     195   132    83   173
 1119     208   279   195   394
 1120     126   213   366   292
 1121     137   183   112   113
 1122     132   208   195    46
 1123     132   173   195   208
 1124     126   213   104   144
 1125     305   368    24   392
 1126      12   134   223   199
 1127     194   213    33   365
 1128     213   144   126   142
 1129     297   195   104   213
 1130     297   141   104   191
 1131      33   138    37   281
 1132       6    68   160   316
 1133     104   126   292   213
 1134     191   294   297   141
 1135     195   294   297   191
 1136     195   213   297   214
 1137      56   410    77   352
 1138     195   283   104   298
 1139     195   298   104   214
 1140     295   298   104   245
 1141     245   144   104   295
 1142     295   144   104   213
 1143     214   298   104   295
 1144     214   295   104   213
 1145     194   281    33   166
 1146     138   365    33   261
 1147      56     9   136   310
 1148     109    48   353   134
 1149     261   365    33   142
 1150     353   134    68   199
 1151     281   397   218    37
 1152     213   142    33   365
 1153     397   166   199    37
 1154     189   127   350    17
 1155      12   397   223   146
 1156     397   134   218   199
 1157     109   397   223   134
 1158     223   134    84   109
 1159     239   353   160   139
 1160     195   394   194   208
 1161     195   214   194   394
 1162     297   214   194   195
 1163     297   213   194   214
 1164     166    74    33   194
 1165     213   297   194   366
 1166     281   397    37   166
 1167     214   365   194   394
 1168     214   213   194   365
 1169     166   397    12   146
 1170     109   218    35   397
 1171      94    55    26    89
 1172     281   166    37    33
 1173     208   132   389    46
 1174     194   281   166   397
 1175      35   389   178   109
 1176     199   397   223    12
 1177     366   126    33   213
 1178     142   213    33   126
 1179     389   394    35   208
 1180     387   237   149   121
 1181      84    48   103   109
 1182      35   358   123   178
 1183     353   316   160    68
 1184     146    74    12   166
 1185     199   134   223   397
 1186     239   139   160   231
 1187      72   291    56   352
 1188     218   397   109   134
 1189     231   311    11    72
 1190     231    72   239   352
 1191     389   146    84   223
 1192     136    80    77    94
 1193     208   394    35   358
 1194     138   281   164    37
 1195     199   397    12   166
 1196     353   199    68   139
 1197      18   237   164   138
 1198      95   257    81    57
 1199      37   281   164   218
 1200      26    94    77    80
 1201     291   352    11   371
 1202     223   397    84   389
 1203     149   218    35   109
 1204     389   281    35   394
 1205     385    61   318   316
 1206     139   218   353   199
 1207     134   199   353   218
 1208     316    61    67   217
 1209     109   397    35   389
 1210     387   237    29   149
 1211     394   281    35    96
 1212     237   281    35   218
 1213      96   153    35   358
 1214     394    96    35   358
 1215      18   163   164   237
 1216     121   237   164   163
 1217     319   152    81   101
 1218     225   149    29   153
 1219      26   217    77    94
 1220     138   237   164   281
 1221     353   218   149   109
 1222     164   121   149   237
 1223     164   237   149   218
 1224     139   218   149   353
 1225     109    48   217   353
 1226     231    72    69   239
 1227     139   121   149   164
 1228     164   218   149   139
 1229      72   231    69    11
 1230      85   276   156   328
 1231       6   316   318    61
 1232     383   367   347   265
 1233      72   239    77    26
 1234     231   121   239   139
 1235     257    95    47   173
 1236     352   311   239   231
 1237     352   387   239   311
 1238     121   387   239   149
 1239     149   353   217   239
 1240     121   311   239   387
 1241     231   311   239   121
 1242      48   353    68   316
 1243     160   316   318     6
 1244     239   231   160    69
 1245     316    61   217   385
 1246     256    67    66   150
 1247      44    94   313   377
 1248     217   353   225   109
 1249     182   387    29   362
 1250     377    77   225    94
 1251     178   103   154   256
 1252     169   210   340   307
 1253      66   333   143   230
 1254      44   210   340   169
 1255      43   101    81   152
 1256      94   217    67    89
 1257     410   362    29   352
 1258     353    48   217   316
 1259     239   387    29   149
 1260     217   385    67    89
 1261     150   333    10    66
 1262     318   316   217   385
 1263     228     9   313   158
 1264     389   132    84    46
 1265     160   239   217   353
 1266     318   239   217   160
 1267     385   217    94    89
 1268     136    94   313    80
 1269     210    54    57   355
 1270     160   316   217   318
 1271     160   353   217   316
 1272     410   352    56   291
 1273     217    61    67   385
 1274      94    89    26   385
 1275     169   383   300   280
 1276      88   227   340    30
 1277      89   385    67    61
 1278     367   383   280   265
 1279      67    89    10   150
 1280     169   230    44   210
 1281     204   310    56   410
 1282     165    19   188   358
 1283     178   103   256   123
 1284      94   217   256    67
 1285      56    80   136     9
 1286      44   188   340   210
 1287      72    26    77    56
 1288     238   158   313     9
 1289     307   210   340   355
 1290     410   352    29    77
 1291     123   178   154   256
 1292      72   352    77   239
 1293     204   410    56   291
 1294     107   228   136    82
 1295      77   149    29   225
 1296     217   318    26   239
 1297     385   318    26   217
 1298      69   239    26   318
 1299      69    72    26   239
 1300      35   208   178   389
 1301     188   358   123   153
 1302     307   319   340    30
 1303     358   153   188   165
 1304     103   109   178    84
 1305     107   310   136   228
 1306     107   410   136   310
 1307     228   310   136     9
 1308      49   246   185   328
 1309     173   132   178   208
 1310     389   208   178   132
 1311      84     8   178   103
 1312     107   212   136   362
 1313      82   212   136   107
 1314      82   351   188   165
 1315     225   377   123   153
 1316     123   188    57   358
 1317      81   196    47    95
 1318      44   340   313   277
 1319      77   149   225   239
 1320     377    77    29   225
 1321     362   165    29   182
 1322     386   285    15   348
 1323      55   262   150   370
 1324     355    54   307   210
 1325     217   239   225   149
 1326      77   239   225   217
 1327      19   196    81    95
 1328      35   149   123   153
 1329     225   153   123   149
 1330     225   149   123   109
 1331     225   153    29   377
 1332     136    77    29   377
 1333     239   352    29   387
 1334      77   352    29   239
 1335     182   237    29   387
 1336     165   237    29   182
 1337      82   136    29   377
 1338     377   165    29    82
 1339     136   212    29   362
 1340      82   212    29   136
 1341      82   165    29   212
 1342     362   212    29   165
 1343     290   280    27   341
 1344      35   358   178   208
 1345     137   183   257    54
 1346     225   109   256   217
 1347     265   367   286   280
 1348     396   156   332   185
 1349      35   153   123   358
 1350     178   109   123    35
 1351     109   149   123    35
 1352      84   109   178   389
 1353     103   109   256   123
 1354     383   230   333   150
 1355     256   230    66   154
 1356     377   188    44   123
 1357      57    54    81   355
 1358     210   230    44   154
 1359      95   196    47   279
 1360      84   389   178   132
 1361      84   132   178     8
 1362     265   367   338   286
 1363     225   217   256    94
 1364     103    48   256   109
 1365      67    48   256   103
 1366     217    48   256    67
 1367     217   109   256    48
 1368     171   230   137   154
 1369     377    94   313   136
 1370     113   183   112    59
 1371     319    30   307   390
 1372      81    95    47   257
 1373     256    94    44   225
 1374     234    81   360    85
 1375     351   319   355    19
 1376      88   319   340   351
 1377     189   195   215    47
 1378     368   232    24   102
 1379     228   227   277    82
 1380     169   210   307    54
 1381     383   347   143   280
 1382     305   232    97   221
 1383      44   123    57   154
 1384      44   188    57   123
 1385       8   173   113   132
 1386     137   210    57   154
 1387     183   137   257   222
 1388     360   108   328   250
 1389     140   319    81   355
 1390     355   210   340   188
 1391     377   188   340    44
 1392     370    55   313    94
 1393     390   140   307   319
 1394     390   386   307   140
 1395      79   378   277   158
 1396      82   227   340    88
 1397     363   282   290   341
 1398     169    44   277   340
 1399     225    94    44   377
 1400     280    92   286   265
 1401     123   358    57   178
 1402     238   277   313   158
 1403     377    82   340   188
 1404      44   377   313   340
 1405      67    61    10    89
 1406     154   256    44   123
 1407     103   154    66   171
 1408     228   158   277   227
 1409     277    79   312   378
 1410     225   123    44   256
 1411     225   377    44   123
 1412     347   265   143   280
 1413     340    30   277   307
 1414     278   259    23   312
 1415     341   277   290   169
 1416     355   351   340   319
 1417     169   230   383   370
 1418     340   227   277    30
 1419     370   262   238    55
 1420     370    79   238   262
 1421     228   158   313   277
 1422      79   378   243   312
 1423     277    79   238   370
 1424     136   228   313    82
 1425     370   277   313   238
 1426     277    82   313   228
 1427     377   136   313    82
 1428     136     9   313   228
 1429     277   340   313    82
 1430     370    44   313   277
 1431     238     9   313    80
 1432     136    80   313     9
 1433     238    80   313    55
 1434      94    55   313    80
 1435     333   230    66   150
 1436     312    23   243   282
 1437     370    94   150    55
 1438      44   230   150   256
 1439     370   230   150    44
 1440      89    55   150    94
 1441     256    67   150    94
 1442      89    94   150    67
 1443     370    44   150    94
 1444     256    94   150    44
 1445     169   210   300   230
 1446      85   257   156   276
 1447     300   392   305   221
 1448      89    55    10   150
 1449     150   262    10   333
 1450     150    55    10   262
 1451     347   367   206   265
 1452     286   174   363   367
 1453     192   122   400   375
 1454     329   183    85   276
 1455     307   169   244   290
 1456     307    30   290   386
 1457     277   378   312    30
 1458     262   333   206    10
 1459     367   383   206   262
 1460     347   383   206   367
 1461     347   333   206   383
 1462     262   383   206   333
 1463     286   367     2   174
 1464     265   383   280   347
 1465     189    17   350   283
 1466     234   140   360    81
 1467     392    92   221   280
 1468      27   280   221    92
 1469     250    43   328   360
 1470     280   290    27   244
 1471     290   363    27   282
 1472     312   209   243    23
 1473      47   279   189   195
 1474     280   383   341   169
 1475     341   169   290   280
 1476     302   367   341   174
 1477     169   230   300   383
 1478     324   378   312   209
 1479      30   378   312   324
 1480     282   174   341   363
 1481     259   312   282    23
 1482     386   259   361   285
 1483      49    97   203   329
 1484     324   399   312    30
 1485     209   278   312   324
 1486     386   290   244   361
 1487     386   399   312   259
 1488      30   399   312   386
 1489     278   399   312   324
 1490     278   259   312   399
 1491      81   140   360    43
 1492     328    43   235    85
 1493     282   312   290   341
 1494     282   174   243   302
 1495      23   174   243   282
 1496     282   312   341   243
 1497     243   302   341   282
 1498     370   169   341   383
 1499     302   383   341   367
 1500     280   367   341   383
 1501     286   280   341   363
 1502     286   367   341   280
 1503     363   367   341   286
 1504     286   280    27    92
 1505     305   368   183   276
 1506     312   277   341    79
 1507     169   370   341   277
 1508      79   302   341   243
 1509     243   312   341    79
 1510     383   262   341   370
 1511     302   262   341   383
 1512     277   370   341    79
 1513     302    79   341   262
 1514     370   262   341    79
 1515     277    30   290   307
 1516     312    30   290   277
 1517     285   386    15   361
 1518     276   305   329   183
 1519     185   328   156   276
 1520      19   101    81   196
 1521     244   290    27   361
 1522      54   210   300   169
 1523     363   280    27   286
 1524     361   290    27   259
 1525     282   259    27   290
 1526      66   230   143   171
 1527     383   333   143   347
 1528     383   230   143   333
 1529     396   185   100   246
 1530     244   280   221    27
 1531     392   280   300   143
 1532     143   230   300   171
 1533     137    54    57   210
 1534     210   230   137   300
 1535      59    83   113   222
 1536     300    54   137   210
 1537      44   154    57   210
 1538     221    27    97   244
 1539     195   279   189   298
 1540     300   280   221   244
 1541     392   280   221   300
 1542     329   305    97   244
 1543     244   300   305   221
 1544     244    54   305   300
 1545     276   232   329   305
 1546     348   175    15   263
 1547     348   140    15   386
 1548     305   368   276   232
 1549     102   232   276   368
 1550     283   298   189    17
 1551     305   368   112   183
 1552     300   230   137   171
 1553     178     8   137   154
 1554     234   361    15   386
 1555     171   154   137     8
 1556     328   219   122   260
 1557     234   386    15   140
 1558     196   279   189    47
 1559     244   361    97   234
 1560     329   232    49    97
 1561     210   154   137   230
 1562      59   183   112   368
 1563     137   173   257   222
 1564     244    54   329   305
 1565     300   171   112   143
 1566      19   319    81   101
 1567     234   361    97    15
 1568     355   319    81    19
 1569     178   173    57   137
 1570     208   358    57    95
 1571     137     8   113   171
 1572     361   386   234   244
 1573     307    54   234   244
 1574      43   110   250    75
 1575     210   188    57    44
 1576     173   137   113   222
 1577      83   173   113   222
 1578     355    54   234   307
 1579     396   246   100   219
 1580     137   171   112   300
 1581     113   171   112   137
 1582     234   329   203    97
 1583     173     8   113   137
 1584     195   298   189   283
 1585      54   183   112   137
 1586     137   300   112    54
 1587     300   392   112   305
 1588      54   305   112   183
 1589      54   300   112   305
 1590     178   358    57   208
 1591      19   358    57   188
 1592      19    95    57   358
 1593     257    54    57   137
 1594     215   283   145   191
 1595     257   173    47   222
 1596     257   173    57    95
 1597     137   173    57   257
 1598     208   173    57   178
 1599     208    95    57   173
 1600     152   140    81    43
 1601     319   140    81   152
 1602     328   260   192   235
 1603     208   279    47   195
 1604     195   173    47   208
 1605     215   222   192    47
 1606     235   260   192   350
 1607     208    95    47   279
 1608     173    95    47   208
 1609     307   140   234   355
 1610     307   386   234   140
 1611     244   386   234   307
 1612      75    52   250   127
 1613     250    43   235   328
 1614     361   244    97    27
 1615      75   127   250    43
 1616     183   305   329    54
 1617      97    15   203   234
 1618     175   110   241   263
 1619     329   232    97   305
 1620      81   257    85    54
 1621     192   122   156   400
 1622     203   234   360   329
 1623     172   181    21   250
 1624     329    85   203    49
 1625     102   232    49   276
 1626     276   232    49   329
 1627     375    28    98   342
 1628     350   192   145   122
 1629     203   108   360   241
 1630     172   110   250   108
 1631     108    43   250   360
 1632      75   181   250    52
 1633      85    49   360   203
 1634     234    81    85   355
 1635      54   355    85    81
 1636     234   355    85    54
 1637      43   140   360   263
 1638      81    43   360    85
 1639     235   127   350   189
 1640      47   257   235    81
 1641      85   276   328    49
 1642     203   329   360    85
 1643     203   241   360    15
 1644     203    15   360   234
 1645     140   234   360    15
 1646      15   263   360   140
 1647     241   263   360    15
 1648     263   110   360    43
 1649     241   110   360   263
 1650     241   108   360   110
 1651      43   110   360   108
 1652     250    52    21   219
 1653      75   110   250   172
 1654     172   181   250    75
 1655     219   250   328   246
 1656     258    17   189   298
 1657      85    43   235    81
 1658     219   246    21   250
 1659     250   246    21   108
 1660     108   172    21   250
 1661     172   114    21   181
 1662     222    83   215   342
 1663     203   108   328   360
 1664     203    49   328   108
 1665     360    49   328   203
 1666     260   127   235   250
 1667     276   102   185    49
 1668       1   185   332   119
 1669     235   328   156   192
 1670     192   189   145   215
 1671     156   276   119   185
 1672     215   191   145    28
 1673     350   189   145   192
 1674      52   127   350   260
 1675     189    47   235   196
 1676     250   127   235    43
 1677      43   101   235    81
 1678      43   127   235   101
 1679     196   101   235   127
 1680      81   101   235   196
 1681     145    28   375   215
 1682     222   257   192    47
 1683     235    47   192   257
 1684     342   222   192   215
 1685       1   119   332    98
 1686     191   195   215   283
 1687     173   222   215    47
 1688     173    83   215   222
 1689     191   294   215   195
 1690      83   195   215   294
 1691     222   257   156   192
 1692     215    28   375   342
 1693     173   195   215    83
 1694      47   195   215   173
 1695     156   342   119    59
 1696     156   400   332   119
 1697      98   342   119   400
 1698     156   122   332   400
 1699     328   276   185    49
 1700     192   122   375   145
 1701     156    59   119   276
 1702     375   342    98   400
 1703     400    98   332   119
 1704     185   246   396   328
 1705     156   400   119   342
 1706     396   122   332   156
 1707     185   276   119   102
 1708     257   222   156   183
 1709     257   183   156   276
 1710     235   257   156    85
 1711     235    85   156   328
 1712     342   222   156   192
 1713     342    59   156   222
 1714      59   276   156   183
 1715      59   183   156   222
 1716     375   192   156   400
 1717     375   342   156   192
 1718     400   342   156   375
 1719     119   185   332   156
 1720     328   122   396   156
 1721     328   219   396   122
 1722     185   328   396   156
 1723     332     1   100   185
 1724     332   185   100   396
# Generated by c:\dev\polylla3D\tetgen\build\tetgen.exe -fzenn c:\dev\polylla3D\data\1000semiuniform.node 
