1015  3  0  0
   0    0  1  0
   1    0  1  1
   2    0  0.43997550076206771  0.87888015029991529
   3    0  0  0.5689057075128503
   4    0  0.30539555702653953  0
   5    0  0.60357012736724691  0.78735113133495993
   6    0  0.39963821110721331  0.73688240449676401
   7    0  1  0.72803403520367882
   8    0  0.75018419633945799  0.25837429459445044
   9    0  1  0.52259181974813729
  10    0  0.75426950136174764  0.43651371228465463
  11    0  0.38275762474272901  0.55157121426567668
  12    0  0.65308444402093613  0.65285634036973395
  13    0  0.163056527815721  0.35522690056798156
  14    0  0.66890203286409289  0.42433371882815851
  15    0  1  0.8091663231500783
  16    0  0.2256376491869086  0.70682683160984205
  17    0  0.54201234099105999  0
  18    0  0.56339453170501252  0.25515733514709066
  19    0  0.24990154491954097  0.37743063229590262
  20    0  0.87090655542942608  0
  21    0  0.54445963554948129  0.6339258653892953
  22    0  0.82199958598893785  0.71545409894771417
  23    0  0  0.36271150357107329
  24    0  0.35604954246103188  0.33317734431214757
  25    0  0.56452506008020764  0.8756672807771515
  26    0  0.71328272422174466  0.34773003807354441
  27    0  0.21911510697259823  0
  28    0  0  1
  29    0  0.14881707023107266  0.64883104473423847
  30    0  0.55659636457807304  0.44687961939020032
  31    0  0.88472210749249691  0.26961815237915238
  32    0  0.22522922645260463  0.88548056368981054
  33    0  0.40161552830903929  0.24322321397373908
  34    0  0.47329556399923728  0.77839333562893986
  35    0  1  0.26200228136101505
  36    0  0  0.67361840512953053
  37    0  0  0.12798629669319536
  38    0  0.2857475901999954  0.14174256811447666
  39    0  0.7312497873139161  0.17831402040751398
  40    0  0.22235577267475101  0.60935388097716081
  41    0  0.86179992740993161  0.55550661076446073
  42    0  0.73961248022358494  0.70775821162252961
  43    0  0.13450153078346783  0.8051062616882424
  44    0  0.31057380896687098  0.50239974495061235
  45    0  0.32717541461023986  0.80841634438877219
  46    0  0.85072012495009053  0.82011362004314459
  47    0  0.47295007111866749  0.33342229665825923
  48    0  0.6359502961138479  0.31039170913869862
  49    0  1  0.43801209957341969
  50    0  0.79946030774566545  0
  51    0  0.68482019669453809  0.8425648867502189
  52    0  0.21091118434322384  0.47252398008855206
  53    0  0  0.22087125285800485
  54    0  0.3908632417117307  0.45061562616378026
  55    0  0.49196523876552262  0.55648306133425474
  56    0  0.37012324654301854  0.16244619170992788
  57    0  0  0.82952536267562205
  58    0  0.16050239340324926  0
  59    0  0.42808383604583039  0.65319370128924503
  60    0  0.27868381765348049  0.26107912876513473
  61    0  0  0
  62    0  0.82703276944481829  0.37104521427088777
  63    0  0.30527670776447918  1
  64    0  0.19715983719877433  0.20583919167183379
  65    0  0.30332136484854777  0.64388508688222401
  66    0  0.50819889174858446  1
  67    0  0.70984492683131628  1
  68    0  0.86268663206616947  1
  69    0  0  0.58847222243579023
  70    0  0.712155227787173  0.52095451147250937
  71    0  0.69985245417544339  0
  72    0  0.41466867734251911  0
  73    0  0  0.48804325039018848
  74    0  0  0.89912572265197255
  75    0  0.63131277884064108  1
  76    0  0.45188740659449317  0.16965522085155951
  77    0  0.6411131419404511  0.21455188452141116
  78    0  0  0.44577077687032191
  79    0  0.64320778678896307  0.71119756902313402
  80    0  0.15221821311056657  0.29791348055708389
  81    0  1  0.655624053440369
  82    0  1  0.34235208455997856
  83    0  0.60071539999838364  0.54538786929691174
  84    0  0.55995891134645992  0.35760616547118507
  85    0  0.80614061505496426  1
  86    0  1  0.13444908520281484
  87    0  0.42250000784275643  0.81870777201286471
  88    0  0.1654808807079346  1
  89    0  0.20940602703429423  0.80228170024652057
  90    0  0.50481446103686067  0.84557189448169079
  91    0  0.83129935533769883  0.16301710369832023
  92    0  0.10646457330065093  0.39045409611491083
  93    0  0.23060431489334121  0.4044575598067976
  94    0  0.62392943051411853  0.41896556835164211
  95    0  0.72153007743066644  0.4219998066796451
  96    0  0.31688552360986566  0
  97    0  0.42011743107021926  1
  98    0  0.36894417768740539  0.56017380524358162
  99    0  0  0.54773736587961153
 100    0  0.49149219450714826  0.44452922366525632
 101    0  0.36295150622834293  1
 102    0  0.18548137362404901  0.69066199767864289
 103    0  0.45842022487154066  0.28068735334527167
 104    0  0.7242036042726433  0.32943649504346206
 105    0  1  0.48920938861783736
 106    0  0.59753775853369362  0
 107    0  0.73241842367302779  0.61101601477463674
 108    0.10061553486706437  0.33819313963069297  0.32637257127424429
 109    0.10131479430983856  0  0.26025911130760704
 110    0.10197633129154667  0.76727778208065334  0.87457472820407323
 111    0.10348440675190228  1  0.75989257952615097
 112    0.10500508854145008  0.76383332574058638  0.76114743534556706
 113    0.10600651926463622  0.3056221775533699  0.4578304492031281
 114    0.10725877697049069  0.42732060559018153  0.71779391503602463
 115    0.107479809609153  0.31819034607371027  0.75186457277564567
 116    0.10826475265022931  0  0.72965353813871259
 117    0.1089602209527869  0.57823839329606974  0.63964972792283648
 118    0.1094370500254175  0.28318699786010115  0.18770504927492804
 119    0.11149095893138493  0.41000236556978176  0.40053176952046132
 120    0.11400861149102311  0.56288919386122149  0.28152661190791134
 121    0.11407654146637503  0.8236446836702831  0.45536438717748373
 122    0.11547599972955457  0.16894742564366139  0.56366624416532174
 123    0.1156763997110625  0.16558260672610431  0
 124    0.11694372278064968  0.25069230834413631  1
 125    0.1217154410858988  0.13728819841141099  0.20703468409919151
 126    0.12382607061897095  0.42411212866506692  0
 127    0.12388043577984596  0.29192402213545549  0.56175942387225231
 128    0.12411821319574212  1  0.18285823191872319
 129    0.12517762523682902  0.53285707115347847  0.74060705388008774
 130    0.12521272762379843  0.62069027441823588  1
 131    0.12601677419040042  0.83755050464504022  0.69388434466137494
 132    0.1286666094329586  0.1162257068168259  0.73801239778816963
 133    0.1308138698553678  0.62212191721195964  0.82254998223238096
 134    0.13137480701783122  0.85316395696952541  0.25145332010011057
 135    0.13360467959442576  0.13696810878941115  0.12265832871187676
 136    0.13466522154194849  0.13164651296369734  0.87021495180234787
 137    0.13574077418772776  1  0
 138    0.13632250816760549  0.51266204529593307  0.17121001136218078
 139    0.13685284054802099  0.53512371489242216  0.50155446626929767
 140    0.13708903673836464  0.15327948318323806  0.46353050496749681
 141    0.13751525148638183  0.27959300522226738  0
 142    0.13859133593961787  0.49544980900716595  0.61931432495462957
 143    0.13994620951608686  0.24504744911782139  0.3275407913088616
 144    0.14117246364234037  1  0.4154787448075421
 145    0.14166807137893722  0.34629103701901226  1
 146    0.14172656233610148  0.50851428089107276  1
 147    0.14361365256934999  0.77279796885453944  0.27709511631628131
 148    0.14372693013287657  0.64461348232358151  0.57468382102864035
 149    0.14431252259558816  0.38385423381147937  0.17801900033467813
 150    0.14690486052690227  0.60614758641729638  0.13855268799385978
 151    0.14767456775673529  0.87666186466516005  0.85021020471746134
 152    0.14861774035588246  0  0
 153    0.15023629694090804  0.22628159592098748  0.61435255823083623
 154    0.15057409417529849  0.69027686828844848  0.13036049956903956
 155    0.15124599743304956  0.13135811771898437  0.63697712921655236
 156    0.15242656300971508  0.34862392844461298  0.63498701461386542
 157    0.15560184806746541  0.66677934011125983  0.46533858148742713
 158    0.15625050560973902  0.20532968034305421  0.16795608003313212
 159    0.15658900525300729  0.85211075590614915  1
 160    0.15812976246511015  0.7773547489787519  0.54338088491478842
 161    0.16048806783415998  0  0.53572957834380242
 162    0.16113061250470254  0.31901851591578334  0.82590119132489015
 163    0.16321360652507749  0.64009273732116556  0.30583004621938248
 164    0.16364870955389688  0.81211227454689372  0
 165    0.16498622676300678  1  0.59627627647269565
 166    0.16509565594648165  0.71628856186968981  1
 167    0.16611209100625213  0.53196067035833206  0
 168    0.16874795340741719  0.4777788374598102  0.37929431783374168
 169    0.16902000075224149  0  0.65455415378319937
 170    0.17084879843202966  0.40255392109381283  0.78044058976798214
 171    0.17150882868725817  0.64304226315717938  0
 172    0.17212756401729135  0.22718861456133571  0.76055375783061496
 173    0.17295011222771106  0  0.33867092861525666
 174    0.17314615520338006  0.8626625435396057  0.55363397884807586
 175    0.1736815920367526  0  1
 176    0.17405490250673483  0  0.12508764001072464
 177    0.17627624089169949  0.45153143519977962  0.48380511105347968
 178    0.17844388815837761  0.71959145020958037  0.72834278058879143
 179    0.1805078765262795  0  0.25673893782212476
 180    0.18119019790549065  0.35584928100982349  0.37599938931570603
 181    0.18177656051861268  0.36158241504729044  0
 182    0.183661049545019  0  0.42207415947044696
 183    0.18452552024926219  1  0.21458808064796941
 184    0.18587017562981967  0.36739578581331844  0.46088309021642038
 185    0.18643005882355657  0.64319581554346528  0.65453617003433551
 186    0.18709844785530588  0.75727407897186583  0.17871908765489775
 187    0.18736698714441599  0.44340988778758039  0.25816427912245232
 188    0.18860783460920577  0.42776017652852616  0.87609119334691776
 189    0.18914418544540387  1  0.78354783491110291
 190    0.19029253184576714  1  0.11767841471455559
 191    0.19088656255735686  1  0
 192    0.19093230910772346  0.27152815144499154  0.69060799614541346
 193    0.19101241705502719  0.63578988233049205  0.74211717190233717
 194    0.19130170163330915  0.21172142509660352  0.42819414706789138
 195    0.19190359879497462  0.17252545232498551  0.26325779189291226
 196    0.1919878479118049  0.59023000739135967  0.22262425794094159
 197    0.19214851964237267  0.54522453892620903  0.68874390141901165
 198    0.19300274975475368  0  1
 199    0.19393672497507586  0.26151592246767552  0.10012150612353994
 200    0.19436273523242178  0.82542836955485999  0.32233982909539266
 201    0.19438849041132686  1  0.48466043444485618
 202    0.19443864447291442  0.77036814492838634  1
 203    0.19483748383858474  0.72880540283670259  0.34264615081642152
 204    0.19501171429970021  0.57472638435764778  1
 205    0.19505562985063141  0.24589909369665477  0.85556986981521321
 206    0.19522989119218728  1  0.69515737349008866
 207    0.19583352587283701  0  0.80845457788263975
 208    0.19733947319883005  0.46086634618574374  0.56654780835341978
 209    0.1981784483022429  0.68862518425866392  0.24212901259815969
 210    0.1984786313258618  0.22721992914172967  1
 211    0.19869991840491755  1  0.29792723999603787
 212    0.20082568456463756  0.13675779923965858  0
 213    0.20141035598644735  0.57180932589432609  0.45604995324151365
 214    0.20611625430382685  0.81476187491277607  0.82240353377708364
 215    0.20672733288751166  0.57730830344827233  0.34891165542927705
 216    0.2068669852259569  0.41454766165448881  0.12027814238735848
 217    0.20787049366343313  0.31023384780544183  0.25924764079419593
 218    0.21103776976421704  0.17096328263367694  0.68881205270547119
 219    0.21127228051223046  0.26851078873907669  0.56825364355811259
 220    0.21472316645237549  1  1
 221    0.21884759698700851  1  0.3906888712954541
 222    0.21903789517698782  0.8369966544829921  0.48084995168536038
 223    0.21928514002680918  0.36134454951293882  0.57320645343990662
 224    0.22098386301827716  0.46413675466812454  0
 225    0.22135138303676788  0.13652170477963671  0.351983057637131
 226    0.22230288219565733  0.54883795533508317  0.87903618216657375
 227    0.22232113319330049  0.51860362618977374  0.1518861870289579
 228    0.22254442258460957  0.48810459981925391  0.7638101290943784
 229    0.22274014399731268  0.36353878587992461  0.71732995135584943
 230    0.22359670788838326  0.6394935123560006  0
 231    0.22382410697996336  0.34455527816772713  1
 232    0.22382917302874195  0.28519039131500173  0.46726203681278117
 233    0.22511612557016814  0.65568790253292453  0.84771150975342302
 234    0.22638565624493667  0.44135600730955632  0.67204408716470931
 235    0.22750968061125681  0  0.58889010859562274
 236    0.22785083206016665  0.87635362090699676  0.69999596615546267
 237    0.22795309473514178  0.85304020218016752  1
 238    0.22997085954675439  0.75631400078322397  0.59637292804975128
 239    0.23009018104483092  0.33097028101841708  0.14068674877934562
 240    0.23222898506207104  0.65122085333964075  1
 241    0.23430174970623296  0.15444342409999426  0.87509455458250485
 242    0.23601270022231366  1  0.87778156772961302
 243    0.23657918704210651  0.82658913707259696  0.17537217686687559
 244    0.23728378133404418  0.51314281338532874  0.29469805430368728
 245    0.24044347307304748  0.5853854533624433  0.80149461931305066
 246    0.24241005297292667  0.44027020987106508  1
 247    0.24374931136521757  0.64805036133948402  0.50035294121642304
 248    0.24423692122473778  0.29966347535463411  0.38124776470477911
 249    0.24634289179047375  0.15682965600323107  1
 250    0.25064063788512969  0.71627217380050745  0.42775411710870692
 251    0.25082973936078817  0.43680470736755617  0.39018589545136273
 252    0.2521331530753595  0.23610123904460589  0.63771816461471709
 253    0.25232842575679049  0.71275722465686853  0
 254    0.25398383710776118  0  0.18525863873554022
 255    0.25534081942481796  0.81983249842929729  0.39653118736282417
 256    0.25770426252912104  0  0.64912916181517266
 257    0.26057216253533627  1  0.59817356239015529
 258    0.26059298822848237  0.87042552204140655  0.60768034488259248
 259    0.2619979657372194  0.62015795395102635  0
 260    0.26233318082832713  0.1393119768437926  0.46826974981792169
 261    0.26250600099770233  0.78276914865173908  0.24678825797110965
 262    0.26347009128655124  0.55658740518046834  0.55357618135742437
 263    0.26452344059000832  0.26298229113744237  0
 264    0.26520440963905284  0.52854959714116168  1
 265    0.26584358911710126  0.41711054301361383  0.29699661980012532
 266    0.26838838934846043  0.39178964670163485  0.21105465157287773
 267    0.26887169172990077  0.61308440858756541  0.27680339811511778
 268    0.26911842161742427  0.47771008622936645  0.48555243497153927
 269    0.26936152183447909  0.89482153956093691  0.79225147313847333
 270    0.26946966409867723  0.17732668761868264  0.22880939543546161
 271    0.27177448694624612  0.40545078517476213  0.85533087187751777
 272    0.27400125753447024  0.23614914216434879  0.31185167863003088
 273    0.27447340482684923  0  0
 274    0.27460419211490855  0.28588310915106968  0.89859355687219966
 275    0.27660594264638516  0.15598428185715341  0.77114878549435018
 276    0.27747716852915361  0.60103628770420603  1
 277    0.27769967075718899  1  0.17145523064636822
 278    0.27821832457183504  0  0.74046911067243659
 279    0.27823530434693827  0.32092791503714502  0.81810786826420412
 280    0.27917717908119627  0.61209069408232064  0.62315047545271796
 281    0.27926901734741794  0.53488102036217822  0.68382617514808453
 282    0.28008762610390253  0.17669298691463445  0
 283    0.2809805184798867  0.79807987201434816  1
 284    0.28216702672840177  0.71086461261600242  0.72854485222938214
 285    0.28225621549460816  0.78286349404890665  0.67850863193754729
 286    0.28232134130345565  0  0.35144376277184514
 287    0.28592501357512828  0.86254594531279771  0.10546069748797117
 288    0.28633624580002981  0  1
 289    0.28714510430751433  0.83305729953193186  0
 290    0.28905695319961189  0.23203092140181331  0.1563521518391815
 291    0.2897934564556775  0.5249477519003739  0.40227079598341275
 292    0.28995143744053881  0  0.54405193062217383
 293    0.29010750539675506  0.20910752480333744  0.84074116120319009
 294    0.29040362590052154  0.85922309097168159  0.87824418814812444
 295    0.29226644552913217  0.4859785296002529  0
 296    0.29321263875566855  0  0.25279837719568693
 297    0.29447989036663813  0.76524667931831336  0.52125408189827804
 298    0.29578348574188845  0.60700223501866879  0.13810757961557493
 299    0.29662849064504992  0.53255846602733825  0.23196918704782432
 300    0.29918406050508389  0.45159979525801963  0.7894887105825269
 301    0.29922932390066381  0.4028672657313111  0
 302    0.29942742032587299  0.19766539415133549  0.56280921409399076
 303    0.30029106384723786  0.3419393163466854  0.68774052067052871
 304    0.30091335901984917  0.11026814613912768  0.18206640093909157
 305    0.30114660265782012  1  0.31551793611259732
 306    0.30202943537958982  1  0
 307    0.30601162217670996  0.21199101742901916  0.47407754067677921
 308    0.30603578259482794  0.45124671515650339  0.60230684083914854
 309    0.30683923845599309  0  0.44359905236296726
 310    0.30769657656153793  0.32447630254415583  0.17622945351599101
 311    0.30773665829122193  0.68360326128375415  1
 312    0.3082780054479044  0.73048715872460135  0.34170154196653946
 313    0.31013766915393093  0.74300838240560141  0.81171137861724885
 314    0.31164583863300932  0.87123077525870507  0.2312985411183783
 315    0.31174431705834399  0.14960581311467419  0.63484383611562523
 316    0.31199607203716351  0.3141656083030252  0.30117232448752662
 317    0.31758847351769826  0  1
 318    0.31802448042003595  0.75005056873553255  0.15118300714781926
 319    0.31803798431801172  1  0.50232453215404171
 320    0.3201883036215265  0.26415116779946435  0.71782788269202868
 321    0.32110460119026735  0.70185701665897637  0.64318604465046558
 322    0.32197667933070395  0.37713836483323149  1
 323    0.32328266411184403  0.55520656828340498  0.7688778655734072
 324    0.323482443064184  0.39081721063997876  0.47580935190380286
 325    0.32362046934051264  0.50004338470365806  0.3052648483006416
 326    0.32410503183741435  0.31699723335297381  0
 327    0.32542365670774887  0.29627874433260593  0.45165915302595977
 328    0.32639967167132811  0.13973377138711285  0.29450079508722349
 329    0.32754641054191036  1  0.70009163112760109
 330    0.32879900297815545  0.65415705917997702  0.52929984436817423
 331    0.32904744921057555  0.46301900172723826  0.14089454429182038
 332    0.32964530491643984  0.49324889560679019  0.88329997104982305
 333    0.33107464327338093  1  0.40573359450836999
 334    0.33292379472652534  0  0.10175043385748844
 335    0.33320880747377357  0.81689461334926805  0.60417677167692818
 336    0.33454952641010449  0.16875500622463993  1
 337    0.33471430056006624  0  0.81591701159619845
 338    0.3347879321514054  0.89900789441571927  0.64993031442270088
 339    0.33759133607932168  0.10585664130866339  0
 340    0.33912275888510368  0.67306630453522243  0
 341    0.33925535253566813  1  0.7459120928921843
 342    0.34080321400002089  0.63020182067858166  0.43678347218015773
 343    0.34143642076124892  1  0.85239401882029409
 344    0.34191105489977031  0.13216254209562189  0.52957865312935493
 345    0.34290515476342703  0.7565630017359285  0
 346    0.34302597883613289  0.39023069171011748  0.3767583812227826
 347    0.34360629931498077  0.42083683734868171  0.25830124545589961
 348    0.34607145775911152  0.56681560049227719  1
 349    0.34660356707476303  0.88376832290200424  0.33572784348398754
 350    0.34679947143278955  0.24291900708249442  0
 351    0.34786076163072144  1  1
 352    0.34931324289471954  0.46412592707034672  0.5191304762474207
 353    0.35092131665864806  0.71682976627878214  0.27031472784329713
 354    0.35119941028379109  0.61116971181039903  0.32742612518166087
 355    0.35314298983076381  0.30940825982560349  0.57630429441959663
 356    0.35423261595787536  1  1
 357    0.35531368982374395  0.84932760554213105  0.42254943880098772
 358    0.3553336864770012  0.2310529060086032  0.39367993112971655
 359    0.3572182650714596  1  0
 360    0.35790825024388057  1  0.60536495862653061
 361    0.358569088724355  0.33087204124002456  0.75229929619243985
 362    0.35943171886682684  0.13565496039010774  0.41325462115303513
 363    0.36188823394796732  0.59281804417871808  0.5947040857064364
 364    0.36207950113163245  1  0.20112062504038028
 365    0.36317034315429941  0.53125214499441431  0
 366    0.36433379441561431  0.19508939465017075  0.11859250431034624
 367    0.3643381460629318  0.12561384220550237  0.72328850399068112
 368    0.3647011329467198  0.71622157105135142  0.4482760340344451
 369    0.36636897984980182  0.48406245884609889  0.6650853129436638
 370    0.36761805910747253  0.83539708611925745  1
 371    0.36900378606111445  0.2749640549916168  1
 372    0.36957253684420055  0  0.29634253204968525
 373    0.36992977236228453  0.24759642507165494  0.29129177961648101
 374    0.37102144173331458  0.45708344403926332  1
 375    0.37255671000334367  0.54912145030812987  0.16252500978018242
 376    0.37365947718453452  0.69438446674917487  0.19229533817401254
 377    0.37646843605341695  0.67369043192723499  0.80988942889760818
 378    0.37928464608544343  0.34483048169871966  0.83952658733090557
 379    0.37936001484729642  0.22609304163057026  0.8775465661317885
 380    0.37944087049485581  0.79165245600964484  0.78557996277278297
 381    0.38200830687573933  0  0.62128550525090187
 382    0.38296151287958147  0.56991912729806393  0.67405235983936607
 383    0.38555858651895564  1  0.77233892740050347
 384    0.38695013196842354  0.46455258082583578  0.36419138388175198
 385    0.38797905265615601  0  0.16619848022094075
 386    0.38839648820623174  0.39428105253479728  0.68817648464450609
 387    0.38841594445991307  0.37997256155042292  0
 388    0.39009098530068181  0.6519801522501496  1
 389    0.39020392553994848  0.10225400177786126  0
 390    0.39104041579688276  0  0.42595665495945867
 391    0.39161398428399791  0.41289536666226911  0.77685098304465527
 392    0.39193466438538832  0  1
 393    0.3924969060363277  0.26030121278900564  0.65171202236862913
 394    0.39302530908756445  0.52671127538751872  0.42729870845100237
 395    0.39371586952437354  1  0.54418904334934937
 396    0.39385697852559876  0.46723413706997396  0
 397    0.39406780973446598  0.85280054642857828  0.85087861335432402
 398    0.39481621835996822  0.75857208203273818  1
 399    0.39874368620818862  0.78216157607638503  0.18231339737005936
 400    0.39903199180985571  0.21279988365587732  0.75523165992692853
 401    0.40000393747157803  0.75394115223290092  0.52134485392454166
 402    0.40007107647706169  0.74903470657560622  1
 403    0.40117041779009271  0.80199118318158147  0
 404    0.40138549569864757  0.12925916491706585  0.20452891432268416
 405    0.40358789370503556  0.84766923218865464  0.72489993727424673
 406    0.40455410174029632  0.36073212778454233  1
 407    0.40641804460023301  0.10173878880600683  0.64120616268479624
 408    0.40651288888710585  0.77699350701217829  0.33736732242007289
 409    0.40727023101897886  0.34410451894100813  0.18484039520484929
 410    0.41157382197358405  0.44926537241977066  0.59015180353872687
 411    0.41205524211533706  0.74633126432426944  0.67883366213494145
 412    0.4127602085554013  1  0
 413    0.4145160597353158  0.16849969189354216  0.8260504284202651
 414    0.41568933704066297  0.38580245319566009  0.43765560713220913
 415    0.41652444811627642  0.6086578315174227  0.47751355450826266
 416    0.41684546776196008  0.22564797533817232  0.51867965115720227
 417    0.41801881181374817  0.53575112667848046  0.80518343873652576
 418    0.4194821612483256  0.61603854001735725  0.89593410499485859
 419    0.41971801992091023  0.72222478997506778  0
 420    0.42017664381996234  1  0.68350574564110622
 421    0.42051370055147441  0.81792899009614128  0.26236674851359992
 422    0.42070002608288354  0.30192214389847172  0
 423    0.42097276717845539  0.44439404424602297  0.16618388450473481
 424    0.42163233926628174  0.64523018803801702  0
 425    0.42214513701271378  0.65962175947347634  0.70077773129743492
 426    0.42390389637278131  0.6683426675394738  0.25932929356245521
 427    0.42415753480887985  0.68610943654574708  0.39122234046513876
 428    0.42423552974084833  0.12579278308605502  1
 429    0.42615895454486752  0.55947108240120247  0.24177616028868751
 430    0.42642911203664047  1  0.13982325269609869
 431    0.42914482405045917  0.25130124759190875  0.11110459803256942
 432    0.43218541428270052  0.54169260064840807  0.57745635242030802
 433    0.43260316782415004  0  0.55777153447078853
 434    0.43471263082677647  1  0.39703353167091165
 435    0.43493820373889464  0.12581829363133928  0.4784643019815028
 436    0.43516560194571707  0.13515457301115036  0.32788354416954557
 437    0.43731115672660043  0.88835128859332468  0
 438    0.4373425745626825  0.29687868213739455  0.4615474132681292
 439    0.43862252139054186  0  0.6933694375982612
 440    0.43916600043965426  0.16899798194718463  0
 441    0.44000651133003488  0.33973972974581634  0.63516217807660147
 442    0.44157728509914262  0  0.72992320099271968
 443    0.44410153289467502  0.5272753094004391  0.31898871479739682
 444    0.444634297647649  0.84086623206959998  0.38707185198534189
 445    0.44573333364241935  0  0.85557149780446251
 446    0.44683089324555519  0.58967337687116839  0
 447    0.44687658329401347  0.44126119180420464  0
 448    0.4482266631190403  0.52994369957116771  0.12872182931914769
 449    0.4491372222348049  0.42004880027207919  0.87489725873501401
 450    0.44990009121479568  0.31400066437222057  0.34705811421032562
 451    0.45135657002697821  0  0.2622790450599069
 452    0.45429675352870014  0.28987851053222863  0.75260907008365152
 453    0.45639037075572864  1  0.20894517680029362
 454    0.45684406006158529  0.38725990055293769  0.29638892243783665
 455    0.45887617299297656  0  0
 456    0.45919352469197833  0.22727760000494082  0.28723669341758135
 457    0.46043397018452958  0.28030122451734152  0.21395236922346969
 458    0.46094216523279852  0.62805148631354346  0.32564020380942105
 459    0.46123969749308041  0.60566193745246633  0.17236963080870182
 460    0.46164354370254285  0.16088644990246351  0.68936662735075993
 461    0.46359175863776925  0.53579378671419464  1
 462    0.46619879084728444  0.20581276443694388  1
 463    0.46669104706516673  0.20128699432121536  0.61131251956243193
 464    0.46700277827345216  0.31762343692694733  0.84979739521720044
 465    0.46731029940259194  0.61809643766626832  0.77785501874704932
 466    0.46878758515689789  0.45250325071623965  1
 467    0.47087309996700771  0.88851659052038601  0.4526523927562639
 468    0.47150219428763201  0.78672843294536388  0.60134656694621702
 469    0.47170914709801409  0.89081337034237096  0.28259995801781002
 470    0.47268270925456002  0.49890973705039637  0.66577314425127909
 471    0.47274375430337534  0.45721333879297499  0.41031842175783639
 472    0.47392893070728626  1  0.54596162929476866
 473    0.47506133821512458  0.35584053585438108  0.51418518712700934
 474    0.47569888717550168  0.71928313000538957  0.19320945215363394
 475    0.47791055448124303  1  0.71631680760378058
 476    0.4796724029841018  0.20293134233866778  0.41647675262829065
 477    0.48000751466974451  0.57154758519493387  0.39319998194333705
 478    0.48001845528135439  0.39322432394971524  0.79841939951101804
 479    0.48035474379578696  0  0.34159557197297619
 480    0.48188153622139601  0.80073347565813568  0.1424676957208954
 481    0.48220785330269778  0.87816826139237791  0.71430327571614149
 482    0.48252863246019695  0.7075671973917822  0.56196839022939316
 483    0.4831983029071541  1  0.87785579363323574
 484    0.48373296867380489  0.86275717222090798  0.79815656151972048
 485    0.4841692936397608  0.88132988990593297  0.55701883389114293
 486    0.48509488891400915  1  0.29582813922822554
 487    0.48575316386177619  0.64009972247782643  1
 488    0.48661565121224726  1  1
 489    0.48746961947501688  0  1
 490    0.48861400186410231  0.78026242304094451  1
 491    0.49005246211551906  0.23868796053921398  0
 492    0.49013994502139546  0.65477692187005943  0.63107947724285196
 493    0.49015665046888812  0  0.49737081618485823
 494    0.49058802772200244  0.74656590497918918  0.42858023190609934
 495    0.49113706723271194  1  0
 496    0.4911598848822934  0.48236958297605065  0.83484070739536675
 497    0.49245455227772628  0.37589102634652016  1
 498    0.49267227429058402  0.5700032822317499  0.49925063449539464
 499    0.49271693908398906  0  0.13144526530578968
 500    0.49334326937481099  0.3674691231594821  0
 501    0.49533172362336936  0  0.80066383971788901
 502    0.49767195145060794  0.436818196799859  0.50795968556050086
 503    0.50035509322898042  0.72214931634374291  0.10412826189109868
 504    0.50178250299096505  0.12471104520336132  0.60757885182629912
 505    0.50266960066476363  0.6635235334567986  0.44266550398969629
 506    0.50305211319534515  0.4119978156656155  0.21865610832992066
 507    0.50449106802048083  0.77404436344396321  0.71702867928810099
 508    0.50708964989807459  0.11299927430374862  0.19609762591951163
 509    0.50827979056565964  0.20828682699237933  0.20589961253059028
 510    0.50915377700127573  0.26990471777149561  0.13270410206744243
 511    0.51056265141240842  1  0
 512    0.51062862231593709  0.76230636822007747  0
 513    0.51245727363629634  0.57807574596384903  0.2621243088422795
 514    0.51414056037141964  0.21755173463322397  0.80246504120530671
 515    0.51499378588726086  0.75798230658627053  0.8079882668857804
 516    0.51512449575376784  0.29056098263766578  1
 517    0.51595482153044581  0.86724125047664335  0.88427970194416972
 518    0.51811327706796872  0.67177734562550251  0
 519    0.51861849343733413  0.58207514776274971  0
 520    0.51939151170259334  0.81483388125257639  0.50076276581078083
 521    0.52265792038034387  0  0.31138149327540537
 522    0.52451292549749051  0.15756789110727956  0
 523    0.52563184733783708  0.83738113994968533  0.21475290299661826
 524    0.52847305980894321  0.35623040083046159  0.149423688308984
 525    0.52855248025215795  1  0.646266506956237
 526    0.528836626002545  0.40523020215817029  0
 527    0.52937730007435335  0.33654619754692883  0.32516141725742803
 528    0.53257864606366867  0.27944625464042999  0.42829111749637527
 529    0.53263505801697475  0  0.39850240350934074
 530    0.53321974131121164  0.75325766007192163  0.25129666472938461
 531    0.53524188003504236  0.67680434371394638  0.78653729607411049
 532    0.53806113889567608  0.87067008398497159  0.37181650533169869
 533    0.53873642183831327  0.16656687075773946  0.4929419044625849
 534    0.53980474510058796  0.53135001176923413  0.77630910128671438
 535    0.54026543911916725  0.70373723110502606  1
 536    0.54054398632384526  0  0
 537    0.54061150694663718  0.19890134177467284  1
 538    0.54239782523508406  0  0.65836561717872422
 539    0.54317096640787221  0.49336057467499544  0.11182085879535598
 540    0.54346598233978261  0.62469116647000211  0.3437182587888466
 541    0.54363616063962394  1  0.43940342218635403
 542    0.54541671691510774  0.4236440286575977  0.37301963280061123
 543    0.54605085646542106  0  0.2391960409315928
 544    0.54817221900940671  0.10727279039512397  0.69658232889556371
 545    0.54825807087675205  0.79638443933101521  1
 546    0.54908179727288031  1  0.24008385152860201
 547    0.54947937841546135  0.32166481595028584  0.72490017316362476
 548    0.54948830787614811  0.25339378330707057  0.32115843002029465
 549    0.54994835984193868  0.59522960840057837  1
 550    0.55090912135093528  0.41734127257361292  0.86600646377529666
 551    0.5511251188783306  0.75736094398494447  0.35424716004905887
 552    0.55174365114963875  0.26658328861841152  0.58981549478823558
 553    0.55310545797608479  0.37164016588865317  0.47344558675049325
 554    0.55339823696166501  0.22898838697937329  0.6707458600048164
 555    0.55412526450106747  0.41452571453023962  0.65018183037049848
 556    0.55450877273658483  0.60349833299710243  0.61033104061389443
 557    0.55560173817987768  0.52283263705005756  1
 558    0.55825442607595799  0.68219017473593235  0.67509423356344789
 559    0.56035224915957982  0.25436974292575637  0.8791005011769315
 560    0.56103053710898698  0.56255017824703368  0.69441311295808639
 561    0.56108406294275648  0  0.86742636556191799
 562    0.56111076283854244  1  0.37901799420479843
 563    0.5622259489654382  0.5388172016795274  0.55218206841158202
 564    0.56328691443974244  0.40135119068860969  0.55888786599174056
 565    0.56335729824158742  0.10940082434349392  1
 566    0.56556596689128569  0.33545685528879327  0.83943642162350751
 567    0.56660735015454311  1  0.13448726967340857
 568    0.56724250840372947  0.80807489724062576  0.12933034865782289
 569    0.568181798385333  0.13097605837401438  0.34663518729182807
 570    0.56885892187361065  0.54714849007135247  0.44805119468310894
 571    0.56891879549421098  0.6422484025125742  0.13798671347679387
 572    0.56902915608714011  0.80181998937542576  0.60362195417466635
 573    0.56974838611788303  1  0.73270267406649225
 574    0.57205698587746379  0.31154298794774238  0.23343253549185361
 575    0.57285776251661191  0.51980238477038165  0.36184389015609608
 576    0.57318610883307008  0.10284508777735532  0.53645400858697978
 577    0.5734052870747649  0.51329500651182147  0.24374162882365449
 578    0.57538881395852248  0.66217398888029699  0.50231797760053276
 579    0.57560331271281651  0.44477350958508238  0.74182448064034268
 580    0.57854791026191554  0.60627088270814022  0.80361498094309669
 581    0.5785975291939911  0.82030275411160314  0.80847739122050755
 582    0.58053805188296659  0  0.2433173040516694
 583    0.58103281306701771  0.51202154347321593  0
 584    0.58123457006087875  1  0.83260072582242606
 585    0.58269232657396031  1  1
 586    0.58411837853807602  1  0
 587    0.58631796312180573  0.88583631417284525  0.57740915589873121
 588    0.58979747752785305  0.14985506794785394  0.17652353964790493
 589    0.59158933691688687  1  1
 590    0.59186962379442898  0.15628176963397897  0.79315200854800416
 591    0.59221068500256258  0  1
 592    0.59229861755920954  0.60632193072487228  0.2185561262322907
 593    0.59305016484888773  0.82068585804600924  0.31215030251785786
 594    0.59650458396257799  0.83471839148687066  0.72045807260191519
 595    0.59777427213611822  0.41567418022521835  0.27243383705624641
 596    0.59785519247603425  0.85656931250169588  1
 597    0.59817310839536353  0.37499809478111518  1
 598    0.60201632483853906  0.29408186573952666  0
 599    0.60232840425296963  0.72150164929579652  0.1264892760036162
 600    0.60236691339851223  0.30459359003561398  0.50312875436033344
 601    0.60301281687647201  0  0.54067606294115056
 602    0.60676115532147612  0.74538785632644544  0.46851827100428278
 603    0.60804073240745093  1  0.69411876873978795
 604    0.60910666346149422  0.46140108928263979  1
 605    0.60945116276080313  1  0.33931035086830741
 606    0.61241941733787875  0.7267344275237716  0.87512089306317242
 607    0.61565581396522384  0.63572788542710335  0
 608    0.61770255067006807  1  0.54964906168756666
 609    0.61801705192795842  0.32864656848358054  0.6435260265518804
 610    0.61859204640378107  0.79133026823005503  0.19987623779737398
 611    0.6192322019185138  0.5128618133047681  0.16165437655818729
 612    0.61929993489998603  0.63395530860070082  1
 613    0.61937557728934634  0.22952043810194206  0.82463979936090237
 614    0.62019126489086951  0.22859657072158587  0.17927386900003445
 615    0.6206264983120956  0.38649518792968562  0.18407969135119712
 616    0.62161240059996203  0.73677393358575238  0.66635164206337283
 617    0.62188222301534402  0  0.41388963988766181
 618    0.6220780301833323  0  0.72523745979267362
 619    0.62328854241348075  0.17675153252877246  0.53891645262960919
 620    0.62473874616724046  0.4523332794930196  0.36116873697724594
 621    0.62491281703422918  1  0.81325217680911299
 622    0.62677768153809543  0.18617578725891104  0.67334338242936409
 623    0.6294681320872354  0  0
 624    0.63007506221874487  0.15701743168336552  0.39861102415581018
 625    0.63021936479336882  0.20384041366721398  1
 626    0.63176097478793447  0.71257095095899858  0.26105211452184041
 627    0.6321355550914457  0.20217059320895681  0
 628    0.6321569892738268  1  0.2735403450175431
 629    0.632239891796602  0.34999369077842674  0.34025442383529675
 630    0.63287801309640468  0.51436744617137364  0.87893691516774031
 631    0.63398858488644017  0.39004814253010944  0.49861534255079332
 632    0.63440755225034318  0.48278699393380575  0.45731608858227701
 633    0.63501960066325636  0.50147199976337631  0.70837909713619496
 634    0.63537476871242138  0.42572941818777055  1
 635    0.63693068260132124  0.824843531499871  0.4700959191588569
 636    0.6374835778921335  0.84482426144268508  0
 637    0.63750471348469506  0.67015090467808081  0.34881147971401527
 638    0.63771533024381455  0.24088681306220724  0
 639    0.63803053026067358  0  0.841886811785168
 640    0.63900477668556566  0.20674539551546239  0.27001881298810526
 641    0.6412683231946894  0.6737620968518151  0.43393641339685474
 642    0.64142754928270573  1  1
 643    0.64290621870600217  0.5878728298639998  0.37114043873872948
 644    0.64406135898352834  0.73485747127543688  0.57558731262223095
 645    0.64556681790075054  0  0.14181197626998421
 646    0.64701623039582568  1  0.66833431815031463
 647    0.64701666793308665  0.49549584329538243  0.59731480674730053
 648    0.64755078935360477  0.72877801314165225  0.77995560687026133
 649    0.65008214711803469  1  0.4283346128068426
 650    0.65062001081757015  0.62738167603262829  0.71706106827420435
 651    0.65133749507393102  0.25392582888356807  0.39047265213970161
 652    0.6519443077742666  0.64030266362932042  0.6150647626896103
 653    0.65322978624855754  0.56242386687471491  0.26869017923159344
 654    0.65334649412216728  0.79578853345878464  0.84612842591569437
 655    0.65365609504082411  0.54943889682648273  0.79079384770798156
 656    0.65431077902339918  0  0.29010546634987744
 657    0.65537805543255179  0.39826492930989299  0
 658    0.65673427668632922  0.6523884417638951  0.13318953712507375
 659    0.65793092849968471  0.45225967475508705  0.80349473928414494
 660    0.65863762718761232  0.77452916607898559  1
 661    0.65914983506361702  0.61562266061652182  0.84395054621690191
 662    0.65981405886729816  1  0.3619518981931602
 663    0.66029475103925661  0.29780676523113708  0.775052548887182
 664    0.66094690116200616  0.81748434610183218  0.64453097349269539
 665    0.66272889072760632  0.78818025517370582  0.38140703813439103
 666    0.66321506025110311  0.30983666196079701  0.20805763136831965
 667    0.66346120402509845  0.47063887337056981  0.27611356320437114
 668    0.6640333262215532  0  0.60517010238219959
 669    0.66737491011136996  0.7753173926716902  0
 670    0.6673915468325925  0.5931814808811201  0.53700167091617101
 671    0.66772470152236219  0.5581126117596994  1
 672    0.66892572088901714  0.27552894947977313  0.59214600992854483
 673    0.66998645089788711  0.1245251078036213  0.7433800035988084
 674    0.67091463057189038  0.88495307779503563  0.15154740691315935
 675    0.6717608228690547  0  1
 676    0.67538773490670512  0.50800850373647344  0
 677    0.67544743825073694  0.84778441892549838  0.56329571757671359
 678    0.67553558899153954  0.26613622509765428  0.89085853676868254
 679    0.6769314455982276  0.86120223039288768  0.74921711986473083
 680    0.67793150706648042  0.40072453161026078  0.6877248819189512
 681    0.68393562075126779  1  0
 682    0.68454572281168768  1  0.51067368756585563
 683    0.68747563296044045  0.3323971630894168  0.42781240136765797
 684    0.68747740262503532  0.11859101825381395  0.88893222390438598
 685    0.68762707479110763  0.86110753253244343  1
 686    0.69066431834834396  0.27847794648511914  0.49392730677668578
 687    0.69144427675944953  1  1
 688    0.69147621679668214  0.14601815975400215  0.33981169894487384
 689    0.69276335893288854  0.38240815260735517  1
 690    0.69298340778854495  1  0.74297323400921722
 691    0.69612085306289073  0  0.52769977965748827
 692    0.70287168243468667  0.20684436041863288  1
 693    0.70299717102444403  0.59355493550717608  0
 694    0.70335439049806614  0  0.22225373450979397
 695    0.70373942402016043  0.42218432936676709  0.60680059153315324
 696    0.70525269940814861  0.72715252981018541  0.4450560697553872
 697    0.70555431753472597  0.73279364232733413  0
 698    0.70584954645902642  0.57065294629670327  0.44760043961434415
 699    0.70654232391178329  0.11315493139572064  0.13829767065772877
 700    0.70654439491472798  0.42295185791669482  0.13791093874335908
 701    0.70678904837827639  1  0.89775953257753327
 702    0.70694487897498393  0.19138005941328284  0.52549054257236083
 703    0.70767400730210428  0.51122253307666565  0.12530648796529742
 704    0.7078616948700116  0  0
 705    0.70914776565715998  0.65455857404608242  0.30444494424186325
 706    0.70952467466341984  0.78859852265309915  0.18282057178726741
 707    0.71086858350006399  0.56343398006360579  0.674539090300177
 708    0.71128275684778575  0.36936827923116478  0.8339947851481242
 709    0.71294998353699501  1  0.23637442296638428
 710    0.71436903590145806  0.69622781706714609  0.73931869320330634
 711    0.71452344943575963  0.40487401596433842  0.46737548966629189
 712    0.71472588226888134  0.23168008872505258  0.7718398675547834
 713    0.71718719774854534  0.51563022217961196  0.54847768052986345
 714    0.71830629458012096  0.89858941760637101  0.62374463877076225
 715    0.71893449372752682  0.7021747565461981  0.20801505869968104
 716    0.71920340257763105  1  0.65639300781450338
 717    0.71948090238722506  0.6633129986671602  0.56920395694919734
 718    0.7197341098640736  0.15914778767147492  0.63020372942961678
 719    0.72120511497918538  0.24778601505384712  0.26900852092765148
 720    0.72160092212650528  0.41519787391197216  0.31054358917048952
 721    0.72196344438934712  0.6693950373803913  1
 722    0.72260286183019673  0.16642064102641591  0.22253157999758832
 723    0.72262961618802524  0.71994235422563424  0.88433904723819656
 724    0.72300044565495158  0.46408749819813427  1
 725    0.7237679075726986  0.80380417332662968  0.48730656602967898
 726    0.72554538324682516  0.30538512509267479  0.12970053762828379
 727    0.72663848486612681  0.19927304865140213  1
 728    0.72712664647642833  1  0.82242060894904456
 729    0.72809800081541165  0.4775580580341095  0.70326991798018568
 730    0.72813977967223098  0  0
 731    0.72866173394794587  0.64535479501482107  0
 732    0.7293938863542262  0.84079936333659433  0
 733    0.7299117758244531  0.83988050385920054  0.31018427098273293
 734    0.73014401462239331  0  1
 735    0.73281995663218447  0.64730519884983062  0.40597259440022782
 736    0.73310629145966311  0.74266771588836478  0.65602055383380875
 737    0.73459961297239307  0  0.28721619987597113
 738    0.73464542420343282  0.11583140307665626  0.41140864168221658
 739    0.73544619187592453  1  0.3976089014417164
 740    0.73633546703788288  0.34900462287935757  0
 741    0.73946290019952776  0.33114747493216012  0.62572593864213666
 742    0.73994939494920442  0.29007689294214178  0.35936878953274137
 743    0.74433744921907763  0.49421410152896866  0.34127974223370805
 744    0.74646663911635613  0.89377838949039434  0.70446646257532397
 745    0.74696201769011306  0.74442394074864982  0.29478090932497097
 746    0.7476387095270296  0  1
 747    0.74838612231428314  0.3817897262556213  0.20930871880632659
 748    0.74930573957630764  1  0.16134586203567775
 749    0.74944474042024134  0.11273123836377053  0.70235798234245261
 750    0.74948479066083984  0.61445793253044811  1
 751    0.75161531092325917  0.58569411302129015  0.23029331282744325
 752    0.75191022942471442  0.30521912714304622  1
 753    0.75279102732831493  0.46398329571042085  0.78938787400815458
 754    0.75437556481625145  0.89378583619355978  0.47107784651840284
 755    0.75612465153432928  0.84338083297969946  1
 756    0.7569569513328176  0.65039325470640597  0.65388774441690634
 757    0.75782430926707778  0  0.37268061781327211
 758    0.75867046430200347  0  0.6750039008954003
 759    0.75978566206718545  0.6546318492355937  0.82953216148308218
 760    0.7597964565392743  0.22998927841135386  0.59083882736426308
 761    0.75997601984914931  0  0.17359746645418545
 762    0.76009236579695716  0.15614769066687875  0
 763    0.7604711183315952  0.37700362877883997  0.73180725728215135
 764    0.76132921449264668  0.75589525402584756  1
 765    0.76154627791402107  0  1
 766    0.76276558685829354  0.82428953828017926  0.85394491913112536
 767    0.76303574488997084  0.88653288129346308  0
 768    0.7632767664372333  0.12941325496165204  0.80126187112649883
 769    0.76353426260379464  0.48841160831686531  0.42537339914295785
 770    0.76405399688409625  0.17550228334424861  0
 771    0.77025079040597566  0.50265396089325365  0.1836261814812879
 772    0.77376569428961373  1  1
 773    0.77438554834317241  0.34550488295049481  0.28800126594169606
 774    0.77663837756943443  0.47152851463031986  0
 775    0.77722924511455249  0.84926215346297862  0.55978437571032025
 776    0.77932789483623055  0  0.45754678709461238
 777    0.78233794500691123  0.39772081831745298  1
 778    0.78298748752653258  0.57123002725205407  0.8306099642799547
 779    0.78439675465505265  0.55085821998751938  0.58721888578406289
 780    0.78590176129228495  0.21566788401708725  0.18322731362721292
 781    0.78704572897909064  1  0
 782    0.78709104131428909  0.20897302543942706  0.34849865991788959
 783    0.78808495087717079  0.10530110244533322  0.30413802970485332
 784    0.78839577037063668  0.65393158627113002  0.48992442158362759
 785    0.78882560915836442  0.28649896426834009  0.50988732096079359
 786    0.78895758117797554  0.72972077545580316  0.78436746391870149
 787    0.78922213877945724  0.64532706706839194  0.15534296484930499
 788    0.78924930759020151  0.74879175322636859  0.52272821526191082
 789    0.79013198358322967  0  0.81391437966501423
 790    0.7916120046899926  0.27270110113350177  0.81996701645178671
 791    0.79290951639883922  0.52151146430968742  0.50582341000722619
 792    0.79420746459182423  0.89273350820617359  0.24956285621039104
 793    0.79434997995153112  0.22704337272328318  1
 794    0.79557023003730598  0.32321641926512068  0.88712723066816024
 795    0.79560119441043842  0.57295191203179829  0.4330735726676499
 796    0.79613442709479398  0  0
 797    0.79620422484862252  1  0.80430042930810641
 798    0.79651055681876015  0.79395324189397165  0.62803522038401693
 799    0.79827443214658067  0.84241234726860659  0.7583591306488443
 800    0.80082648586245853  0.42949212439465329  0.56623172283606227
 801    0.80148713151703865  0.82841817779925164  0.43753725919781772
 802    0.80290519063071497  1  0.66590072967609371
 803    0.80463006995901742  0.13342089573313229  0.55786368132419262
 804    0.8053415848377885  0.80922554655902712  0.16057870195394647
 805    0.80598118572739541  1  0.44148771641088796
 806    0.80626570143889897  0.38339306590832661  0.45979927579040691
 807    0.80792597705053193  0.66941875530778361  0
 808    0.80844763594049296  1  0.85469881367315592
 809    0.80896865583637578  0.28803523897430416  0.70227602346498419
 810    0.80924560672213341  0.38541750110511458  0.80699580426306827
 811    0.81119326973546246  0.70490904305343427  0.89570226983641044
 812    0.81239090522039559  0  0.11011879294610685
 813    0.81271032849890734  1  0.56223581761643726
 814    0.81320622450104996  0.55057800950180924  1
 815    0.81391369009500258  0.60955907526347419  0.70163223880842929
 816    0.81425245600543927  0.75205679086321064  0
 817    0.81612015851629927  0.82577337588299238  0.32356515044845718
 818    0.8166706783590556  1  0.7373702010594988
 819    0.8169623056545221  0.4968820375301693  0.64610132773282269
 820    0.81745615838688079  0.25430505551563298  0
 821    0.81834396534718601  0.78592731649871816  1
 822    0.82254394980527801  1  0.29898588321826236
 823    0.82275241787180287  0.32347285625505012  0.19360088684530624
 824    0.82627142600422887  0.5968962790556579  1
 825    0.82777981908502951  0.44203727662056763  1
 826    0.82831223647230268  0.17814261398790082  0.42105627337524199
 827    0.82879029302689911  0.17821038310075538  0.87647132412375095
 828    0.83110650831660415  0.61729337669806306  0.30254053994671504
 829    0.83125806332833108  0.34494938380483975  0.58722570083206282
 830    0.83149345244388628  0.7589192242427617  0.26047814343407383
 831    0.83172094885505932  0.70905752092563301  0.40203741010088517
 832    0.83396459902229347  0.10116997795986503  0
 833    0.83441857861392932  0  0.87661956049928791
 834    0.83456388823715255  0.56550177504290811  0
 835    0.83470001575000785  0.5218865496138505  0.36232007225615859
 836    0.83566510992706711  0.68694770557692741  0.67530369777924371
 837    0.83894891475901967  0  0.20759297857014697
 838    0.84019568918081911  0.21387800942238636  0.27820070287423132
 839    0.84039999861235537  1  1
 840    0.84040743989231137  0.11135260420037764  1
 841    0.84140655130571196  0.20282569471646383  0.69020824137582171
 842    0.84161747170166068  1  0.59217012143305725
 843    0.84166885404483061  1  1
 844    0.84238568663071889  0.43874663352030274  0
 845    0.84713179951429196  0.39605000199738655  0.11862850807469419
 846    0.84929360195037418  1  0.13459192520843916
 847    0.84957724273647495  0.85878130578604228  0
 848    0.8534749972936615  0.49873163942573034  0.2152712853411026
 849    0.85355322137540302  0.64407697182861423  0
 850    0.8547880954762912  0.49821307623911681  0.78775239960637899
 851    0.85685246963534123  0.67818147401881468  1
 852    0.85690936923818706  0.69021036568773853  0.2001001878024089
 853    0.85901429229961013  0.33287312875009123  1
 854    0.85910953949551994  0.28979760298605739  0.46233104545668258
 855    0.85967754296111165  0.89385368999234371  0.49714252681780241
 856    0.86103552231472991  0.27195608722246956  0.36845069425686672
 857    0.86171024121189321  0.75837321723460338  0.73837132130141458
 858    0.86231843930298036  0.67014607203891075  0.57810202522080378
 859    0.86405963688511822  0.47116571034212851  0.88268039839118018
 860    0.86463241018373183  0  0.65586219586027783
 861    0.86472850569548487  1  0
 862    0.86487039167077595  0.85680959681733571  0.88393189262272742
 863    0.86514578073245663  0  0.43692391145784226
 864    0.86516407133455009  0.26559374248627254  0.76347179163188039
 865    0.86565889726615186  0.3653287434977503  0.31406887387962934
 866    0.86751506226762343  0.26683845667587691  0.86745164182391332
 867    0.8680940486547688  0.66544241604554799  0.76437358674558409
 868    0.8685997686364697  0.43121746128886085  0.6188817184768125
 869    0.87073786136006659  0.78376863297936761  0.50851915113090862
 870    0.87306764933250003  0.39680726854541304  0.5117396871199188
 871    0.87395814272736416  0.75386049217379325  0.86155391930942626
 872    0.87458065401356255  0  0.77769022000162369
 873    0.87499810731884109  0.14402763743772376  0.15186224190182729
 874    0.87616012693586975  0  0.36339458027782767
 875    0.87695118731303257  0  0.28248445229572383
 876    0.87786733265132644  0.18156579739633075  0
 877    0.87791179360232718  0  0
 878    0.87897883975392277  0.23620657826887778  1
 879    0.87939652617578568  0.73725015608551758  0.33239970213914483
 880    0.87957228174876323  0.38681799628567021  0.22038229971692117
 881    0.880154507175124  0.86503328810276559  0.79013412445925812
 882    0.88028661616800874  0.69812957430646838  0.47250701977700382
 883    0.88095222133967233  0.18386677767723505  0.5076660281046349
 884    0.88205103214219394  0.58901639074346102  0.40990242224565931
 885    0.88271054304571361  0  0.13831244964146028
 886    0.88302020032085948  0.71181104748401958  0
 887    0.88307239376950541  0.45066976213061238  0.38627059802211577
 888    0.88402178030150602  0.45179781114182738  0.29173379396808363
 889    0.88460000835152686  1  0.42801390996647293
 890    0.88666650075034037  0.33818332280082852  0.65616926314541812
 891    0.88851163050330495  0.60158176241582284  0.23157301535706423
 892    0.89005996460199177  0.83061695955204418  0.58729125467998167
 893    0.89065289597358832  1  0.33210443283282765
 894    0.89467888040521848  0.48193426932441996  0.55597331176236175
 895    0.89544470050498381  0.11970653591636456  0.7482304922997528
 896    0.89583411793513124  0.37394626383864504  0
 897    0.89605033664782041  0.45271076679045336  0.7208266210969918
 898    0.8967480447599927  0.12832202202246051  0.256618884597268
 899    0.89726243907199843  0.13347812627132072  0.65513330993510888
 900    0.89734112073769456  0.63340838622426598  0.87570052537010556
 901    0.89750503542616467  0.81585612583960754  0.30336835374713311
 902    0.89817910569065229  1  0.52025125532144401
 903    1  0.80375138902045773  1
 904    1  0.41735389726422895  0.81980577458794446
 905    1  0.14534889031862447  1
 906    1  0.58326513297747096  0.60529859118967921
 907    1  0.84763049635155951  0.69098636015595427
 908    1  0.7502578773879337  0
 909    1  0.83897530542745469  0.42138859434788717
 910    1  1  0.23175288986249734
 911    1  0.18626585598953993  0.35122320236092586
 912    1  0.56900091003432018  0.79702180662629185
 913    1  0.79724828580588514  0
 914    1  0.27521779450777956  0.58453738555459267
 915    1  0.51708540630690014  0
 916    1  1  0.88893690170481687
 917    1  0.77923754824837266  0.19408739658830915
 918    1  1  0.8067118843492519
 919    1  0.41928431663489424  1
 920    1  0.58876782356584445  0.4981323259529678
 921    1  0.2783703546833004  0.19896270191091214
 922    1  0.85668603867578363  0.23041188055114373
 923    1  0.33777331510983966  1
 924    1  0.1375894438340286  0
 925    1  0.54387649578136577  0.68708014203849022
 926    1  0.3302184476934476  0.83220881232504296
 927    1  0.58597397164803211  0.31128326675746937
 928    1  0.33759556336415519  0.37432294427000401
 929    1  1  0
 930    1  0.38155782848507408  0.44608267815871278
 931    1  0  0.49220336359215017
 932    1  1  0.62348176146025824
 933    1  0  0.85587732273161388
 934    1  0.58285221656498232  0.11639514409855209
 935    1  1  0.65238969328502183
 936    1  0.8818724837283165  0
 937    1  0.44963516611367177  0.11868728607618555
 938    1  0  0.20594586449172964
 939    1  0.52391994532532127  0.442378930145648
 940    1  0.75970734180701527  0.46037389648009719
 941    1  0.61734629177454536  1
 942    1  0  0.57805410373083133
 943    1  0.17593519870322682  0.81076737857834569
 944    1  0.50779711197763588  1
 945    1  0  0.64205700075530714
 946    1  0.64025429832668246  0
 947    1  0.73945836622807581  1
 948    1  0.71004947872538515  0.63186856476301234
 949    1  0.84706444364925837  0.15367493964565207
 950    1  0.64525312466297735  0.75873892102975671
 951    1  0  0.11656538270757832
 952    1  0.29834188626288261  0.75934043135515861
 953    1  0.2997126234884348  0
 954    1  0.18975772975018521  0.56057849088845524
 955    1  0.39782734149118987  0.61378212206274185
 956    1  0.24706275488715734  0.88241167563133982
 957    1  0.16623380450591183  0.16327842715650717
 958    1  0.83667981333683916  0.78219764127945735
 959    1  0.23285949865033204  1
 960    1  0.82712343249030285  0.87497178486101357
 961    1  0.70531704284592234  0
 962    1  0.84564505375065324  1
 963    1  0.68097774294073399  0.29772892233291959
 964    1  0.70003599588843812  0.40217577288308159
 965    1  0.3085201613771108  0.51861415167787817
 966    1  0.89021499891017863  0.43336595823422852
 967    1  0.66051378075730138  0.18732780196852108
 968    1  1  0.39108777910333287
 969    1  0.11890398910792985  0.4834906928283691
 970    1  0.53989135549239575  0.25053954020891134
 971    1  0.25365844847855751  0.28100254826520349
 972    1  0.45053765526731177  0.38505702644026774
 973    1  0.76241423413125031  0.13691922899955705
 974    1  0.78300092778681085  0.54081869824848761
 975    1  1  0.26473659563525498
 976    1  0.64764119956391142  0.54459439601898485
 977    1  0.82606639366343826  0.3162752061103225
 978    1  1  0.16751851072721324
 979    1  0.74361269711183875  0.7344378215611399
 980    1  0  0.32149964040814472
 981    1  0.37257146349393455  0.31767964254997572
 982    1  0.21208323730998541  0
 983    1  0.8676044282280293  0.55470540990710093
 984    1  0.80618195097083478  0.64468227144997048
 985    1  0.53732653318391388  0.79665828540014072
 986    1  0.36781036876295159  0.20839492366440324
 987    1  0.16795652414601614  0.3858877941377224
 988    1  0.10284265706413896  0.75832136284467577
 989    1  0.53929011030831397  0.61452574309667152
 990    1  1  0.33020321429937305
 991    1  0.49713184000877519  0.71426679931935488
 992    1  0.11000282614198179  1
 993    1  0.68962350157418684  0.85054560393832979
 994    1  0.41233027338765704  0.70694217071349252
 995    1  1  0.83116540100553216
 996    1  0.2511733891443918  0.40518055094533301
 997    1  0.45002337176690038  0.28112843989322961
 998    1  0.54752348460430977  0.88031638428479331
 999    1  0.44758404694838982  0.47642648688284411
1000    1  0.25149386348983077  0.61230292736308745
1001    1  0  0.74877925466777884
1002    1  0.13138808574015998  0.66627155948666383
1003    1  0.24938559824207887  0.16125243512815221
1004    1  1  0.50572266726456727
1005    1  0.60311182485967807  0.46671594125605648
1006    1  0.20898572356229  0.70910882499477101
1007    1  1  1
1008    1  0.54862104523083854  0.36724336732327367
1009    1  0.40007500229217174  0.82414512593381584
1010    1  0.15814393305089869  0.30111061748591228
1011    1  0.64382419119581602  0.66774912754541493
1012    1  0  0.54835701636082423
1013    1  0  0
1014    1  0  1
# Generated by c:\dev\polylla3D\tetgen\build\tetgen.exe -fzenn c:\dev\polylla3D\data\1000poisson.node 
