# This file was created by meshio v5.3.5
1000 3 0 0
0 0.0000000000000000e+00 0.0000000000000000e+00 0.0000000000000000e+00
1 0.0000000000000000e+00 0.0000000000000000e+00 1.0000000000000000e+00
2 0.0000000000000000e+00 1.0000000000000000e+00 0.0000000000000000e+00
3 0.0000000000000000e+00 1.0000000000000000e+00 1.0000000000000000e+00
4 0.0000000000000000e+00 4.9726326541911914e-01 7.8227887464836821e-01
5 0.0000000000000000e+00 7.0373378680476462e-01 2.5152581966405829e-01
6 0.0000000000000000e+00 8.2173419815306203e-01 6.7901418128604263e-01
7 0.0000000000000000e+00 0.0000000000000000e+00 3.5497432263158513e-01
8 0.0000000000000000e+00 6.6401451987479798e-01 3.0448955921098275e-01
9 0.0000000000000000e+00 3.7677025997997771e-01 0.0000000000000000e+00
10 0.0000000000000000e+00 6.2799545827959857e-01 5.2727283902992494e-01
11 0.0000000000000000e+00 1.2052346534402503e-01 6.2726361061807767e-01
12 0.0000000000000000e+00 5.1311611703917237e-01 1.6867792478086630e-01
13 0.0000000000000000e+00 6.6940846282337474e-01 1.9235173783202708e-01
14 0.0000000000000000e+00 5.6641899124295814e-01 4.6550873440302809e-01
15 0.0000000000000000e+00 0.0000000000000000e+00 7.3322346309848530e-01
16 0.0000000000000000e+00 7.1209484168218373e-01 3.6555808925959710e-01
17 0.0000000000000000e+00 0.0000000000000000e+00 6.4646282328059046e-01
18 0.0000000000000000e+00 1.2885282937129228e-01 1.3551062754858079e-01
19 0.0000000000000000e+00 8.9279193552776659e-01 6.3048563055449347e-01
20 0.0000000000000000e+00 4.3439160626078266e-01 5.0700629802368624e-01
21 0.0000000000000000e+00 1.3360728539497368e-01 6.6718015797136110e-01
22 0.0000000000000000e+00 4.8397778552975845e-01 5.7316176416808362e-01
23 0.0000000000000000e+00 6.3700276462874095e-01 1.8518687276005696e-01
24 0.0000000000000000e+00 6.8277954666411700e-01 2.1050898741121660e-01
25 0.0000000000000000e+00 0.0000000000000000e+00 2.6352573060730056e-01
26 0.0000000000000000e+00 2.4828921067117882e-01 2.5038656170781681e-01
27 0.0000000000000000e+00 7.1301930458851492e-01 5.3835938837811692e-01
28 0.0000000000000000e+00 0.0000000000000000e+00 5.1821997288230803e-01
29 0.0000000000000000e+00 1.0000000000000000e+00 0.0000000000000000e+00
30 0.0000000000000000e+00 5.8951215456951322e-01 6.0656526977283987e-01
31 0.0000000000000000e+00 1.5737754176207619e-01 6.1338364068554396e-01
32 0.0000000000000000e+00 2.3175500499200108e-01 2.2833657746744029e-01
33 0.0000000000000000e+00 1.0000000000000000e+00 1.0000000000000000e+00
34 0.0000000000000000e+00 6.7779493467315777e-01 8.5050159261655811e-01
35 0.0000000000000000e+00 8.7650111181633727e-01 5.4621437308093534e-01
36 0.0000000000000000e+00 2.7911577221899619e-01 5.9335957075891788e-01
37 0.0000000000000000e+00 4.8313370164294600e-01 0.0000000000000000e+00
38 0.0000000000000000e+00 1.5893877045571136e-01 3.3570977736854812e-01
39 0.0000000000000000e+00 1.1622896320853471e-01 8.4851936838544273e-01
40 0.0000000000000000e+00 7.6222758148066705e-01 0.0000000000000000e+00
41 0.0000000000000000e+00 8.8721507325348770e-01 1.0000000000000000e+00
42 0.0000000000000000e+00 8.6942875195629710e-01 1.4489895146376097e-01
43 0.0000000000000000e+00 2.5461607933685826e-01 1.0000000000000000e+00
44 0.0000000000000000e+00 4.1510661584370157e-01 1.0000000000000000e+00
45 0.0000000000000000e+00 0.0000000000000000e+00 8.7664380878139214e-01
46 0.0000000000000000e+00 5.9073074208145770e-01 8.1559599678926675e-01
47 0.0000000000000000e+00 4.1503114771808136e-01 6.2690355931899555e-01
48 0.0000000000000000e+00 2.3349180277382808e-01 4.6612774739163609e-01
49 0.0000000000000000e+00 1.0000000000000000e+00 3.9169807891426178e-01
50 0.0000000000000000e+00 0.0000000000000000e+00 7.4688850113805993e-01
51 0.0000000000000000e+00 1.8392896214944876e-01 7.3249176010855410e-01
52 0.0000000000000000e+00 1.0000000000000000e+00 1.0000000000000000e+00
53 0.0000000000000000e+00 0.0000000000000000e+00 1.0000000000000000e+00
54 0.0000000000000000e+00 1.0000000000000000e+00 2.4424668126239923e-01
55 0.0000000000000000e+00 7.8982769197919156e-01 4.1322157458588049e-01
56 0.0000000000000000e+00 8.8357934852469544e-01 2.9291891486768296e-01
57 0.0000000000000000e+00 4.9114152890646878e-01 4.2209245872029899e-01
58 0.0000000000000000e+00 3.8900742971575775e-01 4.5700910211381762e-01
59 0.0000000000000000e+00 5.5117183952993243e-01 5.5849196744929086e-01
60 0.0000000000000000e+00 1.0000000000000000e+00 5.9198746123264467e-01
61 0.0000000000000000e+00 4.8785797561708655e-01 6.8903001806564745e-01
62 0.0000000000000000e+00 1.7931651410692850e-01 5.9989812058304770e-01
63 0.0000000000000000e+00 7.1370064148864754e-01 0.0000000000000000e+00
64 0.0000000000000000e+00 3.3075659876056462e-01 5.4270106133398366e-01
65 0.0000000000000000e+00 2.1208256192179631e-01 2.3172107969749778e-01
66 0.0000000000000000e+00 4.5990871435666991e-01 1.0000000000000000e+00
67 0.0000000000000000e+00 3.1676351406169134e-01 7.8689543044876964e-01
68 0.0000000000000000e+00 6.7658794868990824e-01 2.0050748245017425e-01
69 0.0000000000000000e+00 6.4848919411263006e-01 8.3781948701317599e-01
70 0.0000000000000000e+00 1.9310396380690120e-01 7.0337421725414095e-01
71 0.0000000000000000e+00 6.1301100483765913e-01 7.1339274724628277e-01
72 0.0000000000000000e+00 7.9761921762536292e-01 2.6686399945972816e-01
73 0.0000000000000000e+00 5.7098926876152523e-01 4.3927429913370430e-01
74 0.0000000000000000e+00 4.0855826488329416e-01 5.5499701278433500e-01
75 0.0000000000000000e+00 1.6801617707583094e-01 6.4604224639082919e-01
76 0.0000000000000000e+00 3.5805451674713051e-01 4.2049657462876633e-01
77 0.0000000000000000e+00 1.6547178108763194e-01 3.4047531073690196e-01
78 0.0000000000000000e+00 4.9652584730414484e-01 7.1726048503063555e-01
79 0.0000000000000000e+00 7.8556321657624817e-01 3.9938466665041994e-01
80 0.0000000000000000e+00 5.2995645587467666e-01 7.3306776775065141e-01
81 0.0000000000000000e+00 5.8761038837257029e-01 6.3563065263563179e-01
82 0.0000000000000000e+00 8.8493734356035658e-01 1.0000000000000000e+00
83 0.0000000000000000e+00 8.5021982594383783e-01 3.7138274984300235e-01
84 0.0000000000000000e+00 7.6156550138362711e-01 2.8742590764295217e-01
85 0.0000000000000000e+00 5.9591764113252754e-01 3.0680555013209021e-01
86 0.0000000000000000e+00 2.1598155693578713e-01 6.3483435324580029e-01
87 0.0000000000000000e+00 0.0000000000000000e+00 3.5249126979814971e-01
88 0.0000000000000000e+00 1.0000000000000000e+00 2.8468399790938304e-01
89 0.0000000000000000e+00 3.7185122530831416e-01 4.5164593131443753e-01
90 0.0000000000000000e+00 0.0000000000000000e+00 0.0000000000000000e+00
91 0.0000000000000000e+00 7.0373922120329191e-01 8.9010668121600500e-01
92 0.0000000000000000e+00 6.0399486773695388e-01 6.3749772890089984e-01
93 0.0000000000000000e+00 4.1871545435700575e-01 8.5946704104380933e-01
94 0.0000000000000000e+00 8.5369163362962797e-01 2.8375953968059908e-01
95 0.0000000000000000e+00 6.0933298376567280e-01 5.4083902262022632e-01
96 0.0000000000000000e+00 0.0000000000000000e+00 5.7623578881061188e-01
97 0.0000000000000000e+00 3.0272890016183285e-01 8.4976293295564831e-01
98 0.0000000000000000e+00 7.9497935524984098e-01 6.1760616966740012e-01
99 0.0000000000000000e+00 1.0000000000000000e+00 6.9657109036310327e-01
100 0.0000000000000000e+00 8.3187730597517584e-01 8.8983352763140555e-01
101 0.0000000000000000e+00 1.0000000000000000e+00 5.7585302189812426e-01
102 0.0000000000000000e+00 1.7209671069004606e-01 2.4822545047322786e-01
103 0.0000000000000000e+00 4.9565474573591817e-01 5.7527790970283088e-01
104 1.0135582998179626e-01 4.8598708744334440e-01 5.2762319597973539e-01
105 1.0199438261427940e-01 1.9906941898996566e-01 4.1173779212882866e-01
106 1.0299443454352730e-01 1.0000000000000000e+00 4.8097102765921573e-01
107 1.0316409608127741e-01 3.2999803116249693e-01 3.1000854262119226e-01
108 1.0336015863657966e-01 4.3883697385524056e-01 1.0000000000000000e+00
109 1.0459872548442817e-01 1.0000000000000000e+00 6.9979876539781349e-01
110 1.0562097347377608e-01 5.6335916776208439e-01 6.4228423921154931e-01
111 1.0571508194278012e-01 3.5629227172633926e-01 2.4546197492210586e-01
112 1.0660643786368151e-01 6.8886994575772953e-01 0.0000000000000000e+00
113 1.0797637149140027e-01 1.0000000000000000e+00 4.4286620904319174e-01
114 1.0806421609609185e-01 4.2572078001928115e-01 4.6725567975817295e-01
115 1.1059796488435236e-01 1.8373032430828051e-01 5.4876446557154157e-01
116 1.1103127051674644e-01 7.4186963029088338e-01 7.9282140970479364e-01
117 1.1365012995308232e-01 1.1797300765766927e-01 3.4873090314853106e-01
118 1.1451460015584791e-01 7.7881352368073220e-01 3.4014974242787854e-01
119 1.1687537062507747e-01 2.3001551543628174e-01 0.0000000000000000e+00
120 1.1809842400185433e-01 7.8588006567576840e-01 2.2421691249189568e-01
121 1.1865602576546630e-01 1.0000000000000000e+00 7.0220761299327150e-01
122 1.1874012810549683e-01 0.0000000000000000e+00 0.0000000000000000e+00
123 1.1963367105719214e-01 4.3977905119562843e-01 1.3078697806565032e-01
124 1.2006243775796432e-01 5.8750658840217596e-01 3.1105668770976758e-01
125 1.2023973061322479e-01 4.1500142071257007e-01 1.0000000000000000e+00
126 1.2098572937616703e-01 3.3719830784471616e-01 3.1417577268960883e-01
127 1.2177669318860418e-01 1.3679251230195189e-01 1.8551822454452482e-01
128 1.2248142198975542e-01 5.0118131435769298e-01 6.2906134575769912e-01
129 1.2566795723640356e-01 2.9786022380688837e-01 0.0000000000000000e+00
130 1.2574200441160044e-01 7.4323954774115664e-01 8.7691270155843526e-01
131 1.2631667139453573e-01 7.4223635426774459e-01 0.0000000000000000e+00
132 1.2642989495764712e-01 8.7762987496688172e-01 7.2368796184518824e-01
133 1.2776774175127914e-01 7.5501908780997828e-01 2.7729307909450984e-01
134 1.2797004893020669e-01 7.1256693489257628e-01 3.5412455191690428e-01
135 1.2911687409855754e-01 3.3855112508819973e-01 1.0000000000000000e+00
136 1.3058885388213215e-01 8.2000004062085929e-01 4.9169634914404581e-01
137 1.3152734189478266e-01 4.9363810093490867e-01 1.9857870201271866e-01
138 1.3493125760104574e-01 0.0000000000000000e+00 1.0000000000000000e+00
139 1.3494737247526056e-01 5.5562460427003180e-01 7.0810907633409370e-01
140 1.3575339688640331e-01 1.0000000000000000e+00 5.4487405473049144e-01
141 1.3698601677868327e-01 1.5528434567734450e-01 7.1528122145393924e-01
142 1.3774916010485683e-01 2.5748544999304390e-01 4.9636738489349130e-01
143 1.3786172605162794e-01 7.4258263347016840e-01 8.5122227142156992e-01
144 1.3849887078828382e-01 5.5879042283349767e-01 8.2572542370647384e-01
145 1.3951659187821297e-01 3.0801661554217252e-01 4.4538291474059200e-01
146 1.4024625927566614e-01 0.0000000000000000e+00 8.0062310371065082e-01
147 1.4211213066686446e-01 1.0000000000000000e+00 3.5364318935797301e-01
148 1.4255340626156510e-01 2.9070212328322831e-01 7.0356044100544191e-01
149 1.4399959398625795e-01 4.3563255613797069e-01 6.9897362861015599e-01
150 1.4998627460680214e-01 5.7215593062030123e-01 1.0000000000000000e+00
151 1.5210135074969267e-01 1.0000000000000000e+00 1.0000000000000000e+00
152 1.5396862513167597e-01 4.5460918196209876e-01 7.3366353593307332e-01
153 1.5406350652147727e-01 1.0000000000000000e+00 1.5492302890518306e-01
154 1.5499760091460546e-01 5.7010580438667535e-01 1.5295779704087875e-01
155 1.5613000663141885e-01 1.0000000000000000e+00 3.6912284004407325e-01
156 1.5771138759657743e-01 3.2254055400349846e-01 8.7156406916484874e-01
157 1.5840813266301190e-01 8.3341931826624382e-01 4.0037009518815436e-01
158 1.5997724408675174e-01 1.0000000000000000e+00 4.1523105953432171e-01
159 1.6089166723581183e-01 1.0124052470841871e-01 3.2894397261579433e-01
160 1.6212168657884685e-01 5.4242146650609924e-01 1.7839633243259512e-01
161 1.6459250024029071e-01 5.7334663361616112e-01 5.7051492985878538e-01
162 1.6540703462253925e-01 1.0000000000000000e+00 5.1605238029097544e-01
163 1.6582130559870900e-01 2.4699862640430781e-01 6.2386950373401606e-01
164 1.6585447943245879e-01 2.4941075554156278e-01 3.3102956641084547e-01
165 1.6591049535308733e-01 5.1137831068049167e-01 0.0000000000000000e+00
166 1.6738172773297189e-01 1.0000000000000000e+00 5.1466105737961276e-01
167 1.6835602761519342e-01 7.1389435749009000e-01 6.1808749020185327e-01
168 1.6981946089117306e-01 7.0235162835985721e-01 8.5654003059347905e-01
169 1.7038276949285680e-01 7.8834129796685337e-01 2.0531249357121950e-01
170 1.7096590879117390e-01 8.2945144865923925e-01 6.9063632052437596e-01
171 1.7137551019478547e-01 6.1799603670573844e-01 8.2258792996630337e-01
172 1.7176456059896217e-01 1.5317867742695346e-01 6.9749820095747805e-01
173 1.7210355329183158e-01 1.0000000000000000e+00 1.0000000000000000e+00
174 1.7293629319321036e-01 4.0681669137116561e-01 3.8451386211891025e-01
175 1.7302937391785289e-01 1.3260778132470941e-01 8.4339638231612324e-01
176 1.7504407602916605e-01 5.5911359292407581e-01 2.1979166645697013e-01
177 1.7568946873590896e-01 0.0000000000000000e+00 5.4269428091611993e-01
178 1.7670023397458789e-01 2.6912305237978817e-01 7.5078280601549741e-01
179 1.7674105525098005e-01 4.1357811201169814e-01 6.0724443947718076e-01
180 1.7695529776965224e-01 7.9992044328924472e-01 1.0000000000000000e+00
181 1.7719172190536225e-01 0.0000000000000000e+00 4.5369719768356243e-01
182 1.7764710008690832e-01 2.0249104745673918e-01 1.0000000000000000e+00
183 1.7878490285981208e-01 4.6260093936802249e-01 5.2975172395352932e-01
184 1.7938837543633490e-01 1.0786736739866776e-01 0.0000000000000000e+00
185 1.7968766552105053e-01 8.9155662873010755e-01 0.0000000000000000e+00
186 1.8167830518622363e-01 0.0000000000000000e+00 2.3557633299214864e-01
187 1.8192480109719489e-01 7.6831934428473569e-01 7.8352838364313981e-01
188 1.8230848535765121e-01 2.6778271197847892e-01 1.3477596558984839e-01
189 1.8357541564377300e-01 1.8857133926949932e-01 5.7664430627207197e-01
190 1.9369076643069039e-01 3.8997752185251433e-01 5.6630889018769159e-01
191 1.9758226769083342e-01 2.9742622031788157e-01 3.8334283707516026e-01
192 1.9911544702945039e-01 3.8622273945038654e-01 8.6997853354918830e-01
193 1.9953060169306358e-01 0.0000000000000000e+00 7.5085226682597950e-01
194 1.9982297096080837e-01 7.7716956666696635e-01 3.9276106040630820e-01
195 2.0054966701091514e-01 5.4565914460769338e-01 4.2820782954305392e-01
196 2.0112492934666126e-01 7.4412529769977653e-01 3.3618567768222019e-01
197 2.0192933538640001e-01 2.7712148616821997e-01 5.8034521896261071e-01
198 2.0216371408259681e-01 0.0000000000000000e+00 5.2619364170039618e-01
199 2.0265794072978283e-01 0.0000000000000000e+00 3.9827244771708725e-01
200 2.0275153242560051e-01 3.2723610998394459e-01 3.7465311995746076e-01
201 2.0300278361373048e-01 0.0000000000000000e+00 1.8559145262744237e-01
202 2.0572284965167087e-01 4.3619880202415751e-01 0.0000000000000000e+00
203 2.0600954456792708e-01 8.0944253128957233e-01 7.2253962100585767e-01
204 2.0616547079261416e-01 1.0000000000000000e+00 3.9008994384852091e-01
205 2.0642885844953773e-01 7.7945773395936546e-01 4.0988050388045316e-01
206 2.0737043133390509e-01 0.0000000000000000e+00 2.7862161603743085e-01
207 2.0780085249638824e-01 1.0000000000000000e+00 1.2710838265795044e-01
208 2.0966716220035231e-01 1.6104079070268651e-01 2.7081331038599588e-01
209 2.0984354656420934e-01 5.1718129463383233e-01 6.3237718536411558e-01
210 2.1167244186435008e-01 6.9995538289565762e-01 4.3716515639822995e-01
211 2.1356912967138164e-01 1.0000000000000000e+00 5.7975247593466195e-01
212 2.1383573556798408e-01 8.1119797917419323e-01 3.0337087835494203e-01
213 2.1496634783442137e-01 5.8471615844732661e-01 3.3303445952004218e-01
214 2.1635112707811688e-01 7.3389533725027145e-01 1.0000000000000000e+00
215 2.1702956175085342e-01 2.5327370023868712e-01 6.1384273250846300e-01
216 2.1961495460643110e-01 7.0636863728784294e-01 0.0000000000000000e+00
217 2.2037811391078155e-01 0.0000000000000000e+00 5.6547071977761665e-01
218 2.2076549711321392e-01 3.7726308483570337e-01 4.9810778974221415e-01
219 2.2267606389963990e-01 3.0023946941517166e-01 6.3432746564883580e-01
220 2.2297389646561416e-01 3.0342735688821965e-01 8.4739386704989539e-01
221 2.2535086739422094e-01 2.8795739997651260e-01 4.3771643060144261e-01
222 2.2633312742476397e-01 6.3677536972279358e-01 6.2146764320378833e-01
223 2.2660169861080548e-01 2.8337332413139860e-01 1.3211121456009933e-01
224 2.3455409666241511e-01 1.2897980409052623e-01 0.0000000000000000e+00
225 2.3610574107764637e-01 1.0000000000000000e+00 1.2303276448806988e-01
226 2.3633481940279655e-01 6.0838983613637443e-01 7.1652500873920710e-01
227 2.3721023376498473e-01 8.9776779031459741e-01 0.0000000000000000e+00
228 2.3754222768542899e-01 4.2537157131389447e-01 7.7033992427422093e-01
229 2.3960802818356497e-01 4.0775465763117547e-01 1.7375507922934075e-01
230 2.3978166275917689e-01 8.9948136237293297e-01 1.0000000000000000e+00
231 2.4217857660560627e-01 1.0035328247770980e-01 1.0000000000000000e+00
232 2.4449716615041139e-01 5.9994559497048960e-01 7.8387071785118700e-01
233 2.4451340674271826e-01 0.0000000000000000e+00 4.7705477230874460e-01
234 2.4477066689004123e-01 1.1029514685334940e-01 5.8024999490655371e-01
235 2.4622663821453050e-01 8.6160857690232939e-01 1.0000000000000000e+00
236 2.4693447313082995e-01 5.1245426718994591e-01 5.5827368189087223e-01
237 2.4931164654427507e-01 7.0339987357242806e-01 1.2300033091649876e-01
238 2.5034374006115789e-01 0.0000000000000000e+00 5.7588656696668594e-01
239 2.5161393253865749e-01 8.0769036602197297e-01 2.2726025549576123e-01
240 2.5265636337491937e-01 6.6470348617929398e-01 1.8727035574658979e-01
241 2.5317256114072006e-01 3.3867548441433915e-01 3.0160960545514581e-01
242 2.5679126308327138e-01 0.0000000000000000e+00 1.5416695019764159e-01
243 2.5757446368491832e-01 2.1512353235091219e-01 7.8610514042881541e-01
244 2.5881605573350830e-01 5.0182852525549670e-01 3.8504241109743731e-01
245 2.5940530024799591e-01 5.0896943481430357e-01 2.3474563749223076e-01
246 2.5979150170851384e-01 8.7553533689060348e-01 5.7180568160496514e-01
247 2.5984615414243206e-01 6.8849395797743518e-01 7.2008568952671870e-01
248 2.5990814535963280e-01 5.5466986143621744e-01 7.9923070867879409e-01
249 2.6006065659876121e-01 2.1800485086650867e-01 1.3030303398530763e-01
250 2.6243670556670895e-01 0.0000000000000000e+00 3.4069842711493536e-01
251 2.6286524942272582e-01 1.9125629215279571e-01 4.4615355306082716e-01
252 2.6416470450465668e-01 1.0000000000000000e+00 3.2384553033181496e-01
253 2.6510726119307026e-01 3.9632622723997968e-01 5.9534351831859578e-01
254 2.6844983350128804e-01 1.0000000000000000e+00 7.6796327223592986e-01
255 2.6977080233727324e-01 6.2445445273972244e-01 1.0000000000000000e+00
256 2.7089966504761254e-01 6.1564234004675145e-01 4.4169493644531532e-01
257 2.7164656721035030e-01 1.0000000000000000e+00 1.8850965566129418e-01
258 2.7326680094447275e-01 5.7721256316452496e-01 2.9259942234455927e-01
259 2.7354259248458745e-01 2.6971031583099814e-01 1.9472353145677446e-01
260 2.7434205377496990e-01 3.0607346277764835e-01 3.8172868324908149e-01
261 2.7447827342657893e-01 2.1932189285323922e-01 1.0000000000000000e+00
262 2.7571029420226378e-01 5.2885649262596357e-01 1.9096253844608757e-01
263 2.7712827125052808e-01 0.0000000000000000e+00 4.1902921174739183e-01
264 2.7923302398043737e-01 3.1498859462450035e-01 3.2102509303588933e-01
265 2.8057776162586645e-01 8.8602855105780653e-01 2.1468970664535880e-01
266 2.8197013328184428e-01 1.3471841394590389e-01 7.3646051166827442e-01
267 2.8215745452321384e-01 4.2146437545800786e-01 1.0889248850316058e-01
268 2.8218248383039235e-01 2.7911880641122566e-01 4.2908362378635501e-01
269 2.8272250689432221e-01 8.4656849037555393e-01 1.1004980876552628e-01
270 2.8616287457950318e-01 6.1918549636250342e-01 0.0000000000000000e+00
271 2.8665691773034097e-01 7.6333080097585870e-01 8.0888845785821417e-01
272 2.8758946655896211e-01 4.9035837223097367e-01 5.3676884573397265e-01
273 2.8774121925409490e-01 4.3484801799404416e-01 8.4689014754246073e-01
274 2.8875072580889172e-01 1.0000000000000000e+00 1.5149192257613275e-01
275 2.8950271788205928e-01 1.8852468051460236e-01 7.1354932276591065e-01
276 2.9013902856926210e-01 2.5846704109950658e-01 7.3987321540874162e-01
277 2.9125963789852782e-01 8.8954097337256899e-01 8.8323817907193414e-01
278 2.9191854539071171e-01 3.1369501678801603e-01 4.6005971783952715e-01
279 2.9386953466090737e-01 5.3422946878851274e-01 6.2794884544556284e-01
280 2.9504367344059179e-01 2.4475558979773060e-01 0.0000000000000000e+00
281 2.9664835022010860e-01 8.3389100388229564e-01 4.7980658719028912e-01
282 2.9712523370648669e-01 7.6071173205392084e-01 0.0000000000000000e+00
283 2.9885207834550631e-01 7.9257820072549789e-01 2.8569996357018057e-01
284 2.9996362799061083e-01 3.1637708692189004e-01 4.5295372345529172e-01
285 3.0019402244448745e-01 7.6875766666168577e-01 5.8365016053690688e-01
286 3.0203840983593466e-01 0.0000000000000000e+00 3.5077338354483611e-01
287 3.0246440822893539e-01 5.9090478188037587e-01 0.0000000000000000e+00
288 3.0302783958349200e-01 1.0000000000000000e+00 5.2320971809988859e-01
289 3.0447579772157551e-01 1.0000000000000000e+00 0.0000000000000000e+00
290 3.0464131358168445e-01 3.8467830669677461e-01 6.2283637022728811e-01
291 3.0684945195362601e-01 7.4245753823503524e-01 4.6208627740652797e-01
292 3.0746355257579072e-01 7.4179841902599486e-01 4.8862906949611395e-01
293 3.0769008963211608e-01 4.2012295376999431e-01 1.8962054134658146e-01
294 3.0836129482548447e-01 2.7825522945228820e-01 2.9441636262682669e-01
295 3.0882311163740694e-01 2.3720220983614848e-01 8.3476609458324269e-01
296 3.0884976406815468e-01 2.3450129892121963e-01 6.8272259802447244e-01
297 3.0893137603557164e-01 8.2732427315661816e-01 1.0000000000000000e+00
298 3.0935989248507823e-01 1.0000000000000000e+00 6.8333833073802397e-01
299 3.1031525071436761e-01 1.5726053673636120e-01 4.8143528230562527e-01
300 3.1125016538197725e-01 7.8425429103262867e-01 0.0000000000000000e+00
301 3.1135527707263611e-01 6.6339123002044886e-01 5.6639409931808959e-01
302 3.1252572935544465e-01 3.4514153141549142e-01 6.4454975889914845e-01
303 3.1514832957823025e-01 1.0617092298657382e-01 4.7599065188662404e-01
304 3.1697175339581696e-01 6.4951773636132581e-01 1.7766481659313238e-01
305 3.1832544980636657e-01 8.2838157642841181e-01 4.7270832224817672e-01
306 3.1978465759075181e-01 1.0000000000000000e+00 8.9832542442459118e-01
307 3.2242115662648274e-01 1.8889300058925873e-01 0.0000000000000000e+00
308 3.2296087977373245e-01 1.0000000000000000e+00 1.0000000000000000e+00
309 3.2424704711165031e-01 4.8100764852156763e-01 5.3884599075435502e-01
310 3.2467854188455703e-01 8.8991922225522346e-01 1.5114187043662075e-01
311 3.2501672177951224e-01 7.8602181248533731e-01 5.8861959259920915e-01
312 3.2528930741349549e-01 3.5963672957840720e-01 8.2718736070805765e-01
313 3.2688488732873400e-01 5.2146892007299162e-01 8.0363082816625642e-01
314 3.2695685953010545e-01 5.4921105430042516e-01 1.0000000000000000e+00
315 3.2769139597328856e-01 8.3085667395607254e-01 1.0000000000000000e+00
316 3.2893401766279573e-01 7.7080382968588146e-01 4.4083453044306942e-01
317 3.2943090218295534e-01 7.3719769698831883e-01 4.8860453150676364e-01
318 3.3056603717694011e-01 7.8204385181409097e-01 5.9558009683507018e-01
319 3.3181634459214115e-01 6.8402724842496687e-01 5.6017541669783599e-01
320 3.3287563367849493e-01 4.5232618506537825e-01 5.1665152983941287e-01
321 3.3385078516711042e-01 2.7829756889269541e-01 6.8454565263606204e-01
322 3.3404649120071483e-01 1.0000000000000000e+00 0.0000000000000000e+00
323 3.3409337004424045e-01 0.0000000000000000e+00 6.4632194245269714e-01
324 3.3418755388966248e-01 1.0000000000000000e+00 6.5528638060285005e-01
325 3.3420521388485092e-01 8.1279122440885876e-01 5.9227695840167605e-01
326 3.3601490437885040e-01 1.0000000000000000e+00 6.4076817028632116e-01
327 3.3605921229269553e-01 5.5119879728512322e-01 1.0000000000000000e+00
328 3.3639049218686090e-01 6.5426235499118157e-01 1.9531690784348954e-01
329 3.3735532813179792e-01 1.0000000000000000e+00 5.6382630366789610e-01
330 3.3960049651497848e-01 0.0000000000000000e+00 4.8923045585694858e-01
331 3.4161545372714308e-01 5.9142307009144635e-01 2.2671883271722448e-01
332 3.4200528598422097e-01 1.0000000000000000e+00 6.6704213827326575e-01
333 3.4309164924045110e-01 5.4493363113092053e-01 3.1426410283555262e-01
334 3.4521306722488498e-01 4.2639965191253348e-01 5.4111443055202524e-01
335 3.4670923126237430e-01 8.5784161847822060e-01 1.0000000000000000e+00
336 3.4687102482507093e-01 6.6070790743507368e-01 8.7340387483609727e-01
337 3.4742406898442413e-01 1.2443512423643532e-01 1.0000000000000000e+00
338 3.4745579306583485e-01 1.8662976278810361e-01 5.3309742487787148e-01
339 3.4834685757264672e-01 7.5436806017343760e-01 4.7129443283268246e-01
340 3.4948085206024826e-01 4.8005612072998394e-01 0.0000000000000000e+00
341 3.4983117609320580e-01 1.0000000000000000e+00 4.6815104745129377e-01
342 3.4987542392692694e-01 6.3465640967891179e-01 1.1044140210036157e-01
343 3.5189015370887222e-01 4.2297514014420867e-01 7.6310250379197542e-01
344 3.5491563685471295e-01 8.7566907538449679e-01 4.5116381015665774e-01
345 3.5568799742458079e-01 3.9511958585770579e-01 2.7675743370753147e-01
346 3.5572618507599219e-01 7.1370555571454752e-01 3.1308639817684991e-01
347 3.5719005248450364e-01 1.7537642502206208e-01 3.7370314640909341e-01
348 3.5865351106326770e-01 1.0881473033465483e-01 4.9313254990583810e-01
349 3.5951231559069996e-01 3.1795006141634208e-01 4.7025066388186865e-01
350 3.5962250835880616e-01 3.9564743601266672e-01 1.9615172015358473e-01
351 3.6059563839393760e-01 1.0000000000000000e+00 5.9621618275859301e-01
352 3.6135311971036788e-01 8.9507131384295147e-01 1.3367208390495644e-01
353 3.6192916641683004e-01 0.0000000000000000e+00 5.9077681861390463e-01
354 3.6204262368905860e-01 1.1671867445119655e-01 5.4460052651065372e-01
355 3.6315240065169008e-01 3.7095014063333853e-01 0.0000000000000000e+00
356 3.6325593080431706e-01 1.0000000000000000e+00 1.0000000000000000e+00
357 3.6405362762383908e-01 6.3262307913230553e-01 3.4135011559927053e-01
358 3.6493111150281454e-01 2.5727306371306413e-01 5.0387033587881780e-01
359 3.6590878485914113e-01 0.0000000000000000e+00 5.7902209326987797e-01
360 3.6656882817939607e-01 8.1053180498323574e-01 2.5080802607786357e-01
361 3.6840385939573073e-01 3.3347947471628892e-01 7.1649596165784857e-01
362 3.6887358243511015e-01 2.0757987190444205e-01 2.7289820499741801e-01
363 3.7042359345987397e-01 4.4967945373518370e-01 0.0000000000000000e+00
364 3.7127240314822196e-01 7.2331354598242947e-01 6.8825267416082314e-01
365 3.7203029502575646e-01 1.4334467949342355e-01 6.1292634909603527e-01
366 3.7450588369383297e-01 8.0276678021993553e-01 4.9362993497305474e-01
367 3.7517062769927467e-01 5.2911738303226885e-01 5.3412752834151411e-01
368 3.7527021499013891e-01 4.2344195318223266e-01 2.4699679732189350e-01
369 3.7684812081310015e-01 8.2941542569879756e-01 0.0000000000000000e+00
370 3.7861176893822079e-01 7.8433919632965654e-01 5.8885137169973745e-01
371 3.8048194246481393e-01 2.4656476476329903e-01 6.8156880229486116e-01
372 3.8099800871882461e-01 6.9640198499947625e-01 3.1781293755792683e-01
373 3.8498839995042555e-01 0.0000000000000000e+00 6.7387319859979367e-01
374 3.8509341145164377e-01 2.2524238145662800e-01 6.5668561397111702e-01
375 3.8795640804334686e-01 1.0000000000000000e+00 5.2464138562078899e-01
376 3.8942740886783689e-01 3.8182639151285602e-01 0.0000000000000000e+00
377 3.8952841493817603e-01 7.3490000104217090e-01 1.2875184068699552e-01
378 3.9039460038044294e-01 3.7734290629738387e-01 8.7185400928910350e-01
379 3.9147765324190986e-01 4.3466992213856215e-01 7.9703579597111596e-01
380 3.9246917100647738e-01 6.7028213540392956e-01 7.9138845726093421e-01
381 3.9525825965924166e-01 1.0000000000000000e+00 3.6604631569395518e-01
382 3.9754034234160307e-01 5.7674239564677443e-01 8.8022909497556945e-01
383 3.9784551105302512e-01 7.4197026382790099e-01 4.8459107882094365e-01
384 3.9807200792397790e-01 1.2522823982515852e-01 0.0000000000000000e+00
385 3.9869873728491867e-01 4.8270354427479989e-01 4.1477569878891629e-01
386 3.9874735661993743e-01 1.0433589149553724e-01 0.0000000000000000e+00
387 3.9920718514908038e-01 1.0000000000000000e+00 1.8472487812061988e-01
388 4.0045558973038586e-01 2.4463408941271592e-01 5.1407667017044167e-01
389 4.0224378939018879e-01 7.3421764632319364e-01 7.3010836478411767e-01
390 4.0263139639641188e-01 3.0793822667811066e-01 7.6578078332771637e-01
391 4.0476021092978820e-01 3.7852646730438688e-01 1.0000000000000000e+00
392 4.0597687929934878e-01 1.0000000000000000e+00 3.7945051530489449e-01
393 4.0890025293978338e-01 1.0000000000000000e+00 1.6393947500457284e-01
394 4.0907638342131203e-01 0.0000000000000000e+00 7.9911862380628695e-01
395 4.0916458709652470e-01 1.3710129307680796e-01 1.0000000000000000e+00
396 4.0928900843174065e-01 1.0303536644252198e-01 4.7259475236319237e-01
397 4.1192283334422253e-01 5.1851946983156239e-01 7.3283589168141150e-01
398 4.1295098176810785e-01 2.2928598032720882e-01 3.5915940843146943e-01
399 4.1363644095074148e-01 2.9280256282962269e-01 1.6901375246484873e-01
400 4.1497550571458330e-01 4.3408530602145379e-01 2.6138033571383001e-01
401 4.1588768846126511e-01 1.0000000000000000e+00 7.8534684881429062e-01
402 4.1604405765519892e-01 6.4373896601016933e-01 4.7909640457776226e-01
403 4.1687216852935205e-01 4.4431997768090659e-01 0.0000000000000000e+00
404 4.1688484201137166e-01 8.2790249881234179e-01 1.1929543199330717e-01
405 4.1753964442706615e-01 4.1487693792123226e-01 2.0113323013248974e-01
406 4.1775327778110838e-01 8.9260990311413946e-01 0.0000000000000000e+00
407 4.1882131040665749e-01 5.4875912245673586e-01 0.0000000000000000e+00
408 4.2074846740737692e-01 1.0000000000000000e+00 0.0000000000000000e+00
409 4.2088808860591298e-01 7.9569544346348176e-01 1.8068317304078585e-01
410 4.2164161062142902e-01 4.6885482905479303e-01 4.1818376829228865e-01
411 4.2212045996584768e-01 3.1391706067323066e-01 8.5286402602015854e-01
412 4.2279214091104234e-01 7.2131200429731346e-01 5.0231173796755868e-01
413 4.2316504287019063e-01 1.0000000000000000e+00 8.4378709966281185e-01
414 4.2451789112102645e-01 3.7264165980259523e-01 3.3217687143654784e-01
415 4.2667783210668453e-01 5.7474711942658019e-01 1.0000000000000000e+00
416 4.2754192751336684e-01 0.0000000000000000e+00 2.0185779245735491e-01
417 4.2756827499996308e-01 6.3442633872567322e-01 3.3051532198763789e-01
418 4.2888986626002557e-01 1.8644924270525265e-01 7.2014733186149027e-01
419 4.2900295052627946e-01 1.0000000000000000e+00 3.7522380506295006e-01
420 4.2905123973022063e-01 4.9811639204486791e-01 7.0974729871515929e-01
421 4.2952598638497208e-01 8.1420819112175602e-01 1.0000000000000000e+00
422 4.3034465730473126e-01 0.0000000000000000e+00 4.1997831411039310e-01
423 4.3090726888372732e-01 0.0000000000000000e+00 7.3927509803250036e-01
424 4.3111603790225006e-01 1.5631333917486523e-01 3.7905510530429976e-01
425 4.3144652175969045e-01 7.3399981752492915e-01 7.4924311886130690e-01
426 4.3154038752915469e-01 2.4621445080383086e-01 3.3824197699956027e-01
427 4.3160849465347795e-01 0.0000000000000000e+00 1.6178166438027364e-01
428 4.3229983923579318e-01 3.5396226620163318e-01 1.9355061925514661e-01
429 4.3360621840623348e-01 1.5348538056056171e-01 5.3944201312497342e-01
430 4.3638910684431853e-01 4.8476280881579581e-01 7.9826778256093733e-01
431 4.3852118314577460e-01 4.8709745013894234e-01 6.7143700478447921e-01
432 4.3891245562989589e-01 1.7502752160218271e-01 7.0676723387026086e-01
433 4.3926012355928978e-01 3.6688300945540364e-01 6.2366319723169683e-01
434 4.4154109872865155e-01 3.9907735028656133e-01 3.3990042069378668e-01
435 4.4169715154955413e-01 4.2580392546439261e-01 3.5727598324734167e-01
436 4.4316804929671572e-01 4.6635266235259931e-01 1.7089109616858678e-01
437 4.4333420575252136e-01 1.0000000000000000e+00 7.5006201080953105e-01
438 4.4350808460318469e-01 8.0096762089164564e-01 2.6700560101341264e-01
439 4.4503300850061200e-01 7.3017077173743183e-01 7.2684929060961978e-01
440 4.4676407688774500e-01 1.5069198701848430e-01 6.0771309482900349e-01
441 4.4817385539065691e-01 2.7740215926498057e-01 6.2535450318377761e-01
442 4.4857718625036092e-01 7.9076330579134957e-01 7.4262640278768388e-01
443 4.4863979754494676e-01 5.2966681194983745e-01 1.0000000000000000e+00
444 4.5143332158393923e-01 0.0000000000000000e+00 0.0000000000000000e+00
445 4.5187040294527980e-01 4.6651259649872012e-01 8.1172038958860437e-01
446 4.5201457825142632e-01 1.0000000000000000e+00 4.0790297375080453e-01
447 4.5393889799281040e-01 0.0000000000000000e+00 8.9960313847903217e-01
448 4.5421804311111347e-01 0.0000000000000000e+00 6.0380494078950342e-01
449 4.5516988205407716e-01 2.0043562974462004e-01 4.7933630802250926e-01
450 4.5541372600793084e-01 1.0000000000000000e+00 3.2362210185889240e-01
451 4.5684501858124937e-01 6.2310287998756386e-01 8.4494386655156339e-01
452 4.5708527543751432e-01 7.1031310277957305e-01 5.6344652417585861e-01
453 4.6053506169893688e-01 1.0000000000000000e+00 2.0317584344145434e-01
454 4.6155534805358478e-01 1.3419761692104959e-01 4.1122120803024731e-01
455 4.6425949932599453e-01 7.4566709427536149e-01 2.4541956254639119e-01
456 4.6622989932449488e-01 7.6290365434528962e-01 5.9024089961709936e-01
457 4.6702840122455569e-01 5.9380614712867263e-01 4.5012932051192223e-01
458 4.6745811474438537e-01 6.6953588568520839e-01 6.5071555338535869e-01
459 4.6978957188707826e-01 2.2555378799309822e-01 1.0000000000000000e+00
460 4.7200105842122175e-01 4.2018128527641330e-01 7.1720691697887762e-01
461 4.7354165755511002e-01 4.2328264693845108e-01 8.3503353623113230e-01
462 4.7830135300825349e-01 1.4903798115109679e-01 7.9473509644361606e-01
463 4.7837275609864571e-01 1.0000000000000000e+00 8.4413159845199182e-01
464 4.8001242881985073e-01 3.9879051126478460e-01 7.4047702724250786e-01
465 4.8085457142071875e-01 2.8664069394302671e-01 7.6542686678650507e-01
466 4.8150447599399293e-01 0.0000000000000000e+00 0.0000000000000000e+00
467 4.8156097584776958e-01 3.9728743807292011e-01 1.1107694254026135e-01
468 4.8280817637541029e-01 0.0000000000000000e+00 1.2008744905611946e-01
469 4.8402323137783376e-01 8.2438570867833527e-01 6.0051000232801766e-01
470 4.8418395260559588e-01 0.0000000000000000e+00 7.9862872603347379e-01
471 4.8544178649086789e-01 8.6845622169390457e-01 2.5597300718393334e-01
472 4.8612151476033172e-01 0.0000000000000000e+00 5.8908667368954526e-01
473 4.8674924665295560e-01 2.3005249958277829e-01 1.0000000000000000e+00
474 4.8680771099902420e-01 1.0000000000000000e+00 5.5192643498540894e-01
475 4.8697570712198368e-01 1.0000000000000000e+00 3.1826554801396456e-01
476 4.8702710145529138e-01 4.7849744641634595e-01 1.4434118496845438e-01
477 4.8743435213427422e-01 0.0000000000000000e+00 8.9966646848858267e-01
478 4.8757424384704939e-01 2.0604644191724952e-01 7.3349155939949517e-01
479 4.8911309472783315e-01 1.3148317012136845e-01 1.0356380529924458e-01
480 4.8983290298842752e-01 1.0000000000000000e+00 3.4776453089160742e-01
481 4.9030357734463759e-01 5.4689853635872687e-01 3.8733758027532050e-01
482 4.9043250672177341e-01 3.1645103855850276e-01 7.8810821356699035e-01
483 4.9048003820211739e-01 2.1154460129621544e-01 1.6108990389759437e-01
484 4.9168106607815520e-01 8.4030835734416232e-01 3.6441900429747887e-01
485 4.9196963141219718e-01 1.0000000000000000e+00 8.0471743767198800e-01
486 4.9415771670473407e-01 3.2466546331689738e-01 1.0000000000000000e+00
487 4.9431515515645563e-01 2.5839154997476588e-01 1.0000000000000000e+00
488 4.9440877101808622e-01 2.7644410252813700e-01 1.9118113864546715e-01
489 4.9645651804444557e-01 4.6074689107096700e-01 1.0000000000000000e+00
490 4.9805678994621905e-01 5.0029239462395447e-01 1.5975700563883122e-01
491 4.9972235994395919e-01 1.0000000000000000e+00 7.8667272398743582e-01
492 5.0130589463035136e-01 3.6290740083773310e-01 2.3559024332306788e-01
493 5.0210461545014118e-01 8.0144069770773196e-01 3.7878326790192851e-01
494 5.0210766479038804e-01 1.6055894030209339e-01 3.5096305015205420e-01
495 5.0327140725659147e-01 5.9739953658486877e-01 1.0000000000000000e+00
496 5.0364165900958080e-01 4.6288708293923608e-01 1.0000000000000000e+00
497 5.0372782976466424e-01 5.2102769399537774e-01 6.6873438560139653e-01
498 5.0441601537777048e-01 3.4807966337117291e-01 1.0000000000000000e+00
499 5.0509136575461555e-01 1.3551365688487227e-01 2.6247635752190068e-01
500 5.0851045710756193e-01 1.9543852026652486e-01 5.5119806060269416e-01
501 5.0961842677060221e-01 5.3140610992395032e-01 1.9177306923772175e-01
502 5.1333866618114976e-01 8.5427368579979923e-01 6.3126958333164351e-01
503 5.1426013799994741e-01 1.9596487140904451e-01 5.6763159429475984e-01
504 5.1481390383699832e-01 3.3316232858319128e-01 0.0000000000000000e+00
505 5.1486271995266886e-01 2.7095671816812061e-01 1.8410486041378304e-01
506 5.1719670997487921e-01 7.2442887230833741e-01 2.7274418413121915e-01
507 5.1798080986725437e-01 4.3605979853787535e-01 0.0000000000000000e+00
508 5.1817149638471360e-01 1.0000000000000000e+00 1.6328846578302747e-01
509 5.1844107527284433e-01 0.0000000000000000e+00 4.5474605363976350e-01
510 5.1961498121589389e-01 1.0000000000000000e+00 2.6699756644390293e-01
511 5.1999625797796090e-01 6.5598823961535035e-01 2.1159764135333536e-01
512 5.2060230334736857e-01 8.1978182011786505e-01 6.2799631943186818e-01
513 5.2324922978146016e-01 4.1561989324842408e-01 1.4594356314743717e-01
514 5.2545549906472699e-01 7.4842545758206780e-01 1.6027201689594006e-01
515 5.2721617307782087e-01 6.7823684079607260e-01 2.9866661991196997e-01
516 5.2796316783697461e-01 1.3671529941262117e-01 5.2268933728321409e-01
517 5.2807878306715295e-01 5.3882964882910356e-01 8.9575083151547252e-01
518 5.3011751876698265e-01 8.6214962783494686e-01 5.3031620796080037e-01
519 5.3099832584047724e-01 0.0000000000000000e+00 4.2322047215148439e-01
520 5.3148410893375608e-01 2.7737190317393257e-01 0.0000000000000000e+00
521 5.3498879435724411e-01 2.6607131640423953e-01 8.5966007772501041e-01
522 5.3527752395389994e-01 1.0000000000000000e+00 5.6168991394986878e-01
523 5.3560518143834190e-01 1.8022039954980096e-01 0.0000000000000000e+00
524 5.3768737274181966e-01 2.1177400710371463e-01 8.3115050874777197e-01
525 5.3962833688448797e-01 8.6544387261820255e-01 1.5224688950148424e-01
526 5.4335736995121342e-01 7.7234296776311540e-01 1.0000000000000000e+00
527 5.4359714587170160e-01 7.6506601310403610e-01 4.5431148698857782e-01
528 5.4802959265682749e-01 0.0000000000000000e+00 8.3084536611026460e-01
529 5.4941296340250634e-01 8.1619595936767442e-01 8.9840671232554070e-01
530 5.5027223523751145e-01 5.9606928304489049e-01 7.5614379739152104e-01
531 5.5064444096580245e-01 0.0000000000000000e+00 3.3658846542129228e-01
532 5.5137548294024086e-01 2.2449234682236463e-01 3.8183032587735621e-01
533 5.5224975258420916e-01 2.6082452695574898e-01 8.2927256494714841e-01
534 5.5238372219331000e-01 5.6017911225643879e-01 0.0000000000000000e+00
535 5.5444365166063081e-01 6.1592799736782333e-01 1.0000000000000000e+00
536 5.5445782770543661e-01 8.8474106640019212e-01 1.0000000000000000e+00
537 5.5623295196230782e-01 4.5060663990342353e-01 5.3166648327632748e-01
538 5.5642211113484330e-01 8.0761999839149623e-01 5.7256907130547408e-01
539 5.5691004779736220e-01 4.9641230482786436e-01 4.0274975071768537e-01
540 5.6015412422810984e-01 4.4147849676472939e-01 4.8516134688854318e-01
541 5.6180737393685154e-01 0.0000000000000000e+00 3.2567656829546410e-01
542 5.6189166027180382e-01 1.0000000000000000e+00 8.4843877351973085e-01
543 5.6227424812367410e-01 5.7365765207714448e-01 2.8029016388363426e-01
544 5.6326301538530876e-01 6.1467368842176506e-01 1.6648115751647019e-01
545 5.6358559335369618e-01 2.6901952251170136e-01 1.0000000000000000e+00
546 5.6358601598401092e-01 0.0000000000000000e+00 3.4390920938778591e-01
547 5.6360819222102299e-01 0.0000000000000000e+00 1.0000000000000000e+00
548 5.6433433432450175e-01 7.9595699104671125e-01 1.0957984992579706e-01
549 5.6690640443200946e-01 4.0701637167300131e-01 7.0600879398427852e-01
550 5.6959153267057272e-01 7.4245079725134500e-01 4.2533106592073222e-01
551 5.6996326776805362e-01 3.3725806432394423e-01 5.8999814140435503e-01
552 5.7004894754682578e-01 7.4128756566348730e-01 4.3659215233196180e-01
553 5.7033619176007500e-01 7.1521981572088211e-01 1.1565905779086505e-01
554 5.7039798995248303e-01 7.9589756506177889e-01 8.2617717607934960e-01
555 5.7045693861004487e-01 6.0835994489013034e-01 5.7611375705615619e-01
556 5.7194248424202432e-01 5.8104723963388027e-01 1.0000000000000000e+00
557 5.7265004073723880e-01 1.0497952172493041e-01 7.0568213463661189e-01
558 5.7564299144319220e-01 2.6371020712074122e-01 4.9233868286943905e-01
559 5.7600924728119707e-01 0.0000000000000000e+00 3.9818313417418549e-01
560 5.8008655069898052e-01 8.4668012498122780e-01 4.9649474485320788e-01
561 5.8153481297565279e-01 1.1331778367024126e-01 8.1876162679398379e-01
562 5.8322651443815887e-01 3.8627652827503256e-01 7.8498178370314531e-01
563 5.8389983024042535e-01 7.7729053496950362e-01 2.5272187872898111e-01
564 5.8396050580883008e-01 2.6462423931425627e-01 1.3278296224975161e-01
565 5.8456498172628502e-01 8.2708742885147346e-01 1.5700104654101521e-01
566 5.8458319266354053e-01 6.5380985602827202e-01 1.0000000000000000e+00
567 5.8558394945497794e-01 8.4033496808445718e-01 6.8504600163905638e-01
568 5.8568311705799592e-01 1.5350713548771433e-01 6.3391994432279197e-01
569 5.8619078658443291e-01 6.6750526592687331e-01 7.3714224314937649e-01
570 5.8632064790396698e-01 1.1188222530059133e-01 6.7876005538013462e-01
571 5.8806997255429438e-01 4.6530251413266521e-01 3.2403500646106032e-01
572 5.8839092683286709e-01 0.0000000000000000e+00 0.0000000000000000e+00
573 5.8908661662418338e-01 1.9922592119827409e-01 1.2451580256752393e-01
574 5.8925296716346998e-01 1.0340306693894519e-01 5.7738904881510733e-01
575 5.8955812439449673e-01 1.0000000000000000e+00 6.4002414698651000e-01
576 5.9029841675853867e-01 6.0334809864113215e-01 1.1073822516138310e-01
577 5.9086354680187192e-01 0.0000000000000000e+00 8.1714771096772087e-01
578 5.9484392910503658e-01 3.0490240325070617e-01 2.7263835187691987e-01
579 5.9496470715405314e-01 0.0000000000000000e+00 2.4649538551459493e-01
580 5.9507996169930122e-01 5.3364833497105058e-01 7.3847401473297514e-01
581 5.9731979478050834e-01 8.0777490479640912e-01 3.8313330935015688e-01
582 5.9785167464728506e-01 5.5842119791681000e-01 6.3365111669992802e-01
583 5.9994462618558375e-01 4.4998165043479055e-01 0.0000000000000000e+00
584 6.0065463156702958e-01 3.2811329673148315e-01 6.2833371823334516e-01
585 6.0102471915861932e-01 1.1815764672830276e-01 2.5480708875707436e-01
586 6.0118817472362318e-01 1.0000000000000000e+00 1.0000000000000000e+00
587 6.0155526458519204e-01 7.9821381117559853e-01 5.0917058529034043e-01
588 6.0206003037801248e-01 7.6220877044957835e-01 2.0550594555533364e-01
589 6.0516039188485693e-01 5.5857297945702788e-01 4.6984476176615075e-01
590 6.0618471454801071e-01 3.9769498517221658e-01 3.5511712321467204e-01
591 6.0774215547999055e-01 7.7574165612392754e-01 2.3924245274418199e-01
592 6.0774739581348136e-01 1.0000000000000000e+00 1.0000000000000000e+00
593 6.0847042252691796e-01 1.0000000000000000e+00 6.6932546900691858e-01
594 6.1063007052914131e-01 0.0000000000000000e+00 0.0000000000000000e+00
595 6.1213307819227936e-01 1.6007643399139249e-01 2.3937250799262777e-01
596 6.1277808741475048e-01 1.0000000000000000e+00 8.3899044315895355e-01
597 6.1293261001262644e-01 4.8557001230662122e-01 8.7364181142682018e-01
598 6.1313390491952868e-01 6.0480869524007674e-01 3.6734449792220514e-01
599 6.1358790633839888e-01 4.8829053614961049e-01 0.0000000000000000e+00
600 6.1393581699918154e-01 4.5949212322766275e-01 3.0206174231974015e-01
601 6.1409149926911788e-01 1.1128340212054777e-01 2.2792892018139177e-01
602 6.1478385609219377e-01 1.7298192209361429e-01 4.7895049186911076e-01
603 6.1577604076370707e-01 1.7158292311306156e-01 2.4411422615997880e-01
604 6.1587526546124283e-01 8.8304922537871866e-01 1.0000000000000000e+00
605 6.1714930612098229e-01 0.0000000000000000e+00 3.3340478954675545e-01
606 6.1899540830120447e-01 1.0000000000000000e+00 4.3891923817389444e-01
607 6.1964106575774824e-01 6.2416768463331196e-01 2.2602375779919037e-01
608 6.1979403051529691e-01 0.0000000000000000e+00 7.7531858197260106e-01
609 6.2003611584952734e-01 3.8704890075827314e-01 1.5340171539633540e-01
610 6.2005449954192382e-01 8.9366630191032326e-01 2.4040205059209174e-01
611 6.2006807302068856e-01 2.8860243263342988e-01 0.0000000000000000e+00
612 6.2070037941850598e-01 5.1675156376782272e-01 8.2341722491868319e-01
613 6.2080653100768468e-01 1.5186702272216257e-01 1.0000000000000000e+00
614 6.2154859752105684e-01 7.8068173793248108e-01 5.8074555126157712e-01
615 6.2302057019275625e-01 8.2774220927615105e-01 2.4230708477421403e-01
616 6.2650096133327404e-01 1.5553996199410414e-01 0.0000000000000000e+00
617 6.2704469077622926e-01 2.2966563344507385e-01 6.6770995882819184e-01
618 6.2805074607637990e-01 5.7034912610483868e-01 4.1239719137777731e-01
619 6.2945650215375759e-01 1.5998190307741456e-01 1.0366182420669401e-01
620 6.3157996370271496e-01 4.3050063400527305e-01 0.0000000000000000e+00
621 6.3541362994870276e-01 0.0000000000000000e+00 4.0211732877965167e-01
622 6.3553529240377382e-01 3.2070921215327786e-01 3.9262313909738500e-01
623 6.3699098005355104e-01 1.0000000000000000e+00 6.4269005040141791e-01
624 6.3707412676145336e-01 7.3943729040367623e-01 2.1240390777017326e-01
625 6.3762453963360144e-01 4.6807722243873429e-01 7.8677460332235993e-01
626 6.3772388578167194e-01 0.0000000000000000e+00 5.3542999132709790e-01
627 6.3802286101165628e-01 6.4207897977562722e-01 8.4424960697044138e-01
628 6.3844592866929895e-01 6.8088889540312725e-01 3.9052323066436923e-01
629 6.3877644041368542e-01 4.5590349320374446e-01 1.4930002045328683e-01
630 6.4227605767550056e-01 4.3763351143467177e-01 5.7974855351245680e-01
631 6.4229664644725193e-01 4.2925177141722104e-01 1.6436490532188519e-01
632 6.4550489688528667e-01 8.0372051525438448e-01 8.9699572456602117e-01
633 6.4684180199537933e-01 0.0000000000000000e+00 7.4033784804855496e-01
634 6.4746817891227204e-01 7.5036002624342235e-01 7.5195282548273612e-01
635 6.4846286933198871e-01 7.7725048743186065e-01 0.0000000000000000e+00
636 6.4930899453923596e-01 7.6706707988392175e-01 0.0000000000000000e+00
637 6.5097009604214728e-01 1.1852097091019320e-01 3.8396561479271585e-01
638 6.5208239933735590e-01 6.7415592750109388e-01 5.9314235078037558e-01
639 6.5312122475062906e-01 6.6164760476410511e-01 7.2808964325095693e-01
640 6.5350965197961308e-01 2.1485349577527191e-01 4.3595791260834305e-01
641 6.5573832368603102e-01 0.0000000000000000e+00 2.3106097484125354e-01
642 6.5779785829520510e-01 0.0000000000000000e+00 7.0736893212453533e-01
643 6.5936834510545528e-01 3.6611999447950827e-01 0.0000000000000000e+00
644 6.5965264473856899e-01 3.7816220450092286e-01 7.8520841570472888e-01
645 6.6079114307187148e-01 0.0000000000000000e+00 5.3189642053928765e-01
646 6.6171340708370829e-01 2.8981010397747742e-01 3.7564252827368927e-01
647 6.6212001818183264e-01 5.9844022736207980e-01 6.3562192009625540e-01
648 6.6212502549856622e-01 7.4646661622274924e-01 1.0000000000000000e+00
649 6.6265466504938830e-01 1.0340629247654176e-01 4.2458208647369233e-01
650 6.6389290823787772e-01 2.8349431009718995e-01 2.3194358724167141e-01
651 6.6581389388573831e-01 3.3776771774438119e-01 4.2848890846468557e-01
652 6.6662998801463369e-01 1.0000000000000000e+00 7.1336615810528614e-01
653 6.7001329698567380e-01 0.0000000000000000e+00 1.0490942178851081e-01
654 6.7126726471938147e-01 6.7874689871109706e-01 5.8292922394115543e-01
655 6.7145482868867323e-01 5.8071703979446621e-01 1.3514292832753061e-01
656 6.7252577055660934e-01 2.2165666544483298e-01 7.4707612691895198e-01
657 6.7448916018573613e-01 8.2087350807385095e-01 1.0000000000000000e+00
658 6.7598301803883465e-01 5.5415733008060342e-01 1.0000000000000000e+00
659 6.7698196749365103e-01 7.8127441524180152e-01 7.7812884175230479e-01
660 6.7799938602709320e-01 2.6796995798924783e-01 7.1226533510241818e-01
661 6.7865873196306803e-01 1.7173097121257586e-01 6.9757049680229966e-01
662 6.7881120166463038e-01 1.8021707360564565e-01 0.0000000000000000e+00
663 6.7988816225510296e-01 2.5658304649868735e-01 0.0000000000000000e+00
664 6.8089620072865131e-01 7.0860228164086303e-01 5.9227282247227020e-01
665 6.8224675552526171e-01 1.0314065481708201e-01 5.3892351990798126e-01
666 6.8275670704296143e-01 8.8265409153930341e-01 2.4749623491616890e-01
667 6.8369671795569675e-01 2.1200067352295837e-01 8.1816166835036863e-01
668 6.8400590336086331e-01 1.4433005599116666e-01 1.8787310705309068e-01
669 6.8439624162979917e-01 8.3769403372161944e-01 0.0000000000000000e+00
670 6.8616307896474316e-01 7.0374520564085452e-01 5.7522404100372182e-01
671 6.8657152113348374e-01 5.3511777899553381e-01 1.0000000000000000e+00
672 6.8918870906433305e-01 8.6581070622491085e-01 1.0000000000000000e+00
673 6.8929057289191764e-01 5.3249843644460149e-01 6.1122918225086098e-01
674 6.9159705382038394e-01 7.0679861251420850e-01 3.7266995440626738e-01
675 6.9218567376205142e-01 7.0217121246825243e-01 3.2063206444188797e-01
676 6.9244438686569110e-01 1.0512938108100256e-01 0.0000000000000000e+00
677 6.9301596751536598e-01 7.7169947441125564e-01 0.0000000000000000e+00
678 6.9326106084666217e-01 0.0000000000000000e+00 1.0000000000000000e+00
679 6.9327219946259910e-01 8.7454155432217129e-01 2.5578046042832014e-01
680 6.9408283929776948e-01 5.7815944405522379e-01 8.9230251507822222e-01
681 6.9587296388108366e-01 7.3853794168968923e-01 6.6230372693780970e-01
682 6.9670208223223373e-01 7.7018907285378568e-01 5.0622273286883945e-01
683 6.9718493915735380e-01 1.8329459473663556e-01 0.0000000000000000e+00
684 6.9770960676853711e-01 7.7584398692402379e-01 8.7773898484504698e-01
685 6.9972144311833484e-01 3.4338195555621309e-01 2.1558105584484788e-01
686 7.0016900380102243e-01 6.8354292499996894e-01 5.4743298555199371e-01
687 7.0047808320824023e-01 8.5520303314681423e-01 3.8784122981893543e-01
688 7.0072774316607978e-01 4.9593711238364779e-01 0.0000000000000000e+00
689 7.0100139844990572e-01 0.0000000000000000e+00 5.8211346187454960e-01
690 7.0462299045893195e-01 5.9824637810390868e-01 0.0000000000000000e+00
691 7.0951027257360522e-01 0.0000000000000000e+00 0.0000000000000000e+00
692 7.0979313912248632e-01 7.3571008954854311e-01 3.0663052021577264e-01
693 7.1038044405882639e-01 1.0000000000000000e+00 0.0000000000000000e+00
694 7.1042262171141846e-01 6.9707594765853820e-01 4.9703156225604617e-01
695 7.1235727804824833e-01 0.0000000000000000e+00 2.4445212355113155e-01
696 7.1286030437548342e-01 0.0000000000000000e+00 6.7356183843245798e-01
697 7.1379008046665327e-01 2.5698678961977794e-01 2.9882772509305511e-01
698 7.1402525457980481e-01 4.8917816521883506e-01 8.3586176832439774e-01
699 7.1516728510980565e-01 1.0000000000000000e+00 8.7195529348724110e-01
700 7.1558549996156462e-01 1.0000000000000000e+00 1.8791338512756062e-01
701 7.1627236555453810e-01 1.8023025160858430e-01 3.2226766556300324e-01
702 7.1695558768837320e-01 6.7082502126871912e-01 1.0433429788882498e-01
703 7.1837800301666932e-01 8.2271352860282432e-01 1.1453402244216548e-01
704 7.1889858025797915e-01 3.0204067803588863e-01 0.0000000000000000e+00
705 7.1982416898788393e-01 5.6067482277054659e-01 1.0000000000000000e+00
706 7.2187624455397481e-01 0.0000000000000000e+00 1.0000000000000000e+00
707 7.2198130693352558e-01 1.3248372696513711e-01 3.5993720208092062e-01
708 7.2227102382865427e-01 7.6721930969046293e-01 3.8487646494655592e-01
709 7.2280648461951580e-01 3.9835092294214891e-01 1.3824490308534465e-01
710 7.2594972250259404e-01 7.0045190545290892e-01 8.3552724225600761e-01
711 7.2673097804260878e-01 8.6263800962581161e-01 3.8869602672580095e-01
712 7.2688844018794763e-01 7.9642133651938851e-01 4.6288313194597519e-01
713 7.2721076909722859e-01 7.4235751642660153e-01 3.7289774853631552e-01
714 7.2794902876881817e-01 2.0187623950375733e-01 0.0000000000000000e+00
715 7.2963991967577890e-01 8.5300443927237091e-01 3.1940618186738456e-01
716 7.2989184493252524e-01 7.4999181791562264e-01 4.2730350562044228e-01
717 7.2992615357041002e-01 8.1734559945138641e-01 5.1073438581584252e-01
718 7.3166845719099693e-01 6.3672937090060910e-01 5.6314702150517426e-01
719 7.3223058108100580e-01 0.0000000000000000e+00 8.8022316469598627e-01
720 7.3450634694092143e-01 0.0000000000000000e+00 7.1958065046123032e-01
721 7.3533270778660387e-01 1.9763950502688310e-01 0.0000000000000000e+00
722 7.3567791695307549e-01 6.1768316587196004e-01 8.3958589330147260e-01
723 7.3794135117905191e-01 2.4552015491682200e-01 5.7975563492597770e-01
724 7.3865671298599467e-01 7.1881966140388920e-01 2.4533720370628198e-01
725 7.3929325573683891e-01 1.8714709601534396e-01 4.4607632160263588e-01
726 7.3938207414243773e-01 7.1144571193965811e-01 8.3779914226285612e-01
727 7.3959482109767172e-01 7.2980003124244253e-01 0.0000000000000000e+00
728 7.4133364772740029e-01 0.0000000000000000e+00 8.0794261790498956e-01
729 7.4380046243249365e-01 2.9301190119682741e-01 2.7409190979197151e-01
730 7.4421530038939865e-01 2.5264507384979185e-01 0.0000000000000000e+00
731 7.4430588142850296e-01 6.0024725826395253e-01 0.0000000000000000e+00
732 7.4452366261385572e-01 1.0000000000000000e+00 8.2600178669497915e-01
733 7.4454910482303505e-01 0.0000000000000000e+00 0.0000000000000000e+00
734 7.4487227557359204e-01 4.9498126881486959e-01 0.0000000000000000e+00
735 7.4790428926696884e-01 4.3024317596480011e-01 1.2957134627665612e-01
736 7.4795875353285257e-01 5.8575557541285450e-01 4.6062666393747398e-01
737 7.4896592059327216e-01 2.5721776909104455e-01 6.2487086393098312e-01
738 7.4906538761298924e-01 1.3867799761737487e-01 6.8437247168763105e-01
739 7.5129772910182435e-01 0.0000000000000000e+00 1.0000000000000000e+00
740 7.5274307307507571e-01 2.1986412244736586e-01 5.9702596828711918e-01
741 7.5480510114942678e-01 4.5048173472171615e-01 2.6481542822792015e-01
742 7.5492640185174986e-01 0.0000000000000000e+00 1.4535772786770973e-01
743 7.5565077887015730e-01 4.5215833715262177e-01 3.6687473258129777e-01
744 7.5574688112156108e-01 1.6778869027022048e-01 8.2340866008425850e-01
745 7.5636251714457792e-01 0.0000000000000000e+00 7.4949513562041514e-01
746 7.5793281141793623e-01 2.4158325885173870e-01 0.0000000000000000e+00
747 7.5851880949087869e-01 0.0000000000000000e+00 0.0000000000000000e+00
748 7.5879119403993067e-01 8.3383731108577352e-01 6.0473445915588886e-01
749 7.5999737588404781e-01 4.5808584662918950e-01 1.0734136283402085e-01
750 7.6012997229867429e-01 1.0000000000000000e+00 7.5934170783471966e-01
751 7.6167591720205596e-01 1.0000000000000000e+00 2.3379251053343486e-01
752 7.6299245273309635e-01 2.0519381366233913e-01 3.4679761453456548e-01
753 7.6391712270025258e-01 5.3798702662095843e-01 1.5784098286800718e-01
754 7.6397871881152224e-01 5.9013287341266019e-01 0.0000000000000000e+00
755 7.6520076439005080e-01 5.5221403405953606e-01 2.2798811881652725e-01
756 7.6611619526045616e-01 8.1106542027151862e-01 1.7478946172534138e-01
757 7.6765017197153940e-01 7.1575053835637392e-01 3.7899574968607008e-01
758 7.6859600271375406e-01 4.1856050495167962e-01 4.6150582417521513e-01
759 7.6943068247776158e-01 0.0000000000000000e+00 5.1664889367950007e-01
760 7.7145081294345053e-01 6.3985969416915689e-01 1.0000000000000000e+00
761 7.7196932594752621e-01 5.1983283898441313e-01 6.3858092774671948e-01
762 7.7307611794791531e-01 6.0963135719140582e-01 3.4947810104144539e-01
763 7.7556730030734655e-01 8.0160726478027045e-01 6.0500648399227785e-01
764 7.7608793226663597e-01 7.8749361203812651e-01 1.5353606228174055e-01
765 7.7771997629704093e-01 7.4161716022750757e-01 3.2000717565944181e-01
766 7.7805396607082444e-01 2.3134787632950038e-01 0.0000000000000000e+00
767 7.7942780953315693e-01 8.6067327573786023e-01 8.0150983379556873e-01
768 7.7948474132103718e-01 3.0637271351081496e-01 8.9289174219678369e-01
769 7.8246008271441059e-01 8.2428036842106323e-01 3.9217699875478274e-01
770 7.8326602467296957e-01 0.0000000000000000e+00 1.7213772741543931e-01
771 7.8424507429832424e-01 5.4420385985472108e-01 1.0005082903859785e-01
772 7.8484123473500378e-01 8.1503092886687700e-01 8.5992956706937107e-01
773 7.8489663826828826e-01 1.0000000000000000e+00 5.4678203808790149e-01
774 7.8511007522750131e-01 5.0408004058265221e-01 1.5205312874820354e-01
775 7.8550458115988320e-01 6.2247196100948732e-01 1.0000000000000000e+00
776 7.8564053203330064e-01 2.8825723578293838e-01 1.9163485408627845e-01
777 7.8626723597713299e-01 8.0739904706832843e-01 6.2715203806696851e-01
778 7.8663423903857099e-01 3.9834558172047885e-01 2.8269857729466119e-01
779 7.8760398658246999e-01 3.5808477499682090e-01 6.2320932511066018e-01
780 7.8822336871560195e-01 1.6601611221931634e-01 4.4686503456305271e-01
781 7.8846596500015387e-01 2.1387488946729416e-01 4.6857919330028419e-01
782 7.9094826698155296e-01 5.1828962591374450e-01 6.4819526459583354e-01
783 7.9141476866061922e-01 7.1659181324076926e-01 1.0000000000000000e+00
784 7.9166061313918790e-01 0.0000000000000000e+00 4.3792425664824175e-01
785 7.9200238161479319e-01 8.9305086126885114e-01 2.0259632674570904e-01
786 7.9281419701676270e-01 6.2344412815017458e-01 5.5830274522366885e-01
787 7.9295439480479257e-01 5.4850481976112131e-01 4.9942686902622768e-01
788 7.9414106406952967e-01 0.0000000000000000e+00 2.0149848506405965e-01
789 7.9584508737417403e-01 8.0721590888325101e-01 6.0254304252296553e-01
790 7.9791051778569444e-01 2.5378435770421115e-01 2.4724744363725593e-01
791 7.9861387440671117e-01 0.0000000000000000e+00 8.8065101224052700e-01
792 7.9936843848827133e-01 8.1961063464276218e-01 1.0000000000000000e+00
793 8.0118513565969329e-01 2.9771431860057196e-01 5.9056450245397862e-01
794 8.0152287021294533e-01 0.0000000000000000e+00 7.8567082529042787e-01
795 8.0199194355554859e-01 8.0415767730283771e-01 5.7741392554772775e-01
796 8.0269537053973938e-01 5.0154132009482022e-01 0.0000000000000000e+00
797 8.0297766604059406e-01 8.4243459306645074e-01 7.9491770481931801e-01
798 8.0408074974417476e-01 5.2731029998104917e-01 1.0000000000000000e+00
799 8.0512255618912654e-01 4.9245403147951072e-01 6.9509501040254618e-01
800 8.0532318530061364e-01 8.8146582740376045e-01 0.0000000000000000e+00
801 8.0556399396089751e-01 7.5409673465323179e-01 7.7806072757073752e-01
802 8.1319659065447869e-01 6.2857148465726764e-01 4.2743404095570314e-01
803 8.1435387506352652e-01 3.6214348303408606e-01 4.9672354489393722e-01
804 8.1520364067324702e-01 7.6968312324809185e-01 4.3837637744539293e-01
805 8.1675695398699277e-01 3.3759527750837637e-01 1.8707232974158439e-01
806 8.1678997588445346e-01 0.0000000000000000e+00 5.0020351266031826e-01
807 8.1844247184258667e-01 5.7806661580822327e-01 5.9728257013638308e-01
808 8.1848747961530854e-01 0.0000000000000000e+00 4.7201983480167009e-01
809 8.1887311138552588e-01 0.0000000000000000e+00 1.9286708118442075e-01
810 8.1946816645071607e-01 8.7684597020003741e-01 4.7984652880522682e-01
811 8.1953780758914929e-01 5.8841244525458791e-01 2.1677050789747321e-01
812 8.2009928119721853e-01 1.0000000000000000e+00 3.5797400132982038e-01
813 8.2191766103634700e-01 4.0582539191908473e-01 5.0252151755552410e-01
814 8.2277305432251524e-01 1.7861419751411500e-01 5.2574959241380848e-01
815 8.2535778617439015e-01 3.5884742742494213e-01 5.9608641757688396e-01
816 8.2899308965796437e-01 1.0000000000000000e+00 6.6536118358840990e-01
817 8.3139394187119153e-01 3.4347869609245740e-01 5.0726027475428959e-01
818 8.3216450664027941e-01 1.0000000000000000e+00 7.6162715805158376e-01
819 8.3261065694496750e-01 3.9524084411416027e-01 5.4467707288511547e-01
820 8.3354583900896895e-01 1.0000000000000000e+00 1.9310505741124229e-01
821 8.3398095230573011e-01 0.0000000000000000e+00 0.0000000000000000e+00
822 8.3438543533384080e-01 8.3065033363223817e-01 1.0844413565554334e-01
823 8.3440453506826939e-01 4.4837125024410185e-01 4.1849535800821791e-01
824 8.3461883369746592e-01 5.1657193895817233e-01 4.6164013305766383e-01
825 8.3698983759911805e-01 8.7222957419635672e-01 4.9539883471523150e-01
826 8.3760581149993840e-01 7.1482875516190714e-01 3.1324051190416446e-01
827 8.3788979331850388e-01 1.5693312704609852e-01 8.4523175291661057e-01
828 8.3843564258577163e-01 1.0000000000000000e+00 3.8593964942084502e-01
829 8.3864666461085180e-01 7.7190847672295904e-01 2.5860717964184565e-01
830 8.4054389041325506e-01 7.2709741309959841e-01 2.4498580467677411e-01
831 8.4073413098041938e-01 6.8098160821942655e-01 0.0000000000000000e+00
832 8.4131374313944829e-01 1.0000000000000000e+00 5.7090406995237430e-01
833 8.4197430674018259e-01 7.6869401448191166e-01 5.4913371802960442e-01
834 8.4295829226235364e-01 7.8145100774962328e-01 8.0545532905717687e-01
835 8.4693447248445086e-01 2.0648531261400971e-01 1.0000000000000000e+00
836 8.4824686187152343e-01 2.6876540467446941e-01 4.7254843209038933e-01
837 8.5457288219824867e-01 4.0545043826542715e-01 8.6434672075461549e-01
838 8.5542509356432694e-01 6.1131237721389553e-01 2.8909498085998020e-01
839 8.5664976333636089e-01 3.0640215479867250e-01 8.3826554899048289e-01
840 8.5746788520399286e-01 1.0215203313434207e-01 7.8464205947346088e-01
841 8.5778231040239006e-01 6.9637220995168947e-01 2.6874235086432652e-01
842 8.5828757459736904e-01 1.6879533123172619e-01 2.8739011992809049e-01
843 8.5998335310398633e-01 2.4966572039528134e-01 0.0000000000000000e+00
844 8.6118890262476500e-01 1.0916137544041848e-01 6.8478555454579304e-01
845 8.6207190890729068e-01 8.1095996174332730e-01 6.0531053791583100e-01
846 8.6272936322242022e-01 6.4935233028956296e-01 6.7809719537198643e-01
847 8.6485194598279447e-01 7.3294511199681533e-01 4.9586989631789657e-01
848 8.6582999988644038e-01 5.0483796565695882e-01 7.7156529456681588e-01
849 8.6626400404348947e-01 3.5592164635055767e-01 7.1239937866034775e-01
850 8.6668571200495614e-01 4.5858007301977721e-01 6.6299442945886311e-01
851 8.6797203996507921e-01 7.5311578640893817e-01 0.0000000000000000e+00
852 8.6803360364016002e-01 6.5135594891528803e-01 3.6271586123103527e-01
853 8.6804275365727468e-01 5.2402145691167457e-01 3.7297057223346686e-01
854 8.6849642190203957e-01 6.6820183593922733e-01 1.0000000000000000e+00
855 8.6920585796243000e-01 7.2664613571483461e-01 3.8820494467146038e-01
856 8.6922442804686317e-01 3.7756203060432159e-01 6.3548992050113107e-01
857 8.7023654594170352e-01 1.0000000000000000e+00 2.7724636989250684e-01
858 8.7199075963882267e-01 6.2622482388886591e-01 4.3024089838207291e-01
859 8.7399160244780016e-01 1.0000000000000000e+00 8.4761456714747552e-01
860 8.7479505753680376e-01 4.0716411564098276e-01 4.7422350849608508e-01
861 8.7929671620503480e-01 3.3873731812404451e-01 3.8466332338896791e-01
862 8.7957501181300179e-01 6.4824676026108485e-01 7.5285309326999272e-01
863 8.8034676915030718e-01 3.8297378181205499e-01 0.0000000000000000e+00
864 8.8067102934046493e-01 2.1791388233066733e-01 1.0000000000000000e+00
865 8.8093561539510468e-01 1.0000000000000000e+00 1.9607142280794776e-01
866 8.8188646506877943e-01 7.2884965870526974e-01 4.5147813840238571e-01
867 8.8210106516704301e-01 4.1151094671331456e-01 1.0000000000000000e+00
868 8.8450077331052113e-01 7.1079726620554706e-01 1.9651121459420284e-01
869 8.8472521285585837e-01 6.7878027567854415e-01 2.6820200445914877e-01
870 8.8580956737267014e-01 0.0000000000000000e+00 3.7357820497306649e-01
871 8.8623355107194624e-01 2.9407723705322786e-01 2.4741089394957849e-01
872 8.8648572703957540e-01 1.1409789440337548e-01 2.4140280683292015e-01
873 8.8650484407260000e-01 4.8701932197517028e-01 8.8855941060399446e-01
874 8.8666314206143459e-01 5.4480685432100950e-01 6.8809599339355065e-01
875 8.8674752131179568e-01 7.7912063116646912e-01 6.1558935844900564e-01
876 8.8698029950354662e-01 1.2840367890997240e-01 3.6666945622867808e-01
877 8.8727687037620917e-01 4.2247416397638249e-01 6.2916313534675194e-01
878 8.8850431191631007e-01 6.0246708743263133e-01 3.3347305112517067e-01
879 8.8908034365985777e-01 3.0510518444113588e-01 1.8938377624069969e-01
880 8.9148248720777501e-01 8.5689457247545009e-01 3.2688895854236366e-01
881 8.9253541646263790e-01 1.7820621592945407e-01 8.9439669182181092e-01
882 8.9260042368602599e-01 8.1974491988837239e-01 1.0000000000000000e+00
883 8.9368631792793496e-01 0.0000000000000000e+00 3.9403318268140108e-01
884 8.9445710789980992e-01 1.0000000000000000e+00 5.5045875812392953e-01
885 8.9713764690201525e-01 3.6370100678413764e-01 5.5463558411080816e-01
886 8.9735288366906873e-01 2.8274346114464077e-01 0.0000000000000000e+00
887 8.9789661091897566e-01 5.9512241109080688e-01 8.0929180863165240e-01
888 8.9826534267957914e-01 5.9013716885656187e-01 1.0000000000000000e+00
889 8.9837257596702436e-01 7.9026035765999958e-01 0.0000000000000000e+00
890 1.0000000000000000e+00 5.7653898210949373e-01 1.5237799693478571e-01
891 1.0000000000000000e+00 1.5355844493311865e-01 5.5657926885486941e-01
892 1.0000000000000000e+00 0.0000000000000000e+00 3.0034192437921137e-01
893 1.0000000000000000e+00 2.2021478603430522e-01 7.0442582230183881e-01
894 1.0000000000000000e+00 3.3745360874583807e-01 1.8418466508052622e-01
895 1.0000000000000000e+00 8.7446357031360156e-01 4.8652090406227022e-01
896 1.0000000000000000e+00 7.0669935253419291e-01 5.0426471193652556e-01
897 1.0000000000000000e+00 1.0000000000000000e+00 1.7077153010677437e-01
898 1.0000000000000000e+00 6.0515292642836715e-01 5.5161075477960864e-01
899 1.0000000000000000e+00 5.8263880999841811e-01 1.9968420761981376e-01
900 1.0000000000000000e+00 6.4046937887106736e-01 3.3718715079990424e-01
901 1.0000000000000000e+00 8.6176332820720858e-01 1.6661746574617353e-01
902 1.0000000000000000e+00 6.6130083275336382e-01 7.8749106704025162e-01
903 1.0000000000000000e+00 8.5247158252587540e-01 1.7464733531794674e-01
904 1.0000000000000000e+00 6.3370810156382440e-01 8.6054007739515426e-01
905 1.0000000000000000e+00 3.4933024721839057e-01 3.7857772382407373e-01
906 1.0000000000000000e+00 7.0002370988612128e-01 2.1443432055680844e-01
907 1.0000000000000000e+00 6.1751921064556226e-01 4.3362678054006032e-01
908 1.0000000000000000e+00 1.0000000000000000e+00 4.1820374654718706e-01
909 1.0000000000000000e+00 3.2400130571365371e-01 1.0000000000000000e+00
910 1.0000000000000000e+00 5.5611995138883430e-01 1.0000000000000000e+00
911 1.0000000000000000e+00 0.0000000000000000e+00 3.5850573760209425e-01
912 1.0000000000000000e+00 3.7758164040603936e-01 5.2412870598887684e-01
913 1.0000000000000000e+00 0.0000000000000000e+00 7.9043186866262993e-01
914 1.0000000000000000e+00 4.9913089450053061e-01 4.9276450819091366e-01
915 1.0000000000000000e+00 0.0000000000000000e+00 0.0000000000000000e+00
916 1.0000000000000000e+00 4.7142107095996533e-01 1.0188627143045326e-01
917 1.0000000000000000e+00 3.7015497093258676e-01 3.4989069856471444e-01
918 1.0000000000000000e+00 1.0000000000000000e+00 2.6143946676481722e-01
919 1.0000000000000000e+00 8.9599709994864407e-01 3.9833392464384798e-01
920 1.0000000000000000e+00 8.8285870486395135e-01 5.0155134127898593e-01
921 1.0000000000000000e+00 2.4716789035797138e-01 0.0000000000000000e+00
922 1.0000000000000000e+00 6.0043128415682834e-01 2.9097386128861280e-01
923 1.0000000000000000e+00 1.0000000000000000e+00 3.0507648117299269e-01
924 1.0000000000000000e+00 1.0000000000000000e+00 0.0000000000000000e+00
925 1.0000000000000000e+00 5.2892825356005579e-01 3.9430418455256155e-01
926 1.0000000000000000e+00 7.9809852508271295e-01 6.5614253633498076e-01
927 1.0000000000000000e+00 2.0932434600591576e-01 7.3781163867036315e-01
928 1.0000000000000000e+00 7.9518261199017348e-01 6.9409199296065194e-01
929 1.0000000000000000e+00 1.8019179562676046e-01 8.2217889619904994e-01
930 1.0000000000000000e+00 5.9288250952566546e-01 4.7667857303704342e-01
931 1.0000000000000000e+00 0.0000000000000000e+00 5.5364171245166782e-01
932 1.0000000000000000e+00 3.5337419597473185e-01 8.1355339398098825e-01
933 1.0000000000000000e+00 3.4165102547634452e-01 6.4140150037883148e-01
934 1.0000000000000000e+00 6.2202409080657139e-01 6.5433943443156994e-01
935 1.0000000000000000e+00 3.4115587684846516e-01 6.1930493005442688e-01
936 1.0000000000000000e+00 8.2102943675938189e-01 1.2228707318418253e-01
937 1.0000000000000000e+00 6.1015798242924990e-01 8.8124319439098031e-01
938 1.0000000000000000e+00 6.0162439143441127e-01 3.3138219050604556e-01
939 1.0000000000000000e+00 7.1626132976079382e-01 6.9822003890179463e-01
940 1.0000000000000000e+00 8.6873736158849824e-01 1.0000000000000000e+00
941 1.0000000000000000e+00 7.6220999904706477e-01 7.9326719273045332e-01
942 1.0000000000000000e+00 6.4117090908196395e-01 2.7358293681105839e-01
943 1.0000000000000000e+00 1.0774434987648063e-01 3.0462697252252291e-01
944 1.0000000000000000e+00 8.8215664784338454e-01 1.0000000000000000e+00
945 1.0000000000000000e+00 3.6390169258106830e-01 5.7005673214775887e-01
946 1.0000000000000000e+00 0.0000000000000000e+00 1.3518398216170813e-01
947 1.0000000000000000e+00 8.2995633546550895e-01 1.0000000000000000e+00
948 1.0000000000000000e+00 3.9164202856155383e-01 5.9468294157175861e-01
949 1.0000000000000000e+00 6.3902436468039037e-01 2.7377873152651244e-01
950 1.0000000000000000e+00 3.5579652104962334e-01 0.0000000000000000e+00
951 1.0000000000000000e+00 1.8954897254991654e-01 7.6007521087527063e-01
952 1.0000000000000000e+00 4.1632283861911856e-01 3.6905713697568610e-01
953 1.0000000000000000e+00 4.8388853875016780e-01 7.7371930881377282e-01
954 1.0000000000000000e+00 7.2381958780864297e-01 2.9161890880408836e-01
955 1.0000000000000000e+00 4.6635354513494021e-01 0.0000000000000000e+00
956 1.0000000000000000e+00 4.1050538112996426e-01 8.5104276544817503e-01
957 1.0000000000000000e+00 1.3660821207735807e-01 1.9600336623101011e-01
958 1.0000000000000000e+00 5.9472738694059135e-01 6.4337565529919372e-01
959 1.0000000000000000e+00 2.6587338573666897e-01 1.6270580019338599e-01
960 1.0000000000000000e+00 2.0974032880409044e-01 7.3768712342299114e-01
961 1.0000000000000000e+00 1.0000000000000000e+00 1.0000000000000000e+00
962 1.0000000000000000e+00 8.9373493570527107e-01 7.6458773150833048e-01
963 1.0000000000000000e+00 8.0814804796398521e-01 3.4794986543552864e-01
964 1.0000000000000000e+00 3.2019365746622108e-01 3.7423295598016038e-01
965 1.0000000000000000e+00 7.3112341331992947e-01 6.4519485223469641e-01
966 1.0000000000000000e+00 5.3868413162185136e-01 2.4469361278297586e-01
967 1.0000000000000000e+00 3.5753344915747265e-01 1.0000000000000000e+00
968 1.0000000000000000e+00 2.5558936134816035e-01 4.7349597923309095e-01
969 1.0000000000000000e+00 3.7482405732775448e-01 2.3656427877773578e-01
970 1.0000000000000000e+00 8.9602030712712910e-01 7.2791718341484035e-01
971 1.0000000000000000e+00 1.0000000000000000e+00 2.3944186687543112e-01
972 1.0000000000000000e+00 6.4505612776372701e-01 8.6757507781109777e-01
973 1.0000000000000000e+00 8.4434172514408934e-01 0.0000000000000000e+00
974 1.0000000000000000e+00 4.7371787160624768e-01 1.0000000000000000e+00
975 1.0000000000000000e+00 4.4444645603685518e-01 5.1292886577003871e-01
976 1.0000000000000000e+00 8.1012001128312705e-01 0.0000000000000000e+00
977 1.0000000000000000e+00 8.2173456023792923e-01 3.0032886160730154e-01
978 1.0000000000000000e+00 1.0000000000000000e+00 5.6647834704597921e-01
979 1.0000000000000000e+00 6.1611042411860417e-01 3.9880116712618763e-01
980 1.0000000000000000e+00 3.7449687764098971e-01 1.0000000000000000e+00
981 1.0000000000000000e+00 1.0000000000000000e+00 1.2966275411770067e-01
982 1.0000000000000000e+00 1.0000000000000000e+00 7.1179664909483031e-01
983 1.0000000000000000e+00 7.0723121912820319e-01 5.7076054886815875e-01
984 1.0000000000000000e+00 7.1024112281526364e-01 7.4267928863309329e-01
985 1.0000000000000000e+00 3.7937957480185391e-01 1.0000000000000000e+00
986 1.0000000000000000e+00 6.5535518310179353e-01 4.4454785385165585e-01
987 1.0000000000000000e+00 4.3673965309493501e-01 0.0000000000000000e+00
988 1.0000000000000000e+00 3.7494498038158275e-01 1.0000000000000000e+00
989 1.0000000000000000e+00 5.1446464496362343e-01 1.0000000000000000e+00
990 1.0000000000000000e+00 1.3074272886045279e-01 8.8242002006122466e-01
991 1.0000000000000000e+00 8.4556667266196694e-01 5.0851863717193946e-01
992 1.0000000000000000e+00 4.9690440576728923e-01 7.1783811503452744e-01
993 1.0000000000000000e+00 5.2442629819610931e-01 3.1110164405392893e-01
994 1.0000000000000000e+00 0.0000000000000000e+00 1.0000000000000000e+00
995 1.0000000000000000e+00 1.0000000000000000e+00 2.2947894592410290e-01
996 1.0000000000000000e+00 0.0000000000000000e+00 0.0000000000000000e+00
997 1.0000000000000000e+00 0.0000000000000000e+00 1.0000000000000000e+00
998 1.0000000000000000e+00 1.0000000000000000e+00 0.0000000000000000e+00
999 1.0000000000000000e+00 1.0000000000000000e+00 1.0000000000000000e+00
