# This file was created by meshio v5.3.5
4374 4 0
0 1 10 0 100
1 412 322 411 421
2 2 11 1 101
3 3 12 2 102
4 127 37 126 136
5 13 102 3 103
6 5 14 4 104
7 33 122 23 123
8 172 82 171 181
9 14 103 4 104
10 101 110 100 200
11 154 145 55 155
12 210 200 201 300
13 152 151 142 241
14 11 10 1 100
15 11 100 1 101
16 224 134 223 233
17 12 101 2 102
18 28 27 18 117
19 14 13 4 103
20 12 11 2 101
21 13 12 3 102
22 42 41 32 131
23 118 207 108 208
24 43 42 33 132
25 111 102 12 112
26 220 310 221 320
27 114 203 104 204
28 104 113 103 203
29 19 18 9 108
30 23 112 13 113
31 46 45 36 135
32 37 36 27 126
33 207 208 118 217
34 115 106 16 116
35 18 107 8 108
36 166 156 157 256
37 241 240 231 330
38 69 68 59 158
39 143 53 142 152
40 15 14 5 104
41 101 11 100 110
42 301 211 300 310
43 9 18 8 108
44 134 44 133 143
45 15 104 5 105
46 18 17 8 107
47 7 16 6 106
48 6 15 5 105
49 17 16 7 106
50 148 149 59 158
51 173 83 172 182
52 161 160 151 250
53 137 47 136 146
54 214 204 205 304
55 60 150 61 160
56 144 135 45 145
57 152 143 53 153
58 17 106 7 107
59 117 108 18 118
60 27 26 17 116
61 26 115 16 116
62 115 114 105 204
63 124 34 123 133
64 117 118 28 127
65 16 15 6 105
66 126 117 27 127
67 123 212 113 213
68 64 63 54 153
69 8 17 7 107
70 115 204 105 205
71 33 32 23 122
72 113 112 103 202
73 114 105 15 115
74 66 65 56 155
75 4 13 3 103
76 147 146 137 236
77 16 105 6 106
78 63 62 53 152
79 134 125 35 135
80 112 103 13 113
81 108 9 19 109
82 113 104 14 114
83 112 201 102 202
84 154 144 145 244
85 36 35 26 125
86 32 121 22 122
87 35 34 25 124
88 20 110 21 120
89 78 77 68 167
90 22 111 12 112
91 411 321 410 420
92 132 42 131 141
93 136 46 135 145
94 133 43 132 142
95 117 126 116 216
96 96 95 86 185
97 403 304 314 404
98 522 513 423 523
99 125 214 115 215
100 31 30 21 120
101 35 124 25 125
102 40 130 41 140
103 36 125 26 126
104 52 141 42 142
105 103 13 102 112
106 53 142 43 143
107 104 14 103 113
108 125 116 26 126
109 105 15 104 114
110 115 25 114 124
111 106 16 105 115
112 128 129 39 138
113 135 126 36 136
114 90 80 81 180
115 37 126 27 127
116 165 75 164 174
117 209 218 208 308
118 103 112 102 202
119 113 202 103 203
120 30 120 31 130
121 112 111 102 201
122 131 41 130 140
123 114 113 104 203
124 117 206 107 207
125 70 60 61 160
126 89 88 79 178
127 79 78 69 168
128 118 117 108 207
129 119 118 109 208
130 106 115 105 205
131 180 181 91 190
132 117 116 107 206
133 160 250 161 260
134 174 84 173 183
135 46 135 36 136
136 157 67 156 166
137 44 43 34 133
138 45 44 35 134
139 216 215 206 305
140 127 128 38 137
141 56 55 46 145
142 219 218 209 308
143 116 205 106 206
144 137 136 127 226
145 25 24 15 114
146 54 143 44 144
147 21 20 11 110
148 111 200 101 201
149 26 25 16 115
150 34 123 24 124
151 135 45 134 144
152 10 100 11 110
153 65 154 55 155
154 145 136 46 146
155 252 162 251 261
156 110 101 11 111
157 62 61 52 151
158 314 224 313 323
159 133 132 123 222
160 41 130 31 131
161 30 20 21 120
162 215 205 206 305
163 72 71 62 161
164 421 331 420 430
165 310 300 301 400
166 24 23 14 113
167 41 40 31 130
168 121 120 111 210
169 102 12 101 111
170 21 110 11 111
171 128 217 118 218
172 233 143 232 242
173 20 10 11 110
174 27 116 17 117
175 52 51 42 141
176 166 76 165 175
177 201 202 112 211
178 34 33 24 123
179 146 56 145 155
180 136 225 126 226
181 23 22 13 112
182 102 111 101 201
183 22 21 12 111
184 167 168 78 177
185 301 202 212 302
186 32 31 22 121
187 125 35 124 134
188 52 42 43 142
189 24 113 14 114
190 77 76 67 166
191 123 33 122 132
192 141 51 140 150
193 66 56 57 156
194 54 44 45 144
195 53 43 44 143
196 25 114 15 115
197 302 203 213 303
198 210 211 121 220
199 164 74 163 173
200 208 109 119 209
201 152 62 151 161
202 117 27 116 126
203 51 50 41 140
204 38 37 28 127
205 357 446 347 447
206 65 64 55 154
207 107 17 106 116
208 46 136 47 146
209 116 107 17 117
210 47 46 37 136
211 177 178 88 187
212 48 137 38 138
213 511 421 510 520
214 47 136 37 137
215 29 28 19 118
216 109 19 108 118
217 107 108 18 117
218 59 58 49 148
219 131 220 121 221
220 258 168 257 267
221 503 404 414 504
222 108 117 107 207
223 216 207 117 217
224 213 204 114 214
225 28 117 18 118
226 238 237 228 327
227 109 118 108 208
228 238 148 237 247
229 215 214 205 304
230 111 110 101 200
231 51 41 42 141
232 145 55 144 154
233 61 60 51 150
234 130 121 31 131
235 303 213 302 312
236 21 11 12 111
237 11 101 12 111
238 105 114 104 204
239 200 201 111 210
240 120 111 21 121
241 111 21 110 120
242 22 12 13 112
243 12 102 13 112
244 112 22 111 121
245 31 120 21 121
246 121 112 22 122
247 138 137 128 227
248 23 13 14 113
249 13 103 14 113
250 113 23 112 122
251 87 86 77 176
252 122 113 23 123
253 152 241 142 242
254 24 14 15 114
255 14 104 15 114
256 114 24 113 123
257 97 96 87 186
258 123 114 24 124
259 122 32 121 131
260 25 15 16 115
261 15 105 16 115
262 124 115 25 125
263 26 16 17 116
264 16 106 17 116
265 116 26 115 125
266 76 165 66 166
267 167 77 166 176
268 38 127 28 128
269 27 17 18 117
270 17 107 18 117
271 55 45 46 145
272 19 28 18 118
273 18 108 19 118
274 323 314 224 324
275 39 38 29 128
276 164 155 65 165
277 127 118 28 128
278 147 148 58 157
279 118 119 29 128
280 29 118 19 119
281 118 109 19 119
282 73 72 63 162
283 243 242 233 332
284 80 70 71 170
285 126 36 125 135
286 144 54 143 153
287 243 153 242 252
288 31 21 22 121
289 21 111 22 121
290 147 57 146 156
291 40 30 31 130
292 42 131 32 132
293 175 85 174 184
294 32 22 23 122
295 22 112 23 122
296 131 122 32 132
297 121 31 120 130
298 43 132 33 133
299 162 72 161 171
300 33 23 24 123
301 23 113 24 123
302 132 123 33 133
303 56 46 47 146
304 44 133 34 134
305 303 204 214 304
306 34 24 25 124
307 24 114 25 124
308 133 124 34 134
309 45 134 35 135
310 98 97 88 187
311 35 25 26 125
312 25 115 26 125
313 144 143 134 233
314 137 128 38 138
315 36 26 27 126
316 26 116 27 126
317 272 182 271 281
318 210 201 111 211
319 48 47 38 137
320 56 145 46 146
321 55 144 45 145
322 37 27 28 127
323 27 117 28 127
324 116 115 106 205
325 126 216 127 226
326 29 38 28 128
327 28 118 29 128
328 147 138 48 148
329 136 127 37 137
330 49 48 39 138
331 58 147 48 148
332 140 230 141 240
333 39 128 29 129
334 128 119 29 129
335 142 141 132 231
336 153 144 54 154
337 99 98 89 188
338 51 140 41 141
339 50 40 41 140
340 41 31 32 131
341 31 121 32 131
342 60 50 51 150
343 140 131 41 141
344 50 140 51 150
345 42 32 33 132
346 32 122 33 132
347 128 127 118 217
348 141 132 42 142
349 43 33 34 133
350 33 123 34 133
351 54 53 44 143
352 142 133 43 143
353 215 206 116 216
354 44 34 35 134
355 34 124 35 134
356 55 54 45 144
357 143 134 44 144
358 212 211 202 301
359 45 35 36 135
360 35 125 36 135
361 137 138 48 147
362 46 36 37 136
363 36 126 37 136
364 155 146 56 156
365 57 56 47 146
366 47 37 38 137
367 37 127 38 137
368 138 139 49 148
369 39 48 38 138
370 38 128 39 138
371 146 137 47 147
372 57 47 48 147
373 57 146 47 147
374 58 57 48 147
375 404 314 403 413
376 49 138 39 139
377 138 129 39 139
378 53 52 43 142
379 141 140 131 230
380 225 216 126 226
381 148 237 138 238
382 41 131 42 141
383 142 52 141 151
384 234 144 233 243
385 151 142 52 152
386 135 225 136 235
387 42 132 43 142
388 61 150 51 151
389 222 213 123 223
390 74 73 64 163
391 150 141 51 151
392 43 133 44 143
393 62 151 52 152
394 214 213 204 303
395 75 74 65 164
396 44 134 45 144
397 63 152 53 153
398 307 308 218 317
399 76 75 66 165
400 163 73 162 172
401 45 135 46 145
402 64 153 54 154
403 211 202 112 212
404 157 158 68 167
405 66 155 56 156
406 171 81 170 180
407 47 137 48 147
408 77 166 67 167
409 217 216 207 306
410 86 175 76 176
411 67 66 57 156
412 67 156 57 157
413 68 67 58 157
414 156 147 57 157
415 49 58 48 148
416 48 138 49 148
417 180 91 90 190
418 343 253 342 352
419 59 148 49 149
420 148 139 49 149
421 231 141 230 240
422 222 132 221 231
423 223 133 222 232
424 226 217 127 227
425 212 203 113 213
426 71 70 61 160
427 61 51 52 151
428 51 141 52 151
429 71 160 61 161
430 70 160 71 170
431 160 151 61 161
432 62 52 53 152
433 52 142 53 152
434 81 80 71 170
435 151 61 150 160
436 161 152 62 162
437 63 53 54 153
438 53 143 54 153
439 161 71 160 170
440 162 153 63 163
441 64 54 55 154
442 54 144 55 154
443 242 241 232 331
444 163 154 64 164
445 65 55 56 155
446 55 145 56 155
447 176 86 175 185
448 211 201 202 301
449 56 146 57 156
450 88 87 78 177
451 212 202 203 302
452 67 57 58 157
453 57 147 58 157
454 165 156 66 166
455 68 157 58 158
456 157 148 58 158
457 158 159 69 168
458 180 170 171 270
459 59 68 58 158
460 58 148 59 158
461 189 99 188 198
462 69 158 59 159
463 158 149 59 159
464 95 184 85 185
465 91 90 81 180
466 262 172 261 271
467 137 226 127 227
468 316 315 306 405
469 213 214 124 223
470 139 138 129 228
471 214 205 115 215
472 153 63 152 162
473 80 170 81 180
474 72 161 62 162
475 71 61 62 161
476 61 151 62 161
477 154 64 153 163
478 73 162 63 163
479 72 62 63 162
480 62 152 63 162
481 155 65 154 164
482 74 163 64 164
483 73 63 64 163
484 63 153 64 163
485 156 66 155 165
486 75 164 65 165
487 74 64 65 164
488 64 154 65 164
489 177 87 176 186
490 87 176 77 177
491 75 65 66 165
492 65 155 66 165
493 168 169 79 178
494 76 66 67 166
495 66 156 67 166
496 166 157 67 167
497 77 67 68 167
498 67 157 68 167
499 78 167 68 168
500 167 158 68 168
501 69 78 68 168
502 68 158 69 168
503 178 179 89 188
504 79 168 69 169
505 168 159 69 169
506 310 301 211 311
507 213 203 204 303
508 246 245 236 335
509 127 126 117 216
510 211 210 201 300
511 140 130 131 230
512 441 530 431 531
513 82 81 72 171
514 81 170 71 171
515 170 161 71 171
516 81 71 72 171
517 71 161 72 171
518 83 82 73 172
519 82 171 72 172
520 171 162 72 172
521 82 72 73 172
522 72 162 73 172
523 84 83 74 173
524 83 172 73 173
525 172 163 73 173
526 83 73 74 173
527 73 163 74 173
528 85 84 75 174
529 84 173 74 174
530 173 164 74 174
531 84 74 75 174
532 74 164 75 174
533 86 85 76 175
534 85 174 75 175
535 174 165 75 175
536 85 75 76 175
537 75 165 76 175
538 175 166 76 176
539 86 76 77 176
540 76 166 77 176
541 176 167 77 177
542 87 77 78 177
543 77 167 78 177
544 88 177 78 178
545 177 168 78 178
546 79 88 78 178
547 78 168 79 178
548 403 313 402 412
549 89 178 79 179
550 178 169 79 179
551 127 136 126 226
552 165 164 155 254
553 373 283 372 382
554 342 341 332 431
555 415 325 414 424
556 250 240 241 340
557 92 91 82 181
558 91 180 81 181
559 180 171 81 181
560 91 81 82 181
561 81 171 82 181
562 93 92 83 182
563 92 181 82 182
564 181 172 82 182
565 92 82 83 182
566 82 172 83 182
567 94 93 84 183
568 93 182 83 183
569 182 173 83 183
570 93 83 84 183
571 83 173 84 183
572 95 94 85 184
573 94 183 84 184
574 183 174 84 184
575 94 84 85 184
576 84 174 85 184
577 184 175 85 185
578 95 85 86 185
579 85 175 86 185
580 96 185 86 186
581 185 176 86 186
582 96 86 87 186
583 86 176 87 186
584 97 186 87 187
585 186 177 87 187
586 97 87 88 187
587 87 177 88 187
588 98 187 88 188
589 187 178 88 188
590 89 98 88 188
591 88 178 89 188
592 280 281 191 290
593 99 188 89 189
594 188 179 89 189
595 196 195 186 285
596 226 136 225 235
597 190 180 181 280
598 315 305 306 405
599 132 131 122 221
600 181 92 91 191
601 91 190 181 191
602 181 182 92 191
603 182 93 92 192
604 92 191 182 192
605 182 183 93 192
606 250 340 251 350
607 324 234 323 333
608 183 94 93 193
609 93 192 183 193
610 183 184 94 193
611 313 303 304 403
612 184 95 94 194
613 94 193 184 194
614 184 185 95 194
615 232 142 231 241
616 185 96 95 195
617 95 194 185 195
618 185 186 96 195
619 186 97 96 196
620 96 195 186 196
621 186 187 97 196
622 146 235 136 236
623 187 98 97 197
624 97 196 187 197
625 187 188 98 197
626 248 249 159 258
627 177 266 167 267
628 188 99 98 198
629 98 197 188 198
630 198 189 99 199
631 309 219 308 318
632 257 346 247 347
633 134 133 124 223
634 164 163 154 253
635 135 134 125 224
636 211 212 122 221
637 418 417 408 507
638 305 215 304 314
639 107 116 106 206
640 124 213 114 214
641 143 142 133 232
642 156 146 147 246
643 121 210 111 211
644 176 265 166 266
645 153 143 144 243
646 151 141 142 241
647 220 211 121 221
648 121 130 120 220
649 156 155 146 245
650 275 185 274 284
651 318 407 308 408
652 135 224 125 225
653 228 229 139 238
654 420 411 321 421
655 122 211 112 212
656 223 214 124 224
657 132 221 122 222
658 110 200 111 210
659 257 167 256 266
660 122 121 112 211
661 413 403 404 503
662 127 216 117 217
663 202 203 113 212
664 237 147 236 246
665 145 234 135 235
666 123 122 113 212
667 148 147 138 237
668 111 120 110 210
669 230 221 131 231
670 165 254 155 255
671 206 207 117 216
672 203 204 114 213
673 166 165 156 255
674 133 222 123 223
675 124 123 114 213
676 237 228 138 238
677 221 220 211 310
678 236 235 226 325
679 217 207 208 307
680 209 119 208 218
681 402 303 313 403
682 187 186 177 276
683 125 124 115 214
684 310 311 221 320
685 416 326 415 425
686 129 128 119 218
687 313 223 312 322
688 198 197 188 287
689 204 205 115 214
690 401 302 312 402
691 324 315 225 325
692 126 125 116 215
693 167 256 157 257
694 321 312 222 322
695 306 207 217 307
696 205 206 116 215
697 147 236 137 237
698 217 208 118 218
699 163 162 153 252
700 169 168 159 258
701 157 246 147 247
702 300 201 211 301
703 145 144 135 234
704 372 282 371 381
705 244 235 145 245
706 216 217 127 226
707 225 314 215 315
708 237 236 227 326
709 136 135 126 225
710 315 225 314 324
711 138 227 128 228
712 225 135 224 234
713 228 138 227 237
714 258 347 248 348
715 157 156 147 246
716 126 215 116 216
717 162 161 152 251
718 235 145 234 244
719 112 121 111 211
720 111 201 112 211
721 131 130 121 220
722 120 210 121 220
723 178 177 168 267
724 113 122 112 212
725 112 202 113 212
726 146 145 136 235
727 304 205 215 305
728 244 154 243 253
729 153 242 143 243
730 114 123 113 213
731 113 203 114 213
732 221 212 122 222
733 170 160 161 260
734 157 147 148 247
735 266 176 265 275
736 115 124 114 214
737 114 204 115 214
738 134 223 124 224
739 241 330 231 331
740 197 196 187 286
741 213 212 203 302
742 116 125 115 215
743 115 205 116 215
744 155 145 146 245
745 231 222 132 232
746 229 228 219 318
747 116 206 117 216
748 224 215 125 225
749 154 243 144 244
750 155 244 145 245
751 214 215 125 224
752 235 226 136 236
753 177 176 167 266
754 118 127 117 217
755 117 207 118 217
756 273 183 272 282
757 215 216 126 225
758 328 238 327 337
759 119 128 118 218
760 118 208 119 218
761 227 218 128 228
762 189 188 179 278
763 327 237 326 336
764 218 219 129 228
765 129 218 119 219
766 218 209 119 219
767 217 218 128 227
768 141 230 131 231
769 212 213 123 222
770 173 172 163 262
771 122 131 121 221
772 121 211 122 221
773 221 131 220 230
774 145 135 136 235
775 308 209 219 309
776 274 184 273 283
777 130 220 131 230
778 123 132 122 222
779 122 212 123 222
780 142 231 132 232
781 227 137 226 236
782 252 243 153 253
783 152 142 143 242
784 124 133 123 223
785 123 213 124 223
786 143 232 133 233
787 160 150 151 250
788 253 244 154 254
789 125 134 124 224
790 124 214 125 224
791 245 236 146 246
792 307 217 306 316
793 254 245 155 255
794 232 223 133 233
795 126 135 125 225
796 125 215 126 225
797 233 224 134 234
798 241 151 240 250
799 218 217 208 307
800 151 150 141 240
801 243 234 144 244
802 144 233 134 234
803 236 146 235 245
804 264 255 165 265
805 265 175 264 274
806 234 225 135 235
807 156 245 146 246
808 416 415 406 505
809 128 137 127 227
810 127 217 128 227
811 336 327 237 337
812 326 236 325 335
813 129 138 128 228
814 128 218 129 228
815 338 248 337 347
816 236 227 137 237
817 159 158 149 248
818 149 148 139 238
819 158 247 148 248
820 302 212 301 311
821 139 228 129 229
822 228 219 129 229
823 141 131 132 231
824 131 221 132 231
825 151 240 141 241
826 150 140 141 240
827 315 314 305 404
828 142 132 133 232
829 132 222 133 232
830 240 231 141 241
831 150 240 151 250
832 261 260 251 350
833 172 171 162 261
834 143 133 134 233
835 133 223 134 233
836 241 232 142 242
837 422 413 323 423
838 245 155 244 254
839 154 153 144 243
840 144 134 135 234
841 134 224 135 234
842 242 233 143 243
843 218 307 208 308
844 306 216 305 315
845 246 156 245 255
846 312 311 302 401
847 146 236 147 246
848 264 174 263 273
849 155 154 145 244
850 247 157 246 256
851 146 136 137 236
852 136 226 137 236
853 255 246 156 256
854 248 158 247 257
855 147 137 138 237
856 137 227 138 237
857 238 239 149 248
858 148 138 139 238
859 138 228 139 238
860 258 259 169 268
861 246 237 147 247
862 247 238 148 248
863 158 157 148 247
864 447 357 446 456
865 149 238 139 239
866 238 229 139 239
867 153 152 143 242
868 240 230 231 330
869 216 206 207 306
870 317 318 228 327
871 298 297 288 387
872 141 231 142 241
873 242 152 241 251
874 316 226 315 325
875 251 242 152 252
876 142 232 143 242
877 161 250 151 251
878 322 313 223 323
879 174 173 164 263
880 250 241 151 251
881 143 233 144 243
882 162 251 152 252
883 314 313 304 403
884 175 174 165 264
885 144 234 145 244
886 163 252 153 253
887 277 366 267 367
888 176 175 166 265
889 263 173 262 272
890 145 235 146 245
891 164 253 154 254
892 322 232 321 331
893 278 188 277 287
894 179 178 169 268
895 166 255 156 256
896 271 181 270 280
897 147 237 148 247
898 324 413 314 414
899 186 275 176 276
900 167 166 157 256
901 168 167 158 257
902 187 276 177 277
903 158 148 149 248
904 148 238 149 248
905 256 247 157 257
906 280 191 190 290
907 443 353 442 452
908 159 248 149 249
909 248 239 149 249
910 317 308 218 318
911 320 311 221 321
912 260 250 251 350
913 224 313 214 314
914 347 346 337 436
915 323 233 322 332
916 171 170 161 260
917 161 151 152 251
918 151 241 152 251
919 171 260 161 261
920 170 260 171 270
921 260 251 161 261
922 162 152 153 252
923 152 242 153 252
924 181 180 171 270
925 251 161 250 260
926 261 252 162 262
927 163 153 154 253
928 153 243 154 253
929 261 171 260 270
930 262 253 163 263
931 164 154 155 254
932 154 244 155 254
933 263 254 164 264
934 165 155 156 255
935 155 245 156 255
936 276 186 275 285
937 311 301 302 401
938 156 246 157 256
939 188 187 178 277
940 312 302 303 402
941 167 157 158 257
942 157 247 158 257
943 265 256 166 266
944 168 257 158 258
945 257 248 158 258
946 266 257 167 267
947 321 231 320 330
948 168 158 159 258
949 158 248 159 258
950 289 199 288 298
951 169 258 159 259
952 258 249 159 259
953 195 284 185 285
954 191 190 181 280
955 233 232 223 322
956 315 306 216 316
957 462 372 461 471
958 543 453 542 552
959 407 317 406 416
960 325 235 324 334
961 253 163 252 262
962 180 270 181 280
963 172 261 162 262
964 171 161 162 261
965 161 251 162 261
966 254 164 253 263
967 173 262 163 263
968 172 162 163 262
969 162 252 163 262
970 255 165 254 264
971 174 263 164 264
972 173 163 164 263
973 163 253 164 263
974 256 166 255 265
975 175 264 165 265
976 174 164 165 264
977 164 254 165 264
978 348 349 259 358
979 277 187 276 286
980 267 177 266 276
981 175 165 166 265
982 165 255 166 265
983 199 198 189 288
984 176 166 167 266
985 166 256 167 266
986 268 269 179 278
987 177 167 168 267
988 167 257 168 267
989 268 178 267 277
990 178 267 168 268
991 267 258 168 268
992 178 168 169 268
993 168 258 169 268
994 278 279 189 288
995 179 268 169 269
996 268 259 169 269
997 405 315 404 414
998 222 221 212 311
999 423 414 324 424
1000 311 310 301 400
1001 317 307 308 407
1002 182 181 172 271
1003 181 270 171 271
1004 270 261 171 271
1005 181 171 172 271
1006 171 261 172 271
1007 183 182 173 272
1008 182 271 172 272
1009 271 262 172 272
1010 182 172 173 272
1011 172 262 173 272
1012 184 183 174 273
1013 183 272 173 273
1014 272 263 173 273
1015 183 173 174 273
1016 173 263 174 273
1017 185 184 175 274
1018 184 273 174 274
1019 273 264 174 274
1020 184 174 175 274
1021 174 264 175 274
1022 186 185 176 275
1023 185 274 175 275
1024 274 265 175 275
1025 185 175 176 275
1026 175 265 176 275
1027 275 266 176 276
1028 186 176 177 276
1029 176 266 177 276
1030 276 267 177 277
1031 187 177 178 277
1032 177 267 178 277
1033 188 277 178 278
1034 277 268 178 278
1035 188 178 179 278
1036 178 268 179 278
1037 389 299 388 398
1038 189 278 179 279
1039 278 269 179 279
1040 251 250 241 340
1041 232 231 222 321
1042 434 425 335 435
1043 473 383 472 482
1044 358 268 357 367
1045 413 323 412 422
1046 192 191 182 281
1047 191 280 181 281
1048 280 271 181 281
1049 191 181 182 281
1050 181 271 182 281
1051 193 192 183 282
1052 192 281 182 282
1053 281 272 182 282
1054 192 182 183 282
1055 182 272 183 282
1056 194 193 184 283
1057 193 282 183 283
1058 282 273 183 283
1059 193 183 184 283
1060 183 273 184 283
1061 195 194 185 284
1062 194 283 184 284
1063 283 274 184 284
1064 194 184 185 284
1065 184 274 185 284
1066 284 275 185 285
1067 195 185 186 285
1068 185 275 186 285
1069 196 285 186 286
1070 285 276 186 286
1071 196 186 187 286
1072 186 276 187 286
1073 197 286 187 287
1074 286 277 187 287
1075 197 187 188 287
1076 187 277 188 287
1077 198 287 188 288
1078 287 278 188 288
1079 198 188 189 288
1080 188 278 189 288
1081 199 288 189 289
1082 288 279 189 289
1083 296 295 286 385
1084 321 410 311 411
1085 290 280 281 380
1086 378 288 377 387
1087 272 271 262 361
1088 341 340 331 430
1089 281 192 191 291
1090 191 290 281 291
1091 281 282 192 291
1092 340 330 331 430
1093 252 251 242 341
1094 282 193 192 292
1095 192 291 282 292
1096 282 283 193 292
1097 350 440 351 450
1098 414 324 413 423
1099 283 194 193 293
1100 193 292 283 293
1101 283 284 194 293
1102 331 241 330 340
1103 284 195 194 294
1104 194 293 284 294
1105 284 285 195 294
1106 344 254 343 353
1107 285 196 195 295
1108 195 294 285 295
1109 285 286 196 295
1110 345 255 344 354
1111 286 197 196 296
1112 196 295 286 296
1113 286 287 197 296
1114 346 256 345 355
1115 287 198 197 297
1116 197 296 287 297
1117 287 288 198 297
1118 558 647 548 648
1119 288 199 198 298
1120 198 297 288 298
1121 298 289 199 299
1122 234 233 224 323
1123 314 304 305 404
1124 235 234 225 324
1125 362 272 361 371
1126 304 214 303 313
1127 622 613 523 623
1128 504 414 503 513
1129 305 206 216 306
1130 312 222 311 321
1131 223 312 213 313
1132 222 311 212 312
1133 264 263 254 353
1134 330 321 231 331
1135 318 317 308 407
1136 221 310 211 311
1137 265 264 255 354
1138 611 521 610 620
1139 523 514 424 524
1140 374 284 373 383
1141 346 345 336 435
1142 262 261 252 351
1143 418 507 408 508
1144 326 317 227 327
1145 228 227 218 317
1146 311 302 212 312
1147 231 230 221 320
1148 210 300 211 310
1149 270 260 261 360
1150 238 327 228 328
1151 404 305 315 405
1152 312 303 213 313
1153 338 339 249 348
1154 277 276 267 366
1155 223 222 213 312
1156 247 246 237 336
1157 211 220 210 310
1158 221 230 220 320
1159 341 430 331 431
1160 276 365 266 366
1161 313 304 214 314
1162 408 318 407 417
1163 251 241 242 341
1164 224 223 214 313
1165 266 265 256 355
1166 321 320 311 410
1167 336 335 326 425
1168 414 404 405 504
1169 347 257 346 356
1170 320 410 321 420
1171 502 403 413 503
1172 424 334 423 433
1173 225 224 215 314
1174 406 307 317 407
1175 516 426 515 525
1176 248 337 238 338
1177 335 326 236 336
1178 472 382 471 481
1179 314 305 215 315
1180 525 516 426 526
1181 351 350 341 440
1182 226 225 216 315
1183 425 416 326 426
1184 228 317 218 318
1185 316 317 227 326
1186 226 315 216 316
1187 501 402 412 502
1188 316 306 307 406
1189 227 226 217 316
1190 400 301 311 401
1191 325 316 226 326
1192 347 338 248 348
1193 410 400 401 500
1194 322 411 312 412
1195 227 316 217 317
1196 309 318 308 408
1197 316 307 217 317
1198 541 630 531 631
1199 319 318 309 408
1200 408 309 319 409
1201 273 272 263 362
1202 263 262 253 352
1203 221 211 212 311
1204 211 301 212 311
1205 231 320 221 321
1206 245 244 235 334
1207 244 243 234 333
1208 222 212 213 312
1209 212 302 213 312
1210 232 321 222 322
1211 256 345 246 346
1212 251 340 241 341
1213 223 213 214 313
1214 213 303 214 313
1215 233 322 223 323
1216 412 411 402 501
1217 332 242 331 341
1218 874 963 864 964
1219 224 214 215 314
1220 214 304 215 314
1221 234 323 224 324
1222 333 243 332 342
1223 280 270 271 370
1224 225 215 216 315
1225 215 305 216 315
1226 235 324 225 325
1227 331 322 232 332
1228 334 244 333 343
1229 230 320 231 330
1230 226 216 217 316
1231 216 306 217 316
1232 236 325 226 326
1233 332 323 233 333
1234 335 245 334 344
1235 336 246 335 345
1236 350 340 341 440
1237 237 326 227 327
1238 333 324 234 334
1239 227 217 218 317
1240 217 307 218 317
1241 337 247 336 346
1242 313 312 303 402
1243 327 318 228 328
1244 219 228 218 318
1245 218 308 219 318
1246 239 238 229 328
1247 334 325 235 335
1248 318 319 229 328
1249 229 318 219 319
1250 318 309 219 319
1251 248 247 238 337
1252 260 350 261 360
1253 503 413 502 512
1254 222 231 221 321
1255 221 311 222 321
1256 357 267 356 366
1257 375 285 374 384
1258 343 342 333 432
1259 232 222 223 322
1260 222 312 223 322
1261 242 331 232 332
1262 352 343 253 353
1263 233 223 224 323
1264 223 313 224 323
1265 243 332 233 333
1266 353 344 254 354
1267 234 224 225 324
1268 224 314 225 324
1269 244 333 234 334
1270 623 614 524 624
1271 354 345 255 355
1272 341 251 340 350
1273 235 225 226 325
1274 225 315 226 325
1275 245 334 235 335
1276 252 341 242 342
1277 240 330 241 340
1278 236 226 227 326
1279 226 316 227 326
1280 246 335 236 336
1281 253 342 243 343
1282 266 256 257 356
1283 603 504 514 604
1284 228 237 227 327
1285 227 317 228 327
1286 247 336 237 337
1287 254 343 244 344
1288 364 355 265 365
1289 515 505 506 605
1290 278 277 268 367
1291 337 328 238 338
1292 229 238 228 328
1293 228 318 229 328
1294 249 248 239 338
1295 255 344 245 345
1296 328 329 239 338
1297 239 328 229 329
1298 328 319 229 329
1299 415 414 405 504
1300 269 268 259 358
1301 406 316 405 415
1302 241 231 232 331
1303 231 321 232 331
1304 287 286 277 376
1305 364 274 363 373
1306 352 262 351 361
1307 242 232 233 332
1308 232 322 233 332
1309 340 331 241 341
1310 267 356 257 357
1311 296 385 286 386
1312 366 276 365 375
1313 243 233 234 333
1314 233 323 234 333
1315 341 332 242 342
1316 252 242 243 342
1317 355 346 256 356
1318 253 252 243 342
1319 244 234 235 334
1320 234 324 235 334
1321 342 333 243 343
1322 253 243 244 343
1323 289 288 279 378
1324 254 253 244 343
1325 245 235 236 335
1326 235 325 236 335
1327 343 334 244 344
1328 254 244 245 344
1329 259 258 249 348
1330 255 254 245 344
1331 246 236 237 336
1332 236 326 237 336
1333 344 335 245 345
1334 255 245 246 345
1335 338 337 328 427
1336 256 255 246 345
1337 247 237 238 337
1338 237 327 238 337
1339 345 336 246 346
1340 256 246 247 346
1341 348 258 347 357
1342 257 256 247 346
1343 258 257 248 347
1344 358 359 269 368
1345 248 238 239 338
1346 238 328 239 338
1347 346 337 247 347
1348 257 247 248 347
1349 348 437 338 438
1350 249 338 239 339
1351 338 329 239 339
1352 365 275 364 374
1353 241 331 242 341
1354 342 252 341 351
1355 458 547 448 548
1356 351 342 252 352
1357 538 539 449 548
1358 242 332 243 342
1359 261 350 251 351
1360 438 439 349 448
1361 274 273 264 363
1362 350 341 251 351
1363 243 333 244 343
1364 262 351 252 352
1365 414 413 404 503
1366 275 274 265 364
1367 244 334 245 344
1368 263 352 253 353
1369 276 275 266 365
1370 363 273 362 372
1371 245 335 246 345
1372 264 353 254 354
1373 422 332 421 431
1374 377 287 376 386
1375 246 336 247 346
1376 265 354 255 355
1377 279 278 269 368
1378 266 355 256 356
1379 371 281 370 380
1380 247 337 248 347
1381 332 331 322 421
1382 286 375 276 376
1383 267 266 257 356
1384 268 267 258 357
1385 287 376 277 377
1386 258 248 249 348
1387 248 338 249 348
1388 356 347 257 357
1389 380 291 290 390
1390 424 513 414 514
1391 259 348 249 349
1392 348 339 249 349
1393 328 417 318 418
1394 323 412 313 413
1395 325 414 315 415
1396 326 415 316 416
1397 360 350 351 450
1398 423 333 422 432
1399 271 270 261 360
1400 261 251 252 351
1401 251 341 252 351
1402 271 360 261 361
1403 270 360 271 370
1404 360 351 261 361
1405 262 252 253 352
1406 252 342 253 352
1407 281 280 271 370
1408 351 261 350 360
1409 361 352 262 362
1410 263 253 254 353
1411 253 343 254 353
1412 361 271 360 370
1413 362 353 263 363
1414 264 254 255 354
1415 254 344 255 354
1416 363 354 264 364
1417 265 255 256 355
1418 255 345 256 355
1419 376 286 375 385
1420 411 401 402 501
1421 256 346 257 356
1422 288 287 278 377
1423 412 402 403 502
1424 267 257 258 357
1425 257 347 258 357
1426 365 356 266 366
1427 268 357 258 358
1428 357 348 258 358
1429 366 357 267 367
1430 442 441 432 531
1431 268 258 259 358
1432 258 348 259 358
1433 521 431 520 530
1434 269 358 259 359
1435 358 349 259 359
1436 295 384 285 385
1437 291 290 281 380
1438 333 332 323 422
1439 426 336 425 435
1440 563 473 562 572
1441 415 405 406 505
1442 317 316 307 406
1443 507 417 506 516
1444 425 335 424 434
1445 353 263 352 362
1446 280 370 281 380
1447 272 361 262 362
1448 271 261 262 361
1449 261 351 262 361
1450 354 264 353 363
1451 273 362 263 363
1452 272 262 263 362
1453 262 352 263 362
1454 355 265 354 364
1455 274 363 264 364
1456 273 263 264 363
1457 263 353 264 363
1458 356 266 355 365
1459 275 364 265 365
1460 274 264 265 364
1461 264 354 265 364
1462 339 338 329 428
1463 297 296 287 386
1464 367 277 366 376
1465 275 265 266 365
1466 265 355 266 365
1467 299 298 289 388
1468 276 266 267 366
1469 266 356 267 366
1470 368 369 279 378
1471 277 267 268 367
1472 267 357 268 367
1473 368 278 367 377
1474 278 367 268 368
1475 367 358 268 368
1476 278 268 269 368
1477 268 358 269 368
1478 378 379 289 388
1479 279 368 269 369
1480 368 359 269 369
1481 505 415 504 514
1482 348 347 338 437
1483 322 321 312 411
1484 366 365 356 455
1485 411 410 401 500
1486 417 407 408 507
1487 282 281 272 371
1488 281 370 271 371
1489 370 361 271 371
1490 281 271 272 371
1491 271 361 272 371
1492 283 282 273 372
1493 282 371 272 372
1494 371 362 272 372
1495 282 272 273 372
1496 272 362 273 372
1497 284 283 274 373
1498 283 372 273 373
1499 372 363 273 373
1500 283 273 274 373
1501 273 363 274 373
1502 285 284 275 374
1503 284 373 274 374
1504 373 364 274 374
1505 284 274 275 374
1506 274 364 275 374
1507 286 285 276 375
1508 285 374 275 375
1509 374 365 275 375
1510 285 275 276 375
1511 275 365 276 375
1512 375 366 276 376
1513 286 276 277 376
1514 276 366 277 376
1515 376 367 277 377
1516 287 277 278 377
1517 277 367 278 377
1518 288 377 278 378
1519 377 368 278 378
1520 288 278 279 378
1521 278 368 279 378
1522 489 399 488 498
1523 289 378 279 379
1524 378 369 279 379
1525 512 422 511 521
1526 513 423 512 522
1527 525 614 515 615
1528 380 381 291 390
1529 398 397 388 487
1530 292 291 282 381
1531 291 380 281 381
1532 380 371 281 381
1533 291 281 282 381
1534 281 371 282 381
1535 293 292 283 382
1536 292 381 282 382
1537 381 372 282 382
1538 292 282 283 382
1539 282 372 283 382
1540 294 293 284 383
1541 293 382 283 383
1542 382 373 283 383
1543 293 283 284 383
1544 283 373 284 383
1545 295 294 285 384
1546 294 383 284 384
1547 383 374 284 384
1548 294 284 285 384
1549 284 374 285 384
1550 384 375 285 385
1551 295 285 286 385
1552 285 375 286 385
1553 385 376 286 386
1554 296 286 287 386
1555 286 376 287 386
1556 297 386 287 387
1557 386 377 287 387
1558 297 287 288 387
1559 287 377 288 387
1560 298 387 288 388
1561 387 378 288 388
1562 298 288 289 388
1563 288 378 289 388
1564 299 388 289 389
1565 388 379 289 389
1566 396 395 386 485
1567 421 510 411 511
1568 390 380 381 480
1569 478 388 477 487
1570 372 371 362 461
1571 441 440 431 530
1572 381 292 291 391
1573 291 390 381 391
1574 381 382 292 391
1575 440 430 431 530
1576 352 351 342 441
1577 382 293 292 392
1578 292 391 382 392
1579 382 383 293 392
1580 450 540 451 550
1581 514 424 513 523
1582 383 294 293 393
1583 293 392 383 393
1584 383 384 294 393
1585 431 341 430 440
1586 384 295 294 394
1587 294 393 384 394
1588 384 385 295 394
1589 444 354 443 453
1590 385 296 295 395
1591 295 394 385 395
1592 385 386 296 395
1593 445 355 444 454
1594 386 297 296 396
1595 296 395 386 396
1596 386 387 297 396
1597 446 356 445 455
1598 387 298 297 397
1599 297 396 387 397
1600 387 388 298 397
1601 616 606 607 706
1602 585 586 496 595
1603 388 299 298 398
1604 298 397 388 398
1605 398 389 299 399
1606 349 348 339 438
1607 327 416 317 417
1608 604 514 603 613
1609 334 333 324 423
1610 448 449 359 458
1611 335 334 325 424
1612 361 360 351 450
1613 421 412 322 422
1614 513 503 504 603
1615 409 418 408 508
1616 417 327 416 426
1617 424 415 325 425
1618 405 306 316 406
1619 402 312 401 411
1620 337 336 327 426
1621 430 421 331 431
1622 410 401 311 411
1623 717 627 716 726
1624 458 368 457 467
1625 474 384 473 483
1626 446 445 436 535
1627 362 361 352 451
1628 655 744 645 745
1629 364 363 354 453
1630 328 327 318 417
1631 411 402 312 412
1632 386 475 376 476
1633 331 330 321 420
1634 310 400 311 410
1635 370 360 361 460
1636 329 328 319 418
1637 518 517 508 607
1638 412 403 313 413
1639 428 338 427 437
1640 401 311 400 410
1641 323 322 313 412
1642 356 445 346 446
1643 320 310 311 410
1644 330 320 321 420
1645 338 427 328 428
1646 428 429 339 438
1647 413 404 314 414
1648 351 341 342 441
1649 324 323 314 413
1650 421 420 411 510
1651 436 435 426 525
1652 409 319 408 418
1653 420 510 421 520
1654 602 503 513 603
1655 524 434 523 533
1656 325 324 315 414
1657 504 405 415 505
1658 616 526 615 625
1659 426 417 327 427
1660 520 511 421 521
1661 572 482 571 581
1662 414 405 315 415
1663 437 347 436 446
1664 723 714 624 724
1665 326 325 316 415
1666 378 377 368 467
1667 418 328 417 427
1668 455 544 445 545
1669 415 406 316 416
1670 601 502 512 602
1671 327 326 317 416
1672 500 401 411 501
1673 418 419 329 428
1674 506 407 417 507
1675 377 376 367 466
1676 417 408 318 418
1677 510 500 501 600
1678 422 511 412 512
1679 416 407 317 417
1680 515 425 514 524
1681 427 337 426 436
1682 714 713 704 803
1683 419 418 409 508
1684 438 348 437 447
1685 373 372 363 462
1686 363 362 353 452
1687 448 358 447 457
1688 321 311 312 411
1689 311 401 312 411
1690 331 420 321 421
1691 345 344 335 434
1692 344 343 334 433
1693 322 312 313 412
1694 312 402 313 412
1695 332 421 322 422
1696 355 444 345 445
1697 351 440 341 441
1698 323 313 314 413
1699 313 403 314 413
1700 333 422 323 423
1701 512 511 502 601
1702 432 342 431 441
1703 324 314 315 414
1704 314 404 315 414
1705 334 423 324 424
1706 458 459 369 468
1707 433 343 432 442
1708 380 370 371 470
1709 325 315 316 415
1710 315 405 316 415
1711 335 424 325 425
1712 431 422 332 432
1713 434 344 433 443
1714 330 420 331 430
1715 326 316 317 416
1716 316 406 317 416
1717 336 425 326 426
1718 432 423 333 433
1719 435 345 434 444
1720 436 346 435 445
1721 450 440 441 540
1722 337 426 327 427
1723 433 424 334 434
1724 327 317 318 417
1725 317 407 318 417
1726 435 426 336 436
1727 413 412 403 502
1728 328 318 319 418
1729 318 408 319 418
1730 416 406 407 506
1731 365 364 355 454
1732 436 427 337 437
1733 329 418 319 419
1734 418 409 319 419
1735 358 447 348 448
1736 360 450 361 460
1737 603 513 602 612
1738 331 321 322 421
1739 321 411 322 421
1740 457 367 456 466
1741 475 385 474 484
1742 443 442 433 532
1743 332 322 323 422
1744 322 412 323 422
1745 342 431 332 432
1746 452 443 353 453
1747 333 323 324 423
1748 323 413 324 423
1749 343 432 333 433
1750 453 444 354 454
1751 548 637 538 638
1752 334 324 325 424
1753 324 414 325 424
1754 344 433 334 434
1755 377 466 367 467
1756 454 445 355 455
1757 441 351 440 450
1758 335 325 326 425
1759 325 415 326 425
1760 345 434 335 435
1761 352 441 342 442
1762 340 430 341 440
1763 336 326 327 426
1764 326 416 327 426
1765 346 435 336 436
1766 353 442 343 443
1767 366 356 357 456
1768 614 604 605 704
1769 464 455 365 465
1770 704 605 615 705
1771 347 436 337 437
1772 354 443 344 444
1773 337 327 328 427
1774 327 417 328 427
1775 427 418 328 428
1776 514 504 505 604
1777 376 465 366 466
1778 338 328 329 428
1779 328 418 329 428
1780 507 508 418 517
1781 941 851 940 950
1782 437 436 427 526
1783 339 428 329 429
1784 428 419 329 429
1785 515 514 505 604
1786 369 368 359 458
1787 506 416 505 515
1788 341 331 332 431
1789 331 421 332 431
1790 387 386 377 476
1791 464 374 463 473
1792 452 362 451 461
1793 342 332 333 432
1794 332 422 333 432
1795 440 431 341 441
1796 367 456 357 457
1797 396 485 386 486
1798 466 376 465 475
1799 343 333 334 433
1800 333 423 334 433
1801 441 432 342 442
1802 352 342 343 442
1803 455 446 356 456
1804 353 352 343 442
1805 344 334 335 434
1806 334 424 335 434
1807 442 433 343 443
1808 353 343 344 443
1809 389 388 379 478
1810 354 353 344 443
1811 345 335 336 435
1812 335 425 336 435
1813 443 434 344 444
1814 354 344 345 444
1815 359 358 349 448
1816 355 354 345 444
1817 346 336 337 436
1818 336 426 337 436
1819 444 435 345 445
1820 355 345 346 445
1821 358 357 348 447
1822 356 355 346 445
1823 643 553 642 652
1824 357 356 347 446
1825 445 436 346 446
1826 356 346 347 446
1827 347 337 338 437
1828 337 427 338 437
1829 437 428 338 438
1830 438 437 428 527
1831 447 438 348 448
1832 451 450 441 540
1833 348 338 339 438
1834 338 428 339 438
1835 446 437 347 447
1836 448 537 438 538
1837 349 438 339 439
1838 438 429 339 439
1839 465 375 464 474
1840 341 431 342 441
1841 442 352 441 451
1842 451 442 352 452
1843 555 644 545 645
1844 342 432 343 442
1845 361 450 351 451
1846 508 409 419 509
1847 374 373 364 463
1848 450 441 351 451
1849 343 433 344 443
1850 362 451 352 452
1851 514 513 504 603
1852 375 374 365 464
1853 344 434 345 444
1854 363 452 353 453
1855 706 616 705 715
1856 376 375 366 465
1857 463 373 462 472
1858 345 435 346 445
1859 364 453 354 454
1860 522 432 521 531
1861 477 387 476 486
1862 346 436 347 446
1863 365 454 355 455
1864 379 378 369 468
1865 366 455 356 456
1866 471 381 470 480
1867 367 366 357 456
1868 432 431 422 521
1869 357 347 348 447
1870 347 437 348 447
1871 368 367 358 457
1872 387 476 377 477
1873 358 348 349 448
1874 348 438 349 448
1875 456 447 357 457
1876 480 391 390 490
1877 524 613 514 614
1878 359 448 349 449
1879 448 439 349 449
1880 428 517 418 518
1881 423 512 413 513
1882 425 514 415 515
1883 426 515 416 516
1884 460 450 451 550
1885 523 433 522 532
1886 371 370 361 460
1887 361 351 352 451
1888 351 441 352 451
1889 371 460 361 461
1890 370 460 371 470
1891 460 451 361 461
1892 362 352 353 452
1893 352 442 353 452
1894 381 380 371 470
1895 451 361 450 460
1896 461 452 362 462
1897 363 353 354 453
1898 353 443 354 453
1899 461 371 460 470
1900 462 453 363 463
1901 364 354 355 454
1902 354 444 355 454
1903 463 454 364 464
1904 365 355 356 455
1905 355 445 356 455
1906 476 386 475 485
1907 511 501 502 601
1908 356 446 357 456
1909 388 387 378 477
1910 512 502 503 602
1911 367 357 358 457
1912 357 447 358 457
1913 465 456 366 466
1914 368 457 358 458
1915 457 448 358 458
1916 466 457 367 467
1917 542 541 532 631
1918 368 358 359 458
1919 358 448 359 458
1920 621 531 620 630
1921 369 458 359 459
1922 458 449 359 459
1923 395 484 385 485
1924 391 390 381 480
1925 433 432 423 522
1926 526 436 525 535
1927 663 573 662 672
1928 417 416 407 506
1929 607 517 606 616
1930 525 435 524 534
1931 453 363 452 462
1932 380 470 381 480
1933 372 461 362 462
1934 371 361 362 461
1935 361 451 362 461
1936 454 364 453 463
1937 373 462 363 463
1938 372 362 363 462
1939 362 452 363 462
1940 455 365 454 464
1941 374 463 364 464
1942 373 363 364 463
1943 363 453 364 463
1944 456 366 455 465
1945 375 464 365 465
1946 374 364 365 464
1947 364 454 365 464
1948 517 518 428 527
1949 397 396 387 486
1950 467 377 466 476
1951 375 365 366 465
1952 365 455 366 465
1953 399 398 389 488
1954 376 366 367 466
1955 366 456 367 466
1956 468 469 379 478
1957 377 367 368 467
1958 367 457 368 467
1959 468 378 467 477
1960 378 467 368 468
1961 467 458 368 468
1962 378 368 369 468
1963 368 458 369 468
1964 478 479 389 488
1965 379 468 369 469
1966 468 459 369 469
1967 605 515 604 614
1968 448 447 438 537
1969 422 421 412 511
1970 466 465 456 555
1971 511 510 501 600
1972 517 507 508 607
1973 382 381 372 471
1974 381 470 371 471
1975 470 461 371 471
1976 381 371 372 471
1977 371 461 372 471
1978 383 382 373 472
1979 382 471 372 472
1980 471 462 372 472
1981 382 372 373 472
1982 372 462 373 472
1983 384 383 374 473
1984 383 472 373 473
1985 472 463 373 473
1986 383 373 374 473
1987 373 463 374 473
1988 385 384 375 474
1989 384 473 374 474
1990 473 464 374 474
1991 384 374 375 474
1992 374 464 375 474
1993 386 385 376 475
1994 385 474 375 475
1995 474 465 375 475
1996 385 375 376 475
1997 375 465 376 475
1998 475 466 376 476
1999 386 376 377 476
2000 376 466 377 476
2001 476 467 377 477
2002 387 377 378 477
2003 377 467 378 477
2004 388 477 378 478
2005 477 468 378 478
2006 388 378 379 478
2007 378 468 379 478
2008 704 614 703 713
2009 389 478 379 479
2010 478 469 379 479
2011 612 522 611 621
2012 613 523 612 622
2013 613 612 603 702
2014 480 481 391 490
2015 571 481 570 580
2016 392 391 382 481
2017 391 480 381 481
2018 480 471 381 481
2019 391 381 382 481
2020 381 471 382 481
2021 393 392 383 482
2022 392 481 382 482
2023 481 472 382 482
2024 392 382 383 482
2025 382 472 383 482
2026 394 393 384 483
2027 393 482 383 483
2028 482 473 383 483
2029 393 383 384 483
2030 383 473 384 483
2031 395 394 385 484
2032 394 483 384 484
2033 483 474 384 484
2034 394 384 385 484
2035 384 474 385 484
2036 484 475 385 485
2037 395 385 386 485
2038 385 475 386 485
2039 485 476 386 486
2040 396 386 387 486
2041 386 476 387 486
2042 397 486 387 487
2043 486 477 387 487
2044 397 387 388 487
2045 387 477 388 487
2046 398 487 388 488
2047 487 478 388 488
2048 398 388 389 488
2049 388 478 389 488
2050 647 557 646 656
2051 399 488 389 489
2052 488 479 389 489
2053 496 495 486 585
2054 521 610 511 611
2055 490 480 481 580
2056 638 639 549 648
2057 578 488 577 587
2058 472 471 462 561
2059 541 540 531 630
2060 481 392 391 491
2061 391 490 481 491
2062 481 482 392 491
2063 540 530 531 630
2064 452 451 442 541
2065 482 393 392 492
2066 392 491 482 492
2067 482 483 393 492
2068 550 640 551 650
2069 614 524 613 623
2070 483 394 393 493
2071 393 492 483 493
2072 483 484 394 493
2073 531 441 530 540
2074 484 395 394 494
2075 394 493 484 494
2076 484 485 395 494
2077 544 454 543 553
2078 485 396 395 495
2079 395 494 485 495
2080 485 486 396 495
2081 545 455 544 554
2082 486 397 396 496
2083 396 495 486 496
2084 486 487 397 496
2085 546 456 545 555
2086 487 398 397 497
2087 397 496 487 497
2088 487 488 398 497
2089 680 591 590 690
2090 547 457 546 556
2091 488 399 398 498
2092 398 497 488 498
2093 498 489 399 499
2094 527 528 438 537
2095 517 427 516 526
2096 434 433 424 523
2097 548 549 459 558
2098 435 434 425 524
2099 461 460 451 550
2100 521 512 422 522
2101 705 615 704 714
2102 509 518 508 608
2103 524 515 425 525
2104 505 406 416 506
2105 502 412 501 511
2106 538 448 537 547
2107 530 521 431 531
2108 510 501 411 511
2109 534 525 435 535
2110 874 784 873 883
2111 558 468 557 567
2112 574 484 573 583
2113 546 545 536 635
2114 462 461 452 551
2115 780 770 771 870
2116 464 463 454 553
2117 428 427 418 517
2118 511 502 412 512
2119 532 531 522 621
2120 431 430 421 520
2121 410 500 411 510
2122 708 609 619 709
2123 470 460 461 560
2124 429 428 419 518
2125 539 538 529 628
2126 512 503 413 513
2127 449 448 439 538
2128 501 411 500 510
2129 423 422 413 512
2130 456 545 446 546
2131 420 410 411 510
2132 430 420 421 520
2133 438 527 428 528
2134 528 529 439 538
2135 513 504 414 514
2136 451 441 442 541
2137 424 423 414 513
2138 521 520 511 610
2139 536 535 526 625
2140 509 419 508 518
2141 520 610 521 620
2142 613 603 604 703
2143 489 488 479 578
2144 425 424 415 514
2145 604 505 515 605
2146 457 546 447 547
2147 447 446 437 536
2148 672 582 671 681
2149 514 505 415 515
2150 526 517 427 527
2151 479 478 469 568
2152 426 425 416 515
2153 478 477 468 567
2154 439 438 429 528
2155 606 507 517 607
2156 515 506 416 516
2157 710 700 701 800
2158 427 426 417 516
2159 600 501 511 601
2160 518 519 429 528
2161 437 526 427 527
2162 477 476 467 566
2163 517 508 418 518
2164 610 600 601 700
2165 522 611 512 612
2166 427 516 417 517
2167 615 525 614 624
2168 516 507 417 517
2169 620 710 621 720
2170 519 518 509 608
2171 516 515 506 605
2172 473 472 463 562
2173 463 462 453 552
2174 548 458 547 557
2175 421 411 412 511
2176 411 501 412 511
2177 431 520 421 521
2178 445 444 435 534
2179 444 443 434 533
2180 422 412 413 512
2181 412 502 413 512
2182 432 521 422 522
2183 516 506 507 606
2184 451 540 441 541
2185 423 413 414 513
2186 413 503 414 513
2187 433 522 423 523
2188 824 734 823 833
2189 532 442 531 541
2190 424 414 415 514
2191 414 504 415 514
2192 434 523 424 524
2193 558 559 469 568
2194 533 443 532 542
2195 480 470 471 570
2196 425 415 416 515
2197 415 505 416 515
2198 435 524 425 525
2199 531 522 432 532
2200 534 444 533 543
2201 430 520 431 530
2202 426 416 417 516
2203 416 506 417 516
2204 436 525 426 526
2205 532 523 433 533
2206 535 445 534 544
2207 536 446 535 545
2208 550 540 541 640
2209 527 437 526 536
2210 533 524 434 534
2211 427 417 418 517
2212 417 507 418 517
2213 535 526 436 536
2214 513 512 503 602
2215 526 615 516 616
2216 419 428 418 518
2217 418 508 419 518
2218 537 447 536 546
2219 465 464 455 554
2220 536 527 437 537
2221 429 518 419 519
2222 518 509 419 519
2223 620 611 521 621
2224 460 550 461 560
2225 518 607 508 608
2226 711 621 710 720
2227 431 421 422 521
2228 421 511 422 521
2229 575 485 574 584
2230 543 542 533 632
2231 432 422 423 522
2232 422 512 423 522
2233 442 531 432 532
2234 552 543 453 553
2235 608 509 519 609
2236 433 423 424 523
2237 423 513 424 523
2238 443 532 433 533
2239 553 544 454 554
2240 434 424 425 524
2241 424 514 425 524
2242 444 533 434 534
2243 551 550 541 640
2244 554 545 455 555
2245 541 451 540 550
2246 435 425 426 525
2247 425 515 426 525
2248 445 534 435 535
2249 452 541 442 542
2250 555 546 456 556
2251 440 530 441 540
2252 436 426 427 526
2253 426 516 427 526
2254 446 535 436 536
2255 453 542 443 543
2256 469 468 459 558
2257 562 472 561 571
2258 587 588 498 597
2259 447 536 437 537
2260 454 543 444 544
2261 437 427 428 527
2262 427 517 428 527
2263 527 518 428 528
2264 560 550 551 650
2265 703 604 614 704
2266 467 466 457 556
2267 429 438 428 528
2268 428 518 429 528
2269 607 608 518 617
2270 537 536 527 626
2271 439 528 429 529
2272 528 519 429 529
2273 702 603 613 703
2274 486 575 476 576
2275 523 612 513 613
2276 441 431 432 531
2277 431 521 432 531
2278 487 486 477 576
2279 557 467 556 566
2280 442 432 433 532
2281 432 522 433 532
2282 540 531 441 541
2283 552 462 551 561
2284 496 585 486 586
2285 566 476 565 575
2286 443 433 434 533
2287 433 523 434 533
2288 541 532 442 542
2289 452 442 443 542
2290 476 565 466 566
2291 453 452 443 542
2292 444 434 435 534
2293 434 524 435 534
2294 542 533 443 543
2295 453 443 444 543
2296 467 556 457 557
2297 454 453 444 543
2298 445 435 436 535
2299 435 525 436 535
2300 543 534 444 544
2301 454 444 445 544
2302 459 458 449 548
2303 455 454 445 544
2304 446 436 437 536
2305 436 526 437 536
2306 544 535 445 545
2307 455 445 446 545
2308 458 457 448 547
2309 456 455 446 545
2310 468 467 458 557
2311 457 456 447 546
2312 545 536 446 546
2313 456 446 447 546
2314 447 437 438 537
2315 437 527 438 537
2316 537 528 438 538
2317 538 537 528 627
2318 547 538 448 548
2319 439 448 438 538
2320 438 528 439 538
2321 546 537 447 547
2322 477 566 467 567
2323 449 538 439 539
2324 538 529 439 539
2325 580 491 490 590
2326 760 850 761 860
2327 441 531 442 541
2328 542 452 541 551
2329 714 624 713 723
2330 551 542 452 552
2331 442 532 443 542
2332 461 550 451 551
2333 474 473 464 563
2334 550 541 451 551
2335 443 533 444 543
2336 462 551 452 552
2337 475 474 465 564
2338 565 475 564 574
2339 444 534 445 544
2340 463 552 453 553
2341 476 475 466 565
2342 700 601 611 701
2343 445 535 446 545
2344 464 553 454 554
2345 623 533 622 632
2346 577 487 576 586
2347 658 747 648 748
2348 446 536 447 546
2349 465 554 455 555
2350 625 616 526 626
2351 498 497 488 587
2352 622 532 621 631
2353 646 556 645 655
2354 466 555 456 556
2355 457 447 448 547
2356 447 537 448 547
2357 586 587 497 596
2358 487 576 477 577
2359 458 448 449 548
2360 448 538 449 548
2361 556 547 457 557
2362 624 534 623 633
2363 648 737 638 738
2364 459 548 449 549
2365 548 539 449 549
2366 564 474 563 573
2367 573 483 572 582
2368 606 516 605 615
2369 612 611 602 701
2370 471 470 461 560
2371 461 451 452 551
2372 451 541 452 551
2373 471 560 461 561
2374 470 560 471 570
2375 560 551 461 561
2376 462 452 453 552
2377 452 542 453 552
2378 481 480 471 570
2379 551 461 550 560
2380 561 552 462 562
2381 463 453 454 553
2382 453 543 454 553
2383 581 582 492 591
2384 561 471 560 570
2385 562 553 463 563
2386 464 454 455 554
2387 454 544 455 554
2388 651 650 641 740
2389 580 581 491 590
2390 563 554 464 564
2391 465 455 456 555
2392 455 545 456 555
2393 576 486 575 585
2394 611 601 602 701
2395 564 555 465 565
2396 466 456 457 556
2397 456 546 457 556
2398 488 487 478 577
2399 612 602 603 702
2400 467 457 458 557
2401 457 547 458 557
2402 565 556 466 566
2403 468 557 458 558
2404 557 548 458 558
2405 566 557 467 567
2406 660 750 661 760
2407 468 458 459 558
2408 458 548 459 558
2409 714 704 705 804
2410 469 558 459 559
2411 558 549 459 559
2412 495 584 485 585
2413 491 490 481 580
2414 533 532 523 622
2415 626 536 625 635
2416 622 621 612 711
2417 721 712 622 722
2418 517 516 507 606
2419 527 616 517 617
2420 625 535 624 634
2421 553 463 552 562
2422 480 570 481 580
2423 472 561 462 562
2424 471 461 462 561
2425 461 551 462 561
2426 554 464 553 563
2427 584 585 495 594
2428 473 562 463 563
2429 472 462 463 562
2430 462 552 463 562
2431 555 465 554 564
2432 631 541 630 640
2433 474 563 464 564
2434 473 463 464 563
2435 463 553 464 563
2436 556 466 555 565
2437 552 551 542 641
2438 475 564 465 565
2439 474 464 465 564
2440 464 554 465 564
2441 617 618 528 627
2442 497 496 487 586
2443 567 477 566 576
2444 475 465 466 565
2445 465 555 466 565
2446 499 498 489 588
2447 476 466 467 566
2448 466 556 467 566
2449 568 569 479 578
2450 477 467 468 567
2451 467 557 468 567
2452 568 478 567 577
2453 478 567 468 568
2454 567 558 468 568
2455 478 468 469 568
2456 468 558 469 568
2457 578 579 489 588
2458 479 568 469 569
2459 568 559 469 569
2460 572 571 562 661
2461 548 547 538 637
2462 522 521 512 611
2463 566 565 556 655
2464 611 610 601 700
2465 772 682 771 781
2466 807 808 718 817
2467 617 607 608 707
2468 482 481 472 571
2469 481 570 471 571
2470 570 561 471 571
2471 481 471 472 571
2472 471 561 472 571
2473 483 482 473 572
2474 482 571 472 572
2475 571 562 472 572
2476 482 472 473 572
2477 472 562 473 572
2478 484 483 474 573
2479 483 572 473 573
2480 572 563 473 573
2481 483 473 474 573
2482 473 563 474 573
2483 485 484 475 574
2484 484 573 474 574
2485 573 564 474 574
2486 484 474 475 574
2487 474 564 475 574
2488 486 485 476 575
2489 485 574 475 575
2490 574 565 475 575
2491 485 475 476 575
2492 475 565 476 575
2493 575 566 476 576
2494 486 476 477 576
2495 476 566 477 576
2496 576 567 477 577
2497 487 477 478 577
2498 477 567 478 577
2499 488 577 478 578
2500 577 568 478 578
2501 488 478 479 578
2502 478 568 479 578
2503 724 715 625 725
2504 489 578 479 579
2505 578 569 479 579
2506 614 613 604 703
2507 644 643 634 733
2508 590 580 581 680
2509 615 605 606 705
2510 716 626 715 725
2511 635 634 625 724
2512 492 491 482 581
2513 491 580 481 581
2514 580 571 481 581
2515 491 481 482 581
2516 481 571 482 581
2517 493 492 483 582
2518 492 581 482 582
2519 581 572 482 582
2520 492 482 483 582
2521 482 572 483 582
2522 494 493 484 583
2523 493 582 483 583
2524 582 573 483 583
2525 493 483 484 583
2526 483 573 484 583
2527 495 494 485 584
2528 494 583 484 584
2529 583 574 484 584
2530 494 484 485 584
2531 484 574 485 584
2532 584 575 485 585
2533 495 485 486 585
2534 485 575 486 585
2535 585 576 486 586
2536 496 486 487 586
2537 486 576 487 586
2538 497 586 487 587
2539 586 577 487 587
2540 497 487 488 587
2541 487 577 488 587
2542 498 587 488 588
2543 587 578 488 588
2544 498 488 489 588
2545 488 578 489 588
2546 813 812 803 902
2547 499 588 489 589
2548 588 579 489 589
2549 747 657 746 756
2550 632 631 622 721
2551 644 554 643 653
2552 812 803 713 813
2553 806 716 805 815
2554 645 555 644 654
2555 730 721 631 731
2556 582 583 493 592
2557 581 492 491 591
2558 491 590 581 591
2559 583 584 494 593
2560 582 493 492 592
2561 492 591 582 592
2562 589 499 588 598
2563 583 494 493 593
2564 493 592 583 593
2565 584 495 494 594
2566 494 593 584 594
2567 585 496 495 595
2568 495 594 585 595
2569 586 497 496 596
2570 496 595 586 596
2571 587 498 497 597
2572 497 596 587 597
2573 588 499 498 598
2574 498 597 588 598
2575 627 628 538 637
2576 598 589 499 599
2577 617 527 616 626
2578 529 528 519 618
2579 534 533 524 623
2580 648 649 559 658
2581 535 534 525 624
2582 561 560 551 650
2583 621 612 522 622
2584 705 606 616 706
2585 609 519 608 618
2586 624 615 525 625
2587 605 506 516 606
2588 602 512 601 611
2589 638 548 637 647
2590 630 621 531 631
2591 610 601 511 611
2592 634 625 535 635
2593 658 568 657 667
2594 674 584 673 683
2595 562 561 552 651
2596 643 642 633 732
2597 564 563 554 653
2598 528 527 518 617
2599 611 602 512 612
2600 686 687 597 696
2601 531 530 521 620
2602 510 600 511 610
2603 719 718 709 808
2604 570 560 561 660
2605 743 653 742 752
2606 639 638 629 728
2607 612 603 513 613
2608 635 626 536 636
2609 601 511 600 610
2610 523 522 513 612
2611 556 645 546 646
2612 520 510 511 610
2613 530 520 521 620
2614 538 627 528 628
2615 628 629 539 638
2616 613 604 514 614
2617 706 607 617 707
2618 551 541 542 641
2619 524 523 514 613
2620 636 635 626 725
2621 645 644 635 734
2622 750 740 741 840
2623 718 807 708 808
2624 547 546 537 636
2625 589 588 579 678
2626 525 524 515 614
2627 746 656 745 755
2628 537 626 527 627
2629 801 702 712 802
2630 614 605 515 615
2631 626 617 527 627
2632 579 578 569 668
2633 526 525 516 615
2634 578 577 568 667
2635 616 615 606 705
2636 549 548 539 638
2637 557 646 547 647
2638 810 800 801 900
2639 527 526 517 616
2640 703 613 702 712
2641 615 606 516 616
2642 618 619 529 628
2643 634 633 624 723
2644 577 576 567 666
2645 528 617 518 618
2646 715 714 705 804
2647 622 711 612 712
2648 715 625 714 724
2649 616 607 517 617
2650 722 713 623 723
2651 619 618 609 708
2652 618 617 608 707
2653 573 572 563 662
2654 563 562 553 652
2655 648 558 647 657
2656 521 511 512 611
2657 511 601 512 611
2658 531 620 521 621
2659 545 544 535 634
2660 544 543 534 633
2661 522 512 513 612
2662 512 602 513 612
2663 532 621 522 622
2664 609 618 608 708
2665 551 640 541 641
2666 523 513 514 613
2667 513 603 514 613
2668 533 622 523 623
2669 802 703 713 803
2670 632 542 631 641
2671 821 731 820 830
2672 524 514 515 614
2673 514 604 515 614
2674 534 623 524 624
2675 658 659 569 668
2676 633 543 632 642
2677 580 570 571 670
2678 525 515 516 615
2679 515 605 516 615
2680 535 624 525 625
2681 631 622 532 632
2682 634 544 633 643
2683 530 620 531 630
2684 526 516 517 616
2685 516 606 517 616
2686 536 625 526 626
2687 632 623 533 633
2688 635 545 634 644
2689 758 668 757 767
2690 636 546 635 645
2691 642 641 632 731
2692 627 537 626 636
2693 633 624 534 634
2694 527 517 518 617
2695 517 607 518 617
2696 617 608 518 618
2697 713 712 703 802
2698 618 707 608 708
2699 626 715 616 716
2700 519 528 518 618
2701 518 608 519 618
2702 637 547 636 646
2703 565 564 555 654
2704 636 627 537 637
2705 529 618 519 619
2706 618 609 519 619
2707 720 711 621 721
2708 560 650 561 660
2709 843 753 842 852
2710 707 617 706 716
2711 531 521 522 621
2712 521 611 522 621
2713 675 585 674 684
2714 621 710 611 711
2715 532 522 523 622
2716 522 612 523 622
2717 542 631 532 632
2718 652 643 553 653
2719 615 614 605 704
2720 533 523 524 623
2721 523 613 524 623
2722 543 632 533 633
2723 660 650 651 750
2724 653 644 554 654
2725 534 524 525 624
2726 524 614 525 624
2727 544 633 534 634
2728 671 581 670 680
2729 654 645 555 655
2730 641 551 640 650
2731 535 525 526 625
2732 525 615 526 625
2733 545 634 535 635
2734 552 641 542 642
2735 655 646 556 656
2736 540 630 541 640
2737 536 526 527 626
2738 526 616 527 626
2739 546 635 536 636
2740 553 642 543 643
2741 569 568 559 658
2742 662 572 661 671
2743 687 688 598 697
2744 860 850 851 950
2745 547 636 537 637
2746 554 643 544 644
2747 537 527 528 627
2748 527 617 528 627
2749 627 618 528 628
2750 624 713 614 714
2751 803 704 714 804
2752 567 566 557 656
2753 529 538 528 628
2754 528 618 529 628
2755 707 708 618 717
2756 637 636 627 726
2757 539 628 529 629
2758 628 619 529 629
2759 586 675 576 676
2760 912 903 813 913
2761 541 531 532 631
2762 531 621 532 631
2763 587 586 577 676
2764 657 567 656 666
2765 542 532 533 632
2766 532 622 533 632
2767 640 631 541 641
2768 652 562 651 661
2769 596 685 586 686
2770 666 576 665 675
2771 543 533 534 633
2772 533 623 534 633
2773 641 632 542 642
2774 552 542 543 642
2775 576 665 566 666
2776 553 552 543 642
2777 544 534 535 634
2778 534 624 535 634
2779 642 633 543 643
2780 553 543 544 643
2781 567 656 557 657
2782 554 553 544 643
2783 545 535 536 635
2784 535 625 536 635
2785 643 634 544 644
2786 554 544 545 644
2787 559 558 549 648
2788 555 554 545 644
2789 546 536 537 636
2790 536 626 537 636
2791 644 635 545 645
2792 555 545 546 645
2793 558 557 548 647
2794 556 555 546 645
2795 568 567 558 657
2796 557 556 547 646
2797 645 636 546 646
2798 556 546 547 646
2799 547 537 538 637
2800 537 627 538 637
2801 637 628 538 638
2802 638 637 628 727
2803 647 638 548 648
2804 875 785 874 884
2805 539 548 538 638
2806 538 628 539 638
2807 646 637 547 647
2808 577 666 567 667
2809 549 638 539 639
2810 638 629 539 639
2811 596 595 586 685
2812 860 950 861 960
2813 541 631 542 641
2814 642 552 641 651
2815 713 703 704 803
2816 651 642 552 652
2817 542 632 543 642
2818 561 650 551 651
2819 574 573 564 663
2820 650 641 551 651
2821 543 633 544 643
2822 562 651 552 652
2823 774 684 773 783
2824 575 574 565 664
2825 665 575 664 674
2826 544 634 545 644
2827 563 652 553 653
2828 748 749 659 758
2829 576 575 566 665
2830 800 701 711 801
2831 545 635 546 645
2832 564 653 554 654
2833 723 633 722 732
2834 677 587 676 686
2835 709 619 708 718
2836 546 636 547 646
2837 565 654 555 655
2838 725 716 626 726
2839 597 686 587 687
2840 943 853 942 952
2841 566 655 556 656
2842 763 673 762 772
2843 557 547 548 647
2844 547 637 548 647
2845 717 718 628 727
2846 587 676 577 677
2847 558 548 549 648
2848 548 638 549 648
2849 656 647 557 657
2850 724 634 723 733
2851 735 824 725 825
2852 559 648 549 649
2853 648 639 549 649
2854 664 574 663 673
2855 673 583 672 682
2856 701 602 612 702
2857 712 711 702 801
2858 712 622 711 721
2859 571 570 561 660
2860 561 551 552 651
2861 551 641 552 651
2862 571 660 561 661
2863 570 660 571 670
2864 660 651 561 661
2865 562 552 553 652
2866 552 642 553 652
2867 581 580 571 670
2868 651 561 650 660
2869 661 652 562 662
2870 563 553 554 653
2871 553 643 554 653
2872 681 682 592 691
2873 661 571 660 670
2874 662 653 563 663
2875 564 554 555 654
2876 554 644 555 654
2877 680 681 591 690
2878 663 654 564 664
2879 565 555 556 655
2880 555 645 556 655
2881 676 586 675 685
2882 711 701 702 801
2883 664 655 565 665
2884 566 556 557 656
2885 556 646 557 656
2886 588 587 578 677
2887 804 714 803 813
2888 567 557 558 657
2889 557 647 558 657
2890 665 656 566 666
2891 778 777 768 867
2892 568 657 558 658
2893 657 648 558 658
2894 666 657 567 667
2895 598 597 588 687
2896 568 558 559 658
2897 558 648 559 658
2898 806 707 717 807
2899 569 658 559 659
2900 658 649 559 659
2901 595 684 585 685
2902 591 590 581 680
2903 804 705 715 805
2904 726 636 725 735
2905 736 735 726 825
2906 725 635 724 734
2907 653 563 652 662
2908 580 670 581 680
2909 572 661 562 662
2910 571 561 562 661
2911 561 651 562 661
2912 654 564 653 663
2913 684 685 595 694
2914 573 662 563 663
2915 572 562 563 662
2916 562 652 563 662
2917 655 565 654 664
2918 731 641 730 740
2919 574 663 564 664
2920 573 563 564 663
2921 563 653 564 663
2922 656 566 655 665
2923 745 834 735 835
2924 575 664 565 665
2925 574 564 565 664
2926 564 654 565 664
2927 678 588 677 687
2928 597 596 587 686
2929 667 577 666 676
2930 575 565 566 665
2931 565 655 566 665
2932 599 598 589 688
2933 576 566 567 666
2934 566 656 567 666
2935 668 669 579 678
2936 577 567 568 667
2937 567 657 568 667
2938 668 578 667 677
2939 578 667 568 668
2940 667 658 568 668
2941 578 568 569 668
2942 568 658 569 668
2943 678 679 589 688
2944 579 668 569 669
2945 668 659 569 669
2946 648 647 638 737
2947 812 722 811 821
2948 666 665 656 755
2949 738 739 649 748
2950 711 710 701 800
2951 834 923 824 924
2952 717 707 708 807
2953 582 581 572 671
2954 581 670 571 671
2955 670 661 571 671
2956 581 571 572 671
2957 571 661 572 671
2958 583 582 573 672
2959 582 671 572 672
2960 671 662 572 672
2961 582 572 573 672
2962 572 662 573 672
2963 584 583 574 673
2964 583 672 573 673
2965 672 663 573 673
2966 583 573 574 673
2967 573 663 574 673
2968 585 584 575 674
2969 584 673 574 674
2970 673 664 574 674
2971 584 574 575 674
2972 574 664 575 674
2973 586 585 576 675
2974 585 674 575 675
2975 674 665 575 675
2976 585 575 576 675
2977 575 665 576 675
2978 675 666 576 676
2979 586 576 577 676
2980 576 666 577 676
2981 676 667 577 677
2982 587 577 578 677
2983 577 667 578 677
2984 588 677 578 678
2985 677 668 578 678
2986 588 578 579 678
2987 578 668 579 678
2988 589 678 579 679
2989 678 669 579 679
2990 652 651 642 741
2991 751 840 741 841
2992 813 723 812 822
2993 715 705 706 805
2994 685 686 596 695
2995 716 706 707 806
2996 690 680 681 780
2997 592 591 582 681
2998 591 680 581 681
2999 680 671 581 681
3000 591 581 582 681
3001 581 671 582 681
3002 593 592 583 682
3003 592 681 582 682
3004 681 672 582 682
3005 592 582 583 682
3006 582 672 583 682
3007 594 593 584 683
3008 593 682 583 683
3009 682 673 583 683
3010 593 583 584 683
3011 583 673 584 683
3012 595 594 585 684
3013 594 683 584 684
3014 683 674 584 684
3015 594 584 585 684
3016 584 674 585 684
3017 684 675 585 685
3018 595 585 586 685
3019 585 675 586 685
3020 685 676 586 686
3021 596 586 587 686
3022 586 676 587 686
3023 686 677 587 687
3024 597 587 588 687
3025 587 677 588 687
3026 598 687 588 688
3027 687 678 588 688
3028 598 588 589 688
3029 588 678 589 688
3030 751 750 741 840
3031 599 688 589 689
3032 688 679 589 689
3033 847 757 846 856
3034 831 741 830 840
3035 744 654 743 753
3036 735 734 725 824
3037 815 814 805 904
3038 745 655 744 754
3039 682 683 593 692
3040 681 592 591 691
3041 591 690 681 691
3042 683 684 594 693
3043 682 593 592 692
3044 592 691 682 692
3045 689 599 688 698
3046 683 594 593 693
3047 593 692 683 693
3048 684 595 594 694
3049 594 693 684 694
3050 685 596 595 695
3051 595 694 685 695
3052 686 597 596 696
3053 596 695 686 696
3054 687 598 597 697
3055 597 696 687 697
3056 688 599 598 698
3057 598 697 688 698
3058 727 728 638 737
3059 845 844 835 934
3060 698 689 599 699
3061 721 631 720 730
3062 823 733 822 832
3063 620 610 611 710
3064 661 660 651 750
3065 713 623 712 722
3066 629 628 619 718
3067 826 817 727 827
3068 623 712 613 713
3069 625 714 615 715
3070 617 616 607 706
3071 780 691 690 790
3072 702 612 701 711
3073 738 648 737 747
3074 828 829 739 838
3075 710 701 611 711
3076 662 661 652 751
3077 633 632 623 722
3078 672 671 662 761
3079 732 731 722 821
3080 764 763 754 853
3081 731 730 721 820
3082 664 663 654 753
3083 722 632 721 731
3084 855 846 756 856
3085 734 725 635 735
3086 628 627 618 717
3087 610 700 611 710
3088 646 645 636 735
3089 630 720 631 730
3090 711 702 612 712
3091 650 640 641 740
3092 815 806 716 816
3093 808 709 719 809
3094 712 703 613 713
3095 735 726 636 736
3096 701 611 700 710
3097 623 622 613 712
3098 656 745 646 746
3099 621 620 611 710
3100 631 630 621 720
3101 638 727 628 728
3102 728 729 639 738
3103 713 704 614 714
3104 971 881 970 980
3105 802 712 801 811
3106 624 623 614 713
3107 716 715 706 805
3108 721 720 711 810
3109 745 744 735 834
3110 647 646 637 736
3111 689 688 679 778
3112 625 624 615 714
3113 813 803 804 903
3114 830 821 731 831
3115 805 706 716 806
3116 637 726 627 727
3117 714 705 615 715
3118 678 677 668 767
3119 679 678 669 768
3120 626 625 616 715
3121 846 756 845 855
3122 763 762 753 852
3123 649 648 639 738
3124 722 721 712 811
3125 734 823 724 824
3126 803 713 802 812
3127 627 626 617 716
3128 822 732 821 831
3129 715 706 616 716
3130 718 719 629 728
3131 726 717 627 727
3132 677 676 667 766
3133 628 717 618 718
3134 810 801 711 811
3135 627 716 617 717
3136 898 897 888 987
3137 716 707 617 717
3138 733 822 723 823
3139 718 717 708 807
3140 673 672 663 762
3141 663 662 653 752
3142 748 658 747 757
3143 621 611 612 711
3144 611 701 612 711
3145 631 720 621 721
3146 630 620 621 720
3147 650 740 651 750
3148 622 612 613 712
3149 612 702 613 712
3150 632 721 622 722
3151 651 740 641 741
3152 623 613 614 713
3153 613 703 614 713
3154 633 722 623 723
3155 807 717 806 816
3156 732 642 731 741
3157 730 820 731 830
3158 624 614 615 714
3159 614 704 615 714
3160 634 723 624 724
3161 733 643 732 742
3162 680 670 671 770
3163 625 615 616 715
3164 615 705 616 715
3165 635 724 625 725
3166 731 722 632 732
3167 734 644 733 743
3168 641 640 631 730
3169 626 616 617 716
3170 616 706 617 716
3171 636 725 626 726
3172 732 723 633 733
3173 735 645 734 744
3174 736 646 735 745
3175 742 741 732 831
3176 727 637 726 736
3177 733 724 634 734
3178 627 617 618 717
3179 617 707 618 717
3180 717 708 618 718
3181 811 802 712 812
3182 709 718 708 808
3183 814 805 715 815
3184 619 628 618 718
3185 618 708 619 718
3186 737 647 736 746
3187 665 664 655 754
3188 736 727 637 737
3189 629 718 619 719
3190 718 709 619 719
3191 846 845 836 935
3192 670 660 661 760
3193 631 621 622 721
3194 621 711 622 721
3195 641 730 631 731
3196 640 630 631 730
3197 775 685 774 784
3198 632 622 623 722
3199 622 712 623 722
3200 642 731 632 732
3201 786 787 697 796
3202 752 743 653 753
3203 651 641 642 741
3204 633 623 624 723
3205 623 713 624 723
3206 643 732 633 733
3207 753 744 654 754
3208 634 624 625 724
3209 624 714 625 724
3210 644 733 634 734
3211 771 681 770 780
3212 754 745 655 755
3213 741 651 740 750
3214 635 625 626 725
3215 625 715 626 725
3216 645 734 635 735
3217 652 741 642 742
3218 755 746 656 756
3219 640 730 641 740
3220 636 626 627 726
3221 626 716 627 726
3222 646 735 636 736
3223 653 742 643 743
3224 669 668 659 758
3225 762 672 761 771
3226 787 788 698 797
3227 730 720 721 820
3228 647 736 637 737
3229 654 743 644 744
3230 637 627 628 727
3231 627 717 628 727
3232 727 718 628 728
3233 854 845 755 855
3234 814 804 805 904
3235 667 666 657 756
3236 629 638 628 728
3237 628 718 629 728
3238 717 716 707 806
3239 657 746 647 747
3240 639 728 629 729
3241 728 719 629 729
3242 758 759 669 768
3243 686 775 676 776
3244 732 821 722 822
3245 641 631 632 731
3246 631 721 632 731
3247 687 686 677 776
3248 757 667 756 766
3249 642 632 633 732
3250 632 722 633 732
3251 740 731 641 741
3252 752 662 751 761
3253 696 785 686 786
3254 766 676 765 775
3255 643 633 634 733
3256 633 723 634 733
3257 741 732 642 742
3258 652 642 643 742
3259 676 765 666 766
3260 653 652 643 742
3261 644 634 635 734
3262 634 724 635 734
3263 742 733 643 743
3264 653 643 644 743
3265 667 756 657 757
3266 654 653 644 743
3267 645 635 636 735
3268 635 725 636 735
3269 743 734 644 744
3270 654 644 645 744
3271 659 658 649 748
3272 655 654 645 744
3273 646 636 637 736
3274 636 726 637 736
3275 744 735 645 745
3276 655 645 646 745
3277 658 657 648 747
3278 656 655 646 745
3279 668 667 658 757
3280 657 656 647 746
3281 745 736 646 746
3282 656 646 647 746
3283 647 637 638 737
3284 637 727 638 737
3285 737 728 638 738
3286 817 807 808 907
3287 747 738 648 748
3288 639 648 638 738
3289 638 728 639 738
3290 746 737 647 747
3291 677 766 667 767
3292 649 738 639 739
3293 738 729 639 739
3294 696 695 686 785
3295 641 731 642 741
3296 742 652 741 751
3297 751 742 652 752
3298 642 732 643 742
3299 661 750 651 751
3300 765 764 755 854
3301 674 673 664 763
3302 750 741 651 751
3303 643 733 644 743
3304 662 751 652 752
3305 816 726 815 825
3306 675 674 665 764
3307 765 675 764 774
3308 644 734 645 744
3309 663 752 653 753
3310 676 675 666 765
3311 818 819 729 828
3312 645 735 646 745
3313 664 753 654 754
3314 777 687 776 786
3315 773 772 763 862
3316 646 736 647 746
3317 665 754 655 755
3318 729 728 719 818
3319 697 786 687 787
3320 836 835 826 925
3321 666 755 656 756
3322 762 761 752 851
3323 657 647 648 747
3324 647 737 648 747
3325 817 818 728 827
3326 687 776 677 777
3327 658 648 649 748
3328 648 738 649 748
3329 756 747 657 757
3330 902 812 901 911
3331 816 806 807 906
3332 659 748 649 749
3333 748 739 649 749
3334 764 674 763 773
3335 773 683 772 782
3336 712 702 703 802
3337 814 724 813 823
3338 671 670 661 760
3339 661 651 652 751
3340 651 741 652 751
3341 671 760 661 761
3342 670 760 671 770
3343 760 751 661 761
3344 662 652 653 752
3345 652 742 653 752
3346 681 680 671 770
3347 751 661 750 760
3348 761 752 662 762
3349 663 653 654 753
3350 653 743 654 753
3351 781 782 692 791
3352 761 671 760 770
3353 762 753 663 763
3354 664 654 655 754
3355 654 744 655 754
3356 780 781 691 790
3357 763 754 664 764
3358 665 655 656 755
3359 655 745 656 755
3360 776 686 775 785
3361 915 906 816 916
3362 764 755 665 765
3363 666 656 657 756
3364 656 746 657 756
3365 688 687 678 777
3366 756 845 746 846
3367 667 657 658 757
3368 657 747 658 757
3369 765 756 666 766
3370 869 868 859 958
3371 668 757 658 758
3372 757 748 658 758
3373 766 757 667 767
3374 698 697 688 787
3375 668 658 659 758
3376 658 748 659 758
3377 818 817 808 907
3378 669 758 659 759
3379 758 749 659 759
3380 695 784 685 785
3381 691 690 681 780
3382 724 723 714 813
3383 958 868 957 967
3384 728 817 718 818
3385 880 870 871 970
3386 815 725 814 824
3387 753 663 752 762
3388 680 770 681 780
3389 672 761 662 762
3390 671 661 662 761
3391 661 751 662 761
3392 754 664 753 763
3393 784 785 695 794
3394 673 762 663 763
3395 672 662 663 762
3396 662 752 663 762
3397 755 665 754 764
3398 903 804 814 904
3399 674 763 664 764
3400 673 663 664 763
3401 663 753 664 763
3402 756 666 755 765
3403 833 743 832 842
3404 675 764 665 765
3405 674 664 665 764
3406 664 754 665 764
3407 778 688 777 787
3408 697 696 687 786
3409 767 677 766 776
3410 675 665 666 765
3411 665 755 666 765
3412 699 698 689 788
3413 676 666 667 766
3414 666 756 667 766
3415 768 769 679 778
3416 677 667 668 767
3417 667 757 668 767
3418 768 678 767 777
3419 678 767 668 768
3420 767 758 668 768
3421 678 668 669 768
3422 668 758 669 768
3423 778 779 689 788
3424 679 768 669 769
3425 768 759 669 769
3426 872 961 862 962
3427 725 724 715 814
3428 848 758 847 857
3429 913 823 912 922
3430 740 830 741 840
3431 682 681 672 771
3432 681 770 671 771
3433 770 761 671 771
3434 681 671 672 771
3435 671 761 672 771
3436 683 682 673 772
3437 682 771 672 772
3438 771 762 672 772
3439 682 672 673 772
3440 672 762 673 772
3441 684 683 674 773
3442 683 772 673 773
3443 772 763 673 773
3444 683 673 674 773
3445 673 763 674 773
3446 685 684 675 774
3447 684 773 674 774
3448 773 764 674 774
3449 684 674 675 774
3450 674 764 675 774
3451 686 685 676 775
3452 685 774 675 775
3453 774 765 675 775
3454 685 675 676 775
3455 675 765 676 775
3456 775 766 676 776
3457 686 676 677 776
3458 676 766 677 776
3459 776 767 677 777
3460 687 677 678 777
3461 677 767 678 777
3462 688 777 678 778
3463 777 768 678 778
3464 688 678 679 778
3465 678 768 679 778
3466 689 778 679 779
3467 778 769 679 779
3468 921 831 920 930
3469 752 751 742 841
3470 741 740 731 830
3471 750 840 751 850
3472 904 805 815 905
3473 785 786 696 795
3474 692 691 682 781
3475 691 780 681 781
3476 780 771 681 781
3477 691 681 682 781
3478 681 771 682 781
3479 693 692 683 782
3480 692 781 682 782
3481 781 772 682 782
3482 692 682 683 782
3483 682 772 683 782
3484 694 693 684 783
3485 693 782 683 783
3486 782 773 683 783
3487 693 683 684 783
3488 683 773 684 783
3489 695 694 685 784
3490 694 783 684 784
3491 783 774 684 784
3492 694 684 685 784
3493 684 774 685 784
3494 784 775 685 785
3495 695 685 686 785
3496 685 775 686 785
3497 785 776 686 786
3498 696 686 687 786
3499 686 776 687 786
3500 786 777 687 787
3501 697 687 688 787
3502 687 777 688 787
3503 698 787 688 788
3504 787 778 688 788
3505 698 688 689 788
3506 688 778 689 788
3507 699 788 689 789
3508 788 779 689 789
3509 932 842 931 941
3510 886 796 885 895
3511 903 813 902 912
3512 782 783 693 792
3513 781 692 691 791
3514 691 790 781 791
3515 783 784 694 793
3516 782 693 692 792
3517 692 791 782 792
3518 789 699 788 798
3519 783 694 693 793
3520 693 792 783 793
3521 784 695 694 794
3522 694 793 784 794
3523 785 696 695 795
3524 695 794 785 795
3525 786 697 696 796
3526 696 795 786 796
3527 787 698 697 797
3528 697 796 787 797
3529 788 699 698 798
3530 698 797 788 798
3531 827 828 738 837
3532 798 789 699 799
3533 737 826 727 827
3534 863 773 862 872
3535 805 715 804 814
3536 739 738 729 828
3537 905 815 904 914
3538 880 791 790 890
3539 736 825 726 826
3540 813 804 714 814
3541 835 745 834 844
3542 853 844 754 854
3543 838 839 749 848
3544 731 820 721 821
3545 772 771 762 861
3546 872 782 871 881
3547 720 810 721 820
3548 923 833 922 932
3549 864 863 854 953
3550 831 830 821 920
3551 721 810 711 811
3552 817 727 816 826
3553 811 721 810 820
3554 931 841 930 940
3555 766 765 756 855
3556 710 800 711 810
3557 780 870 781 880
3558 841 751 840 850
3559 743 742 733 832
3560 801 711 800 810
3561 858 768 857 867
3562 834 825 735 835
3563 722 811 712 812
3564 821 820 811 910
3565 779 778 769 868
3566 720 710 711 810
3567 912 822 911 921
3568 726 725 716 815
3569 905 806 816 906
3570 723 812 713 813
3571 841 930 831 931
3572 746 745 736 835
3573 811 810 801 900
3574 872 871 862 961
3575 832 831 822 921
3576 727 726 717 816
3577 738 827 728 828
3578 809 818 808 908
3579 724 813 714 814
3580 863 862 853 952
3581 789 788 779 878
3582 811 801 802 901
3583 808 809 719 818
3584 913 904 814 914
3585 838 748 837 847
3586 748 837 738 838
3587 836 746 835 845
3588 725 814 715 815
3589 922 832 921 931
3590 777 776 767 866
3591 904 814 903 913
3592 819 908 809 909
3593 835 826 736 836
3594 738 737 728 827
3595 906 807 817 907
3596 747 746 737 836
3597 822 821 812 911
3598 910 901 811 911
3599 886 975 876 976
3600 900 801 811 901
3601 726 815 716 816
3602 728 727 718 817
3603 727 816 717 817
3604 749 748 739 838
3605 816 807 717 817
3606 812 811 802 901
3607 833 922 823 923
3608 737 736 727 826
3609 723 722 713 812
3610 721 711 712 811
3611 711 801 712 811
3612 834 744 833 843
3613 799 798 789 888
3614 722 712 713 812
3615 712 802 713 812
3616 820 811 721 821
3617 734 733 724 823
3618 825 735 824 834
3619 850 840 841 940
3620 723 713 714 813
3621 713 803 714 813
3622 821 812 722 822
3623 848 849 759 858
3624 826 736 825 835
3625 770 760 761 860
3626 724 714 715 814
3627 714 804 715 814
3628 822 813 723 823
3629 896 985 886 986
3630 827 737 826 836
3631 901 802 812 902
3632 725 715 716 815
3633 715 805 716 815
3634 823 814 724 824
3635 742 831 732 832
3636 755 844 745 845
3637 844 754 843 853
3638 726 716 717 816
3639 716 806 717 816
3640 824 815 725 825
3641 743 832 733 833
3642 954 945 855 955
3643 845 755 844 854
3644 758 847 748 848
3645 786 875 776 876
3646 825 816 726 826
3647 744 833 734 834
3648 727 717 718 817
3649 717 807 718 817
3650 817 808 718 818
3651 911 902 812 912
3652 815 805 806 905
3653 817 816 807 906
3654 719 728 718 818
3655 718 808 719 818
3656 837 747 836 846
3657 902 803 813 903
3658 836 827 737 837
3659 729 818 719 819
3660 818 809 719 819
3661 797 796 787 886
3662 748 747 738 837
3663 733 732 723 822
3664 731 721 722 821
3665 721 811 722 821
3666 741 830 731 831
3667 740 730 731 830
3668 760 750 751 850
3669 732 722 723 822
3670 722 812 723 822
3671 832 742 831 841
3672 744 743 734 833
3673 852 843 753 853
3674 751 741 742 841
3675 733 723 724 823
3676 723 813 724 823
3677 831 822 732 832
3678 840 830 831 930
3679 818 907 808 908
3680 734 724 725 824
3681 724 814 725 824
3682 832 823 733 833
3683 871 781 870 880
3684 924 834 923 933
3685 761 760 751 850
3686 735 725 726 825
3687 725 815 726 825
3688 833 824 734 834
3689 752 841 742 842
3690 832 921 822 922
3691 819 818 809 908
3692 736 726 727 826
3693 726 816 727 826
3694 746 835 736 836
3695 753 842 743 843
3696 769 768 759 858
3697 862 772 861 871
3698 798 797 788 887
3699 830 820 821 920
3700 747 836 737 837
3701 754 843 744 844
3702 737 727 728 827
3703 727 817 728 827
3704 827 818 728 828
3705 914 905 815 915
3706 767 766 757 856
3707 729 738 728 828
3708 728 818 729 828
3709 839 838 829 928
3710 757 846 747 847
3711 739 828 729 829
3712 828 819 729 829
3713 858 859 769 868
3714 741 731 732 831
3715 731 821 732 831
3716 787 786 777 876
3717 857 767 856 866
3718 742 732 733 832
3719 732 822 733 832
3720 840 831 741 841
3721 852 762 851 861
3722 796 885 786 886
3723 866 776 865 875
3724 743 733 734 833
3725 733 823 734 833
3726 841 832 742 842
3727 752 742 743 842
3728 776 865 766 866
3729 753 752 743 842
3730 744 734 735 834
3731 734 824 735 834
3732 842 833 743 843
3733 753 743 744 843
3734 767 856 757 857
3735 754 753 744 843
3736 745 735 736 835
3737 735 825 736 835
3738 843 834 744 844
3739 754 744 745 844
3740 759 758 749 848
3741 755 754 745 844
3742 746 736 737 836
3743 736 826 737 836
3744 844 835 745 845
3745 755 745 746 845
3746 758 757 748 847
3747 756 755 746 845
3748 768 767 758 857
3749 757 756 747 846
3750 845 836 746 846
3751 756 746 747 846
3752 747 737 738 837
3753 737 827 738 837
3754 837 828 738 838
3755 847 838 748 848
3756 907 908 818 917
3757 739 748 738 838
3758 738 828 739 838
3759 846 837 747 847
3760 777 866 767 867
3761 749 838 739 839
3762 838 829 739 839
3763 796 795 786 885
3764 741 831 742 841
3765 842 752 841 851
3766 865 864 855 954
3767 851 842 752 852
3768 742 832 743 842
3769 761 850 751 851
3770 774 773 764 863
3771 850 841 751 851
3772 743 833 744 843
3773 762 851 752 852
3774 916 826 915 925
3775 775 774 765 864
3776 865 775 864 874
3777 744 834 745 844
3778 763 852 753 853
3779 776 775 766 865
3780 745 835 746 845
3781 764 853 754 854
3782 877 787 876 886
3783 960 951 861 961
3784 746 836 747 846
3785 765 854 755 855
3786 829 828 819 918
3787 797 886 787 887
3788 766 855 756 856
3789 862 861 852 951
3790 757 747 748 847
3791 747 837 748 847
3792 787 876 777 877
3793 758 748 749 848
3794 748 838 749 848
3795 856 847 757 857
3796 759 848 749 849
3797 848 839 749 849
3798 864 774 863 873
3799 873 783 872 882
3800 812 802 803 902
3801 938 848 937 947
3802 914 824 913 923
3803 771 770 761 860
3804 761 751 752 851
3805 751 841 752 851
3806 771 860 761 861
3807 770 860 771 870
3808 860 851 761 861
3809 762 752 753 852
3810 752 842 753 852
3811 781 780 771 870
3812 851 761 850 860
3813 861 852 762 862
3814 763 753 754 853
3815 753 843 754 853
3816 882 792 881 891
3817 861 771 860 870
3818 862 853 763 863
3819 764 754 755 854
3820 754 844 755 854
3821 881 791 880 890
3822 863 854 764 864
3823 765 755 756 855
3824 755 845 756 855
3825 876 786 875 885
3826 864 855 765 865
3827 766 756 757 856
3828 756 846 757 856
3829 788 787 778 877
3830 767 757 758 857
3831 757 847 758 857
3832 865 856 766 866
3833 880 970 881 980
3834 768 857 758 858
3835 857 848 758 858
3836 866 857 767 867
3837 885 795 884 894
3838 768 758 759 858
3839 758 848 759 858
3840 769 858 759 859
3841 858 849 759 859
3842 795 884 785 885
3843 824 823 814 913
3844 915 825 914 924
3845 856 945 846 946
3846 853 763 852 862
3847 791 790 781 880
3848 772 861 762 862
3849 771 761 762 861
3850 761 851 762 861
3851 854 764 853 863
3852 773 862 763 863
3853 772 762 763 862
3854 762 852 763 862
3855 855 765 854 864
3856 774 863 764 864
3857 773 763 764 863
3858 763 853 764 863
3859 856 766 855 865
3860 840 930 841 940
3861 775 864 765 865
3862 774 764 765 864
3863 764 854 765 864
3864 878 788 877 887
3865 887 797 886 896
3866 867 777 866 876
3867 775 765 766 865
3868 765 855 766 865
3869 798 887 788 888
3870 776 766 767 866
3871 766 856 767 866
3872 868 869 779 878
3873 777 767 768 867
3874 767 857 768 867
3875 868 778 867 877
3876 778 867 768 868
3877 867 858 768 868
3878 778 768 769 868
3879 768 858 769 868
3880 958 959 869 968
3881 779 868 769 869
3882 868 859 769 869
3883 790 780 781 880
3884 825 824 815 914
3885 827 916 817 917
3886 830 920 831 930
3887 782 781 772 871
3888 781 870 771 871
3889 870 861 771 871
3890 781 771 772 871
3891 771 861 772 871
3892 783 782 773 872
3893 782 871 772 872
3894 871 862 772 872
3895 782 772 773 872
3896 772 862 773 872
3897 784 783 774 873
3898 783 872 773 873
3899 872 863 773 873
3900 783 773 774 873
3901 773 863 774 873
3902 785 784 775 874
3903 784 873 774 874
3904 873 864 774 874
3905 784 774 775 874
3906 774 864 775 874
3907 786 785 776 875
3908 785 874 775 875
3909 874 865 775 875
3910 785 775 776 875
3911 775 865 776 875
3912 875 866 776 876
3913 786 776 777 876
3914 776 866 777 876
3915 876 867 777 877
3916 787 777 778 877
3917 777 867 778 877
3918 788 877 778 878
3919 877 868 778 878
3920 788 778 779 878
3921 778 868 779 878
3922 878 879 789 888
3923 789 878 779 879
3924 878 869 779 879
3925 835 834 825 924
3926 837 926 827 927
3927 851 850 841 940
3928 888 798 887 897
3929 858 947 848 948
3930 792 791 782 881
3931 791 880 781 881
3932 880 871 781 881
3933 791 781 782 881
3934 781 871 782 881
3935 793 792 783 882
3936 792 881 782 882
3937 881 872 782 882
3938 792 782 783 882
3939 782 872 783 882
3940 794 793 784 883
3941 793 882 783 883
3942 882 873 783 883
3943 793 783 784 883
3944 783 873 784 883
3945 795 794 785 884
3946 794 883 784 884
3947 883 874 784 884
3948 794 784 785 884
3949 784 874 785 884
3950 884 875 785 885
3951 795 785 786 885
3952 785 875 786 885
3953 885 876 786 886
3954 796 786 787 886
3955 786 876 787 886
3956 886 877 787 887
3957 797 787 788 887
3958 787 877 788 887
3959 887 878 788 888
3960 798 788 789 888
3961 788 878 789 888
3962 799 888 789 889
3963 888 879 789 889
3964 961 871 960 970
3965 877 876 867 966
3966 883 793 882 892
3967 881 792 791 891
3968 791 890 881 891
3969 884 794 883 893
3970 882 793 792 892
3971 792 891 882 892
3972 889 799 888 898
3973 883 794 793 893
3974 793 892 883 893
3975 884 795 794 894
3976 794 893 884 894
3977 885 796 795 895
3978 795 894 885 895
3979 886 797 796 896
3980 796 895 886 896
3981 887 798 797 897
3982 797 896 887 897
3983 888 799 798 898
3984 798 897 888 898
3985 898 889 799 899
3986 927 837 926 936
3987 866 865 856 955
3988 835 924 825 925
3989 814 813 804 903
3990 906 816 905 915
3991 952 943 853 953
3992 836 925 826 926
3993 907 817 906 916
3994 955 946 856 956
3995 816 815 806 905
3996 953 944 854 954
3997 916 907 817 917
3998 831 920 821 921
3999 851 841 842 941
4000 842 841 832 931
4001 820 910 821 920
4002 852 851 842 941
4003 933 843 932 942
4004 821 910 811 911
4005 845 934 835 935
4006 911 821 910 920
4007 838 927 828 928
4008 810 900 811 910
4009 841 840 831 930
4010 848 937 838 938
4011 901 811 900 910
4012 917 918 828 927
4013 822 911 812 912
4014 963 873 962 972
4015 820 810 811 910
4016 826 825 816 915
4017 828 827 818 917
4018 823 912 813 913
4019 927 928 838 937
4020 827 826 817 916
4021 938 939 849 948
4022 824 913 814 914
4023 908 909 819 918
4024 948 858 947 957
4025 828 917 818 918
4026 867 866 857 956
4027 948 949 859 958
4028 825 914 815 915
4029 846 935 836 936
4030 928 929 839 938
4031 826 915 816 916
4032 889 888 879 978
4033 917 827 916 926
4034 849 848 839 938
4035 918 919 829 928
4036 837 836 827 926
4037 823 822 813 912
4038 821 811 812 911
4039 811 901 812 911
4040 934 844 933 943
4041 899 898 889 988
4042 822 812 813 912
4043 812 902 813 912
4044 920 911 821 921
4045 834 833 824 923
4046 925 835 924 934
4047 823 813 814 913
4048 813 903 814 913
4049 921 912 822 922
4050 926 836 925 935
4051 870 860 861 960
4052 824 814 815 914
4053 814 904 815 914
4054 922 913 823 923
4055 850 940 851 950
4056 855 944 845 945
4057 825 815 816 915
4058 815 905 816 915
4059 923 914 824 924
4060 842 931 832 932
4061 944 854 943 953
4062 826 816 817 916
4063 816 906 817 916
4064 924 915 825 925
4065 843 932 833 933
4066 838 837 828 927
4067 945 855 944 954
4068 946 856 945 955
4069 925 916 826 926
4070 844 933 834 934
4071 827 817 818 917
4072 817 907 818 917
4073 917 908 818 918
4074 947 857 946 956
4075 819 828 818 918
4076 818 908 819 918
4077 926 917 827 927
4078 847 936 837 937
4079 829 918 819 919
4080 918 909 819 919
4081 847 846 837 936
4082 833 832 823 922
4083 831 821 822 921
4084 821 911 822 921
4085 851 940 841 941
4086 832 822 823 922
4087 822 912 823 922
4088 930 921 831 931
4089 844 843 834 933
4090 935 845 934 944
4091 833 823 824 923
4092 823 913 824 923
4093 931 922 832 932
4094 936 846 935 945
4095 834 824 825 924
4096 824 914 825 924
4097 932 923 833 933
4098 956 866 955 965
4099 937 847 936 946
4100 861 860 851 950
4101 835 825 826 925
4102 825 915 826 925
4103 933 924 834 934
4104 852 941 842 942
4105 836 826 827 926
4106 826 916 827 926
4107 934 925 835 935
4108 853 942 843 943
4109 848 847 838 937
4110 935 926 836 936
4111 854 943 844 944
4112 837 827 828 927
4113 827 917 828 927
4114 927 918 828 928
4115 879 878 869 968
4116 829 838 828 928
4117 828 918 829 928
4118 936 927 837 937
4119 878 877 868 967
4120 857 946 847 947
4121 839 928 829 929
4122 928 919 829 929
4123 843 842 833 932
4124 841 831 832 931
4125 831 921 832 931
4126 980 981 891 990
4127 842 832 833 932
4128 832 922 833 932
4129 940 931 841 941
4130 966 876 965 975
4131 962 872 961 971
4132 843 833 834 933
4133 833 923 834 933
4134 941 932 842 942
4135 852 842 843 942
4136 853 852 843 942
4137 844 834 835 934
4138 834 924 835 934
4139 942 933 843 943
4140 853 843 844 943
4141 867 956 857 957
4142 854 853 844 943
4143 845 835 836 935
4144 835 925 836 935
4145 943 934 844 944
4146 854 844 845 944
4147 859 858 849 948
4148 855 854 845 944
4149 846 836 837 936
4150 836 926 837 936
4151 944 935 845 945
4152 855 845 846 945
4153 858 857 848 947
4154 856 855 846 945
4155 868 867 858 957
4156 857 856 847 946
4157 945 936 846 946
4158 856 846 847 946
4159 847 837 838 937
4160 837 927 838 937
4161 937 928 838 938
4162 947 938 848 948
4163 839 848 838 938
4164 838 928 839 938
4165 946 937 847 947
4166 877 966 867 967
4167 849 938 839 939
4168 938 929 839 939
4169 897 896 887 986
4170 841 931 842 941
4171 942 852 941 951
4172 951 942 852 952
4173 842 932 843 942
4174 861 950 851 951
4175 961 952 862 962
4176 950 941 851 951
4177 843 933 844 943
4178 862 951 852 952
4179 962 953 863 963
4180 965 875 964 974
4181 844 934 845 944
4182 863 952 853 953
4183 963 954 864 964
4184 845 935 846 945
4185 864 953 854 954
4186 888 887 878 977
4187 846 936 847 946
4188 865 954 855 955
4189 897 986 887 987
4190 866 955 856 956
4191 857 847 848 947
4192 847 937 848 947
4193 957 867 956 966
4194 887 976 877 977
4195 858 848 849 948
4196 848 938 849 948
4197 956 947 857 957
4198 859 948 849 949
4199 948 939 849 949
4200 964 874 963 973
4201 873 962 863 963
4202 871 870 861 960
4203 861 851 852 951
4204 851 941 852 951
4205 871 960 861 961
4206 870 960 871 970
4207 972 882 971 981
4208 862 852 853 952
4209 852 942 853 952
4210 881 880 871 970
4211 951 861 950 960
4212 973 883 972 982
4213 863 853 854 953
4214 853 943 854 953
4215 953 863 952 962
4216 974 884 973 983
4217 864 854 855 954
4218 854 944 855 954
4219 954 864 953 963
4220 876 965 866 966
4221 865 855 856 955
4222 855 945 856 955
4223 955 865 954 964
4224 975 885 974 984
4225 866 856 857 956
4226 856 946 857 956
4227 876 875 866 965
4228 867 857 858 957
4229 857 947 858 957
4230 965 956 866 966
4231 976 886 975 985
4232 868 957 858 958
4233 957 948 858 958
4234 966 957 867 967
4235 980 891 890 990
4236 868 858 859 958
4237 858 948 859 958
4238 869 958 859 959
4239 958 949 859 959
4240 952 862 951 961
4241 873 872 863 962
4242 891 890 881 980
4243 871 861 862 961
4244 861 951 862 961
4245 874 873 864 963
4246 887 886 877 976
4247 872 862 863 962
4248 862 952 863 962
4249 875 874 865 964
4250 967 877 966 976
4251 873 863 864 963
4252 863 953 864 963
4253 874 864 865 964
4254 864 954 865 964
4255 875 964 865 965
4256 964 955 865 965
4257 977 887 976 986
4258 978 888 977 987
4259 875 865 866 965
4260 865 955 866 965
4261 898 987 888 988
4262 876 866 867 966
4263 866 956 867 966
4264 968 969 879 978
4265 877 867 868 967
4266 867 957 868 967
4267 968 878 967 977
4268 878 967 868 968
4269 967 958 868 968
4270 878 868 869 968
4271 868 958 869 968
4272 879 968 869 969
4273 968 959 869 969
4274 890 880 881 980
4275 882 881 872 971
4276 881 970 871 971
4277 970 961 871 971
4278 881 871 872 971
4279 871 961 872 971
4280 883 882 873 972
4281 882 971 872 972
4282 971 962 872 972
4283 882 872 873 972
4284 872 962 873 972
4285 884 883 874 973
4286 883 972 873 973
4287 972 963 873 973
4288 883 873 874 973
4289 873 963 874 973
4290 885 884 875 974
4291 884 973 874 974
4292 973 964 874 974
4293 884 874 875 974
4294 874 964 875 974
4295 886 885 876 975
4296 885 974 875 975
4297 974 965 875 975
4298 885 875 876 975
4299 875 965 876 975
4300 975 966 876 976
4301 886 876 877 976
4302 876 966 877 976
4303 976 967 877 977
4304 887 877 878 977
4305 877 967 878 977
4306 888 977 878 978
4307 977 968 878 978
4308 888 878 879 978
4309 878 968 879 978
4310 978 979 889 988
4311 889 978 879 979
4312 978 969 879 979
4313 892 891 882 981
4314 891 980 881 981
4315 980 971 881 981
4316 891 881 882 981
4317 881 971 882 981
4318 893 892 883 982
4319 892 981 882 982
4320 981 972 882 982
4321 892 882 883 982
4322 882 972 883 982
4323 894 893 884 983
4324 893 982 883 983
4325 982 973 883 983
4326 893 883 884 983
4327 883 973 884 983
4328 895 894 885 984
4329 894 983 884 984
4330 983 974 884 984
4331 894 884 885 984
4332 884 974 885 984
4333 896 895 886 985
4334 895 984 885 985
4335 984 975 885 985
4336 895 885 886 985
4337 885 975 886 985
4338 985 976 886 986
4339 896 886 887 986
4340 886 976 887 986
4341 986 977 887 987
4342 897 887 888 987
4343 887 977 888 987
4344 987 978 888 988
4345 898 888 889 988
4346 888 978 889 988
4347 899 988 889 989
4348 988 979 889 989
4349 981 892 891 991
4350 891 990 981 991
4351 981 982 892 991
4352 982 893 892 992
4353 892 991 982 992
4354 982 983 893 992
4355 983 894 893 993
4356 893 992 983 993
4357 983 984 894 993
4358 984 895 894 994
4359 894 993 984 994
4360 984 985 895 994
4361 985 896 895 995
4362 895 994 985 995
4363 985 986 896 995
4364 986 897 896 996
4365 896 995 986 996
4366 986 987 897 996
4367 987 898 897 997
4368 897 996 987 997
4369 987 988 898 997
4370 988 989 899 998
4371 988 899 898 998
4372 898 997 988 998
4373 998 989 899 999
