OFF
100 730 0
239827.901387 114021.679921 630757.911290
830479.839411 74053.219007 271231.219653
492594.265138 865425.812778 225781.321509
594814.035815 98100.953465 645652.871324
632520.559349 683671.812895 90463.708510
570541.047488 115078.381782 348274.800724
567984.911885 115142.296717 867774.046257
504067.133489 847317.081063 240768.266083
193436.334892 450106.285117 698164.949577
783730.088116 163121.345893 767131.137249
880457.023719 20637.875404 639700.486728
456669.342062 338133.966405 653463.593627
0.000000 0.000000 0.000000
36824.704064 750886.796748 363898.636053
110676.026752 911037.519205 851455.414092
535246.107401 449408.652734 416558.982534
483812.722029 748877.635978 493693.256268
846506.253657 216145.106207 449455.901834
552019.081605 417109.472346 937858.539845
511024.057517 985792.460444 642898.963420
87907.605489 519051.551641 215430.852181
606989.250380 496758.396636 341004.305234
666855.745319 768723.848477 967997.207894
790703.009998 529332.255229 805626.263707
650849.528391 861954.487640 654226.534692
990461.233486 132077.177322 770232.266119
744374.764212 790518.032230 605276.141497
203389.542122 310134.029715 853522.039277
543496.683915 134614.345957 224033.289778
670872.998310 196429.781089 195595.388048
874525.355446 320998.569197 47762.141405
413659.342625 324375.399794 401563.648190
874963.644715 128997.423088 116308.323201
705185.975669 577387.701621 503699.638008
146253.822841 443042.421108 341035.021451
673738.276187 437025.523780 777527.848651
102661.997539 171453.103591 783836.549371
575245.875827 535181.927532 405403.812535
584223.988655 8151.623126 520825.853897
72389.569765 84704.162509 106416.406896
455369.847602 802534.500848 981807.410269
350970.315058 625210.291058 724056.288297
391307.380453 806786.413979 420304.012486
208248.820322 862478.124125 247772.642859
337925.652833 852864.441463 905816.793003
698890.640054 488384.402160 906013.502560
74120.235093 325486.448425 5772.255750
294832.669756 363284.994907 622162.865996
470882.381363 836736.212938 275319.542150
51893.621309 123141.350060 296265.129002
681602.003603 514449.948161 5567.266913
8046.284536 677443.459366 500272.642654
794906.895974 136458.084836 629883.971384
714533.920523 529224.395919 592111.191928
582234.303714 919240.129193 975545.886832
561865.292377 347512.412873 192719.587989
791893.011346 843921.524172 932102.568421
140803.315395 444713.692215 528371.844702
715578.623381 397562.707638 306215.176116
929571.724576 375548.071835 687921.910337
306875.926114 663460.630622 778305.867583
71351.490827 915092.199713 813136.643072
370866.407323 889770.543874 351537.902526
574829.881083 680913.143724 80534.901648
339504.752151 941174.168230 915540.309021
258146.275581 421772.239215 133506.235896
156004.767879 438119.666696 599113.905270
164253.115474 145939.273989 293527.969238
467470.679766 27305.845026 930775.276857
469261.854903 293445.331384 791525.699509
102885.719499 506633.909892 780786.069772
757135.706646 67828.331742 269276.554883
205512.542074 192801.195285 278077.959675
538786.031789 28675.263785 240694.826778
459195.767487 967351.920315 89708.352197
826225.107777 605245.757999 674731.494745
449122.107216 787206.602345 86658.779644
657147.472767 784034.022686 296754.840042
518626.172098 501428.927143 512090.278402
462656.273768 694064.166131 280187.667522
370378.463564 233960.912031 148878.909150
386947.904110 446870.719778 836118.411220
156389.163457 705566.938830 875062.123877
787156.170805 646526.157502 502450.002462
48854.079362 958546.493130 27773.053168
454284.024513 178762.403537 576103.872549
160675.773023 81472.300714 900777.461758
583239.211442 783310.683589 617176.421051
947859.227313 584483.988341 96612.501331
717727.711570 943564.215354 961810.753340
578807.675187 883735.230690 876655.674105
609388.692253 378072.785560 232647.734305
445873.276217 272851.568033 819592.409380
175072.248915 615284.769657 875112.746898
31315.663722 85300.744299 804569.592265
988907.391556 400388.454377 524922.676855
72634.485636 352201.717636 321515.124173
60123.870075 722084.344127 481481.375102
832520.379217 715102.205995 885220.386370
395462.909973 376255.835572 766672.054703
3 65 34 96
3 72 96 34
3 65 96 72
3 31 34 65
3 31 72 34
3 80 31 65
3 72 31 80
3 80 65 72
3 62 84 19
3 74 84 19
3 62 19 74
3 84 62 43
3 2 62 74
3 2 43 62
3 2 74 43
3 76 43 74
3 84 43 76
3 84 76 50
3 74 50 76
3 74 50 84
3 2 19 74
3 62 19 2
3 76 43 2
3 76 4 74
3 63 4 76
3 63 2 4
3 76 2 63
3 2 74 4
3 41 78 16
3 53 78 41
3 78 53 15
3 53 33 15
3 33 78 15
3 33 87 78
3 53 87 33
3 41 87 53
3 87 16 78
3 41 19 87
3 16 19 41
3 16 87 19
3 94 82 70
3 61 82 94
3 61 97 82
3 97 51 82
3 97 61 51
3 51 70 82
3 51 61 70
3 94 70 61
3 94 70 51
3 51 94 61
3 42 97 62
3 97 13 61
3 13 43 61
3 97 61 43
3 42 13 97
3 43 13 42
3 43 62 97
3 42 62 43
3 26 77 24
3 26 74 77
3 74 19 77
3 26 19 74
3 19 24 77
3 26 24 19
3 89 74 19
3 89 74 26
3 89 24 19
3 26 24 89
3 39 80 72
3 39 73 12
3 80 12 73
3 39 12 80
3 67 73 39
3 67 80 73
3 67 72 80
3 39 72 67
3 70 81 8
3 70 93 81
3 60 81 93
3 41 81 60
3 41 8 81
3 60 8 41
3 60 93 8
3 93 70 8
3 70 8 60
3 70 60 93
3 40 54 90
3 64 40 54
3 64 90 54
3 90 60 40
3 90 44 60
3 44 40 60
3 64 44 90
3 64 40 44
3 90 41 87
3 22 90 87
3 41 90 22
3 45 87 35
3 53 35 87
3 41 35 53
3 45 35 41
3 45 22 87
3 41 22 45
3 94 0 36
3 86 94 68
3 0 92 86
3 68 92 0
3 27 92 68
3 86 92 27
3 27 68 86
3 0 94 68
3 36 0 86
3 94 36 27
3 27 36 86
3 94 27 86
3 27 0 86
3 36 0 27
3 11 0 92
3 11 92 47
3 0 11 47
3 92 27 99
3 27 47 99
3 47 92 99
3 27 36 47
3 36 0 47
3 17 59 95
3 59 17 52
3 53 52 17
3 53 59 52
3 53 95 59
3 17 95 53
3 35 23 9
3 59 23 35
3 9 23 59
3 35 9 52
3 59 52 9
3 35 52 59
3 53 23 35
3 53 75 23
3 98 23 75
3 98 25 23
3 59 23 25
3 98 59 25
3 75 59 98
3 75 53 59
3 35 52 53
3 13 51 84
3 13 46 51
3 46 12 51
3 12 46 13
3 12 51 84
3 13 84 12
3 21 91 4
3 21 50 91
3 4 91 50
3 4 50 21
3 21 58 91
3 58 50 91
3 4 58 21
3 50 58 4
3 87 83 26
3 87 33 83
3 26 83 33
3 53 26 33
3 75 87 26
3 53 87 23
3 75 23 87
3 75 26 53
3 53 83 33
3 26 83 53
3 59 45 23
3 45 35 23
3 35 45 9
3 25 9 45
3 25 59 9
3 45 59 25
3 69 6 18
3 69 92 6
3 92 18 6
3 92 81 18
3 81 92 69
3 99 18 81
3 99 69 18
3 81 69 99
3 92 99 81
3 92 69 99
3 27 99 81
3 27 18 92
3 27 81 18
3 96 51 34
3 46 51 96
3 46 20 51
3 96 20 46
3 20 34 51
3 34 20 96
3 65 84 46
3 65 20 84
3 20 46 84
3 72 46 96
3 65 46 72
3 34 20 65
3 51 96 57
3 94 57 96
3 94 51 57
3 49 96 51
3 94 96 49
3 12 94 51
3 12 49 51
3 94 49 12
3 57 78 16
3 47 78 57
3 11 78 47
3 41 78 11
3 41 11 47
3 57 41 47
3 16 41 57
3 97 8 41
3 41 60 97
3 70 8 97
3 51 70 97
3 97 60 82
3 82 60 93
3 94 93 70
3 82 93 94
3 39 96 49
3 72 96 39
3 72 49 96
3 49 72 67
3 39 49 67
3 49 96 67
3 96 72 57
3 72 67 57
3 67 96 57
3 48 7 77
3 7 63 77
3 63 4 77
3 83 58 77
3 88 58 83
3 83 77 26
3 26 77 88
3 83 26 88
3 88 30 58
3 30 91 58
3 50 91 55
3 30 55 91
3 55 30 29
3 30 50 29
3 55 29 50
3 88 30 50
3 74 88 50
3 74 4 50
3 88 4 74
3 88 77 4
3 21 77 58
3 37 77 21
3 79 77 37
3 79 37 21
3 79 21 4
3 63 79 4
3 7 79 76
3 63 76 79
3 63 7 76
3 79 48 77
3 7 48 79
3 76 48 79
3 76 7 48
3 7 4 77
3 63 4 7
3 63 21 4
3 63 79 21
3 85 3 11
3 92 3 6
3 85 6 3
3 68 6 85
3 68 18 6
3 92 18 68
3 68 85 92
3 92 69 3
3 92 85 69
3 69 11 3
3 85 11 69
3 92 11 69
3 11 92 85
3 59 25 95
3 98 25 95
3 98 59 95
3 89 88 26
3 74 89 88
3 74 77 88
3 65 50 46
3 65 63 50
3 63 76 50
3 63 65 76
3 76 46 50
3 65 46 76
3 65 84 76
3 84 50 46
3 37 15 33
3 37 78 15
3 16 37 33
3 16 78 37
3 16 83 87
3 16 33 83
3 80 28 31
3 72 28 80
3 72 5 28
3 5 31 28
3 72 31 5
3 80 55 65
3 55 28 31
3 91 28 55
3 29 28 91
3 91 55 29
3 29 32 28
3 80 32 29
3 80 28 32
3 55 80 29
3 65 55 15
3 31 91 55
3 31 15 91
3 15 55 91
3 65 15 31
3 49 46 96
3 39 46 49
3 72 46 39
3 96 12 51
3 39 46 12
3 39 12 49
3 49 12 96
3 65 46 80
3 12 46 50
3 12 80 50
3 80 46 50
3 5 28 55
3 5 91 28
3 5 15 91
3 31 15 5
3 31 5 55
3 20 43 76
3 20 84 43
3 20 76 65
3 52 71 17
3 10 17 71
3 17 10 52
3 52 38 71
3 52 10 38
3 38 1 71
3 1 10 71
3 10 73 1
3 38 73 1
3 12 73 38
3 12 73 10
3 38 12 10
3 38 5 71
3 28 73 71
3 5 28 71
3 5 73 28
3 38 73 5
3 73 1 71
3 5 71 17
3 5 17 38
3 38 17 52
3 2 7 19
3 62 19 7
3 48 62 7
3 48 2 62
3 76 2 48
3 7 2 4
3 7 48 19
3 62 19 48
3 13 84 61
3 84 43 61
3 34 43 20
3 13 43 34
3 34 20 13
3 46 13 20
3 46 12 84
3 90 22 54
3 40 22 41
3 41 60 40
3 90 60 41
3 40 22 54
3 31 79 15
3 79 65 15
3 31 65 79
3 34 15 31
3 34 79 15
3 65 79 20
3 34 20 79
3 34 78 57
3 31 78 34
3 34 57 31
3 31 15 78
3 85 15 31
3 85 3 15
3 3 11 15
3 31 11 85
3 78 15 11
3 31 47 11
3 31 57 47
3 89 54 22
3 89 22 56
3 90 56 89
3 90 22 56
3 90 89 19
3 89 54 19
3 90 19 54
3 41 87 60
3 44 87 90
3 60 19 44
3 87 19 60
3 87 44 19
3 13 79 43
3 13 42 79
3 42 62 79
3 62 43 79
3 48 79 62
3 20 79 76
3 34 42 79
3 13 97 34
3 97 42 57
3 34 57 42
3 51 66 57
3 97 66 51
3 97 57 66
3 34 72 57
3 97 51 34
3 76 48 43
3 48 62 43
3 56 26 24
3 89 56 88
3 56 88 26
3 90 24 89
3 22 24 90
3 22 56 24
3 84 51 61
3 62 61 84
3 97 61 62
3 45 87 23
3 82 86 40
3 14 86 82
3 14 86 40
3 82 40 14
3 2 77 74
3 2 7 77
3 16 77 48
3 19 77 16
3 48 19 16
3 63 74 50
3 74 63 4
3 63 91 55
3 63 55 50
3 63 4 91
3 31 85 47
3 0 85 31
3 31 47 0
3 0 11 85
3 47 85 11
3 87 77 24
3 98 24 26
3 98 87 24
3 98 26 87
3 16 77 87
3 16 83 77
3 14 82 60
3 44 40 93
3 60 93 40
3 82 44 93
3 14 60 44
3 64 82 14
3 64 44 82
3 14 19 64
3 44 19 14
3 44 64 19
3 40 44 82
3 64 14 40
3 61 82 60
3 61 60 14
3 94 14 82
3 61 94 14
3 16 42 57
3 97 8 66
3 8 41 66
3 41 57 66
3 42 60 61
3 42 61 62
3 42 41 60
3 41 42 16
3 41 60 16
3 42 16 60
3 66 8 47
3 41 47 8
3 0 47 57
3 66 47 0
3 0 57 66
3 93 86 40
3 93 82 86
3 8 99 47
3 41 99 81
3 8 81 99
3 11 99 41
3 92 99 11
3 94 38 68
3 49 38 0
3 12 38 49
3 12 49 0
3 94 0 38
3 94 12 0
3 12 38 68
3 94 12 68
3 53 58 33
3 95 33 58
3 95 53 33
3 53 17 58
3 30 58 17
3 30 95 58
3 17 95 30
3 72 47 0
3 31 47 72
3 72 85 31
3 67 85 72
3 67 0 85
3 67 72 0
3 93 27 86
3 93 94 27
3 94 86 14
3 1 25 32
3 95 32 25
3 17 32 95
3 17 1 32
3 17 95 1
3 95 25 1
3 10 1 32
3 10 32 25
3 17 10 1
3 95 10 17
3 95 25 10
3 71 29 32
3 73 32 29
3 71 32 73
3 28 29 71
3 73 29 28
3 72 57 47
3 96 57 36
3 96 49 57
3 49 0 57
3 27 8 47
3 36 8 27
3 36 66 8
3 36 57 66
3 49 36 0
3 49 96 36
3 96 0 57
3 49 0 67
3 96 67 0
3 94 57 36
3 17 3 85
3 38 5 3
3 17 52 3
3 38 3 52
3 5 85 3
3 17 85 5
3 70 66 57
3 70 8 66
3 70 57 51
3 70 8 36
3 94 70 36
3 35 9 18
3 6 9 35
3 18 9 6
3 69 6 35
3 69 35 99
3 81 35 18
3 99 35 81
3 69 9 3
3 35 3 9
3 35 69 3
3 6 9 69
3 75 53 83
3 95 83 33
3 95 75 83
3 75 95 98
3 26 83 95
3 95 75 26
3 38 85 3
3 67 38 5
3 67 85 38
3 31 5 85
3 67 5 72
3 0 3 68
3 38 68 3
3 0 85 3
3 0 38 85
3 6 3 68
3 23 98 22
3 45 56 98
3 22 56 45
3 98 56 22
3 45 23 22
3 25 45 98
3 25 98 56
3 45 56 25
3 70 81 27
3 70 27 94
3 86 18 68
3 27 18 86
3 45 18 40
3 45 41 18
3 45 40 22
3 41 81 18
3 81 40 18
3 60 40 81
3 45 81 18
3 41 81 45
3 45 18 22
3 18 68 22
3 68 22 40
3 18 40 68
3 45 68 22
3 68 45 18
3 25 22 45
3 25 22 68
3 45 6 9
3 6 25 9
3 6 68 25
3 45 68 6
3 41 81 35
3 86 18 40
3 86 68 40
3 93 18 81
3 93 27 18
3 25 56 22
3 49 38 67
3 49 73 67
3 38 73 49
3 5 72 73
3 72 80 73
3 80 73 28
3 6 9 10
3 3 52 9
3 52 10 9
3 3 10 52
3 68 10 3
3 6 10 68
3 10 17 25
3 25 52 9
3 17 52 25
3 10 25 68
3 15 21 91
3 21 55 91
3 79 55 21
3 79 63 55
3 65 55 50
3 21 15 79
3 98 26 75
3 98 88 26
3 95 88 98
3 95 88 56
3 98 95 56
3 22 87 24
3 17 11 52
3 17 15 11
3 53 15 58
3 17 58 15
3 53 11 78
3 11 53 35
3 11 3 52
3 11 35 99
3 11 3 17
3 68 38 10
3 44 19 90
3 87 24 19
3 64 89 19
3 89 64 54
3 62 19 42
3 48 62 16
3 16 42 19
3 42 16 62
3 42 16 48
3 48 62 42
3 33 58 83
3 88 58 95
3 84 61 19
3 62 61 19
3 80 55 50
3 41 78 35
3 35 78 99
3 11 99 78
3 53 35 78
3 16 19 24
3 87 16 24
3 61 64 19
3 61 14 64
3 42 78 16
3 37 79 15
3 78 79 37
3 42 79 78
3 33 37 21
3 21 15 58
3 33 21 58
3 83 58 21
3 33 77 83
3 37 77 33
3 33 83 21
3 16 79 78
3 79 16 42
3 91 29 5
3 17 29 71
3 5 29 58
3 17 1 29
3 58 1 17
3 58 29 1
3 58 91 5
3 1 29 71
3 80 29 30
3 30 12 50
3 12 80 30
3 30 32 58
3 30 29 32
3 29 58 32
3 12 32 73
3 1 12 32
3 1 73 32
3 12 1 73
3 12 30 32
3 12 80 32
3 17 32 30
3 88 32 30
3 25 32 88
3 95 25 88
