# This file was created by meshio v5.3.5
1000 3 0 0
0 0.0000000000000000e+00 0.0000000000000000e+00 0.0000000000000000e+00
1 0.0000000000000000e+00 0.0000000000000000e+00 1.0000000000000000e+00
2 0.0000000000000000e+00 1.0000000000000000e+00 0.0000000000000000e+00
3 0.0000000000000000e+00 1.0000000000000000e+00 1.0000000000000000e+00
4 0.0000000000000000e+00 1.6335709065097792e-01 0.0000000000000000e+00
5 0.0000000000000000e+00 4.2319640806428027e-01 7.0184805061704880e-01
6 0.0000000000000000e+00 0.0000000000000000e+00 3.4225230215432478e-01
7 0.0000000000000000e+00 4.9017832095485914e-01 4.0944257800872075e-01
8 0.0000000000000000e+00 8.5522555459765170e-01 8.2782191519582116e-01
9 0.0000000000000000e+00 1.8865448953862896e-01 7.3798078962048819e-01
10 0.0000000000000000e+00 2.0023126188121976e-01 5.9878398759038298e-01
11 0.0000000000000000e+00 6.1606738146512330e-01 0.0000000000000000e+00
12 0.0000000000000000e+00 1.0000000000000000e+00 6.1981660561687968e-01
13 0.0000000000000000e+00 5.8555912450567660e-01 1.1773679221745548e-01
14 0.0000000000000000e+00 3.9011818617259630e-01 6.9198516286622369e-01
15 0.0000000000000000e+00 0.0000000000000000e+00 2.2232141759999047e-01
16 0.0000000000000000e+00 3.9864910408452103e-01 4.1466145303491808e-01
17 0.0000000000000000e+00 3.1510791344329869e-01 7.6104723694058485e-01
18 0.0000000000000000e+00 0.0000000000000000e+00 7.1377381859414291e-01
19 0.0000000000000000e+00 2.2805632393519815e-01 1.0780324499305882e-01
20 0.0000000000000000e+00 4.7928268470360680e-01 4.6895393699397103e-01
21 0.0000000000000000e+00 4.0131230564620934e-01 7.6072475182847576e-01
22 0.0000000000000000e+00 1.0873828871636759e-01 4.9338866309871210e-01
23 0.0000000000000000e+00 6.4579739418635607e-01 1.0000000000000000e+00
24 0.0000000000000000e+00 4.1053092295308991e-01 5.0961676055810301e-01
25 0.0000000000000000e+00 2.2645777261927358e-01 1.0000000000000000e+00
26 0.0000000000000000e+00 1.0000000000000000e+00 2.4130669972882668e-01
27 0.0000000000000000e+00 2.3653824206437080e-01 4.5257811043354235e-01
28 0.0000000000000000e+00 4.6420589803574930e-01 1.0000000000000000e+00
29 0.0000000000000000e+00 7.6190191239591620e-01 4.2397898304177939e-01
30 0.0000000000000000e+00 4.9480537485218468e-01 0.0000000000000000e+00
31 0.0000000000000000e+00 2.6691087601322538e-01 0.0000000000000000e+00
32 0.0000000000000000e+00 4.6859952910676939e-01 4.7196358445002462e-01
33 0.0000000000000000e+00 1.4882979524277085e-01 4.8477440820333362e-01
34 0.0000000000000000e+00 1.0814529842094778e-01 8.8569742595786638e-01
35 0.0000000000000000e+00 1.0000000000000000e+00 1.7733293509809123e-01
36 0.0000000000000000e+00 5.7566233176815396e-01 2.8705533679705586e-01
37 0.0000000000000000e+00 1.0000000000000000e+00 2.7005381569799292e-01
38 0.0000000000000000e+00 5.7015518853004887e-01 6.3282163627369070e-01
39 0.0000000000000000e+00 4.7378384708366184e-01 3.2864328541445820e-01
40 0.0000000000000000e+00 0.0000000000000000e+00 5.4802281520051399e-01
41 0.0000000000000000e+00 8.9171125782799832e-01 6.9619603208751579e-01
42 0.0000000000000000e+00 4.6393322204022547e-01 0.0000000000000000e+00
43 0.0000000000000000e+00 1.3429170666584545e-01 3.3388816981548652e-01
44 0.0000000000000000e+00 8.8001606314959557e-01 7.5448280427513459e-01
45 0.0000000000000000e+00 8.1224790973130867e-01 0.0000000000000000e+00
46 0.0000000000000000e+00 1.0000000000000000e+00 0.0000000000000000e+00
47 0.0000000000000000e+00 1.0000000000000000e+00 7.5284870575413998e-01
48 0.0000000000000000e+00 4.2841898836615533e-01 5.2196408980266218e-01
49 0.0000000000000000e+00 3.5518272288298358e-01 8.9645584933085376e-01
50 0.0000000000000000e+00 5.0319662826535017e-01 0.0000000000000000e+00
51 0.0000000000000000e+00 6.6420625194563809e-01 5.0272555992749368e-01
52 0.0000000000000000e+00 0.0000000000000000e+00 7.7581385803574421e-01
53 0.0000000000000000e+00 2.4427650844372850e-01 2.5843691902262478e-01
54 0.0000000000000000e+00 6.0952597245695894e-01 6.7165058629034269e-01
55 0.0000000000000000e+00 7.2945007590020861e-01 4.7150755168953873e-01
56 0.0000000000000000e+00 1.0000000000000000e+00 5.2228924275880750e-01
57 0.0000000000000000e+00 2.2286325592100420e-01 7.3907125239797733e-01
58 0.0000000000000000e+00 4.8910594782550809e-01 5.3757089762128618e-01
59 0.0000000000000000e+00 5.3953674567122967e-01 1.0000000000000000e+00
60 0.0000000000000000e+00 1.0000000000000000e+00 0.0000000000000000e+00
61 0.0000000000000000e+00 4.0453762717635877e-01 2.6520023558373940e-01
62 0.0000000000000000e+00 1.0000000000000000e+00 4.2364397754872929e-01
63 0.0000000000000000e+00 5.5849719736348380e-01 3.3164087596565206e-01
64 0.0000000000000000e+00 2.3421428924242904e-01 8.6400482079341667e-01
65 0.0000000000000000e+00 1.4884283778087304e-01 4.2806030843675058e-01
66 0.0000000000000000e+00 8.4787774995528731e-01 8.6803190748709380e-01
67 0.0000000000000000e+00 3.0712919515654480e-01 2.4619244912587579e-01
68 0.0000000000000000e+00 4.3238961523435471e-01 0.0000000000000000e+00
69 0.0000000000000000e+00 0.0000000000000000e+00 3.9096190733860769e-01
70 0.0000000000000000e+00 0.0000000000000000e+00 0.0000000000000000e+00
71 0.0000000000000000e+00 8.3645799887904704e-01 7.5037879703647004e-01
72 0.0000000000000000e+00 6.1053436523590543e-01 1.1566344178769661e-01
73 0.0000000000000000e+00 1.3994364550064353e-01 1.0000000000000000e+00
74 0.0000000000000000e+00 6.8546363233218299e-01 5.0774557375121721e-01
75 0.0000000000000000e+00 0.0000000000000000e+00 6.8603359998707225e-01
76 0.0000000000000000e+00 4.2249240644287966e-01 6.1341525889720272e-01
77 0.0000000000000000e+00 4.6343204481796008e-01 4.1162528243903329e-01
78 0.0000000000000000e+00 8.8059051218799267e-01 6.8677260478617619e-01
79 0.0000000000000000e+00 2.3542794013088786e-01 5.2086458565299243e-01
80 0.0000000000000000e+00 7.5278644286076923e-01 8.0880950101403293e-01
81 0.0000000000000000e+00 7.3686746925416702e-01 8.9740949553303506e-01
82 0.0000000000000000e+00 1.0000000000000000e+00 3.2376858442187839e-01
83 0.0000000000000000e+00 1.2183033598087045e-01 8.5068890083381987e-01
84 0.0000000000000000e+00 4.7505217191622917e-01 7.2919542128354209e-01
85 0.0000000000000000e+00 0.0000000000000000e+00 2.9845424399656328e-01
86 0.0000000000000000e+00 0.0000000000000000e+00 1.0000000000000000e+00
87 0.0000000000000000e+00 1.0000000000000000e+00 5.4499228108873188e-01
88 0.0000000000000000e+00 1.8482937265198529e-01 8.3722614063366207e-01
89 0.0000000000000000e+00 1.0000000000000000e+00 2.5302156667097175e-01
90 0.0000000000000000e+00 4.1977381197454311e-01 5.1304884996787237e-01
91 0.0000000000000000e+00 1.0000000000000000e+00 2.2202065651962100e-01
92 0.0000000000000000e+00 7.3135039499480803e-01 3.7669567316799546e-01
93 0.0000000000000000e+00 1.0000000000000000e+00 7.2419918408462391e-01
94 0.0000000000000000e+00 1.8045283472655971e-01 8.8978908058308204e-01
95 0.0000000000000000e+00 4.2186962166930919e-01 3.0982763814443415e-01
96 0.0000000000000000e+00 6.4409796815775866e-01 1.0000000000000000e+00
97 0.0000000000000000e+00 0.0000000000000000e+00 4.2825595874811051e-01
98 0.0000000000000000e+00 8.4208932423326610e-01 4.7978437302627819e-01
99 0.0000000000000000e+00 6.1346356278994651e-01 1.2178381705449570e-01
100 0.0000000000000000e+00 4.0037770433159969e-01 5.1157426981357312e-01
101 0.0000000000000000e+00 6.1259175912469388e-01 1.0000000000000000e+00
102 0.0000000000000000e+00 2.3711122250941452e-01 1.5624272855869548e-01
103 0.0000000000000000e+00 7.6659137848651693e-01 3.3308770186978365e-01
104 0.0000000000000000e+00 8.5303968565635446e-01 3.0344110496307708e-01
105 0.0000000000000000e+00 8.9009189365349162e-01 0.0000000000000000e+00
106 0.0000000000000000e+00 5.6031898396427793e-01 1.0000000000000000e+00
107 0.0000000000000000e+00 8.6552959192826162e-01 8.5835771238373371e-01
108 0.0000000000000000e+00 3.8709575766863402e-01 7.6098862655743194e-01
109 0.0000000000000000e+00 1.0000000000000000e+00 3.4094693380103547e-01
110 0.0000000000000000e+00 8.8210599687660385e-01 4.2224469788087193e-01
111 0.0000000000000000e+00 3.5834952763673567e-01 8.6305207474926349e-01
112 0.0000000000000000e+00 8.6383583252807961e-01 5.1378766056437908e-01
113 0.0000000000000000e+00 5.9713155164110987e-01 8.9040275754605980e-01
114 1.0118357900024244e-01 2.9522628649334126e-01 1.0000000000000000e+00
115 1.0259772806054790e-01 6.4702220812421474e-01 6.8192255936633817e-01
116 1.0289710749839309e-01 3.3099672263499669e-01 4.3683124964939379e-01
117 1.0385732844959206e-01 8.0520674741801823e-01 1.5415718917970589e-01
118 1.0547667814468797e-01 2.1465539477875661e-01 5.2185996135983637e-01
119 1.0940058530913255e-01 8.6316880780617022e-01 1.0000000000000000e+00
120 1.0949771398264707e-01 6.3844870491382599e-01 4.3988197956087849e-01
121 1.0958228989556373e-01 5.3905663214488986e-01 7.4485055110389353e-01
122 1.1033752250145001e-01 4.6013839593651262e-01 5.1947617505410348e-01
123 1.1106918071390437e-01 8.3529714550348722e-01 2.4345570832636498e-01
124 1.1197651777479201e-01 4.8663221013475821e-01 6.4891028724001398e-01
125 1.1712421591244748e-01 8.0111801397944737e-01 5.0029680080869832e-01
126 1.2013798902267947e-01 3.3331048524822626e-01 7.8788984778772730e-01
127 1.2298231448007924e-01 1.0000000000000000e+00 2.1808225380800295e-01
128 1.2346823223455794e-01 5.8654675420355440e-01 0.0000000000000000e+00
129 1.2454043349444699e-01 6.8539736817845842e-01 7.6176818599605622e-01
130 1.2521309588710594e-01 7.7307935936294614e-01 4.8975831277595316e-01
131 1.2713661424650891e-01 2.0874628070810253e-01 1.0508792509647069e-01
132 1.2781603960376009e-01 2.3644372418298321e-01 2.6920253583080056e-01
133 1.2782338044284280e-01 1.7485363399998799e-01 2.7717762239814614e-01
134 1.2810256232747719e-01 2.8005873285587035e-01 1.0000000000000000e+00
135 1.3031321847395627e-01 8.8952298300539578e-01 1.0000000000000000e+00
136 1.3150122032856937e-01 8.6689851809658913e-01 1.0000000000000000e+00
137 1.3169346974089280e-01 8.3825697220662754e-01 1.3487571677870436e-01
138 1.3240576684657424e-01 0.0000000000000000e+00 5.2984866434703570e-01
139 1.3562648835841506e-01 1.0000000000000000e+00 1.2222008885276736e-01
140 1.3615280053642709e-01 2.9074552007500287e-01 1.8046799283779946e-01
141 1.3657573789033828e-01 1.2380329351177166e-01 1.4135259369398012e-01
142 1.3693219140187740e-01 1.0000000000000000e+00 7.4771399370616654e-01
143 1.3706418703109924e-01 3.6492314068685217e-01 0.0000000000000000e+00
144 1.3875302598817063e-01 2.3920143844704134e-01 5.5811467758889421e-01
145 1.3904130216833677e-01 4.7202083253928129e-01 1.2938557571303333e-01
146 1.3964282996389277e-01 7.0140496227646087e-01 0.0000000000000000e+00
147 1.4004419025902048e-01 7.3059408107694779e-01 7.7109598999149342e-01
148 1.4067182990214466e-01 1.0000000000000000e+00 7.7247695036583519e-01
149 1.4068465842789357e-01 3.1746916026337757e-01 3.7378709592046555e-01
150 1.4175767076975798e-01 0.0000000000000000e+00 1.0000000000000000e+00
151 1.4280722967877824e-01 6.4318831588554037e-01 4.8364060430968814e-01
152 1.4290844912089329e-01 1.0000000000000000e+00 4.8809990322724139e-01
153 1.4295241206820242e-01 6.6736387942309738e-01 2.3836234021328151e-01
154 1.4350464138786290e-01 4.4092350116669021e-01 4.4383961628617630e-01
155 1.4372061409144876e-01 0.0000000000000000e+00 6.2311030284195812e-01
156 1.4701686557200522e-01 1.0000000000000000e+00 4.0426607532216841e-01
157 1.4915678288403778e-01 1.0000000000000000e+00 3.7380604230384473e-01
158 1.4981826216600458e-01 0.0000000000000000e+00 0.0000000000000000e+00
159 1.5007702742566442e-01 5.8778541362100256e-01 3.6099807262170946e-01
160 1.5043990675421937e-01 1.0000000000000000e+00 1.7407189498197018e-01
161 1.5082784009015138e-01 4.2050084473228566e-01 8.3928506457089180e-01
162 1.5115135718730033e-01 8.5206921249888445e-01 1.8390753195259713e-01
163 1.5177220052715190e-01 3.8698400767802910e-01 5.0222994104898144e-01
164 1.5184057990684741e-01 8.0351494265099155e-01 8.9907445815811560e-01
165 1.5328214292254605e-01 8.4760224037969867e-01 8.6436342185943726e-01
166 1.5373678265428137e-01 7.3581128625402570e-01 3.9631612964782814e-01
167 1.5384101143227236e-01 1.0000000000000000e+00 7.5982694605387591e-01
168 1.5409158537359979e-01 2.4561244821495265e-01 7.3619163477737426e-01
169 1.5434527975357026e-01 3.7380651193400916e-01 3.6937974132784435e-01
170 1.5781732832782980e-01 1.3270733196723461e-01 0.0000000000000000e+00
171 1.5865795268426930e-01 4.8504844602580766e-01 2.4604957530806726e-01
172 1.5886454945225159e-01 4.6836579211934448e-01 7.6276517536348265e-01
173 1.6369103404570717e-01 1.0000000000000000e+00 1.0000000000000000e+00
174 1.6517070120541433e-01 4.0888958776299023e-01 1.0000000000000000e+00
175 1.6591739968128805e-01 0.0000000000000000e+00 3.4915767126746400e-01
176 1.6620636322328708e-01 7.0655768522347551e-01 1.9899971094644608e-01
177 1.6739043732571401e-01 3.6688178921107517e-01 4.0599132113276670e-01
178 1.7020389138085212e-01 7.0800476896162290e-01 8.6315491971253078e-01
179 1.7150810253184212e-01 2.6311478578850234e-01 3.2309724758358438e-01
180 1.7229651611411856e-01 1.3013006599077204e-01 5.5199918377930079e-01
181 1.7326081696054052e-01 8.2547400247355185e-01 8.1732087695245703e-01
182 1.7348292936914755e-01 3.5401926264222128e-01 6.9887311404904096e-01
183 1.7433002186137980e-01 6.1492907215226689e-01 3.0888054272123255e-01
184 1.7559764318053994e-01 1.1838078804962837e-01 4.7140641580425957e-01
185 1.7588797348722940e-01 6.9090478340473360e-01 7.7072012169037618e-01
186 1.7928903679452768e-01 1.1217349875204707e-01 7.0870623061792948e-01
187 1.7955860257656486e-01 1.6810431947828075e-01 6.9951361116509336e-01
188 1.8044220540714639e-01 6.3761280104057771e-01 4.6868070980336496e-01
189 1.8084117732063554e-01 1.5909696495801406e-01 8.0526300767908987e-01
190 1.8192498502048693e-01 5.9554556765027200e-01 1.7556318439599239e-01
191 1.8246592170114107e-01 6.8139108896746448e-01 3.2124487566592519e-01
192 1.8528551502807067e-01 5.1145321730189885e-01 4.3418752409055594e-01
193 1.8573440125518226e-01 5.6018115873121310e-01 8.1628292665020341e-01
194 1.8622586431581001e-01 1.0000000000000000e+00 4.8832516458202135e-01
195 1.8633024270375087e-01 8.6930797476193611e-01 6.8325143591833892e-01
196 1.8752577762145328e-01 5.5465374249144972e-01 2.0146741958721670e-01
197 1.8770465470316655e-01 0.0000000000000000e+00 7.0271655555253132e-01
198 1.8860908918212638e-01 5.1564221439753322e-01 0.0000000000000000e+00
199 1.9003364929362687e-01 7.0562415916872234e-01 5.4797056083256135e-01
200 1.9465144741294937e-01 2.9372153575401683e-01 0.0000000000000000e+00
201 1.9685738394712882e-01 5.7725459949357338e-01 1.5958173094511030e-01
202 1.9758723669677802e-01 1.1045399869357386e-01 3.0225152724328408e-01
203 1.9915523832134430e-01 3.2226727335595640e-01 3.9096440873528426e-01
204 1.9966922512186291e-01 1.0000000000000000e+00 3.7606991781791443e-01
205 2.0011133580686802e-01 6.1602946285687232e-01 2.9603243966222681e-01
206 2.0137658740847519e-01 0.0000000000000000e+00 7.5426932014983794e-01
207 2.0157737154406485e-01 2.5859180464581921e-01 0.0000000000000000e+00
208 2.0192379950297401e-01 0.0000000000000000e+00 8.3888502478650395e-01
209 2.0203101335181872e-01 4.8071141264686879e-01 2.9623822840884628e-01
210 2.0209653511425185e-01 4.7958660529271813e-01 4.8112641692680369e-01
211 2.0221413074202743e-01 4.7001252205017585e-01 3.0627384934352198e-01
212 2.0246666158094750e-01 1.0000000000000000e+00 2.6302853668656101e-01
213 2.0255027060408271e-01 7.6235135454156211e-01 4.8572821328342630e-01
214 2.0311035957773205e-01 5.2334594428460590e-01 1.1122988854527993e-01
215 2.0311284523558459e-01 4.9940258828163753e-01 8.3928165517212583e-01
216 2.0519837458457835e-01 4.4867618243021579e-01 6.5560295600020380e-01
217 2.0651835736086521e-01 4.8523489775372042e-01 1.0000000000000000e+00
218 2.0823209370590923e-01 1.0000000000000000e+00 1.8996468593904747e-01
219 2.0859042949835882e-01 1.3313711471767875e-01 7.3808288561082547e-01
220 2.0873089591876659e-01 2.7606718237360683e-01 5.1842548992183868e-01
221 2.0992764027375810e-01 5.7811197561272276e-01 3.3059189974672176e-01
222 2.1209330479439459e-01 7.9840061626151915e-01 2.2251069840608528e-01
223 2.1253509806424042e-01 7.2003280492682487e-01 1.2571013793025387e-01
224 2.1325992891435042e-01 3.0379781167795328e-01 2.9864850727232450e-01
225 2.1347975958109722e-01 2.9832248335932343e-01 5.9764134140194380e-01
226 2.1538333811744115e-01 0.0000000000000000e+00 8.5220337296056559e-01
227 2.1627718447192834e-01 3.0265654811623344e-01 0.0000000000000000e+00
228 2.1736418139444347e-01 8.6605258968354726e-01 1.5992816756246542e-01
229 2.1809721268439108e-01 6.4349082486474551e-01 5.9782658314300074e-01
230 2.1923358716667851e-01 0.0000000000000000e+00 0.0000000000000000e+00
231 2.2094193380330218e-01 8.6521026819108782e-01 1.8925149500874583e-01
232 2.2161438888858520e-01 4.3547659304565711e-01 1.6006020526193565e-01
233 2.2179293597542560e-01 1.0154977082578553e-01 3.6510157489909401e-01
234 2.2218019186554672e-01 0.0000000000000000e+00 4.5143477361668527e-01
235 2.2513318470873167e-01 2.6701236760851721e-01 1.5754982273429408e-01
236 2.2568122361959753e-01 3.1272370748820333e-01 7.7112434902136484e-01
237 2.2642316962525288e-01 6.8549432674049959e-01 0.0000000000000000e+00
238 2.2798352883710582e-01 6.6298816297406771e-01 1.3400775956249111e-01
239 2.2877862223677403e-01 5.5138517570408885e-01 1.0000000000000000e+00
240 2.2906195859337708e-01 5.1241642781257557e-01 5.3092464991279531e-01
241 2.2947390340610918e-01 4.3916282091806225e-01 6.2950758687766306e-01
242 2.3026987655763831e-01 1.5807353959329606e-01 3.0296059584150070e-01
243 2.3291496049325700e-01 0.0000000000000000e+00 3.2051955523534059e-01
244 2.3295514500716819e-01 1.0000000000000000e+00 0.0000000000000000e+00
245 2.3312697048530506e-01 3.3113777686906010e-01 7.9791506286225389e-01
246 2.3659481048818709e-01 1.7878895647981063e-01 5.1201382537076012e-01
247 2.3764354877981875e-01 8.4191695636467911e-01 1.7441136241295219e-01
248 2.3884285668628935e-01 3.0660781911657520e-01 5.0296107532817191e-01
249 2.3894168951397454e-01 5.8427852513126666e-01 2.6867239014398259e-01
250 2.3899149942092901e-01 8.5568330015273042e-01 1.4428540629997388e-01
251 2.3956650663059942e-01 7.0451032060255558e-01 0.0000000000000000e+00
252 2.4057360990522159e-01 0.0000000000000000e+00 0.0000000000000000e+00
253 2.4209579736343623e-01 8.6144823778283319e-01 5.8098570890581014e-01
254 2.4220660094738899e-01 1.4079700918015803e-01 8.8212249065586645e-01
255 2.4325422762303750e-01 0.0000000000000000e+00 8.0501633077485235e-01
256 2.4458064205571250e-01 4.4216095281355983e-01 8.2851519125112416e-01
257 2.4594647391248836e-01 7.8686173452535235e-01 7.7705021641279648e-01
258 2.4671530748391179e-01 1.0000000000000000e+00 8.2692020471619165e-01
259 2.4936583666440582e-01 3.3680982458755226e-01 8.5247979194939505e-01
260 2.5228446164194795e-01 7.8718496238784164e-01 8.9462824906120209e-01
261 2.5326139730494246e-01 8.9181791628109552e-01 1.0000000000000000e+00
262 2.5501422508881499e-01 1.0000000000000000e+00 4.4471776197032586e-01
263 2.5518644825940662e-01 1.0000000000000000e+00 3.4689140073661484e-01
264 2.5588294175425108e-01 0.0000000000000000e+00 2.6900410353723103e-01
265 2.5589427972485390e-01 6.2440717326021422e-01 2.3304854590073620e-01
266 2.5962038522852515e-01 8.7404886488828826e-01 2.5992570101105017e-01
267 2.6047645298159383e-01 3.2561587508284995e-01 0.0000000000000000e+00
268 2.6079813424325160e-01 2.1773736293887469e-01 0.0000000000000000e+00
269 2.6295556398581210e-01 7.3939058591741957e-01 3.5627611530695602e-01
270 2.6337254256342257e-01 7.9560049474894901e-01 1.6403489336154975e-01
271 2.6392186276800322e-01 0.0000000000000000e+00 1.0989663298331886e-01
272 2.6392983736333420e-01 2.7934756597510435e-01 6.2991447767523689e-01
273 2.6512344401759602e-01 7.6816283342598934e-01 6.1953232573234374e-01
274 2.6528739970161219e-01 5.2762845087186838e-01 8.3650962757941216e-01
275 2.6614243431463325e-01 5.8514629282305997e-01 8.3588018273396847e-01
276 2.6864457618764015e-01 2.7831777512186140e-01 1.0000000000000000e+00
277 2.7012732496569525e-01 5.2875198144531466e-01 0.0000000000000000e+00
278 2.7191149051813357e-01 4.3522053205634359e-01 7.8586097624820273e-01
279 2.7249416851844854e-01 8.1791925581094893e-01 7.2115049590324432e-01
280 2.7273750382604955e-01 7.1374524609181522e-01 1.4434106735533092e-01
281 2.7283834161189424e-01 4.9481643787074348e-01 1.3802098666446916e-01
282 2.7481401794563742e-01 8.0933814866652320e-01 0.0000000000000000e+00
283 2.7536080808767449e-01 0.0000000000000000e+00 0.0000000000000000e+00
284 2.7767976060026933e-01 1.8625605592289407e-01 8.3358309473967707e-01
285 2.7829709524156976e-01 1.5708997257600543e-01 3.7800675244387949e-01
286 2.7849618814048882e-01 2.7737042910823462e-01 8.3004956689767051e-01
287 2.7855589858530394e-01 8.8997118245439644e-01 0.0000000000000000e+00
288 2.7904739266308620e-01 8.9949541535146726e-01 4.0393211088971703e-01
289 2.8225050610375246e-01 0.0000000000000000e+00 6.1461138820569861e-01
290 2.8230825166757478e-01 6.0140855384323832e-01 0.0000000000000000e+00
291 2.8351693473288309e-01 6.7505420317303633e-01 3.9219992931254166e-01
292 2.8355473795451680e-01 1.9805845037937875e-01 4.2734369816096351e-01
293 2.8373865433142587e-01 2.7522562103313652e-01 5.2166115412590308e-01
294 2.8386560651765957e-01 3.4923154986755678e-01 8.4109059689572485e-01
295 2.8395008705904934e-01 3.8240676093528292e-01 0.0000000000000000e+00
296 2.8414235388575459e-01 1.0000000000000000e+00 1.2776214833250443e-01
297 2.8530640567599530e-01 0.0000000000000000e+00 1.6507391629806223e-01
298 2.8576148205871277e-01 6.5589664794296720e-01 2.9088506155968730e-01
299 2.8924899916686186e-01 5.5580084037040822e-01 3.3415443210857354e-01
300 2.8944742741544038e-01 6.0855026733591067e-01 6.7957479161946321e-01
301 2.8982605629901859e-01 4.8536032905888615e-01 8.4185813757283812e-01
302 2.9078734396525829e-01 1.4383980083329706e-01 2.3177954674451651e-01
303 2.9089967394528693e-01 3.9175539708770479e-01 6.8504550880864723e-01
304 2.9128397153265895e-01 3.2219103357953349e-01 5.3526975495883844e-01
305 2.9311023829196281e-01 2.0440350784768735e-01 1.6080204197859793e-01
306 2.9386902538486492e-01 2.3262590213983736e-01 8.4708654902285363e-01
307 2.9457955237634970e-01 3.5541074952001983e-01 3.7859560038973816e-01
308 2.9471608713634889e-01 5.9054216351122080e-01 2.6648702751671616e-01
309 2.9500238505804188e-01 8.1055743829889970e-01 8.4812265279266108e-01
310 2.9532898431934895e-01 5.0536347429209694e-01 4.0395119748467623e-01
311 2.9549580943044040e-01 1.5396820052665505e-01 0.0000000000000000e+00
312 2.9658209163572047e-01 0.0000000000000000e+00 0.0000000000000000e+00
313 2.9673531596139313e-01 4.3523517261501299e-01 5.0954278252508267e-01
314 2.9812320817103954e-01 1.0000000000000000e+00 4.6362838685666119e-01
315 2.9953460801698883e-01 5.9073721891271325e-01 2.3034390395669679e-01
316 2.9955713632041814e-01 1.0000000000000000e+00 3.9364569555435824e-01
317 2.9956504656995919e-01 3.9334252754226451e-01 7.8812959806863714e-01
318 2.9974150678061062e-01 8.3813964155000931e-01 2.7986035938703624e-01
319 2.9974951253809434e-01 3.9515585173993384e-01 7.8645239886544682e-01
320 3.0163827744830796e-01 7.5020416625014097e-01 6.4973437250497945e-01
321 3.0240101331587854e-01 2.4772549095409435e-01 5.7144483387937928e-01
322 3.0254007333175426e-01 4.1764006960439570e-01 3.6627522888548292e-01
323 3.0313761260775063e-01 8.8904360026701734e-01 5.1048323040058585e-01
324 3.0429754971454892e-01 0.0000000000000000e+00 4.5328219193100827e-01
325 3.0437551611753577e-01 6.2337331525116779e-01 5.3512364176394256e-01
326 3.0491891697632323e-01 1.0000000000000000e+00 2.1043203521395470e-01
327 3.0514321690562607e-01 1.0285391776685293e-01 5.2258037194470830e-01
328 3.0529120353232797e-01 4.3108875727584595e-01 2.7485209499472574e-01
329 3.0682040288202994e-01 8.9301137751841231e-01 2.4369138643645605e-01
330 3.0824984623798279e-01 3.5099265177989913e-01 0.0000000000000000e+00
331 3.0997574539001027e-01 5.5059453885144249e-01 1.0000000000000000e+00
332 3.1120928614672905e-01 0.0000000000000000e+00 4.2338019244375324e-01
333 3.1191364255106646e-01 5.6920439510445531e-01 4.8134530343294413e-01
334 3.1192031863193181e-01 8.9575059561868009e-01 5.4003673595892265e-01
335 3.1275503935385418e-01 1.0000000000000000e+00 5.4115148984459116e-01
336 3.1634812398968148e-01 3.7022706692360263e-01 3.9316849116092834e-01
337 3.1676183351302767e-01 2.1615638287056627e-01 1.0000000000000000e+00
338 3.1732682273085766e-01 7.0377052196282697e-01 1.0000000000000000e+00
339 3.1809983332110947e-01 3.7855637747926785e-01 1.9443201877351779e-01
340 3.1848519128288832e-01 3.1427216249897971e-01 4.7053008109090555e-01
341 3.1906333772798656e-01 0.0000000000000000e+00 1.0000000000000000e+00
342 3.2035857255014333e-01 2.0329174198319511e-01 1.0000000000000000e+00
343 3.2055238552062815e-01 0.0000000000000000e+00 5.2742478308738139e-01
344 3.2088053212652234e-01 1.0000000000000000e+00 4.5036574446237609e-01
345 3.2151655353023789e-01 1.0000000000000000e+00 2.9970631264766656e-01
346 3.2369977694355867e-01 4.1280321489418337e-01 1.0000000000000000e+00
347 3.2395703638632622e-01 5.0677550241171820e-01 6.5926301297207257e-01
348 3.2430882133837025e-01 1.4446978315336623e-01 4.3746625026374863e-01
349 3.2446101064037836e-01 1.5002039222183994e-01 8.8763734435271902e-01
350 3.2457643905707589e-01 1.0000000000000000e+00 5.7605124457124890e-01
351 3.2458298754137183e-01 8.6654066531844354e-01 4.8067418218804514e-01
352 3.2514537279239053e-01 4.8112723353216014e-01 1.0000000000000000e+00
353 3.2612677598287765e-01 2.5682617261917806e-01 6.9407952625718838e-01
354 3.2761268646967290e-01 7.8873000472433541e-01 6.6486481585035684e-01
355 3.2796891759614033e-01 0.0000000000000000e+00 1.5861148057031793e-01
356 3.2911956039315526e-01 4.3067971790070747e-01 7.7239496055957635e-01
357 3.3181337199789840e-01 3.3501671170987868e-01 3.7508137607269454e-01
358 3.3227630447815781e-01 2.4984868170142260e-01 4.7620062745247504e-01
359 3.3285079261976702e-01 7.6444297648578374e-01 4.0238901565669638e-01
360 3.3306162488503288e-01 6.8846794117093468e-01 7.8352739963205931e-01
361 3.3392678590696279e-01 6.6146250658347050e-01 3.3754615285340372e-01
362 3.3409660608739444e-01 0.0000000000000000e+00 5.8227637701195789e-01
363 3.3704201891855612e-01 7.4231345686006500e-01 1.7337239579662700e-01
364 3.3759345550309527e-01 7.5601310027306090e-01 1.6401296048796599e-01
365 3.3873333182295884e-01 6.2261557418394919e-01 3.7874880137783540e-01
366 3.3939498010188496e-01 8.9954965873477122e-01 1.0000000000000000e+00
367 3.3949530346515733e-01 0.0000000000000000e+00 4.9873350280879636e-01
368 3.3975645685205058e-01 1.6609063348879249e-01 8.4155727116838319e-01
369 3.4230663529337102e-01 6.0245203097229627e-01 1.0730216676109983e-01
370 3.4323467968155974e-01 8.4843906839701311e-01 5.2434164009403139e-01
371 3.4367000653210555e-01 7.0813788054039262e-01 1.4345859129472283e-01
372 3.4643119016143209e-01 0.0000000000000000e+00 1.4107819627657969e-01
373 3.4955728270643827e-01 7.0361401097330933e-01 8.8688493202681018e-01
374 3.4982936586961733e-01 0.0000000000000000e+00 2.3366887935512248e-01
375 3.5254847642260190e-01 0.0000000000000000e+00 7.4080300686266221e-01
376 3.5304541896293906e-01 6.9232449860649470e-01 0.0000000000000000e+00
377 3.5417842069523486e-01 2.3864115092184424e-01 2.2721870864957672e-01
378 3.5433656638452715e-01 7.3149171704290272e-01 2.4234339812980099e-01
379 3.5450286695094746e-01 2.8788246453702293e-01 3.2876383642338447e-01
380 3.6054980180178076e-01 5.3882725815780308e-01 2.7967983390338713e-01
381 3.6102777206741699e-01 2.4858968422382699e-01 4.0781514671479036e-01
382 3.6172261942824724e-01 3.2459198614259510e-01 5.9471478991512161e-01
383 3.6323365495876903e-01 1.0000000000000000e+00 7.0809380213015161e-01
384 3.6390152751485905e-01 1.0000000000000000e+00 3.6286095503552274e-01
385 3.6432052761337275e-01 4.3098517505711487e-01 1.2037642810161486e-01
386 3.6456383884829213e-01 4.5174124177893826e-01 7.6357703950970002e-01
387 3.6598970375411699e-01 1.0000000000000000e+00 1.8095477871970878e-01
388 3.6883642748204160e-01 1.2376247645121086e-01 1.3211350696744217e-01
389 3.6954406312046606e-01 7.0157805545162177e-01 1.9060294238572251e-01
390 3.6962553546226740e-01 1.0000000000000000e+00 7.8734012374528861e-01
391 3.7014173961002461e-01 5.4167385419251746e-01 4.5796017029963410e-01
392 3.7181173643044030e-01 6.5482720368557568e-01 2.0798819900344512e-01
393 3.7350027744351133e-01 7.7045841534153547e-01 5.9986179583562016e-01
394 3.7377240450227855e-01 2.0643065180382425e-01 8.7603125634507761e-01
395 3.7475705481426314e-01 6.5686350655648040e-01 5.0471401984793252e-01
396 3.7523793340914846e-01 0.0000000000000000e+00 1.0000000000000000e+00
397 3.7605775372885231e-01 8.8119161258890966e-01 8.4738196961196799e-01
398 3.7689621464465828e-01 1.0000000000000000e+00 6.7384127092979607e-01
399 3.7771063412926342e-01 4.0048609428364057e-01 2.4930969657485091e-01
400 3.7846094021204679e-01 7.2419886261931599e-01 3.5170405428284868e-01
401 3.7863130980269344e-01 5.0556305324918271e-01 8.2677963555524614e-01
402 3.8291369246657037e-01 5.3571241240481593e-01 6.7598559626072285e-01
403 3.8418808788639758e-01 0.0000000000000000e+00 2.9305924513655157e-01
404 3.8419892606373118e-01 1.0000000000000000e+00 2.9628533309033778e-01
405 3.8583131461730802e-01 3.5781872772214784e-01 2.3029698309424784e-01
406 3.8675295309407587e-01 7.6047785220798603e-01 1.0000000000000000e+00
407 3.8783130894665863e-01 6.6256699554188137e-01 1.6115407076185506e-01
408 3.8827681664290870e-01 6.2640596438796436e-01 5.1478225894366425e-01
409 3.8988963727537584e-01 8.8955614243943493e-01 4.9912117631585318e-01
410 3.9020781892313061e-01 8.1385416284757139e-01 7.2446570044985970e-01
411 3.9159644279462069e-01 4.9210934547099738e-01 2.0549765854267832e-01
412 3.9178897753473529e-01 0.0000000000000000e+00 1.2144284225529978e-01
413 3.9371022305709458e-01 8.4393848279027261e-01 5.8162841067596183e-01
414 3.9406482435579859e-01 7.0347594441959405e-01 0.0000000000000000e+00
415 3.9433898002964052e-01 1.0534774586579865e-01 8.5649717928886837e-01
416 3.9525705557213975e-01 2.9831403152678060e-01 5.4542867315473964e-01
417 3.9597263272159489e-01 3.8537217906123911e-01 1.2850182196682725e-01
418 3.9748413750364364e-01 5.3808220227235637e-01 4.1537300663361032e-01
419 4.0241979400256056e-01 1.2412366739056413e-01 5.3537564773752644e-01
420 4.0284861560276730e-01 5.3988067518118987e-01 5.9542405250151187e-01
421 4.0438198729231201e-01 2.6876287228126139e-01 5.7712554503324220e-01
422 4.0492361180489200e-01 0.0000000000000000e+00 4.5812499629812986e-01
423 4.0493202101910764e-01 2.4998822462972625e-01 5.6204487380510271e-01
424 4.0603271554241382e-01 8.0435093022178383e-01 1.8894082447787919e-01
425 4.0728969496655310e-01 2.1762020200323196e-01 6.1048252374470946e-01
426 4.0786090304510203e-01 7.2122938363747358e-01 3.7714254514600654e-01
427 4.0827204126258243e-01 6.3040374673648980e-01 4.2912003419024625e-01
428 4.0892085380337362e-01 4.8365608520985537e-01 1.0000000000000000e+00
429 4.0903831684747294e-01 8.9995898910322014e-01 7.4993058941728719e-01
430 4.0976327335838636e-01 0.0000000000000000e+00 2.5586691613043155e-01
431 4.1017064168189543e-01 7.7271141492514417e-01 1.3787995966778410e-01
432 4.1291514128857443e-01 4.4912803377916422e-01 4.1649482498046020e-01
433 4.1309003325566596e-01 6.0454961395155205e-01 8.5217683278467138e-01
434 4.1464770562221342e-01 8.2089553175715879e-01 4.7906059503452503e-01
435 4.1700773625555965e-01 3.1822529721178772e-01 7.3762463149736124e-01
436 4.1766729155678939e-01 5.1439137110872912e-01 3.2910736466753820e-01
437 4.2360899063435797e-01 2.0266696702344700e-01 4.7455396453347121e-01
438 4.2573112287574266e-01 4.8552007915568585e-01 6.0083191535337599e-01
439 4.3010785196149437e-01 0.0000000000000000e+00 4.9890766887590021e-01
440 4.3102064529740847e-01 1.0000000000000000e+00 0.0000000000000000e+00
441 4.3148748582303187e-01 3.2620094308116776e-01 2.3829175512229472e-01
442 4.3281347967539796e-01 8.0851149792317312e-01 1.5386385182771822e-01
443 4.3428886647957143e-01 8.9493991528386196e-01 1.1080440414843140e-01
444 4.3448899806089292e-01 1.2962539707159593e-01 8.3459071154624265e-01
445 4.3449486848941565e-01 7.6800345009885052e-01 2.9222723527412497e-01
446 4.3451847568994084e-01 5.4266179900820011e-01 6.0135803985659364e-01
447 4.3728963622224537e-01 0.0000000000000000e+00 7.5077917406845018e-01
448 4.3844157933505423e-01 0.0000000000000000e+00 8.5680173026130535e-01
449 4.4114570882572957e-01 1.8574435795423327e-01 5.6472391441320091e-01
450 4.4173493685990428e-01 1.4786910185756730e-01 2.9387060995611225e-01
451 4.4244681311174860e-01 7.6660601765535785e-01 1.0000000000000000e+00
452 4.4270422665804077e-01 7.5960970462767119e-01 0.0000000000000000e+00
453 4.4645885202825752e-01 8.9178636069963046e-01 7.8604800043969203e-01
454 4.4670893129400957e-01 7.0825567849785831e-01 2.0807806378490290e-01
455 4.4799550985396130e-01 4.3549003794802121e-01 5.2773044619947218e-01
456 4.4930324972069358e-01 6.3260736127897021e-01 1.9673575280047972e-01
457 4.4932179606668587e-01 1.8633874277399620e-01 4.0831697104792841e-01
458 4.5038876024394037e-01 6.8676601178603403e-01 6.8175456935227396e-01
459 4.5151277959620573e-01 4.1955295422867178e-01 0.0000000000000000e+00
460 4.5196098758335368e-01 1.0000000000000000e+00 1.9565021590615217e-01
461 4.5555053243290156e-01 8.1432943738754437e-01 6.2373310476231669e-01
462 4.5611397969723999e-01 0.0000000000000000e+00 8.1995908928772177e-01
463 4.5646787605802297e-01 8.9602109388251816e-01 8.4540809993631139e-01
464 4.5725485984322700e-01 2.6457495108934226e-01 8.0844484051601417e-01
465 4.5772871418189509e-01 0.0000000000000000e+00 0.0000000000000000e+00
466 4.5781252521974602e-01 7.1602243980163172e-01 3.7741205448274973e-01
467 4.5925802205400945e-01 6.8753355677900396e-01 1.0694774650375316e-01
468 4.6234331600346679e-01 3.5536534844523204e-01 7.5683194080285132e-01
469 4.6555454783443861e-01 3.3919874587381960e-01 4.0421991529359524e-01
470 4.6576890185610131e-01 1.6662171839623630e-01 4.9104980697958045e-01
471 4.6652632204963129e-01 2.9485177679767516e-01 7.5628993475236073e-01
472 4.6676248142092647e-01 2.5779992389634010e-01 4.6142709500918011e-01
473 4.6714632065418604e-01 1.0000000000000000e+00 3.8164973229056287e-01
474 4.6774779518928522e-01 7.6407513416379236e-01 7.4016393771319910e-01
475 4.6823872060013849e-01 2.7852350631130407e-01 7.9701857518316632e-01
476 4.6859734261654484e-01 3.8607630612408783e-01 1.0000000000000000e+00
477 4.6982178216948045e-01 0.0000000000000000e+00 1.0000000000000000e+00
478 4.7066064655030093e-01 7.3602447251131153e-01 2.0113743881027424e-01
479 4.7156513070875183e-01 1.2036846496431419e-01 1.0000000000000000e+00
480 4.7302458848663287e-01 2.4683678588116020e-01 2.3828531913288398e-01
481 4.7348944755378597e-01 8.3569757723726013e-01 0.0000000000000000e+00
482 4.7643920336204459e-01 4.5653286636493595e-01 6.6696093317908633e-01
483 4.7818211541300926e-01 3.0621676757385086e-01 6.5857808442794752e-01
484 4.7993380841683686e-01 1.3709324578936299e-01 2.9931865133502267e-01
485 4.8222521949150399e-01 2.0029917086777482e-01 1.0000000000000000e+00
486 4.8329369050986315e-01 5.7366919906835445e-01 3.6029542604103049e-01
487 4.8393667569312693e-01 4.7859872097054079e-01 4.9200600948692375e-01
488 4.8478195619909825e-01 7.2326193326799693e-01 3.7698621123339759e-01
489 4.8638520559461562e-01 1.8045933261078939e-01 8.8628337307440752e-01
490 4.8685693755539494e-01 3.1881919050598961e-01 4.9775979127867931e-01
491 4.8711595774667793e-01 1.0000000000000000e+00 8.9842624438595853e-01
492 4.8748284585664492e-01 1.0000000000000000e+00 3.8105977107911049e-01
493 4.8789686966993095e-01 3.6806713556990100e-01 4.3524974448469045e-01
494 4.9050677134465492e-01 2.6008043019901739e-01 5.8892261475073027e-01
495 4.9304098788726447e-01 5.4961265728368525e-01 5.8575559649179221e-01
496 4.9308106408260199e-01 3.0688775728817363e-01 8.4587924568239781e-01
497 4.9432463317051012e-01 3.3359900600292103e-01 7.2327745022358458e-01
498 4.9506626014122612e-01 1.0000000000000000e+00 1.0000000000000000e+00
499 5.0129609967264988e-01 1.5750660941016825e-01 1.8138360226695172e-01
500 5.0254206834102599e-01 6.3687059115037259e-01 1.0000000000000000e+00
501 5.0262619403754172e-01 1.4412861763280327e-01 5.4985424232717317e-01
502 5.0303776640307207e-01 4.7809840803487658e-01 1.0000000000000000e+00
503 5.0478691738486925e-01 4.6876291652517021e-01 0.0000000000000000e+00
504 5.0681793869346692e-01 2.4903336897271688e-01 8.9181927145314899e-01
505 5.0745468258330861e-01 7.4717095178939330e-01 3.0263875846400434e-01
506 5.0747902291951430e-01 4.6904529764082847e-01 1.0000000000000000e+00
507 5.0787264329306259e-01 2.2679068224682286e-01 1.7047149506594284e-01
508 5.0792617873908141e-01 1.0000000000000000e+00 4.1784976337252666e-01
509 5.0960351853585806e-01 4.2857948649809408e-01 4.2504816505906406e-01
510 5.1080251895699658e-01 4.3959680678407209e-01 8.7820876305652396e-01
511 5.1105291632586702e-01 1.5852817988274448e-01 4.7651631503977410e-01
512 5.1218291760697920e-01 2.7897357818492208e-01 8.9423393647777327e-01
513 5.1288670946634962e-01 8.9443935567084665e-01 1.0000000000000000e+00
514 5.1463348868544134e-01 5.9943537389587387e-01 2.3166961499713024e-01
515 5.1496026712394305e-01 7.5567007757994742e-01 2.5477927540287926e-01
516 5.1538878602631510e-01 6.2785832040118117e-01 0.0000000000000000e+00
517 5.1556065132855389e-01 3.0312340809411564e-01 5.2694151567824010e-01
518 5.1609448532197422e-01 1.0096324599029172e-01 5.1630321019952552e-01
519 5.1640734514649334e-01 6.6887826993547006e-01 7.9952769069028640e-01
520 5.1776295565578656e-01 8.2980853757062911e-01 2.7714608113258521e-01
521 5.1799286530253030e-01 0.0000000000000000e+00 0.0000000000000000e+00
522 5.1928614073408952e-01 0.0000000000000000e+00 1.8753320794218153e-01
523 5.2029546808674454e-01 7.9577767544182487e-01 1.9943068762379190e-01
524 5.2068853923859659e-01 0.0000000000000000e+00 4.6424029780651455e-01
525 5.2191994180210122e-01 7.6512481306889280e-01 1.4571725258757207e-01
526 5.2247437141205422e-01 8.5411797066763606e-01 7.0175577951487189e-01
527 5.2375476933803833e-01 2.4908940484254360e-01 6.0551395764584515e-01
528 5.2378272205899734e-01 6.3398730655093716e-01 6.6648599679593978e-01
529 5.2403236561393485e-01 2.0796681887319179e-01 7.2694984721430123e-01
530 5.2521139865449495e-01 1.0000000000000000e+00 0.0000000000000000e+00
531 5.2563266610584392e-01 8.8917968210689113e-01 1.5042493130557011e-01
532 5.2670336499310888e-01 3.7422063031787067e-01 1.0890446610627780e-01
533 5.2755695517220824e-01 6.1625549986861750e-01 6.2336321341642620e-01
534 5.2969932148642784e-01 0.0000000000000000e+00 3.8093002559050682e-01
535 5.3041846873567888e-01 7.3182222899822191e-01 0.0000000000000000e+00
536 5.3043835105770598e-01 0.0000000000000000e+00 1.3079660874916821e-01
537 5.3066170985730421e-01 5.9655431558371208e-01 0.0000000000000000e+00
538 5.3079626649775913e-01 7.8145238077868773e-01 6.0375500533926796e-01
539 5.3403735845043965e-01 4.3823298458933757e-01 6.8110520974615518e-01
540 5.3404203527842264e-01 8.3931119933810017e-01 1.9344888489255774e-01
541 5.3450406270400674e-01 0.0000000000000000e+00 5.8100057451368625e-01
542 5.3476830558628430e-01 8.5450393089234766e-01 3.6803738444629119e-01
543 5.3586487221842261e-01 8.8224600768165595e-01 6.0483236876022128e-01
544 5.3656742216589748e-01 6.4576668029048245e-01 1.6650068018498654e-01
545 5.3750930201855640e-01 2.0811824979828131e-01 2.6905423013623520e-01
546 5.3805981317576734e-01 5.0447156098785018e-01 0.0000000000000000e+00
547 5.3831101235779577e-01 7.8462125099020674e-01 4.9313078407065991e-01
548 5.3834570604325427e-01 2.2172794299166088e-01 6.3824814614120873e-01
549 5.3904307798734996e-01 4.9954837902206273e-01 2.6787606675156239e-01
550 5.4070470385829550e-01 4.2342379417007769e-01 5.6157141863224669e-01
551 5.4254673344854154e-01 1.7885116523625910e-01 1.4303494522995386e-01
552 5.4652213205817202e-01 6.2937007726066485e-01 7.9761954995297446e-01
553 5.4695564029456090e-01 4.7230841840998183e-01 6.5396029387581334e-01
554 5.4697623345840451e-01 8.6986269079753731e-01 6.6532160576694910e-01
555 5.4826224532608370e-01 1.6909649624806455e-01 4.6282378777998856e-01
556 5.5111388778241954e-01 1.6354600327901392e-01 1.0000000000000000e+00
557 5.5266380462680542e-01 3.0293306011798415e-01 8.9961757287852950e-01
558 5.5483075056021991e-01 2.8466378724243779e-01 1.0000000000000000e+00
559 5.5911058092610066e-01 7.5051841520991369e-01 7.7526610412443486e-01
560 5.5965682590412669e-01 2.3889446237920087e-01 0.0000000000000000e+00
561 5.5978257161153477e-01 1.7773219736928580e-01 0.0000000000000000e+00
562 5.6044675556656254e-01 5.5246769772266491e-01 4.7581151212375739e-01
563 5.6113620225067007e-01 1.0000000000000000e+00 3.0550229731949308e-01
564 5.6122962647154295e-01 2.9842264665229878e-01 0.0000000000000000e+00
565 5.6500274034110021e-01 1.7754234585693662e-01 3.3654006734317377e-01
566 5.6518197923803604e-01 5.9765734502163337e-01 4.5729409476099769e-01
567 5.6552687349749220e-01 7.0761882683303023e-01 1.7226357429167127e-01
568 5.6560689325599867e-01 2.7483540919774241e-01 1.0000000000000000e+00
569 5.6571828432562943e-01 7.1193644261063505e-01 5.4493180378083561e-01
570 5.6921102991206296e-01 2.6889232137735364e-01 8.7544488141799781e-01
571 5.6963488188109312e-01 7.0225410803718713e-01 4.0460149468819973e-01
572 5.7085212848543299e-01 8.8282878374946794e-01 7.3616018449174347e-01
573 5.7164481057325045e-01 5.7014482932278754e-01 2.4874090887843259e-01
574 5.7506062769595556e-01 0.0000000000000000e+00 3.1863107485686060e-01
575 5.7619781903349121e-01 0.0000000000000000e+00 5.5638475070509552e-01
576 5.7667798430421913e-01 2.6860676285740614e-01 6.6839709691955240e-01
577 5.7842740534224768e-01 1.6638211353033083e-01 1.0000000000000000e+00
578 5.7887322716566136e-01 6.7438492501443226e-01 5.0019259036936847e-01
579 5.7924355432908314e-01 7.4838501989364159e-01 7.0356918166171523e-01
580 5.8045334524963199e-01 7.8923671372199378e-01 8.2097317241119572e-01
581 5.8229434863320240e-01 2.4335466920575777e-01 5.0974450458158416e-01
582 5.8452635468976799e-01 3.5296899972672302e-01 7.6762650792391063e-01
583 5.8488853380879668e-01 5.1783149474789847e-01 8.7922308079961864e-01
584 5.8619428852906441e-01 7.7386922743897602e-01 8.7927310257707292e-01
585 5.8787744116751828e-01 6.3539814970439268e-01 8.0417041728941474e-01
586 5.8982123192844005e-01 0.0000000000000000e+00 1.9997208942011335e-01
587 5.9024597522227884e-01 3.1182366283593044e-01 5.0519368128927766e-01
588 5.9109949824514152e-01 2.3230485587009009e-01 8.7938846973825457e-01
589 5.9139288054376926e-01 5.3716512096298119e-01 1.5542670249793611e-01
590 5.9142902069276959e-01 7.5489097097235691e-01 5.3264561833884172e-01
591 5.9177461515173457e-01 0.0000000000000000e+00 1.0000000000000000e+00
592 5.9226061302891209e-01 3.9638962434245018e-01 0.0000000000000000e+00
593 5.9292028105496630e-01 2.2675744218634775e-01 0.0000000000000000e+00
594 5.9663504614953133e-01 3.6761238990391965e-01 5.9600820700774326e-01
595 5.9738467271846174e-01 0.0000000000000000e+00 7.6163439232912133e-01
596 5.9950491973297759e-01 2.4963323638511192e-01 0.0000000000000000e+00
597 5.9990594330274438e-01 5.9551005330904494e-01 0.0000000000000000e+00
598 6.0121076576547938e-01 5.2089413849564203e-01 1.7415660972239200e-01
599 6.0183170203375458e-01 2.1763969558301610e-01 1.2412451201487407e-01
600 6.0204028334773019e-01 8.6308577316244073e-01 6.6204784860174137e-01
601 6.0275524647115930e-01 7.0390655428583593e-01 7.5029223988366511e-01
602 6.0397171042897746e-01 3.2864661092055014e-01 6.1072348733416770e-01
603 6.0400403865821561e-01 2.0432940110118847e-01 6.3799414891625650e-01
604 6.0452626389756769e-01 0.0000000000000000e+00 4.1042284352863145e-01
605 6.0597586125306913e-01 8.8406873317045698e-01 0.0000000000000000e+00
606 6.0666420208076677e-01 2.0219826403092644e-01 1.3174247714025011e-01
607 6.0734888378607077e-01 1.0000000000000000e+00 2.0847822876038025e-01
608 6.1020919646288863e-01 1.0000000000000000e+00 7.6819611062939153e-01
609 6.1068897710848158e-01 1.0000000000000000e+00 4.1898620444784007e-01
610 6.1274972612377498e-01 5.3788653221738603e-01 3.3030437759434417e-01
611 6.1275478003461137e-01 0.0000000000000000e+00 4.9128732658345398e-01
612 6.1367946898300951e-01 4.0734379424612865e-01 1.0649413625368520e-01
613 6.1418494039189708e-01 0.0000000000000000e+00 0.0000000000000000e+00
614 6.1972753907989098e-01 5.2897888330847609e-01 3.8299071507568505e-01
615 6.2072852124301792e-01 4.8226238685349399e-01 5.9504684538830988e-01
616 6.2150500033330447e-01 1.2879459588978670e-01 8.6479772820905954e-01
617 6.2244917204868366e-01 0.0000000000000000e+00 3.3699989404428565e-01
618 6.2285505053496348e-01 4.8075474962483322e-01 1.5834385500269366e-01
619 6.2311693191962159e-01 7.4149071408924927e-01 0.0000000000000000e+00
620 6.2389331300103978e-01 4.8831121840009395e-01 0.0000000000000000e+00
621 6.2393054068690257e-01 1.0000000000000000e+00 1.3735306750352183e-01
622 6.2459898922412871e-01 3.0316278470702807e-01 8.9177105253192768e-01
623 6.2634657396594717e-01 7.3310700040038879e-01 5.3030389617348150e-01
624 6.2953623591242036e-01 1.0035897503739222e-01 0.0000000000000000e+00
625 6.3089495232123094e-01 7.2359032351992569e-01 1.5123167516529845e-01
626 6.3224746097755280e-01 8.5647572466624100e-01 7.7436231041182357e-01
627 6.3285246462969336e-01 0.0000000000000000e+00 0.0000000000000000e+00
628 6.3417178906496141e-01 1.9644545221439913e-01 5.7664542224198045e-01
629 6.3441128488599308e-01 5.3224785944951147e-01 7.9357798675634117e-01
630 6.3445150521853133e-01 0.0000000000000000e+00 2.6419503019474300e-01
631 6.3498689242288320e-01 3.3286828509212474e-01 3.6317319971241435e-01
632 6.3567654568445631e-01 3.3331785724332952e-01 3.0865807025011816e-01
633 6.3623738493251458e-01 4.9305453825040324e-01 0.0000000000000000e+00
634 6.3663972450681028e-01 4.4859407814378938e-01 7.9570627931910265e-01
635 6.3759679726876861e-01 5.2760104868861102e-01 8.7844076821603134e-01
636 6.3888428075674319e-01 8.1955518728814480e-01 5.6498801210414662e-01
637 6.4034779446696521e-01 6.3319442001344750e-01 8.7379974765756951e-01
638 6.4133242855462891e-01 7.7920838463529829e-01 7.4182755889061858e-01
639 6.4190405882021040e-01 7.2909542403065009e-01 1.0000000000000000e+00
640 6.4259246217432686e-01 4.5256623187729916e-01 1.0000000000000000e+00
641 6.4438442647748662e-01 7.4697667682062074e-01 0.0000000000000000e+00
642 6.4572236782134984e-01 1.0000000000000000e+00 2.4787798898740432e-01
643 6.4679615739449292e-01 3.5149876329289864e-01 5.3510858262615879e-01
644 6.4808041714128883e-01 1.0000000000000000e+00 6.6462737051570953e-01
645 6.4820852372412907e-01 5.5045353680384268e-01 1.5609768126176438e-01
646 6.4867333282180584e-01 4.5234006906725688e-01 2.1444439690197370e-01
647 6.5298490500903272e-01 8.7646914404741982e-01 3.5976853419682331e-01
648 6.5301326793157333e-01 2.6800829763154710e-01 6.1637847864021145e-01
649 6.5579879353099102e-01 5.1947058637299626e-01 8.6090511875525255e-01
650 6.5751986758955550e-01 7.6564470046863931e-01 7.3521956611875905e-01
651 6.5755267508496384e-01 1.0478134765534719e-01 3.5280532632054773e-01
652 6.5862759724421827e-01 1.0000000000000000e+00 0.0000000000000000e+00
653 6.5871507914792460e-01 0.0000000000000000e+00 1.8692503383629833e-01
654 6.5891349592658044e-01 6.9711728160230546e-01 2.0408554278223168e-01
655 6.6174603379399000e-01 1.0000000000000000e+00 7.3299044237204680e-01
656 6.6293805765705360e-01 3.3851884033105106e-01 1.0000000000000000e+00
657 6.6309812748346553e-01 1.9608084174081619e-01 7.4738001373888496e-01
658 6.6322467422351017e-01 0.0000000000000000e+00 8.8656090466175241e-01
659 6.6524333228505472e-01 7.8544834686339216e-01 4.0104581556911889e-01
660 6.6619607287368332e-01 2.0913255767003025e-01 0.0000000000000000e+00
661 6.6678009883938338e-01 3.6777389747204792e-01 2.9125581094409292e-01
662 6.6780290454977453e-01 2.5044876928748561e-01 7.0838216502612694e-01
663 6.6797393428497109e-01 2.3840520559075407e-01 1.0000000000000000e+00
664 6.7061595753610803e-01 6.4015911144862836e-01 2.5358281730086762e-01
665 6.7063613266444488e-01 1.4638102405753917e-01 5.8620389255773264e-01
666 6.7238640296153784e-01 6.0960589970185208e-01 0.0000000000000000e+00
667 6.7339859172136030e-01 5.0432769839780700e-01 1.0000000000000000e+00
668 6.7410983794785451e-01 4.3957771734048401e-01 2.9126322650370806e-01
669 6.7424539873078015e-01 0.0000000000000000e+00 3.6843071067144351e-01
670 6.7571293500814344e-01 8.7874917583208823e-01 2.3533025605513025e-01
671 6.7683795143256265e-01 1.0000000000000000e+00 1.8064168122628477e-01
672 6.7854541661283485e-01 3.1651200669644852e-01 8.9301367691894185e-01
673 6.8027332403948870e-01 7.3347792989984384e-01 1.0417230950629441e-01
674 6.8049544607076429e-01 0.0000000000000000e+00 0.0000000000000000e+00
675 6.8056812567266300e-01 4.8674257244063079e-01 6.6398843823975073e-01
676 6.8171590672558025e-01 1.0000000000000000e+00 4.9083577687603974e-01
677 6.8205795060279328e-01 8.8373641432450933e-01 5.5352702761092465e-01
678 6.8331457280079322e-01 6.0784831185980503e-01 5.2163126061001874e-01
679 6.8469535527575365e-01 1.8710032683325728e-01 2.5768475609511476e-01
680 6.8507487835518666e-01 2.2561615580875272e-01 8.0512999719078748e-01
681 6.8535528356912867e-01 2.8463978251392974e-01 4.7076351485199330e-01
682 6.8774063128887575e-01 5.9437502337574166e-01 8.2985413613114511e-01
683 6.8857071167240547e-01 0.0000000000000000e+00 2.2589670789939498e-01
684 6.8866101526041912e-01 3.3734340826726628e-01 1.7364469784827397e-01
685 6.8934786028963624e-01 1.8647510372166065e-01 0.0000000000000000e+00
686 6.9034191698178404e-01 5.6544426342584431e-01 6.6607168371155789e-01
687 6.9135352427608820e-01 0.0000000000000000e+00 5.0123330878966554e-01
688 6.9201462094815636e-01 5.8704720773120644e-01 0.0000000000000000e+00
689 6.9310387915185889e-01 6.1498352665124112e-01 5.4485524432771104e-01
690 6.9482579808536316e-01 3.0893215608436286e-01 2.3723720899912459e-01
691 6.9520065213934623e-01 4.7540913119769523e-01 8.9496141844311305e-01
692 6.9762015673219235e-01 0.0000000000000000e+00 2.0298131800617614e-01
693 6.9843670016514126e-01 4.5292933544885938e-01 1.0000000000000000e+00
694 6.9872599712446126e-01 2.4517508352324813e-01 8.9903892703461885e-01
695 6.9967926759751720e-01 3.3778081146107175e-01 4.0257371044552048e-01
696 7.0267303623401522e-01 2.4388301242581722e-01 0.0000000000000000e+00
697 7.0327655955305379e-01 4.6812776941405843e-01 2.2906675859905445e-01
698 7.0390039488320788e-01 3.4803723565840283e-01 0.0000000000000000e+00
699 7.0445841871685855e-01 7.4395824196464788e-01 4.3687592350767268e-01
700 7.0456861356159584e-01 4.2231856526889300e-01 0.0000000000000000e+00
701 7.0631617590755713e-01 6.9429470764485191e-01 6.7054762232919884e-01
702 7.0672977246222590e-01 8.2788246043887781e-01 5.1857708788008283e-01
703 7.0689983482882623e-01 1.4829932389929568e-01 1.0000000000000000e+00
704 7.0766620719094731e-01 4.2569122691233929e-01 2.7488674477805319e-01
705 7.0777729361576469e-01 5.4633787176269366e-01 1.0000000000000000e+00
706 7.0786366081042540e-01 1.1527717381612079e-01 5.4859560071804547e-01
707 7.0957058055690336e-01 1.8813732955792273e-01 8.8292659994800005e-01
708 7.1154024821085049e-01 0.0000000000000000e+00 6.7669594108489040e-01
709 7.1164010752335594e-01 5.3765037756644929e-01 5.8702010131118187e-01
710 7.1180716540022759e-01 5.6526982876955012e-01 4.0109031663385775e-01
711 7.1445748283789101e-01 1.0000000000000000e+00 1.3399897519110548e-01
712 7.1547517336860023e-01 6.9612521880451672e-01 5.4841702487048061e-01
713 7.1646396432076087e-01 6.2196946592689817e-01 3.2324657538900692e-01
714 7.1735512966050674e-01 1.0000000000000000e+00 3.2092495718223490e-01
715 7.2012163114485916e-01 6.8218369918286270e-01 2.1552302796600609e-01
716 7.2061016336416506e-01 1.6916549582233120e-01 5.5702978809902415e-01
717 7.2177535629665079e-01 5.4238960151501447e-01 5.7360193116188318e-01
718 7.2281235090228713e-01 0.0000000000000000e+00 7.2460946427005912e-01
719 7.2293990503782068e-01 1.0886926423161203e-01 8.4667967091960050e-01
720 7.2334325488114748e-01 1.0000000000000000e+00 2.7015512108759110e-01
721 7.2587706634045090e-01 2.0256252382649020e-01 1.0000000000000000e+00
722 7.2688538569719618e-01 8.7713659491796225e-01 1.1986676241350447e-01
723 7.2936193555316953e-01 0.0000000000000000e+00 4.5010901720010377e-01
724 7.2969439958536597e-01 3.0464205680935397e-01 4.0800818351594015e-01
725 7.2973672713249171e-01 8.2207378293108913e-01 4.1500569122995068e-01
726 7.3029497660754883e-01 8.2177724480362135e-01 3.3577570504091303e-01
727 7.3089466814988135e-01 2.0814805293789740e-01 2.4586467267782419e-01
728 7.3360186222485890e-01 7.0606236174726900e-01 4.0894923601231103e-01
729 7.3388462252655406e-01 5.8802882272771051e-01 2.8330871182528206e-01
730 7.3431179380828493e-01 0.0000000000000000e+00 3.4398592175744758e-01
731 7.3516753803166657e-01 5.2360813682824725e-01 1.4956005174480969e-01
732 7.3601083150211011e-01 1.0000000000000000e+00 3.0839589202009898e-01
733 7.3725441408333703e-01 6.6260124507947038e-01 0.0000000000000000e+00
734 7.3851884814413360e-01 3.9275469374186323e-01 1.0806860025060028e-01
735 7.4081411279575005e-01 7.7389360676461261e-01 1.2533712059764701e-01
736 7.4146875595653139e-01 7.5941277155991516e-01 1.0000000000000000e+00
737 7.4210598313794163e-01 7.4914397946475109e-01 7.1716121576933722e-01
738 7.4213513077838167e-01 8.5804068737486583e-01 8.3805000819440434e-01
739 7.4320867953173952e-01 5.5586314626746813e-01 4.4938290839697559e-01
740 7.4380903409573007e-01 0.0000000000000000e+00 0.0000000000000000e+00
741 7.4423094542123180e-01 1.1174167272297475e-01 0.0000000000000000e+00
742 7.4488977006738377e-01 1.5895952363762444e-01 7.5956363283193917e-01
743 7.4497350262550210e-01 1.0000000000000000e+00 0.0000000000000000e+00
744 7.4807604293518259e-01 8.4528005790283789e-01 2.8132772455760890e-01
745 7.4875177377871904e-01 8.3140759233843087e-01 1.0000000000000000e+00
746 7.4895092042488498e-01 7.9067163637010485e-01 8.3992264382235204e-01
747 7.4898192250042062e-01 7.8009081639309874e-01 7.7616388387594015e-01
748 7.4955995597898317e-01 7.3842277320260119e-01 3.9215706231392056e-01
749 7.5018529712407900e-01 3.3305043966090475e-01 4.7549882434952340e-01
750 7.5197947571704871e-01 2.6305802697320113e-01 5.2266409559580651e-01
751 7.5226743142419383e-01 1.0000000000000000e+00 8.2461748489130682e-01
752 7.5288018293527803e-01 2.1592871884783804e-01 5.5965211649211100e-01
753 7.5464291747307743e-01 3.2492798222011965e-01 3.2764176703324976e-01
754 7.5485880074418166e-01 3.3302250222258079e-01 3.0737068703809189e-01
755 7.5506872394669788e-01 6.2881798706984737e-01 5.7259691129257817e-01
756 7.5510167010739648e-01 5.0362362684933182e-01 3.2055644773067282e-01
757 7.5588744149139908e-01 0.0000000000000000e+00 1.4536331125534352e-01
758 7.5685283094823219e-01 7.2650714992698950e-01 1.8186699910132831e-01
759 7.5720390718052710e-01 1.3945867047798066e-01 4.0244469661608573e-01
760 7.5811913138091713e-01 6.6823202061319498e-01 1.2824486031759330e-01
761 7.5871255341438115e-01 5.6420413748186393e-01 0.0000000000000000e+00
762 7.5954559524366416e-01 4.6599716479823228e-01 4.6337785668119624e-01
763 7.6028546649871487e-01 8.4196358128730808e-01 4.8123333383932565e-01
764 7.6115531042817497e-01 0.0000000000000000e+00 5.9593846475508960e-01
765 7.6133164791702401e-01 1.1969151938410427e-01 7.5258527797004249e-01
766 7.6165150066124720e-01 0.0000000000000000e+00 8.4975277007530070e-01
767 7.6443215311718860e-01 7.4878240285644027e-01 8.8769319304150807e-01
768 7.6448814784440355e-01 5.7311077338119787e-01 5.2641914228855280e-01
769 7.6553540224943972e-01 7.8926107270727131e-01 2.1347684270936917e-01
770 7.6640945158772400e-01 1.0000000000000000e+00 0.0000000000000000e+00
771 7.6697112232512776e-01 1.0000000000000000e+00 6.4343778359045911e-01
772 7.6715196374765338e-01 1.5155783237723619e-01 4.0593069027349094e-01
773 7.6873752125647077e-01 5.0579270748496619e-01 3.5980846398825150e-01
774 7.7093660554111165e-01 0.0000000000000000e+00 2.7923424550995524e-01
775 7.7156919547363767e-01 6.9595144383317931e-01 1.0585203095493645e-01
776 7.7305214728815186e-01 0.0000000000000000e+00 6.0921781316898627e-01
777 7.7430436657357626e-01 8.0007831447739486e-01 7.8925773005736222e-01
778 7.7456668737783063e-01 4.1872239091172292e-01 1.7533447862617757e-01
779 7.7476091919221068e-01 1.0000000000000000e+00 5.6339512328354557e-01
780 7.7557010060254694e-01 0.0000000000000000e+00 1.0000000000000000e+00
781 7.7650093509686879e-01 1.5481041432923370e-01 0.0000000000000000e+00
782 7.7727473988980988e-01 1.0000000000000000e+00 7.6463201438922712e-01
783 7.7730318281881905e-01 5.8070720976929668e-01 6.1396083080489861e-01
784 7.7793432842182841e-01 6.0902767036400707e-01 1.0000000000000000e+00
785 7.7822928404679004e-01 2.7378419451293812e-01 8.4575726496622350e-01
786 7.7870068390800307e-01 3.6036421982168676e-01 8.3992305051190796e-01
787 7.8337613405763062e-01 5.7925069500079196e-01 4.4629958842119100e-01
788 7.8472849158845970e-01 6.4071143345071746e-01 2.9189955738600748e-01
789 7.8660094012709514e-01 2.7491098295699834e-01 1.0000000000000000e+00
790 7.8921617935481114e-01 2.6065449301481336e-01 0.0000000000000000e+00
791 7.8929608061634082e-01 0.0000000000000000e+00 0.0000000000000000e+00
792 7.9221806691070762e-01 8.9080087092481408e-01 5.7559450215380581e-01
793 7.9241285151638519e-01 4.7484961935623360e-01 5.7483263403605600e-01
794 7.9340544435214955e-01 1.2348862762116164e-01 7.0130557935653837e-01
795 7.9377051240491858e-01 0.0000000000000000e+00 8.8287663867257204e-01
796 7.9426233993431172e-01 1.0972270072532730e-01 6.3396177054534419e-01
797 7.9702690124098985e-01 0.0000000000000000e+00 6.6339464280479099e-01
798 7.9716711414012043e-01 1.5594018902845341e-01 0.0000000000000000e+00
799 7.9716942287250236e-01 8.6995586458797391e-01 1.5925420857227057e-01
800 7.9913567192102453e-01 1.4975470419337689e-01 2.4626094824351896e-01
801 8.0035104492392506e-01 4.3266301075349145e-01 2.6132191569779584e-01
802 8.0258275484216957e-01 2.2547805680516553e-01 8.3344122284719513e-01
803 8.0370704885334432e-01 4.0596341198155184e-01 3.2285623281656661e-01
804 8.0681682816666711e-01 0.0000000000000000e+00 7.1289584154054386e-01
805 8.0801607254323293e-01 8.6470662596479742e-01 1.0000000000000000e+00
806 8.1048948513504815e-01 1.0000000000000000e+00 8.7645232928920269e-01
807 8.1084322944233977e-01 1.4320221109390385e-01 8.3807728911947743e-01
808 8.1154050575248304e-01 3.4379218319523808e-01 2.8334422352416200e-01
809 8.1196587112637719e-01 5.7629776903290419e-01 0.0000000000000000e+00
810 8.1213178940266317e-01 1.3594275641937359e-01 7.6887831063626599e-01
811 8.1490424431489350e-01 7.7951036789109618e-01 0.0000000000000000e+00
812 8.1654696329955045e-01 4.1125415165060908e-01 5.5911042089239316e-01
813 8.1746649075092526e-01 0.0000000000000000e+00 8.3926244319282661e-01
814 8.2008792861382596e-01 4.6089600656377760e-01 1.3121251779554399e-01
815 8.2099883690720754e-01 5.6039035488217714e-01 1.0000000000000000e+00
816 8.2108660548128398e-01 0.0000000000000000e+00 6.1603172120842287e-01
817 8.2354842534216210e-01 2.7394627399886562e-01 5.8946170147890598e-01
818 8.2405163759354272e-01 1.0000000000000000e+00 1.2860389726879196e-01
819 8.2512113583697200e-01 8.5764238612230970e-01 0.0000000000000000e+00
820 8.2517278217094170e-01 6.1769166373904716e-01 2.0540124054913711e-01
821 8.2613182185879674e-01 3.6194276828540628e-01 7.4999405105072614e-01
822 8.2627902480678439e-01 8.2996061386277409e-01 6.8229760137932882e-01
823 8.2667176710276002e-01 1.7596060781474931e-01 2.3249858372353227e-01
824 8.2671880094957528e-01 2.0294316013147362e-01 0.0000000000000000e+00
825 8.2798925795261180e-01 5.1891705787434872e-01 8.5475035593007975e-01
826 8.2869005934862316e-01 2.3052240445780414e-01 4.6611292683679528e-01
827 8.2888634087903390e-01 0.0000000000000000e+00 4.8270642098263028e-01
828 8.3265432167747744e-01 4.6792808250020734e-01 7.0684067675327045e-01
829 8.3310821322524020e-01 0.0000000000000000e+00 2.8517514611237127e-01
830 8.3457487251111973e-01 5.1113868290615261e-01 6.2059988359207785e-01
831 8.3615389198684131e-01 8.7475699005697771e-01 6.0887449454736642e-01
832 8.3927282992440999e-01 3.8079493961730426e-01 2.0791321875959079e-01
833 8.3996918520253216e-01 8.8945220105464184e-01 1.2775689054327621e-01
834 8.4027620232569966e-01 3.0661271645698107e-01 4.2818982091298907e-01
835 8.4062196914121767e-01 0.0000000000000000e+00 1.0000000000000000e+00
836 8.4098994238179681e-01 1.0000000000000000e+00 6.6534438193585699e-01
837 8.4133046463186201e-01 3.6369733133148208e-01 4.2833999575389770e-01
838 8.4223985774932075e-01 1.0000000000000000e+00 1.0000000000000000e+00
839 8.4239216323604271e-01 1.9144953099503026e-01 8.5414305897940945e-01
840 8.4494254590761730e-01 4.5961562753806151e-01 2.3064894979181449e-01
841 8.4618317239763929e-01 3.4241233390649273e-01 1.4468222774222417e-01
842 8.4667393105093602e-01 3.7507918681280061e-01 3.6440590351772295e-01
843 8.4735254051482267e-01 8.1454955175862676e-01 1.6974187038435928e-01
844 8.4738714474164412e-01 6.3045641974711109e-01 7.1446448066290713e-01
845 8.5346430192434719e-01 6.2999777228254417e-01 1.0000000000000000e+00
846 8.5511099612812524e-01 1.0000000000000000e+00 4.0998196021336319e-01
847 8.5536687278960211e-01 6.5065913440750101e-01 1.9050990395084610e-01
848 8.5550186346411905e-01 3.0774259724154140e-01 0.0000000000000000e+00
849 8.5562977644787841e-01 3.6878342257843255e-01 1.0000000000000000e+00
850 8.5597993239827985e-01 4.6470170972742197e-01 3.9494872807576509e-01
851 8.5607460336226682e-01 1.5719622314943027e-01 6.5138035481242751e-01
852 8.5801093726861277e-01 7.1664301694664767e-01 5.4366632484426525e-01
853 8.5833437123499523e-01 0.0000000000000000e+00 0.0000000000000000e+00
854 8.6079699227669071e-01 4.1061055334611651e-01 2.9387441949402926e-01
855 8.6271388221525680e-01 3.1782597592967454e-01 1.4703829322231921e-01
856 8.6515308833716298e-01 0.0000000000000000e+00 3.9837159367086417e-01
857 8.6528745333263990e-01 0.0000000000000000e+00 4.3566665525648185e-01
858 8.6573613653972736e-01 7.8897641167958010e-01 0.0000000000000000e+00
859 8.6650492125263701e-01 4.2902779969575155e-01 5.9986961895958713e-01
860 8.6931644303871036e-01 3.1084099965394296e-01 3.1971333823954107e-01
861 8.7037067643509058e-01 6.4180130277364578e-01 1.0000000000000000e+00
862 8.7146314270547864e-01 3.3602530760688820e-01 6.4501227542296702e-01
863 8.7262787209404957e-01 5.5655614668108455e-01 7.2560385314032527e-01
864 8.7487557333341515e-01 7.3581927691502802e-01 5.3214517010326590e-01
865 8.7510028235822124e-01 4.5365983275337396e-01 3.2604149119106340e-01
866 8.7553080715224119e-01 8.9223954484478718e-01 1.0000000000000000e+00
867 8.7590492952732879e-01 8.3816229453034985e-01 2.9169917465060291e-01
868 8.7610372494078004e-01 3.4672254521948975e-01 5.8158134066420730e-01
869 8.7614678851207084e-01 1.0000000000000000e+00 7.1538609665511732e-01
870 8.7666612396792654e-01 3.1740385441816044e-01 4.5962499362720477e-01
871 8.7752075096489190e-01 4.3307362311827802e-01 0.0000000000000000e+00
872 8.7855643963152930e-01 0.0000000000000000e+00 6.7131024295676822e-01
873 8.7872587994887796e-01 8.7299809288230745e-01 3.9284321485433038e-01
874 8.8030295881248444e-01 3.6143565874393047e-01 5.5729724623667209e-01
875 8.8086145949194172e-01 1.0000000000000000e+00 7.8564756909714695e-01
876 8.8314575820555141e-01 2.3395809560445358e-01 1.0000000000000000e+00
877 8.8339816228585732e-01 8.4795077502935923e-01 4.6341064413541433e-01
878 8.8489686622123154e-01 8.2714561465203695e-01 6.4630854394836434e-01
879 8.8502650581712572e-01 7.1094627784243059e-01 7.7811506366504457e-01
880 8.8928092999658648e-01 5.8374578702374857e-01 1.6332257956063245e-01
881 8.8992501050185457e-01 0.0000000000000000e+00 5.7268075346356262e-01
882 8.9005800711747507e-01 0.0000000000000000e+00 1.0000000000000000e+00
883 8.9038354727152391e-01 2.8116720640372062e-01 3.8186607100687120e-01
884 8.9056218625171690e-01 6.6229819760900566e-01 3.9425506214222927e-01
885 8.9063135984023645e-01 0.0000000000000000e+00 6.9213200169972078e-01
886 8.9238786863098940e-01 6.4676347424618652e-01 6.5901121918875027e-01
887 8.9371753882912386e-01 3.7237649234746095e-01 3.6162907056113591e-01
888 8.9394037156551320e-01 2.5943274799593818e-01 2.4490025459401521e-01
889 8.9399850678844661e-01 5.1800900558986884e-01 7.5332427973201599e-01
890 8.9419118528078700e-01 6.3667556939197167e-01 6.3004717094651241e-01
891 8.9503880436439842e-01 5.5380901139869876e-01 8.7879185646224856e-01
892 8.9541969569620683e-01 8.2023566698330697e-01 1.0000000000000000e+00
893 8.9589526832430089e-01 1.5977617336507999e-01 3.5218607553571302e-01
894 8.9609380508106029e-01 1.6863113014475006e-01 5.1793614756994022e-01
895 8.9667145099929890e-01 1.8644803263909993e-01 4.9067565690611403e-01
896 8.9679487216296994e-01 5.2860688994261307e-01 4.6029850959175334e-01
897 8.9778731342402007e-01 0.0000000000000000e+00 0.0000000000000000e+00
898 8.9793612554825941e-01 3.8784920598328532e-01 6.6244612670644876e-01
899 8.9869915916691856e-01 8.8399300640024880e-01 5.4409426410058381e-01
900 8.9933563021772334e-01 8.9214833005696181e-01 4.3884069370667389e-01
901 8.9963131363098614e-01 8.3032358376185456e-01 1.0000000000000000e+00
902 8.9987662285245529e-01 7.5422465951909357e-01 8.1004715224133850e-01
903 1.0000000000000000e+00 8.3575330281614291e-01 1.0000000000000000e+00
904 1.0000000000000000e+00 1.8383955374427807e-01 1.0000000000000000e+00
905 1.0000000000000000e+00 3.8560742439454465e-01 5.6352873640947376e-01
906 1.0000000000000000e+00 6.6524864413575058e-01 1.0000000000000000e+00
907 1.0000000000000000e+00 6.9417756758464466e-01 5.1677521969743101e-01
908 1.0000000000000000e+00 5.2990567183438875e-01 6.9845869261776206e-01
909 1.0000000000000000e+00 1.8416522489870624e-01 5.8162095938888381e-01
910 1.0000000000000000e+00 1.0000000000000000e+00 1.0000000000000000e+00
911 1.0000000000000000e+00 2.0307542795923661e-01 6.0049801774346911e-01
912 1.0000000000000000e+00 7.8387219716222067e-01 5.0927483314075750e-01
913 1.0000000000000000e+00 6.5535181831674205e-01 4.5294864932209500e-01
914 1.0000000000000000e+00 2.9541202302951797e-01 1.0000000000000000e+00
915 1.0000000000000000e+00 8.0250427879554509e-01 5.8490383401529444e-01
916 1.0000000000000000e+00 2.3646069903365918e-01 6.9031451601046101e-01
917 1.0000000000000000e+00 8.4828202363251792e-01 6.1232433422121413e-01
918 1.0000000000000000e+00 2.3720226953334478e-01 5.7302436705494630e-01
919 1.0000000000000000e+00 3.6241128562429881e-01 4.4767339953630758e-01
920 1.0000000000000000e+00 4.3640319767805613e-01 4.7735542458695190e-01
921 1.0000000000000000e+00 4.1692058589103997e-01 1.0000000000000000e+00
922 1.0000000000000000e+00 5.5008867805455641e-01 4.2565546766974327e-01
923 1.0000000000000000e+00 5.8407424850949430e-01 8.2435346624690831e-01
924 1.0000000000000000e+00 5.9124061191561994e-01 5.7243181799635257e-01
925 1.0000000000000000e+00 6.9207329832568276e-01 5.5560195405019841e-01
926 1.0000000000000000e+00 6.5605699493744174e-01 1.6777043043615292e-01
927 1.0000000000000000e+00 1.0000000000000000e+00 3.6555414622686699e-01
928 1.0000000000000000e+00 5.4560331131386264e-01 2.8362417027361964e-01
929 1.0000000000000000e+00 1.0000000000000000e+00 1.0164209775382349e-01
930 1.0000000000000000e+00 8.1139712233922479e-01 5.1132610803398915e-01
931 1.0000000000000000e+00 5.0057568848863121e-01 7.7453797252893497e-01
932 1.0000000000000000e+00 8.7207072748110048e-01 8.2202729129389318e-01
933 1.0000000000000000e+00 8.4568597223804320e-01 4.2999815148122944e-01
934 1.0000000000000000e+00 1.5965999131310060e-01 4.2850457018533761e-01
935 1.0000000000000000e+00 8.9781746920565386e-01 6.5525365609459707e-01
936 1.0000000000000000e+00 3.2439226265492860e-01 8.4429526451739689e-01
937 1.0000000000000000e+00 6.0121004169986803e-01 2.2101415402070779e-01
938 1.0000000000000000e+00 1.8713733628781515e-01 6.8782587589031041e-01
939 1.0000000000000000e+00 8.2633660731912972e-01 1.8156475263402216e-01
940 1.0000000000000000e+00 6.9248556479066448e-01 7.6852447131016000e-01
941 1.0000000000000000e+00 8.5468423671511462e-01 7.8406734972705261e-01
942 1.0000000000000000e+00 7.4325592078558189e-01 7.6532434466132371e-01
943 1.0000000000000000e+00 6.0804657393542938e-01 3.5136627060046344e-01
944 1.0000000000000000e+00 2.7076322000253894e-01 2.1230372818770760e-01
945 1.0000000000000000e+00 8.1819208632715468e-01 6.6548851923843355e-01
946 1.0000000000000000e+00 6.0167317462117142e-01 6.9836969897582846e-01
947 1.0000000000000000e+00 8.6718651413696035e-01 4.1786949338717749e-01
948 1.0000000000000000e+00 2.4040160819814860e-01 6.1269902316179325e-01
949 1.0000000000000000e+00 4.5294171569711850e-01 4.2686166424976046e-01
950 1.0000000000000000e+00 2.2956036920964118e-01 8.7834014767599911e-01
951 1.0000000000000000e+00 5.3668852253903843e-01 7.6127325357576103e-01
952 1.0000000000000000e+00 1.0000000000000000e+00 3.4240697423061905e-01
953 1.0000000000000000e+00 4.4601893944929982e-01 2.7493514450957979e-01
954 1.0000000000000000e+00 7.9578577960320107e-01 7.5153980017397259e-01
955 1.0000000000000000e+00 0.0000000000000000e+00 6.3424050652934705e-01
956 1.0000000000000000e+00 8.4978177942368860e-01 4.2527494041535407e-01
957 1.0000000000000000e+00 0.0000000000000000e+00 8.4796004261845115e-01
958 1.0000000000000000e+00 1.0000000000000000e+00 5.1574126689240629e-01
959 1.0000000000000000e+00 2.2346801463697841e-01 8.2663515849527536e-01
960 1.0000000000000000e+00 8.5526492956081579e-01 0.0000000000000000e+00
961 1.0000000000000000e+00 0.0000000000000000e+00 1.0000000000000000e+00
962 1.0000000000000000e+00 1.8985633829419135e-01 0.0000000000000000e+00
963 1.0000000000000000e+00 2.9017841403975564e-01 7.3337921675750706e-01
964 1.0000000000000000e+00 5.7820852902194453e-01 7.9672759438751795e-01
965 1.0000000000000000e+00 4.3523335996564771e-01 3.1538237363886057e-01
966 1.0000000000000000e+00 7.0773629076542921e-01 4.9875703103006941e-01
967 1.0000000000000000e+00 5.7075631431502671e-01 4.4042144269451267e-01
968 1.0000000000000000e+00 1.0583151667864266e-01 0.0000000000000000e+00
969 1.0000000000000000e+00 0.0000000000000000e+00 8.4707926353319385e-01
970 1.0000000000000000e+00 6.4036917767377066e-01 6.2830387022515610e-01
971 1.0000000000000000e+00 3.2160557529904910e-01 7.2161001395236102e-01
972 1.0000000000000000e+00 7.1932632427512277e-01 3.2651140465484374e-01
973 1.0000000000000000e+00 3.8808489557106773e-01 1.0000000000000000e+00
974 1.0000000000000000e+00 2.0838270715658125e-01 8.2735328206149406e-01
975 1.0000000000000000e+00 4.3013671096183825e-01 5.1141878208615354e-01
976 1.0000000000000000e+00 1.0000000000000000e+00 7.0000951774037690e-01
977 1.0000000000000000e+00 7.7728052146415061e-01 3.6025694645607331e-01
978 1.0000000000000000e+00 1.5580573590160940e-01 1.7290416797316288e-01
979 1.0000000000000000e+00 2.5080794387420302e-01 6.8672292989125128e-01
980 1.0000000000000000e+00 1.1204671266226318e-01 1.0000000000000000e+00
981 1.0000000000000000e+00 4.2133107240037349e-01 1.1256788251728789e-01
982 1.0000000000000000e+00 1.0000000000000000e+00 1.0000000000000000e+00
983 1.0000000000000000e+00 6.3534899461471595e-01 3.1780209261489478e-01
984 1.0000000000000000e+00 1.6333694199113791e-01 8.8141917818832094e-01
985 1.0000000000000000e+00 3.0348502587558490e-01 3.3899608342129395e-01
986 1.0000000000000000e+00 7.2228668525466444e-01 5.3915415418706236e-01
987 1.0000000000000000e+00 1.0000000000000000e+00 1.5286778051803451e-01
988 1.0000000000000000e+00 7.9487516572813477e-01 2.0909396165491967e-01
989 1.0000000000000000e+00 5.1614730197359471e-01 5.3428696620920590e-01
990 1.0000000000000000e+00 0.0000000000000000e+00 2.9268360128362780e-01
991 1.0000000000000000e+00 7.5758234652040457e-01 6.5664414438293073e-01
992 1.0000000000000000e+00 7.1004491909239753e-01 5.2932745318664143e-01
993 1.0000000000000000e+00 0.0000000000000000e+00 1.0000000000000000e+00
994 1.0000000000000000e+00 1.0000000000000000e+00 6.7200813186333275e-01
995 1.0000000000000000e+00 8.3451476682710968e-01 6.1831142161062680e-01
996 1.0000000000000000e+00 0.0000000000000000e+00 0.0000000000000000e+00
997 1.0000000000000000e+00 0.0000000000000000e+00 1.0000000000000000e+00
998 1.0000000000000000e+00 1.0000000000000000e+00 0.0000000000000000e+00
999 1.0000000000000000e+00 1.0000000000000000e+00 1.0000000000000000e+00
