# This file was created by meshio v5.3.5
4675 4 0
0 159 111 198 173
1 980 899 939 924
2 736 687 664 639
3 736 803 687 664
4 1015 980 899 984
5 1015 980 899 924
6 1015 899 846 924
7 1015 946 846 924
8 503 439 415 492
9 503 439 415 420
10 503 415 530 492
11 503 415 420 412
12 268 244 126 237
13 145 126 237 101
14 145 244 126 237
15 145 268 244 126
16 71 62 87 189
17 564 501 571 448
18 308 387 448 398
19 308 368 448 398
20 308 368 387 448
21 245 159 198 173
22 170 64 29 2
23 170 64 29 167
24 170 29 218 167
25 505 624 598 639
26 456 501 385 387
27 816 736 803 687
28 844 710 768 790
29 791 676 759 716
30 1033 879 956 1014
31 291 171 230 252
32 786 818 806 727
33 692 738 697 806
34 692 696 806 727
35 692 696 697 806
36 941 943 924 858
37 941 946 846 924
38 941 1024 946 846
39 190 41 180 131
40 190 41 180 149
41 190 164 168 131
42 342 382 389 298
43 88 41 180 131
44 88 35 41 131
45 88 41 180 149
46 181 190 164 253
47 338 439 429 420
48 338 439 415 420
49 284 186 140 209
50 255 338 420 301
51 255 338 415 420
52 137 53 174 92
53 137 45 175 92
54 137 255 142 140
55 94 186 140 0
56 215 190 260 253
57 215 190 164 253
58 215 190 260 149
59 215 190 164 149
60 290 206 281 249
61 205 268 126 237
62 205 171 230 252
63 614 696 620 700
64 749 696 806 727
65 749 818 806 727
66 709 696 620 640
67 709 696 620 700
68 709 620 654 640
69 709 710 654 790
70 709 710 768 790
71 709 696 697 640
72 286 284 318 257
73 286 318 420 412
74 286 137 255 278
75 286 137 175 140
76 286 137 255 140
77 286 255 420 301
78 286 255 140 301
79 406 286 318 257
80 406 286 369 257
81 406 286 318 412
82 406 286 369 412
83 406 318 420 412
84 26 125 91 97
85 26 125 143 70
86 26 125 91 143
87 217 125 248 143
88 217 125 175 143
89 61 8 143 70
90 61 26 143 70
91 61 26 91 143
92 61 8 179 143
93 61 188 179 143
94 280 203 163 179
95 280 335 410 381
96 280 335 248 143
97 517 641 620 654
98 258 308 380 387
99 393 308 368 387
100 393 308 380 387
101 232 153 129 198
102 55 129 20 72
103 78 153 159 198
104 58 61 8 179
105 58 61 188 179
106 446 427 383 528
107 123 28 40 87
108 123 28 111 173
109 113 14 163 43
110 113 163 43 167
111 315 203 218 328
112 124 48 29 2
113 124 170 29 2
114 551 707 677 608
115 748 659 677 761
116 673 707 677 761
117 673 707 677 608
118 673 624 598 761
119 673 659 677 761
120 673 659 677 608
121 673 659 598 761
122 673 659 598 608
123 646 624 634 639
124 988 950 991 894
125 432 456 385 387
126 432 410 456 385
127 432 380 328 387
128 432 456 501 387
129 432 549 456 501
130 586 687 664 639
131 586 687 598 639
132 586 505 598 639
133 586 659 687 598
134 586 588 659 598
135 586 588 659 687
136 121 233 48 192
137 121 170 29 218
138 121 233 170 218
139 121 124 170 29
140 121 124 48 29
141 121 124 233 48
142 745 748 659 761
143 745 687 598 639
144 745 659 687 598
145 781 736 803 664
146 781 803 687 664
147 781 745 803 687
148 781 816 803 846
149 781 816 736 846
150 781 816 736 803
151 904 1015 991 946
152 904 1015 946 846
153 904 816 1015 846
154 904 979 991 946
155 904 816 803 846
156 904 816 803 894
157 904 979 991 958
158 904 979 1024 946
159 904 1024 946 846
160 904 781 803 846
161 785 875 792 761
162 785 707 677 761
163 785 748 677 761
164 785 748 707 677
165 785 673 792 761
166 785 673 707 761
167 885 875 847 792
168 885 875 792 761
169 885 950 991 958
170 885 950 991 894
171 885 745 803 761
172 1030 913 881 929
173 834 981 875 881
174 834 913 881 833
175 834 785 875 881
176 851 913 881 833
177 851 1030 913 881
178 1020 934 892 922
179 868 1020 934 956
180 868 1020 934 892
181 868 934 956 1014
182 868 879 956 1014
183 782 781 838 711
184 627 676 759 716
185 627 590 676 716
186 627 568 676 603
187 800 844 710 790
188 660 641 710 654
189 998 908 1009 986
190 767 844 908 858
191 767 844 710 768
192 767 641 710 721
193 823 861 826 759
194 823 769 656 759
195 896 823 826 853
196 896 823 861 826
197 896 861 826 1021
198 850 791 861 759
199 850 823 861 759
200 744 791 676 716
201 169 291 171 230
202 169 291 191 207
203 169 291 171 207
204 169 108 191 89
205 169 291 259 191
206 169 108 171 207
207 169 108 191 207
208 169 71 191 89
209 169 259 241 189
210 169 291 241 230
211 169 291 259 241
212 169 71 62 89
213 169 71 62 189
214 449 470 376 480
215 449 470 376 365
216 449 470 464 523
217 449 470 464 365
218 449 399 464 365
219 558 449 480 523
220 558 449 470 523
221 558 470 464 523
222 558 590 464 523
223 644 627 590 716
224 644 769 656 759
225 644 627 759 716
226 644 627 656 759
227 983 915 1018 939
228 831 899 939 924
229 778 780 696 700
230 778 709 696 700
231 778 709 768 790
232 778 780 768 700
233 778 709 768 700
234 778 709 824 790
235 811 878 856 806
236 945 878 856 806
237 854 1013 955 938
238 854 1013 873 938
239 601 665 553 602
240 860 778 780 768
241 488 335 410 381
242 319 342 341 253
243 319 342 341 389
244 158 88 128 1
245 229 260 149 146
246 229 128 149 146
247 652 553 615 602
248 652 665 553 602
249 652 553 615 537
250 152 260 149 146
251 152 215 260 149
252 152 215 164 149
253 355 342 341 389
254 355 342 260 253
255 355 342 341 253
256 355 215 260 253
257 93 71 191 89
258 438 401 369 412
259 438 488 542 534
260 438 488 542 486
261 438 401 369 309
262 438 488 335 410
263 438 335 369 309
264 438 335 410 309
265 438 369 388 486
266 467 438 410 309
267 467 438 401 309
268 467 488 410 456
269 467 438 488 410
270 467 438 488 534
271 100 115 194 69
272 100 53 174 92
273 361 256 402 235
274 666 715 739 635
275 666 754 739 720
276 666 715 754 739
277 567 439 429 420
278 567 503 439 420
279 567 503 439 492
280 297 284 140 209
281 297 284 352 209
282 297 286 140 301
283 297 286 284 140
284 297 186 140 209
285 297 142 186 140
286 297 284 352 318
287 297 286 284 318
288 297 286 420 301
289 297 286 318 420
290 297 318 429 420
291 297 357 352 318
292 297 357 318 429
293 297 338 420 301
294 297 338 429 420
295 54 186 140 0
296 54 142 186 140
297 54 94 140 0
298 54 94 33 140
299 162 137 142 60
300 162 137 255 142
301 162 137 139 174
302 162 137 255 174
303 162 212 139 174
304 162 212 255 174
305 172 284 186 140
306 172 94 186 140
307 117 77 181 164
308 65 77 181 164
309 65 35 168 131
310 65 164 168 131
311 65 181 164 168
312 65 77 181 74
313 21 190 164 149
314 269 181 164 235
315 269 215 181 164
316 269 195 164 235
317 269 195 215 164
318 330 268 244 237
319 330 205 268 237
320 390 330 268 244
321 408 330 205 268
322 408 390 330 378
323 408 390 330 268
324 135 205 171 126
325 135 205 171 230
326 135 108 171 25
327 135 169 108 171
328 135 62 89 25
329 135 169 62 89
330 135 169 171 230
331 135 108 89 25
332 135 169 108 89
333 135 169 62 189
334 135 169 241 189
335 135 169 241 230
336 135 62 87 189
337 184 108 191 207
338 184 108 105 191
339 184 191 207 270
340 184 304 191 270
341 184 47 191 96
342 723 710 654 790
343 723 800 710 790
344 723 709 654 640
345 723 709 654 790
346 723 709 754 640
347 723 709 824 790
348 723 709 824 754
349 865 945 878 856
350 865 811 878 856
351 572 614 620 534
352 572 696 620 640
353 572 614 696 620
354 572 503 530 640
355 572 696 697 640
356 529 567 503 420
357 529 567 429 420
358 621 749 696 727
359 621 529 614 696
360 621 529 614 542
361 621 542 575 486
362 674 709 710 768
363 674 767 710 768
364 674 767 641 710
365 674 709 768 700
366 674 641 710 654
367 674 709 710 654
368 674 709 620 700
369 674 641 620 654
370 674 709 620 654
371 674 767 641 721
372 417 488 335 381
373 417 335 248 388
374 417 438 388 486
375 417 438 488 335
376 417 335 369 388
377 417 438 369 388
378 417 438 335 369
379 323 401 369 412
380 323 286 369 412
381 323 401 369 309
382 323 211 286 278
383 323 211 286 175
384 472 406 369 412
385 472 406 388 486
386 472 369 388 486
387 472 406 369 388
388 472 438 369 412
389 472 438 369 486
390 472 438 542 486
391 472 438 542 534
392 472 406 420 412
393 472 614 542 534
394 472 529 614 542
395 472 503 420 412
396 472 529 503 420
397 472 529 572 503
398 472 572 614 534
399 472 529 572 614
400 275 335 248 143
401 275 217 248 143
402 275 217 335 248
403 275 217 175 143
404 275 335 369 309
405 275 323 369 309
406 275 323 286 175
407 275 323 286 369
408 275 286 369 257
409 306 335 248 388
410 306 217 335 248
411 306 335 369 388
412 306 275 335 369
413 306 275 217 335
414 306 406 369 257
415 306 406 369 388
416 306 275 369 257
417 306 275 217 257
418 66 61 91 143
419 66 61 188 143
420 279 280 203 179
421 279 315 203 328
422 279 280 203 163
423 279 315 203 218
424 122 113 50 14
425 122 113 14 163
426 122 203 163 179
427 122 113 203 179
428 122 113 203 163
429 201 115 194 69
430 265 277 308 288
431 265 232 153 185
432 285 258 308 387
433 285 308 385 288
434 285 308 385 387
435 285 279 203 179
436 285 258 203 328
437 285 279 203 328
438 285 432 385 387
439 285 279 432 385
440 285 380 328 387
441 285 258 380 387
442 285 258 380 328
443 285 432 328 387
444 285 279 432 328
445 156 58 27 31
446 156 58 188 179
447 156 285 188 179
448 156 58 203 179
449 156 285 203 179
450 68 36 185 72
451 68 153 185 72
452 496 564 501 448
453 496 564 571 448
454 496 564 571 584
455 374 467 401 309
456 374 467 517 401
457 374 467 410 309
458 374 410 456 385
459 374 467 410 456
460 271 232 129 198
461 271 153 308 198
462 271 265 153 308
463 271 232 153 198
464 271 265 232 153
465 202 121 130 102
466 193 169 71 189
467 193 169 71 191
468 193 169 259 189
469 193 169 259 191
470 193 93 71 98
471 193 93 71 191
472 193 292 259 191
473 193 289 292 259
474 42 159 111 198
475 42 78 159 198
476 42 78 159 111
477 42 111 198 173
478 42 129 198 173
479 42 129 20 173
480 42 28 111 173
481 42 28 20 173
482 76 78 159 111
483 12 78 159 161
484 12 203 80 161
485 12 156 203 161
486 12 156 58 27
487 12 156 58 203
488 504 465 500 603
489 504 571 603 584
490 504 496 571 584
491 504 496 571 448
492 504 568 603 584
493 504 568 500 603
494 504 496 448 398
495 513 465 500 603
496 531 504 571 448
497 531 504 571 603
498 333 290 334 241
499 333 334 259 241
500 333 290 268 241
501 333 291 259 241
502 333 268 241 230
503 333 291 241 230
504 495 446 427 528
505 495 590 464 523
506 495 449 464 523
507 495 449 399 464
508 83 123 28 40
509 83 123 28 111
510 133 83 123 40
511 138 121 29 218
512 138 203 80 161
513 138 113 203 163
514 73 12 203 80
515 73 12 58 203
516 73 138 203 80
517 73 138 113 80
518 73 138 113 203
519 73 58 203 179
520 73 113 203 179
521 326 423 233 407
522 326 121 233 218
523 326 233 170 218
524 326 325 423 233
525 326 325 423 353
526 160 233 170 219
527 160 121 233 170
528 160 121 124 170
529 160 121 124 233
530 521 659 598 608
531 521 659 677 608
532 521 588 659 598
533 521 588 659 677
534 521 586 505 598
535 521 586 588 598
536 595 682 645 662
537 367 272 334 239
538 428 326 423 407
539 625 673 792 761
540 625 765 792 761
541 625 673 624 761
542 625 637 765 624
543 625 673 624 598
544 625 673 598 608
545 625 535 598 608
546 869 904 816 894
547 869 904 991 894
548 918 950 847 894
549 918 988 950 894
550 918 988 822 894
551 918 1027 847 959
552 918 1027 950 847
553 918 847 760 959
554 583 586 687 664
555 583 544 586 588
556 583 432 456 485
557 583 432 549 456
558 583 432 549 501
559 583 544 549 501
560 583 544 432 501
561 110 121 130 57
562 110 121 48 29
563 110 121 48 192
564 110 121 130 192
565 888 904 979 1024
566 888 904 979 838
567 888 904 1024 846
568 888 941 846 858
569 888 941 1024 846
570 888 904 781 846
571 888 904 781 838
572 672 781 687 711
573 672 781 687 664
574 672 583 687 664
575 672 583 675 664
576 672 583 586 687
577 672 583 544 588
578 672 586 588 687
579 672 583 586 588
580 815 785 875 761
581 815 785 875 881
582 815 885 875 761
583 815 785 748 761
584 815 834 748 881
585 815 834 785 881
586 815 834 785 748
587 815 745 748 761
588 815 885 745 761
589 815 782 745 748
590 815 782 781 838
591 815 782 781 745
592 919 885 950 1019
593 919 1027 950 847
594 919 885 950 847
595 919 885 875 1019
596 919 885 875 847
597 914 981 875 881
598 914 981 1011 881
599 914 815 875 881
600 914 815 885 875
601 914 885 875 1019
602 914 981 875 1019
603 914 981 1011 1019
604 914 1011 950 1019
605 914 885 950 1019
606 914 1011 950 958
607 914 885 950 958
608 829 885 792 761
609 829 885 847 792
610 829 765 847 792
611 829 765 792 761
612 829 885 803 761
613 829 885 803 894
614 829 950 847 894
615 829 885 950 894
616 829 885 950 847
617 829 918 847 894
618 829 918 822 894
619 829 765 847 760
620 829 745 803 761
621 829 822 803 894
622 829 731 822 760
623 829 731 765 760
624 829 918 822 760
625 829 918 847 760
626 973 1030 913 929
627 952 913 881 929
628 952 834 913 881
629 952 834 981 881
630 952 981 1011 881
631 952 1030 881 929
632 952 1004 1011 881
633 952 1004 1030 881
634 801 834 881 833
635 801 834 748 881
636 801 834 785 748
637 762 726 796 662
638 762 695 656 662
639 762 823 826 853
640 762 823 656 759
641 762 823 769 656
642 762 823 826 759
643 740 782 748 839
644 740 748 881 839
645 740 851 881 839
646 740 851 881 833
647 740 801 881 833
648 740 801 748 881
649 740 748 707 677
650 650 571 603 584
651 799 782 838 711
652 799 781 838 711
653 799 672 721 711
654 799 672 781 711
655 799 672 781 721
656 799 888 781 838
657 799 888 781 846
658 799 767 908 858
659 799 888 846 858
660 689 627 676 603
661 689 627 676 759
662 689 650 695 603
663 689 627 656 603
664 689 627 656 759
665 689 762 656 759
666 689 762 695 656
667 689 762 826 759
668 556 644 627 590
669 556 568 500 603
670 556 627 568 603
671 556 627 590 676
672 556 627 568 676
673 556 513 500 603
674 813 723 800 790
675 813 723 824 790
676 813 723 715 754
677 813 723 824 754
678 735 660 800 710
679 735 767 710 721
680 629 641 710 721
681 629 735 710 721
682 629 660 641 710
683 629 735 660 710
684 629 672 675 721
685 629 674 641 721
686 629 674 675 721
687 629 674 641 549
688 629 674 675 549
689 629 583 675 549
690 629 672 583 675
691 629 549 564 501
692 629 544 549 501
693 629 583 544 549
694 629 672 583 544
695 940 1023 861 1021
696 954 964 999 853
697 931 1023 861 1021
698 931 896 861 1021
699 931 954 1023 861
700 931 896 823 861
701 931 954 823 861
702 931 896 964 853
703 931 896 823 853
704 931 954 964 853
705 931 954 823 853
706 1029 896 964 853
707 794 896 826 853
708 794 762 826 853
709 794 851 796 853
710 794 762 796 853
711 794 762 695 662
712 871 782 838 839
713 1032 871 896 967
714 1032 931 896 1021
715 1032 931 896 964
716 1032 1029 896 964
717 827 751 868 879
718 827 850 791 716
719 827 744 791 716
720 928 1033 879 1014
721 928 850 1023 861
722 928 954 1023 861
723 928 954 850 861
724 622 495 590 523
725 622 558 590 523
726 538 616 566 611
727 538 579 616 528
728 538 579 616 611
729 694 616 566 611
730 243 317 291 252
731 243 291 171 252
732 243 291 171 207
733 243 304 317 270
734 243 304 317 291
735 243 191 207 270
736 243 304 191 270
737 243 291 191 207
738 243 304 291 191
739 316 304 399 270
740 316 304 399 365
741 316 449 376 365
742 316 449 399 365
743 366 304 399 270
744 519 449 470 480
745 519 558 449 480
746 519 558 449 470
747 518 558 470 464
748 518 568 500 454
749 518 618 568 454
750 518 556 500 464
751 518 556 568 500
752 518 558 590 464
753 518 556 590 464
754 518 519 558 470
755 812 941 924 858
756 812 941 846 858
757 812 941 846 924
758 812 899 846 924
759 812 831 899 793
760 812 816 736 793
761 812 816 736 846
762 812 816 899 793
763 812 816 899 846
764 812 675 736 681
765 770 778 856 806
766 770 811 856 806
767 770 696 697 806
768 770 778 696 806
769 770 738 697 806
770 770 811 738 806
771 770 865 811 856
772 770 709 696 697
773 770 778 709 696
774 770 709 697 640
775 770 865 824 856
776 770 865 824 754
777 770 754 697 640
778 770 709 824 754
779 770 778 709 824
780 770 709 754 640
781 706 770 754 697
782 1008 862 900 1025
783 1008 935 900 1025
784 1007 1003 915 917
785 1007 1003 983 915
786 1007 983 915 1018
787 963 1013 873 938
788 880 873 892 922
789 880 934 892 922
790 880 868 934 892
791 880 827 868 892
792 821 854 1013 873
793 903 993 955 977
794 580 680 669 635
795 580 618 607 669
796 580 618 568 454
797 580 518 618 454
798 848 795 915 840
799 848 795 831 915
800 848 1007 915 1018
801 848 1007 860 1018
802 848 860 943 1018
803 848 860 943 858
804 848 831 915 939
805 848 915 1018 939
806 848 943 1018 924
807 848 943 924 858
808 848 812 924 858
809 848 1018 939 924
810 848 831 939 924
811 848 831 899 924
812 848 812 899 924
813 848 812 831 899
814 947 1007 860 1018
815 947 1007 860 974
816 857 778 824 790
817 857 778 768 790
818 857 860 778 768
819 857 860 778 856
820 857 770 824 856
821 857 770 778 856
822 857 770 778 824
823 857 860 974 856
824 857 947 860 974
825 705 692 786 727
826 541 586 505 485
827 541 583 586 664
828 541 583 586 485
829 541 586 664 639
830 541 586 505 639
831 541 630 664 639
832 541 630 581 634
833 541 630 634 639
834 541 508 581 634
835 631 630 736 664
836 631 541 630 664
837 631 541 630 581
838 619 614 542 534
839 619 674 620 700
840 619 488 542 534
841 619 614 620 700
842 619 614 620 534
843 741 781 736 846
844 741 812 736 846
845 741 812 675 736
846 741 675 736 664
847 741 799 781 846
848 741 799 781 721
849 741 781 736 664
850 741 812 846 858
851 741 672 675 664
852 741 672 675 721
853 741 799 846 858
854 741 672 781 664
855 741 672 781 721
856 741 674 767 721
857 741 674 675 721
858 741 799 767 858
859 741 799 767 721
860 701 736 664 639
861 701 630 664 639
862 701 630 634 639
863 701 736 687 639
864 701 816 736 687
865 701 776 816 803
866 701 731 634 639
867 701 803 687 639
868 701 816 803 687
869 395 541 505 485
870 395 279 315 328
871 223 319 190 253
872 223 319 190 180
873 223 190 168 131
874 223 190 180 131
875 223 319 180 298
876 197 88 180 149
877 197 88 128 149
878 197 158 88 128
879 197 190 180 149
880 525 633 615 602
881 525 519 633 602
882 425 382 389 298
883 425 319 389 298
884 702 633 615 602
885 702 652 615 602
886 632 652 553 537
887 632 652 665 553
888 116 152 149 146
889 116 152 46 146
890 116 21 152 149
891 141 184 191 96
892 302 152 215 260
893 302 355 215 260
894 302 269 355 215
895 302 269 348 396
896 302 269 355 396
897 157 152 46 146
898 157 90 46 146
899 157 152 260 146
900 424 355 342 389
901 424 355 342 260
902 424 525 519 480
903 13 93 191 89
904 13 108 191 89
905 13 108 105 191
906 13 184 47 105
907 13 184 105 191
908 13 184 47 191
909 13 93 6 191
910 13 141 6 191
911 13 47 191 96
912 13 141 191 96
913 373 518 500 464
914 373 518 500 454
915 373 470 464 365
916 491 467 438 534
917 491 467 438 401
918 491 438 401 412
919 491 467 517 534
920 491 467 517 401
921 491 472 438 412
922 491 472 438 534
923 491 472 572 534
924 491 517 620 534
925 491 572 620 534
926 491 472 503 412
927 491 472 572 503
928 491 503 415 412
929 491 401 415 412
930 560 467 488 456
931 560 467 488 534
932 560 619 488 534
933 560 674 675 549
934 560 674 641 549
935 560 467 517 534
936 560 619 620 534
937 560 619 674 620
938 560 517 620 534
939 118 17 53 174
940 118 100 53 174
941 118 100 194 174
942 200 65 181 168
943 200 65 181 74
944 200 181 190 253
945 200 118 17 74
946 200 190 164 168
947 200 181 164 168
948 200 181 190 164
949 4 10 139 53
950 4 162 137 60
951 4 162 137 139
952 4 139 53 174
953 4 137 139 174
954 39 100 194 92
955 39 100 115 194
956 39 201 115 194
957 39 201 211 194
958 435 361 256 296
959 435 361 256 402
960 729 666 739 720
961 729 807 777 739
962 729 807 817 739
963 339 439 415 492
964 339 338 439 415
965 339 255 338 415
966 461 415 530 492
967 461 610 530 492
968 461 339 415 492
969 461 339 379 415
970 234 297 140 301
971 234 297 142 140
972 234 255 140 301
973 234 255 142 140
974 234 162 255 142
975 234 255 338 301
976 234 339 255 338
977 234 162 212 255
978 234 339 212 255
979 19 54 142 60
980 19 54 142 140
981 19 137 142 60
982 19 137 142 140
983 19 137 33 140
984 19 54 33 140
985 19 137 53 92
986 19 137 45 92
987 19 137 45 33
988 19 4 137 60
989 19 137 53 174
990 19 4 53 174
991 19 4 137 174
992 182 211 194 278
993 182 255 174 278
994 182 137 255 278
995 182 137 255 174
996 182 137 174 92
997 182 286 137 278
998 182 286 137 175
999 182 211 286 278
1000 182 211 286 175
1001 182 137 175 92
1002 182 211 175 92
1003 182 100 174 92
1004 182 100 194 92
1005 182 100 194 174
1006 182 39 194 92
1007 182 39 211 92
1008 182 39 211 194
1009 337 256 194 296
1010 337 201 194 296
1011 337 201 211 194
1012 337 435 256 296
1013 337 201 277 296
1014 337 323 401 309
1015 337 374 401 309
1016 337 374 277 288
1017 132 172 284 257
1018 132 172 284 140
1019 132 286 284 257
1020 132 286 284 140
1021 132 286 175 140
1022 132 275 286 257
1023 132 275 286 175
1024 132 172 217 257
1025 132 275 217 257
1026 132 275 217 175
1027 132 172 217 125
1028 132 217 125 175
1029 132 137 175 140
1030 132 137 33 140
1031 132 94 33 140
1032 132 172 94 140
1033 132 172 125 97
1034 132 137 45 175
1035 132 137 45 33
1036 132 94 33 97
1037 132 172 94 97
1038 132 45 33 91
1039 132 45 175 91
1040 132 33 91 97
1041 132 125 91 97
1042 132 175 91 143
1043 132 125 91 143
1044 132 125 175 143
1045 95 190 41 149
1046 95 21 41 149
1047 95 21 190 149
1048 95 21 190 164
1049 95 190 41 131
1050 95 190 164 131
1051 95 65 164 131
1052 95 65 77 164
1053 95 21 77 164
1054 95 35 41 131
1055 95 65 35 131
1056 79 116 152 46
1057 79 114 141 152
1058 340 269 348 396
1059 340 348 454 396
1060 340 361 454 396
1061 340 394 361 396
1062 340 394 269 396
1063 340 394 269 361
1064 561 566 611 502
1065 561 667 686 611
1066 561 667 628 611
1067 314 317 291 252
1068 314 317 291 383
1069 314 291 230 252
1070 314 205 230 252
1071 314 205 268 230
1072 314 408 205 268
1073 474 446 383 528
1074 445 408 390 378
1075 75 30 23 126
1076 75 135 23 126
1077 75 135 171 25
1078 75 135 171 126
1079 75 135 62 25
1080 75 135 23 62
1081 51 30 126 101
1082 51 145 126 101
1083 51 23 145 126
1084 51 30 23 126
1085 51 59 23 145
1086 176 205 268 230
1087 176 135 205 230
1088 176 268 241 230
1089 176 135 241 230
1090 176 205 268 126
1091 176 135 205 126
1092 176 145 268 126
1093 176 290 268 241
1094 176 23 145 126
1095 176 135 23 126
1096 176 290 206 249
1097 176 290 268 249
1098 176 145 206 244
1099 176 145 268 244
1100 176 59 145 206
1101 176 59 23 145
1102 176 206 244 249
1103 176 268 244 249
1104 176 59 206 120
1105 44 135 62 87
1106 44 135 23 62
1107 44 176 135 23
1108 44 135 87 189
1109 44 176 59 23
1110 887 865 945 878
1111 887 865 811 878
1112 832 874 777 866
1113 832 807 777 866
1114 832 807 777 739
1115 599 572 614 696
1116 599 529 614 696
1117 599 529 572 614
1118 599 572 696 697
1119 599 692 696 697
1120 599 529 692 696
1121 599 529 572 503
1122 599 572 697 640
1123 599 572 503 640
1124 599 503 530 640
1125 599 529 567 503
1126 599 529 567 692
1127 599 610 697 640
1128 599 610 530 640
1129 599 503 530 492
1130 599 587 567 492
1131 599 567 503 492
1132 599 587 567 642
1133 599 567 642 692
1134 599 587 610 492
1135 599 610 530 492
1136 460 406 318 420
1137 460 529 429 420
1138 460 472 406 420
1139 460 472 529 420
1140 460 318 429 420
1141 460 529 567 429
1142 460 529 567 547
1143 460 357 318 429
1144 460 567 429 498
1145 460 567 547 498
1146 460 357 429 498
1147 699 621 614 696
1148 699 621 749 696
1149 699 614 696 700
1150 699 780 696 700
1151 699 749 780 696
1152 699 619 614 700
1153 699 795 749 780
1154 699 621 614 542
1155 699 619 614 542
1156 699 619 780 700
1157 699 621 542 575
1158 699 619 542 575
1159 699 619 575 638
1160 699 619 638 681
1161 626 692 696 727
1162 626 621 696 727
1163 626 529 692 696
1164 626 621 529 696
1165 626 621 529 547
1166 626 705 692 727
1167 626 705 642 692
1168 626 567 642 692
1169 626 529 567 692
1170 626 529 567 547
1171 479 417 488 381
1172 479 488 542 486
1173 479 438 488 486
1174 479 417 438 486
1175 479 417 438 488
1176 349 323 286 412
1177 349 415 420 412
1178 349 286 420 412
1179 349 401 415 412
1180 349 323 401 412
1181 349 323 286 278
1182 349 255 415 420
1183 349 286 255 420
1184 349 255 415 278
1185 349 286 255 278
1186 515 472 406 486
1187 515 621 542 486
1188 515 472 542 486
1189 515 621 529 547
1190 515 460 472 406
1191 515 621 529 542
1192 515 472 529 542
1193 515 460 529 547
1194 515 460 472 529
1195 127 66 58 31
1196 127 156 58 31
1197 127 156 58 188
1198 127 66 58 61
1199 127 58 61 188
1200 127 66 61 188
1201 127 66 115 31
1202 127 68 115 31
1203 127 39 66 115
1204 127 39 201 115
1205 127 39 201 211
1206 127 68 115 36
1207 127 201 115 36
1208 127 66 188 143
1209 127 68 153 185
1210 127 201 36 185
1211 127 68 36 185
1212 127 68 27 31
1213 127 156 27 31
1214 127 156 153 27
1215 127 68 153 27
1216 103 45 175 91
1217 103 66 91 143
1218 103 45 175 92
1219 103 211 175 92
1220 103 39 211 92
1221 264 267 280 381
1222 264 280 335 381
1223 264 280 335 248
1224 264 417 335 381
1225 264 417 335 248
1226 240 267 280 163
1227 240 279 280 163
1228 240 279 203 163
1229 263 279 410 385
1230 263 285 385 288
1231 263 285 279 385
1232 263 374 385 288
1233 263 374 309 288
1234 263 374 410 385
1235 263 374 410 309
1236 263 285 188 288
1237 263 285 188 179
1238 263 285 279 179
1239 263 335 410 309
1240 263 280 335 410
1241 263 279 280 179
1242 263 275 335 309
1243 263 188 179 143
1244 263 280 179 143
1245 263 280 335 143
1246 263 275 335 143
1247 107 122 50 70
1248 107 8 143 70
1249 107 122 143 70
1250 107 122 113 50
1251 107 8 179 143
1252 107 122 179 143
1253 107 122 113 179
1254 107 73 113 179
1255 107 58 8 179
1256 107 73 58 179
1257 187 125 143 70
1258 187 122 143 70
1259 187 125 248 143
1260 187 280 248 143
1261 187 264 280 248
1262 187 280 179 143
1263 187 122 179 143
1264 187 264 267 280
1265 187 280 163 179
1266 187 122 163 179
1267 187 267 280 163
1268 250 263 309 288
1269 250 263 188 288
1270 250 263 188 309
1271 250 374 309 288
1272 250 337 374 288
1273 250 337 374 309
1274 250 201 277 288
1275 250 337 277 288
1276 250 337 201 277
1277 250 337 201 211
1278 250 127 201 211
1279 250 323 211 309
1280 250 337 323 309
1281 250 337 323 211
1282 199 285 258 308
1283 199 245 159 198
1284 199 258 245 159
1285 199 245 308 198
1286 199 258 245 308
1287 199 153 159 198
1288 199 153 308 198
1289 199 258 159 161
1290 199 12 159 161
1291 199 12 156 161
1292 199 156 153 27
1293 199 258 203 161
1294 199 285 258 203
1295 199 156 203 161
1296 199 156 285 203
1297 199 12 156 27
1298 199 78 153 159
1299 199 78 153 27
1300 199 12 78 27
1301 199 12 78 159
1302 413 374 385 288
1303 413 374 277 288
1304 413 308 385 288
1305 413 277 308 288
1306 413 308 387 398
1307 413 308 385 387
1308 413 265 308 398
1309 413 265 277 308
1310 413 392 496 398
1311 413 392 265 398
1312 413 392 265 277
1313 413 337 374 277
1314 413 501 385 387
1315 413 496 448 398
1316 413 496 501 448
1317 413 496 564 501
1318 413 392 277 296
1319 413 337 277 296
1320 413 387 448 398
1321 413 501 387 448
1322 668 610 530 640
1323 668 666 715 754
1324 668 723 754 640
1325 668 723 715 754
1326 668 666 754 720
1327 668 723 654 640
1328 668 754 697 640
1329 668 706 754 697
1330 668 610 697 640
1331 668 706 610 697
1332 655 552 536 635
1333 655 723 710 654
1334 655 660 710 654
1335 655 723 800 710
1336 655 660 800 710
1337 655 660 800 680
1338 166 99 195 38
1339 166 117 195 38
1340 166 114 117 38
1341 166 269 195 215
1342 166 195 215 164
1343 166 117 215 164
1344 166 117 195 164
1345 166 340 195 227
1346 166 340 269 195
1347 148 99 36 72
1348 148 36 185 72
1349 148 201 36 185
1350 148 201 277 185
1351 148 201 277 296
1352 148 201 194 296
1353 148 115 36 69
1354 148 201 115 69
1355 148 201 115 36
1356 148 201 194 69
1357 148 256 194 296
1358 165 271 232 129
1359 165 271 232 272
1360 165 129 198 173
1361 165 271 129 198
1362 165 272 198 173
1363 165 271 272 198
1364 165 129 20 173
1365 165 289 232 272
1366 165 28 20 173
1367 165 123 28 173
1368 165 193 71 189
1369 165 123 87 189
1370 299 271 272 198
1371 299 271 272 368
1372 299 367 272 239
1373 299 367 272 368
1374 299 367 393 368
1375 299 245 308 198
1376 299 271 308 198
1377 299 393 308 380
1378 299 393 245 380
1379 299 393 308 368
1380 299 271 308 368
1381 299 245 198 173
1382 299 245 239 173
1383 299 272 198 173
1384 299 272 239 173
1385 299 258 308 380
1386 299 258 245 380
1387 299 258 245 308
1388 5 32 130 102
1389 5 121 130 57
1390 5 121 130 102
1391 231 202 130 192
1392 222 121 130 192
1393 222 202 130 192
1394 222 202 121 130
1395 222 231 202 192
1396 222 326 121 218
1397 222 138 121 218
1398 222 326 315 218
1399 282 299 245 239
1400 282 299 367 239
1401 375 367 272 368
1402 375 367 465 418
1403 375 367 334 418
1404 16 153 129 198
1405 16 42 129 198
1406 16 78 153 198
1407 16 42 78 198
1408 16 78 153 27
1409 16 153 129 72
1410 16 68 153 72
1411 16 68 153 27
1412 16 129 20 72
1413 16 42 129 20
1414 7 78 159 161
1415 7 76 78 159
1416 7 12 80 161
1417 7 12 78 161
1418 419 368 448 398
1419 419 504 448 398
1420 419 465 368 448
1421 419 504 465 448
1422 419 504 496 398
1423 419 392 496 398
1424 419 568 500 454
1425 419 340 392 454
1426 437 504 465 448
1427 437 531 504 448
1428 437 531 504 465
1429 437 465 368 448
1430 437 367 393 368
1431 437 375 465 368
1432 437 375 367 368
1433 437 375 367 465
1434 437 367 465 418
1435 437 367 414 418
1436 577 504 465 603
1437 577 531 504 603
1438 577 531 504 465
1439 577 513 465 603
1440 577 650 695 603
1441 577 689 656 603
1442 577 689 695 603
1443 577 689 695 656
1444 577 627 656 603
1445 577 695 656 662
1446 577 531 571 603
1447 577 650 571 603
1448 577 650 531 571
1449 600 650 531 571
1450 600 555 544 588
1451 609 590 676 716
1452 609 518 558 590
1453 609 618 568 676
1454 609 518 618 568
1455 609 518 519 558
1456 609 556 590 676
1457 609 518 556 590
1458 609 556 568 676
1459 609 518 556 568
1460 688 579 628 611
1461 688 762 769 656
1462 688 762 726 662
1463 540 556 644 590
1464 540 556 590 464
1465 540 495 446 528
1466 540 644 590 612
1467 540 495 590 464
1468 540 495 612 528
1469 540 495 446 427
1470 540 622 495 612
1471 540 622 590 612
1472 540 622 495 590
1473 22 133 83 40
1474 22 133 83 37
1475 343 220 290 281
1476 343 431 290 334
1477 343 431 334 418
1478 343 367 334 239
1479 343 282 367 239
1480 343 367 334 418
1481 343 367 414 418
1482 343 493 414 418
1483 343 431 493 418
1484 343 431 493 414
1485 343 363 414 354
1486 343 282 414 354
1487 11 138 113 80
1488 11 138 121 29
1489 251 170 218 167
1490 251 326 170 218
1491 251 326 325 353
1492 251 233 170 219
1493 251 326 233 170
1494 251 325 233 219
1495 251 326 325 233
1496 469 521 555 588
1497 550 521 598 608
1498 550 535 598 608
1499 763 740 682 833
1500 763 682 645 662
1501 763 851 796 833
1502 763 740 851 833
1503 763 726 796 662
1504 606 595 551 520
1505 606 551 707 677
1506 606 595 551 677
1507 606 740 707 677
1508 606 740 682 707
1509 606 740 595 677
1510 606 740 595 682
1511 526 493 414 418
1512 526 437 414 418
1513 526 437 531 465
1514 526 437 465 418
1515 526 577 493 513
1516 526 513 465 418
1517 526 493 513 418
1518 526 577 513 465
1519 526 577 531 465
1520 574 637 646 624
1521 574 625 637 624
1522 717 731 765 760
1523 717 637 646 624
1524 717 637 765 624
1525 570 574 646 624
1526 570 646 624 634
1527 570 624 634 639
1528 514 505 624 598
1529 514 521 505 598
1530 514 570 505 624
1531 514 625 624 598
1532 514 625 535 598
1533 514 570 574 484
1534 514 570 574 624
1535 514 574 625 624
1536 719 625 624 761
1537 719 625 765 761
1538 719 625 765 624
1539 719 829 765 761
1540 719 829 745 761
1541 719 829 731 765
1542 719 624 598 761
1543 719 659 598 761
1544 719 745 659 761
1545 719 745 659 598
1546 719 624 598 639
1547 719 745 598 639
1548 719 829 745 803
1549 719 717 646 624
1550 719 717 765 624
1551 719 646 624 639
1552 719 717 731 646
1553 719 717 731 765
1554 719 803 687 639
1555 719 745 687 639
1556 719 745 803 687
1557 719 731 646 634
1558 719 646 634 639
1559 719 731 634 639
1560 719 829 822 803
1561 719 829 731 822
1562 719 701 803 639
1563 719 701 776 803
1564 719 701 731 776
1565 719 701 731 639
1566 719 731 776 822
1567 719 776 822 803
1568 842 988 822 894
1569 842 822 803 894
1570 842 816 803 894
1571 842 869 816 894
1572 842 776 822 803
1573 842 776 816 803
1574 842 869 776 816
1575 985 988 991 894
1576 985 842 988 894
1577 985 842 869 894
1578 910 1015 899 984
1579 910 904 1015 991
1580 910 869 904 991
1581 910 904 816 1015
1582 910 869 904 816
1583 910 1015 899 846
1584 910 816 899 846
1585 910 816 1015 846
1586 910 816 899 793
1587 910 776 816 793
1588 910 869 776 816
1589 961 888 979 986
1590 961 888 979 1024
1591 961 908 1009 986
1592 961 888 941 1024
1593 961 908 1009 858
1594 961 941 1009 858
1595 961 888 908 858
1596 961 888 941 858
1597 906 914 815 881
1598 906 914 815 838
1599 906 748 881 839
1600 906 815 748 881
1601 906 782 838 839
1602 906 815 782 838
1603 906 782 748 839
1604 906 815 782 748
1605 906 914 1011 881
1606 906 1004 1011 881
1607 906 871 838 839
1608 906 1004 1030 949
1609 906 1004 1030 881
1610 906 851 881 839
1611 906 851 1030 881
1612 906 851 949 839
1613 906 851 1030 949
1614 872 914 885 958
1615 872 904 991 958
1616 872 885 991 958
1617 872 904 979 958
1618 872 904 991 894
1619 872 885 991 894
1620 872 904 979 838
1621 872 904 803 894
1622 872 885 803 894
1623 872 914 815 885
1624 872 906 914 838
1625 872 914 815 838
1626 872 885 745 803
1627 872 815 885 745
1628 872 904 781 803
1629 872 904 781 838
1630 872 815 781 838
1631 872 781 745 803
1632 872 815 781 745
1633 1005 851 1030 913
1634 1005 973 1030 913
1635 1005 851 1030 949
1636 1005 1029 851 949
1637 855 954 999 853
1638 855 954 823 853
1639 855 762 823 853
1640 855 954 867 999
1641 855 762 823 769
1642 855 835 867 769
1643 855 850 823 861
1644 855 954 823 861
1645 855 954 850 861
1646 855 850 823 769
1647 855 835 850 769
1648 855 928 954 1031
1649 855 928 850 1031
1650 855 928 954 850
1651 764 740 682 833
1652 764 740 801 833
1653 764 740 682 707
1654 764 740 748 707
1655 764 740 801 748
1656 764 785 748 707
1657 764 801 785 748
1658 678 650 603 584
1659 678 689 650 603
1660 678 568 603 584
1661 1002 971 866 933
1662 636 660 641 564
1663 636 629 641 564
1664 636 629 660 641
1665 636 660 564 584
1666 636 629 735 660
1667 636 564 571 584
1668 636 650 571 584
1669 636 678 660 584
1670 636 678 650 584
1671 636 678 735 660
1672 636 678 735 650
1673 636 564 501 571
1674 636 544 501 571
1675 636 600 544 571
1676 636 629 564 501
1677 636 629 544 501
1678 636 600 650 711
1679 636 600 650 571
1680 636 629 735 721
1681 636 600 544 711
1682 636 672 721 711
1683 636 629 672 721
1684 636 672 544 711
1685 636 629 672 544
1686 752 740 782 839
1687 752 740 782 748
1688 752 600 650 711
1689 752 600 650 695
1690 849 871 896 967
1691 849 906 967 839
1692 849 906 871 839
1693 849 906 871 967
1694 849 1029 851 853
1695 849 1029 896 853
1696 849 794 896 853
1697 849 752 794 839
1698 849 794 896 826
1699 849 794 851 853
1700 849 794 851 839
1701 849 871 782 839
1702 849 752 782 839
1703 772 799 782 838
1704 772 871 782 838
1705 772 799 782 711
1706 772 752 782 711
1707 772 849 871 782
1708 772 849 752 782
1709 772 799 721 711
1710 772 735 799 721
1711 772 752 650 711
1712 772 636 721 711
1713 772 636 735 721
1714 772 636 650 711
1715 772 636 735 650
1716 772 752 650 695
1717 893 1032 896 1021
1718 893 896 826 1021
1719 893 1032 871 896
1720 893 849 896 826
1721 893 849 871 896
1722 893 772 849 871
1723 718 791 676 759
1724 718 689 676 759
1725 718 689 676 603
1726 718 678 689 603
1727 718 618 568 676
1728 718 568 676 603
1729 718 678 568 603
1730 886 868 879 1014
1731 886 827 868 879
1732 886 850 879 1014
1733 886 827 850 879
1734 886 868 934 1014
1735 886 880 868 934
1736 886 880 827 868
1737 886 827 850 791
1738 886 850 791 861
1739 886 827 744 791
1740 788 827 850 879
1741 788 827 751 879
1742 798 827 868 892
1743 798 827 751 868
1744 798 880 827 892
1745 798 880 873 775
1746 798 880 873 892
1747 895 928 968 1033
1748 895 928 1033 879
1749 895 928 850 879
1750 895 928 968 1031
1751 895 788 850 879
1752 703 622 704 716
1753 703 644 590 716
1754 703 622 590 716
1755 703 644 590 612
1756 703 622 590 612
1757 597 558 480 523
1758 597 519 558 480
1759 661 694 566 611
1760 661 694 686 611
1761 742 693 694 734
1762 742 835 769 734
1763 742 694 686 611
1764 742 835 867 769
1765 742 667 686 611
1766 742 667 628 611
1767 742 688 628 611
1768 742 688 726 628
1769 679 628 645 662
1770 679 726 628 662
1771 679 763 645 662
1772 679 763 726 662
1773 679 763 726 796
1774 210 184 304 270
1775 210 316 304 270
1776 210 316 304 238
1777 210 184 304 191
1778 210 141 184 191
1779 336 304 317 270
1780 336 366 304 270
1781 336 304 317 291
1782 336 317 291 383
1783 746 812 831 793
1784 746 812 736 793
1785 746 812 736 681
1786 746 848 812 831
1787 746 848 795 831
1788 997 887 945 878
1789 997 887 865 1017
1790 805 1008 945 900
1791 805 1008 945 878
1792 805 945 900 806
1793 805 945 878 806
1794 805 1008 862 900
1795 805 862 818 900
1796 805 818 900 806
1797 805 811 878 806
1798 805 862 786 818
1799 805 786 818 806
1800 805 811 738 806
1801 805 692 738 806
1802 805 786 806 727
1803 805 692 806 727
1804 805 692 786 727
1805 805 705 692 786
1806 805 642 692 738
1807 805 705 642 692
1808 1035 1008 935 900
1809 1035 1008 945 900
1810 1035 945 900 806
1811 1035 840 900 917
1812 1035 945 856 806
1813 1035 945 974 856
1814 944 880 873 922
1815 944 963 873 922
1816 944 963 1013 873
1817 944 821 1013 873
1818 944 821 880 873
1819 837 854 1013 955
1820 837 821 854 1013
1821 714 702 652 602
1822 690 601 665 602
1823 690 714 702 602
1824 565 601 665 553
1825 565 481 601 553
1826 648 666 739 635
1827 948 860 943 1018
1828 948 947 860 1018
1829 948 941 1009 858
1830 948 941 943 858
1831 948 908 1009 858
1832 978 998 908 1009
1833 883 857 824 790
1834 883 813 824 790
1835 883 800 844 790
1836 883 813 800 790
1837 557 583 675 664
1838 557 541 583 664
1839 557 631 541 664
1840 557 583 675 549
1841 557 541 583 485
1842 557 560 549 456
1843 557 583 456 485
1844 557 583 549 456
1845 473 541 508 581
1846 473 479 488 381
1847 683 675 736 681
1848 683 746 736 681
1849 683 746 736 793
1850 683 631 630 736
1851 784 619 780 700
1852 784 619 674 700
1853 784 619 674 675
1854 784 780 768 700
1855 784 674 768 700
1856 784 741 674 675
1857 784 741 812 675
1858 784 741 812 858
1859 784 746 848 812
1860 784 699 619 780
1861 784 812 675 681
1862 784 746 812 681
1863 784 619 675 681
1864 784 674 767 768
1865 784 741 674 767
1866 784 848 812 858
1867 784 741 767 858
1868 784 848 795 780
1869 784 746 848 795
1870 784 746 699 795
1871 784 699 795 780
1872 784 746 699 681
1873 784 699 619 681
1874 784 767 768 858
1875 784 848 860 858
1876 784 848 860 780
1877 784 860 768 858
1878 784 860 780 768
1879 713 630 736 664
1880 713 701 736 664
1881 713 701 630 664
1882 713 683 630 736
1883 713 683 736 793
1884 713 816 736 793
1885 713 776 816 793
1886 713 701 816 736
1887 713 701 776 816
1888 444 395 315 505
1889 444 395 505 485
1890 444 395 432 485
1891 444 432 380 328
1892 444 395 432 328
1893 444 586 505 485
1894 444 521 586 505
1895 228 197 158 128
1896 262 229 342 260
1897 262 358 342 260
1898 262 229 260 146
1899 262 157 260 146
1900 403 424 358 342
1901 403 424 342 389
1902 653 609 519 558
1903 653 618 744 676
1904 653 609 744 676
1905 653 609 618 676
1906 653 609 518 618
1907 653 618 607 669
1908 543 653 618 607
1909 543 653 518 618
1910 543 609 518 519
1911 543 653 609 519
1912 543 653 609 518
1913 543 580 618 607
1914 543 580 518 618
1915 543 580 518 454
1916 617 702 633 602
1917 617 519 633 602
1918 617 690 601 602
1919 617 690 684 601
1920 617 543 653 519
1921 617 653 684 607
1922 617 543 653 607
1923 617 684 601 607
1924 617 543 601 607
1925 63 128 149 146
1926 63 116 149 146
1927 63 90 46 146
1928 63 116 46 146
1929 49 13 141 96
1930 49 13 141 6
1931 49 157 141 152
1932 49 157 152 46
1933 49 157 90 46
1934 49 79 152 46
1935 49 79 141 152
1936 307 302 152 260
1937 307 316 304 365
1938 307 316 304 238
1939 307 292 304 365
1940 307 373 292 365
1941 183 141 152 238
1942 183 157 152 238
1943 183 157 141 152
1944 183 49 141 96
1945 183 49 157 141
1946 183 141 184 96
1947 183 210 141 184
1948 183 49 90 96
1949 183 49 157 90
1950 434 424 519 480
1951 434 470 376 480
1952 434 519 470 480
1953 434 424 519 470
1954 559 560 549 456
1955 559 560 467 456
1956 559 560 467 517
1957 559 549 456 501
1958 559 374 467 456
1959 559 374 467 517
1960 559 560 641 549
1961 559 456 501 385
1962 559 549 564 501
1963 559 374 456 385
1964 559 517 641 620
1965 559 560 517 620
1966 559 629 549 564
1967 559 629 641 564
1968 559 629 641 549
1969 559 517 641 654
1970 559 674 641 620
1971 559 560 674 620
1972 559 560 674 641
1973 136 200 216 168
1974 136 200 65 168
1975 136 65 35 85
1976 136 65 35 168
1977 136 65 17 85
1978 136 65 17 74
1979 136 200 17 74
1980 136 200 65 74
1981 236 200 118 17
1982 311 269 181 235
1983 311 269 215 181
1984 311 355 341 253
1985 311 355 215 253
1986 311 269 355 215
1987 311 269 361 235
1988 311 394 269 361
1989 311 394 355 341
1990 311 181 164 253
1991 311 215 164 253
1992 311 215 181 164
1993 311 269 355 396
1994 311 394 355 396
1995 311 394 269 396
1996 371 435 256 402
1997 371 461 379 415
1998 371 255 415 278
1999 371 339 255 415
2000 371 339 379 415
2001 331 392 265 398
2002 331 289 232 227
2003 331 419 340 392
2004 331 419 392 398
2005 331 271 265 232
2006 331 265 308 398
2007 331 271 265 308
2008 331 419 368 398
2009 331 271 232 272
2010 331 289 232 272
2011 331 308 368 398
2012 331 271 308 368
2013 331 271 272 368
2014 331 375 272 368
2015 331 375 289 272
2016 331 375 465 368
2017 331 419 465 368
2018 331 419 375 465
2019 293 339 212 255
2020 293 371 339 255
2021 293 371 339 379
2022 691 692 738 697
2023 691 599 692 697
2024 691 642 692 738
2025 691 770 738 697
2026 691 706 770 697
2027 691 599 642 692
2028 691 599 587 642
2029 691 770 811 738
2030 691 706 770 811
2031 691 706 610 697
2032 691 599 610 697
2033 691 599 587 610
2034 511 491 517 401
2035 511 572 503 530
2036 511 491 572 503
2037 511 572 530 640
2038 511 572 620 640
2039 511 491 517 620
2040 511 491 572 620
2041 462 337 435 296
2042 462 413 392 296
2043 462 413 337 296
2044 462 511 337 435
2045 462 413 337 374
2046 462 511 517 401
2047 462 511 337 401
2048 462 374 517 401
2049 462 337 374 401
2050 462 559 374 517
2051 462 413 496 564
2052 462 413 374 385
2053 462 559 374 385
2054 462 413 564 501
2055 462 559 564 501
2056 462 413 501 385
2057 462 559 501 385
2058 119 21 77 164
2059 119 152 164 149
2060 119 21 164 149
2061 119 21 152 149
2062 119 152 215 164
2063 119 116 21 152
2064 119 79 116 152
2065 287 269 361 235
2066 287 340 269 361
2067 287 269 195 235
2068 287 340 269 195
2069 287 148 195 296
2070 287 361 256 235
2071 287 361 256 296
2072 287 392 361 296
2073 287 340 392 361
2074 287 148 256 235
2075 287 148 256 296
2076 613 561 628 545
2077 613 561 667 628
2078 613 679 628 645
2079 522 561 628 545
2080 522 431 628 509
2081 522 431 628 545
2082 522 561 628 611
2083 522 579 628 611
2084 522 561 566 611
2085 522 561 566 502
2086 359 333 290 268
2087 359 431 290 281
2088 359 409 431 281
2089 359 290 268 249
2090 359 290 281 249
2091 426 431 493 509
2092 426 431 493 418
2093 426 493 513 509
2094 426 493 513 418
2095 426 431 334 418
2096 426 333 290 334
2097 426 359 333 290
2098 426 431 290 334
2099 426 359 431 290
2100 422 343 431 414
2101 475 474 408 502
2102 475 474 538 528
2103 475 474 446 528
2104 475 474 538 566
2105 475 426 446 509
2106 475 474 566 502
2107 475 522 566 502
2108 475 538 579 528
2109 475 579 446 509
2110 475 522 579 509
2111 475 538 579 611
2112 475 522 579 611
2113 475 538 566 611
2114 475 522 566 611
2115 475 445 408 502
2116 475 540 446 528
2117 475 540 579 528
2118 475 540 579 446
2119 177 176 290 241
2120 177 135 241 189
2121 177 176 135 241
2122 177 44 135 189
2123 177 44 176 135
2124 177 123 87 189
2125 177 44 87 189
2126 177 44 123 87
2127 177 176 290 206
2128 177 133 213 206
2129 177 220 213 206
2130 177 133 206 120
2131 177 176 206 120
2132 177 220 206 281
2133 177 290 206 281
2134 177 220 290 281
2135 106 123 40 87
2136 106 44 123 87
2137 106 177 44 123
2138 106 133 123 40
2139 106 177 133 123
2140 106 177 133 120
2141 106 177 176 120
2142 106 177 44 176
2143 106 22 133 120
2144 106 22 133 40
2145 106 176 59 120
2146 106 44 176 59
2147 966 965 865 1017
2148 966 997 865 1017
2149 966 865 945 856
2150 966 887 865 945
2151 966 997 887 945
2152 966 997 887 865
2153 966 945 974 856
2154 926 965 865 1017
2155 926 887 865 1017
2156 926 852 887 865
2157 1006 971 866 933
2158 1006 832 874 866
2159 1006 874 866 933
2160 1006 874 993 933
2161 1006 874 903 993
2162 1006 903 993 977
2163 845 832 813 739
2164 845 807 817 739
2165 845 832 807 739
2166 845 754 739 720
2167 845 817 754 720
2168 845 715 754 739
2169 845 813 715 739
2170 845 813 715 754
2171 845 813 824 754
2172 845 807 817 866
2173 845 832 807 866
2174 845 729 817 720
2175 845 729 739 720
2176 845 729 817 739
2177 845 852 817 754
2178 845 883 813 824
2179 576 626 705 642
2180 576 626 567 642
2181 576 567 547 498
2182 576 626 567 547
2183 554 479 488 542
2184 554 619 575 638
2185 554 619 542 575
2186 554 542 575 486
2187 554 479 542 486
2188 204 127 153 185
2189 204 127 156 153
2190 204 127 201 185
2191 204 127 156 188
2192 204 265 308 288
2193 204 285 308 288
2194 204 265 153 185
2195 204 265 153 308
2196 204 285 188 288
2197 204 156 285 188
2198 204 199 156 153
2199 204 199 156 285
2200 204 201 277 288
2201 204 201 277 185
2202 204 250 201 288
2203 204 250 127 201
2204 204 250 188 288
2205 204 250 127 188
2206 204 265 277 288
2207 204 265 277 185
2208 204 199 153 308
2209 204 199 285 308
2210 196 175 91 143
2211 196 103 91 143
2212 196 103 175 91
2213 196 127 188 143
2214 196 127 66 143
2215 196 103 66 143
2216 196 103 211 175
2217 196 275 175 143
2218 196 103 39 66
2219 196 127 39 66
2220 196 127 39 211
2221 196 103 39 211
2222 196 250 127 188
2223 196 250 127 211
2224 196 263 188 143
2225 196 263 188 309
2226 196 263 275 143
2227 196 263 275 309
2228 196 250 188 309
2229 196 250 211 309
2230 196 323 211 309
2231 196 275 323 309
2232 196 323 211 175
2233 196 275 323 175
2234 351 240 267 280
2235 351 240 279 280
2236 351 395 279 315
2237 351 240 279 315
2238 351 240 395 315
2239 351 280 410 381
2240 351 263 280 410
2241 351 263 279 410
2242 351 263 279 280
2243 351 432 410 385
2244 351 279 410 385
2245 351 279 432 385
2246 351 279 432 328
2247 351 395 432 328
2248 351 395 279 328
2249 351 488 410 381
2250 604 552 536 635
2251 604 666 715 635
2252 604 668 666 715
2253 604 655 536 635
2254 604 655 715 635
2255 604 668 723 715
2256 604 655 723 715
2257 604 668 654 640
2258 604 668 723 654
2259 604 655 723 654
2260 490 355 341 389
2261 490 394 355 341
2262 490 543 601 607
2263 490 565 481 389
2264 490 424 355 389
2265 490 394 355 396
2266 490 424 355 396
2267 490 543 424 396
2268 487 435 361 402
2269 487 394 361 402
2270 487 552 435 536
2271 487 361 454 396
2272 487 394 361 396
2273 487 340 361 454
2274 594 655 660 654
2275 594 655 660 680
2276 594 660 641 654
2277 594 462 559 564
2278 594 660 564 584
2279 594 660 641 564
2280 594 559 641 564
2281 594 496 564 584
2282 594 462 496 564
2283 15 166 99 38
2284 15 166 99 55
2285 15 166 114 38
2286 15 166 114 141
2287 155 166 195 227
2288 155 166 99 195
2289 155 148 99 195
2290 155 153 185 72
2291 155 153 129 72
2292 155 148 185 72
2293 155 148 99 72
2294 155 99 55 72
2295 155 55 129 72
2296 155 232 153 185
2297 155 232 153 129
2298 155 265 232 185
2299 155 265 232 227
2300 155 165 232 129
2301 214 193 292 191
2302 214 292 304 191
2303 214 141 6 191
2304 214 307 292 304
2305 214 210 304 191
2306 214 210 141 191
2307 214 93 6 191
2308 214 193 93 191
2309 214 307 304 238
2310 214 307 141 238
2311 214 210 304 238
2312 214 183 210 238
2313 214 183 141 238
2314 214 183 210 141
2315 225 302 152 215
2316 225 114 152 215
2317 225 166 114 215
2318 225 166 269 215
2319 225 114 141 152
2320 225 166 114 141
2321 225 214 166 141
2322 225 302 269 215
2323 225 307 141 152
2324 225 214 307 141
2325 225 307 302 152
2326 225 302 269 348
2327 225 307 302 348
2328 225 340 269 348
2329 225 166 340 269
2330 225 166 340 227
2331 67 148 36 69
2332 67 148 99 36
2333 67 148 99 195
2334 67 99 195 38
2335 82 55 129 20
2336 82 165 129 20
2337 82 165 55 129
2338 82 193 71 98
2339 82 165 193 71
2340 82 165 28 20
2341 82 71 87 189
2342 82 165 87 189
2343 82 165 71 189
2344 82 123 28 87
2345 82 165 123 87
2346 82 165 123 28
2347 246 165 123 189
2348 246 123 239 173
2349 246 165 123 173
2350 246 272 239 173
2351 246 165 272 173
2352 246 272 334 239
2353 246 193 259 189
2354 246 165 193 189
2355 246 165 289 272
2356 246 259 241 189
2357 246 334 259 241
2358 246 193 289 259
2359 246 165 193 289
2360 246 375 289 259
2361 246 375 289 272
2362 246 367 272 334
2363 246 375 367 334
2364 246 375 367 272
2365 150 231 202 130
2366 150 32 130 102
2367 150 202 130 102
2368 276 222 138 218
2369 276 203 218 328
2370 276 138 203 218
2371 276 258 203 328
2372 276 315 218 328
2373 276 222 315 218
2374 276 258 380 328
2375 276 258 203 161
2376 276 138 203 161
2377 276 222 326 315
2378 276 222 202 245
2379 405 513 465 418
2380 405 375 465 418
2381 405 426 513 446
2382 405 426 513 418
2383 405 375 334 418
2384 405 426 334 418
2385 405 426 333 446
2386 405 375 289 259
2387 405 333 334 259
2388 405 426 333 334
2389 405 246 334 259
2390 405 246 375 259
2391 405 246 375 334
2392 346 331 289 227
2393 346 331 340 227
2394 346 331 419 340
2395 346 373 348 454
2396 346 419 373 454
2397 346 340 348 454
2398 346 419 340 454
2399 151 7 159 161
2400 151 202 245 159
2401 151 7 76 159
2402 151 258 159 161
2403 151 258 245 159
2404 151 222 202 121
2405 151 7 76 102
2406 151 222 202 245
2407 151 276 258 161
2408 151 276 138 161
2409 151 276 222 138
2410 151 138 80 161
2411 151 7 80 161
2412 151 7 138 80
2413 151 222 138 121
2414 151 202 121 102
2415 151 276 258 245
2416 151 276 222 245
2417 512 504 568 500
2418 512 419 568 500
2419 512 419 504 500
2420 512 419 504 496
2421 512 504 568 584
2422 512 504 496 584
2423 512 419 568 454
2424 512 419 392 454
2425 512 419 392 496
2426 512 487 580 454
2427 623 577 650 695
2428 623 577 650 531
2429 623 600 650 695
2430 623 600 650 531
2431 623 526 577 531
2432 623 526 600 531
2433 623 577 695 662
2434 623 526 577 662
2435 623 752 600 695
2436 623 526 600 555
2437 593 493 513 509
2438 593 577 493 513
2439 593 577 656 662
2440 593 526 577 662
2441 593 526 577 493
2442 593 522 628 509
2443 593 522 579 509
2444 593 522 579 628
2445 593 688 579 628
2446 593 762 656 662
2447 593 688 762 662
2448 593 688 762 656
2449 593 726 628 662
2450 593 688 726 662
2451 593 688 726 628
2452 670 740 748 677
2453 670 600 555 588
2454 670 752 740 748
2455 670 555 588 677
2456 670 752 600 711
2457 670 588 659 677
2458 670 748 659 677
2459 670 600 544 711
2460 670 600 544 588
2461 670 752 782 711
2462 670 752 782 748
2463 670 745 748 659
2464 670 672 544 711
2465 670 672 544 588
2466 670 782 745 748
2467 670 672 687 711
2468 670 588 659 687
2469 670 672 588 687
2470 670 745 659 687
2471 670 782 781 711
2472 670 782 781 745
2473 670 781 687 711
2474 670 781 745 687
2475 658 742 688 611
2476 658 742 688 769
2477 658 688 579 611
2478 658 693 769 734
2479 658 742 769 734
2480 658 742 693 734
2481 658 579 616 611
2482 658 694 616 611
2483 658 742 694 611
2484 658 693 694 616
2485 658 742 693 694
2486 658 693 616 612
2487 658 644 769 656
2488 658 688 769 656
2489 658 540 644 612
2490 658 593 579 656
2491 658 593 688 656
2492 658 593 688 579
2493 658 616 612 528
2494 658 540 612 528
2495 658 579 616 528
2496 658 540 579 528
2497 562 540 556 644
2498 562 556 644 627
2499 562 644 627 656
2500 562 556 627 603
2501 562 556 513 603
2502 562 577 627 656
2503 562 577 627 603
2504 562 577 513 603
2505 562 658 644 656
2506 562 658 579 656
2507 562 658 540 644
2508 562 658 540 579
2509 562 593 579 656
2510 562 540 579 446
2511 562 593 577 656
2512 562 593 577 513
2513 562 593 513 509
2514 562 593 579 509
2515 562 579 446 509
2516 562 426 446 509
2517 562 426 513 509
2518 562 426 513 446
2519 84 22 133 37
2520 364 431 290 281
2521 364 343 290 281
2522 364 343 431 290
2523 364 422 343 431
2524 364 409 431 281
2525 364 343 220 281
2526 109 11 138 29
2527 109 11 138 113
2528 109 138 113 167
2529 109 113 43 167
2530 109 29 218 167
2531 109 138 218 167
2532 109 138 29 218
2533 109 64 43 167
2534 109 64 29 167
2535 273 326 233 407
2536 273 326 121 233
2537 273 121 233 192
2538 273 222 326 121
2539 273 274 222 326
2540 273 222 121 192
2541 273 274 222 192
2542 295 222 231 192
2543 295 274 222 192
2544 295 222 231 202
2545 324 251 218 167
2546 324 326 315 218
2547 324 251 326 218
2548 350 367 414 393
2549 350 299 367 393
2550 350 282 299 367
2551 350 343 367 414
2552 350 343 282 414
2553 350 343 282 367
2554 350 299 393 245
2555 350 282 299 245
2556 350 393 245 380
2557 350 469 393 380
2558 482 469 393 380
2559 482 432 380 387
2560 482 469 521 588
2561 482 555 544 588
2562 482 469 555 588
2563 482 544 432 501
2564 482 444 432 380
2565 482 444 432 485
2566 482 544 586 588
2567 482 521 586 588
2568 482 444 521 586
2569 482 583 432 485
2570 482 583 544 432
2571 482 444 586 485
2572 482 583 586 485
2573 482 583 544 586
2574 507 550 551 608
2575 507 551 677 608
2576 507 521 677 608
2577 507 550 521 608
2578 507 595 551 677
2579 507 595 555 677
2580 507 555 588 677
2581 507 521 588 677
2582 507 521 555 588
2583 507 469 521 555
2584 507 436 551 520
2585 507 595 551 520
2586 724 763 851 796
2587 724 763 740 851
2588 724 763 796 662
2589 724 794 851 796
2590 724 763 682 662
2591 724 763 740 682
2592 724 762 796 662
2593 724 794 762 662
2594 724 794 762 796
2595 724 740 851 839
2596 724 752 740 839
2597 724 595 682 662
2598 724 740 595 682
2599 724 794 695 662
2600 724 752 794 695
2601 724 794 851 839
2602 724 752 794 839
2603 724 623 695 662
2604 724 623 752 695
2605 458 514 428 535
2606 458 514 521 598
2607 458 514 535 598
2608 458 514 521 505
2609 458 514 428 505
2610 458 507 550 521
2611 458 550 521 598
2612 458 550 535 598
2613 458 444 521 505
2614 458 507 469 521
2615 489 514 423 484
2616 489 514 574 484
2617 489 514 574 625
2618 489 514 625 535
2619 489 428 423 407
2620 489 514 428 423
2621 489 514 428 535
2622 489 458 535 407
2623 489 458 428 407
2624 489 458 428 535
2625 969 910 869 991
2626 969 869 991 894
2627 969 985 991 894
2628 969 985 869 894
2629 969 910 1015 984
2630 969 910 1015 991
2631 942 906 1004 967
2632 942 888 979 986
2633 942 888 979 838
2634 942 906 871 838
2635 942 871 967 986
2636 942 906 871 967
2637 920 906 1004 949
2638 920 906 1004 967
2639 920 906 949 839
2640 920 906 967 839
2641 920 851 949 839
2642 920 1029 851 949
2643 920 849 967 839
2644 920 849 851 839
2645 920 849 1029 851
2646 920 849 896 967
2647 920 849 1029 896
2648 920 1032 896 967
2649 920 1032 1029 896
2650 902 851 913 833
2651 902 851 796 833
2652 902 763 796 833
2653 902 1010 1005 973
2654 902 1005 973 913
2655 992 1034 867 999
2656 992 916 1028 1012
2657 936 1034 867 999
2658 936 902 863 930
2659 936 1034 863 930
2660 936 902 1010 1005
2661 891 835 797 870
2662 864 772 799 838
2663 864 772 871 838
2664 864 799 888 838
2665 864 942 888 986
2666 864 942 888 838
2667 864 942 871 986
2668 864 942 871 838
2669 864 888 908 858
2670 864 799 908 858
2671 864 799 888 858
2672 864 961 908 986
2673 864 961 888 986
2674 864 961 888 908
2675 755 678 689 650
2676 755 678 735 650
2677 755 772 735 650
2678 755 718 678 689
2679 755 893 830 826
2680 755 893 772 830
2681 755 772 830 735
2682 755 689 826 759
2683 755 718 826 759
2684 755 718 689 759
2685 995 893 830 925
2686 828 893 925 908
2687 828 893 830 925
2688 828 864 893 908
2689 828 893 772 830
2690 828 830 735 800
2691 828 772 830 735
2692 828 893 772 871
2693 828 864 772 871
2694 828 864 893 871
2695 828 767 844 908
2696 828 800 844 710
2697 828 735 800 710
2698 828 772 735 799
2699 828 864 772 799
2700 828 799 767 908
2701 828 864 799 908
2702 828 767 844 710
2703 828 735 767 710
2704 828 799 767 721
2705 828 735 767 721
2706 828 735 799 721
2707 773 830 735 800
2708 773 660 800 680
2709 773 735 660 800
2710 773 718 678 680
2711 773 678 660 680
2712 773 678 735 660
2713 773 755 830 735
2714 773 755 678 735
2715 773 755 718 830
2716 773 755 718 678
2717 951 886 934 1014
2718 951 886 960 1014
2719 951 886 880 934
2720 970 886 960 1014
2721 970 886 850 1014
2722 970 928 850 1023
2723 970 886 960 940
2724 970 850 879 1014
2725 970 928 879 1014
2726 970 928 850 879
2727 970 850 1023 861
2728 970 886 850 861
2729 970 940 1023 861
2730 970 886 940 861
2731 819 886 827 744
2732 819 886 880 827
2733 819 886 744 791
2734 753 827 850 716
2735 753 788 827 716
2736 753 788 827 850
2737 753 835 850 769
2738 753 644 759 716
2739 753 644 769 759
2740 753 791 759 716
2741 753 850 791 716
2742 753 850 791 759
2743 753 823 769 759
2744 753 850 823 759
2745 753 850 823 769
2746 753 703 644 716
2747 753 788 704 716
2748 753 703 704 716
2749 753 658 644 769
2750 753 835 797 734
2751 753 835 769 734
2752 753 658 693 769
2753 753 703 644 612
2754 753 658 644 612
2755 753 693 769 734
2756 753 703 693 612
2757 753 658 693 612
2758 698 788 827 716
2759 698 788 827 751
2760 698 827 744 716
2761 698 788 751 704
2762 698 788 704 716
2763 698 622 704 716
2764 698 744 676 716
2765 698 609 676 716
2766 698 609 744 676
2767 698 653 609 744
2768 698 609 590 716
2769 698 609 558 590
2770 698 653 609 558
2771 698 622 590 716
2772 698 597 558 671
2773 657 622 558 523
2774 657 597 558 523
2775 657 698 597 558
2776 657 622 558 590
2777 657 698 558 590
2778 657 698 622 590
2779 657 698 597 671
2780 657 698 622 704
2781 657 698 751 671
2782 657 698 751 704
2783 643 597 558 671
2784 643 597 519 558
2785 643 698 558 671
2786 643 653 519 558
2787 643 698 653 558
2788 643 617 519 633
2789 643 525 519 633
2790 643 617 653 519
2791 643 525 519 480
2792 643 597 519 480
2793 589 566 611 502
2794 589 561 611 502
2795 882 1034 863 867
2796 882 992 1034 867
2797 882 992 916 1012
2798 712 661 694 686
2799 712 742 694 686
2800 804 742 688 726
2801 804 742 867 769
2802 804 742 688 769
2803 804 855 867 769
2804 804 688 762 769
2805 804 688 762 726
2806 804 855 762 769
2807 804 762 726 796
2808 804 882 863 867
2809 804 882 742 867
2810 804 882 742 863
2811 804 762 796 853
2812 804 855 762 853
2813 804 902 863 796
2814 804 1034 863 867
2815 804 936 1034 867
2816 804 936 1034 863
2817 733 679 726 628
2818 733 742 726 628
2819 733 742 667 628
2820 733 613 667 628
2821 733 613 679 628
2822 733 804 742 726
2823 733 804 726 796
2824 733 742 667 686
2825 766 817 754 720
2826 766 852 817 754
2827 766 852 865 754
2828 766 770 865 754
2829 766 706 770 754
2830 766 770 865 811
2831 766 706 770 811
2832 766 887 865 811
2833 766 852 887 865
2834 953 1008 945 878
2835 953 997 945 878
2836 972 1035 900 917
2837 972 1035 935 900
2838 843 1035 1007 917
2839 843 1035 840 917
2840 843 915 840 917
2841 843 1007 915 917
2842 843 1035 900 806
2843 843 1035 840 900
2844 843 1035 856 806
2845 843 848 915 840
2846 843 848 1007 915
2847 843 848 1007 860
2848 843 818 840 900
2849 843 818 900 806
2850 843 1035 1007 974
2851 843 1035 974 856
2852 843 848 860 780
2853 843 860 778 780
2854 843 778 856 806
2855 843 860 778 856
2856 843 860 974 856
2857 843 1007 860 974
2858 843 749 818 840
2859 843 749 818 806
2860 843 848 795 840
2861 843 848 795 780
2862 843 749 696 806
2863 843 749 780 696
2864 843 795 749 840
2865 843 795 749 780
2866 843 778 696 806
2867 843 778 780 696
2868 1001 880 934 922
2869 1001 944 880 922
2870 1001 951 880 934
2871 909 944 821 1013
2872 909 787 905 832
2873 747 837 821 802
2874 756 714 873 775
2875 756 821 873 775
2876 756 714 854 873
2877 756 821 854 873
2878 756 714 854 722
2879 756 747 690 665
2880 756 837 854 722
2881 756 837 821 854
2882 756 747 837 722
2883 756 747 837 821
2884 756 747 665 722
2885 756 714 652 722
2886 756 652 665 602
2887 756 690 665 602
2888 756 714 652 602
2889 756 690 714 602
2890 756 632 665 722
2891 756 632 652 722
2892 756 632 652 665
2893 663 747 690 665
2894 663 690 601 665
2895 663 565 601 665
2896 663 565 578 601
2897 651 729 666 739
2898 651 648 666 739
2899 651 729 777 739
2900 876 860 943 858
2901 876 948 943 858
2902 876 948 860 943
2903 876 860 768 858
2904 876 844 908 858
2905 876 948 908 858
2906 876 767 768 858
2907 876 767 844 858
2908 876 767 844 768
2909 876 857 860 768
2910 876 978 844 908
2911 876 883 978 844
2912 876 948 947 860
2913 876 844 768 790
2914 876 857 768 790
2915 876 978 948 1009
2916 876 948 908 1009
2917 876 978 908 1009
2918 876 883 844 790
2919 876 883 857 790
2920 876 857 947 860
2921 876 978 948 947
2922 911 883 978 932
2923 911 883 978 844
2924 911 883 813 800
2925 911 883 800 844
2926 911 978 989 925
2927 911 978 844 908
2928 911 995 989 925
2929 911 995 830 925
2930 911 828 830 925
2931 911 828 830 800
2932 911 828 800 844
2933 911 828 925 908
2934 911 828 844 908
2935 911 978 998 925
2936 911 998 925 908
2937 911 978 998 908
2938 585 557 675 664
2939 585 557 631 664
2940 585 675 736 664
2941 585 631 736 664
2942 585 683 675 736
2943 585 683 631 736
2944 585 631 638 681
2945 585 683 631 681
2946 585 683 675 681
2947 585 619 638 681
2948 585 619 675 681
2949 585 554 619 638
2950 585 560 619 488
2951 585 560 675 549
2952 585 557 675 549
2953 585 557 560 549
2954 585 631 541 581
2955 585 557 631 541
2956 585 619 488 542
2957 585 554 488 542
2958 585 554 619 542
2959 585 619 674 675
2960 585 560 674 675
2961 585 560 619 674
2962 430 395 541 508
2963 430 473 541 508
2964 254 228 313 298
2965 254 228 197 298
2966 254 228 229 128
2967 254 228 197 128
2968 254 229 128 149
2969 254 197 128 149
2970 254 197 190 149
2971 254 229 260 149
2972 254 229 342 260
2973 254 342 389 298
2974 254 319 389 298
2975 254 319 342 389
2976 254 197 180 298
2977 254 197 190 180
2978 254 342 260 253
2979 254 319 180 298
2980 254 319 190 180
2981 254 319 190 253
2982 254 319 342 253
2983 254 190 260 253
2984 254 190 260 149
2985 322 262 157 238
2986 322 262 157 260
2987 322 157 152 260
2988 322 157 152 238
2989 322 307 152 260
2990 322 141 152 238
2991 322 307 141 238
2992 322 307 141 152
2993 322 262 358 260
2994 322 307 316 238
2995 322 307 316 365
2996 322 358 342 260
2997 322 424 342 260
2998 322 424 358 342
2999 322 307 302 260
3000 322 434 424 358
3001 322 470 376 365
3002 322 302 355 260
3003 322 424 355 260
3004 322 434 470 376
3005 322 434 424 470
3006 320 403 358 342
3007 320 262 229 342
3008 320 262 358 342
3009 320 254 229 342
3010 320 403 342 382
3011 320 254 313 298
3012 320 254 342 298
3013 320 254 228 313
3014 320 254 228 229
3015 320 382 313 298
3016 320 342 382 298
3017 453 342 382 389
3018 453 403 342 389
3019 453 403 342 382
3020 453 425 481 382
3021 453 425 382 389
3022 453 425 481 389
3023 453 481 382 537
3024 453 481 553 537
3025 774 690 702 602
3026 774 617 702 602
3027 774 617 690 602
3028 774 617 690 684
3029 774 798 880 775
3030 774 756 821 775
3031 774 756 690 821
3032 774 714 702 775
3033 774 756 714 775
3034 774 690 714 702
3035 774 756 690 714
3036 774 880 873 775
3037 774 821 873 775
3038 774 821 880 873
3039 9 63 128 149
3040 9 88 41 149
3041 9 88 128 149
3042 9 63 116 149
3043 9 21 41 149
3044 9 116 21 149
3045 9 63 128 1
3046 9 88 128 1
3047 477 424 525 480
3048 477 434 424 480
3049 477 403 424 358
3050 477 434 424 358
3051 208 136 17 85
3052 208 136 200 17
3053 208 136 200 216
3054 208 17 53 174
3055 208 236 200 17
3056 208 139 53 174
3057 208 10 139 53
3058 208 118 17 174
3059 208 236 118 17
3060 208 236 200 216
3061 208 305 216 139
3062 208 236 305 216
3063 208 212 139 174
3064 208 212 255 174
3065 208 293 212 255
3066 208 256 194 174
3067 208 236 194 174
3068 208 236 256 194
3069 247 319 341 253
3070 247 312 319 341
3071 247 223 319 253
3072 247 223 190 253
3073 247 200 190 253
3074 247 223 190 168
3075 247 200 190 168
3076 247 200 216 168
3077 247 312 200 216
3078 321 236 305 216
3079 321 312 200 216
3080 321 236 200 216
3081 283 256 402 235
3082 283 236 256 235
3083 283 236 256 402
3084 283 361 402 235
3085 283 311 361 235
3086 283 236 181 235
3087 283 311 181 235
3088 283 394 361 402
3089 283 311 394 361
3090 283 236 200 181
3091 283 200 181 253
3092 283 311 181 253
3093 283 321 312 200
3094 283 321 236 200
3095 283 247 312 200
3096 283 247 200 253
3097 283 247 312 341
3098 283 311 341 253
3099 283 247 341 253
3100 433 371 435 402
3101 294 256 194 174
3102 294 208 256 174
3103 294 182 174 278
3104 294 182 194 278
3105 294 182 194 174
3106 294 255 174 278
3107 294 208 255 174
3108 294 371 255 278
3109 294 208 236 256
3110 294 293 371 255
3111 294 208 293 255
3112 266 331 392 265
3113 266 265 232 227
3114 266 331 232 227
3115 266 331 265 232
3116 266 331 340 227
3117 266 331 340 392
3118 266 392 265 277
3119 266 265 277 185
3120 266 287 340 392
3121 266 155 265 185
3122 266 155 265 227
3123 266 340 195 227
3124 266 287 340 195
3125 266 392 277 296
3126 266 287 392 296
3127 266 155 195 227
3128 266 148 277 185
3129 266 287 195 296
3130 266 155 148 185
3131 266 155 148 195
3132 266 148 277 296
3133 266 148 195 296
3134 573 461 610 530
3135 497 490 565 601
3136 300 293 371 379
3137 300 294 293 371
3138 300 208 371 305
3139 300 294 208 371
3140 300 294 208 293
3141 300 208 293 212
3142 300 208 212 139
3143 300 208 305 139
3144 347 349 415 278
3145 347 371 415 278
3146 347 511 337 401
3147 347 511 337 435
3148 347 349 323 278
3149 347 294 371 278
3150 347 337 323 401
3151 347 349 323 401
3152 347 337 435 256
3153 347 371 435 256
3154 347 323 211 278
3155 347 337 323 211
3156 347 294 371 256
3157 347 211 194 278
3158 347 337 211 194
3159 347 337 256 194
3160 347 294 194 278
3161 347 294 256 194
3162 476 462 435 296
3163 476 462 392 296
3164 476 435 361 296
3165 476 392 361 296
3166 476 487 435 361
3167 476 462 435 536
3168 476 487 435 536
3169 476 340 392 361
3170 476 487 340 361
3171 476 413 392 496
3172 476 462 413 496
3173 476 462 413 392
3174 476 512 392 496
3175 476 340 392 454
3176 476 487 340 454
3177 476 512 392 454
3178 476 512 487 454
3179 476 594 462 496
3180 476 594 496 584
3181 476 512 496 584
3182 548 462 511 517
3183 548 511 435 536
3184 548 462 435 536
3185 548 462 511 435
3186 548 462 559 517
3187 548 594 462 559
3188 548 476 462 536
3189 548 476 594 536
3190 548 476 594 462
3191 548 517 620 654
3192 548 511 517 620
3193 548 559 517 654
3194 548 604 511 536
3195 548 594 655 654
3196 548 594 655 536
3197 548 620 654 640
3198 548 511 620 640
3199 548 559 641 654
3200 548 594 641 654
3201 548 594 559 641
3202 548 604 655 654
3203 548 604 655 536
3204 548 604 654 640
3205 548 604 511 640
3206 24 117 77 164
3207 24 119 77 164
3208 24 117 215 164
3209 24 119 215 164
3210 24 166 117 215
3211 24 166 114 215
3212 24 166 114 117
3213 24 114 152 215
3214 24 119 152 215
3215 24 79 114 152
3216 24 119 79 152
3217 494 522 561 545
3218 494 522 431 545
3219 332 359 281 249
3220 332 359 409 281
3221 332 359 409 390
3222 332 268 244 249
3223 332 359 268 249
3224 332 390 268 244
3225 332 359 390 268
3226 516 494 431 545
3227 516 494 409 431
3228 516 364 409 431
3229 516 364 422 431
3230 329 343 363 414
3231 329 422 363 414
3232 329 422 343 414
3233 329 364 422 343
3234 329 343 363 354
3235 329 364 343 220
3236 329 343 282 354
3237 384 474 408 383
3238 384 475 474 408
3239 384 314 408 383
3240 384 474 446 383
3241 384 475 474 446
3242 384 314 291 383
3243 384 314 408 268
3244 384 446 291 383
3245 384 333 446 291
3246 384 426 333 446
3247 384 475 426 446
3248 384 333 291 230
3249 384 314 291 230
3250 384 359 333 268
3251 384 333 268 230
3252 384 314 268 230
3253 384 426 359 333
3254 384 475 426 359
3255 384 408 390 268
3256 384 359 390 268
3257 907 966 865 856
3258 907 865 824 856
3259 907 857 824 856
3260 907 857 974 856
3261 907 966 974 856
3262 907 966 965 865
3263 907 883 857 824
3264 907 845 883 824
3265 901 926 965 865
3266 901 926 852 865
3267 901 926 962 965
3268 901 926 852 962
3269 901 907 965 865
3270 901 852 865 754
3271 901 845 852 754
3272 901 1002 962 965
3273 901 907 865 824
3274 901 907 845 824
3275 901 865 824 754
3276 901 845 824 754
3277 901 1002 965 932
3278 901 907 965 932
3279 901 907 845 932
3280 901 1002 962 933
3281 901 852 962 817
3282 901 845 852 817
3283 901 962 866 933
3284 901 1002 866 933
3285 901 962 817 866
3286 901 845 817 866
3287 901 1002 971 866
3288 901 845 971 866
3289 901 845 1002 971
3290 897 845 971 866
3291 897 845 832 866
3292 897 1006 971 866
3293 897 1006 832 866
3294 897 1006 971 927
3295 897 1006 832 927
3296 897 845 832 813
3297 897 909 832 927
3298 897 909 905 832
3299 897 845 1002 971
3300 897 845 883 813
3301 897 911 883 932
3302 897 911 883 813
3303 897 901 1002 932
3304 897 901 845 932
3305 897 901 845 1002
3306 897 907 883 932
3307 897 907 845 932
3308 897 907 845 883
3309 820 897 832 813
3310 820 897 905 832
3311 820 897 911 813
3312 820 897 911 905
3313 820 911 813 800
3314 708 653 607 669
3315 708 653 684 607
3316 708 580 669 635
3317 708 580 607 669
3318 708 648 580 635
3319 471 351 432 410
3320 471 432 456 485
3321 471 432 410 456
3322 471 395 432 485
3323 471 351 395 432
3324 471 557 456 485
3325 471 557 541 485
3326 471 351 488 410
3327 471 395 541 485
3328 471 488 410 456
3329 471 473 488 381
3330 471 351 488 381
3331 471 430 395 541
3332 471 430 473 541
3333 471 430 351 395
3334 471 560 488 456
3335 471 585 560 488
3336 471 557 560 456
3337 471 585 557 560
3338 510 490 481 389
3339 510 490 424 389
3340 510 565 481 601
3341 510 490 565 601
3342 510 490 565 481
3343 510 453 481 389
3344 510 601 553 602
3345 510 481 553 602
3346 510 481 601 553
3347 510 490 543 601
3348 510 490 543 424
3349 510 403 424 389
3350 510 477 403 424
3351 510 477 525 602
3352 510 477 424 525
3353 510 617 601 602
3354 510 617 543 601
3355 510 543 424 519
3356 510 477 453 403
3357 510 453 403 389
3358 510 525 519 602
3359 510 424 525 519
3360 510 617 519 602
3361 510 617 543 519
3362 499 487 394 402
3363 499 487 552 580
3364 499 490 394 396
3365 499 487 394 396
3366 499 490 543 396
3367 499 487 454 396
3368 499 487 580 454
3369 499 543 454 396
3370 499 543 580 454
3371 499 543 580 607
3372 499 490 543 607
3373 591 594 660 584
3374 591 594 660 680
3375 591 678 660 584
3376 591 678 660 680
3377 591 678 568 584
3378 591 512 568 584
3379 591 476 594 584
3380 591 476 512 584
3381 591 476 512 487
3382 591 580 680 669
3383 591 512 487 580
3384 591 718 678 680
3385 591 718 618 568
3386 591 718 678 568
3387 591 476 487 536
3388 591 476 594 536
3389 591 594 655 680
3390 591 594 655 536
3391 591 580 618 669
3392 591 718 680 669
3393 591 718 618 669
3394 591 580 618 568
3395 591 655 552 536
3396 591 580 680 635
3397 591 552 580 635
3398 591 487 552 536
3399 591 487 552 580
3400 591 580 568 454
3401 591 512 568 454
3402 591 512 580 454
3403 591 655 680 635
3404 591 655 552 635
3405 154 166 99 55
3406 154 155 99 55
3407 154 155 166 99
3408 154 155 166 227
3409 154 82 55 98
3410 154 82 193 98
3411 154 15 55 98
3412 154 15 166 55
3413 154 82 165 55
3414 154 82 165 193
3415 154 165 55 129
3416 154 155 55 129
3417 154 155 165 129
3418 154 155 165 232
3419 154 155 232 227
3420 154 165 289 232
3421 154 165 193 289
3422 154 289 232 227
3423 154 15 166 141
3424 154 214 166 141
3425 154 93 6 98
3426 154 193 93 98
3427 154 214 93 6
3428 154 214 193 93
3429 154 214 141 6
3430 147 67 118 74
3431 147 67 118 69
3432 147 67 148 69
3433 147 200 181 74
3434 147 200 118 74
3435 147 67 117 74
3436 147 67 148 195
3437 147 148 194 69
3438 147 236 200 181
3439 147 236 200 118
3440 147 236 181 235
3441 147 117 77 74
3442 147 77 181 74
3443 147 117 77 181
3444 147 118 100 69
3445 147 100 194 69
3446 147 118 100 194
3447 147 181 164 235
3448 147 195 164 235
3449 147 287 195 235
3450 147 287 148 235
3451 147 287 148 195
3452 147 148 256 235
3453 147 148 256 194
3454 147 117 181 164
3455 147 117 195 164
3456 147 67 117 38
3457 147 117 195 38
3458 147 67 195 38
3459 147 236 256 235
3460 147 236 256 194
3461 147 118 194 174
3462 147 236 194 174
3463 147 208 118 174
3464 147 208 236 174
3465 147 208 236 118
3466 226 177 290 241
3467 226 290 334 241
3468 226 246 334 241
3469 226 177 241 189
3470 226 246 241 189
3471 226 246 334 239
3472 226 177 123 189
3473 226 246 123 189
3474 226 246 123 239
3475 226 343 334 239
3476 226 343 290 334
3477 226 177 220 290
3478 226 177 220 213
3479 226 177 133 123
3480 226 177 133 213
3481 226 343 220 290
3482 226 343 220 213
3483 134 32 102 52
3484 134 150 32 102
3485 134 37 102 52
3486 134 84 37 52
3487 134 84 133 37
3488 466 513 465 500
3489 466 405 513 465
3490 466 405 375 465
3491 466 556 513 500
3492 466 562 556 513
3493 466 405 513 446
3494 466 562 513 446
3495 466 556 500 464
3496 466 562 540 556
3497 466 562 540 446
3498 261 346 373 348
3499 261 346 373 292
3500 261 225 340 348
3501 261 346 340 348
3502 261 214 307 292
3503 261 225 307 348
3504 261 225 214 307
3505 261 307 373 348
3506 261 307 373 292
3507 261 225 340 227
3508 261 346 340 227
3509 261 346 289 227
3510 261 346 289 292
3511 261 154 289 227
3512 261 214 193 292
3513 261 154 214 193
3514 261 225 166 227
3515 261 154 166 227
3516 261 225 214 166
3517 261 154 214 166
3518 261 193 289 292
3519 261 154 193 289
3520 56 151 121 102
3521 56 151 7 102
3522 56 11 138 121
3523 56 151 138 121
3524 56 151 7 138
3525 56 5 121 57
3526 56 5 121 102
3527 56 110 121 57
3528 56 7 138 80
3529 56 11 138 80
3530 56 110 121 29
3531 56 11 121 29
3532 649 724 595 662
3533 649 724 623 662
3534 649 526 595 555
3535 649 623 526 555
3536 649 724 740 595
3537 649 724 623 752
3538 649 595 555 677
3539 649 670 555 677
3540 649 623 600 555
3541 649 670 600 555
3542 649 740 595 677
3543 649 670 740 677
3544 649 670 752 740
3545 649 724 752 740
3546 649 623 752 600
3547 649 670 752 600
3548 224 324 218 167
3549 224 324 315 218
3550 224 138 218 167
3551 224 240 203 163
3552 224 279 315 218
3553 224 240 279 315
3554 224 113 163 167
3555 224 138 113 167
3556 224 138 113 163
3557 224 138 203 218
3558 224 138 203 163
3559 224 279 203 218
3560 224 240 279 203
3561 377 240 395 315
3562 377 351 240 395
3563 377 430 351 395
3564 442 428 326 315
3565 442 324 326 315
3566 442 428 315 505
3567 442 395 315 505
3568 442 541 508 505
3569 442 395 541 505
3570 442 395 541 508
3571 442 430 395 508
3572 451 422 363 414
3573 455 393 380 387
3574 455 482 380 387
3575 455 482 393 380
3576 455 501 387 448
3577 455 432 501 387
3578 455 482 432 387
3579 455 482 432 501
3580 455 482 544 501
3581 455 368 387 448
3582 455 393 368 387
3583 455 437 368 448
3584 455 437 393 368
3585 455 501 571 448
3586 455 544 501 571
3587 455 437 531 448
3588 455 531 571 448
3589 455 600 544 571
3590 455 600 531 571
3591 459 507 436 520
3592 459 451 436 520
3593 459 507 595 520
3594 459 372 507 469
3595 459 507 595 555
3596 459 507 469 555
3597 459 451 436 363
3598 459 451 363 414
3599 459 526 595 555
3600 459 350 469 414
3601 459 372 436 363
3602 459 372 363 354
3603 459 363 414 354
3604 360 444 380 328
3605 360 276 380 328
3606 360 482 444 380
3607 360 482 469 380
3608 360 482 444 521
3609 360 458 444 521
3610 360 350 469 380
3611 360 482 469 521
3612 360 458 469 521
3613 360 258 245 380
3614 360 276 258 380
3615 360 276 258 245
3616 957 906 1004 1011
3617 957 942 906 1004
3618 957 906 914 1011
3619 957 914 1011 958
3620 957 872 906 914
3621 957 872 906 838
3622 957 942 906 838
3623 957 872 979 958
3624 957 872 914 958
3625 957 872 979 838
3626 957 942 979 838
3627 884 902 851 796
3628 884 851 796 853
3629 884 936 902 1005
3630 884 1005 851 913
3631 884 902 851 913
3632 884 902 1005 913
3633 884 1029 851 853
3634 884 1005 1029 851
3635 884 804 902 796
3636 884 804 796 853
3637 884 936 1005 999
3638 884 1005 1029 964
3639 884 1029 964 853
3640 884 936 902 863
3641 884 804 902 863
3642 884 804 936 863
3643 884 804 936 867
3644 884 1005 964 999
3645 884 964 999 853
3646 884 936 867 999
3647 884 804 855 853
3648 884 804 855 867
3649 884 855 999 853
3650 884 855 867 999
3651 996 936 902 930
3652 996 936 902 1010
3653 890 992 1022 1028
3654 890 891 992 1022
3655 890 992 916 1028
3656 890 882 898 916
3657 890 882 992 916
3658 890 882 992 867
3659 912 890 835 867
3660 912 890 891 835
3661 912 890 992 867
3662 912 890 891 992
3663 912 855 835 867
3664 912 992 954 1031
3665 912 891 835 870
3666 912 992 1022 1031
3667 912 891 992 1022
3668 912 855 954 1031
3669 912 855 954 867
3670 912 855 850 1031
3671 912 855 835 850
3672 912 992 954 999
3673 912 954 867 999
3674 912 992 867 999
3675 912 891 1022 870
3676 912 968 1022 870
3677 912 968 1022 1031
3678 912 895 968 870
3679 912 895 968 1031
3680 912 928 850 1031
3681 912 895 928 1031
3682 912 895 928 850
3683 757 755 689 826
3684 757 689 650 695
3685 757 755 689 650
3686 757 689 762 826
3687 757 794 762 826
3688 757 689 762 695
3689 757 794 762 695
3690 757 772 650 695
3691 757 755 772 650
3692 757 849 794 826
3693 757 755 893 826
3694 757 755 893 772
3695 757 752 794 695
3696 757 772 752 695
3697 757 893 849 826
3698 757 893 772 849
3699 757 849 752 794
3700 757 772 849 752
3701 923 893 1032 1021
3702 923 995 893 1032
3703 923 995 893 830
3704 937 995 893 925
3705 937 998 925 908
3706 937 893 925 908
3707 937 995 893 1032
3708 937 864 893 908
3709 937 998 908 986
3710 937 864 908 986
3711 937 893 1032 871
3712 937 864 871 986
3713 937 864 893 871
3714 937 871 967 986
3715 937 1032 871 967
3716 921 990 987 905
3717 737 753 788 704
3718 737 753 703 704
3719 737 753 797 734
3720 737 753 693 734
3721 737 753 703 693
3722 743 798 751 671
3723 743 698 751 671
3724 743 798 827 751
3725 743 698 827 751
3726 743 698 653 744
3727 743 698 827 744
3728 743 643 798 671
3729 743 643 698 671
3730 743 643 698 653
3731 743 819 827 744
3732 743 643 798 702
3733 743 774 798 880
3734 743 643 617 653
3735 743 798 880 827
3736 743 819 880 827
3737 743 617 653 684
3738 743 774 617 684
3739 743 774 617 702
3740 743 798 702 775
3741 743 774 702 775
3742 743 774 798 775
3743 743 643 702 633
3744 743 617 702 633
3745 743 643 617 633
3746 592 661 566 611
3747 592 589 566 611
3748 592 661 686 611
3749 592 561 686 611
3750 592 589 561 611
3751 1016 882 992 1034
3752 1016 1034 863 930
3753 1016 882 1034 863
3754 1016 882 992 1012
3755 783 712 742 686
3756 771 679 726 796
3757 771 733 726 796
3758 771 733 679 726
3759 771 679 763 796
3760 771 902 763 796
3761 771 902 863 796
3762 771 804 863 796
3763 771 733 804 796
3764 789 733 742 686
3765 789 783 742 686
3766 789 804 742 863
3767 789 733 804 742
3768 789 882 742 863
3769 789 771 804 863
3770 789 771 733 804
3771 877 909 1013 977
3772 877 909 821 1013
3773 877 1013 955 977
3774 877 837 1013 955
3775 877 837 821 1013
3776 877 1006 903 977
3777 877 837 903 955
3778 877 903 955 977
3779 877 837 903 802
3780 877 837 821 802
3781 877 1006 927 977
3782 877 909 927 977
3783 877 1006 832 927
3784 877 909 832 927
3785 877 1006 874 903
3786 877 1006 832 874
3787 877 909 787 832
3788 877 874 903 802
3789 877 832 874 802
3790 976 990 987 905
3791 976 897 909 927
3792 976 897 909 905
3793 976 897 971 927
3794 810 909 787 905
3795 810 787 905 832
3796 810 820 905 832
3797 810 820 787 832
3798 596 663 578 601
3799 596 663 690 601
3800 596 565 578 601
3801 596 497 565 601
3802 596 497 565 578
3803 596 497 490 601
3804 596 651 663 725
3805 596 651 648 725
3806 596 490 601 607
3807 596 499 490 607
3808 596 499 497 552
3809 596 499 497 490
3810 596 684 601 607
3811 596 708 684 607
3812 596 708 580 607
3813 596 708 648 580
3814 596 499 580 607
3815 596 499 552 580
3816 596 552 580 635
3817 596 648 580 635
3818 596 648 552 635
3819 758 651 777 739
3820 758 648 725 739
3821 758 651 648 739
3822 758 651 648 725
3823 758 832 777 739
3824 758 832 874 802
3825 758 832 874 777
3826 647 729 666 720
3827 647 651 729 666
3828 975 911 990 989
3829 975 911 978 932
3830 975 911 978 989
3831 975 897 911 932
3832 975 911 990 905
3833 975 897 911 905
3834 975 897 1002 932
3835 975 897 1002 971
3836 975 976 990 905
3837 975 976 897 971
3838 975 976 897 905
3839 539 585 631 638
3840 539 585 554 638
3841 539 585 631 581
3842 539 473 479 488
3843 539 554 479 488
3844 539 585 554 488
3845 539 473 541 581
3846 539 471 473 541
3847 539 585 541 581
3848 539 471 473 488
3849 539 471 585 488
3850 539 585 557 541
3851 539 471 557 541
3852 539 471 585 557
3853 344 322 262 238
3854 344 322 316 238
3855 344 322 262 358
3856 344 316 376 365
3857 344 322 376 365
3858 344 322 316 365
3859 344 322 434 376
3860 344 322 434 358
3861 421 322 424 470
3862 421 322 470 365
3863 421 322 307 365
3864 421 322 424 355
3865 421 307 373 348
3866 421 373 470 365
3867 421 307 373 365
3868 421 322 302 355
3869 421 322 307 302
3870 421 348 454 396
3871 421 543 424 396
3872 421 424 355 396
3873 421 373 348 454
3874 421 307 302 348
3875 421 424 519 470
3876 421 543 424 519
3877 421 302 348 396
3878 421 302 355 396
3879 421 373 518 454
3880 421 543 454 396
3881 421 543 518 454
3882 421 518 519 470
3883 421 543 518 519
3884 421 518 470 464
3885 421 373 470 464
3886 421 373 518 464
3887 728 774 690 821
3888 728 774 690 684
3889 728 877 821 802
3890 728 756 690 821
3891 728 877 832 802
3892 728 877 787 832
3893 728 596 708 684
3894 728 747 821 802
3895 728 756 747 821
3896 728 756 747 690
3897 728 747 725 802
3898 728 758 725 802
3899 728 758 832 802
3900 728 690 684 601
3901 728 596 684 601
3902 728 596 690 601
3903 728 596 708 648
3904 728 708 648 739
3905 728 708 787 739
3906 728 663 747 725
3907 728 663 747 690
3908 728 758 725 739
3909 728 648 725 739
3910 728 787 832 739
3911 728 758 832 739
3912 728 596 648 725
3913 728 596 663 725
3914 728 596 663 690
3915 104 208 136 85
3916 104 208 17 85
3917 104 208 136 216
3918 104 208 17 53
3919 104 208 10 53
3920 104 208 216 139
3921 104 208 10 139
3922 327 312 319 341
3923 327 397 319 341
3924 327 397 312 341
3925 327 247 312 319
3926 327 247 223 319
3927 327 223 319 298
3928 327 425 319 298
3929 450 319 341 389
3930 450 397 319 341
3931 450 327 397 319
3932 450 425 319 389
3933 450 327 425 319
3934 450 425 481 389
3935 450 565 481 389
3936 450 490 565 389
3937 450 497 490 389
3938 450 497 490 565
3939 441 433 371 435
3940 441 347 371 435
3941 441 347 511 435
3942 441 433 371 530
3943 441 347 371 415
3944 441 347 511 401
3945 441 461 415 530
3946 441 371 461 530
3947 441 371 461 415
3948 441 503 415 530
3949 441 511 503 530
3950 441 491 401 415
3951 441 511 491 401
3952 441 349 401 415
3953 441 347 349 415
3954 441 347 349 401
3955 441 491 503 415
3956 441 511 491 503
3957 463 433 435 402
3958 463 487 435 402
3959 463 487 552 435
3960 463 499 487 402
3961 463 499 487 552
3962 463 499 497 552
3963 463 499 394 402
3964 463 596 497 552
3965 400 300 371 379
3966 400 300 371 305
3967 356 433 371 402
3968 356 236 256 402
3969 356 371 256 402
3970 356 283 236 402
3971 356 294 236 256
3972 356 294 371 256
3973 356 283 321 236
3974 356 321 236 305
3975 356 400 433 371
3976 356 294 208 236
3977 356 294 208 371
3978 356 463 433 402
3979 356 208 236 305
3980 356 208 371 305
3981 356 400 321 305
3982 356 400 371 305
3983 356 321 397 312
3984 356 283 321 312
3985 468 400 433 371
3986 527 647 651 533
3987 527 647 651 666
3988 527 651 648 666
3989 527 604 666 635
3990 527 604 552 635
3991 527 648 666 635
3992 527 648 552 635
3993 527 596 648 552
3994 527 463 596 552
3995 527 463 596 497
3996 582 596 497 578
3997 582 527 651 533
3998 582 527 497 533
3999 582 596 663 578
4000 582 596 651 663
4001 582 527 596 497
4002 582 596 651 648
4003 582 527 651 648
4004 582 527 596 648
4005 416 490 394 341
4006 416 490 341 389
4007 416 497 490 389
4008 416 311 394 341
4009 416 450 341 389
4010 416 450 497 389
4011 416 499 490 394
4012 416 463 499 394
4013 416 499 497 490
4014 416 463 499 497
4015 416 283 311 341
4016 416 283 311 394
4017 416 450 397 341
4018 416 450 497 397
4019 416 283 394 402
4020 416 463 394 402
4021 416 397 312 341
4022 416 283 312 341
4023 416 356 283 402
4024 416 356 463 402
4025 416 356 397 312
4026 416 356 283 312
4027 447 494 561 390
4028 447 494 522 561
4029 447 561 390 502
4030 447 522 561 502
4031 447 475 522 502
4032 447 494 409 390
4033 447 359 409 390
4034 447 494 522 431
4035 447 445 390 502
4036 447 475 445 502
4037 447 384 359 390
4038 447 384 475 359
4039 447 475 426 359
4040 447 359 409 431
4041 447 494 409 431
4042 447 426 359 431
4043 447 445 408 390
4044 447 475 445 408
4045 447 384 408 390
4046 447 384 475 408
4047 447 475 522 509
4048 447 475 426 509
4049 447 522 431 509
4050 447 426 431 509
4051 563 516 431 545
4052 563 431 628 545
4053 563 516 422 431
4054 563 431 628 509
4055 563 431 493 509
4056 563 516 613 545
4057 563 613 628 545
4058 563 431 493 414
4059 563 422 431 414
4060 563 593 628 509
4061 563 593 493 509
4062 563 516 613 645
4063 563 613 628 645
4064 563 593 628 662
4065 563 628 645 662
4066 563 593 526 662
4067 563 593 526 493
4068 563 595 645 662
4069 563 526 493 414
4070 563 459 526 414
4071 563 451 422 414
4072 563 459 451 414
4073 563 649 595 662
4074 563 649 526 595
4075 563 459 526 595
4076 563 623 526 662
4077 563 649 623 662
4078 563 649 623 526
4079 982 907 966 974
4080 982 857 947 974
4081 982 907 857 974
4082 982 907 883 857
4083 982 907 965 932
4084 982 907 966 965
4085 982 876 857 947
4086 982 876 883 857
4087 982 883 978 932
4088 982 907 883 932
4089 982 876 978 947
4090 982 876 883 978
4091 730 832 813 739
4092 730 820 832 813
4093 730 813 715 739
4094 730 787 832 739
4095 730 820 787 832
4096 730 708 787 739
4097 730 715 739 635
4098 730 810 820 787
4099 730 810 708 787
4100 730 648 739 635
4101 730 708 648 635
4102 730 708 648 739
4103 730 810 820 669
4104 730 810 708 669
4105 730 680 669 635
4106 730 708 669 635
4107 730 820 680 669
4108 524 510 481 602
4109 524 510 453 481
4110 524 481 553 602
4111 524 453 481 553
4112 524 510 477 602
4113 524 510 477 453
4114 524 453 553 537
4115 524 553 615 537
4116 524 553 615 602
4117 524 525 615 602
4118 524 477 525 602
4119 112 154 6 98
4120 112 154 15 98
4121 112 154 141 6
4122 112 154 15 141
4123 112 49 141 6
4124 112 49 79 141
4125 112 79 114 141
4126 112 15 114 141
4127 144 134 37 102
4128 144 18 37 102
4129 144 150 202 102
4130 144 134 150 102
4131 144 76 18 102
4132 144 151 202 102
4133 144 151 76 102
4134 144 151 202 159
4135 144 151 76 159
4136 144 202 245 159
4137 144 76 18 111
4138 144 76 159 111
4139 144 83 18 37
4140 144 282 202 245
4141 144 245 159 173
4142 144 159 111 173
4143 440 373 464 365
4144 440 466 405 446
4145 440 399 464 365
4146 440 304 399 365
4147 440 466 540 446
4148 440 366 304 399
4149 440 540 446 427
4150 440 540 556 464
4151 440 466 556 464
4152 440 466 540 556
4153 440 366 427 399
4154 440 540 495 464
4155 440 540 495 427
4156 440 495 427 399
4157 440 495 399 464
4158 440 446 291 383
4159 440 446 427 383
4160 440 336 366 427
4161 440 336 427 383
4162 440 336 291 383
4163 370 351 240 267
4164 370 377 351 240
4165 370 267 280 381
4166 370 351 280 381
4167 370 351 267 280
4168 370 377 430 351
4169 370 471 473 381
4170 370 471 351 381
4171 370 471 430 473
4172 370 471 430 351
4173 443 442 428 326
4174 443 442 324 326
4175 443 326 423 353
4176 443 428 326 423
4177 443 251 326 353
4178 443 324 251 326
4179 443 423 353 484
4180 443 514 423 484
4181 443 514 428 423
4182 443 514 570 484
4183 443 514 428 505
4184 443 442 428 505
4185 386 442 324 315
4186 386 224 324 315
4187 386 377 395 315
4188 386 442 395 315
4189 386 224 240 315
4190 386 377 240 315
4191 386 377 430 395
4192 386 442 430 395
4193 404 372 507 469
4194 404 459 507 436
4195 404 459 372 436
4196 404 459 372 507
4197 483 482 555 544
4198 483 455 482 544
4199 483 600 555 544
4200 483 455 600 544
4201 483 482 469 555
4202 483 455 600 531
4203 483 482 469 393
4204 483 455 482 393
4205 483 526 600 531
4206 483 526 600 555
4207 483 526 437 531
4208 483 455 437 393
4209 483 455 437 531
4210 483 367 414 393
4211 483 437 367 393
4212 483 437 367 414
4213 483 350 414 393
4214 483 350 469 393
4215 483 350 469 414
4216 483 526 437 414
4217 483 459 469 555
4218 483 459 526 555
4219 483 459 469 414
4220 483 459 526 414
4221 391 360 458 444
4222 391 458 428 505
4223 391 458 444 505
4224 391 428 315 505
4225 391 444 315 505
4226 391 428 326 315
4227 391 360 444 328
4228 391 276 326 315
4229 391 395 315 328
4230 391 444 395 328
4231 391 444 395 315
4232 391 276 315 328
4233 391 360 276 328
4234 391 276 222 326
4235 310 276 222 202
4236 310 360 276 222
4237 310 276 202 245
4238 310 360 276 245
4239 310 295 222 202
4240 310 303 295 231
4241 310 295 231 202
4242 310 303 231 202
4243 310 282 202 245
4244 310 350 282 245
4245 310 350 245 380
4246 310 360 245 380
4247 310 360 350 380
4248 310 360 350 469
4249 310 303 372 354
4250 310 282 414 354
4251 310 350 282 414
4252 310 459 350 469
4253 310 459 372 354
4254 310 459 414 354
4255 310 459 350 414
4256 814 882 898 809
4257 814 890 882 898
4258 814 789 882 809
4259 814 789 882 742
4260 814 882 742 867
4261 814 890 882 867
4262 814 789 783 809
4263 814 789 783 742
4264 814 742 835 867
4265 814 890 835 867
4266 814 712 742 694
4267 814 783 712 742
4268 836 921 990 989
4269 836 911 990 989
4270 836 921 995 989
4271 836 921 990 905
4272 836 911 995 989
4273 836 911 995 830
4274 836 911 990 905
4275 836 923 995 830
4276 836 820 911 905
4277 836 810 820 905
4278 836 911 830 800
4279 836 820 911 800
4280 836 773 830 800
4281 836 820 773 800
4282 836 773 718 830
4283 825 737 753 797
4284 825 835 797 870
4285 825 753 835 797
4286 825 737 753 788
4287 825 753 835 850
4288 825 912 835 870
4289 825 912 835 850
4290 825 895 788 850
4291 825 753 788 850
4292 825 912 895 870
4293 825 912 895 850
4294 750 708 653 684
4295 750 743 653 684
4296 750 810 708 787
4297 750 708 653 669
4298 750 810 708 669
4299 750 728 708 684
4300 750 728 708 787
4301 750 743 653 744
4302 750 743 819 744
4303 750 743 774 684
4304 750 728 774 684
4305 1026 909 927 977
4306 1026 976 909 927
4307 1026 909 1013 977
4308 1026 909 944 1013
4309 1026 1001 944 880
4310 1026 909 944 880
4311 1026 1001 951 880
4312 889 810 909 905
4313 889 836 810 905
4314 889 921 987 905
4315 889 836 921 905
4316 889 976 987 905
4317 889 976 909 905
4318 889 951 987 960
4319 889 1026 976 987
4320 889 1026 976 909
4321 889 1026 951 987
4322 889 951 886 960
4323 889 951 886 880
4324 889 819 886 880
4325 685 668 706 754
4326 685 766 754 720
4327 685 766 706 754
4328 685 668 706 610
4329 457 371 461 530
4330 457 573 461 530
4331 457 468 573 530
4332 457 433 371 530
4333 457 468 433 371
4334 457 371 461 379
4335 457 400 371 379
4336 457 468 400 371
4337 532 468 573 530
4338 532 527 468 433
4339 532 457 433 530
4340 532 457 468 530
4341 532 457 468 433
4342 532 668 530 640
4343 532 511 530 640
4344 532 604 668 640
4345 532 604 511 640
4346 532 441 511 530
4347 532 441 433 530
4348 532 604 511 536
4349 532 604 552 536
4350 532 527 604 552
4351 532 527 463 433
4352 532 441 511 435
4353 532 441 433 435
4354 532 511 435 536
4355 532 527 463 552
4356 532 463 433 435
4357 532 552 435 536
4358 532 463 552 435
4359 452 527 468 533
4360 452 468 400 433
4361 452 527 468 433
4362 452 527 497 533
4363 452 527 463 497
4364 452 527 463 433
4365 452 356 463 433
4366 452 356 400 433
4367 452 582 497 533
4368 452 416 497 397
4369 452 416 463 497
4370 452 416 356 397
4371 452 416 356 463
4372 452 356 321 397
4373 452 356 400 321
4374 506 582 497 578
4375 506 497 565 578
4376 506 450 497 565
4377 506 452 582 497
4378 506 450 497 397
4379 506 452 497 397
4380 569 563 516 422
4381 569 563 451 422
4382 569 563 516 645
4383 569 459 451 520
4384 569 563 459 451
4385 569 459 595 520
4386 569 563 459 595
4387 569 606 595 520
4388 569 563 595 645
4389 569 595 682 645
4390 569 606 595 682
4391 732 730 813 715
4392 732 813 723 715
4393 732 655 723 715
4394 732 655 715 635
4395 732 730 715 635
4396 732 730 820 813
4397 732 813 723 800
4398 732 655 723 800
4399 732 655 680 635
4400 732 730 680 635
4401 732 820 813 800
4402 732 730 820 680
4403 732 655 800 680
4404 732 773 800 680
4405 732 820 773 680
4406 732 820 773 800
4407 221 144 134 150
4408 221 150 231 202
4409 221 144 150 202
4410 221 303 231 202
4411 221 144 282 202
4412 221 310 282 202
4413 221 310 303 202
4414 221 310 282 354
4415 221 310 303 354
4416 178 133 83 37
4417 178 133 83 123
4418 178 144 83 37
4419 178 134 133 37
4420 178 144 134 37
4421 178 226 133 123
4422 178 226 133 213
4423 178 123 111 173
4424 178 83 123 111
4425 178 123 239 173
4426 178 144 83 18
4427 178 83 18 111
4428 178 144 111 173
4429 178 144 18 111
4430 178 226 123 239
4431 178 226 343 213
4432 178 245 239 173
4433 178 282 245 239
4434 178 144 245 173
4435 178 144 282 245
4436 178 343 282 239
4437 178 226 343 239
4438 411 466 405 375
4439 411 440 373 464
4440 411 440 466 464
4441 411 331 375 289
4442 411 346 331 289
4443 411 466 465 500
4444 411 466 375 465
4445 411 346 419 373
4446 411 373 500 464
4447 411 466 500 464
4448 411 331 419 375
4449 411 346 331 419
4450 411 419 375 465
4451 411 373 500 454
4452 411 419 500 454
4453 411 419 373 454
4454 411 504 465 500
4455 411 419 504 500
4456 411 419 504 465
4457 345 440 366 304
4458 345 292 304 365
4459 345 440 304 365
4460 345 291 259 191
4461 345 304 291 191
4462 345 292 259 191
4463 345 292 304 191
4464 345 336 304 291
4465 345 336 366 304
4466 345 440 336 291
4467 345 440 336 366
4468 345 373 292 365
4469 345 440 373 365
4470 345 333 291 259
4471 345 405 333 259
4472 345 440 446 291
4473 345 440 405 446
4474 345 289 292 259
4475 345 405 289 259
4476 345 411 440 373
4477 345 333 446 291
4478 345 405 333 446
4479 345 440 466 405
4480 345 411 466 405
4481 345 411 440 466
4482 345 346 373 292
4483 345 411 346 373
4484 345 346 289 292
4485 345 411 346 289
4486 345 405 375 289
4487 345 411 375 289
4488 345 411 405 375
4489 546 514 570 505
4490 546 443 514 505
4491 546 443 514 570
4492 546 443 442 505
4493 546 442 508 505
4494 546 541 508 634
4495 546 541 508 505
4496 546 570 634 639
4497 546 541 634 639
4498 546 541 505 639
4499 546 505 624 639
4500 546 570 624 639
4501 546 570 505 624
4502 478 458 507 550
4503 478 404 458 507
4504 478 507 550 551
4505 478 458 550 535
4506 478 507 436 551
4507 478 404 507 436
4508 478 458 535 407
4509 362 404 372 295
4510 362 303 372 295
4511 362 310 303 295
4512 362 310 303 372
4513 362 404 372 469
4514 362 310 295 222
4515 362 310 360 222
4516 362 459 372 469
4517 362 310 459 469
4518 362 310 459 372
4519 362 391 360 458
4520 362 404 295 407
4521 362 360 458 469
4522 362 310 360 469
4523 362 458 507 469
4524 362 404 507 469
4525 362 404 458 507
4526 362 295 274 407
4527 362 478 404 407
4528 362 478 458 407
4529 362 478 404 458
4530 362 295 274 222
4531 362 360 276 222
4532 362 391 276 222
4533 362 391 360 276
4534 362 274 222 326
4535 362 391 222 326
4536 362 458 428 407
4537 362 391 458 428
4538 362 273 274 407
4539 362 273 326 407
4540 362 273 274 326
4541 362 428 326 407
4542 362 391 428 326
4543 808 742 694 734
4544 808 814 742 694
4545 808 742 835 734
4546 808 814 742 835
4547 808 835 797 734
4548 808 891 835 797
4549 808 890 891 835
4550 808 814 890 835
4551 1000 836 923 995
4552 1000 836 921 995
4553 1000 889 987 960
4554 1000 889 921 987
4555 779 836 820 773
4556 779 836 810 820
4557 779 810 820 669
4558 779 820 680 669
4559 779 820 773 680
4560 779 836 773 718
4561 779 718 680 669
4562 779 773 718 680
4563 779 718 618 669
4564 779 750 810 669
4565 779 889 810 819
4566 779 889 836 810
4567 779 653 618 669
4568 779 653 618 744
4569 779 618 744 676
4570 779 718 618 676
4571 779 750 653 669
4572 779 750 653 744
4573 779 750 819 744
4574 779 750 810 819
4575 779 819 744 791
4576 779 744 791 676
4577 779 718 791 676
4578 841 889 819 880
4579 841 750 810 819
4580 841 889 810 819
4581 841 889 810 909
4582 841 743 819 880
4583 841 750 743 819
4584 841 1026 909 880
4585 841 889 1026 909
4586 841 810 909 787
4587 841 750 810 787
4588 841 743 774 880
4589 841 750 743 774
4590 841 774 821 880
4591 841 1026 951 880
4592 841 889 951 880
4593 841 889 1026 951
4594 841 944 821 880
4595 841 909 944 880
4596 841 909 944 821
4597 841 750 728 787
4598 841 750 728 774
4599 841 877 909 821
4600 841 877 909 787
4601 841 728 774 821
4602 841 728 877 821
4603 841 728 877 787
4604 605 532 468 573
4605 605 532 527 468
4606 605 468 573 533
4607 605 527 468 533
4608 605 647 573 533
4609 605 527 647 533
4610 605 527 647 666
4611 605 527 604 666
4612 605 532 527 604
4613 605 685 647 573
4614 605 604 668 666
4615 605 532 604 668
4616 605 532 668 530
4617 605 532 573 530
4618 605 668 666 720
4619 605 685 647 720
4620 605 647 666 720
4621 605 685 573 610
4622 605 685 668 610
4623 605 668 610 530
4624 605 573 610 530
4625 605 668 754 720
4626 605 685 754 720
4627 605 685 668 754
4628 242 178 133 213
4629 242 178 134 133
4630 242 221 144 134
4631 242 178 144 134
4632 242 221 144 282
4633 242 178 144 282
4634 242 329 343 282
4635 242 178 343 213
4636 242 178 343 282
4637 242 329 282 354
4638 242 221 282 354
4639 242 343 220 213
4640 242 329 343 220
4641 859 1000 940 1021
4642 859 1000 923 1021
4643 859 1000 836 923
4644 859 861 826 1021
4645 859 940 861 1021
4646 859 779 889 836
4647 859 1000 960 940
4648 859 1000 889 960
4649 859 889 836 921
4650 859 1000 836 921
4651 859 1000 889 921
4652 859 893 826 1021
4653 859 923 893 1021
4654 859 886 960 940
4655 859 889 886 960
4656 859 893 830 826
4657 859 923 893 830
4658 859 836 923 830
4659 859 886 940 861
4660 859 755 830 826
4661 859 861 826 759
4662 859 791 861 759
4663 859 886 791 861
4664 859 755 718 826
4665 859 779 836 718
4666 859 889 819 886
4667 859 779 889 819
4668 859 755 718 830
4669 859 836 718 830
4670 859 718 826 759
4671 859 718 791 759
4672 859 779 718 791
4673 859 819 886 791
4674 859 779 819 791
