# This file was created by meshio v5.3.5
413 3 0 0
0 0.0000000000000000e+00 0.0000000000000000e+00 0.0000000000000000e+00
1 1.0000000000000000e+00 0.0000000000000000e+00 0.0000000000000000e+00
2 1.0000000000000000e+00 1.0000000000000000e+00 0.0000000000000000e+00
3 0.0000000000000000e+00 1.0000000000000000e+00 0.0000000000000000e+00
4 0.0000000000000000e+00 0.0000000000000000e+00 1.0000000000000000e+00
5 1.0000000000000000e+00 0.0000000000000000e+00 1.0000000000000000e+00
6 1.0000000000000000e+00 1.0000000000000000e+00 1.0000000000000000e+00
7 0.0000000000000000e+00 1.0000000000000000e+00 1.0000000000000000e+00
8 1.0000000000000000e+00 5.0399280367541621e-01 5.3977926499496098e-01
9 4.9016466710946716e-01 1.0000000000000000e+00 5.3248154607029619e-01
10 1.0000000000000000e+00 1.0000000000000000e+00 5.0000000000000000e-01
11 5.0000000000000000e-01 1.0000000000000000e+00 1.0000000000000000e+00
12 1.0000000000000000e+00 5.0000000000000000e-01 1.0000000000000000e+00
13 0.0000000000000000e+00 5.1147736967193713e-01 4.9189310666482489e-01
14 0.0000000000000000e+00 5.0000000000000000e-01 1.0000000000000000e+00
15 5.1978047546950568e-01 4.9101202885027179e-01 0.0000000000000000e+00
16 0.0000000000000000e+00 5.0000000000000000e-01 0.0000000000000000e+00
17 4.8208785530916798e-01 0.0000000000000000e+00 4.9201160858758131e-01
18 4.9153725139903914e-01 4.8120282469816089e-01 1.0000000000000000e+00
19 5.2122165044633051e-01 4.6589997942868483e-01 5.1295157785652090e-01
20 0.0000000000000000e+00 0.0000000000000000e+00 5.0000000000000000e-01
21 5.0000000000000000e-01 0.0000000000000000e+00 0.0000000000000000e+00
22 0.0000000000000000e+00 1.0000000000000000e+00 5.0000000000000000e-01
23 5.0000000000000000e-01 1.0000000000000000e+00 0.0000000000000000e+00
24 1.0000000000000000e+00 5.0000000000000000e-01 0.0000000000000000e+00
25 5.0000000000000000e-01 0.0000000000000000e+00 1.0000000000000000e+00
26 7.3658501070553473e-01 1.0000000000000000e+00 7.4870401529765762e-01
27 7.4778138381277881e-01 7.3482039258061460e-01 0.0000000000000000e+00
28 1.0000000000000000e+00 0.0000000000000000e+00 5.0000000000000000e-01
29 5.2675407114539619e-01 7.4436984301384190e-01 7.2775666040277498e-01
30 4.6004830038493438e-01 7.5149099269956976e-01 2.6000968723086765e-01
31 2.4842029482090508e-01 0.0000000000000000e+00 2.3525220807467845e-01
32 2.5234599368343552e-01 2.6473011651033324e-01 5.2174284364228540e-01
33 7.6085548223823674e-01 2.5713772164731463e-01 1.0000000000000000e+00
34 4.7838493401245613e-01 2.7505643690222104e-01 7.3725442072217240e-01
35 7.4851295369706417e-01 5.0649333257297102e-01 7.5627349688863144e-01
36 2.5554942505904277e-01 0.0000000000000000e+00 5.0439703317414730e-01
37 7.5839381651598003e-01 4.8248671749021654e-01 1.0000000000000000e+00
38 4.8197788305559569e-01 2.3525759039643124e-01 1.0000000000000000e+00
39 2.3134515133731653e-01 5.0324528606170826e-01 2.7128604369836973e-01
40 2.5000000000000000e-01 0.0000000000000000e+00 1.0000000000000000e+00
41 2.5981065075438109e-01 5.1526855629776458e-01 7.4053090148361345e-01
42 2.5940754573734376e-01 7.6069797627760138e-01 5.1867045818782676e-01
43 4.7896073073899442e-01 2.7206520191833394e-01 2.3624578001716234e-01
44 7.3418494440581372e-01 7.3455465859333791e-01 4.8725820545519538e-01
45 0.0000000000000000e+00 0.0000000000000000e+00 7.5000000000000000e-01
46 1.0000000000000000e+00 2.8066560880504848e-01 7.4523175778673145e-01
47 7.4166855007062737e-01 2.5872211254400984e-01 4.7773927353505596e-01
48 1.0000000000000000e+00 7.1171939351728208e-01 7.7933862626015182e-01
49 7.4372796056921497e-01 2.7964805497496914e-01 0.0000000000000000e+00
50 4.6604172282550127e-01 4.7893970553642240e-01 7.2412731799047281e-01
51 0.0000000000000000e+00 2.5000000000000000e-01 1.0000000000000000e+00
52 4.8460489592325129e-01 0.0000000000000000e+00 2.5308528784545248e-01
53 3.4871477891811153e-01 0.0000000000000000e+00 3.7269423392382006e-01
54 7.5388837202465508e-01 5.0360649233883670e-01 2.6208059470409095e-01
55 7.7732194923542741e-01 1.0000000000000000e+00 5.3622245054860007e-01
56 5.1364252299267832e-01 1.0000000000000000e+00 7.3038645610377428e-01
57 7.3804364280714607e-01 4.9995573318608394e-01 4.7674230909080340e-01
58 2.4926684123782000e-01 2.8771472018234689e-01 0.0000000000000000e+00
59 1.0000000000000000e+00 2.7680190406160987e-01 2.5342622302585549e-01
60 0.0000000000000000e+00 7.5000000000000000e-01 0.0000000000000000e+00
61 1.0000000000000000e+00 1.0000000000000000e+00 7.5000000000000000e-01
62 0.0000000000000000e+00 2.4995520937178434e-01 2.4921441686768364e-01
63 0.0000000000000000e+00 4.7321205161089386e-01 2.3834269472071631e-01
64 0.0000000000000000e+00 2.4518642224702905e-01 4.7650841710002206e-01
65 2.4277403233291700e-01 2.5236562187102507e-01 2.5344138616083878e-01
66 1.0000000000000000e+00 7.7975968774472293e-01 4.6556500005640050e-01
67 1.0000000000000000e+00 8.4215623266158113e-01 6.5282004149385453e-01
68 1.0000000000000000e+00 7.5000000000000000e-01 1.0000000000000000e+00
69 7.5000000000000000e-01 1.0000000000000000e+00 1.0000000000000000e+00
70 2.5000000000000000e-01 1.0000000000000000e+00 0.0000000000000000e+00
71 6.1094115960047801e-01 3.5145190576095897e-01 6.4245001874475571e-01
72 5.9382091520173208e-01 1.0000000000000000e+00 8.7360142669131657e-01
73 3.3995957509846170e-01 1.2085180779676265e-01 5.0712620306875833e-01
74 1.0000000000000000e+00 2.5000000000000000e-01 1.0000000000000000e+00
75 3.5561590628245254e-01 1.1790896191088597e-01 2.4154181601489255e-01
76 0.0000000000000000e+00 7.5695287678493306e-01 3.8433916524878936e-01
77 6.2617955790182123e-01 8.6318504280530484e-01 7.3702739199328826e-01
78 0.0000000000000000e+00 1.0000000000000000e+00 7.5000000000000000e-01
79 6.2306242357897557e-01 1.0000000000000000e+00 2.6619598664815874e-01
80 6.2835339262701961e-01 1.0000000000000000e+00 5.9455138854090850e-01
81 5.9752943343466680e-01 3.8288341542567000e-01 3.4621655187566769e-01
82 4.9500483234917680e-01 7.5078985608943705e-01 5.1492285368497959e-01
83 1.0000000000000000e+00 2.2670220556971776e-01 5.0136640170781599e-01
84 1.0000000000000000e+00 5.0202279732174471e-01 7.3512805426139205e-01
85 6.8840390340957047e-01 3.3776489171234786e-01 1.9835590403294590e-01
86 0.0000000000000000e+00 1.0000000000000000e+00 2.5000000000000000e-01
87 3.6606343886829718e-01 0.0000000000000000e+00 7.5767365156421840e-01
88 3.7620067162110654e-01 6.4835434471990327e-01 3.7492150164674215e-01
89 8.7675792978952583e-01 1.0000000000000000e+00 6.5291057386379392e-01
90 2.4164388761774649e-01 1.0000000000000000e+00 6.4322639583981256e-01
91 0.0000000000000000e+00 3.9330428780454463e-01 7.4530292402194565e-01
92 1.0000000000000000e+00 7.5000000000000000e-01 0.0000000000000000e+00
93 1.6525965273568413e-01 5.4547243911277243e-01 4.4903911951193010e-01
94 7.5407566135265669e-01 8.7598252305071822e-01 6.1527397001034412e-01
95 6.9082434978874274e-01 3.6889228412054653e-01 5.1582543623115373e-01
96 6.1981487744044328e-01 4.0055684277525488e-01 7.9427184759753144e-01
97 7.1400943569448627e-01 4.9949590585202780e-01 0.0000000000000000e+00
98 1.0000000000000000e+00 0.0000000000000000e+00 2.5000000000000000e-01
99 3.1339357456742573e-01 6.9815303348372504e-01 0.0000000000000000e+00
100 7.5000000000000000e-01 0.0000000000000000e+00 0.0000000000000000e+00
101 4.3132489641349830e-01 3.1231198785572600e-01 4.4362669695600487e-01
102 1.0000000000000000e+00 2.5000000000000000e-01 0.0000000000000000e+00
103 1.0000000000000000e+00 6.5334047699707998e-01 5.9797728741920408e-01
104 7.5890508336054663e-01 0.0000000000000000e+00 7.7065462103759985e-01
105 2.8648022975944321e-01 1.0000000000000000e+00 2.9190065892194267e-01
106 1.5552052102846356e-01 8.2729813814751973e-01 0.0000000000000000e+00
107 3.4921632242553691e-01 8.3634844728707747e-01 6.2538831736001077e-01
108 4.9785247042647779e-01 2.4241191928689132e-01 0.0000000000000000e+00
109 8.6985428926447528e-01 6.1366474651180658e-01 7.6106673132425828e-01
110 3.6819693582748303e-01 2.7302972915742535e-01 1.2235210796508597e-01
111 0.0000000000000000e+00 7.5000000000000000e-01 1.0000000000000000e+00
112 1.0000000000000000e+00 4.9958738982278905e-01 2.5696551219160157e-01
113 1.0000000000000000e+00 4.0608349615093320e-01 4.1374623480865669e-01
114 2.5000000000000000e-01 0.0000000000000000e+00 0.0000000000000000e+00
115 0.0000000000000000e+00 2.5000000000000000e-01 0.0000000000000000e+00
116 0.0000000000000000e+00 0.0000000000000000e+00 2.5000000000000000e-01
117 0.0000000000000000e+00 3.7756657843625130e-01 5.7692915424218238e-01
118 0.0000000000000000e+00 1.2314511352852492e-01 4.0124037356936210e-01
119 1.0000000000000000e+00 1.2658250155470271e-01 1.5596904799517700e-01
120 1.6721824593999368e-01 7.5985480416827034e-01 2.6332688378245472e-01
121 6.1295858150944760e-01 7.2374634880833777e-01 1.0000000000000000e+00
122 7.5562164562716805e-01 0.0000000000000000e+00 2.6655490163573081e-01
123 7.6046521578919124e-01 6.2482855512386892e-01 6.2838982182443948e-01
124 0.0000000000000000e+00 6.8841959998798674e-01 6.8853907980744011e-01
125 3.3125671222860542e-01 5.5251641919553662e-01 5.8226070701322807e-01
126 7.5000000000000000e-01 0.0000000000000000e+00 1.0000000000000000e+00
127 4.9573419477839342e-01 1.3225251341795832e-01 3.7668040735912911e-01
128 3.2137083245766174e-01 1.0000000000000000e+00 4.7979029551890140e-01
129 0.0000000000000000e+00 8.1252880783073633e-01 1.8593703835231623e-01
130 3.2985430518254999e-01 2.2601227211530184e-01 3.7672535468277668e-01
131 2.5757091085382516e-01 4.9001740986474673e-01 0.0000000000000000e+00
132 1.0000000000000000e+00 3.7949291922919665e-01 5.8963242807593264e-01
133 1.4062905636931988e-01 0.0000000000000000e+00 6.4461744852327185e-01
134 1.0000000000000000e+00 5.9795350786878831e-01 8.7601562280956757e-01
135 4.6269876198833976e-01 3.8524267571620657e-01 6.1546522321826924e-01
136 5.1458673896695550e-01 8.6477825028404098e-01 6.1975115109707479e-01
137 8.7325353194433863e-01 4.9642008587688741e-01 3.8826590690445012e-01
138 6.2508573396492473e-01 4.0087983298294105e-01 1.0000000000000000e+00
139 7.7672225107924597e-01 6.8916248927112334e-01 1.0000000000000000e+00
140 4.8418472987891858e-01 4.8064542891223327e-01 1.9638190005195352e-01
141 1.0000000000000000e+00 0.0000000000000000e+00 7.5000000000000000e-01
142 5.9545210567590290e-01 1.4394636858482693e-01 1.0000000000000000e+00
143 1.0000000000000000e+00 7.3438947641543817e-01 2.4968366748091153e-01
144 6.0563141745675153e-01 0.0000000000000000e+00 8.6743776765079061e-01
145 7.9560256169570820e-01 0.0000000000000000e+00 4.5762617878969752e-01
146 1.0000000000000000e+00 4.0157565247644367e-01 8.7213959989985557e-01
147 1.8492182291105744e-01 4.3484767025894477e-01 5.5837496101488160e-01
148 1.3659605817124082e-01 1.0000000000000000e+00 3.5718737533317041e-01
149 6.9578631618875808e-01 6.8377338531103582e-01 8.2405562826946344e-01
150 8.7018252293211751e-01 8.7215109611444086e-01 4.8158685850910210e-01
151 2.6923079740281303e-01 2.6207981400337049e-01 7.3533368289110812e-01
152 3.5997716094900456e-01 3.8543440642743576e-01 2.8285150806271697e-01
153 6.2452533353441009e-01 6.0089222051995295e-01 7.0257376329636523e-01
154 8.7205637772667755e-01 6.2445904581445899e-01 4.9833472608220081e-01
155 0.0000000000000000e+00 8.7500000000000000e-01 0.0000000000000000e+00
156 8.3333969842669242e-01 1.5624516627447385e-01 2.3209294660603724e-01
157 1.5462619343513531e-01 1.0000000000000000e+00 1.6673642549879597e-01
158 4.6881369002585788e-01 1.0000000000000000e+00 3.3585039984069154e-01
159 3.6340365825983151e-01 2.5389174802065545e-01 6.3936760395896952e-01
160 8.4463961750738459e-01 8.5903139578187759e-01 1.0000000000000000e+00
161 3.2770211245818520e-01 7.4022153238605959e-01 1.0000000000000000e+00
162 3.1020959525497427e-01 3.9256288429164626e-01 6.8704092280607165e-01
163 4.7745780608707955e-01 6.5261207576463109e-01 1.0000000000000000e+00
164 6.2517725943221636e-01 5.7602020438800861e-01 1.0000000000000000e+00
165 4.8674589187227524e-01 6.0985388489052694e-01 6.4073562658988947e-01
166 8.7936014909618132e-01 4.0754193632049823e-01 1.0000000000000000e+00
167 0.0000000000000000e+00 1.2498694593399164e-01 1.2487433213328564e-01
168 2.4035224319098489e-01 7.2087569663892881e-01 7.0549676456599208e-01
169 7.3697502330292863e-01 7.2844498752748410e-01 2.7836339013090711e-01
170 1.2454485015020512e-01 1.2694908241040814e-01 2.4999053490283077e-01
171 1.0000000000000000e+00 5.9742764824987304e-01 4.1098843668530777e-01
172 3.3558123218913222e-01 1.2885714081088842e-01 0.0000000000000000e+00
173 8.6145859075373521e-01 3.5266305491226335e-01 5.0179649926305370e-01
174 7.5000000000000000e-01 1.0000000000000000e+00 0.0000000000000000e+00
175 3.9619205123495510e-01 3.9909244171945957e-01 0.0000000000000000e+00
176 2.3977431057521431e-01 3.6355853756680800e-01 1.0000000000000000e+00
177 3.2060138336143590e-01 5.3792241857882583e-01 1.0000000000000000e+00
178 8.6264700840916253e-01 5.0162889031491653e-01 6.1447475630576431e-01
179 0.0000000000000000e+00 8.3372717938899332e-01 5.5289444789982922e-01
180 1.6124974787120033e-01 6.0320406616651756e-01 6.0263908816610567e-01
181 3.7208934277575600e-01 0.0000000000000000e+00 1.2296643544818080e-01
182 3.7862960181694588e-01 6.4227179014673275e-01 8.2109383808488434e-01
183 8.6649433847236201e-01 3.7342829532198984e-01 2.4503739780674322e-01
184 1.7875648398608368e-01 8.5027076787759714e-01 3.6198089080624529e-01
185 8.3971237590308168e-01 1.2759134425318039e-01 0.0000000000000000e+00
186 2.5000000000000000e-01 1.0000000000000000e+00 1.0000000000000000e+00
187 2.3063939525043484e-01 1.2934018750360604e-01 1.3835007521214659e-01
188 6.1692441841287116e-01 6.1497537751891118e-01 5.1814216509803912e-01
189 6.5814542206832949e-01 1.3598507703172438e-01 4.9866870182542944e-01
190 3.3285694822446155e-01 4.9908293739027398e-01 4.2031216796074578e-01
191 8.4764417268334979e-01 0.0000000000000000e+00 6.1593098871617180e-01
192 7.7111546956860466e-01 1.1757896273144437e-01 3.5153890479547578e-01
193 1.3579202749094096e-01 6.1555897647851920e-01 0.0000000000000000e+00
194 8.3861808702165686e-01 2.9110884955064786e-01 8.3994460138900795e-01
195 8.1065982846936813e-01 1.9924201118103874e-01 6.5049806688758915e-01
196 5.8537264896084706e-01 2.7676396054218944e-01 5.0638152137958026e-01
197 3.1406459526607022e-01 1.7701342797530895e-01 1.0000000000000000e+00
198 1.6452100631316871e-01 4.9053258954853396e-01 1.0000000000000000e+00
199 8.8328603615716639e-01 5.6498736061938482e-01 1.0000000000000000e+00
200 0.0000000000000000e+00 6.1353062609066245e-01 1.3746131183294324e-01
201 2.6976708691365114e-01 0.0000000000000000e+00 6.6572804577861788e-01
202 1.3270957567599428e-01 2.7935550930394232e-01 1.1785564232290660e-01
203 5.9988882192309256e-01 3.7448815645846278e-01 0.0000000000000000e+00
204 3.1616389533798678e-01 1.0000000000000000e+00 8.1776871217898639e-01
205 2.5483027507870332e-01 3.8926314335113354e-01 1.2915850539269305e-01
206 1.0000000000000000e+00 1.0000000000000000e+00 2.5000000000000000e-01
207 0.0000000000000000e+00 5.4095589427540547e-01 8.0499382249150842e-01
208 8.0014327640859328e-01 3.6600107864570464e-01 6.3723974728896271e-01
209 4.1157867268540471e-01 1.0000000000000000e+00 1.6032642446871020e-01
210 7.3731549205479885e-01 6.2060358472398924e-01 3.7410873306862424e-01
211 2.0120560960498424e-01 1.5764133701033411e-01 6.1254650631250684e-01
212 3.8072611275723195e-01 7.2118618441081206e-01 5.5918883929320684e-01
213 7.3110783558820547e-01 1.4263138074558343e-01 8.6742636281153707e-01
214 6.7085675821363933e-01 2.2521130412179885e-01 7.4893574299678423e-01
215 8.5346303204656127e-01 1.2785915427342867e-01 4.9393920051070683e-01
216 1.4893521162663179e-01 0.0000000000000000e+00 3.7319574043329651e-01
217 8.3935571658026820e-01 8.4327202904793519e-01 7.7001930839145771e-01
218 7.8957730705517393e-01 5.6878888704349617e-01 8.8493690214040166e-01
219 6.4308223144179355e-01 0.0000000000000000e+00 1.4884655523730184e-01
220 0.0000000000000000e+00 2.1951306802715115e-01 6.8759598678362188e-01
221 8.7005011669747201e-01 5.8409110300980716e-01 0.0000000000000000e+00
222 8.8063388603566062e-01 2.6695225172380999e-01 3.7782914673339985e-01
223 1.0000000000000000e+00 5.0013040935744435e-01 8.7197954045473824e-01
224 2.7688043550653174e-01 1.0000000000000000e+00 1.5112081414311787e-01
225 7.2838290268826411e-01 7.4006614748913391e-01 7.0970146473736617e-01
226 0.0000000000000000e+00 5.2683186320310005e-01 6.4542419949158958e-01
227 3.7135223990522825e-01 8.3433719878350165e-01 3.9935352156499582e-01
228 4.2251081645291955e-01 8.7598422095177297e-01 5.0383667386396880e-01
229 2.2559678468010541e-01 1.0000000000000000e+00 4.1028348963033395e-01
230 8.7107245841266834e-01 7.3028182856842228e-01 3.9019188256418547e-01
231 6.6993230127991532e-01 8.5126944158434936e-01 1.0000000000000000e+00
232 8.6952559509052174e-01 4.1610161012309121e-01 0.0000000000000000e+00
233 1.3457300085238691e-01 5.9997048937105257e-01 7.5512135253334722e-01
234 6.2260234907051248e-01 4.9376321003120671e-01 1.4105213969129032e-01
235 6.3215603824456523e-01 2.0000351473343317e-01 3.3138041359161541e-01
236 1.4915815218230449e-01 1.0000000000000000e+00 5.2275879327600305e-01
237 5.6778314630652771e-01 5.6960549086327295e-01 8.5605952100225935e-01
238 6.3096783749111407e-01 1.0000000000000000e+00 4.2648228325523702e-01
239 6.8124956319089813e-01 8.2894974122631260e-01 8.7394881240906475e-01
240 1.6526911824319979e-01 1.0000000000000000e+00 7.5012883163870259e-01
241 5.0241099185577687e-01 3.7506796504130474e-01 0.0000000000000000e+00
242 0.0000000000000000e+00 6.3335999918321528e-01 2.8592805267326193e-01
243 5.8607739496644995e-01 1.0000000000000000e+00 1.3574634387676815e-01
244 7.2713017275164238e-01 6.1038321864167255e-01 1.2672611033813846e-01
245 5.4094360236926176e-01 0.0000000000000000e+00 7.0664610215974111e-01
246 6.5878599040696018e-01 1.2618877973614637e-01 0.0000000000000000e+00
247 1.2480943627187982e-01 0.0000000000000000e+00 1.2235968542595962e-01
248 1.3796068215487731e-01 2.5810241271544337e-01 3.8161281857470630e-01
249 3.5875665786656263e-01 4.8642827067303007e-01 8.6637368337298082e-01
250 5.1144680175790258e-01 1.3263173150769145e-01 1.5618135491595594e-01
251 2.5086639385272624e-01 0.0000000000000000e+00 3.7254147335026977e-01
252 0.0000000000000000e+00 3.7500000000000000e-01 1.0000000000000000e+00
253 1.5328540803640633e-01 8.8924358573109319e-01 1.5840215423964615e-01
254 0.0000000000000000e+00 6.1408509058223681e-01 4.1310479256063720e-01
255 9.4868938202255337e-02 3.7210985465000623e-01 1.0000000000000000e+00
256 8.7016798979579102e-01 7.4388358429882950e-01 6.0484989792717492e-01
257 7.6911814437223724e-01 3.2835439294390051e-01 3.4291511828791310e-01
258 5.0890958224327720e-01 2.0296052361577682e-01 5.8658193178544771e-01
259 5.1865779099786768e-01 7.7575184715348489e-01 0.0000000000000000e+00
260 6.2829690480454270e-01 0.0000000000000000e+00 2.6226302687509884e-01
261 6.0029835808860832e-01 2.7310815271964262e-01 1.0000000000000000e+00
262 8.0622753161084904e-01 1.0000000000000000e+00 3.2658971820926636e-01
263 3.9339443764483628e-01 4.2665808071777778e-01 1.2793568358465859e-01
264 1.0000000000000000e+00 1.2852413661305237e-01 8.3739610125281505e-01
265 1.0000000000000000e+00 8.9239435935994849e-01 1.4400398248661930e-01
266 2.5628268985045999e-01 8.9612874627373951e-01 5.2669218112490368e-01
267 1.8445511594452932e-01 0.0000000000000000e+00 8.2009883107341885e-01
268 1.5388518967811465e-01 6.6116741969956727e-01 1.4989761109632085e-01
269 3.1454951204625309e-01 5.9447425675106791e-01 7.1366392748048102e-01
270 0.0000000000000000e+00 1.0000000000000000e+00 6.2500000000000000e-01
271 0.0000000000000000e+00 8.5086053630612524e-01 7.2097703142480751e-01
272 3.9080652074349792e-01 0.0000000000000000e+00 6.2325792033404659e-01
273 3.7500000000000000e-01 0.0000000000000000e+00 1.0000000000000000e+00
274 4.5428097724495087e-01 1.1257177231894558e-01 1.0000000000000000e+00
275 1.6346601324804674e-01 1.3022959848912716e-01 0.0000000000000000e+00
276 8.4872015670983192e-01 2.9489815829899824e-01 1.3544421513615920e-01
277 5.8506164186071385e-01 8.3849931594878224e-01 3.3108228943937806e-01
278 3.6906751864209397e-01 8.6357473007284957e-01 0.0000000000000000e+00
279 6.8126187473911293e-01 2.6484029303534745e-01 6.0593412497955823e-01
280 8.5616765365598069e-01 7.7386141375480388e-01 1.3283583725625758e-01
281 7.4137626395616540e-01 4.2896350101361858e-01 8.8419769470713161e-01
282 6.5350013605977231e-01 8.7683289428936917e-01 0.0000000000000000e+00
283 6.7865599576351909e-01 0.0000000000000000e+00 5.7890951340230168e-01
284 0.0000000000000000e+00 1.0000000000000000e+00 1.2500000000000000e-01
285 4.6053812293233332e-01 6.2683836119772218e-01 0.0000000000000000e+00
286 8.5294940665245023e-01 8.7225466954713338e-01 0.0000000000000000e+00
287 4.5674460762069458e-01 0.0000000000000000e+00 8.6677848063645180e-01
288 3.9219819623150159e-01 3.5474729121451187e-01 1.0000000000000000e+00
289 0.0000000000000000e+00 6.5483442020841442e-01 5.3385252380604631e-01
290 6.4013607228239444e-01 7.6031267227980748e-01 1.2891944608646116e-01
291 4.5843274239591508e-01 1.0000000000000000e+00 8.8454009214081442e-01
292 8.7702900459435074e-01 0.0000000000000000e+00 8.7898637042225847e-01
293 3.2668449963583562e-01 0.0000000000000000e+00 8.8608163651261285e-01
294 1.0000000000000000e+00 1.2575775375726661e-01 6.6192120198202464e-01
295 5.4793097063165708e-01 1.1416526862080488e-01 8.2311679074707345e-01
296 2.7047256535527275e-01 8.4574099170592798e-01 0.0000000000000000e+00
297 8.7557197653342567e-01 1.4270179058297827e-01 8.0428060143267477e-01
298 5.8659636842347962e-01 1.3502395060565681e-01 6.4421095938465811e-01
299 0.0000000000000000e+00 3.9370853403871214e-01 3.9948798006383285e-01
300 8.7049643246844333e-01 6.3181478089485388e-01 2.4025880205803385e-01
301 0.0000000000000000e+00 3.9042888977550239e-01 1.0399181154117811e-01
302 7.3045461751689778e-01 1.0000000000000000e+00 1.7502690002737931e-01
303 1.8217246115242858e-01 6.1885739211243906e-01 3.3739499674732620e-01
304 3.7793297736355269e-01 1.5756016463331513e-01 8.3402357361688861e-01
305 8.6835957134834418e-01 4.8822491624889097e-01 1.2487559207775037e-01
306 0.0000000000000000e+00 3.7500000000000000e-01 0.0000000000000000e+00
307 5.9609254982299220e-01 6.2458956989013115e-01 2.5143057603631713e-01
308 3.8923411758880672e-01 3.1251745861760205e-01 8.3288306935562229e-01
309 3.0466356769257369e-01 8.3714629187703893e-01 8.5133716755172906e-01
310 3.7687051310717790e-01 1.0000000000000000e+00 6.4307179297965944e-01
311 4.9140017815474835e-01 8.1588384100539235e-01 1.0000000000000000e+00
312 5.1271712565068606e-01 8.6399998163707625e-01 1.3972372529422028e-01
313 6.0721799480130179e-01 8.7517741262047011e-01 4.8979325759822367e-01
314 0.0000000000000000e+00 4.2083539309188239e-01 8.8281824690866351e-01
315 0.0000000000000000e+00 5.2240347526642794e-01 3.6580847207151329e-01
316 1.0000000000000000e+00 8.6697596669608357e-01 8.4031161881295779e-01
317 1.4033883946379488e-01 2.3415604074757634e-01 1.0000000000000000e+00
318 8.7273366228303551e-01 1.0000000000000000e+00 8.5192135151674775e-01
319 4.7462882872013062e-01 5.2990044163810712e-01 3.5086274850928589e-01
320 0.0000000000000000e+00 1.4588920723438781e-01 8.6179759902566844e-01
321 1.7462625469387497e-01 1.2826967610646073e-01 7.8875153643064055e-01
322 1.3687965068008140e-01 4.3328079201823322e-01 7.1302049666670753e-01
323 1.2608613731739493e-01 2.7882650566789025e-01 6.3713867214035180e-01
324 3.3712509778111155e-01 8.6481101285659556e-01 2.1277696827794912e-01
325 0.0000000000000000e+00 2.9700318479520865e-01 8.6240227930015190e-01
326 0.0000000000000000e+00 8.6361132301676258e-01 8.6428305374714975e-01
327 1.3177145395327372e-01 3.8157626952606272e-01 2.6558413225221755e-01
328 6.7333476603538078e-01 1.7184738486071352e-01 1.4944866809851201e-01
329 7.4095090619250181e-01 4.1848282556280275e-01 1.1458177220354310e-01
330 1.0587959301028316e-01 4.1949951070634817e-01 0.0000000000000000e+00
331 2.4269340993213939e-01 3.6797653278258435e-01 4.0368108853552265e-01
332 8.5618066435480022e-01 0.0000000000000000e+00 1.4731987578912195e-01
333 1.0000000000000000e+00 8.7645444230813963e-01 3.4791042366658131e-01
334 3.2866893173715156e-01 6.7007116323112603e-01 1.9707172602644774e-01
335 0.0000000000000000e+00 4.9614372896219866e-01 1.2132229939016899e-01
336 2.4631069292926902e-01 3.9178560369210308e-01 8.6650391921789105e-01
337 1.2500000000000000e-01 1.0000000000000000e+00 0.0000000000000000e+00
338 1.0000000000000000e+00 1.0000000000000000e+00 1.2500000000000000e-01
339 3.4092860302453865e-01 3.7492438264242978e-01 5.2409152998783659e-01
340 5.6899686757771295e-01 6.9548771734928749e-01 3.9759044120442555e-01
341 7.2062101761492947e-01 8.8507278951049728e-01 1.6533488385903561e-01
342 1.0000000000000000e+00 1.2377403580977413e-01 3.4462057505581517e-01
343 1.6301265287152797e-01 6.5131535113416072e-01 1.0000000000000000e+00
344 1.4848300133631120e-01 8.2014810934951643e-01 6.1078924205993934e-01
345 1.2671203663701186e-01 3.1024017626207673e-01 5.0283999782114486e-01
346 3.7576580138155913e-01 1.2362923791030000e-01 6.9576888324338315e-01
347 1.0000000000000000e+00 8.7564397913919112e-01 2.4887092078010903e-01
348 3.8182328632283002e-01 5.3842554828415468e-01 0.0000000000000000e+00
349 5.1705034442464348e-01 3.4910941572748860e-01 1.0000000000000000e+00
350 6.3621780744301282e-01 0.0000000000000000e+00 3.8944357952334768e-01
351 4.5755697459198508e-01 6.0777810526536913e-01 4.6808766770480076e-01
352 4.8622097778403284e-01 8.7812510252632725e-01 8.5661143639749748e-01
353 8.5428028271305556e-01 7.1572297428105203e-01 8.7044761801120241e-01
354 1.2500000000000000e-01 1.0000000000000000e+00 1.0000000000000000e+00
355 6.0204474079611359e-01 5.1970681752474679e-01 3.3401780315328117e-01
356 2.8121289636369146e-01 6.3618525284984551e-01 4.6767820488166478e-01
357 1.1698029162457076e-01 3.0189978907719256e-01 8.4812391136091481e-01
358 6.5131414376821239e-01 4.8051588618385355e-01 6.3265546267981365e-01
359 3.7500000000000000e-01 1.0000000000000000e+00 1.0000000000000000e+00
360 5.5831342311097465e-01 3.5176064319737693e-01 1.3348075024919809e-01
361 5.9506543890516339e-01 6.2677926023494590e-01 0.0000000000000000e+00
362 3.8803985933420115e-01 7.6035333907296954e-01 7.3093575212349782e-01
363 7.5288226151061310e-01 8.7165992348017018e-01 0.0000000000000000e+00
364 3.1673674501783994e-01 5.4296512471304503e-01 1.0715176183018901e-01
365 6.6348691283259287e-01 2.7741678972675132e-01 8.8001717566582816e-01
366 8.7716753251471102e-01 1.2586410051877606e-01 1.0000000000000000e+00
367 8.8112545911080387e-01 1.0000000000000000e+00 1.5091604347306237e-01
368 1.0000000000000000e+00 4.1356739814192517e-01 1.2568924443180862e-01
369 0.0000000000000000e+00 7.0349973386229714e-01 8.4810918460043805e-01
370 7.4027603459850566e-01 8.7836774853640176e-01 3.8971300050872393e-01
371 3.5295869827311988e-01 9.0117664684612975e-01 1.0000000000000000e+00
372 0.0000000000000000e+00 1.1761305735107011e-01 5.5492333821374840e-01
373 1.4647392686571778e-01 1.0000000000000000e+00 8.8636441699844404e-01
374 1.5221583311289125e-01 4.7686467107638064e-01 8.7774357477526743e-01
375 8.8201123100787426e-01 0.0000000000000000e+00 3.4901956499242059e-01
376 1.2423261084927996e-01 4.7972720835474236e-01 1.1941623778525338e-01
377 6.2159611774319035e-01 7.3983488263324371e-01 5.9876479237769298e-01
378 5.2013328820104288e-01 1.0000000000000000e+00 2.2267534983147463e-01
379 1.4791735851723148e-01 1.3296463482059678e-01 4.8821422288537103e-01
380 1.1258863240590340e-01 1.0000000000000000e+00 6.5614551119109521e-01
381 0.0000000000000000e+00 8.6516511894445947e-01 3.0796404163329194e-01
382 1.7374461117982659e-01 8.6221770515711893e-01 1.0000000000000000e+00
383 8.7111579239235426e-01 8.5922081025552699e-01 2.6619413808531434e-01
384 0.0000000000000000e+00 8.9010097458949733e-01 4.0305047404242172e-01
385 8.7245636576728436e-01 1.0000000000000000e+00 7.5042058094221331e-01
386 4.9306280370326944e-01 6.3637841312795873e-01 1.1695417662352674e-01
387 4.7837417185025621e-01 7.4998560911141143e-01 8.8709966720011613e-01
388 1.4903064952619791e-01 7.7035215222159903e-01 8.5460794362186743e-01
389 8.7891386171907693e-01 4.3607416738565213e-01 7.6950059000069460e-01
390 3.8921961728305027e-01 5.5966431232305891e-01 2.5464910243353917e-01
391 2.1725338068539901e-01 6.2207551481513879e-01 8.5755613344708737e-01
392 1.0000000000000000e+00 5.8551331991692757e-01 1.2544390912189016e-01
393 2.8617703588966681e-01 7.4803584894625452e-01 3.7660320424196975e-01
394 7.3130968121672157e-01 3.5571896219960558e-01 7.3546575685337001e-01
395 2.5795117168526316e-01 2.1659628538022893e-01 8.9132079710598822e-01
396 7.5056901449831404e-01 0.0000000000000000e+00 1.3600535108471179e-01
397 8.8292961869071540e-01 4.8319881698697570e-01 8.7705850910506500e-01
398 0.0000000000000000e+00 0.0000000000000000e+00 8.7500000000000000e-01
399 3.3361066373325021e-01 7.6934855401479707e-01 1.0661855615475657e-01
400 8.7315643227607220e-01 0.0000000000000000e+00 2.5238868095311284e-01
401 1.2500000000000000e-01 0.0000000000000000e+00 1.0000000000000000e+00
402 5.0912343605092569e-01 3.7711790337744294e-01 8.9342172217897786e-01
403 2.4958431909298037e-01 8.8915836546856941e-01 7.2031720146063904e-01
404 1.2015380928608724e-01 8.5817410953082052e-01 7.7916839836327900e-01
405 1.3474006756193796e-01 7.0925938182562509e-01 4.6197919504150886e-01
406 1.1368479806797621e-01 8.9029242769915207e-01 4.9361322966841120e-01
407 1.1910311674809433e-01 4.3599536822405699e-01 4.1735902042294704e-01
408 2.2863899125821063e-01 1.1759384279705117e-01 3.5949395230578030e-01
409 5.5176036628145697e-01 2.4717226263680375e-01 8.8909616268203495e-01
410 4.3116186342534529e-01 8.8661149182143006e-01 7.4440569873983653e-01
411 1.6873895540852732e-01 1.0797658063390454e-01 1.0000000000000000e+00
412 0.0000000000000000e+00 1.2500000000000000e-01 1.0000000000000000e+00
