# This file was created by meshio v5.3.5
1000 3 0 0
0 0.0000000000000000e+00 0.0000000000000000e+00 0.0000000000000000e+00
1 1.1111111111111110e-01 0.0000000000000000e+00 0.0000000000000000e+00
2 2.2222222222222221e-01 0.0000000000000000e+00 0.0000000000000000e+00
3 3.3333333333333331e-01 0.0000000000000000e+00 0.0000000000000000e+00
4 4.4444444444444442e-01 0.0000000000000000e+00 0.0000000000000000e+00
5 5.5555555555555558e-01 0.0000000000000000e+00 0.0000000000000000e+00
6 6.6666666666666663e-01 0.0000000000000000e+00 0.0000000000000000e+00
7 7.7777777777777779e-01 0.0000000000000000e+00 0.0000000000000000e+00
8 8.8888888888888884e-01 0.0000000000000000e+00 0.0000000000000000e+00
9 1.0000000000000000e+00 0.0000000000000000e+00 0.0000000000000000e+00
10 0.0000000000000000e+00 1.1111111111111110e-01 0.0000000000000000e+00
11 1.1111111111111110e-01 1.1111111111111110e-01 0.0000000000000000e+00
12 2.2222222222222221e-01 1.1111111111111110e-01 0.0000000000000000e+00
13 3.3333333333333331e-01 1.1111111111111110e-01 0.0000000000000000e+00
14 4.4444444444444442e-01 1.1111111111111110e-01 0.0000000000000000e+00
15 5.5555555555555558e-01 1.1111111111111110e-01 0.0000000000000000e+00
16 6.6666666666666663e-01 1.1111111111111110e-01 0.0000000000000000e+00
17 7.7777777777777779e-01 1.1111111111111110e-01 0.0000000000000000e+00
18 8.8888888888888884e-01 1.1111111111111110e-01 0.0000000000000000e+00
19 1.0000000000000000e+00 1.1111111111111110e-01 0.0000000000000000e+00
20 0.0000000000000000e+00 2.2222222222222221e-01 0.0000000000000000e+00
21 1.1111111111111110e-01 2.2222222222222221e-01 0.0000000000000000e+00
22 2.2222222222222221e-01 2.2222222222222221e-01 0.0000000000000000e+00
23 3.3333333333333331e-01 2.2222222222222221e-01 0.0000000000000000e+00
24 4.4444444444444442e-01 2.2222222222222221e-01 0.0000000000000000e+00
25 5.5555555555555558e-01 2.2222222222222221e-01 0.0000000000000000e+00
26 6.6666666666666663e-01 2.2222222222222221e-01 0.0000000000000000e+00
27 7.7777777777777779e-01 2.2222222222222221e-01 0.0000000000000000e+00
28 8.8888888888888884e-01 2.2222222222222221e-01 0.0000000000000000e+00
29 1.0000000000000000e+00 2.2222222222222221e-01 0.0000000000000000e+00
30 0.0000000000000000e+00 3.3333333333333331e-01 0.0000000000000000e+00
31 1.1111111111111110e-01 3.3333333333333331e-01 0.0000000000000000e+00
32 2.2222222222222221e-01 3.3333333333333331e-01 0.0000000000000000e+00
33 3.3333333333333331e-01 3.3333333333333331e-01 0.0000000000000000e+00
34 4.4444444444444442e-01 3.3333333333333331e-01 0.0000000000000000e+00
35 5.5555555555555558e-01 3.3333333333333331e-01 0.0000000000000000e+00
36 6.6666666666666663e-01 3.3333333333333331e-01 0.0000000000000000e+00
37 7.7777777777777779e-01 3.3333333333333331e-01 0.0000000000000000e+00
38 8.8888888888888884e-01 3.3333333333333331e-01 0.0000000000000000e+00
39 1.0000000000000000e+00 3.3333333333333331e-01 0.0000000000000000e+00
40 0.0000000000000000e+00 4.4444444444444442e-01 0.0000000000000000e+00
41 1.1111111111111110e-01 4.4444444444444442e-01 0.0000000000000000e+00
42 2.2222222222222221e-01 4.4444444444444442e-01 0.0000000000000000e+00
43 3.3333333333333331e-01 4.4444444444444442e-01 0.0000000000000000e+00
44 4.4444444444444442e-01 4.4444444444444442e-01 0.0000000000000000e+00
45 5.5555555555555558e-01 4.4444444444444442e-01 0.0000000000000000e+00
46 6.6666666666666663e-01 4.4444444444444442e-01 0.0000000000000000e+00
47 7.7777777777777779e-01 4.4444444444444442e-01 0.0000000000000000e+00
48 8.8888888888888884e-01 4.4444444444444442e-01 0.0000000000000000e+00
49 1.0000000000000000e+00 4.4444444444444442e-01 0.0000000000000000e+00
50 0.0000000000000000e+00 5.5555555555555558e-01 0.0000000000000000e+00
51 1.1111111111111110e-01 5.5555555555555558e-01 0.0000000000000000e+00
52 2.2222222222222221e-01 5.5555555555555558e-01 0.0000000000000000e+00
53 3.3333333333333331e-01 5.5555555555555558e-01 0.0000000000000000e+00
54 4.4444444444444442e-01 5.5555555555555558e-01 0.0000000000000000e+00
55 5.5555555555555558e-01 5.5555555555555558e-01 0.0000000000000000e+00
56 6.6666666666666663e-01 5.5555555555555558e-01 0.0000000000000000e+00
57 7.7777777777777779e-01 5.5555555555555558e-01 0.0000000000000000e+00
58 8.8888888888888884e-01 5.5555555555555558e-01 0.0000000000000000e+00
59 1.0000000000000000e+00 5.5555555555555558e-01 0.0000000000000000e+00
60 0.0000000000000000e+00 6.6666666666666663e-01 0.0000000000000000e+00
61 1.1111111111111110e-01 6.6666666666666663e-01 0.0000000000000000e+00
62 2.2222222222222221e-01 6.6666666666666663e-01 0.0000000000000000e+00
63 3.3333333333333331e-01 6.6666666666666663e-01 0.0000000000000000e+00
64 4.4444444444444442e-01 6.6666666666666663e-01 0.0000000000000000e+00
65 5.5555555555555558e-01 6.6666666666666663e-01 0.0000000000000000e+00
66 6.6666666666666663e-01 6.6666666666666663e-01 0.0000000000000000e+00
67 7.7777777777777779e-01 6.6666666666666663e-01 0.0000000000000000e+00
68 8.8888888888888884e-01 6.6666666666666663e-01 0.0000000000000000e+00
69 1.0000000000000000e+00 6.6666666666666663e-01 0.0000000000000000e+00
70 0.0000000000000000e+00 7.7777777777777779e-01 0.0000000000000000e+00
71 1.1111111111111110e-01 7.7777777777777779e-01 0.0000000000000000e+00
72 2.2222222222222221e-01 7.7777777777777779e-01 0.0000000000000000e+00
73 3.3333333333333331e-01 7.7777777777777779e-01 0.0000000000000000e+00
74 4.4444444444444442e-01 7.7777777777777779e-01 0.0000000000000000e+00
75 5.5555555555555558e-01 7.7777777777777779e-01 0.0000000000000000e+00
76 6.6666666666666663e-01 7.7777777777777779e-01 0.0000000000000000e+00
77 7.7777777777777779e-01 7.7777777777777779e-01 0.0000000000000000e+00
78 8.8888888888888884e-01 7.7777777777777779e-01 0.0000000000000000e+00
79 1.0000000000000000e+00 7.7777777777777779e-01 0.0000000000000000e+00
80 0.0000000000000000e+00 8.8888888888888884e-01 0.0000000000000000e+00
81 1.1111111111111110e-01 8.8888888888888884e-01 0.0000000000000000e+00
82 2.2222222222222221e-01 8.8888888888888884e-01 0.0000000000000000e+00
83 3.3333333333333331e-01 8.8888888888888884e-01 0.0000000000000000e+00
84 4.4444444444444442e-01 8.8888888888888884e-01 0.0000000000000000e+00
85 5.5555555555555558e-01 8.8888888888888884e-01 0.0000000000000000e+00
86 6.6666666666666663e-01 8.8888888888888884e-01 0.0000000000000000e+00
87 7.7777777777777779e-01 8.8888888888888884e-01 0.0000000000000000e+00
88 8.8888888888888884e-01 8.8888888888888884e-01 0.0000000000000000e+00
89 1.0000000000000000e+00 8.8888888888888884e-01 0.0000000000000000e+00
90 0.0000000000000000e+00 1.0000000000000000e+00 0.0000000000000000e+00
91 1.1111111111111110e-01 1.0000000000000000e+00 0.0000000000000000e+00
92 2.2222222222222221e-01 1.0000000000000000e+00 0.0000000000000000e+00
93 3.3333333333333331e-01 1.0000000000000000e+00 0.0000000000000000e+00
94 4.4444444444444442e-01 1.0000000000000000e+00 0.0000000000000000e+00
95 5.5555555555555558e-01 1.0000000000000000e+00 0.0000000000000000e+00
96 6.6666666666666663e-01 1.0000000000000000e+00 0.0000000000000000e+00
97 7.7777777777777779e-01 1.0000000000000000e+00 0.0000000000000000e+00
98 8.8888888888888884e-01 1.0000000000000000e+00 0.0000000000000000e+00
99 1.0000000000000000e+00 1.0000000000000000e+00 0.0000000000000000e+00
100 0.0000000000000000e+00 0.0000000000000000e+00 1.1111111111111110e-01
101 1.1111111111111110e-01 0.0000000000000000e+00 1.1111111111111110e-01
102 2.2222222222222221e-01 0.0000000000000000e+00 1.1111111111111110e-01
103 3.3333333333333331e-01 0.0000000000000000e+00 1.1111111111111110e-01
104 4.4444444444444442e-01 0.0000000000000000e+00 1.1111111111111110e-01
105 5.5555555555555558e-01 0.0000000000000000e+00 1.1111111111111110e-01
106 6.6666666666666663e-01 0.0000000000000000e+00 1.1111111111111110e-01
107 7.7777777777777779e-01 0.0000000000000000e+00 1.1111111111111110e-01
108 8.8888888888888884e-01 0.0000000000000000e+00 1.1111111111111110e-01
109 1.0000000000000000e+00 0.0000000000000000e+00 1.1111111111111110e-01
110 0.0000000000000000e+00 1.1111111111111110e-01 1.1111111111111110e-01
111 1.1111111111111110e-01 1.1111111111111110e-01 1.1111111111111110e-01
112 2.2222222222222221e-01 1.1111111111111110e-01 1.1111111111111110e-01
113 3.3333333333333331e-01 1.1111111111111110e-01 1.1111111111111110e-01
114 4.4444444444444442e-01 1.1111111111111110e-01 1.1111111111111110e-01
115 5.5555555555555558e-01 1.1111111111111110e-01 1.1111111111111110e-01
116 6.6666666666666663e-01 1.1111111111111110e-01 1.1111111111111110e-01
117 7.7777777777777779e-01 1.1111111111111110e-01 1.1111111111111110e-01
118 8.8888888888888884e-01 1.1111111111111110e-01 1.1111111111111110e-01
119 1.0000000000000000e+00 1.1111111111111110e-01 1.1111111111111110e-01
120 0.0000000000000000e+00 2.2222222222222221e-01 1.1111111111111110e-01
121 1.1111111111111110e-01 2.2222222222222221e-01 1.1111111111111110e-01
122 2.2222222222222221e-01 2.2222222222222221e-01 1.1111111111111110e-01
123 3.3333333333333331e-01 2.2222222222222221e-01 1.1111111111111110e-01
124 4.4444444444444442e-01 2.2222222222222221e-01 1.1111111111111110e-01
125 5.5555555555555558e-01 2.2222222222222221e-01 1.1111111111111110e-01
126 6.6666666666666663e-01 2.2222222222222221e-01 1.1111111111111110e-01
127 7.7777777777777779e-01 2.2222222222222221e-01 1.1111111111111110e-01
128 8.8888888888888884e-01 2.2222222222222221e-01 1.1111111111111110e-01
129 1.0000000000000000e+00 2.2222222222222221e-01 1.1111111111111110e-01
130 0.0000000000000000e+00 3.3333333333333331e-01 1.1111111111111110e-01
131 1.1111111111111110e-01 3.3333333333333331e-01 1.1111111111111110e-01
132 2.2222222222222221e-01 3.3333333333333331e-01 1.1111111111111110e-01
133 3.3333333333333331e-01 3.3333333333333331e-01 1.1111111111111110e-01
134 4.4444444444444442e-01 3.3333333333333331e-01 1.1111111111111110e-01
135 5.5555555555555558e-01 3.3333333333333331e-01 1.1111111111111110e-01
136 6.6666666666666663e-01 3.3333333333333331e-01 1.1111111111111110e-01
137 7.7777777777777779e-01 3.3333333333333331e-01 1.1111111111111110e-01
138 8.8888888888888884e-01 3.3333333333333331e-01 1.1111111111111110e-01
139 1.0000000000000000e+00 3.3333333333333331e-01 1.1111111111111110e-01
140 0.0000000000000000e+00 4.4444444444444442e-01 1.1111111111111110e-01
141 1.1111111111111110e-01 4.4444444444444442e-01 1.1111111111111110e-01
142 2.2222222222222221e-01 4.4444444444444442e-01 1.1111111111111110e-01
143 3.3333333333333331e-01 4.4444444444444442e-01 1.1111111111111110e-01
144 4.4444444444444442e-01 4.4444444444444442e-01 1.1111111111111110e-01
145 5.5555555555555558e-01 4.4444444444444442e-01 1.1111111111111110e-01
146 6.6666666666666663e-01 4.4444444444444442e-01 1.1111111111111110e-01
147 7.7777777777777779e-01 4.4444444444444442e-01 1.1111111111111110e-01
148 8.8888888888888884e-01 4.4444444444444442e-01 1.1111111111111110e-01
149 1.0000000000000000e+00 4.4444444444444442e-01 1.1111111111111110e-01
150 0.0000000000000000e+00 5.5555555555555558e-01 1.1111111111111110e-01
151 1.1111111111111110e-01 5.5555555555555558e-01 1.1111111111111110e-01
152 2.2222222222222221e-01 5.5555555555555558e-01 1.1111111111111110e-01
153 3.3333333333333331e-01 5.5555555555555558e-01 1.1111111111111110e-01
154 4.4444444444444442e-01 5.5555555555555558e-01 1.1111111111111110e-01
155 5.5555555555555558e-01 5.5555555555555558e-01 1.1111111111111110e-01
156 6.6666666666666663e-01 5.5555555555555558e-01 1.1111111111111110e-01
157 7.7777777777777779e-01 5.5555555555555558e-01 1.1111111111111110e-01
158 8.8888888888888884e-01 5.5555555555555558e-01 1.1111111111111110e-01
159 1.0000000000000000e+00 5.5555555555555558e-01 1.1111111111111110e-01
160 0.0000000000000000e+00 6.6666666666666663e-01 1.1111111111111110e-01
161 1.1111111111111110e-01 6.6666666666666663e-01 1.1111111111111110e-01
162 2.2222222222222221e-01 6.6666666666666663e-01 1.1111111111111110e-01
163 3.3333333333333331e-01 6.6666666666666663e-01 1.1111111111111110e-01
164 4.4444444444444442e-01 6.6666666666666663e-01 1.1111111111111110e-01
165 5.5555555555555558e-01 6.6666666666666663e-01 1.1111111111111110e-01
166 6.6666666666666663e-01 6.6666666666666663e-01 1.1111111111111110e-01
167 7.7777777777777779e-01 6.6666666666666663e-01 1.1111111111111110e-01
168 8.8888888888888884e-01 6.6666666666666663e-01 1.1111111111111110e-01
169 1.0000000000000000e+00 6.6666666666666663e-01 1.1111111111111110e-01
170 0.0000000000000000e+00 7.7777777777777779e-01 1.1111111111111110e-01
171 1.1111111111111110e-01 7.7777777777777779e-01 1.1111111111111110e-01
172 2.2222222222222221e-01 7.7777777777777779e-01 1.1111111111111110e-01
173 3.3333333333333331e-01 7.7777777777777779e-01 1.1111111111111110e-01
174 4.4444444444444442e-01 7.7777777777777779e-01 1.1111111111111110e-01
175 5.5555555555555558e-01 7.7777777777777779e-01 1.1111111111111110e-01
176 6.6666666666666663e-01 7.7777777777777779e-01 1.1111111111111110e-01
177 7.7777777777777779e-01 7.7777777777777779e-01 1.1111111111111110e-01
178 8.8888888888888884e-01 7.7777777777777779e-01 1.1111111111111110e-01
179 1.0000000000000000e+00 7.7777777777777779e-01 1.1111111111111110e-01
180 0.0000000000000000e+00 8.8888888888888884e-01 1.1111111111111110e-01
181 1.1111111111111110e-01 8.8888888888888884e-01 1.1111111111111110e-01
182 2.2222222222222221e-01 8.8888888888888884e-01 1.1111111111111110e-01
183 3.3333333333333331e-01 8.8888888888888884e-01 1.1111111111111110e-01
184 4.4444444444444442e-01 8.8888888888888884e-01 1.1111111111111110e-01
185 5.5555555555555558e-01 8.8888888888888884e-01 1.1111111111111110e-01
186 6.6666666666666663e-01 8.8888888888888884e-01 1.1111111111111110e-01
187 7.7777777777777779e-01 8.8888888888888884e-01 1.1111111111111110e-01
188 8.8888888888888884e-01 8.8888888888888884e-01 1.1111111111111110e-01
189 1.0000000000000000e+00 8.8888888888888884e-01 1.1111111111111110e-01
190 0.0000000000000000e+00 1.0000000000000000e+00 1.1111111111111110e-01
191 1.1111111111111110e-01 1.0000000000000000e+00 1.1111111111111110e-01
192 2.2222222222222221e-01 1.0000000000000000e+00 1.1111111111111110e-01
193 3.3333333333333331e-01 1.0000000000000000e+00 1.1111111111111110e-01
194 4.4444444444444442e-01 1.0000000000000000e+00 1.1111111111111110e-01
195 5.5555555555555558e-01 1.0000000000000000e+00 1.1111111111111110e-01
196 6.6666666666666663e-01 1.0000000000000000e+00 1.1111111111111110e-01
197 7.7777777777777779e-01 1.0000000000000000e+00 1.1111111111111110e-01
198 8.8888888888888884e-01 1.0000000000000000e+00 1.1111111111111110e-01
199 1.0000000000000000e+00 1.0000000000000000e+00 1.1111111111111110e-01
200 0.0000000000000000e+00 0.0000000000000000e+00 2.2222222222222221e-01
201 1.1111111111111110e-01 0.0000000000000000e+00 2.2222222222222221e-01
202 2.2222222222222221e-01 0.0000000000000000e+00 2.2222222222222221e-01
203 3.3333333333333331e-01 0.0000000000000000e+00 2.2222222222222221e-01
204 4.4444444444444442e-01 0.0000000000000000e+00 2.2222222222222221e-01
205 5.5555555555555558e-01 0.0000000000000000e+00 2.2222222222222221e-01
206 6.6666666666666663e-01 0.0000000000000000e+00 2.2222222222222221e-01
207 7.7777777777777779e-01 0.0000000000000000e+00 2.2222222222222221e-01
208 8.8888888888888884e-01 0.0000000000000000e+00 2.2222222222222221e-01
209 1.0000000000000000e+00 0.0000000000000000e+00 2.2222222222222221e-01
210 0.0000000000000000e+00 1.1111111111111110e-01 2.2222222222222221e-01
211 1.1111111111111110e-01 1.1111111111111110e-01 2.2222222222222221e-01
212 2.2222222222222221e-01 1.1111111111111110e-01 2.2222222222222221e-01
213 3.3333333333333331e-01 1.1111111111111110e-01 2.2222222222222221e-01
214 4.4444444444444442e-01 1.1111111111111110e-01 2.2222222222222221e-01
215 5.5555555555555558e-01 1.1111111111111110e-01 2.2222222222222221e-01
216 6.6666666666666663e-01 1.1111111111111110e-01 2.2222222222222221e-01
217 7.7777777777777779e-01 1.1111111111111110e-01 2.2222222222222221e-01
218 8.8888888888888884e-01 1.1111111111111110e-01 2.2222222222222221e-01
219 1.0000000000000000e+00 1.1111111111111110e-01 2.2222222222222221e-01
220 0.0000000000000000e+00 2.2222222222222221e-01 2.2222222222222221e-01
221 1.1111111111111110e-01 2.2222222222222221e-01 2.2222222222222221e-01
222 2.2222222222222221e-01 2.2222222222222221e-01 2.2222222222222221e-01
223 3.3333333333333331e-01 2.2222222222222221e-01 2.2222222222222221e-01
224 4.4444444444444442e-01 2.2222222222222221e-01 2.2222222222222221e-01
225 5.5555555555555558e-01 2.2222222222222221e-01 2.2222222222222221e-01
226 6.6666666666666663e-01 2.2222222222222221e-01 2.2222222222222221e-01
227 7.7777777777777779e-01 2.2222222222222221e-01 2.2222222222222221e-01
228 8.8888888888888884e-01 2.2222222222222221e-01 2.2222222222222221e-01
229 1.0000000000000000e+00 2.2222222222222221e-01 2.2222222222222221e-01
230 0.0000000000000000e+00 3.3333333333333331e-01 2.2222222222222221e-01
231 1.1111111111111110e-01 3.3333333333333331e-01 2.2222222222222221e-01
232 2.2222222222222221e-01 3.3333333333333331e-01 2.2222222222222221e-01
233 3.3333333333333331e-01 3.3333333333333331e-01 2.2222222222222221e-01
234 4.4444444444444442e-01 3.3333333333333331e-01 2.2222222222222221e-01
235 5.5555555555555558e-01 3.3333333333333331e-01 2.2222222222222221e-01
236 6.6666666666666663e-01 3.3333333333333331e-01 2.2222222222222221e-01
237 7.7777777777777779e-01 3.3333333333333331e-01 2.2222222222222221e-01
238 8.8888888888888884e-01 3.3333333333333331e-01 2.2222222222222221e-01
239 1.0000000000000000e+00 3.3333333333333331e-01 2.2222222222222221e-01
240 0.0000000000000000e+00 4.4444444444444442e-01 2.2222222222222221e-01
241 1.1111111111111110e-01 4.4444444444444442e-01 2.2222222222222221e-01
242 2.2222222222222221e-01 4.4444444444444442e-01 2.2222222222222221e-01
243 3.3333333333333331e-01 4.4444444444444442e-01 2.2222222222222221e-01
244 4.4444444444444442e-01 4.4444444444444442e-01 2.2222222222222221e-01
245 5.5555555555555558e-01 4.4444444444444442e-01 2.2222222222222221e-01
246 6.6666666666666663e-01 4.4444444444444442e-01 2.2222222222222221e-01
247 7.7777777777777779e-01 4.4444444444444442e-01 2.2222222222222221e-01
248 8.8888888888888884e-01 4.4444444444444442e-01 2.2222222222222221e-01
249 1.0000000000000000e+00 4.4444444444444442e-01 2.2222222222222221e-01
250 0.0000000000000000e+00 5.5555555555555558e-01 2.2222222222222221e-01
251 1.1111111111111110e-01 5.5555555555555558e-01 2.2222222222222221e-01
252 2.2222222222222221e-01 5.5555555555555558e-01 2.2222222222222221e-01
253 3.3333333333333331e-01 5.5555555555555558e-01 2.2222222222222221e-01
254 4.4444444444444442e-01 5.5555555555555558e-01 2.2222222222222221e-01
255 5.5555555555555558e-01 5.5555555555555558e-01 2.2222222222222221e-01
256 6.6666666666666663e-01 5.5555555555555558e-01 2.2222222222222221e-01
257 7.7777777777777779e-01 5.5555555555555558e-01 2.2222222222222221e-01
258 8.8888888888888884e-01 5.5555555555555558e-01 2.2222222222222221e-01
259 1.0000000000000000e+00 5.5555555555555558e-01 2.2222222222222221e-01
260 0.0000000000000000e+00 6.6666666666666663e-01 2.2222222222222221e-01
261 1.1111111111111110e-01 6.6666666666666663e-01 2.2222222222222221e-01
262 2.2222222222222221e-01 6.6666666666666663e-01 2.2222222222222221e-01
263 3.3333333333333331e-01 6.6666666666666663e-01 2.2222222222222221e-01
264 4.4444444444444442e-01 6.6666666666666663e-01 2.2222222222222221e-01
265 5.5555555555555558e-01 6.6666666666666663e-01 2.2222222222222221e-01
266 6.6666666666666663e-01 6.6666666666666663e-01 2.2222222222222221e-01
267 7.7777777777777779e-01 6.6666666666666663e-01 2.2222222222222221e-01
268 8.8888888888888884e-01 6.6666666666666663e-01 2.2222222222222221e-01
269 1.0000000000000000e+00 6.6666666666666663e-01 2.2222222222222221e-01
270 0.0000000000000000e+00 7.7777777777777779e-01 2.2222222222222221e-01
271 1.1111111111111110e-01 7.7777777777777779e-01 2.2222222222222221e-01
272 2.2222222222222221e-01 7.7777777777777779e-01 2.2222222222222221e-01
273 3.3333333333333331e-01 7.7777777777777779e-01 2.2222222222222221e-01
274 4.4444444444444442e-01 7.7777777777777779e-01 2.2222222222222221e-01
275 5.5555555555555558e-01 7.7777777777777779e-01 2.2222222222222221e-01
276 6.6666666666666663e-01 7.7777777777777779e-01 2.2222222222222221e-01
277 7.7777777777777779e-01 7.7777777777777779e-01 2.2222222222222221e-01
278 8.8888888888888884e-01 7.7777777777777779e-01 2.2222222222222221e-01
279 1.0000000000000000e+00 7.7777777777777779e-01 2.2222222222222221e-01
280 0.0000000000000000e+00 8.8888888888888884e-01 2.2222222222222221e-01
281 1.1111111111111110e-01 8.8888888888888884e-01 2.2222222222222221e-01
282 2.2222222222222221e-01 8.8888888888888884e-01 2.2222222222222221e-01
283 3.3333333333333331e-01 8.8888888888888884e-01 2.2222222222222221e-01
284 4.4444444444444442e-01 8.8888888888888884e-01 2.2222222222222221e-01
285 5.5555555555555558e-01 8.8888888888888884e-01 2.2222222222222221e-01
286 6.6666666666666663e-01 8.8888888888888884e-01 2.2222222222222221e-01
287 7.7777777777777779e-01 8.8888888888888884e-01 2.2222222222222221e-01
288 8.8888888888888884e-01 8.8888888888888884e-01 2.2222222222222221e-01
289 1.0000000000000000e+00 8.8888888888888884e-01 2.2222222222222221e-01
290 0.0000000000000000e+00 1.0000000000000000e+00 2.2222222222222221e-01
291 1.1111111111111110e-01 1.0000000000000000e+00 2.2222222222222221e-01
292 2.2222222222222221e-01 1.0000000000000000e+00 2.2222222222222221e-01
293 3.3333333333333331e-01 1.0000000000000000e+00 2.2222222222222221e-01
294 4.4444444444444442e-01 1.0000000000000000e+00 2.2222222222222221e-01
295 5.5555555555555558e-01 1.0000000000000000e+00 2.2222222222222221e-01
296 6.6666666666666663e-01 1.0000000000000000e+00 2.2222222222222221e-01
297 7.7777777777777779e-01 1.0000000000000000e+00 2.2222222222222221e-01
298 8.8888888888888884e-01 1.0000000000000000e+00 2.2222222222222221e-01
299 1.0000000000000000e+00 1.0000000000000000e+00 2.2222222222222221e-01
300 0.0000000000000000e+00 0.0000000000000000e+00 3.3333333333333331e-01
301 1.1111111111111110e-01 0.0000000000000000e+00 3.3333333333333331e-01
302 2.2222222222222221e-01 0.0000000000000000e+00 3.3333333333333331e-01
303 3.3333333333333331e-01 0.0000000000000000e+00 3.3333333333333331e-01
304 4.4444444444444442e-01 0.0000000000000000e+00 3.3333333333333331e-01
305 5.5555555555555558e-01 0.0000000000000000e+00 3.3333333333333331e-01
306 6.6666666666666663e-01 0.0000000000000000e+00 3.3333333333333331e-01
307 7.7777777777777779e-01 0.0000000000000000e+00 3.3333333333333331e-01
308 8.8888888888888884e-01 0.0000000000000000e+00 3.3333333333333331e-01
309 1.0000000000000000e+00 0.0000000000000000e+00 3.3333333333333331e-01
310 0.0000000000000000e+00 1.1111111111111110e-01 3.3333333333333331e-01
311 1.1111111111111110e-01 1.1111111111111110e-01 3.3333333333333331e-01
312 2.2222222222222221e-01 1.1111111111111110e-01 3.3333333333333331e-01
313 3.3333333333333331e-01 1.1111111111111110e-01 3.3333333333333331e-01
314 4.4444444444444442e-01 1.1111111111111110e-01 3.3333333333333331e-01
315 5.5555555555555558e-01 1.1111111111111110e-01 3.3333333333333331e-01
316 6.6666666666666663e-01 1.1111111111111110e-01 3.3333333333333331e-01
317 7.7777777777777779e-01 1.1111111111111110e-01 3.3333333333333331e-01
318 8.8888888888888884e-01 1.1111111111111110e-01 3.3333333333333331e-01
319 1.0000000000000000e+00 1.1111111111111110e-01 3.3333333333333331e-01
320 0.0000000000000000e+00 2.2222222222222221e-01 3.3333333333333331e-01
321 1.1111111111111110e-01 2.2222222222222221e-01 3.3333333333333331e-01
322 2.2222222222222221e-01 2.2222222222222221e-01 3.3333333333333331e-01
323 3.3333333333333331e-01 2.2222222222222221e-01 3.3333333333333331e-01
324 4.4444444444444442e-01 2.2222222222222221e-01 3.3333333333333331e-01
325 5.5555555555555558e-01 2.2222222222222221e-01 3.3333333333333331e-01
326 6.6666666666666663e-01 2.2222222222222221e-01 3.3333333333333331e-01
327 7.7777777777777779e-01 2.2222222222222221e-01 3.3333333333333331e-01
328 8.8888888888888884e-01 2.2222222222222221e-01 3.3333333333333331e-01
329 1.0000000000000000e+00 2.2222222222222221e-01 3.3333333333333331e-01
330 0.0000000000000000e+00 3.3333333333333331e-01 3.3333333333333331e-01
331 1.1111111111111110e-01 3.3333333333333331e-01 3.3333333333333331e-01
332 2.2222222222222221e-01 3.3333333333333331e-01 3.3333333333333331e-01
333 3.3333333333333331e-01 3.3333333333333331e-01 3.3333333333333331e-01
334 4.4444444444444442e-01 3.3333333333333331e-01 3.3333333333333331e-01
335 5.5555555555555558e-01 3.3333333333333331e-01 3.3333333333333331e-01
336 6.6666666666666663e-01 3.3333333333333331e-01 3.3333333333333331e-01
337 7.7777777777777779e-01 3.3333333333333331e-01 3.3333333333333331e-01
338 8.8888888888888884e-01 3.3333333333333331e-01 3.3333333333333331e-01
339 1.0000000000000000e+00 3.3333333333333331e-01 3.3333333333333331e-01
340 0.0000000000000000e+00 4.4444444444444442e-01 3.3333333333333331e-01
341 1.1111111111111110e-01 4.4444444444444442e-01 3.3333333333333331e-01
342 2.2222222222222221e-01 4.4444444444444442e-01 3.3333333333333331e-01
343 3.3333333333333331e-01 4.4444444444444442e-01 3.3333333333333331e-01
344 4.4444444444444442e-01 4.4444444444444442e-01 3.3333333333333331e-01
345 5.5555555555555558e-01 4.4444444444444442e-01 3.3333333333333331e-01
346 6.6666666666666663e-01 4.4444444444444442e-01 3.3333333333333331e-01
347 7.7777777777777779e-01 4.4444444444444442e-01 3.3333333333333331e-01
348 8.8888888888888884e-01 4.4444444444444442e-01 3.3333333333333331e-01
349 1.0000000000000000e+00 4.4444444444444442e-01 3.3333333333333331e-01
350 0.0000000000000000e+00 5.5555555555555558e-01 3.3333333333333331e-01
351 1.1111111111111110e-01 5.5555555555555558e-01 3.3333333333333331e-01
352 2.2222222222222221e-01 5.5555555555555558e-01 3.3333333333333331e-01
353 3.3333333333333331e-01 5.5555555555555558e-01 3.3333333333333331e-01
354 4.4444444444444442e-01 5.5555555555555558e-01 3.3333333333333331e-01
355 5.5555555555555558e-01 5.5555555555555558e-01 3.3333333333333331e-01
356 6.6666666666666663e-01 5.5555555555555558e-01 3.3333333333333331e-01
357 7.7777777777777779e-01 5.5555555555555558e-01 3.3333333333333331e-01
358 8.8888888888888884e-01 5.5555555555555558e-01 3.3333333333333331e-01
359 1.0000000000000000e+00 5.5555555555555558e-01 3.3333333333333331e-01
360 0.0000000000000000e+00 6.6666666666666663e-01 3.3333333333333331e-01
361 1.1111111111111110e-01 6.6666666666666663e-01 3.3333333333333331e-01
362 2.2222222222222221e-01 6.6666666666666663e-01 3.3333333333333331e-01
363 3.3333333333333331e-01 6.6666666666666663e-01 3.3333333333333331e-01
364 4.4444444444444442e-01 6.6666666666666663e-01 3.3333333333333331e-01
365 5.5555555555555558e-01 6.6666666666666663e-01 3.3333333333333331e-01
366 6.6666666666666663e-01 6.6666666666666663e-01 3.3333333333333331e-01
367 7.7777777777777779e-01 6.6666666666666663e-01 3.3333333333333331e-01
368 8.8888888888888884e-01 6.6666666666666663e-01 3.3333333333333331e-01
369 1.0000000000000000e+00 6.6666666666666663e-01 3.3333333333333331e-01
370 0.0000000000000000e+00 7.7777777777777779e-01 3.3333333333333331e-01
371 1.1111111111111110e-01 7.7777777777777779e-01 3.3333333333333331e-01
372 2.2222222222222221e-01 7.7777777777777779e-01 3.3333333333333331e-01
373 3.3333333333333331e-01 7.7777777777777779e-01 3.3333333333333331e-01
374 4.4444444444444442e-01 7.7777777777777779e-01 3.3333333333333331e-01
375 5.5555555555555558e-01 7.7777777777777779e-01 3.3333333333333331e-01
376 6.6666666666666663e-01 7.7777777777777779e-01 3.3333333333333331e-01
377 7.7777777777777779e-01 7.7777777777777779e-01 3.3333333333333331e-01
378 8.8888888888888884e-01 7.7777777777777779e-01 3.3333333333333331e-01
379 1.0000000000000000e+00 7.7777777777777779e-01 3.3333333333333331e-01
380 0.0000000000000000e+00 8.8888888888888884e-01 3.3333333333333331e-01
381 1.1111111111111110e-01 8.8888888888888884e-01 3.3333333333333331e-01
382 2.2222222222222221e-01 8.8888888888888884e-01 3.3333333333333331e-01
383 3.3333333333333331e-01 8.8888888888888884e-01 3.3333333333333331e-01
384 4.4444444444444442e-01 8.8888888888888884e-01 3.3333333333333331e-01
385 5.5555555555555558e-01 8.8888888888888884e-01 3.3333333333333331e-01
386 6.6666666666666663e-01 8.8888888888888884e-01 3.3333333333333331e-01
387 7.7777777777777779e-01 8.8888888888888884e-01 3.3333333333333331e-01
388 8.8888888888888884e-01 8.8888888888888884e-01 3.3333333333333331e-01
389 1.0000000000000000e+00 8.8888888888888884e-01 3.3333333333333331e-01
390 0.0000000000000000e+00 1.0000000000000000e+00 3.3333333333333331e-01
391 1.1111111111111110e-01 1.0000000000000000e+00 3.3333333333333331e-01
392 2.2222222222222221e-01 1.0000000000000000e+00 3.3333333333333331e-01
393 3.3333333333333331e-01 1.0000000000000000e+00 3.3333333333333331e-01
394 4.4444444444444442e-01 1.0000000000000000e+00 3.3333333333333331e-01
395 5.5555555555555558e-01 1.0000000000000000e+00 3.3333333333333331e-01
396 6.6666666666666663e-01 1.0000000000000000e+00 3.3333333333333331e-01
397 7.7777777777777779e-01 1.0000000000000000e+00 3.3333333333333331e-01
398 8.8888888888888884e-01 1.0000000000000000e+00 3.3333333333333331e-01
399 1.0000000000000000e+00 1.0000000000000000e+00 3.3333333333333331e-01
400 0.0000000000000000e+00 0.0000000000000000e+00 4.4444444444444442e-01
401 1.1111111111111110e-01 0.0000000000000000e+00 4.4444444444444442e-01
402 2.2222222222222221e-01 0.0000000000000000e+00 4.4444444444444442e-01
403 3.3333333333333331e-01 0.0000000000000000e+00 4.4444444444444442e-01
404 4.4444444444444442e-01 0.0000000000000000e+00 4.4444444444444442e-01
405 5.5555555555555558e-01 0.0000000000000000e+00 4.4444444444444442e-01
406 6.6666666666666663e-01 0.0000000000000000e+00 4.4444444444444442e-01
407 7.7777777777777779e-01 0.0000000000000000e+00 4.4444444444444442e-01
408 8.8888888888888884e-01 0.0000000000000000e+00 4.4444444444444442e-01
409 1.0000000000000000e+00 0.0000000000000000e+00 4.4444444444444442e-01
410 0.0000000000000000e+00 1.1111111111111110e-01 4.4444444444444442e-01
411 1.1111111111111110e-01 1.1111111111111110e-01 4.4444444444444442e-01
412 2.2222222222222221e-01 1.1111111111111110e-01 4.4444444444444442e-01
413 3.3333333333333331e-01 1.1111111111111110e-01 4.4444444444444442e-01
414 4.4444444444444442e-01 1.1111111111111110e-01 4.4444444444444442e-01
415 5.5555555555555558e-01 1.1111111111111110e-01 4.4444444444444442e-01
416 6.6666666666666663e-01 1.1111111111111110e-01 4.4444444444444442e-01
417 7.7777777777777779e-01 1.1111111111111110e-01 4.4444444444444442e-01
418 8.8888888888888884e-01 1.1111111111111110e-01 4.4444444444444442e-01
419 1.0000000000000000e+00 1.1111111111111110e-01 4.4444444444444442e-01
420 0.0000000000000000e+00 2.2222222222222221e-01 4.4444444444444442e-01
421 1.1111111111111110e-01 2.2222222222222221e-01 4.4444444444444442e-01
422 2.2222222222222221e-01 2.2222222222222221e-01 4.4444444444444442e-01
423 3.3333333333333331e-01 2.2222222222222221e-01 4.4444444444444442e-01
424 4.4444444444444442e-01 2.2222222222222221e-01 4.4444444444444442e-01
425 5.5555555555555558e-01 2.2222222222222221e-01 4.4444444444444442e-01
426 6.6666666666666663e-01 2.2222222222222221e-01 4.4444444444444442e-01
427 7.7777777777777779e-01 2.2222222222222221e-01 4.4444444444444442e-01
428 8.8888888888888884e-01 2.2222222222222221e-01 4.4444444444444442e-01
429 1.0000000000000000e+00 2.2222222222222221e-01 4.4444444444444442e-01
430 0.0000000000000000e+00 3.3333333333333331e-01 4.4444444444444442e-01
431 1.1111111111111110e-01 3.3333333333333331e-01 4.4444444444444442e-01
432 2.2222222222222221e-01 3.3333333333333331e-01 4.4444444444444442e-01
433 3.3333333333333331e-01 3.3333333333333331e-01 4.4444444444444442e-01
434 4.4444444444444442e-01 3.3333333333333331e-01 4.4444444444444442e-01
435 5.5555555555555558e-01 3.3333333333333331e-01 4.4444444444444442e-01
436 6.6666666666666663e-01 3.3333333333333331e-01 4.4444444444444442e-01
437 7.7777777777777779e-01 3.3333333333333331e-01 4.4444444444444442e-01
438 8.8888888888888884e-01 3.3333333333333331e-01 4.4444444444444442e-01
439 1.0000000000000000e+00 3.3333333333333331e-01 4.4444444444444442e-01
440 0.0000000000000000e+00 4.4444444444444442e-01 4.4444444444444442e-01
441 1.1111111111111110e-01 4.4444444444444442e-01 4.4444444444444442e-01
442 2.2222222222222221e-01 4.4444444444444442e-01 4.4444444444444442e-01
443 3.3333333333333331e-01 4.4444444444444442e-01 4.4444444444444442e-01
444 4.4444444444444442e-01 4.4444444444444442e-01 4.4444444444444442e-01
445 5.5555555555555558e-01 4.4444444444444442e-01 4.4444444444444442e-01
446 6.6666666666666663e-01 4.4444444444444442e-01 4.4444444444444442e-01
447 7.7777777777777779e-01 4.4444444444444442e-01 4.4444444444444442e-01
448 8.8888888888888884e-01 4.4444444444444442e-01 4.4444444444444442e-01
449 1.0000000000000000e+00 4.4444444444444442e-01 4.4444444444444442e-01
450 0.0000000000000000e+00 5.5555555555555558e-01 4.4444444444444442e-01
451 1.1111111111111110e-01 5.5555555555555558e-01 4.4444444444444442e-01
452 2.2222222222222221e-01 5.5555555555555558e-01 4.4444444444444442e-01
453 3.3333333333333331e-01 5.5555555555555558e-01 4.4444444444444442e-01
454 4.4444444444444442e-01 5.5555555555555558e-01 4.4444444444444442e-01
455 5.5555555555555558e-01 5.5555555555555558e-01 4.4444444444444442e-01
456 6.6666666666666663e-01 5.5555555555555558e-01 4.4444444444444442e-01
457 7.7777777777777779e-01 5.5555555555555558e-01 4.4444444444444442e-01
458 8.8888888888888884e-01 5.5555555555555558e-01 4.4444444444444442e-01
459 1.0000000000000000e+00 5.5555555555555558e-01 4.4444444444444442e-01
460 0.0000000000000000e+00 6.6666666666666663e-01 4.4444444444444442e-01
461 1.1111111111111110e-01 6.6666666666666663e-01 4.4444444444444442e-01
462 2.2222222222222221e-01 6.6666666666666663e-01 4.4444444444444442e-01
463 3.3333333333333331e-01 6.6666666666666663e-01 4.4444444444444442e-01
464 4.4444444444444442e-01 6.6666666666666663e-01 4.4444444444444442e-01
465 5.5555555555555558e-01 6.6666666666666663e-01 4.4444444444444442e-01
466 6.6666666666666663e-01 6.6666666666666663e-01 4.4444444444444442e-01
467 7.7777777777777779e-01 6.6666666666666663e-01 4.4444444444444442e-01
468 8.8888888888888884e-01 6.6666666666666663e-01 4.4444444444444442e-01
469 1.0000000000000000e+00 6.6666666666666663e-01 4.4444444444444442e-01
470 0.0000000000000000e+00 7.7777777777777779e-01 4.4444444444444442e-01
471 1.1111111111111110e-01 7.7777777777777779e-01 4.4444444444444442e-01
472 2.2222222222222221e-01 7.7777777777777779e-01 4.4444444444444442e-01
473 3.3333333333333331e-01 7.7777777777777779e-01 4.4444444444444442e-01
474 4.4444444444444442e-01 7.7777777777777779e-01 4.4444444444444442e-01
475 5.5555555555555558e-01 7.7777777777777779e-01 4.4444444444444442e-01
476 6.6666666666666663e-01 7.7777777777777779e-01 4.4444444444444442e-01
477 7.7777777777777779e-01 7.7777777777777779e-01 4.4444444444444442e-01
478 8.8888888888888884e-01 7.7777777777777779e-01 4.4444444444444442e-01
479 1.0000000000000000e+00 7.7777777777777779e-01 4.4444444444444442e-01
480 0.0000000000000000e+00 8.8888888888888884e-01 4.4444444444444442e-01
481 1.1111111111111110e-01 8.8888888888888884e-01 4.4444444444444442e-01
482 2.2222222222222221e-01 8.8888888888888884e-01 4.4444444444444442e-01
483 3.3333333333333331e-01 8.8888888888888884e-01 4.4444444444444442e-01
484 4.4444444444444442e-01 8.8888888888888884e-01 4.4444444444444442e-01
485 5.5555555555555558e-01 8.8888888888888884e-01 4.4444444444444442e-01
486 6.6666666666666663e-01 8.8888888888888884e-01 4.4444444444444442e-01
487 7.7777777777777779e-01 8.8888888888888884e-01 4.4444444444444442e-01
488 8.8888888888888884e-01 8.8888888888888884e-01 4.4444444444444442e-01
489 1.0000000000000000e+00 8.8888888888888884e-01 4.4444444444444442e-01
490 0.0000000000000000e+00 1.0000000000000000e+00 4.4444444444444442e-01
491 1.1111111111111110e-01 1.0000000000000000e+00 4.4444444444444442e-01
492 2.2222222222222221e-01 1.0000000000000000e+00 4.4444444444444442e-01
493 3.3333333333333331e-01 1.0000000000000000e+00 4.4444444444444442e-01
494 4.4444444444444442e-01 1.0000000000000000e+00 4.4444444444444442e-01
495 5.5555555555555558e-01 1.0000000000000000e+00 4.4444444444444442e-01
496 6.6666666666666663e-01 1.0000000000000000e+00 4.4444444444444442e-01
497 7.7777777777777779e-01 1.0000000000000000e+00 4.4444444444444442e-01
498 8.8888888888888884e-01 1.0000000000000000e+00 4.4444444444444442e-01
499 1.0000000000000000e+00 1.0000000000000000e+00 4.4444444444444442e-01
500 0.0000000000000000e+00 0.0000000000000000e+00 5.5555555555555558e-01
501 1.1111111111111110e-01 0.0000000000000000e+00 5.5555555555555558e-01
502 2.2222222222222221e-01 0.0000000000000000e+00 5.5555555555555558e-01
503 3.3333333333333331e-01 0.0000000000000000e+00 5.5555555555555558e-01
504 4.4444444444444442e-01 0.0000000000000000e+00 5.5555555555555558e-01
505 5.5555555555555558e-01 0.0000000000000000e+00 5.5555555555555558e-01
506 6.6666666666666663e-01 0.0000000000000000e+00 5.5555555555555558e-01
507 7.7777777777777779e-01 0.0000000000000000e+00 5.5555555555555558e-01
508 8.8888888888888884e-01 0.0000000000000000e+00 5.5555555555555558e-01
509 1.0000000000000000e+00 0.0000000000000000e+00 5.5555555555555558e-01
510 0.0000000000000000e+00 1.1111111111111110e-01 5.5555555555555558e-01
511 1.1111111111111110e-01 1.1111111111111110e-01 5.5555555555555558e-01
512 2.2222222222222221e-01 1.1111111111111110e-01 5.5555555555555558e-01
513 3.3333333333333331e-01 1.1111111111111110e-01 5.5555555555555558e-01
514 4.4444444444444442e-01 1.1111111111111110e-01 5.5555555555555558e-01
515 5.5555555555555558e-01 1.1111111111111110e-01 5.5555555555555558e-01
516 6.6666666666666663e-01 1.1111111111111110e-01 5.5555555555555558e-01
517 7.7777777777777779e-01 1.1111111111111110e-01 5.5555555555555558e-01
518 8.8888888888888884e-01 1.1111111111111110e-01 5.5555555555555558e-01
519 1.0000000000000000e+00 1.1111111111111110e-01 5.5555555555555558e-01
520 0.0000000000000000e+00 2.2222222222222221e-01 5.5555555555555558e-01
521 1.1111111111111110e-01 2.2222222222222221e-01 5.5555555555555558e-01
522 2.2222222222222221e-01 2.2222222222222221e-01 5.5555555555555558e-01
523 3.3333333333333331e-01 2.2222222222222221e-01 5.5555555555555558e-01
524 4.4444444444444442e-01 2.2222222222222221e-01 5.5555555555555558e-01
525 5.5555555555555558e-01 2.2222222222222221e-01 5.5555555555555558e-01
526 6.6666666666666663e-01 2.2222222222222221e-01 5.5555555555555558e-01
527 7.7777777777777779e-01 2.2222222222222221e-01 5.5555555555555558e-01
528 8.8888888888888884e-01 2.2222222222222221e-01 5.5555555555555558e-01
529 1.0000000000000000e+00 2.2222222222222221e-01 5.5555555555555558e-01
530 0.0000000000000000e+00 3.3333333333333331e-01 5.5555555555555558e-01
531 1.1111111111111110e-01 3.3333333333333331e-01 5.5555555555555558e-01
532 2.2222222222222221e-01 3.3333333333333331e-01 5.5555555555555558e-01
533 3.3333333333333331e-01 3.3333333333333331e-01 5.5555555555555558e-01
534 4.4444444444444442e-01 3.3333333333333331e-01 5.5555555555555558e-01
535 5.5555555555555558e-01 3.3333333333333331e-01 5.5555555555555558e-01
536 6.6666666666666663e-01 3.3333333333333331e-01 5.5555555555555558e-01
537 7.7777777777777779e-01 3.3333333333333331e-01 5.5555555555555558e-01
538 8.8888888888888884e-01 3.3333333333333331e-01 5.5555555555555558e-01
539 1.0000000000000000e+00 3.3333333333333331e-01 5.5555555555555558e-01
540 0.0000000000000000e+00 4.4444444444444442e-01 5.5555555555555558e-01
541 1.1111111111111110e-01 4.4444444444444442e-01 5.5555555555555558e-01
542 2.2222222222222221e-01 4.4444444444444442e-01 5.5555555555555558e-01
543 3.3333333333333331e-01 4.4444444444444442e-01 5.5555555555555558e-01
544 4.4444444444444442e-01 4.4444444444444442e-01 5.5555555555555558e-01
545 5.5555555555555558e-01 4.4444444444444442e-01 5.5555555555555558e-01
546 6.6666666666666663e-01 4.4444444444444442e-01 5.5555555555555558e-01
547 7.7777777777777779e-01 4.4444444444444442e-01 5.5555555555555558e-01
548 8.8888888888888884e-01 4.4444444444444442e-01 5.5555555555555558e-01
549 1.0000000000000000e+00 4.4444444444444442e-01 5.5555555555555558e-01
550 0.0000000000000000e+00 5.5555555555555558e-01 5.5555555555555558e-01
551 1.1111111111111110e-01 5.5555555555555558e-01 5.5555555555555558e-01
552 2.2222222222222221e-01 5.5555555555555558e-01 5.5555555555555558e-01
553 3.3333333333333331e-01 5.5555555555555558e-01 5.5555555555555558e-01
554 4.4444444444444442e-01 5.5555555555555558e-01 5.5555555555555558e-01
555 5.5555555555555558e-01 5.5555555555555558e-01 5.5555555555555558e-01
556 6.6666666666666663e-01 5.5555555555555558e-01 5.5555555555555558e-01
557 7.7777777777777779e-01 5.5555555555555558e-01 5.5555555555555558e-01
558 8.8888888888888884e-01 5.5555555555555558e-01 5.5555555555555558e-01
559 1.0000000000000000e+00 5.5555555555555558e-01 5.5555555555555558e-01
560 0.0000000000000000e+00 6.6666666666666663e-01 5.5555555555555558e-01
561 1.1111111111111110e-01 6.6666666666666663e-01 5.5555555555555558e-01
562 2.2222222222222221e-01 6.6666666666666663e-01 5.5555555555555558e-01
563 3.3333333333333331e-01 6.6666666666666663e-01 5.5555555555555558e-01
564 4.4444444444444442e-01 6.6666666666666663e-01 5.5555555555555558e-01
565 5.5555555555555558e-01 6.6666666666666663e-01 5.5555555555555558e-01
566 6.6666666666666663e-01 6.6666666666666663e-01 5.5555555555555558e-01
567 7.7777777777777779e-01 6.6666666666666663e-01 5.5555555555555558e-01
568 8.8888888888888884e-01 6.6666666666666663e-01 5.5555555555555558e-01
569 1.0000000000000000e+00 6.6666666666666663e-01 5.5555555555555558e-01
570 0.0000000000000000e+00 7.7777777777777779e-01 5.5555555555555558e-01
571 1.1111111111111110e-01 7.7777777777777779e-01 5.5555555555555558e-01
572 2.2222222222222221e-01 7.7777777777777779e-01 5.5555555555555558e-01
573 3.3333333333333331e-01 7.7777777777777779e-01 5.5555555555555558e-01
574 4.4444444444444442e-01 7.7777777777777779e-01 5.5555555555555558e-01
575 5.5555555555555558e-01 7.7777777777777779e-01 5.5555555555555558e-01
576 6.6666666666666663e-01 7.7777777777777779e-01 5.5555555555555558e-01
577 7.7777777777777779e-01 7.7777777777777779e-01 5.5555555555555558e-01
578 8.8888888888888884e-01 7.7777777777777779e-01 5.5555555555555558e-01
579 1.0000000000000000e+00 7.7777777777777779e-01 5.5555555555555558e-01
580 0.0000000000000000e+00 8.8888888888888884e-01 5.5555555555555558e-01
581 1.1111111111111110e-01 8.8888888888888884e-01 5.5555555555555558e-01
582 2.2222222222222221e-01 8.8888888888888884e-01 5.5555555555555558e-01
583 3.3333333333333331e-01 8.8888888888888884e-01 5.5555555555555558e-01
584 4.4444444444444442e-01 8.8888888888888884e-01 5.5555555555555558e-01
585 5.5555555555555558e-01 8.8888888888888884e-01 5.5555555555555558e-01
586 6.6666666666666663e-01 8.8888888888888884e-01 5.5555555555555558e-01
587 7.7777777777777779e-01 8.8888888888888884e-01 5.5555555555555558e-01
588 8.8888888888888884e-01 8.8888888888888884e-01 5.5555555555555558e-01
589 1.0000000000000000e+00 8.8888888888888884e-01 5.5555555555555558e-01
590 0.0000000000000000e+00 1.0000000000000000e+00 5.5555555555555558e-01
591 1.1111111111111110e-01 1.0000000000000000e+00 5.5555555555555558e-01
592 2.2222222222222221e-01 1.0000000000000000e+00 5.5555555555555558e-01
593 3.3333333333333331e-01 1.0000000000000000e+00 5.5555555555555558e-01
594 4.4444444444444442e-01 1.0000000000000000e+00 5.5555555555555558e-01
595 5.5555555555555558e-01 1.0000000000000000e+00 5.5555555555555558e-01
596 6.6666666666666663e-01 1.0000000000000000e+00 5.5555555555555558e-01
597 7.7777777777777779e-01 1.0000000000000000e+00 5.5555555555555558e-01
598 8.8888888888888884e-01 1.0000000000000000e+00 5.5555555555555558e-01
599 1.0000000000000000e+00 1.0000000000000000e+00 5.5555555555555558e-01
600 0.0000000000000000e+00 0.0000000000000000e+00 6.6666666666666663e-01
601 1.1111111111111110e-01 0.0000000000000000e+00 6.6666666666666663e-01
602 2.2222222222222221e-01 0.0000000000000000e+00 6.6666666666666663e-01
603 3.3333333333333331e-01 0.0000000000000000e+00 6.6666666666666663e-01
604 4.4444444444444442e-01 0.0000000000000000e+00 6.6666666666666663e-01
605 5.5555555555555558e-01 0.0000000000000000e+00 6.6666666666666663e-01
606 6.6666666666666663e-01 0.0000000000000000e+00 6.6666666666666663e-01
607 7.7777777777777779e-01 0.0000000000000000e+00 6.6666666666666663e-01
608 8.8888888888888884e-01 0.0000000000000000e+00 6.6666666666666663e-01
609 1.0000000000000000e+00 0.0000000000000000e+00 6.6666666666666663e-01
610 0.0000000000000000e+00 1.1111111111111110e-01 6.6666666666666663e-01
611 1.1111111111111110e-01 1.1111111111111110e-01 6.6666666666666663e-01
612 2.2222222222222221e-01 1.1111111111111110e-01 6.6666666666666663e-01
613 3.3333333333333331e-01 1.1111111111111110e-01 6.6666666666666663e-01
614 4.4444444444444442e-01 1.1111111111111110e-01 6.6666666666666663e-01
615 5.5555555555555558e-01 1.1111111111111110e-01 6.6666666666666663e-01
616 6.6666666666666663e-01 1.1111111111111110e-01 6.6666666666666663e-01
617 7.7777777777777779e-01 1.1111111111111110e-01 6.6666666666666663e-01
618 8.8888888888888884e-01 1.1111111111111110e-01 6.6666666666666663e-01
619 1.0000000000000000e+00 1.1111111111111110e-01 6.6666666666666663e-01
620 0.0000000000000000e+00 2.2222222222222221e-01 6.6666666666666663e-01
621 1.1111111111111110e-01 2.2222222222222221e-01 6.6666666666666663e-01
622 2.2222222222222221e-01 2.2222222222222221e-01 6.6666666666666663e-01
623 3.3333333333333331e-01 2.2222222222222221e-01 6.6666666666666663e-01
624 4.4444444444444442e-01 2.2222222222222221e-01 6.6666666666666663e-01
625 5.5555555555555558e-01 2.2222222222222221e-01 6.6666666666666663e-01
626 6.6666666666666663e-01 2.2222222222222221e-01 6.6666666666666663e-01
627 7.7777777777777779e-01 2.2222222222222221e-01 6.6666666666666663e-01
628 8.8888888888888884e-01 2.2222222222222221e-01 6.6666666666666663e-01
629 1.0000000000000000e+00 2.2222222222222221e-01 6.6666666666666663e-01
630 0.0000000000000000e+00 3.3333333333333331e-01 6.6666666666666663e-01
631 1.1111111111111110e-01 3.3333333333333331e-01 6.6666666666666663e-01
632 2.2222222222222221e-01 3.3333333333333331e-01 6.6666666666666663e-01
633 3.3333333333333331e-01 3.3333333333333331e-01 6.6666666666666663e-01
634 4.4444444444444442e-01 3.3333333333333331e-01 6.6666666666666663e-01
635 5.5555555555555558e-01 3.3333333333333331e-01 6.6666666666666663e-01
636 6.6666666666666663e-01 3.3333333333333331e-01 6.6666666666666663e-01
637 7.7777777777777779e-01 3.3333333333333331e-01 6.6666666666666663e-01
638 8.8888888888888884e-01 3.3333333333333331e-01 6.6666666666666663e-01
639 1.0000000000000000e+00 3.3333333333333331e-01 6.6666666666666663e-01
640 0.0000000000000000e+00 4.4444444444444442e-01 6.6666666666666663e-01
641 1.1111111111111110e-01 4.4444444444444442e-01 6.6666666666666663e-01
642 2.2222222222222221e-01 4.4444444444444442e-01 6.6666666666666663e-01
643 3.3333333333333331e-01 4.4444444444444442e-01 6.6666666666666663e-01
644 4.4444444444444442e-01 4.4444444444444442e-01 6.6666666666666663e-01
645 5.5555555555555558e-01 4.4444444444444442e-01 6.6666666666666663e-01
646 6.6666666666666663e-01 4.4444444444444442e-01 6.6666666666666663e-01
647 7.7777777777777779e-01 4.4444444444444442e-01 6.6666666666666663e-01
648 8.8888888888888884e-01 4.4444444444444442e-01 6.6666666666666663e-01
649 1.0000000000000000e+00 4.4444444444444442e-01 6.6666666666666663e-01
650 0.0000000000000000e+00 5.5555555555555558e-01 6.6666666666666663e-01
651 1.1111111111111110e-01 5.5555555555555558e-01 6.6666666666666663e-01
652 2.2222222222222221e-01 5.5555555555555558e-01 6.6666666666666663e-01
653 3.3333333333333331e-01 5.5555555555555558e-01 6.6666666666666663e-01
654 4.4444444444444442e-01 5.5555555555555558e-01 6.6666666666666663e-01
655 5.5555555555555558e-01 5.5555555555555558e-01 6.6666666666666663e-01
656 6.6666666666666663e-01 5.5555555555555558e-01 6.6666666666666663e-01
657 7.7777777777777779e-01 5.5555555555555558e-01 6.6666666666666663e-01
658 8.8888888888888884e-01 5.5555555555555558e-01 6.6666666666666663e-01
659 1.0000000000000000e+00 5.5555555555555558e-01 6.6666666666666663e-01
660 0.0000000000000000e+00 6.6666666666666663e-01 6.6666666666666663e-01
661 1.1111111111111110e-01 6.6666666666666663e-01 6.6666666666666663e-01
662 2.2222222222222221e-01 6.6666666666666663e-01 6.6666666666666663e-01
663 3.3333333333333331e-01 6.6666666666666663e-01 6.6666666666666663e-01
664 4.4444444444444442e-01 6.6666666666666663e-01 6.6666666666666663e-01
665 5.5555555555555558e-01 6.6666666666666663e-01 6.6666666666666663e-01
666 6.6666666666666663e-01 6.6666666666666663e-01 6.6666666666666663e-01
667 7.7777777777777779e-01 6.6666666666666663e-01 6.6666666666666663e-01
668 8.8888888888888884e-01 6.6666666666666663e-01 6.6666666666666663e-01
669 1.0000000000000000e+00 6.6666666666666663e-01 6.6666666666666663e-01
670 0.0000000000000000e+00 7.7777777777777779e-01 6.6666666666666663e-01
671 1.1111111111111110e-01 7.7777777777777779e-01 6.6666666666666663e-01
672 2.2222222222222221e-01 7.7777777777777779e-01 6.6666666666666663e-01
673 3.3333333333333331e-01 7.7777777777777779e-01 6.6666666666666663e-01
674 4.4444444444444442e-01 7.7777777777777779e-01 6.6666666666666663e-01
675 5.5555555555555558e-01 7.7777777777777779e-01 6.6666666666666663e-01
676 6.6666666666666663e-01 7.7777777777777779e-01 6.6666666666666663e-01
677 7.7777777777777779e-01 7.7777777777777779e-01 6.6666666666666663e-01
678 8.8888888888888884e-01 7.7777777777777779e-01 6.6666666666666663e-01
679 1.0000000000000000e+00 7.7777777777777779e-01 6.6666666666666663e-01
680 0.0000000000000000e+00 8.8888888888888884e-01 6.6666666666666663e-01
681 1.1111111111111110e-01 8.8888888888888884e-01 6.6666666666666663e-01
682 2.2222222222222221e-01 8.8888888888888884e-01 6.6666666666666663e-01
683 3.3333333333333331e-01 8.8888888888888884e-01 6.6666666666666663e-01
684 4.4444444444444442e-01 8.8888888888888884e-01 6.6666666666666663e-01
685 5.5555555555555558e-01 8.8888888888888884e-01 6.6666666666666663e-01
686 6.6666666666666663e-01 8.8888888888888884e-01 6.6666666666666663e-01
687 7.7777777777777779e-01 8.8888888888888884e-01 6.6666666666666663e-01
688 8.8888888888888884e-01 8.8888888888888884e-01 6.6666666666666663e-01
689 1.0000000000000000e+00 8.8888888888888884e-01 6.6666666666666663e-01
690 0.0000000000000000e+00 1.0000000000000000e+00 6.6666666666666663e-01
691 1.1111111111111110e-01 1.0000000000000000e+00 6.6666666666666663e-01
692 2.2222222222222221e-01 1.0000000000000000e+00 6.6666666666666663e-01
693 3.3333333333333331e-01 1.0000000000000000e+00 6.6666666666666663e-01
694 4.4444444444444442e-01 1.0000000000000000e+00 6.6666666666666663e-01
695 5.5555555555555558e-01 1.0000000000000000e+00 6.6666666666666663e-01
696 6.6666666666666663e-01 1.0000000000000000e+00 6.6666666666666663e-01
697 7.7777777777777779e-01 1.0000000000000000e+00 6.6666666666666663e-01
698 8.8888888888888884e-01 1.0000000000000000e+00 6.6666666666666663e-01
699 1.0000000000000000e+00 1.0000000000000000e+00 6.6666666666666663e-01
700 0.0000000000000000e+00 0.0000000000000000e+00 7.7777777777777779e-01
701 1.1111111111111110e-01 0.0000000000000000e+00 7.7777777777777779e-01
702 2.2222222222222221e-01 0.0000000000000000e+00 7.7777777777777779e-01
703 3.3333333333333331e-01 0.0000000000000000e+00 7.7777777777777779e-01
704 4.4444444444444442e-01 0.0000000000000000e+00 7.7777777777777779e-01
705 5.5555555555555558e-01 0.0000000000000000e+00 7.7777777777777779e-01
706 6.6666666666666663e-01 0.0000000000000000e+00 7.7777777777777779e-01
707 7.7777777777777779e-01 0.0000000000000000e+00 7.7777777777777779e-01
708 8.8888888888888884e-01 0.0000000000000000e+00 7.7777777777777779e-01
709 1.0000000000000000e+00 0.0000000000000000e+00 7.7777777777777779e-01
710 0.0000000000000000e+00 1.1111111111111110e-01 7.7777777777777779e-01
711 1.1111111111111110e-01 1.1111111111111110e-01 7.7777777777777779e-01
712 2.2222222222222221e-01 1.1111111111111110e-01 7.7777777777777779e-01
713 3.3333333333333331e-01 1.1111111111111110e-01 7.7777777777777779e-01
714 4.4444444444444442e-01 1.1111111111111110e-01 7.7777777777777779e-01
715 5.5555555555555558e-01 1.1111111111111110e-01 7.7777777777777779e-01
716 6.6666666666666663e-01 1.1111111111111110e-01 7.7777777777777779e-01
717 7.7777777777777779e-01 1.1111111111111110e-01 7.7777777777777779e-01
718 8.8888888888888884e-01 1.1111111111111110e-01 7.7777777777777779e-01
719 1.0000000000000000e+00 1.1111111111111110e-01 7.7777777777777779e-01
720 0.0000000000000000e+00 2.2222222222222221e-01 7.7777777777777779e-01
721 1.1111111111111110e-01 2.2222222222222221e-01 7.7777777777777779e-01
722 2.2222222222222221e-01 2.2222222222222221e-01 7.7777777777777779e-01
723 3.3333333333333331e-01 2.2222222222222221e-01 7.7777777777777779e-01
724 4.4444444444444442e-01 2.2222222222222221e-01 7.7777777777777779e-01
725 5.5555555555555558e-01 2.2222222222222221e-01 7.7777777777777779e-01
726 6.6666666666666663e-01 2.2222222222222221e-01 7.7777777777777779e-01
727 7.7777777777777779e-01 2.2222222222222221e-01 7.7777777777777779e-01
728 8.8888888888888884e-01 2.2222222222222221e-01 7.7777777777777779e-01
729 1.0000000000000000e+00 2.2222222222222221e-01 7.7777777777777779e-01
730 0.0000000000000000e+00 3.3333333333333331e-01 7.7777777777777779e-01
731 1.1111111111111110e-01 3.3333333333333331e-01 7.7777777777777779e-01
732 2.2222222222222221e-01 3.3333333333333331e-01 7.7777777777777779e-01
733 3.3333333333333331e-01 3.3333333333333331e-01 7.7777777777777779e-01
734 4.4444444444444442e-01 3.3333333333333331e-01 7.7777777777777779e-01
735 5.5555555555555558e-01 3.3333333333333331e-01 7.7777777777777779e-01
736 6.6666666666666663e-01 3.3333333333333331e-01 7.7777777777777779e-01
737 7.7777777777777779e-01 3.3333333333333331e-01 7.7777777777777779e-01
738 8.8888888888888884e-01 3.3333333333333331e-01 7.7777777777777779e-01
739 1.0000000000000000e+00 3.3333333333333331e-01 7.7777777777777779e-01
740 0.0000000000000000e+00 4.4444444444444442e-01 7.7777777777777779e-01
741 1.1111111111111110e-01 4.4444444444444442e-01 7.7777777777777779e-01
742 2.2222222222222221e-01 4.4444444444444442e-01 7.7777777777777779e-01
743 3.3333333333333331e-01 4.4444444444444442e-01 7.7777777777777779e-01
744 4.4444444444444442e-01 4.4444444444444442e-01 7.7777777777777779e-01
745 5.5555555555555558e-01 4.4444444444444442e-01 7.7777777777777779e-01
746 6.6666666666666663e-01 4.4444444444444442e-01 7.7777777777777779e-01
747 7.7777777777777779e-01 4.4444444444444442e-01 7.7777777777777779e-01
748 8.8888888888888884e-01 4.4444444444444442e-01 7.7777777777777779e-01
749 1.0000000000000000e+00 4.4444444444444442e-01 7.7777777777777779e-01
750 0.0000000000000000e+00 5.5555555555555558e-01 7.7777777777777779e-01
751 1.1111111111111110e-01 5.5555555555555558e-01 7.7777777777777779e-01
752 2.2222222222222221e-01 5.5555555555555558e-01 7.7777777777777779e-01
753 3.3333333333333331e-01 5.5555555555555558e-01 7.7777777777777779e-01
754 4.4444444444444442e-01 5.5555555555555558e-01 7.7777777777777779e-01
755 5.5555555555555558e-01 5.5555555555555558e-01 7.7777777777777779e-01
756 6.6666666666666663e-01 5.5555555555555558e-01 7.7777777777777779e-01
757 7.7777777777777779e-01 5.5555555555555558e-01 7.7777777777777779e-01
758 8.8888888888888884e-01 5.5555555555555558e-01 7.7777777777777779e-01
759 1.0000000000000000e+00 5.5555555555555558e-01 7.7777777777777779e-01
760 0.0000000000000000e+00 6.6666666666666663e-01 7.7777777777777779e-01
761 1.1111111111111110e-01 6.6666666666666663e-01 7.7777777777777779e-01
762 2.2222222222222221e-01 6.6666666666666663e-01 7.7777777777777779e-01
763 3.3333333333333331e-01 6.6666666666666663e-01 7.7777777777777779e-01
764 4.4444444444444442e-01 6.6666666666666663e-01 7.7777777777777779e-01
765 5.5555555555555558e-01 6.6666666666666663e-01 7.7777777777777779e-01
766 6.6666666666666663e-01 6.6666666666666663e-01 7.7777777777777779e-01
767 7.7777777777777779e-01 6.6666666666666663e-01 7.7777777777777779e-01
768 8.8888888888888884e-01 6.6666666666666663e-01 7.7777777777777779e-01
769 1.0000000000000000e+00 6.6666666666666663e-01 7.7777777777777779e-01
770 0.0000000000000000e+00 7.7777777777777779e-01 7.7777777777777779e-01
771 1.1111111111111110e-01 7.7777777777777779e-01 7.7777777777777779e-01
772 2.2222222222222221e-01 7.7777777777777779e-01 7.7777777777777779e-01
773 3.3333333333333331e-01 7.7777777777777779e-01 7.7777777777777779e-01
774 4.4444444444444442e-01 7.7777777777777779e-01 7.7777777777777779e-01
775 5.5555555555555558e-01 7.7777777777777779e-01 7.7777777777777779e-01
776 6.6666666666666663e-01 7.7777777777777779e-01 7.7777777777777779e-01
777 7.7777777777777779e-01 7.7777777777777779e-01 7.7777777777777779e-01
778 8.8888888888888884e-01 7.7777777777777779e-01 7.7777777777777779e-01
779 1.0000000000000000e+00 7.7777777777777779e-01 7.7777777777777779e-01
780 0.0000000000000000e+00 8.8888888888888884e-01 7.7777777777777779e-01
781 1.1111111111111110e-01 8.8888888888888884e-01 7.7777777777777779e-01
782 2.2222222222222221e-01 8.8888888888888884e-01 7.7777777777777779e-01
783 3.3333333333333331e-01 8.8888888888888884e-01 7.7777777777777779e-01
784 4.4444444444444442e-01 8.8888888888888884e-01 7.7777777777777779e-01
785 5.5555555555555558e-01 8.8888888888888884e-01 7.7777777777777779e-01
786 6.6666666666666663e-01 8.8888888888888884e-01 7.7777777777777779e-01
787 7.7777777777777779e-01 8.8888888888888884e-01 7.7777777777777779e-01
788 8.8888888888888884e-01 8.8888888888888884e-01 7.7777777777777779e-01
789 1.0000000000000000e+00 8.8888888888888884e-01 7.7777777777777779e-01
790 0.0000000000000000e+00 1.0000000000000000e+00 7.7777777777777779e-01
791 1.1111111111111110e-01 1.0000000000000000e+00 7.7777777777777779e-01
792 2.2222222222222221e-01 1.0000000000000000e+00 7.7777777777777779e-01
793 3.3333333333333331e-01 1.0000000000000000e+00 7.7777777777777779e-01
794 4.4444444444444442e-01 1.0000000000000000e+00 7.7777777777777779e-01
795 5.5555555555555558e-01 1.0000000000000000e+00 7.7777777777777779e-01
796 6.6666666666666663e-01 1.0000000000000000e+00 7.7777777777777779e-01
797 7.7777777777777779e-01 1.0000000000000000e+00 7.7777777777777779e-01
798 8.8888888888888884e-01 1.0000000000000000e+00 7.7777777777777779e-01
799 1.0000000000000000e+00 1.0000000000000000e+00 7.7777777777777779e-01
800 0.0000000000000000e+00 0.0000000000000000e+00 8.8888888888888884e-01
801 1.1111111111111110e-01 0.0000000000000000e+00 8.8888888888888884e-01
802 2.2222222222222221e-01 0.0000000000000000e+00 8.8888888888888884e-01
803 3.3333333333333331e-01 0.0000000000000000e+00 8.8888888888888884e-01
804 4.4444444444444442e-01 0.0000000000000000e+00 8.8888888888888884e-01
805 5.5555555555555558e-01 0.0000000000000000e+00 8.8888888888888884e-01
806 6.6666666666666663e-01 0.0000000000000000e+00 8.8888888888888884e-01
807 7.7777777777777779e-01 0.0000000000000000e+00 8.8888888888888884e-01
808 8.8888888888888884e-01 0.0000000000000000e+00 8.8888888888888884e-01
809 1.0000000000000000e+00 0.0000000000000000e+00 8.8888888888888884e-01
810 0.0000000000000000e+00 1.1111111111111110e-01 8.8888888888888884e-01
811 1.1111111111111110e-01 1.1111111111111110e-01 8.8888888888888884e-01
812 2.2222222222222221e-01 1.1111111111111110e-01 8.8888888888888884e-01
813 3.3333333333333331e-01 1.1111111111111110e-01 8.8888888888888884e-01
814 4.4444444444444442e-01 1.1111111111111110e-01 8.8888888888888884e-01
815 5.5555555555555558e-01 1.1111111111111110e-01 8.8888888888888884e-01
816 6.6666666666666663e-01 1.1111111111111110e-01 8.8888888888888884e-01
817 7.7777777777777779e-01 1.1111111111111110e-01 8.8888888888888884e-01
818 8.8888888888888884e-01 1.1111111111111110e-01 8.8888888888888884e-01
819 1.0000000000000000e+00 1.1111111111111110e-01 8.8888888888888884e-01
820 0.0000000000000000e+00 2.2222222222222221e-01 8.8888888888888884e-01
821 1.1111111111111110e-01 2.2222222222222221e-01 8.8888888888888884e-01
822 2.2222222222222221e-01 2.2222222222222221e-01 8.8888888888888884e-01
823 3.3333333333333331e-01 2.2222222222222221e-01 8.8888888888888884e-01
824 4.4444444444444442e-01 2.2222222222222221e-01 8.8888888888888884e-01
825 5.5555555555555558e-01 2.2222222222222221e-01 8.8888888888888884e-01
826 6.6666666666666663e-01 2.2222222222222221e-01 8.8888888888888884e-01
827 7.7777777777777779e-01 2.2222222222222221e-01 8.8888888888888884e-01
828 8.8888888888888884e-01 2.2222222222222221e-01 8.8888888888888884e-01
829 1.0000000000000000e+00 2.2222222222222221e-01 8.8888888888888884e-01
830 0.0000000000000000e+00 3.3333333333333331e-01 8.8888888888888884e-01
831 1.1111111111111110e-01 3.3333333333333331e-01 8.8888888888888884e-01
832 2.2222222222222221e-01 3.3333333333333331e-01 8.8888888888888884e-01
833 3.3333333333333331e-01 3.3333333333333331e-01 8.8888888888888884e-01
834 4.4444444444444442e-01 3.3333333333333331e-01 8.8888888888888884e-01
835 5.5555555555555558e-01 3.3333333333333331e-01 8.8888888888888884e-01
836 6.6666666666666663e-01 3.3333333333333331e-01 8.8888888888888884e-01
837 7.7777777777777779e-01 3.3333333333333331e-01 8.8888888888888884e-01
838 8.8888888888888884e-01 3.3333333333333331e-01 8.8888888888888884e-01
839 1.0000000000000000e+00 3.3333333333333331e-01 8.8888888888888884e-01
840 0.0000000000000000e+00 4.4444444444444442e-01 8.8888888888888884e-01
841 1.1111111111111110e-01 4.4444444444444442e-01 8.8888888888888884e-01
842 2.2222222222222221e-01 4.4444444444444442e-01 8.8888888888888884e-01
843 3.3333333333333331e-01 4.4444444444444442e-01 8.8888888888888884e-01
844 4.4444444444444442e-01 4.4444444444444442e-01 8.8888888888888884e-01
845 5.5555555555555558e-01 4.4444444444444442e-01 8.8888888888888884e-01
846 6.6666666666666663e-01 4.4444444444444442e-01 8.8888888888888884e-01
847 7.7777777777777779e-01 4.4444444444444442e-01 8.8888888888888884e-01
848 8.8888888888888884e-01 4.4444444444444442e-01 8.8888888888888884e-01
849 1.0000000000000000e+00 4.4444444444444442e-01 8.8888888888888884e-01
850 0.0000000000000000e+00 5.5555555555555558e-01 8.8888888888888884e-01
851 1.1111111111111110e-01 5.5555555555555558e-01 8.8888888888888884e-01
852 2.2222222222222221e-01 5.5555555555555558e-01 8.8888888888888884e-01
853 3.3333333333333331e-01 5.5555555555555558e-01 8.8888888888888884e-01
854 4.4444444444444442e-01 5.5555555555555558e-01 8.8888888888888884e-01
855 5.5555555555555558e-01 5.5555555555555558e-01 8.8888888888888884e-01
856 6.6666666666666663e-01 5.5555555555555558e-01 8.8888888888888884e-01
857 7.7777777777777779e-01 5.5555555555555558e-01 8.8888888888888884e-01
858 8.8888888888888884e-01 5.5555555555555558e-01 8.8888888888888884e-01
859 1.0000000000000000e+00 5.5555555555555558e-01 8.8888888888888884e-01
860 0.0000000000000000e+00 6.6666666666666663e-01 8.8888888888888884e-01
861 1.1111111111111110e-01 6.6666666666666663e-01 8.8888888888888884e-01
862 2.2222222222222221e-01 6.6666666666666663e-01 8.8888888888888884e-01
863 3.3333333333333331e-01 6.6666666666666663e-01 8.8888888888888884e-01
864 4.4444444444444442e-01 6.6666666666666663e-01 8.8888888888888884e-01
865 5.5555555555555558e-01 6.6666666666666663e-01 8.8888888888888884e-01
866 6.6666666666666663e-01 6.6666666666666663e-01 8.8888888888888884e-01
867 7.7777777777777779e-01 6.6666666666666663e-01 8.8888888888888884e-01
868 8.8888888888888884e-01 6.6666666666666663e-01 8.8888888888888884e-01
869 1.0000000000000000e+00 6.6666666666666663e-01 8.8888888888888884e-01
870 0.0000000000000000e+00 7.7777777777777779e-01 8.8888888888888884e-01
871 1.1111111111111110e-01 7.7777777777777779e-01 8.8888888888888884e-01
872 2.2222222222222221e-01 7.7777777777777779e-01 8.8888888888888884e-01
873 3.3333333333333331e-01 7.7777777777777779e-01 8.8888888888888884e-01
874 4.4444444444444442e-01 7.7777777777777779e-01 8.8888888888888884e-01
875 5.5555555555555558e-01 7.7777777777777779e-01 8.8888888888888884e-01
876 6.6666666666666663e-01 7.7777777777777779e-01 8.8888888888888884e-01
877 7.7777777777777779e-01 7.7777777777777779e-01 8.8888888888888884e-01
878 8.8888888888888884e-01 7.7777777777777779e-01 8.8888888888888884e-01
879 1.0000000000000000e+00 7.7777777777777779e-01 8.8888888888888884e-01
880 0.0000000000000000e+00 8.8888888888888884e-01 8.8888888888888884e-01
881 1.1111111111111110e-01 8.8888888888888884e-01 8.8888888888888884e-01
882 2.2222222222222221e-01 8.8888888888888884e-01 8.8888888888888884e-01
883 3.3333333333333331e-01 8.8888888888888884e-01 8.8888888888888884e-01
884 4.4444444444444442e-01 8.8888888888888884e-01 8.8888888888888884e-01
885 5.5555555555555558e-01 8.8888888888888884e-01 8.8888888888888884e-01
886 6.6666666666666663e-01 8.8888888888888884e-01 8.8888888888888884e-01
887 7.7777777777777779e-01 8.8888888888888884e-01 8.8888888888888884e-01
888 8.8888888888888884e-01 8.8888888888888884e-01 8.8888888888888884e-01
889 1.0000000000000000e+00 8.8888888888888884e-01 8.8888888888888884e-01
890 0.0000000000000000e+00 1.0000000000000000e+00 8.8888888888888884e-01
891 1.1111111111111110e-01 1.0000000000000000e+00 8.8888888888888884e-01
892 2.2222222222222221e-01 1.0000000000000000e+00 8.8888888888888884e-01
893 3.3333333333333331e-01 1.0000000000000000e+00 8.8888888888888884e-01
894 4.4444444444444442e-01 1.0000000000000000e+00 8.8888888888888884e-01
895 5.5555555555555558e-01 1.0000000000000000e+00 8.8888888888888884e-01
896 6.6666666666666663e-01 1.0000000000000000e+00 8.8888888888888884e-01
897 7.7777777777777779e-01 1.0000000000000000e+00 8.8888888888888884e-01
898 8.8888888888888884e-01 1.0000000000000000e+00 8.8888888888888884e-01
899 1.0000000000000000e+00 1.0000000000000000e+00 8.8888888888888884e-01
900 0.0000000000000000e+00 0.0000000000000000e+00 1.0000000000000000e+00
901 1.1111111111111110e-01 0.0000000000000000e+00 1.0000000000000000e+00
902 2.2222222222222221e-01 0.0000000000000000e+00 1.0000000000000000e+00
903 3.3333333333333331e-01 0.0000000000000000e+00 1.0000000000000000e+00
904 4.4444444444444442e-01 0.0000000000000000e+00 1.0000000000000000e+00
905 5.5555555555555558e-01 0.0000000000000000e+00 1.0000000000000000e+00
906 6.6666666666666663e-01 0.0000000000000000e+00 1.0000000000000000e+00
907 7.7777777777777779e-01 0.0000000000000000e+00 1.0000000000000000e+00
908 8.8888888888888884e-01 0.0000000000000000e+00 1.0000000000000000e+00
909 1.0000000000000000e+00 0.0000000000000000e+00 1.0000000000000000e+00
910 0.0000000000000000e+00 1.1111111111111110e-01 1.0000000000000000e+00
911 1.1111111111111110e-01 1.1111111111111110e-01 1.0000000000000000e+00
912 2.2222222222222221e-01 1.1111111111111110e-01 1.0000000000000000e+00
913 3.3333333333333331e-01 1.1111111111111110e-01 1.0000000000000000e+00
914 4.4444444444444442e-01 1.1111111111111110e-01 1.0000000000000000e+00
915 5.5555555555555558e-01 1.1111111111111110e-01 1.0000000000000000e+00
916 6.6666666666666663e-01 1.1111111111111110e-01 1.0000000000000000e+00
917 7.7777777777777779e-01 1.1111111111111110e-01 1.0000000000000000e+00
918 8.8888888888888884e-01 1.1111111111111110e-01 1.0000000000000000e+00
919 1.0000000000000000e+00 1.1111111111111110e-01 1.0000000000000000e+00
920 0.0000000000000000e+00 2.2222222222222221e-01 1.0000000000000000e+00
921 1.1111111111111110e-01 2.2222222222222221e-01 1.0000000000000000e+00
922 2.2222222222222221e-01 2.2222222222222221e-01 1.0000000000000000e+00
923 3.3333333333333331e-01 2.2222222222222221e-01 1.0000000000000000e+00
924 4.4444444444444442e-01 2.2222222222222221e-01 1.0000000000000000e+00
925 5.5555555555555558e-01 2.2222222222222221e-01 1.0000000000000000e+00
926 6.6666666666666663e-01 2.2222222222222221e-01 1.0000000000000000e+00
927 7.7777777777777779e-01 2.2222222222222221e-01 1.0000000000000000e+00
928 8.8888888888888884e-01 2.2222222222222221e-01 1.0000000000000000e+00
929 1.0000000000000000e+00 2.2222222222222221e-01 1.0000000000000000e+00
930 0.0000000000000000e+00 3.3333333333333331e-01 1.0000000000000000e+00
931 1.1111111111111110e-01 3.3333333333333331e-01 1.0000000000000000e+00
932 2.2222222222222221e-01 3.3333333333333331e-01 1.0000000000000000e+00
933 3.3333333333333331e-01 3.3333333333333331e-01 1.0000000000000000e+00
934 4.4444444444444442e-01 3.3333333333333331e-01 1.0000000000000000e+00
935 5.5555555555555558e-01 3.3333333333333331e-01 1.0000000000000000e+00
936 6.6666666666666663e-01 3.3333333333333331e-01 1.0000000000000000e+00
937 7.7777777777777779e-01 3.3333333333333331e-01 1.0000000000000000e+00
938 8.8888888888888884e-01 3.3333333333333331e-01 1.0000000000000000e+00
939 1.0000000000000000e+00 3.3333333333333331e-01 1.0000000000000000e+00
940 0.0000000000000000e+00 4.4444444444444442e-01 1.0000000000000000e+00
941 1.1111111111111110e-01 4.4444444444444442e-01 1.0000000000000000e+00
942 2.2222222222222221e-01 4.4444444444444442e-01 1.0000000000000000e+00
943 3.3333333333333331e-01 4.4444444444444442e-01 1.0000000000000000e+00
944 4.4444444444444442e-01 4.4444444444444442e-01 1.0000000000000000e+00
945 5.5555555555555558e-01 4.4444444444444442e-01 1.0000000000000000e+00
946 6.6666666666666663e-01 4.4444444444444442e-01 1.0000000000000000e+00
947 7.7777777777777779e-01 4.4444444444444442e-01 1.0000000000000000e+00
948 8.8888888888888884e-01 4.4444444444444442e-01 1.0000000000000000e+00
949 1.0000000000000000e+00 4.4444444444444442e-01 1.0000000000000000e+00
950 0.0000000000000000e+00 5.5555555555555558e-01 1.0000000000000000e+00
951 1.1111111111111110e-01 5.5555555555555558e-01 1.0000000000000000e+00
952 2.2222222222222221e-01 5.5555555555555558e-01 1.0000000000000000e+00
953 3.3333333333333331e-01 5.5555555555555558e-01 1.0000000000000000e+00
954 4.4444444444444442e-01 5.5555555555555558e-01 1.0000000000000000e+00
955 5.5555555555555558e-01 5.5555555555555558e-01 1.0000000000000000e+00
956 6.6666666666666663e-01 5.5555555555555558e-01 1.0000000000000000e+00
957 7.7777777777777779e-01 5.5555555555555558e-01 1.0000000000000000e+00
958 8.8888888888888884e-01 5.5555555555555558e-01 1.0000000000000000e+00
959 1.0000000000000000e+00 5.5555555555555558e-01 1.0000000000000000e+00
960 0.0000000000000000e+00 6.6666666666666663e-01 1.0000000000000000e+00
961 1.1111111111111110e-01 6.6666666666666663e-01 1.0000000000000000e+00
962 2.2222222222222221e-01 6.6666666666666663e-01 1.0000000000000000e+00
963 3.3333333333333331e-01 6.6666666666666663e-01 1.0000000000000000e+00
964 4.4444444444444442e-01 6.6666666666666663e-01 1.0000000000000000e+00
965 5.5555555555555558e-01 6.6666666666666663e-01 1.0000000000000000e+00
966 6.6666666666666663e-01 6.6666666666666663e-01 1.0000000000000000e+00
967 7.7777777777777779e-01 6.6666666666666663e-01 1.0000000000000000e+00
968 8.8888888888888884e-01 6.6666666666666663e-01 1.0000000000000000e+00
969 1.0000000000000000e+00 6.6666666666666663e-01 1.0000000000000000e+00
970 0.0000000000000000e+00 7.7777777777777779e-01 1.0000000000000000e+00
971 1.1111111111111110e-01 7.7777777777777779e-01 1.0000000000000000e+00
972 2.2222222222222221e-01 7.7777777777777779e-01 1.0000000000000000e+00
973 3.3333333333333331e-01 7.7777777777777779e-01 1.0000000000000000e+00
974 4.4444444444444442e-01 7.7777777777777779e-01 1.0000000000000000e+00
975 5.5555555555555558e-01 7.7777777777777779e-01 1.0000000000000000e+00
976 6.6666666666666663e-01 7.7777777777777779e-01 1.0000000000000000e+00
977 7.7777777777777779e-01 7.7777777777777779e-01 1.0000000000000000e+00
978 8.8888888888888884e-01 7.7777777777777779e-01 1.0000000000000000e+00
979 1.0000000000000000e+00 7.7777777777777779e-01 1.0000000000000000e+00
980 0.0000000000000000e+00 8.8888888888888884e-01 1.0000000000000000e+00
981 1.1111111111111110e-01 8.8888888888888884e-01 1.0000000000000000e+00
982 2.2222222222222221e-01 8.8888888888888884e-01 1.0000000000000000e+00
983 3.3333333333333331e-01 8.8888888888888884e-01 1.0000000000000000e+00
984 4.4444444444444442e-01 8.8888888888888884e-01 1.0000000000000000e+00
985 5.5555555555555558e-01 8.8888888888888884e-01 1.0000000000000000e+00
986 6.6666666666666663e-01 8.8888888888888884e-01 1.0000000000000000e+00
987 7.7777777777777779e-01 8.8888888888888884e-01 1.0000000000000000e+00
988 8.8888888888888884e-01 8.8888888888888884e-01 1.0000000000000000e+00
989 1.0000000000000000e+00 8.8888888888888884e-01 1.0000000000000000e+00
990 0.0000000000000000e+00 1.0000000000000000e+00 1.0000000000000000e+00
991 1.1111111111111110e-01 1.0000000000000000e+00 1.0000000000000000e+00
992 2.2222222222222221e-01 1.0000000000000000e+00 1.0000000000000000e+00
993 3.3333333333333331e-01 1.0000000000000000e+00 1.0000000000000000e+00
994 4.4444444444444442e-01 1.0000000000000000e+00 1.0000000000000000e+00
995 5.5555555555555558e-01 1.0000000000000000e+00 1.0000000000000000e+00
996 6.6666666666666663e-01 1.0000000000000000e+00 1.0000000000000000e+00
997 7.7777777777777779e-01 1.0000000000000000e+00 1.0000000000000000e+00
998 8.8888888888888884e-01 1.0000000000000000e+00 1.0000000000000000e+00
999 1.0000000000000000e+00 1.0000000000000000e+00 1.0000000000000000e+00
