# This file was created by meshio v5.3.5
4857 4 0
0 981 962 871 960
1 501 541 529 548
2 524 541 518 439
3 926 981 871 960
4 814 981 832 840
5 173 258 366 498
6 491 258 366 498
7 908 830 898 859
8 866 838 806 910
9 866 838 805 806
10 984 950 876 839
11 984 904 950 876
12 953 981 832 840
13 419 541 518 439
14 419 501 541 518
15 419 362 541 439
16 658 703 719 780
17 835 882 876 839
18 812 749 762 837
19 812 850 762 837
20 812 850 896 837
21 812 850 896 762
22 787 850 896 762
23 469 565 631 472
24 469 381 357 379
25 469 357 399 379
26 575 524 541 518
27 575 706 708 687
28 575 501 541 518
29 932 866 806 910
30 932 866 910 903
31 819 833 998 960
32 809 926 871 960
33 809 814 761 871
34 809 814 761 731
35 820 814 731 840
36 700 814 761 871
37 700 814 761 731
38 117 146 45 99
39 117 104 45 99
40 117 104 103 99
41 105 139 244 2
42 122 192 120 20
43 188 192 120 159
44 745 751 806 498
45 745 838 806 498
46 745 838 805 806
47 455 509 550 487
48 936 950 876 839
49 936 785 876 839
50 948 979 862 851
51 916 979 862 851
52 916 948 938 851
53 916 948 979 851
54 905 908 898 859
55 905 948 862 898
56 892 906 902 903
57 892 906 902 861
58 52 189 208 83
59 150 226 341 254
60 150 73 254 134
61 150 226 208 254
62 94 73 25 134
63 94 73 254 134
64 94 189 254 134
65 483 576 529 548
66 574 565 484 630
67 611 575 706 687
68 611 575 524 518
69 560 330 388 507
70 560 561 388 507
71 27 67 16 116
72 158 15 141 0
73 158 170 141 0
74 102 15 141 19
75 102 15 141 43
76 133 15 43 85
77 133 15 202 85
78 133 15 141 43
79 133 15 202 141
80 133 102 141 43
81 133 27 65 43
82 4 170 141 0
83 4 15 141 0
84 4 15 141 19
85 311 170 141 268
86 311 560 561 388
87 311 330 388 268
88 311 560 330 388
89 465 311 561 388
90 465 311 312 388
91 551 465 561 388
92 551 560 561 507
93 551 561 388 507
94 186 52 189 83
95 286 189 254 134
96 286 306 254 134
97 286 306 189 254
98 193 129 113 178
99 54 129 80 113
100 54 129 115 80
101 241 122 124 240
102 914 904 950 876
103 914 936 950 876
104 974 984 950 839
105 974 916 938 839
106 980 984 904 876
107 980 882 876 839
108 980 984 876 839
109 980 984 882 839
110 854 953 832 840
111 949 887 850 837
112 470 419 501 518
113 470 419 518 439
114 447 419 362 375
115 447 419 362 541
116 447 419 501 541
117 447 501 541 529
118 447 541 529 595
119 517 423 490 472
120 517 455 490 550
121 517 483 455 550
122 603 541 529 548
123 603 541 529 595
124 603 576 529 548
125 603 501 541 548
126 603 628 501 548
127 591 658 703 780
128 718 658 719 595
129 718 765 719 595
130 718 794 765 708
131 807 835 703 876
132 807 703 876 839
133 807 835 876 839
134 807 835 703 780
135 807 835 882 839
136 807 984 882 839
137 874 812 749 837
138 874 812 896 837
139 874 905 919 975
140 874 905 859 975
141 874 905 898 859
142 874 896 859 975
143 874 812 896 859
144 793 812 896 762
145 793 830 896 859
146 793 812 896 859
147 716 648 628 752
148 723 827 706 687
149 773 787 850 762
150 695 749 762 837
151 695 773 668 762
152 739 773 787 762
153 739 773 710 762
154 739 773 710 787
155 540 531 525 442
156 679 757 606 727
157 545 469 565 631
158 545 450 484 480
159 545 551 606 507
160 545 679 551 606
161 545 679 565 630
162 441 469 480 379
163 441 405 399 379
164 441 469 399 379
165 441 532 480 507
166 493 469 490 472
167 493 469 631 509
168 493 455 490 550
169 493 455 509 550
170 665 611 706 518
171 665 611 575 518
172 665 611 575 706
173 665 628 501 518
174 665 575 501 518
175 665 603 628 501
176 665 716 628 706
177 665 575 706 708
178 665 575 501 541
179 665 603 501 541
180 665 648 603 628
181 665 716 648 628
182 665 575 708 595
183 665 575 541 595
184 665 603 541 595
185 665 794 765 708
186 665 716 648 752
187 875 932 976 910
188 875 932 806 910
189 942 906 902 903
190 942 932 902 903
191 942 879 902 954
192 733 809 811 775
193 899 836 779 958
194 899 836 831 779
195 858 809 926 960
196 858 939 926 960
197 858 809 811 775
198 858 939 833 960
199 858 819 833 960
200 858 819 833 811
201 929 833 998 960
202 929 939 833 960
203 734 700 814 871
204 734 700 814 731
205 633 688 761 731
206 633 700 761 731
207 633 645 688 731
208 431 525 452 442
209 431 467 525 452
210 673 733 811 775
211 110 166 104 103
212 7 63 120 159
213 7 192 120 20
214 7 192 120 159
215 7 122 192 20
216 92 63 120 159
217 153 117 103 99
218 153 13 190 99
219 443 531 525 442
220 443 460 440 530
221 443 460 531 530
222 72 11 146 45
223 72 146 45 99
224 72 190 146 99
225 72 13 190 99
226 123 117 104 103
227 123 166 104 103
228 123 153 117 103
229 123 110 104 157
230 123 110 166 157
231 123 110 166 104
232 223 237 146 251
233 282 223 146 251
234 282 223 280 251
235 282 443 431 452
236 282 376 280 251
237 35 105 139 2
238 35 123 117 104
239 35 117 104 45
240 35 105 117 45
241 213 395 273 393
242 151 122 192 240
243 151 188 192 240
244 151 122 124 240
245 151 122 192 120
246 151 188 192 120
247 151 122 38 124
248 151 38 124 115
249 151 166 120 130
250 151 188 166 120
251 151 213 166 130
252 151 213 188 166
253 390 491 258 366
254 390 397 258 366
255 390 397 491 366
256 513 491 366 498
257 513 751 491 498
258 513 745 751 498
259 513 751 491 608
260 513 626 491 608
261 325 273 393 320
262 325 395 273 393
263 325 213 395 273
264 432 493 455 509
265 432 493 469 509
266 432 455 509 487
267 432 469 357 399
268 495 455 550 487
269 562 495 550 487
270 562 486 509 487
271 562 509 550 487
272 121 193 129 113
273 121 193 172 215
274 121 172 124 84
275 121 54 113 84
276 121 54 129 113
277 121 54 129 115
278 121 54 38 84
279 121 38 124 84
280 121 38 124 115
281 121 54 38 115
282 510 583 691 640
283 721 703 876 839
284 721 807 703 839
285 971 905 908 898
286 971 905 948 898
287 971 948 862 898
288 971 948 979 862
289 750 716 772 752
290 750 716 628 752
291 750 648 628 752
292 911 948 938 851
293 989 905 859 975
294 989 905 908 859
295 989 896 859 975
296 989 908 830 859
297 989 924 908 830
298 989 830 896 859
299 989 924 830 896
300 901 932 902 903
301 901 892 902 903
302 901 932 866 903
303 901 932 866 902
304 184 133 65 43
305 76 122 163 124
306 76 38 124 84
307 5 172 124 84
308 5 76 124 84
309 5 76 14 124
310 9 186 189 83
311 9 186 10 75
312 9 186 52 83
313 367 419 362 439
314 285 450 381 379
315 175 184 97 138
316 175 15 202 85
317 175 184 65 43
318 175 202 141 264
319 175 15 141 264
320 175 15 202 141
321 175 133 43 85
322 175 133 202 85
323 175 133 202 43
324 328 405 399 379
325 328 357 399 379
326 305 330 388 268
327 305 311 388 268
328 305 311 141 268
329 114 49 25 28
330 114 174 49 28
331 114 94 25 134
332 34 94 189 83
333 34 94 189 254
334 34 189 208 83
335 34 189 208 254
336 34 150 208 254
337 34 150 73 254
338 34 94 73 254
339 34 150 52 208
340 34 52 208 83
341 34 150 73 1
342 34 150 52 1
343 88 94 189 83
344 88 9 189 83
345 661 695 631 668
346 661 695 753 631
347 778 734 684 646
348 778 814 731 840
349 778 814 832 840
350 778 734 814 731
351 457 469 381 472
352 457 469 381 379
353 457 450 381 379
354 457 285 450 381
355 457 469 565 472
356 457 545 469 565
357 457 545 469 480
358 457 545 450 480
359 457 469 480 379
360 457 450 480 379
361 457 545 565 484
362 457 545 450 484
363 534 574 565 484
364 430 574 522 484
365 430 450 403 484
366 430 534 403 484
367 430 534 574 484
368 651 574 565 630
369 651 679 565 630
370 651 534 574 565
371 651 611 706 687
372 651 723 706 687
373 599 560 564 507
374 599 532 564 507
375 599 551 606 507
376 599 551 560 507
377 599 532 684 507
378 599 551 561 606
379 599 551 560 561
380 599 545 606 507
381 22 97 40 138
382 22 184 97 138
383 22 184 65 33
384 22 184 97 65
385 100 27 16 116
386 100 76 122 163
387 271 311 170 141
388 271 372 312 388
389 271 311 312 388
390 271 15 141 264
391 271 158 15 141
392 271 305 311 388
393 271 305 311 141
394 53 133 102 43
395 53 27 67 116
396 131 133 102 141
397 131 102 141 19
398 131 305 141 268
399 131 207 170 268
400 131 170 141 268
401 131 4 141 19
402 131 4 170 141
403 131 207 170 31
404 131 143 31 19
405 131 4 31 19
406 131 4 170 31
407 624 653 757 606
408 624 551 561 606
409 848 981 962 871
410 848 855 981 871
411 848 855 981 962
412 412 430 522 388
413 412 372 312 388
414 412 465 312 388
415 586 679 653 630
416 586 545 679 630
417 586 679 653 606
418 586 679 551 606
419 586 574 484 630
420 586 574 522 484
421 586 565 484 630
422 586 545 565 630
423 586 545 565 484
424 219 368 353 375
425 276 306 254 134
426 276 337 306 254
427 239 193 113 178
428 161 174 49 28
429 161 49 111 28
430 161 111 113 28
431 161 114 174 49
432 161 121 172 215
433 161 114 174 134
434 161 121 113 84
435 161 121 172 84
436 161 193 215 113
437 161 121 193 113
438 161 121 193 215
439 303 353 236 272
440 959 936 950 839
441 959 974 950 839
442 959 974 916 839
443 742 807 765 719
444 742 665 794 765
445 957 980 882 961
446 957 980 984 882
447 957 807 969 984
448 797 718 794 708
449 920 949 850 896
450 920 850 896 837
451 920 989 896 975
452 920 989 949 896
453 920 949 850 837
454 920 874 896 975
455 920 874 896 837
456 920 874 919 975
457 920 887 919 837
458 920 949 887 837
459 920 949 887 919
460 965 949 887 919
461 922 949 850 896
462 922 989 949 896
463 511 470 501 518
464 511 457 470 472
465 511 534 457 524
466 511 457 565 484
467 511 534 565 484
468 511 534 457 484
469 416 423 490 472
470 416 469 490 472
471 416 493 469 490
472 416 493 455 490
473 416 517 455 490
474 416 517 483 455
475 437 457 381 472
476 437 457 470 472
477 437 416 423 472
478 449 470 419 501
479 449 437 470 419
480 449 437 423 419
481 449 501 529 548
482 449 437 470 472
483 449 437 423 472
484 449 447 501 529
485 449 447 419 501
486 527 483 576 548
487 527 603 576 548
488 527 648 603 576
489 527 603 628 548
490 527 648 603 628
491 527 628 501 548
492 527 449 501 548
493 813 957 807 969
494 813 807 765 719
495 813 807 984 882
496 813 957 984 882
497 813 957 807 984
498 868 862 898 859
499 868 874 898 859
500 868 812 862 859
501 868 874 812 859
502 868 905 862 898
503 868 874 905 898
504 868 905 948 862
505 834 753 772 883
506 918 868 905 948
507 918 868 874 905
508 768 787 896 762
509 768 793 896 762
510 768 739 787 762
511 768 793 830 896
512 768 739 787 678
513 768 712 787 678
514 828 812 862 859
515 828 793 812 859
516 828 862 898 859
517 828 830 898 859
518 828 793 830 859
519 828 908 830 898
520 828 889 908 898
521 828 889 908 830
522 594 517 483 550
523 594 539 483 550
524 796 794 851 752
525 796 716 794 752
526 796 665 716 706
527 796 665 716 794
528 796 665 706 708
529 796 665 794 708
530 796 797 776 816
531 796 797 776 708
532 796 797 794 708
533 796 816 827 881
534 842 695 753 837
535 842 887 850 837
536 842 834 753 837
537 842 834 887 837
538 842 834 887 883
539 729 756 773 710
540 729 820 731 840
541 729 756 820 840
542 890 946 924 970
543 890 946 924 908
544 890 924 908 830
545 890 924 830 896
546 890 768 830 896
547 863 951 946 908
548 863 951 889 908
549 863 890 844 830
550 863 890 946 908
551 863 828 825 889
552 863 828 889 830
553 863 889 908 830
554 863 890 908 830
555 821 828 889 898
556 821 825 936 786
557 821 825 889 936
558 821 971 862 898
559 821 936 785 786
560 821 828 862 898
561 821 828 825 786
562 821 828 825 889
563 821 828 812 862
564 931 825 889 936
565 931 821 889 936
566 931 821 971 936
567 931 821 889 898
568 931 821 971 898
569 931 889 908 898
570 931 951 889 908
571 931 971 908 898
572 523 540 525 442
573 683 679 653 630
574 683 651 679 630
575 632 441 469 480
576 632 545 469 480
577 632 545 469 631
578 632 469 631 509
579 632 441 532 480
580 632 545 480 507
581 632 661 631 668
582 632 679 565 631
583 632 545 565 631
584 632 545 679 565
585 632 661 753 631
586 632 532 480 507
587 632 532 684 507
588 632 532 684 646
589 632 661 684 646
590 935 899 836 831
591 940 906 902 923
592 940 942 906 902
593 940 879 902 923
594 940 942 879 902
595 822 836 831 771
596 822 626 777 747
597 822 875 777 902
598 822 879 777 902
599 737 879 844 747
600 737 822 879 844
601 737 822 626 747
602 737 879 777 747
603 737 822 777 747
604 737 822 879 777
605 891 879 902 923
606 891 879 902 861
607 891 906 902 923
608 891 906 902 861
609 891 906 923 921
610 891 906 861 921
611 891 931 923 921
612 891 863 825 889
613 891 825 879 844
614 891 863 879 844
615 891 863 825 844
616 891 931 936 921
617 891 931 825 936
618 891 931 825 889
619 815 784 825 705
620 815 891 784 825
621 815 825 691 705
622 815 891 861 921
623 843 858 926 847
624 843 858 939 926
625 843 858 939 833
626 843 858 847 775
627 843 858 811 775
628 843 858 833 811
629 880 858 847 775
630 880 858 809 775
631 880 858 926 847
632 880 858 809 926
633 880 809 814 731
634 880 820 814 731
635 880 937 820 847
636 880 937 926 847
637 880 820 814 840
638 880 937 926 981
639 880 926 981 871
640 880 809 926 871
641 880 814 981 871
642 880 809 814 871
643 880 814 981 840
644 880 928 820 840
645 880 937 928 820
646 880 937 953 981
647 880 953 981 840
648 880 937 928 953
649 880 928 953 840
650 987 929 939 833
651 612 599 532 564
652 612 599 532 684
653 612 532 684 646
654 612 734 684 646
655 369 376 280 251
656 414 431 467 452
657 414 282 431 452
658 414 282 431 376
659 625 540 531 525
660 625 523 540 525
661 625 567 523 525
662 625 670 523 540
663 760 673 733 775
664 760 733 688 761
665 760 688 761 731
666 760 733 809 761
667 760 733 809 775
668 760 645 688 731
669 760 625 673 645
670 760 809 761 731
671 760 880 809 775
672 760 880 809 731
673 760 880 820 731
674 760 880 847 775
675 760 880 820 847
676 597 625 544 645
677 597 544 589 537
678 597 544 645 589
679 597 633 645 589
680 597 633 645 688
681 152 110 112 56
682 152 12 112 195
683 152 195 253 194
684 109 110 104 157
685 125 166 156 157
686 125 110 156 157
687 125 110 166 157
688 125 213 166 130
689 125 152 110 156
690 125 152 156 194
691 125 152 110 112
692 125 152 253 194
693 125 323 253 194
694 125 213 323 253
695 125 152 195 253
696 125 152 112 195
697 39 7 63 159
698 55 166 120 130
699 36 153 92 103
700 36 153 103 99
701 36 92 63 159
702 36 153 92 159
703 36 153 13 99
704 36 153 13 190
705 36 196 13 190
706 36 196 153 190
707 183 36 153 159
708 183 36 196 153
709 481 431 452 442
710 481 443 431 442
711 481 443 431 452
712 481 525 452 442
713 481 443 525 442
714 481 443 531 525
715 481 443 531 530
716 481 443 440 530
717 481 282 443 452
718 424 443 431 442
719 424 443 460 329
720 424 443 531 442
721 424 443 460 531
722 424 523 540 442
723 424 540 531 442
724 424 460 540 531
725 424 404 460 329
726 128 72 11 13
727 128 72 11 146
728 128 11 13 50
729 128 72 190 146
730 128 72 13 190
731 128 201 13 190
732 162 123 117 222
733 191 123 166 103
734 191 123 153 103
735 191 92 166 103
736 191 153 92 103
737 191 123 166 222
738 191 166 269 222
739 191 153 92 159
740 191 183 153 159
741 191 92 120 159
742 191 92 166 120
743 191 188 120 159
744 191 188 166 120
745 176 153 190 99
746 176 223 280 222
747 176 190 146 99
748 176 223 190 146
749 176 153 117 99
750 176 223 117 222
751 176 117 146 99
752 176 223 117 146
753 176 191 123 222
754 176 191 123 153
755 176 123 117 222
756 176 123 153 117
757 137 223 117 146
758 137 282 223 146
759 137 282 146 45
760 137 117 146 45
761 137 282 105 45
762 137 105 117 45
763 137 223 117 222
764 137 162 117 222
765 137 35 105 139
766 137 35 105 117
767 137 105 139 244
768 137 35 123 117
769 137 162 123 117
770 137 162 35 123
771 364 424 443 431
772 334 323 253 194
773 334 335 253 194
774 334 335 323 194
775 262 335 323 194
776 508 644 543 398
777 291 325 213 395
778 291 325 213 188
779 291 213 166 269
780 291 213 188 166
781 291 191 166 269
782 291 191 188 166
783 291 191 188 159
784 288 166 156 157
785 288 213 166 269
786 288 125 166 156
787 288 125 213 166
788 288 123 166 157
789 288 125 156 194
790 288 213 323 351
791 288 125 323 194
792 288 125 213 323
793 288 262 323 194
794 370 213 273 393
795 370 213 395 393
796 370 213 273 253
797 370 395 434 393
798 370 213 323 351
799 370 213 323 253
800 370 413 434 393
801 370 334 413 253
802 370 334 323 253
803 387 404 329 326
804 387 404 460 329
805 387 443 460 329
806 387 329 296 326
807 387 443 329 296
808 387 443 440 296
809 387 443 460 440
810 453 390 491 608
811 409 413 543 398
812 409 413 434 543
813 409 370 413 434
814 409 370 334 413
815 409 370 434 351
816 409 334 335 323
817 409 288 434 351
818 409 370 323 351
819 409 370 334 323
820 600 737 822 626
821 600 822 626 771
822 655 822 626 771
823 655 600 626 771
824 655 600 644 771
825 655 626 751 608
826 149 95 67 16
827 149 67 16 116
828 149 53 67 116
829 149 169 16 116
830 149 169 95 16
831 149 53 27 116
832 149 203 169 224
833 171 169 224 211
834 171 39 169 211
835 171 39 169 95
836 171 36 196 13
837 171 39 211 159
838 171 183 36 159
839 171 183 36 196
840 171 36 39 63
841 171 39 63 159
842 171 36 63 159
843 265 196 249 190
844 265 201 196 190
845 265 176 153 190
846 265 176 191 153
847 81 119 23 3
848 81 66 119 3
849 81 113 23 178
850 81 129 113 178
851 81 129 80 178
852 81 129 80 113
853 107 66 119 3
854 261 260 406 366
855 261 173 258 366
856 261 397 258 366
857 309 397 406 366
858 309 260 406 366
859 309 261 397 366
860 309 261 260 366
861 309 261 397 258
862 181 260 257 178
863 181 309 260 257
864 383 453 608 398
865 383 453 390 608
866 451 397 406 366
867 738 513 745 751
868 738 626 751 608
869 738 513 751 608
870 738 513 626 608
871 738 745 751 806
872 738 745 805 806
873 738 655 626 751
874 738 626 777 747
875 738 746 777 747
876 738 746 626 747
877 738 866 805 806
878 738 822 626 777
879 738 875 777 902
880 738 746 777 902
881 738 901 866 805
882 738 875 932 806
883 738 875 932 902
884 738 932 866 806
885 738 932 866 902
886 738 901 866 902
887 738 901 892 805
888 738 746 892 805
889 738 901 892 902
890 738 746 892 902
891 229 325 273 320
892 229 121 124 115
893 229 151 124 240
894 229 151 124 115
895 229 151 188 240
896 229 325 188 240
897 436 432 486 509
898 436 432 469 399
899 436 432 469 509
900 615 562 495 550
901 615 562 739 762
902 614 562 486 509
903 614 695 668 762
904 614 773 668 762
905 614 773 710 762
906 614 739 710 762
907 614 562 739 762
908 614 631 509 668
909 614 695 631 668
910 614 695 631 509
911 614 756 773 668
912 614 756 773 710
913 614 615 562 762
914 614 739 710 678
915 614 562 739 678
916 622 510 691 640
917 464 368 306 353
918 635 667 691 705
919 635 583 691 640
920 635 667 691 640
921 635 667 583 640
922 693 656 691 640
923 693 667 691 640
924 693 667 691 705
925 693 815 691 705
926 693 815 825 691
927 373 451 406 500
928 373 309 260 406
929 373 309 397 406
930 373 451 397 406
931 300 229 325 320
932 300 121 193 172
933 300 229 325 240
934 300 458 393 320
935 300 325 393 320
936 300 325 458 393
937 300 420 458 402
938 300 229 121 115
939 300 229 121 124
940 789 785 876 839
941 789 721 876 839
942 802 789 785 839
943 802 936 785 839
944 802 821 936 785
945 802 821 742 851
946 802 959 936 839
947 707 721 703 663
948 707 807 703 719
949 707 721 807 703
950 707 789 721 839
951 707 802 789 839
952 707 742 807 719
953 707 802 742 807
954 707 721 807 839
955 707 802 807 839
956 934 918 895 919
957 909 955 938 851
958 909 911 938 851
959 909 955 881 851
960 909 934 955 881
961 909 934 918 895
962 118 22 10 33
963 118 22 184 33
964 118 27 65 33
965 118 184 65 33
966 118 149 27 116
967 177 149 169 116
968 177 149 203 116
969 177 149 203 169
970 58 122 38 124
971 58 76 38 124
972 58 76 122 124
973 58 151 122 38
974 58 122 120 20
975 58 151 122 120
976 58 32 122 20
977 168 88 9 189
978 168 353 236 272
979 168 219 353 236
980 18 9 186 75
981 18 9 186 52
982 18 197 186 52
983 77 169 95 16
984 77 39 169 95
985 343 419 362 327
986 343 367 419 327
987 343 367 419 362
988 422 367 419 439
989 422 367 419 327
990 422 470 419 439
991 422 457 470 419
992 422 524 518 439
993 422 470 518 439
994 422 534 457 524
995 422 511 457 524
996 422 511 457 470
997 422 534 403 484
998 422 534 457 484
999 422 450 403 484
1000 422 457 450 484
1001 422 511 524 518
1002 422 511 470 518
1003 233 285 403 264
1004 233 285 332 403
1005 233 175 202 43
1006 233 175 184 43
1007 233 133 202 43
1008 233 184 133 43
1009 302 233 202 264
1010 302 233 285 264
1011 302 285 403 264
1012 302 285 450 403
1013 302 271 305 388
1014 302 271 305 141
1015 348 285 332 403
1016 348 285 450 403
1017 348 422 332 403
1018 348 422 450 403
1019 348 457 285 450
1020 348 422 457 450
1021 348 422 457 419
1022 348 233 285 332
1023 348 422 367 327
1024 348 422 419 327
1025 348 233 285 184
1026 348 457 470 419
1027 348 437 470 419
1028 348 437 457 470
1029 348 457 285 381
1030 348 437 457 381
1031 348 184 246 327
1032 6 175 43 85
1033 322 169 224 211
1034 322 328 224 211
1035 322 177 169 211
1036 322 299 310 211
1037 322 328 299 211
1038 322 310 211 192
1039 322 177 211 192
1040 322 313 432 310
1041 322 432 357 399
1042 322 328 357 399
1043 322 436 432 310
1044 322 436 432 399
1045 322 436 328 399
1046 235 131 305 268
1047 235 131 207 268
1048 235 131 305 141
1049 235 302 133 141
1050 235 302 305 141
1051 64 114 49 25
1052 64 114 94 25
1053 64 114 94 134
1054 64 94 189 134
1055 64 88 94 189
1056 64 168 88 189
1057 284 306 189 254
1058 284 219 189 254
1059 284 286 306 189
1060 284 368 306 353
1061 284 219 368 353
1062 284 286 189 236
1063 284 286 306 353
1064 284 168 189 236
1065 284 168 219 236
1066 284 168 219 189
1067 284 286 353 236
1068 284 219 353 236
1069 444 368 353 375
1070 444 447 462 595
1071 444 447 529 595
1072 444 464 353 529
1073 444 464 368 353
1074 438 495 455 550
1075 438 495 455 487
1076 438 420 455 487
1077 553 438 495 550
1078 553 615 495 550
1079 553 594 539 550
1080 553 615 594 550
1081 552 629 553 528
1082 552 629 553 539
1083 552 433 510 583
1084 552 433 583 500
1085 552 629 510 583
1086 552 629 539 510
1087 704 661 695 668
1088 704 661 695 753
1089 704 756 773 668
1090 704 661 646 668
1091 704 661 684 646
1092 68 143 31 19
1093 417 459 330 564
1094 417 459 532 564
1095 417 532 564 507
1096 417 560 330 564
1097 417 560 564 507
1098 417 560 330 507
1099 417 441 532 507
1100 417 441 405 399
1101 417 330 388 507
1102 417 305 388 507
1103 417 305 330 388
1104 417 235 305 330
1105 617 651 669 630
1106 617 651 574 630
1107 604 611 524 518
1108 604 617 651 669
1109 604 651 534 574
1110 604 617 651 574
1111 604 651 611 687
1112 604 651 723 687
1113 604 651 723 669
1114 759 716 772 706
1115 759 651 723 706
1116 759 772 827 706
1117 759 723 827 706
1118 759 651 723 669
1119 759 679 772 727
1120 690 599 684 507
1121 690 599 545 507
1122 690 632 684 507
1123 690 632 545 507
1124 690 632 545 679
1125 690 599 684 606
1126 690 545 679 606
1127 690 599 545 606
1128 690 684 606 727
1129 690 679 606 727
1130 690 632 661 684
1131 690 679 753 727
1132 690 632 679 753
1133 690 855 808 727
1134 690 684 855 727
1135 690 704 661 684
1136 690 704 778 684
1137 690 778 808 832
1138 690 778 684 832
1139 24 100 16 116
1140 24 122 163 116
1141 24 100 163 116
1142 24 100 122 163
1143 24 100 90 122
1144 24 32 90 122
1145 48 100 90 122
1146 48 100 76 122
1147 48 58 76 122
1148 48 32 90 122
1149 48 58 32 122
1150 230 158 170 141
1151 230 271 170 141
1152 230 271 158 141
1153 140 53 102 67
1154 140 68 102 67
1155 140 131 143 19
1156 140 131 102 19
1157 140 68 102 19
1158 140 68 143 19
1159 140 149 169 67
1160 140 149 169 224
1161 140 171 169 224
1162 200 131 143 31
1163 200 131 207 31
1164 200 140 131 143
1165 200 140 235 143
1166 200 235 131 207
1167 200 140 235 131
1168 521 551 465 561
1169 674 624 653 627
1170 674 624 653 757
1171 824 848 855 962
1172 841 848 855 871
1173 841 848 734 871
1174 841 734 814 871
1175 841 814 981 871
1176 841 855 981 871
1177 841 778 734 814
1178 841 814 981 832
1179 841 855 981 832
1180 841 778 814 832
1181 841 778 734 684
1182 841 778 684 832
1183 841 690 684 832
1184 841 690 684 855
1185 841 855 808 832
1186 841 690 808 832
1187 841 690 855 808
1188 536 521 551 465
1189 536 521 624 561
1190 536 624 551 561
1191 536 521 551 561
1192 536 624 653 606
1193 536 624 551 606
1194 536 586 653 606
1195 536 586 551 606
1196 536 412 465 388
1197 499 545 679 551
1198 499 586 679 551
1199 499 586 545 679
1200 499 586 545 484
1201 499 545 551 507
1202 499 586 522 484
1203 499 545 480 507
1204 499 545 484 480
1205 499 536 586 522
1206 499 536 586 551
1207 499 450 484 480
1208 499 551 388 507
1209 499 430 522 484
1210 499 430 450 484
1211 499 430 522 388
1212 499 430 450 388
1213 499 536 412 522
1214 499 412 522 388
1215 499 536 412 388
1216 499 551 465 388
1217 499 536 465 388
1218 499 536 551 465
1219 206 197 186 52
1220 206 52 189 208
1221 206 186 52 189
1222 206 219 197 186
1223 206 219 189 208
1224 206 219 186 189
1225 206 219 197 375
1226 155 186 10 75
1227 155 18 186 75
1228 155 18 197 186
1229 155 10 40 75
1230 428 433 500 331
1231 428 346 476 510
1232 21 161 113 84
1233 21 161 111 113
1234 21 5 172 84
1235 21 161 172 84
1236 259 286 189 134
1237 259 161 174 134
1238 259 276 174 134
1239 259 346 276 174
1240 259 286 306 134
1241 259 276 306 134
1242 259 276 286 306
1243 358 437 416 423
1244 358 348 437 381
1245 358 348 246 327
1246 358 437 381 472
1247 358 437 416 472
1248 358 437 423 419
1249 358 348 437 419
1250 358 348 419 327
1251 216 122 163 124
1252 216 241 122 124
1253 216 241 122 163
1254 216 121 172 124
1255 216 300 121 124
1256 216 300 121 172
1257 216 300 229 124
1258 216 241 124 240
1259 216 229 124 240
1260 216 300 229 240
1261 817 794 851 752
1262 817 742 794 851
1263 817 821 862 851
1264 817 821 742 851
1265 817 948 862 851
1266 817 868 948 862
1267 817 750 648 752
1268 817 918 868 895
1269 817 868 812 862
1270 817 918 868 948
1271 817 821 812 862
1272 817 821 648 812
1273 817 750 812 749
1274 817 911 948 851
1275 817 874 812 749
1276 817 868 874 812
1277 680 707 742 719
1278 680 622 570 582
1279 680 622 588 570
1280 680 707 802 785
1281 680 707 802 742
1282 764 706 708 687
1283 764 827 706 687
1284 764 796 706 708
1285 764 796 776 708
1286 764 796 827 706
1287 764 796 816 827
1288 764 796 776 816
1289 870 920 919 837
1290 870 920 874 837
1291 870 920 874 919
1292 870 874 749 837
1293 870 834 749 837
1294 870 887 919 837
1295 870 887 883 919
1296 870 834 887 837
1297 870 834 887 883
1298 870 817 874 749
1299 870 918 895 919
1300 870 934 883 919
1301 870 934 895 919
1302 870 934 895 883
1303 870 834 750 749
1304 870 817 750 749
1305 870 918 905 919
1306 870 874 905 919
1307 870 918 874 905
1308 870 918 868 895
1309 870 918 868 874
1310 870 817 868 895
1311 870 817 868 874
1312 888 855 808 727
1313 888 855 808 832
1314 865 949 887 850
1315 865 965 949 887
1316 865 965 854 887
1317 865 922 965 949
1318 865 922 949 850
1319 865 842 887 850
1320 865 842 854 887
1321 865 922 965 928
1322 865 965 928 953
1323 865 965 854 953
1324 865 943 922 928
1325 865 854 953 840
1326 865 928 953 840
1327 865 922 850 896
1328 865 943 922 896
1329 865 928 820 840
1330 865 756 820 840
1331 967 989 924 896
1332 967 922 989 896
1333 681 750 648 628
1334 681 750 716 628
1335 681 750 716 772
1336 681 759 716 772
1337 340 469 381 472
1338 340 416 469 472
1339 340 358 381 472
1340 340 358 416 472
1341 340 469 381 357
1342 340 432 493 469
1343 340 416 493 469
1344 340 313 432 455
1345 340 416 313 455
1346 340 432 493 455
1347 340 416 493 455
1348 587 594 517 550
1349 587 517 490 472
1350 587 517 490 550
1351 587 493 490 550
1352 587 493 509 550
1353 587 493 490 472
1354 587 493 631 509
1355 587 681 695 631
1356 587 469 631 472
1357 587 493 469 472
1358 587 493 469 631
1359 494 517 423 472
1360 494 449 423 472
1361 494 517 470 472
1362 494 449 470 472
1363 494 421 416 423
1364 494 449 470 501
1365 494 527 449 501
1366 494 517 423 490
1367 494 416 423 490
1368 494 416 517 490
1369 494 416 517 483
1370 494 421 416 483
1371 494 527 483 548
1372 494 527 449 548
1373 581 587 527 517
1374 581 527 628 501
1375 581 494 527 517
1376 581 587 517 472
1377 581 527 648 628
1378 581 494 527 501
1379 581 494 517 470
1380 581 681 648 628
1381 581 587 681 648
1382 581 517 470 472
1383 581 511 470 472
1384 581 511 470 501
1385 581 494 470 501
1386 581 681 565 631
1387 581 587 681 631
1388 581 565 631 472
1389 581 587 631 472
1390 581 681 716 628
1391 795 807 835 882
1392 795 813 807 882
1393 795 807 835 780
1394 795 703 719 780
1395 795 807 703 780
1396 795 807 703 719
1397 795 658 719 780
1398 766 718 658 719
1399 766 795 658 719
1400 766 718 765 719
1401 766 813 765 719
1402 766 813 807 719
1403 766 795 807 719
1404 766 795 813 807
1405 885 969 955 938
1406 885 955 938 851
1407 826 834 772 883
1408 826 870 895 883
1409 826 870 834 883
1410 826 870 834 750
1411 826 750 772 752
1412 826 870 817 895
1413 826 870 817 750
1414 826 716 772 752
1415 826 817 750 752
1416 826 834 750 749
1417 724 695 753 837
1418 724 834 753 837
1419 724 695 749 837
1420 724 834 749 837
1421 724 826 834 749
1422 724 834 753 772
1423 724 826 834 772
1424 724 681 695 749
1425 724 681 750 749
1426 724 826 750 749
1427 724 753 772 727
1428 724 679 772 727
1429 724 679 753 727
1430 724 695 753 631
1431 724 681 695 631
1432 724 681 750 772
1433 724 826 750 772
1434 724 632 753 631
1435 724 632 679 631
1436 724 632 679 753
1437 724 759 679 772
1438 724 681 759 772
1439 724 679 565 631
1440 724 651 679 565
1441 724 681 565 631
1442 724 681 651 565
1443 724 759 651 679
1444 724 681 759 651
1445 894 796 716 706
1446 894 716 772 706
1447 894 796 827 706
1448 894 796 716 752
1449 894 772 827 706
1450 894 826 895 772
1451 894 826 716 772
1452 894 796 827 881
1453 894 826 716 752
1454 894 796 851 752
1455 894 796 881 851
1456 894 826 817 752
1457 894 826 817 895
1458 894 817 851 752
1459 894 909 934 881
1460 894 909 934 895
1461 894 909 881 851
1462 894 817 911 851
1463 894 909 911 851
1464 894 817 918 895
1465 894 909 918 911
1466 894 909 918 895
1467 894 918 911 948
1468 894 817 911 948
1469 894 817 918 948
1470 803 865 842 854
1471 803 865 756 773
1472 803 704 756 773
1473 803 865 773 850
1474 803 865 842 850
1475 803 842 854 808
1476 803 773 850 762
1477 803 842 753 808
1478 803 842 695 753
1479 803 704 695 753
1480 803 850 762 837
1481 803 842 850 837
1482 803 695 773 762
1483 803 695 773 668
1484 803 704 773 668
1485 803 704 695 668
1486 803 695 762 837
1487 803 842 695 837
1488 573 645 598 589
1489 573 544 645 589
1490 697 729 731 840
1491 697 729 756 840
1492 697 778 731 840
1493 697 729 645 731
1494 697 704 646 668
1495 697 704 756 668
1496 697 573 729 645
1497 697 778 734 731
1498 697 778 734 646
1499 697 778 684 646
1500 697 704 684 646
1501 697 704 778 684
1502 697 645 598 646
1503 697 573 598 646
1504 697 573 645 598
1505 852 822 712 831
1506 852 890 924 896
1507 852 737 822 712
1508 852 768 787 896
1509 852 890 768 896
1510 964 863 951 946
1511 964 863 951 889
1512 964 940 879 923
1513 964 863 946 844
1514 964 940 946 844
1515 964 931 951 889
1516 964 891 863 889
1517 964 891 879 923
1518 964 891 863 879
1519 964 863 879 844
1520 964 940 879 844
1521 964 891 931 923
1522 964 891 931 889
1523 963 821 971 936
1524 963 802 959 936
1525 963 802 821 936
1526 963 959 916 839
1527 963 802 916 839
1528 963 802 959 839
1529 963 916 979 862
1530 963 971 979 862
1531 963 821 971 862
1532 963 916 862 851
1533 963 802 916 851
1534 963 821 862 851
1535 963 802 821 851
1536 800 683 651 774
1537 800 683 651 679
1538 800 759 651 679
1539 800 759 679 727
1540 800 679 757 727
1541 800 759 772 727
1542 692 683 679 653
1543 692 653 757 606
1544 692 679 757 606
1545 692 679 653 606
1546 692 800 679 757
1547 692 800 683 679
1548 692 800 774 757
1549 692 800 683 774
1550 941 875 932 976
1551 941 875 932 902
1552 941 822 875 902
1553 941 822 902 954
1554 941 942 902 954
1555 941 942 932 902
1556 994 899 836 958
1557 994 935 899 958
1558 994 935 899 836
1559 991 940 942 879
1560 991 942 879 954
1561 869 941 822 875
1562 869 935 836 831
1563 869 822 836 831
1564 869 941 935 976
1565 869 941 875 976
1566 869 994 935 976
1567 869 994 935 836
1568 767 746 892 805
1569 767 738 745 805
1570 767 738 746 805
1571 767 738 746 745
1572 767 892 902 861
1573 767 746 892 902
1574 767 879 902 861
1575 767 891 879 861
1576 767 879 777 902
1577 767 746 777 902
1578 767 891 825 879
1579 767 891 784 825
1580 767 879 777 747
1581 767 746 777 747
1582 767 879 844 747
1583 579 538 458 528
1584 520 460 540 531
1585 520 424 460 540
1586 520 424 404 460
1587 520 670 523 540
1588 520 424 523 540
1589 520 424 404 329
1590 846 899 779 958
1591 988 843 926 847
1592 988 843 939 926
1593 988 972 926 847
1594 620 612 633 700
1595 620 597 633 589
1596 618 734 700 731
1597 618 612 734 700
1598 618 633 700 731
1599 618 612 633 700
1600 618 612 734 646
1601 618 633 645 731
1602 618 697 734 731
1603 618 697 734 646
1604 618 633 645 589
1605 618 697 645 731
1606 618 697 645 646
1607 618 645 598 646
1608 618 645 598 589
1609 618 620 633 589
1610 618 620 612 633
1611 618 612 532 646
1612 618 598 532 589
1613 618 612 532 589
1614 290 369 376 251
1615 411 417 441 399
1616 411 417 441 532
1617 514 573 544 589
1618 514 573 567 544
1619 515 514 567 544
1620 515 520 670 523
1621 515 726 670 659
1622 515 520 670 659
1623 605 481 531 525
1624 605 481 531 530
1625 605 625 531 525
1626 605 625 673 525
1627 605 625 673 531
1628 666 760 733 688
1629 666 760 673 733
1630 666 597 645 688
1631 666 760 645 688
1632 666 760 673 645
1633 666 625 673 645
1634 666 597 625 645
1635 666 597 625 673
1636 87 152 112 56
1637 87 152 12 112
1638 62 110 156 157
1639 62 109 110 157
1640 62 152 110 56
1641 62 152 110 156
1642 82 123 104 157
1643 82 109 104 157
1644 199 125 213 130
1645 199 125 115 130
1646 199 213 273 253
1647 199 125 213 253
1648 199 229 273 115
1649 199 151 213 130
1650 199 325 213 273
1651 199 229 325 273
1652 199 195 273 115
1653 199 125 195 115
1654 199 195 273 253
1655 199 125 195 253
1656 199 229 151 115
1657 199 151 213 188
1658 199 229 151 188
1659 199 325 213 188
1660 199 229 325 188
1661 154 211 192 159
1662 154 39 211 159
1663 154 7 192 159
1664 154 39 7 159
1665 154 39 169 211
1666 154 77 39 7
1667 154 177 211 192
1668 154 177 169 211
1669 154 77 39 169
1670 154 7 122 192
1671 154 77 7 20
1672 154 7 122 20
1673 154 77 32 20
1674 154 32 122 20
1675 154 122 163 116
1676 154 177 163 116
1677 154 77 169 16
1678 154 77 32 16
1679 154 322 177 192
1680 154 169 16 116
1681 154 177 169 116
1682 154 24 32 16
1683 154 24 32 122
1684 154 24 16 116
1685 154 24 122 116
1686 29 92 166 120
1687 29 55 166 120
1688 29 55 92 120
1689 29 55 166 130
1690 29 55 125 130
1691 29 125 166 130
1692 29 125 110 166
1693 29 110 166 103
1694 29 92 166 103
1695 74 151 120 130
1696 74 55 120 130
1697 74 199 151 130
1698 74 199 115 130
1699 74 199 151 115
1700 74 125 115 130
1701 74 55 125 130
1702 74 55 125 112
1703 205 196 153 190
1704 205 183 196 153
1705 205 196 249 190
1706 205 183 196 249
1707 205 265 249 190
1708 205 265 153 190
1709 205 191 183 153
1710 205 265 191 153
1711 535 481 525 452
1712 535 605 481 525
1713 535 467 525 452
1714 535 414 467 452
1715 535 567 467 525
1716 535 625 567 525
1717 535 625 567 544
1718 535 597 625 544
1719 535 567 544 467
1720 266 212 218 326
1721 266 218 329 326
1722 266 212 329 326
1723 266 162 212 123
1724 266 212 123 157
1725 266 288 123 157
1726 266 166 269 222
1727 266 123 166 222
1728 266 288 166 269
1729 266 288 123 166
1730 127 212 123 157
1731 127 82 123 157
1732 127 162 212 123
1733 127 162 35 123
1734 127 137 35 139
1735 127 137 162 139
1736 127 137 162 35
1737 214 290 369 277
1738 270 223 280 222
1739 270 282 223 280
1740 270 364 282 280
1741 270 364 424 329
1742 270 364 424 443
1743 287 137 105 244
1744 287 137 282 105
1745 287 137 139 244
1746 287 440 296 244
1747 287 443 440 296
1748 287 481 443 440
1749 287 481 282 443
1750 371 414 369 376
1751 371 369 376 280
1752 371 414 431 467
1753 371 414 431 376
1754 371 282 431 376
1755 371 364 282 431
1756 371 282 376 280
1757 371 364 282 280
1758 350 334 253 398
1759 350 334 335 253
1760 350 383 253 398
1761 350 334 413 398
1762 350 383 195 253
1763 350 409 413 398
1764 350 409 334 335
1765 350 409 334 413
1766 350 195 253 194
1767 350 335 253 194
1768 350 409 508 335
1769 350 508 543 398
1770 350 409 543 398
1771 350 409 508 543
1772 359 291 213 269
1773 359 288 213 351
1774 359 288 213 269
1775 359 370 213 351
1776 359 288 434 351
1777 359 370 434 351
1778 359 291 213 395
1779 359 370 213 395
1780 359 370 395 434
1781 204 288 156 157
1782 204 266 288 157
1783 204 266 288 263
1784 204 288 262 263
1785 204 266 212 157
1786 204 266 212 263
1787 204 288 156 194
1788 204 288 262 194
1789 345 404 329 326
1790 345 266 288 329
1791 345 266 288 263
1792 345 212 329 326
1793 345 266 212 329
1794 345 266 212 263
1795 461 413 543 398
1796 461 413 434 543
1797 461 413 434 393
1798 461 538 434 393
1799 461 538 458 393
1800 463 390 397 491
1801 463 453 390 491
1802 463 453 390 397
1803 463 397 491 366
1804 463 513 491 366
1805 463 513 626 491
1806 463 451 513 366
1807 463 451 397 366
1808 463 626 491 608
1809 463 453 491 608
1810 463 373 451 397
1811 344 409 508 473
1812 344 409 508 335
1813 344 409 335 323
1814 344 409 288 351
1815 344 409 323 351
1816 344 288 323 351
1817 792 836 779 771
1818 792 836 831 771
1819 792 836 831 779
1820 792 822 831 771
1821 792 600 822 771
1822 792 899 831 779
1823 209 171 211 159
1824 209 171 196 249
1825 209 328 299 211
1826 209 328 299 249
1827 298 378 280 222
1828 298 265 378 280
1829 298 176 280 222
1830 298 265 176 280
1831 298 378 269 222
1832 298 176 191 222
1833 298 265 176 191
1834 298 191 269 222
1835 298 205 265 191
1836 298 291 191 269
1837 298 205 291 191
1838 298 205 265 249
1839 164 81 23 178
1840 164 81 119 23
1841 164 181 260 178
1842 164 81 80 178
1843 164 81 66 119
1844 164 81 66 80
1845 135 107 173 3
1846 135 107 119 3
1847 148 107 47 3
1848 148 107 173 3
1849 338 261 260 406
1850 338 373 260 406
1851 338 373 260 178
1852 338 373 406 500
1853 338 164 260 178
1854 338 433 500 331
1855 338 373 433 331
1856 338 373 433 500
1857 338 239 23 178
1858 338 164 23 178
1859 410 461 458 393
1860 410 373 309 397
1861 147 181 257 178
1862 147 129 80 178
1863 147 181 195 257
1864 147 164 80 178
1865 147 164 181 178
1866 147 164 181 80
1867 147 195 273 115
1868 8 148 107 47
1869 279 383 195 258
1870 279 181 195 258
1871 279 181 195 257
1872 279 383 390 258
1873 279 181 309 258
1874 279 181 309 257
1875 279 390 397 258
1876 279 383 195 253
1877 279 309 397 258
1878 279 273 257 320
1879 279 410 309 257
1880 279 410 309 397
1881 279 383 253 398
1882 279 195 273 253
1883 279 147 273 257
1884 279 147 195 257
1885 279 147 195 273
1886 782 738 655 751
1887 782 655 822 771
1888 782 822 836 771
1889 782 655 822 626
1890 782 738 822 626
1891 782 738 655 626
1892 782 869 822 836
1893 782 869 822 875
1894 782 738 751 806
1895 782 738 875 806
1896 782 822 875 777
1897 782 738 875 777
1898 782 738 822 777
1899 408 458 395 393
1900 408 325 395 393
1901 408 325 458 393
1902 408 300 325 458
1903 408 300 420 458
1904 408 300 420 325
1905 408 562 495 487
1906 675 828 793 830
1907 675 828 793 812
1908 675 821 828 812
1909 675 821 648 812
1910 675 594 539 582
1911 675 553 594 539
1912 675 553 615 594
1913 672 693 691 786
1914 672 693 656 691
1915 672 656 691 640
1916 672 622 691 640
1917 672 622 656 640
1918 672 680 786 582
1919 672 680 622 582
1920 672 789 785 786
1921 672 680 785 786
1922 672 622 656 663
1923 634 622 510 582
1924 634 622 510 691
1925 634 510 583 691
1926 634 672 622 582
1927 634 672 622 691
1928 634 629 510 583
1929 634 672 786 582
1930 634 672 691 786
1931 634 539 510 582
1932 634 629 539 510
1933 634 675 539 582
1934 634 675 629 828
1935 634 825 691 786
1936 634 828 825 786
1937 634 629 828 825
1938 634 629 553 539
1939 634 675 553 539
1940 634 675 629 553
1941 634 821 828 786
1942 634 675 821 828
1943 475 570 529 582
1944 475 464 570 529
1945 649 635 691 705
1946 649 634 825 691
1947 649 634 629 825
1948 649 635 583 691
1949 649 634 583 691
1950 649 629 635 583
1951 649 634 629 583
1952 360 260 257 178
1953 360 373 260 178
1954 360 309 260 257
1955 360 373 309 260
1956 360 410 309 257
1957 360 410 373 309
1958 360 300 458 320
1959 360 279 257 320
1960 360 279 410 257
1961 360 433 458 402
1962 360 300 458 402
1963 849 789 785 876
1964 849 789 785 786
1965 849 936 785 876
1966 849 936 785 786
1967 849 973 914 936
1968 849 914 936 876
1969 849 973 936 921
1970 849 825 936 786
1971 849 891 936 921
1972 849 891 825 936
1973 849 815 891 921
1974 849 815 891 825
1975 849 693 815 825
1976 849 672 693 786
1977 849 672 789 786
1978 849 825 691 786
1979 849 693 691 786
1980 849 693 825 691
1981 849 672 693 656
1982 849 672 789 656
1983 810 802 742 807
1984 810 742 794 765
1985 810 742 807 765
1986 810 802 807 839
1987 810 742 794 851
1988 810 802 742 851
1989 810 813 807 765
1990 810 885 794 851
1991 810 802 916 851
1992 810 802 916 839
1993 810 885 813 969
1994 810 813 807 969
1995 810 916 938 851
1996 810 916 938 839
1997 810 885 938 851
1998 810 974 938 839
1999 810 974 984 839
2000 810 807 984 839
2001 810 969 974 984
2002 810 807 969 984
2003 810 969 974 938
2004 810 885 969 938
2005 616 591 658 703
2006 616 658 703 719
2007 616 707 703 719
2008 616 658 719 595
2009 616 680 707 719
2010 616 680 707 588
2011 616 591 448 658
2012 616 448 658 462
2013 616 444 448 462
2014 616 658 462 595
2015 616 444 462 595
2016 616 444 529 595
2017 568 622 588 663
2018 568 622 588 570
2019 568 622 656 663
2020 144 225 246 272
2021 144 168 14 10
2022 144 100 76 163
2023 144 100 163 116
2024 144 76 14 10
2025 79 118 10 33
2026 79 118 27 33
2027 79 144 118 10
2028 79 100 27 116
2029 79 118 27 116
2030 79 144 76 10
2031 79 144 100 76
2032 79 144 100 116
2033 79 144 118 116
2034 187 9 186 189
2035 187 168 9 189
2036 187 219 186 189
2037 187 168 219 189
2038 187 9 186 10
2039 187 168 9 10
2040 187 144 168 10
2041 187 168 353 272
2042 187 168 219 353
2043 187 219 186 327
2044 187 168 225 272
2045 187 144 225 272
2046 187 144 168 225
2047 57 168 14 10
2048 57 168 9 10
2049 57 168 88 9
2050 57 64 168 88
2051 324 343 367 327
2052 324 348 367 327
2053 324 348 233 332
2054 324 348 422 332
2055 324 348 422 367
2056 243 233 403 264
2057 243 233 332 403
2058 243 175 202 264
2059 243 233 202 264
2060 243 233 175 202
2061 242 302 233 202
2062 242 302 233 285
2063 242 233 133 202
2064 242 285 224 379
2065 242 133 202 141
2066 242 302 202 141
2067 242 302 133 141
2068 242 235 302 133
2069 242 302 305 224
2070 242 235 305 224
2071 242 235 302 305
2072 374 302 403 264
2073 374 430 450 403
2074 374 302 450 403
2075 374 430 450 388
2076 374 302 450 388
2077 374 412 372 388
2078 374 412 430 388
2079 377 302 450 388
2080 377 499 450 480
2081 377 499 450 388
2082 377 302 305 388
2083 377 450 480 379
2084 377 499 480 507
2085 377 499 388 507
2086 377 305 388 507
2087 377 285 450 379
2088 377 302 285 450
2089 377 441 480 507
2090 377 441 480 379
2091 377 302 305 224
2092 377 242 285 379
2093 377 242 302 285
2094 377 417 441 507
2095 377 417 305 507
2096 377 441 405 379
2097 377 235 305 224
2098 377 242 224 379
2099 377 242 302 224
2100 377 417 441 405
2101 292 348 184 246
2102 292 348 285 184
2103 292 358 348 246
2104 292 348 285 381
2105 292 358 348 381
2106 292 340 358 381
2107 292 285 381 379
2108 292 340 381 357
2109 292 381 357 379
2110 292 285 224 379
2111 292 224 357 379
2112 292 203 224 357
2113 69 6 175 43
2114 69 175 65 43
2115 69 184 97 65
2116 69 175 184 65
2117 69 175 184 97
2118 415 444 368 375
2119 415 448 462 375
2120 415 444 448 462
2121 415 447 462 375
2122 415 444 447 375
2123 415 444 447 462
2124 533 553 495 528
2125 533 553 615 495
2126 533 615 562 678
2127 533 615 562 495
2128 533 578 562 678
2129 533 408 578 495
2130 533 538 458 528
2131 637 767 746 747
2132 637 552 583 500
2133 637 667 583 500
2134 637 635 667 583
2135 637 667 500 705
2136 637 635 667 705
2137 281 214 369 277
2138 281 214 369 201
2139 281 214 201 196
2140 281 209 196 249
2141 281 209 328 249
2142 555 604 611 518
2143 555 604 651 611
2144 555 611 706 518
2145 555 651 611 706
2146 555 511 524 518
2147 555 604 524 518
2148 555 604 534 524
2149 555 511 534 524
2150 555 651 534 565
2151 555 604 651 534
2152 555 511 534 565
2153 555 665 706 518
2154 555 665 628 518
2155 555 665 628 706
2156 555 628 501 518
2157 555 511 501 518
2158 555 759 651 706
2159 555 681 651 565
2160 555 581 681 565
2161 555 581 565 472
2162 555 581 511 472
2163 555 581 628 501
2164 555 581 511 501
2165 555 716 628 706
2166 555 581 716 628
2167 555 759 716 706
2168 555 681 759 651
2169 555 457 565 472
2170 555 511 457 472
2171 555 511 457 565
2172 555 681 759 716
2173 555 581 681 716
2174 857 759 723 827
2175 857 759 856 723
2176 857 759 772 827
2177 857 759 856 772
2178 857 894 772 827
2179 857 894 895 772
2180 857 894 827 881
2181 857 894 934 895
2182 857 894 934 881
2183 857 934 955 881
2184 857 934 990 955
2185 857 934 856 990
2186 730 759 856 723
2187 730 759 723 669
2188 730 759 651 669
2189 730 651 669 630
2190 730 800 651 774
2191 730 800 759 774
2192 730 800 759 651
2193 730 683 651 630
2194 730 683 651 774
2195 754 704 661 753
2196 754 690 704 661
2197 754 632 661 753
2198 754 690 632 753
2199 754 690 632 661
2200 754 803 753 808
2201 754 803 704 753
2202 754 753 808 727
2203 754 690 808 727
2204 754 690 753 727
2205 754 704 778 808
2206 754 690 778 808
2207 754 690 704 778
2208 252 271 311 170
2209 252 230 271 170
2210 145 140 68 67
2211 145 140 68 143
2212 145 171 36 13
2213 145 171 196 13
2214 145 214 201 196
2215 145 30 13 50
2216 145 128 30 50
2217 145 196 13 190
2218 145 201 13 190
2219 145 201 196 190
2220 145 128 201 13
2221 145 214 128 201
2222 145 128 13 50
2223 132 140 149 224
2224 132 140 235 224
2225 132 242 235 224
2226 132 242 235 133
2227 132 140 235 131
2228 132 149 53 27
2229 132 53 133 102
2230 132 140 53 102
2231 132 149 53 67
2232 132 140 53 67
2233 132 140 149 67
2234 132 131 133 141
2235 132 235 133 141
2236 132 235 131 141
2237 132 131 133 102
2238 132 140 131 102
2239 132 53 27 43
2240 132 133 27 43
2241 132 53 133 43
2242 61 140 169 67
2243 61 149 95 67
2244 61 149 169 67
2245 61 149 169 95
2246 61 171 169 95
2247 61 140 171 169
2248 61 145 140 67
2249 61 145 140 171
2250 61 145 68 67
2251 61 145 171 36
2252 61 171 39 95
2253 61 171 36 39
2254 61 145 36 13
2255 295 281 214 277
2256 696 684 606 727
2257 696 685 606 727
2258 696 599 684 606
2259 660 624 561 606
2260 660 685 624 606
2261 660 696 599 606
2262 660 696 685 606
2263 741 674 624 757
2264 741 791 798 757
2265 741 624 757 606
2266 741 685 624 606
2267 741 757 606 727
2268 741 800 757 727
2269 853 791 798 757
2270 613 536 521 624
2271 613 624 653 627
2272 613 536 624 653
2273 255 206 219 375
2274 255 219 368 375
2275 255 206 219 208
2276 255 415 368 375
2277 255 226 208 254
2278 255 415 448 375
2279 255 284 368 254
2280 255 284 219 254
2281 255 284 219 368
2282 255 189 208 254
2283 255 219 189 254
2284 255 219 189 208
2285 255 415 448 341
2286 255 415 226 341
2287 289 219 186 327
2288 289 343 362 327
2289 289 155 197 186
2290 289 419 362 327
2291 289 219 197 375
2292 289 219 197 186
2293 180 22 10 40
2294 180 155 10 40
2295 180 155 40 138
2296 180 22 40 138
2297 180 118 22 10
2298 180 155 186 10
2299 180 22 184 138
2300 180 118 22 184
2301 180 187 186 10
2302 180 144 118 10
2303 180 187 144 10
2304 180 289 155 138
2305 180 184 246 327
2306 180 118 184 246
2307 180 144 118 246
2308 180 289 186 327
2309 180 289 155 186
2310 180 187 246 327
2311 180 187 186 327
2312 180 144 246 272
2313 180 187 246 272
2314 180 187 144 272
2315 435 286 306 353
2316 435 464 306 353
2317 435 464 286 306
2318 275 239 193 215
2319 275 338 239 331
2320 275 338 373 331
2321 275 239 193 178
2322 275 373 433 331
2323 275 338 239 178
2324 275 338 373 178
2325 275 360 373 178
2326 275 360 373 433
2327 356 278 301 319
2328 356 278 303 319
2329 356 435 303 319
2330 356 435 386 303
2331 217 106 239 113
2332 217 161 174 28
2333 217 193 215 113
2334 217 239 193 113
2335 217 239 193 215
2336 352 217 346 301
2337 352 301 239 331
2338 352 217 301 239
2339 502 433 583 500
2340 502 428 433 500
2341 502 433 510 583
2342 502 428 433 510
2343 502 667 583 640
2344 502 667 583 500
2345 101 106 239 113
2346 101 239 113 178
2347 59 161 113 28
2348 59 161 215 113
2349 59 217 215 113
2350 59 217 106 113
2351 59 217 161 28
2352 59 217 161 215
2353 126 21 5 14
2354 126 21 5 172
2355 126 21 161 172
2356 126 21 161 111
2357 126 57 64 168
2358 126 168 189 236
2359 126 259 189 134
2360 126 259 161 134
2361 126 161 49 111
2362 126 161 114 49
2363 126 64 49 111
2364 126 64 114 49
2365 126 161 114 134
2366 126 64 114 134
2367 126 64 189 134
2368 126 64 168 189
2369 294 435 464 286
2370 294 259 276 286
2371 294 259 346 276
2372 294 276 286 306
2373 294 346 476 510
2374 662 817 648 752
2375 662 665 648 752
2376 662 817 794 752
2377 662 817 742 794
2378 662 817 821 648
2379 662 817 821 742
2380 662 742 665 794
2381 662 665 648 603
2382 662 716 794 752
2383 662 665 716 752
2384 662 665 716 794
2385 662 648 603 576
2386 662 675 821 648
2387 662 680 786 582
2388 662 802 821 785
2389 662 802 821 742
2390 662 680 802 785
2391 662 680 802 742
2392 662 821 785 786
2393 662 680 785 786
2394 662 634 675 582
2395 662 634 675 821
2396 662 576 529 582
2397 662 634 786 582
2398 662 634 821 786
2399 978 824 855 962
2400 978 824 968 962
2401 978 824 968 798
2402 978 897 990 996
2403 978 897 968 996
2404 978 897 968 798
2405 978 853 897 757
2406 978 853 897 798
2407 860 842 887 883
2408 860 842 753 808
2409 860 842 854 808
2410 860 842 854 887
2411 860 753 808 727
2412 860 854 808 832
2413 860 888 808 832
2414 860 888 854 832
2415 860 888 854 953
2416 860 834 753 883
2417 860 842 834 883
2418 860 842 834 753
2419 860 753 772 883
2420 860 753 772 727
2421 985 934 883 919
2422 985 887 883 919
2423 985 965 887 919
2424 985 860 888 883
2425 985 860 887 883
2426 985 965 854 887
2427 985 860 854 887
2428 985 965 854 953
2429 985 860 854 953
2430 884 865 773 850
2431 884 865 850 896
2432 884 865 943 896
2433 884 787 850 896
2434 884 773 787 850
2435 884 865 943 928
2436 884 852 787 896
2437 884 967 943 922
2438 884 943 922 896
2439 884 967 922 896
2440 336 432 469 357
2441 336 340 469 357
2442 336 340 432 469
2443 336 322 432 357
2444 336 322 313 432
2445 336 340 313 432
2446 336 322 177 313
2447 382 303 313 241
2448 382 303 353 272
2449 382 421 416 483
2450 382 416 313 455
2451 382 438 313 455
2452 382 435 303 353
2453 382 416 483 455
2454 382 435 483 353
2455 293 292 358 246
2456 293 340 358 416
2457 425 449 423 419
2458 425 494 449 423
2459 425 494 421 423
2460 425 382 483 353
2461 425 382 421 483
2462 425 494 421 483
2463 425 289 419 327
2464 425 444 353 375
2465 425 447 419 375
2466 425 449 447 419
2467 425 435 483 353
2468 425 444 353 529
2469 425 483 529 548
2470 425 449 529 548
2471 425 494 483 548
2472 425 494 449 548
2473 425 219 353 327
2474 425 289 219 327
2475 425 219 353 375
2476 425 289 219 375
2477 425 289 362 375
2478 425 419 362 375
2479 425 289 419 362
2480 425 444 447 375
2481 425 449 447 529
2482 425 444 447 529
2483 602 587 527 517
2484 602 587 594 517
2485 602 494 527 517
2486 602 594 517 483
2487 602 494 517 483
2488 602 494 527 483
2489 602 527 648 576
2490 602 581 527 648
2491 602 581 587 648
2492 602 581 587 527
2493 602 527 483 576
2494 602 662 648 576
2495 602 594 539 483
2496 602 662 576 582
2497 602 662 675 648
2498 602 594 539 582
2499 602 675 594 582
2500 602 662 675 582
2501 872 796 794 851
2502 872 885 794 851
2503 872 796 797 794
2504 872 796 881 851
2505 872 796 816 881
2506 872 796 797 816
2507 872 955 881 851
2508 872 885 955 851
2509 801 865 854 840
2510 801 803 865 854
2511 801 854 832 840
2512 801 865 756 840
2513 801 803 865 756
2514 801 778 832 840
2515 801 854 808 832
2516 801 803 854 808
2517 801 803 704 756
2518 801 778 808 832
2519 801 697 756 840
2520 801 697 704 756
2521 801 697 778 840
2522 801 697 704 778
2523 801 704 778 808
2524 801 754 704 808
2525 801 754 803 808
2526 801 754 803 704
2527 664 573 544 645
2528 664 573 567 544
2529 664 573 729 645
2530 664 729 645 731
2531 664 514 573 567
2532 664 515 514 567
2533 610 697 573 729
2534 610 697 756 668
2535 610 697 729 756
2536 610 697 646 668
2537 610 697 573 646
2538 610 614 756 668
2539 610 614 509 668
2540 610 664 573 729
2541 610 729 756 710
2542 610 614 756 710
2543 917 935 899 958
2544 829 800 774 757
2545 829 800 759 774
2546 829 730 759 774
2547 829 730 759 856
2548 829 978 897 757
2549 829 978 897 990
2550 886 991 940 879
2551 886 940 879 844
2552 886 991 940 970
2553 886 991 890 970
2554 886 822 879 844
2555 886 940 946 844
2556 886 940 946 970
2557 886 890 946 970
2558 886 737 822 844
2559 886 863 946 844
2560 886 863 890 844
2561 886 863 890 946
2562 886 852 737 822
2563 864 886 852 890
2564 864 886 991 890
2565 864 886 991 852
2566 864 792 852 831
2567 845 767 891 861
2568 845 767 891 784
2569 845 815 891 861
2570 845 815 891 784
2571 571 610 573 486
2572 571 610 664 573
2573 571 514 573 486
2574 571 590 623 659
2575 571 590 623 578
2576 621 460 531 530
2577 621 605 652 530
2578 621 605 531 530
2579 900 846 927 958
2580 900 846 899 958
2581 900 846 899 779
2582 900 792 899 779
2583 900 792 846 779
2584 758 760 673 775
2585 758 760 847 775
2586 758 843 847 775
2587 758 769 843 847
2588 758 760 820 847
2589 592 620 612 700
2590 592 612 532 564
2591 592 459 532 564
2592 516 290 369 376
2593 516 414 369 376
2594 516 369 467 537
2595 516 414 369 467
2596 516 535 414 467
2597 516 544 467 537
2598 516 535 544 467
2599 516 597 544 537
2600 516 535 597 544
2601 385 411 417 532
2602 385 281 411 369
2603 385 369 459 277
2604 385 281 369 277
2605 385 411 417 399
2606 385 295 459 277
2607 385 295 281 277
2608 385 295 459 330
2609 385 417 459 330
2610 456 544 467 537
2611 456 369 467 537
2612 456 544 589 537
2613 456 514 544 589
2614 456 514 411 589
2615 456 514 466 486
2616 549 573 598 646
2617 549 573 598 589
2618 549 514 573 589
2619 549 514 411 589
2620 549 514 411 436
2621 549 598 532 589
2622 549 411 532 589
2623 549 514 436 486
2624 549 514 573 486
2625 549 411 441 532
2626 549 610 573 646
2627 549 610 573 486
2628 549 618 532 646
2629 549 618 598 646
2630 549 618 598 532
2631 549 632 532 646
2632 549 632 441 532
2633 549 411 441 399
2634 549 411 436 399
2635 549 436 486 509
2636 549 610 509 668
2637 549 610 646 668
2638 549 614 486 509
2639 549 610 614 509
2640 549 610 614 486
2641 549 632 469 509
2642 549 632 441 469
2643 549 441 469 399
2644 549 436 469 399
2645 549 436 469 509
2646 549 631 509 668
2647 549 632 631 668
2648 549 632 631 509
2649 549 661 646 668
2650 549 632 661 668
2651 549 632 661 646
2652 505 515 520 659
2653 505 514 466 486
2654 505 571 514 486
2655 505 571 514 573
2656 505 664 514 573
2657 505 664 515 514
2658 505 571 664 573
2659 654 625 670 523
2660 654 515 670 523
2661 654 625 567 523
2662 654 515 567 523
2663 654 515 726 670
2664 654 664 515 567
2665 654 769 625 670
2666 654 625 567 544
2667 654 664 567 544
2668 654 515 726 659
2669 654 664 726 659
2670 654 625 544 645
2671 654 664 544 645
2672 654 505 515 659
2673 654 505 664 515
2674 654 760 625 645
2675 654 571 664 659
2676 654 505 571 659
2677 654 505 571 664
2678 654 760 625 673
2679 654 758 625 673
2680 722 605 673 531
2681 722 799 769 670
2682 722 770 819 833
2683 722 799 819 833
2684 722 670 540 531
2685 722 621 670 531
2686 722 621 605 531
2687 722 621 711 652
2688 722 621 605 652
2689 722 625 540 531
2690 722 625 673 531
2691 722 625 670 540
2692 619 605 673 525
2693 619 535 605 525
2694 619 666 597 673
2695 619 625 673 525
2696 619 535 625 525
2697 619 597 625 673
2698 619 535 597 625
2699 210 122 192 240
2700 210 154 122 192
2701 210 154 122 163
2702 210 313 310 240
2703 210 154 322 192
2704 210 241 122 240
2705 210 241 122 163
2706 210 322 310 192
2707 210 322 313 310
2708 210 313 241 240
2709 210 313 241 163
2710 210 177 313 163
2711 210 154 177 163
2712 210 322 177 313
2713 210 154 322 177
2714 98 125 110 112
2715 98 29 125 110
2716 98 55 125 112
2717 98 29 55 125
2718 51 58 151 120
2719 51 74 151 120
2720 51 58 120 20
2721 51 58 151 38
2722 51 7 120 20
2723 51 151 38 115
2724 51 74 151 115
2725 51 7 63 120
2726 51 54 38 115
2727 51 74 54 115
2728 51 92 63 120
2729 51 55 92 120
2730 51 74 55 120
2731 37 123 104 89
2732 37 127 123 89
2733 37 82 123 104
2734 37 127 82 123
2735 91 127 35 123
2736 91 35 123 104
2737 160 127 162 139
2738 160 127 162 218
2739 238 290 128 237
2740 238 214 290 128
2741 238 214 128 201
2742 238 214 369 201
2743 238 214 290 369
2744 238 128 237 146
2745 238 223 237 146
2746 238 128 201 190
2747 238 223 190 146
2748 238 128 190 146
2749 238 223 280 251
2750 238 223 237 251
2751 238 290 237 251
2752 238 265 201 190
2753 238 369 280 251
2754 238 290 369 251
2755 238 176 223 190
2756 238 265 176 190
2757 238 176 223 280
2758 238 265 176 280
2759 250 287 296 244
2760 250 287 443 296
2761 250 287 137 282
2762 250 443 329 296
2763 250 287 282 443
2764 250 137 282 223
2765 250 270 282 223
2766 250 270 137 223
2767 250 424 443 329
2768 250 270 424 329
2769 250 270 424 443
2770 250 282 443 431
2771 250 364 443 431
2772 250 270 364 443
2773 250 364 282 431
2774 250 270 364 282
2775 407 414 369 467
2776 407 371 414 467
2777 407 371 414 369
2778 407 456 369 467
2779 407 371 431 467
2780 677 644 779 771
2781 677 792 779 771
2782 677 600 644 543
2783 677 600 644 771
2784 677 792 600 771
2785 677 600 737 822
2786 677 792 600 822
2787 563 520 460 531
2788 563 520 404 460
2789 563 520 540 531
2790 563 520 404 473
2791 563 492 520 473
2792 426 466 395 434
2793 426 359 395 434
2794 318 266 288 329
2795 318 266 288 269
2796 318 359 288 269
2797 318 270 364 329
2798 318 270 378 222
2799 318 364 424 329
2800 318 364 424 378
2801 318 378 269 222
2802 318 266 269 222
2803 554 600 538 543
2804 554 461 538 543
2805 554 579 600 538
2806 554 600 644 543
2807 554 644 608 398
2808 554 644 543 398
2809 584 463 513 626
2810 584 463 451 513
2811 584 637 767 746
2812 584 463 373 451
2813 584 738 513 745
2814 584 738 513 626
2815 584 738 746 745
2816 584 767 746 745
2817 384 344 409 473
2818 384 344 409 288
2819 384 409 434 473
2820 384 409 288 434
2821 384 345 404 329
2822 384 345 288 329
2823 384 318 404 329
2824 384 318 288 329
2825 314 262 335 323
2826 314 344 335 323
2827 314 288 262 323
2828 314 344 288 323
2829 650 600 737 626
2830 650 737 626 747
2831 650 637 746 747
2832 650 584 637 746
2833 650 584 601 637
2834 542 563 609 508
2835 542 563 492 508
2836 542 563 492 520
2837 542 505 520 659
2838 542 505 571 659
2839 542 492 508 473
2840 542 492 520 473
2841 542 426 466 434
2842 542 409 434 473
2843 542 409 508 473
2844 542 409 508 434
2845 542 384 434 473
2846 542 384 404 473
2847 542 520 404 473
2848 547 395 434 393
2849 547 538 434 393
2850 547 466 395 434
2851 547 461 434 543
2852 547 461 538 543
2853 547 461 538 434
2854 547 571 590 578
2855 547 542 508 434
2856 547 409 434 543
2857 547 409 508 543
2858 547 409 508 434
2859 547 609 508 543
2860 547 542 609 508
2861 547 677 609 543
2862 547 542 677 609
2863 547 571 590 659
2864 547 542 571 659
2865 221 209 171 249
2866 221 183 196 249
2867 221 171 196 249
2868 221 171 183 196
2869 221 205 183 249
2870 221 171 183 159
2871 221 209 171 159
2872 221 209 299 249
2873 221 298 299 249
2874 221 298 205 249
2875 221 298 291 299
2876 221 298 205 291
2877 221 191 183 159
2878 221 291 191 159
2879 221 205 191 183
2880 221 205 291 191
2881 221 291 188 159
2882 221 188 192 159
2883 221 211 192 159
2884 221 209 211 159
2885 221 209 299 211
2886 221 310 211 192
2887 221 299 310 211
2888 165 148 173 258
2889 165 135 261 173
2890 165 261 173 258
2891 165 148 181 258
2892 165 135 107 173
2893 165 148 107 173
2894 165 135 107 119
2895 165 164 261 260
2896 165 164 181 260
2897 165 8 148 107
2898 165 107 66 119
2899 165 164 66 119
2900 165 309 261 258
2901 165 309 261 260
2902 165 181 309 258
2903 165 181 309 260
2904 165 8 107 66
2905 165 8 66 80
2906 165 164 66 80
2907 165 164 181 80
2908 165 8 181 80
2909 167 181 195 258
2910 167 148 181 258
2911 167 148 181 195
2912 167 383 195 258
2913 167 350 383 195
2914 136 164 119 23
2915 136 338 164 23
2916 136 164 261 260
2917 136 338 261 260
2918 136 338 164 260
2919 136 165 164 119
2920 136 165 135 119
2921 136 165 164 261
2922 136 165 135 261
2923 71 147 181 80
2924 71 8 181 80
2925 71 147 181 195
2926 71 129 115 80
2927 71 147 129 80
2928 71 147 129 115
2929 71 54 115 80
2930 429 279 390 397
2931 429 279 383 390
2932 429 279 410 397
2933 429 453 390 397
2934 429 410 453 397
2935 429 383 453 390
2936 429 279 383 398
2937 429 383 453 398
2938 429 461 413 398
2939 429 410 461 413
2940 429 453 608 398
2941 429 461 543 398
2942 429 554 543 398
2943 391 313 432 310
2944 391 313 432 455
2945 391 432 455 487
2946 391 420 455 487
2947 391 438 313 455
2948 391 438 420 455
2949 391 438 420 313
2950 566 408 562 495
2951 566 408 578 495
2952 566 533 562 495
2953 566 533 578 495
2954 566 533 578 562
2955 566 614 562 486
2956 566 610 614 486
2957 566 571 610 486
2958 566 571 610 614
2959 566 614 562 678
2960 566 578 562 678
2961 566 571 614 710
2962 566 614 710 678
2963 566 571 578 678
2964 783 768 793 830
2965 783 890 844 830
2966 783 890 768 830
2967 783 863 844 830
2968 783 863 828 830
2969 783 886 890 844
2970 709 675 615 793
2971 709 615 793 762
2972 709 675 793 830
2973 709 783 793 830
2974 709 783 675 830
2975 694 789 721 663
2976 694 707 721 663
2977 694 789 656 663
2978 694 672 656 663
2979 694 672 789 656
2980 694 707 789 721
2981 694 672 622 663
2982 694 672 789 785
2983 694 622 588 663
2984 694 707 588 663
2985 694 672 680 622
2986 694 802 789 785
2987 694 707 802 785
2988 694 707 802 789
2989 694 680 707 785
2990 694 672 680 785
2991 694 680 622 588
2992 694 680 707 588
2993 496 475 570 582
2994 496 356 386 510
2995 496 294 476 510
2996 496 294 356 510
2997 496 294 435 464
2998 471 475 529 582
2999 471 496 475 582
3000 471 425 483 529
3001 471 425 435 483
3002 471 475 464 529
3003 471 435 475 464
3004 471 425 353 529
3005 471 425 435 353
3006 471 464 353 529
3007 471 435 464 353
3008 185 360 257 320
3009 185 360 300 320
3010 185 273 257 320
3011 185 147 273 257
3012 185 300 229 320
3013 185 147 257 178
3014 185 360 257 178
3015 185 229 273 320
3016 185 147 129 178
3017 185 275 360 300
3018 185 229 273 115
3019 185 147 273 115
3020 185 300 229 115
3021 185 147 129 115
3022 185 275 360 178
3023 185 275 300 193
3024 185 193 129 178
3025 185 275 193 178
3026 185 121 129 115
3027 185 121 193 129
3028 185 300 121 115
3029 185 300 121 193
3030 354 360 458 320
3031 354 360 410 458
3032 354 458 393 320
3033 354 410 458 393
3034 354 360 279 320
3035 354 360 279 410
3036 354 273 393 320
3037 354 461 413 393
3038 354 410 461 393
3039 354 410 461 413
3040 354 279 273 320
3041 354 429 410 413
3042 354 429 279 410
3043 354 370 273 393
3044 354 370 413 393
3045 354 279 273 253
3046 354 429 413 398
3047 354 429 279 398
3048 354 370 273 253
3049 354 370 413 253
3050 354 334 413 253
3051 354 334 413 398
3052 354 334 253 398
3053 354 279 253 398
3054 804 810 885 794
3055 804 872 797 794
3056 804 872 885 794
3057 804 810 794 765
3058 804 810 885 813
3059 804 718 794 765
3060 804 797 718 794
3061 804 810 813 765
3062 804 766 718 765
3063 804 766 813 765
3064 577 707 703 663
3065 577 616 707 703
3066 577 616 591 703
3067 577 707 588 663
3068 577 616 707 588
3069 577 568 588 663
3070 504 568 588 570
3071 504 588 570 529
3072 504 464 570 529
3073 504 475 464 570
3074 504 496 475 570
3075 504 496 475 464
3076 220 144 118 246
3077 220 118 184 246
3078 220 118 203 184
3079 220 144 118 116
3080 220 292 184 246
3081 220 292 203 184
3082 220 293 292 246
3083 220 144 225 246
3084 220 149 203 116
3085 220 118 149 116
3086 220 118 149 203
3087 220 144 163 116
3088 220 144 225 163
3089 220 177 203 116
3090 182 144 168 14
3091 182 144 168 225
3092 182 144 76 14
3093 182 126 168 236
3094 182 76 14 124
3095 182 144 225 163
3096 182 144 76 163
3097 182 168 236 272
3098 182 168 225 272
3099 182 76 163 124
3100 182 216 163 124
3101 182 216 172 124
3102 182 303 236 272
3103 182 303 225 272
3104 182 225 241 163
3105 182 216 241 163
3106 182 5 172 124
3107 182 5 14 124
3108 182 126 5 172
3109 182 126 5 14
3110 182 278 303 236
3111 182 278 216 303
3112 182 303 225 241
3113 182 216 303 241
3114 182 278 216 172
3115 182 126 161 172
3116 234 324 343 327
3117 234 180 184 138
3118 234 180 184 327
3119 234 289 343 327
3120 234 348 184 327
3121 234 348 233 184
3122 234 324 348 327
3123 234 324 348 233
3124 234 233 175 184
3125 234 175 184 138
3126 234 180 289 138
3127 234 180 289 327
3128 234 324 233 332
3129 234 243 233 332
3130 234 243 233 175
3131 297 374 302 264
3132 297 271 141 264
3133 297 302 271 141
3134 297 202 141 264
3135 297 302 202 264
3136 297 302 202 141
3137 297 302 271 388
3138 339 377 235 224
3139 339 377 405 379
3140 339 377 224 379
3141 339 377 417 405
3142 339 328 405 379
3143 339 328 224 379
3144 339 417 235 305
3145 339 377 235 305
3146 339 377 417 305
3147 339 328 405 399
3148 339 417 405 399
3149 339 385 417 399
3150 339 417 235 330
3151 339 385 417 330
3152 339 411 328 399
3153 339 385 411 399
3154 339 281 411 328
3155 339 385 281 411
3156 339 385 295 330
3157 307 292 203 357
3158 307 292 340 357
3159 307 292 340 203
3160 307 336 340 357
3161 307 203 224 357
3162 307 336 322 357
3163 307 336 322 177
3164 307 336 177 313
3165 307 322 328 357
3166 307 322 328 224
3167 307 203 169 224
3168 307 322 169 224
3169 307 177 203 169
3170 307 322 177 169
3171 307 224 357 379
3172 307 328 357 379
3173 307 328 224 379
3174 396 415 448 477
3175 396 415 448 341
3176 394 415 444 368
3177 394 485 476 337
3178 394 464 368 306
3179 394 444 464 368
3180 394 504 496 464
3181 394 496 294 476
3182 394 276 337 306
3183 394 294 276 306
3184 394 496 294 464
3185 394 346 476 337
3186 394 294 346 476
3187 394 346 276 337
3188 394 294 346 276
3189 394 464 286 306
3190 394 294 286 306
3191 394 294 464 286
3192 446 533 408 495
3193 446 408 495 487
3194 446 408 420 458
3195 446 533 408 458
3196 446 438 495 487
3197 446 438 420 487
3198 446 391 420 487
3199 446 391 408 487
3200 446 391 408 420
3201 446 438 420 402
3202 446 533 495 528
3203 446 533 458 528
3204 446 458 528 402
3205 446 420 458 402
3206 315 265 196 249
3207 315 281 196 249
3208 315 281 328 249
3209 315 281 411 369
3210 315 265 201 196
3211 315 281 201 196
3212 315 281 369 201
3213 315 238 369 201
3214 315 238 265 201
3215 315 238 369 280
3216 315 238 265 280
3217 283 271 311 312
3218 283 252 271 311
3219 42 145 68 143
3220 42 145 30 13
3221 42 61 145 13
3222 42 61 145 68
3223 179 132 149 224
3224 179 132 242 224
3225 179 149 203 224
3226 179 132 242 133
3227 179 242 285 224
3228 179 132 133 27
3229 179 132 149 27
3230 179 292 203 224
3231 179 292 285 224
3232 179 292 203 184
3233 179 233 184 133
3234 179 242 233 133
3235 179 133 27 65
3236 179 292 285 184
3237 179 118 203 184
3238 179 118 149 203
3239 179 184 133 65
3240 179 118 184 65
3241 179 233 285 184
3242 179 242 233 285
3243 179 118 27 65
3244 179 118 149 27
3245 267 339 235 330
3246 267 339 295 330
3247 267 305 330 268
3248 267 235 305 268
3249 267 235 305 330
3250 790 684 855 727
3251 790 696 684 727
3252 790 841 684 855
3253 790 824 848 855
3254 790 841 848 855
3255 790 841 734 684
3256 790 696 734 684
3257 790 841 848 734
3258 698 592 612 564
3259 698 696 599 684
3260 698 592 612 700
3261 698 612 734 684
3262 698 696 734 684
3263 698 612 734 700
3264 698 790 696 734
3265 698 790 848 734
3266 698 734 700 871
3267 698 848 734 871
3268 593 599 561 606
3269 593 660 561 606
3270 593 660 599 606
3271 593 599 560 561
3272 740 741 791 757
3273 740 741 674 757
3274 781 800 798 757
3275 781 741 798 757
3276 781 741 800 757
3277 781 741 800 727
3278 781 696 685 727
3279 781 685 606 727
3280 781 741 606 727
3281 781 741 685 606
3282 781 790 696 727
3283 245 126 259 161
3284 245 182 126 236
3285 245 182 126 161
3286 245 126 189 236
3287 245 126 259 189
3288 245 182 161 172
3289 245 182 278 236
3290 245 182 278 172
3291 245 303 319 236
3292 245 278 303 236
3293 245 278 303 319
3294 245 286 189 236
3295 245 259 286 189
3296 245 294 259 286
3297 347 356 278 386
3298 347 216 300 172
3299 347 278 216 172
3300 347 356 386 303
3301 347 216 303 241
3302 347 216 241 240
3303 347 216 300 240
3304 347 278 216 303
3305 347 356 278 303
3306 347 300 420 402
3307 347 313 241 240
3308 347 420 313 240
3309 347 438 420 402
3310 347 420 325 240
3311 347 300 325 240
3312 347 300 420 325
3313 347 303 313 241
3314 347 438 420 313
3315 347 382 303 313
3316 347 382 438 313
3317 347 382 438 303
3318 274 301 239 331
3319 274 275 239 331
3320 274 275 239 215
3321 274 217 239 215
3322 274 217 301 215
3323 274 217 301 239
3324 274 275 193 215
3325 274 347 278 386
3326 274 347 386 402
3327 274 193 172 215
3328 274 278 172 215
3329 274 275 300 193
3330 274 356 301 386
3331 274 356 278 386
3332 274 356 278 301
3333 274 347 300 402
3334 274 300 193 172
3335 274 347 300 172
3336 274 347 278 172
3337 506 510 583 640
3338 506 502 583 640
3339 506 502 510 583
3340 506 428 476 510
3341 506 502 428 510
3342 96 113 23 178
3343 96 101 113 178
3344 96 239 23 178
3345 96 101 239 178
3346 17 57 168 14
3347 17 126 57 168
3348 17 182 168 14
3349 17 182 126 14
3350 17 182 126 168
3351 17 126 64 111
3352 17 126 57 64
3353 317 294 435 286
3354 317 435 286 353
3355 317 245 294 286
3356 317 286 353 236
3357 317 435 303 353
3358 317 435 303 319
3359 317 245 286 236
3360 317 245 319 236
3361 317 245 278 319
3362 317 356 435 319
3363 317 303 353 236
3364 317 303 319 236
3365 317 278 301 319
3366 317 356 301 319
3367 401 294 346 510
3368 401 294 346 301
3369 401 428 346 510
3370 401 294 356 510
3371 401 428 433 510
3372 401 352 428 346
3373 401 352 346 301
3374 401 356 386 510
3375 401 356 301 386
3376 401 317 356 301
3377 401 317 294 301
3378 401 317 294 356
3379 401 552 433 510
3380 401 274 301 386
3381 401 352 301 331
3382 401 352 428 331
3383 401 428 433 331
3384 401 552 433 402
3385 401 274 301 331
3386 401 275 433 331
3387 401 274 275 331
3388 401 274 386 402
3389 401 360 433 402
3390 401 275 360 433
3391 401 274 300 402
3392 401 274 275 300
3393 401 360 300 402
3394 401 275 360 300
3395 657 662 665 603
3396 657 662 742 665
3397 657 665 708 595
3398 657 665 603 595
3399 657 665 765 708
3400 657 742 665 765
3401 657 603 576 529
3402 657 662 576 529
3403 657 662 603 576
3404 657 662 680 742
3405 657 603 529 595
3406 657 616 529 595
3407 657 662 529 582
3408 657 662 680 582
3409 657 718 708 595
3410 657 718 765 595
3411 657 718 765 708
3412 657 765 719 595
3413 657 742 765 719
3414 657 616 719 595
3415 657 616 588 529
3416 657 616 680 588
3417 657 680 742 719
3418 657 616 680 719
3419 657 570 529 582
3420 657 680 570 582
3421 657 588 570 529
3422 657 680 588 570
3423 823 800 772 727
3424 823 860 772 727
3425 823 888 855 727
3426 823 888 808 727
3427 823 860 808 727
3428 823 860 888 808
3429 823 978 888 855
3430 823 790 855 727
3431 823 790 824 855
3432 823 781 800 727
3433 823 978 824 855
3434 823 781 790 824
3435 823 781 790 727
3436 823 781 824 798
3437 823 781 800 798
3438 823 978 824 798
3439 823 829 978 990
3440 823 800 798 757
3441 823 829 800 757
3442 823 829 978 757
3443 823 853 798 757
3444 823 978 853 757
3445 823 978 853 798
3446 944 978 888 855
3447 944 855 981 962
3448 944 978 855 962
3449 944 860 888 953
3450 944 985 860 953
3451 944 985 860 888
3452 944 953 981 832
3453 944 855 981 832
3454 944 888 855 832
3455 944 854 953 832
3456 944 888 854 832
3457 944 888 854 953
3458 983 884 943 928
3459 983 937 928 820
3460 983 884 820 847
3461 983 937 820 847
3462 983 884 972 847
3463 983 884 972 943
3464 983 937 926 847
3465 983 972 926 847
3466 482 382 438 303
3467 482 382 435 303
3468 482 435 386 303
3469 482 382 435 483
3470 482 347 438 303
3471 482 347 386 303
3472 482 382 483 455
3473 482 382 438 455
3474 482 347 438 402
3475 482 347 386 402
3476 482 539 483 550
3477 482 483 455 550
3478 482 438 455 550
3479 482 401 386 402
3480 482 553 539 550
3481 482 553 438 550
3482 482 552 553 539
3483 482 446 438 402
3484 482 401 552 402
3485 482 401 386 510
3486 482 552 528 402
3487 482 552 553 528
3488 482 446 528 402
3489 482 553 438 495
3490 482 446 438 495
3491 482 552 539 510
3492 482 401 552 510
3493 482 553 495 528
3494 482 446 495 528
3495 643 602 587 594
3496 643 587 681 648
3497 643 602 587 648
3498 643 681 695 749
3499 643 587 681 695
3500 643 695 749 762
3501 643 681 750 749
3502 643 681 750 648
3503 643 615 793 762
3504 643 615 594 550
3505 643 587 594 550
3506 643 750 812 749
3507 643 675 648 812
3508 643 602 675 648
3509 643 602 675 594
3510 643 812 749 762
3511 643 793 812 762
3512 643 614 695 762
3513 643 614 695 509
3514 643 587 509 550
3515 643 695 631 509
3516 643 587 631 509
3517 643 587 695 631
3518 643 614 615 762
3519 643 817 648 812
3520 643 817 750 812
3521 643 817 750 648
3522 643 675 793 812
3523 643 675 615 793
3524 643 675 615 594
3525 643 615 562 550
3526 643 614 615 562
3527 643 562 509 550
3528 643 614 562 509
3529 713 610 729 710
3530 713 610 664 729
3531 713 571 664 659
3532 713 773 710 787
3533 713 729 773 710
3534 713 571 610 664
3535 713 610 614 710
3536 713 571 614 710
3537 713 571 610 614
3538 878 886 822 879
3539 878 886 991 879
3540 878 991 879 954
3541 878 886 852 822
3542 878 886 991 852
3543 878 879 902 954
3544 878 822 902 954
3545 878 822 879 902
3546 878 991 954 945
3547 878 864 991 852
3548 878 941 954 945
3549 878 941 822 954
3550 878 995 991 945
3551 878 852 822 831
3552 878 864 852 831
3553 878 915 864 991
3554 878 941 935 945
3555 878 995 915 991
3556 878 869 941 935
3557 878 869 941 822
3558 878 995 935 945
3559 878 864 899 831
3560 878 915 864 899
3561 878 869 935 831
3562 878 869 822 831
3563 878 995 917 935
3564 878 935 899 831
3565 878 917 935 899
3566 878 995 915 917
3567 878 915 917 899
3568 728 852 712 787
3569 728 884 852 787
3570 728 712 787 678
3571 728 713 710 787
3572 728 739 787 678
3573 728 739 710 678
3574 728 739 710 787
3575 728 713 571 710
3576 728 713 571 659
3577 728 566 710 678
3578 728 566 571 678
3579 728 566 571 710
3580 728 571 578 678
3581 925 890 924 970
3582 925 991 890 970
3583 925 864 991 890
3584 925 864 852 890
3585 519 601 552 528
3586 519 458 528 402
3587 519 552 528 402
3588 519 579 458 528
3589 519 601 579 528
3590 519 433 458 402
3591 519 552 433 402
3592 519 360 433 458
3593 519 360 373 433
3594 519 637 552 500
3595 519 584 637 500
3596 519 552 433 500
3597 519 584 373 451
3598 519 584 451 500
3599 519 373 433 500
3600 519 373 451 500
3601 585 552 629 583
3602 585 637 552 583
3603 585 552 629 528
3604 585 601 552 528
3605 585 519 637 552
3606 585 519 601 552
3607 585 629 635 583
3608 585 637 635 583
3609 585 637 629 635
3610 585 584 601 637
3611 585 519 584 637
3612 720 714 670 732
3613 744 799 769 843
3614 744 799 769 670
3615 744 654 726 670
3616 744 654 769 670
3617 744 654 769 726
3618 744 720 799 670
3619 744 720 670 732
3620 744 714 670 732
3621 744 714 726 732
3622 818 720 799 711
3623 818 722 799 833
3624 818 722 799 711
3625 818 987 929 833
3626 818 722 770 833
3627 818 722 711 770
3628 818 929 833 998
3629 818 770 819 998
3630 818 819 833 998
3631 818 770 819 833
3632 503 592 612 532
3633 503 592 459 532
3634 503 411 532 589
3635 503 385 411 532
3636 503 417 459 532
3637 503 385 417 532
3638 503 385 417 459
3639 503 385 369 459
3640 503 385 411 369
3641 503 456 411 369
3642 503 516 369 537
3643 503 516 290 369
3644 503 369 459 277
3645 503 290 369 277
3646 478 515 567 544
3647 478 567 467 525
3648 478 567 544 467
3649 478 567 523 525
3650 478 515 567 523
3651 478 431 467 525
3652 478 431 525 442
3653 478 523 525 442
3654 478 424 431 442
3655 478 424 523 442
3656 641 722 819 811
3657 641 722 605 819
3658 641 722 605 673
3659 641 619 605 673
3660 641 673 733 811
3661 641 666 673 733
3662 641 619 666 673
3663 735 722 769 670
3664 735 769 625 670
3665 735 722 625 673
3666 735 722 625 670
3667 735 758 625 673
3668 735 758 673 775
3669 735 722 799 769
3670 735 654 769 625
3671 735 654 758 625
3672 735 654 758 769
3673 735 673 811 775
3674 735 799 769 843
3675 735 758 769 843
3676 735 641 673 811
3677 735 641 722 811
3678 735 641 722 673
3679 735 758 843 775
3680 735 843 811 775
3681 735 722 819 811
3682 735 722 799 819
3683 735 843 833 811
3684 735 799 843 833
3685 735 819 833 811
3686 735 799 819 833
3687 743 722 605 652
3688 743 722 711 770
3689 743 722 711 652
3690 743 722 770 819
3691 743 722 605 819
3692 26 127 123 89
3693 26 91 127 123
3694 26 123 104 89
3695 26 91 123 104
3696 228 139 296 244
3697 228 250 296 244
3698 228 287 139 244
3699 228 250 287 244
3700 228 218 139 296
3701 228 287 137 139
3702 228 250 287 137
3703 228 160 218 139
3704 228 137 162 139
3705 228 160 162 139
3706 363 371 364 280
3707 363 371 364 431
3708 363 270 364 280
3709 363 364 424 431
3710 363 364 424 378
3711 363 378 280 222
3712 363 270 280 222
3713 363 270 378 222
3714 363 318 364 378
3715 363 318 270 378
3716 363 318 270 364
3717 676 677 644 779
3718 676 677 644 543
3719 676 677 609 543
3720 676 508 644 543
3721 676 609 508 543
3722 699 623 712 678
3723 699 728 712 678
3724 699 571 623 659
3725 699 728 571 659
3726 699 728 852 712
3727 699 623 578 678
3728 699 728 578 678
3729 699 571 623 578
3730 699 728 571 578
3731 400 318 378 269
3732 400 318 359 269
3733 400 359 291 269
3734 400 426 359 291
3735 526 554 579 538
3736 526 554 461 538
3737 526 429 410 461
3738 526 429 410 453
3739 526 554 461 543
3740 526 429 461 543
3741 526 429 554 543
3742 526 554 579 600
3743 580 650 584 601
3744 580 650 584 746
3745 580 584 463 626
3746 580 738 746 626
3747 580 584 738 626
3748 580 584 738 746
3749 639 584 513 745
3750 639 584 637 500
3751 639 584 451 500
3752 639 584 451 513
3753 639 584 637 767
3754 639 637 500 705
3755 639 637 784 705
3756 639 637 767 784
3757 316 345 288 263
3758 316 384 345 288
3759 316 384 344 288
3760 316 288 262 263
3761 316 314 288 262
3762 316 314 344 288
3763 638 650 600 626
3764 638 650 579 600
3765 638 580 746 626
3766 638 580 650 746
3767 638 650 601 579
3768 638 580 650 601
3769 638 746 626 747
3770 638 650 626 747
3771 638 650 746 747
3772 647 542 677 609
3773 647 676 677 609
3774 647 547 542 659
3775 647 547 542 677
3776 647 726 670 659
3777 647 676 609 714
3778 647 520 670 659
3779 647 542 520 659
3780 647 542 563 609
3781 647 563 520 670
3782 647 542 563 520
3783 647 744 726 670
3784 647 744 714 670
3785 647 744 714 726
3786 647 563 609 714
3787 445 426 359 434
3788 445 542 426 434
3789 445 400 426 359
3790 445 359 288 434
3791 445 318 359 288
3792 445 542 384 434
3793 445 400 318 359
3794 445 384 288 434
3795 445 384 318 288
3796 445 384 318 404
3797 445 542 384 404
3798 445 542 505 520
3799 445 542 520 404
3800 445 542 426 466
3801 445 400 426 466
3802 445 520 404 329
3803 445 318 404 329
3804 445 520 424 329
3805 445 318 424 329
3806 445 318 424 378
3807 445 400 318 378
3808 445 505 515 520
3809 445 520 424 523
3810 445 515 520 523
3811 445 478 424 523
3812 445 478 515 523
3813 569 547 590 538
3814 569 547 590 578
3815 569 547 578 395
3816 569 533 408 578
3817 569 590 623 578
3818 569 408 578 395
3819 569 547 395 393
3820 569 547 538 393
3821 569 533 538 458
3822 569 533 408 458
3823 569 590 579 538
3824 569 590 623 579
3825 569 408 458 395
3826 569 458 395 393
3827 569 538 458 393
3828 569 579 538 528
3829 569 533 538 528
3830 488 542 466 434
3831 488 547 466 434
3832 488 547 542 434
3833 488 547 542 571
3834 488 542 505 571
3835 488 547 578 466
3836 488 547 571 578
3837 488 505 466 486
3838 488 505 571 486
3839 488 445 505 466
3840 488 445 542 466
3841 488 445 542 505
3842 488 566 571 486
3843 636 547 590 659
3844 636 647 547 659
3845 636 647 547 677
3846 636 547 677 543
3847 636 677 600 543
3848 636 547 538 543
3849 636 547 590 538
3850 636 590 623 579
3851 636 600 538 543
3852 636 650 579 600
3853 636 579 600 538
3854 636 590 579 538
3855 636 677 600 737
3856 636 650 600 737
3857 636 792 737 822
3858 636 677 737 822
3859 636 677 792 822
3860 78 147 195 115
3861 78 71 147 115
3862 78 71 147 195
3863 78 125 195 115
3864 78 74 125 115
3865 78 125 112 195
3866 78 74 54 115
3867 78 71 54 115
3868 78 74 125 112
3869 78 12 112 195
3870 142 148 181 195
3871 142 167 148 195
3872 142 152 12 195
3873 142 152 195 194
3874 142 350 195 194
3875 142 167 350 195
3876 333 408 325 395
3877 333 291 325 395
3878 333 408 420 325
3879 333 391 408 420
3880 333 420 325 240
3881 333 291 325 188
3882 333 420 313 240
3883 333 391 420 313
3884 333 325 188 240
3885 333 221 291 188
3886 333 313 310 240
3887 333 391 313 310
3888 333 221 299 310
3889 333 221 291 299
3890 333 188 192 240
3891 333 221 188 192
3892 333 221 310 192
3893 333 210 192 240
3894 333 210 310 240
3895 333 210 310 192
3896 418 562 486 487
3897 418 436 299 310
3898 418 436 432 486
3899 418 391 432 487
3900 418 436 432 310
3901 418 391 432 310
3902 418 486 509 487
3903 418 432 509 487
3904 418 432 486 509
3905 427 566 408 578
3906 427 408 578 395
3907 427 488 578 466
3908 427 547 466 395
3909 427 547 578 395
3910 427 547 578 466
3911 427 488 466 486
3912 427 488 566 486
3913 427 566 571 578
3914 427 488 571 578
3915 427 488 566 571
3916 427 426 466 395
3917 427 426 466 486
3918 427 566 562 486
3919 427 418 562 486
3920 427 566 408 562
3921 427 333 408 395
3922 427 333 391 408
3923 427 391 408 487
3924 427 418 391 487
3925 427 408 562 487
3926 427 418 562 487
3927 427 359 291 395
3928 427 426 359 395
3929 427 426 359 291
3930 686 783 863 844
3931 686 783 863 828
3932 686 675 629 828
3933 686 675 828 830
3934 686 783 828 830
3935 686 783 675 830
3936 686 709 783 675
3937 686 629 553 528
3938 686 675 629 553
3939 686 585 629 528
3940 686 585 601 528
3941 686 533 553 528
3942 686 675 553 615
3943 686 533 553 615
3944 686 709 675 615
3945 755 768 712 678
3946 755 686 709 783
3947 755 768 712 787
3948 755 852 712 787
3949 755 852 768 787
3950 755 852 890 768
3951 755 783 890 768
3952 755 886 852 890
3953 755 783 886 890
3954 755 783 886 844
3955 717 768 793 762
3956 717 709 793 762
3957 717 768 739 762
3958 717 783 768 793
3959 717 709 783 793
3960 717 615 739 762
3961 717 709 615 762
3962 717 768 739 678
3963 717 755 783 768
3964 717 755 709 783
3965 717 709 615 678
3966 717 562 739 678
3967 717 615 562 678
3968 717 615 562 739
3969 497 576 529 582
3970 497 471 529 582
3971 497 483 576 529
3972 497 471 483 529
3973 497 602 576 582
3974 497 602 539 582
3975 497 602 483 576
3976 497 602 539 483
3977 497 471 435 483
3978 497 471 496 582
3979 497 482 539 483
3980 512 504 496 570
3981 512 496 476 510
3982 512 394 496 476
3983 512 394 504 496
3984 512 394 485 476
3985 512 394 504 485
3986 556 504 568 485
3987 556 577 568 588
3988 556 504 568 588
3989 556 577 616 588
3990 556 577 616 591
3991 248 292 340 203
3992 248 220 292 203
3993 248 220 293 292
3994 248 220 177 203
3995 248 292 340 358
3996 248 293 340 358
3997 248 293 292 358
3998 248 177 313 163
3999 248 307 177 203
4000 248 307 340 203
4001 248 177 163 116
4002 248 220 163 116
4003 248 220 177 116
4004 248 220 225 163
4005 248 220 293 225
4006 248 307 177 313
4007 248 336 340 313
4008 248 307 336 313
4009 248 307 336 340
4010 321 220 293 225
4011 321 225 246 272
4012 321 220 225 246
4013 321 220 293 246
4014 321 187 246 272
4015 321 187 246 327
4016 321 425 353 327
4017 321 425 421 423
4018 321 358 246 327
4019 321 293 358 246
4020 321 187 353 272
4021 321 382 353 272
4022 321 425 382 353
4023 321 421 416 423
4024 321 425 382 421
4025 321 425 419 327
4026 321 425 423 419
4027 321 219 353 327
4028 321 187 219 327
4029 321 187 219 353
4030 321 382 421 416
4031 321 358 416 423
4032 321 293 358 416
4033 321 358 419 327
4034 321 358 423 419
4035 355 271 372 388
4036 355 297 271 388
4037 355 374 372 388
4038 355 374 302 388
4039 355 297 302 388
4040 355 297 374 302
4041 349 396 415 341
4042 349 226 341 254
4043 349 415 226 341
4044 349 255 226 254
4045 349 255 415 226
4046 349 255 368 254
4047 349 255 415 368
4048 349 394 415 368
4049 349 337 306 254
4050 349 394 337 306
4051 349 394 368 306
4052 349 284 306 254
4053 349 284 368 254
4054 349 284 368 306
4055 308 298 299 249
4056 308 328 299 249
4057 308 315 328 249
4058 308 298 265 249
4059 308 315 265 249
4060 308 315 298 265
4061 380 514 411 436
4062 380 456 514 411
4063 380 514 436 486
4064 380 456 514 486
4065 380 308 315 328
4066 380 308 328 299
4067 380 281 411 328
4068 380 315 281 328
4069 380 315 281 411
4070 380 322 328 299
4071 380 322 436 328
4072 380 436 328 399
4073 380 411 328 399
4074 380 411 436 399
4075 380 436 299 310
4076 380 322 299 310
4077 380 322 436 310
4078 392 407 371 369
4079 392 298 265 378
4080 392 315 298 265
4081 392 315 265 280
4082 392 371 369 280
4083 392 315 369 280
4084 392 315 411 369
4085 392 308 315 298
4086 392 380 308 315
4087 392 456 411 369
4088 392 407 456 369
4089 392 380 456 411
4090 392 380 315 411
4091 198 42 145 143
4092 198 145 214 128
4093 198 145 128 30
4094 198 42 145 30
4095 198 295 214 277
4096 198 214 290 277
4097 198 214 290 128
4098 232 267 339 235
4099 232 267 339 295
4100 232 385 295 281
4101 232 339 385 281
4102 232 339 385 295
4103 232 267 295 143
4104 232 295 281 214
4105 232 140 235 143
4106 232 145 140 143
4107 232 198 295 143
4108 232 198 145 143
4109 232 198 145 214
4110 232 198 295 214
4111 232 140 235 224
4112 232 339 235 224
4113 232 145 140 171
4114 232 339 281 328
4115 232 281 214 196
4116 232 145 171 196
4117 232 145 214 196
4118 232 140 171 224
4119 232 281 209 328
4120 232 339 328 224
4121 232 209 171 196
4122 232 281 209 196
4123 232 209 328 211
4124 232 209 171 211
4125 232 328 224 211
4126 232 171 224 211
4127 596 599 560 564
4128 596 593 599 560
4129 596 698 696 599
4130 596 660 696 599
4131 596 593 660 599
4132 596 612 599 564
4133 596 698 612 564
4134 596 612 599 684
4135 596 698 599 684
4136 596 698 612 684
4137 256 245 259 161
4138 256 245 161 172
4139 256 245 278 172
4140 256 245 294 259
4141 256 161 172 215
4142 256 278 172 215
4143 256 317 245 278
4144 256 317 245 294
4145 256 217 161 215
4146 256 217 301 215
4147 256 274 301 215
4148 256 274 278 215
4149 256 274 278 301
4150 256 294 346 301
4151 256 294 259 346
4152 256 317 278 301
4153 256 317 294 301
4154 256 259 161 174
4155 256 217 161 174
4156 256 217 346 301
4157 256 217 346 174
4158 256 259 346 174
4159 108 126 21 14
4160 108 17 126 14
4161 108 126 21 111
4162 108 17 126 111
4163 893 829 856 990
4164 893 823 829 990
4165 893 934 856 990
4166 893 823 829 800
4167 893 978 934 990
4168 893 823 978 990
4169 893 823 978 888
4170 893 823 800 772
4171 893 759 856 772
4172 893 829 759 856
4173 893 800 759 772
4174 893 829 800 759
4175 893 944 978 934
4176 893 944 978 888
4177 893 944 985 934
4178 893 944 985 888
4179 893 985 934 883
4180 893 985 888 883
4181 893 860 888 883
4182 893 823 860 888
4183 893 857 895 772
4184 893 857 856 772
4185 893 934 895 883
4186 893 857 934 895
4187 893 857 934 856
4188 893 860 772 883
4189 893 823 860 772
4190 893 826 772 883
4191 893 826 895 883
4192 893 826 895 772
4193 715 654 769 726
4194 715 654 664 726
4195 715 654 758 769
4196 715 758 760 820
4197 715 654 760 645
4198 715 654 664 645
4199 715 758 760 673
4200 715 654 760 673
4201 715 654 758 673
4202 715 760 645 731
4203 715 664 645 731
4204 715 729 820 731
4205 715 760 820 731
4206 715 664 729 731
4207 748 864 884 852
4208 748 728 884 852
4209 748 699 728 852
4210 748 715 769 726
4211 748 699 728 659
4212 748 664 726 659
4213 748 715 664 726
4214 748 715 713 664
4215 748 713 664 659
4216 748 728 713 659
4217 788 728 884 787
4218 788 728 713 787
4219 788 748 728 884
4220 788 748 728 713
4221 788 884 773 787
4222 788 713 773 787
4223 788 713 729 773
4224 788 715 729 820
4225 788 884 820 847
4226 788 748 715 713
4227 788 729 756 820
4228 788 729 756 773
4229 788 884 865 773
4230 788 713 664 729
4231 788 715 664 729
4232 788 715 713 664
4233 788 865 756 820
4234 788 865 756 773
4235 788 865 928 820
4236 788 884 865 928
4237 788 758 820 847
4238 788 715 758 820
4239 788 748 715 769
4240 788 983 928 820
4241 788 983 884 820
4242 788 983 884 928
4243 788 758 769 847
4244 788 715 758 769
4245 907 852 890 924
4246 907 925 890 924
4247 907 925 852 890
4248 907 925 864 852
4249 671 720 799 670
4250 671 720 799 711
4251 671 722 799 670
4252 671 722 799 711
4253 671 722 621 670
4254 671 722 621 711
4255 867 744 769 726
4256 867 748 769 726
4257 867 788 748 769
4258 867 788 748 884
4259 867 744 769 843
4260 867 818 846 952
4261 867 744 799 843
4262 867 788 769 847
4263 867 884 972 847
4264 867 788 884 847
4265 867 769 843 847
4266 867 988 843 847
4267 867 988 972 847
4268 867 818 799 833
4269 867 818 846 732
4270 867 799 843 833
4271 867 744 720 732
4272 867 744 720 799
4273 867 988 939 952
4274 867 988 843 939
4275 867 818 987 952
4276 867 818 987 833
4277 867 818 720 732
4278 867 818 720 799
4279 867 843 939 833
4280 867 987 939 952
4281 867 987 939 833
4282 947 900 927 958
4283 947 900 899 958
4284 947 867 988 952
4285 930 917 899 958
4286 930 947 899 958
4287 930 915 917 899
4288 930 915 864 899
4289 546 592 620 612
4290 546 503 592 612
4291 546 618 612 589
4292 546 618 620 589
4293 546 618 620 612
4294 546 612 532 589
4295 546 503 532 589
4296 546 503 612 532
4297 546 597 589 537
4298 546 620 597 589
4299 546 456 589 537
4300 546 456 369 537
4301 546 503 369 537
4302 546 503 456 369
4303 546 456 411 589
4304 546 503 411 589
4305 546 503 456 411
4306 454 515 514 544
4307 454 478 515 544
4308 454 456 514 544
4309 454 456 544 467
4310 454 478 544 467
4311 454 505 515 514
4312 454 407 456 467
4313 454 456 514 466
4314 454 505 514 466
4315 454 445 505 515
4316 454 445 478 515
4317 454 407 431 467
4318 454 478 431 467
4319 454 392 407 456
4320 454 445 505 466
4321 454 400 456 466
4322 454 445 400 466
4323 454 392 400 456
4324 454 445 400 378
4325 454 392 400 378
4326 454 445 424 378
4327 454 445 478 424
4328 454 478 424 431
4329 231 329 296 326
4330 231 218 296 326
4331 231 228 218 296
4332 231 218 329 326
4333 231 250 329 296
4334 231 228 250 296
4335 231 266 218 329
4336 231 266 212 218
4337 231 266 162 212
4338 231 127 212 218
4339 231 127 162 218
4340 231 127 162 212
4341 231 160 162 218
4342 231 228 160 218
4343 231 228 160 162
4344 231 162 123 222
4345 231 266 123 222
4346 231 266 162 123
4347 247 250 270 137
4348 247 228 250 137
4349 247 231 228 250
4350 247 137 223 222
4351 247 270 223 222
4352 247 270 137 223
4353 247 137 162 222
4354 247 228 137 162
4355 247 250 270 329
4356 247 231 250 329
4357 247 231 162 222
4358 247 231 228 162
4359 247 231 266 222
4360 247 231 266 329
4361 247 318 266 222
4362 247 318 270 222
4363 247 318 266 329
4364 247 318 270 329
4365 763 676 846 779
4366 763 792 846 779
4367 763 677 792 779
4368 763 676 677 779
4369 763 900 792 846
4370 763 676 846 714
4371 763 699 852 712
4372 763 864 792 852
4373 763 748 864 852
4374 763 748 699 852
4375 361 298 378 269
4376 361 400 378 269
4377 361 298 291 269
4378 361 400 291 269
4379 361 392 298 378
4380 361 392 400 378
4381 361 392 308 298
4382 361 392 380 308
4383 361 427 426 486
4384 361 308 298 299
4385 361 392 400 456
4386 361 380 456 486
4387 361 392 380 456
4388 361 426 466 486
4389 361 400 426 466
4390 361 456 466 486
4391 361 400 456 466
4392 474 579 538 458
4393 474 461 538 458
4394 474 410 461 458
4395 474 526 410 461
4396 474 526 579 538
4397 474 526 461 538
4398 474 519 579 458
4399 474 360 410 458
4400 474 519 360 458
4401 474 360 410 373
4402 474 519 360 373
4403 474 526 410 453
4404 474 580 526 453
4405 474 580 463 453
4406 474 463 373 397
4407 474 410 373 397
4408 474 584 463 373
4409 474 519 584 373
4410 474 463 453 397
4411 474 410 453 397
4412 474 580 584 463
4413 474 580 519 584
4414 572 526 429 554
4415 572 554 608 398
4416 572 429 608 398
4417 572 429 554 398
4418 572 429 453 608
4419 572 526 429 453
4420 572 526 554 600
4421 572 655 626 608
4422 572 655 600 626
4423 572 554 644 608
4424 572 554 600 644
4425 572 463 626 608
4426 572 463 453 608
4427 572 580 526 453
4428 572 638 600 626
4429 572 655 644 608
4430 572 655 600 644
4431 572 580 463 626
4432 572 580 463 453
4433 572 526 579 600
4434 572 638 579 600
4435 736 584 767 745
4436 736 639 584 745
4437 736 639 584 767
4438 736 639 767 784
4439 736 845 767 784
4440 736 845 767 861
4441 736 767 892 861
4442 736 767 745 805
4443 736 767 892 805
4444 44 78 71 195
4445 44 71 181 195
4446 44 142 181 195
4447 44 142 148 181
4448 44 142 148 47
4449 44 142 93 47
4450 44 71 8 181
4451 44 8 148 47
4452 44 165 148 181
4453 44 165 8 181
4454 44 165 8 148
4455 41 142 93 12
4456 41 78 12 195
4457 41 142 12 195
4458 41 44 142 93
4459 41 44 78 195
4460 41 44 142 195
4461 682 585 637 629
4462 682 686 585 629
4463 682 585 601 637
4464 682 686 585 601
4465 682 649 629 825
4466 682 863 825 844
4467 682 686 863 844
4468 682 629 828 825
4469 682 686 629 828
4470 682 825 879 844
4471 682 767 879 844
4472 682 767 825 879
4473 682 767 784 825
4474 682 637 767 784
4475 682 649 629 635
4476 682 637 629 635
4477 682 863 828 825
4478 682 686 863 828
4479 682 737 844 747
4480 682 767 844 747
4481 682 637 767 747
4482 682 650 737 747
4483 682 650 601 737
4484 682 650 637 747
4485 682 650 601 637
4486 682 784 825 705
4487 682 637 784 705
4488 682 649 635 705
4489 682 637 635 705
4490 682 825 691 705
4491 682 649 691 705
4492 682 649 825 691
4493 701 852 737 712
4494 701 755 852 712
4495 701 755 686 783
4496 701 686 533 528
4497 701 636 650 737
4498 701 650 601 737
4499 701 886 852 737
4500 701 755 886 852
4501 701 686 783 844
4502 701 755 783 844
4503 701 569 623 579
4504 701 569 579 528
4505 701 569 533 528
4506 701 650 601 579
4507 701 601 579 528
4508 701 686 601 528
4509 701 636 623 712
4510 701 682 601 737
4511 701 682 686 601
4512 701 886 737 844
4513 701 755 886 844
4514 701 682 737 844
4515 701 682 686 844
4516 701 636 623 579
4517 701 636 650 579
4518 689 755 686 709
4519 689 709 615 678
4520 689 686 709 615
4521 689 717 709 678
4522 689 717 755 709
4523 689 701 755 686
4524 689 533 615 678
4525 689 686 533 615
4526 689 755 768 678
4527 689 717 768 678
4528 689 717 755 768
4529 689 701 686 533
4530 689 755 712 678
4531 689 701 755 712
4532 689 701 569 533
4533 689 533 578 678
4534 689 569 533 578
4535 689 623 712 678
4536 689 701 623 712
4537 689 701 569 623
4538 689 623 578 678
4539 689 569 623 578
4540 468 539 510 582
4541 468 497 539 582
4542 468 496 510 582
4543 468 497 496 582
4544 468 482 539 510
4545 468 497 482 539
4546 468 482 386 510
4547 468 496 386 510
4548 468 497 471 435
4549 468 497 471 496
4550 468 482 435 386
4551 468 356 435 386
4552 468 496 356 386
4553 468 471 435 475
4554 468 471 496 475
4555 468 482 435 483
4556 468 497 435 483
4557 468 497 482 483
4558 468 317 356 435
4559 468 435 475 464
4560 468 496 475 464
4561 468 496 435 464
4562 468 496 294 435
4563 468 317 294 435
4564 468 496 294 356
4565 468 317 294 356
4566 557 504 568 570
4567 557 512 504 570
4568 557 512 504 568
4569 557 568 622 570
4570 557 512 496 570
4571 557 622 570 582
4572 557 496 570 582
4573 557 512 496 510
4574 557 512 476 510
4575 557 622 510 582
4576 557 496 510 582
4577 557 622 656 640
4578 557 622 510 640
4579 557 506 476 640
4580 557 506 510 640
4581 557 506 476 510
4582 558 512 485 476
4583 558 557 512 476
4584 558 557 512 568
4585 558 504 568 485
4586 558 512 504 485
4587 558 512 504 568
4588 558 557 656 640
4589 558 557 476 640
4590 558 568 622 656
4591 558 557 622 656
4592 558 557 568 622
4593 489 556 504 485
4594 489 394 504 485
4595 489 394 415 444
4596 489 394 444 464
4597 489 394 504 464
4598 489 616 444 448
4599 489 556 616 588
4600 489 556 504 588
4601 489 444 464 529
4602 489 504 464 529
4603 489 616 588 529
4604 489 616 444 529
4605 489 504 588 529
4606 304 248 340 313
4607 304 248 293 340
4608 304 340 416 313
4609 304 382 416 313
4610 304 293 340 416
4611 304 248 293 225
4612 304 321 382 416
4613 304 321 293 416
4614 304 382 313 241
4615 304 321 382 272
4616 304 303 225 241
4617 304 382 303 241
4618 304 225 241 163
4619 304 248 225 163
4620 304 313 241 163
4621 304 248 313 163
4622 304 303 225 272
4623 304 382 303 272
4624 304 321 225 272
4625 304 321 293 225
4626 342 349 396 341
4627 342 349 341 254
4628 342 349 337 254
4629 342 150 341 254
4630 342 394 485 337
4631 342 349 394 337
4632 342 150 254 134
4633 342 276 254 134
4634 342 276 337 254
4635 227 232 267 143
4636 227 200 235 143
4637 227 232 235 143
4638 227 232 267 235
4639 227 200 235 207
4640 227 235 207 268
4641 227 267 235 268
4642 913 852 924 896
4643 913 907 852 924
4644 913 967 924 896
4645 913 884 852 896
4646 913 884 967 896
4647 913 864 884 852
4648 913 907 864 852
4649 913 884 967 943
4650 913 884 972 943
4651 607 671 621 670
4652 607 621 670 531
4653 607 670 540 531
4654 607 563 540 531
4655 607 621 460 531
4656 607 563 460 531
4657 607 520 670 540
4658 607 563 520 540
4659 607 563 520 670
4660 873 947 927 952
4661 873 947 900 927
4662 873 846 927 952
4663 873 900 846 927
4664 873 947 867 952
4665 873 867 846 952
4666 873 947 956 900
4667 873 763 900 846
4668 873 867 744 726
4669 873 867 748 726
4670 873 867 748 884
4671 873 744 726 732
4672 873 867 846 732
4673 873 867 744 732
4674 977 867 988 972
4675 977 947 867 988
4676 977 873 947 956
4677 977 873 947 867
4678 977 867 884 972
4679 977 873 867 884
4680 977 913 884 972
4681 933 930 947 899
4682 933 947 900 899
4683 933 947 956 900
4684 933 930 900 899
4685 933 977 873 956
4686 877 930 864 899
4687 877 930 900 899
4688 877 933 930 900
4689 877 763 864 792
4690 877 900 792 899
4691 877 763 900 792
4692 877 873 763 900
4693 877 792 899 831
4694 877 864 899 831
4695 877 864 792 831
4696 877 763 748 864
4697 877 933 977 873
4698 877 873 956 900
4699 877 933 956 900
4700 877 933 873 956
4701 877 748 864 884
4702 877 873 748 884
4703 877 977 873 884
4704 986 915 864 991
4705 986 925 864 991
4706 389 363 424 431
4707 389 454 424 431
4708 389 454 407 431
4709 389 363 424 378
4710 389 454 424 378
4711 389 407 371 431
4712 389 363 371 431
4713 389 392 407 371
4714 389 454 392 378
4715 389 454 392 407
4716 389 363 371 280
4717 389 392 371 280
4718 389 363 378 280
4719 389 265 378 280
4720 389 392 265 280
4721 389 392 265 378
4722 702 636 647 659
4723 702 636 647 677
4724 702 636 677 792
4725 702 763 677 792
4726 702 699 623 659
4727 702 763 699 712
4728 702 590 623 659
4729 702 636 590 659
4730 702 636 590 623
4731 702 699 623 712
4732 702 636 623 712
4733 702 636 792 737
4734 702 763 852 712
4735 702 763 792 852
4736 702 737 822 712
4737 702 792 737 822
4738 702 701 737 712
4739 702 701 636 712
4740 702 701 636 737
4741 702 852 712 831
4742 702 792 852 831
4743 702 822 712 831
4744 702 792 822 831
4745 725 647 676 714
4746 725 763 676 714
4747 725 647 714 726
4748 725 647 676 677
4749 725 763 676 677
4750 725 647 726 659
4751 725 702 647 677
4752 725 702 763 677
4753 725 714 726 732
4754 725 873 726 732
4755 725 873 748 726
4756 725 763 846 714
4757 725 873 763 846
4758 725 748 726 659
4759 725 702 647 659
4760 725 846 714 732
4761 725 873 846 732
4762 725 877 763 748
4763 725 877 873 748
4764 725 877 873 763
4765 725 748 699 659
4766 725 763 748 699
4767 725 702 699 659
4768 725 702 763 699
4769 365 380 308 299
4770 365 361 308 299
4771 365 361 380 308
4772 365 418 436 299
4773 365 380 436 299
4774 365 427 418 391
4775 365 380 436 486
4776 365 361 380 486
4777 365 418 299 310
4778 365 418 391 310
4779 365 427 333 391
4780 365 333 291 299
4781 365 418 436 486
4782 365 427 418 486
4783 365 361 427 486
4784 365 333 299 310
4785 365 333 391 310
4786 365 298 291 299
4787 365 361 298 299
4788 365 361 298 291
4789 365 333 291 395
4790 365 427 291 395
4791 365 427 333 395
4792 365 427 426 291
4793 365 361 427 426
4794 365 400 426 291
4795 365 361 400 291
4796 365 361 400 426
4797 559 474 580 519
4798 559 585 519 601
4799 559 519 601 579
4800 559 474 519 579
4801 559 585 584 601
4802 559 580 584 601
4803 559 585 519 584
4804 559 580 519 584
4805 559 638 601 579
4806 559 638 580 601
4807 559 474 526 579
4808 559 474 580 526
4809 559 572 638 579
4810 559 572 526 579
4811 559 572 580 526
4812 559 638 580 626
4813 559 572 580 626
4814 559 572 638 626
4815 479 489 394 485
4816 479 489 394 415
4817 479 349 394 415
4818 479 342 394 485
4819 479 342 349 394
4820 479 396 415 477
4821 479 489 556 485
4822 479 415 448 477
4823 479 349 396 415
4824 479 342 349 396
4825 479 489 556 616
4826 479 489 616 448
4827 479 415 444 448
4828 479 489 444 448
4829 479 489 415 444
4830 479 556 616 591
4831 479 591 448 477
4832 479 616 591 448
4833 642 607 563 670
4834 642 720 714 670
4835 642 671 720 670
4836 642 607 671 670
4837 642 647 714 670
4838 642 647 563 670
4839 642 647 563 714
4840 912 877 933 930
4841 912 877 933 977
4842 912 877 930 864
4843 912 930 915 864
4844 912 986 915 864
4845 992 907 925 864
4846 992 986 925 864
4847 966 877 864 884
4848 966 912 877 864
4849 966 877 977 884
4850 966 912 877 977
4851 966 913 864 884
4852 966 913 907 864
4853 966 992 907 864
4854 966 977 913 884
4855 966 912 986 864
4856 966 992 986 864
