# This file was created by meshio v5.3.5
45 4 0
0 4 6 3 2
1 7 6 3 2
2 7 4 6 2
3 5 10 12 1
4 5 4 1 0
5 5 4 3 1
6 5 4 6 3
7 9 10 13 14
8 9 7 13 14
9 9 10 6 13
10 9 7 6 13
11 9 7 3 14
12 9 7 6 3
13 9 10 12 1
14 9 10 12 14
15 9 5 6 3
16 9 5 10 6
17 9 5 3 1
18 9 5 10 1
19 8 4 2 0
20 8 7 6 13
21 8 7 4 6
22 8 7 13 2
23 8 7 4 2
24 8 5 11 0
25 8 5 4 0
26 8 10 13 11
27 8 10 6 13
28 8 5 4 6
29 8 5 10 6
30 8 10 12 11
31 8 5 12 11
32 8 5 10 12
33 4 3 1 2
34 4 1 2 0
35 10 12 14 11
36 10 13 14 11
37 7 13 14 2
38 7 3 14 2
39 5 12 1 11
40 5 1 11 0
41 9 12 14 1
42 9 3 14 1
43 8 2 11 0
44 8 13 2 11
