# This file was created by meshio v5.3.5
15 3 0 0
0 0.0000000000000000e+00 0.0000000000000000e+00 0.0000000000000000e+00
1 0.0000000000000000e+00 0.0000000000000000e+00 1.0000000000000000e+00
2 0.0000000000000000e+00 1.0000000000000000e+00 0.0000000000000000e+00
3 0.0000000000000000e+00 1.0000000000000000e+00 1.0000000000000000e+00
4 5.9333850448494485e-02 1.4913100508031285e-01 1.9484241399480748e-01
5 1.7827256063480523e-01 1.3886136800429905e-01 8.6778754961292126e-01
6 3.5935395503294076e-01 4.9156483654942412e-01 5.4336987841362205e-01
7 4.4377275715303938e-01 9.5595836563553560e-01 2.9705134221380236e-01
8 5.9334435297807397e-01 2.2727568774253043e-01 1.2807322684739586e-01
9 6.9449611984931181e-01 8.2989706573399347e-01 9.5609516926385130e-01
10 7.5633646699880808e-01 2.9697064223910108e-01 9.2106300499929661e-01
11 1.0000000000000000e+00 0.0000000000000000e+00 0.0000000000000000e+00
12 1.0000000000000000e+00 0.0000000000000000e+00 1.0000000000000000e+00
13 1.0000000000000000e+00 1.0000000000000000e+00 0.0000000000000000e+00
14 1.0000000000000000e+00 1.0000000000000000e+00 1.0000000000000000e+00
