# This file was created by meshio v5.3.5
115 4 0
0 8 4 3 1
1 8 4 1 0
2 8 4 11 0
3 5 4 11 0
4 5 4 2 0
5 16 15 25 2
6 16 5 4 11
7 19 15 25 26
8 19 21 25 26
9 19 21 15 26
10 19 16 15 25
11 14 13 24 1
12 14 8 13 1
13 14 11 23 0
14 14 8 1 0
15 14 8 11 0
16 22 21 25 23
17 22 21 25 26
18 22 21 24 23
19 12 19 21 15
20 12 19 16 15
21 12 19 16 21
22 6 4 3 2
23 6 8 4 3
24 6 5 4 2
25 6 16 5 2
26 6 16 5 4
27 6 16 4 11
28 17 5 2 0
29 17 21 25 23
30 17 16 5 11
31 17 16 25 2
32 17 16 5 2
33 17 11 23 0
34 17 5 11 0
35 17 19 21 25
36 17 19 16 25
37 17 19 16 21
38 17 14 11 23
39 20 14 24 23
40 20 21 24 23
41 20 17 21 23
42 20 17 14 23
43 20 22 21 24
44 20 17 16 21
45 20 14 13 24
46 20 12 16 21
47 20 17 16 11
48 20 17 14 11
49 20 12 16 11
50 20 12 14 11
51 18 12 22 21
52 18 20 22 21
53 18 20 12 21
54 18 20 13 24
55 18 20 22 24
56 18 12 14 13
57 18 20 14 13
58 18 20 12 14
59 18 13 24 26
60 18 22 24 26
61 18 22 13 26
62 7 15 3 2
63 7 6 3 2
64 7 16 15 2
65 7 6 16 2
66 7 12 16 15
67 7 12 16 11
68 7 6 16 11
69 7 6 4 11
70 10 7 15 3
71 10 15 3 26
72 10 13 3 26
73 10 22 13 26
74 10 21 15 26
75 10 22 21 26
76 10 12 21 15
77 10 12 22 21
78 10 13 3 1
79 10 8 3 1
80 10 8 13 1
81 10 18 22 13
82 10 18 12 22
83 9 7 12 11
84 9 14 8 11
85 9 12 14 11
86 9 8 4 11
87 9 7 4 11
88 9 14 8 13
89 9 12 14 13
90 9 6 8 4
91 9 7 6 4
92 9 10 8 13
93 9 10 8 3
94 9 10 7 3
95 9 7 12 15
96 9 10 12 15
97 9 10 7 15
98 9 6 8 3
99 9 7 6 3
100 9 18 12 13
101 9 10 18 13
102 9 10 18 12
103 15 25 26 2
104 15 3 26 2
105 4 1 2 0
106 4 3 1 2
107 13 3 26 1
108 13 24 26 1
109 14 1 23 0
110 14 24 1 23
111 22 25 26 23
112 22 24 26 23
113 17 25 2 23
114 17 2 23 0
