# This file was created by meshio v5.3.5
48 4 0
0 4 3 1 9
1 1 3 0 9
2 4 9 1 10
3 10 2 5 11
4 2 4 1 10
5 5 4 2 10
6 7 12 4 13
7 7 6 4 12
8 13 12 10 18
9 6 3 4 12
10 10 11 5 13
11 3 9 4 12
12 9 10 4 12
13 8 7 5 13
14 12 9 10 18
15 12 7 6 15
16 12 10 4 13
17 5 7 4 13
18 4 10 5 13
19 13 7 12 15
20 8 13 5 14
21 13 11 5 14
22 14 8 13 16
23 13 8 7 16
24 7 15 13 16
25 16 14 8 17
26 13 18 10 19
27 14 19 11 20
28 11 13 10 19
29 14 13 11 19
30 16 21 13 22
31 16 15 13 21
32 15 12 13 21
33 19 20 14 22
34 12 18 13 21
35 17 16 14 22
36 19 13 18 21
37 21 19 13 22
38 16 13 14 22
39 13 19 14 22
40 21 16 15 24
41 17 22 14 23
42 22 20 14 23
43 21 22 16 24
44 22 23 17 25
45 22 17 16 25
46 16 24 22 25
47 25 23 17 26
